<?xml version="1.0" encoding="utf-8"?>
<svg viewBox="-576.434 -200 1280 640" xmlns="http://www.w3.org/2000/svg">
  <rect class="st0" width="1280" height="640" style="fill: rgb(255, 255, 255);" x="-576.4" y="-200"/>
  <g transform="matrix(0.716189, 0, 0, 0.716189, -294.181458, -314.627441)" style="">
    <ellipse id="XMLID_2_" class="st2" cx="501.8" cy="487.5" rx="228" ry="205.8" style="fill: rgb(143, 227, 249);"/>
    <ellipse id="XMLID_188_" class="st2" cx="501.8" cy="487.5" rx="228" ry="205.8" style="fill: rgb(143, 227, 249);"/>
    <path id="XMLID_193_" class="st3" d="M507.8,689.3c52.1,0,100.1-15.3,138.5-41l-10.5-24.7c-22-51.9-74.2-85.8-132.1-85.8l0,0 c-57.9,0-110.1,33.9-132.1,85.8l-8.6,20.4C402.3,672.3,452.8,689.3,507.8,689.3z" style="fill: rgb(178, 235, 249);"/>
    <path id="XMLID_189_" class="st4" d="M501.7,470.3l-43.6,64l32.9,43.8c5.4,7.2,16.3,7.2,21.7,0l32.6-43.8L501.7,470.3z" style="fill: rgb(164, 224, 234);"/>
    <path id="XMLID_192_" class="st5" d="M501.8,669.3c-121.5,0-220.7-85.7-227.6-193.8c-0.3,4-0.4,8-0.4,12 c0,113.6,102.1,205.8,228,205.8s228-92.1,228-205.8c0-4-0.1-8-0.4-12C722.5,583.6,623.2,669.3,501.8,669.3z" style="fill: rgb(122, 209, 229);"/>
    <path id="XMLID_76_" class="st4" d="M638.6,628.1c-38.1,25.8-85.5,41.2-136.8,41.2c-50,0-96.2-14.5-133.7-39.1l-5,12.3 c39.4,29.2,89.8,46.8,144.8,46.8c49.7,0,95.7-14.4,133.2-38.8c1.8-1.2,3.5-2.5,5.3-3.8L638.6,628.1z" style="fill: rgb(164, 224, 234);"/>
    <path id="XMLID_186_" class="st5" d="M268.2,488.2c6.4,13.1,15,25.3,25.8,36.2c52.3,52.3,137.2,52.3,189.5,0 c43.8-43.8,50.9-110.3,21.5-161.5" style="fill: rgb(122, 209, 229);"/>
    <path id="XMLID_185_" class="st5" d="M729,503.8c-24,36.1-65,59.8-111.6,59.8c-74,0-134-60-134-134c0-33,11.9-63.2,31.7-86.6" style="fill: rgb(122, 209, 229);"/>
    <ellipse id="XMLID_75_" class="st6" cx="501.8" cy="487.5" rx="228" ry="205.8" style="fill: none; stroke: rgb(65, 61, 81); stroke-linecap: round; stroke-linejoin: round; stroke-miterlimit: 10; stroke-width: 16px;"/>
    <polygon id="XMLID_74_" class="st1" points="501.7,442.3 458.1,506.3 501.9,564.6 545.4,506.3 &#9;" style="fill: rgb(65, 61, 81);"/>
    <polygon id="XMLID_73_" class="st6" points="501.7,442.3 458.1,506.3 501.9,564.6 545.4,506.3 &#9;" style="fill: none; stroke: rgb(65, 61, 81); stroke-linecap: round; stroke-linejoin: round; stroke-miterlimit: 10; stroke-width: 16px;"/>
    <path id="XMLID_72_" class="st1" d="M600.7,303.9c-30-14-64.1-21.9-100-21.9s-70,7.9-100,21.9v140.1h200V303.9z" style="fill: rgb(65, 61, 81);"/>
    <g id="XMLID_58_">
      <path id="XMLID_71_" class="st1" d="M613.5,317.9l108.7-3.3c-15.7,39.3-17.8,98.4-4.1,163c-17.4,36.8-54.4,62.9-97.9,64.2l0,0 c-61.8,1.9-113.5-46.7-115.3-108.6l0,0C503,371.4,551.6,319.8,613.5,317.9z" style="fill: rgb(65, 61, 81);"/>
      <path id="XMLID_70_" class="st6" d="M613.5,317.9l108.7-3.3c-15.7,39.3-17.8,98.4-4.1,163c-17.4,36.8-54.4,62.9-97.9,64.2l0,0 c-61.8,1.9-113.5-46.7-115.3-108.6l0,0C503,371.4,551.6,319.8,613.5,317.9z" style="fill: none; stroke: rgb(65, 61, 81); stroke-linecap: round; stroke-linejoin: round; stroke-miterlimit: 10; stroke-width: 16px;"/>
      <circle id="XMLID_69_" class="st7" cx="617.4" cy="429.7" r="112" style="fill: rgb(247, 232, 173);"/>
      <circle id="XMLID_5_" class="st7" cx="617.4" cy="429.7" r="112" style="fill: rgb(247, 232, 173);"/>
      <path id="XMLID_86_" class="st8" d="M696.6,350.5c-21.5-21.5-49.7-32.4-77.9-32.8c21.2,4.1,41.5,14.3,57.9,30.8 c43.7,43.7,43.7,114.6,0,158.4c-22.2,22.2-51.4,33.1-80.4,32.8c35.3,6.8,73.1-3.5,100.4-30.8C740.3,465.1,740.3,394.2,696.6,350.5 z" style="fill: rgb(247, 214, 161);"/>
      <ellipse id="XMLID_3_" transform="matrix(0.7071 -0.7071 0.7071 0.7071 -130.8246 543.5441)" class="st0" cx="590.7" cy="429.7" rx="84" ry="84.6" style="fill: rgb(255, 255, 255); opacity: 0.7;"/>
      <path id="XMLID_12_" class="st9" d="M711.4,376.6c-3.1-4-9.1-15-12.8-18.7c-44-43.4-114.9-43-158.3,1.1 c-8.6,8.7-15.5,18.5-20.6,29C581.4,366.3,649,371.5,711.4,376.6z" style="fill: rgb(239, 202, 146);"/>
      <circle id="XMLID_68_" class="st6" cx="617.4" cy="429.7" r="112" style="fill: none; stroke: rgb(65, 61, 81); stroke-linecap: round; stroke-linejoin: round; stroke-miterlimit: 10; stroke-width: 16px;"/>
      <circle id="XMLID_67_" class="st6" cx="617.4" cy="429.7" r="112" style="fill: none; stroke: rgb(65, 61, 81); stroke-linecap: round; stroke-linejoin: round; stroke-miterlimit: 10; stroke-width: 16px;"/>
      <path id="XMLID_66_" class="st1" d="M706.7,362.1c-3.1-4-6.4-7.9-10.1-11.6c-43.7-43.7-114.6-43.7-158.4,0 c-8.7,8.7-15.6,18.4-20.8,28.8C579.4,358.1,644.3,356.5,706.7,362.1z" style="fill: rgb(65, 61, 81);"/>
      <circle id="XMLID_57_" class="st1" cx="562.9" cy="438.1" r="42" style="fill: rgb(65, 61, 81);"/>
      <circle id="XMLID_56_" class="st10" cx="539.1" cy="438.4" r="14" style="fill: rgb(255, 255, 255);"/>
    </g>
    <g id="XMLID_26_">
      <path id="XMLID_89_" class="st1" d="M388.8,317.9L280,314.6c15.7,39.3,17.8,98.4,4.1,163c17.4,36.8,54.4,62.9,97.9,64.2l0,0 c61.8,1.9,113.5-46.7,115.3-108.6l0,0C499.2,371.4,450.6,319.8,388.8,317.9z" style="fill: rgb(65, 61, 81);"/>
      <path id="XMLID_88_" class="st6" d="M388.8,317.9L280,314.6c15.7,39.3,17.8,98.4,4.1,163c17.4,36.8,54.4,62.9,97.9,64.2l0,0 c61.8,1.9,113.5-46.7,115.3-108.6l0,0C499.2,371.4,450.6,319.8,388.8,317.9z" style="fill: none; stroke: rgb(65, 61, 81); stroke-linecap: round; stroke-linejoin: round; stroke-miterlimit: 10; stroke-width: 16px;"/>
      <circle id="XMLID_87_" class="st7" cx="384.8" cy="429.7" r="112" style="fill: rgb(247, 232, 173);"/>
      <circle id="XMLID_84_" class="st7" cx="384.8" cy="429.7" r="112" style="fill: rgb(247, 232, 173);"/>
      <path id="XMLID_65_" class="st8" d="M305.6,350.5c21.5-21.5,49.7-32.4,77.9-32.8c-21.2,4.1-41.5,14.3-57.9,30.8 c-43.7,43.7-43.7,114.6,0,158.4c22.2,22.2,51.4,33.1,80.4,32.8c-35.3,6.8-73.1-3.5-100.4-30.8 C261.9,465.1,261.9,394.2,305.6,350.5z" style="fill: rgb(247, 214, 161);"/>
      <ellipse id="XMLID_64_" transform="matrix(0.7071 -0.7071 0.7071 0.7071 -183.3021 416.8521)" class="st0" cx="411.5" cy="429.7" rx="84.6" ry="84" style="fill: rgb(255, 255, 255); opacity: 0.7;"/>
      <path id="XMLID_63_" class="st11" d="M290.9,376.6c3.1-4,9.1-15,12.8-18.7c44-43.4,114.9-43,158.3,1.1c8.6,8.7,15.5,18.5,20.6,29 C420.8,366.3,353.2,371.5,290.9,376.6z" style="fill: rgb(239, 202, 146); opacity: 0.89;"/>
      <circle id="XMLID_62_" class="st6" cx="384.8" cy="429.7" r="112" style="fill: none; stroke: rgb(65, 61, 81); stroke-linecap: round; stroke-linejoin: round; stroke-miterlimit: 10; stroke-width: 16px;"/>
      <circle id="XMLID_61_" class="st6" cx="384.8" cy="429.7" r="112" style="fill: none; stroke: rgb(65, 61, 81); stroke-linecap: round; stroke-linejoin: round; stroke-miterlimit: 10; stroke-width: 16px;"/>
      <path id="XMLID_60_" class="st1" d="M295.6,362.1c3.1-4,6.4-7.9,10.1-11.6c43.7-43.7,114.6-43.7,158.4,0 c8.7,8.7,15.6,18.4,20.8,28.8C422.9,358.1,357.9,356.5,295.6,362.1z" style="fill: rgb(65, 61, 81);"/>
      <circle id="XMLID_59_" class="st1" cx="439.4" cy="438.1" r="42" style="fill: rgb(65, 61, 81);"/>
      <circle id="XMLID_37_" class="st10" cx="463.2" cy="438.4" r="14" style="fill: rgb(255, 255, 255);"/>
    </g>
    <path id="XMLID_19_" class="st1" d="M447.9,718.3L447.9,718.3c-8.8,0-16-7.2-16-16v-18c0-8.8,7.2-16,16-16h0c8.8,0,16,7.2,16,16v18 C463.9,711.1,456.8,718.3,447.9,718.3z" style="fill: rgb(65, 61, 81);"/>
    <path id="XMLID_17_" class="st1" d="M415.9,718.3L415.9,718.3c-8.8,0-16-7.2-16-16v-18c0-8.8,7.2-16,16-16h0c8.8,0,16,7.2,16,16v18 C431.9,711.1,424.8,718.3,415.9,718.3z" style="fill: rgb(65, 61, 81);"/>
    <path id="XMLID_16_" class="st1" d="M479.7,718.3L479.7,718.3c-8.8,0-16-7.2-16-16v-18c0-8.8,7.2-16,16-16h0c8.8,0,16,7.2,16,16v18 C495.7,711.1,488.5,718.3,479.7,718.3z" style="fill: rgb(65, 61, 81);"/>
    <path id="XMLID_15_" class="st1" d="M521.9,718.3L521.9,718.3c-8.8,0-16-7.2-16-16v-18c0-8.8,7.2-16,16-16h0c8.8,0,16,7.2,16,16v18 C537.9,711.1,530.7,718.3,521.9,718.3z" style="fill: rgb(65, 61, 81);"/>
    <path id="XMLID_14_" class="st1" d="M553.7,718.3L553.7,718.3c-8.8,0-16-7.2-16-16v-18c0-8.8,7.2-16,16-16h0c8.8,0,16,7.2,16,16v18 C569.7,711.1,562.5,718.3,553.7,718.3z" style="fill: rgb(65, 61, 81);"/>
    <path id="XMLID_13_" class="st1" d="M585.7,718.3L585.7,718.3c-8.8,0-16-7.2-16-16v-18c0-8.8,7.2-16,16-16h0c8.8,0,16,7.2,16,16v18 C601.7,711.1,594.5,718.3,585.7,718.3z" style="fill: rgb(65, 61, 81);"/>
    <path id="XMLID_11_" class="st12" d="M491.9,587.6c0,8.4-6.8,15.2-15.2,15.2c-8.4,0-15.2-6.8-15.2-15.2" style="fill: none; stroke: rgb(65, 61, 81); stroke-linecap: round; stroke-linejoin: round; stroke-miterlimit: 10; stroke-width: 8px;"/>
    <path id="XMLID_9_" class="st12" d="M538.4,587.6c0,8.4-6.8,15.2-15.2,15.2c-8.4,0-15.2-6.8-15.2-15.2" style="fill: none; stroke: rgb(65, 61, 81); stroke-linecap: round; stroke-linejoin: round; stroke-miterlimit: 10; stroke-width: 8px;"/>
    <path id="XMLID_10_" class="st13" d="M323,548.8c-2.2,4.7-7.7,6.8-12.5,4.6s-6.8-7.7-4.6-12.5" style="fill: none; opacity: 0.31; stroke: rgb(114, 200, 214); stroke-linecap: round; stroke-linejoin: round; stroke-miterlimit: 10; stroke-width: 8px;"/>
    <path id="XMLID_1_" class="st13" d="M352.8,564.3c-2.2,4.7-7.7,6.8-12.5,4.6c-4.7-2.2-6.8-7.7-4.6-12.5" style="fill: none; opacity: 0.31; stroke: rgb(114, 200, 214); stroke-linecap: round; stroke-linejoin: round; stroke-miterlimit: 10; stroke-width: 8px;"/>
    <path id="XMLID_78_" class="st13" d="M335.5,576.2c-2.2,4.7-7.7,6.8-12.5,4.6c-4.7-2.2-6.8-7.7-4.6-12.5" style="fill: none; opacity: 0.31; stroke: rgb(114, 200, 214); stroke-linecap: round; stroke-linejoin: round; stroke-miterlimit: 10; stroke-width: 8px;"/>
    <path id="XMLID_77_" class="st13" d="M361.7,596.1c-2.2,4.7-7.7,6.8-12.5,4.6c-4.7-2.2-6.8-7.7-4.6-12.5" style="fill: none; opacity: 0.31; stroke: rgb(114, 200, 214); stroke-linecap: round; stroke-linejoin: round; stroke-miterlimit: 10; stroke-width: 8px;"/>
    <path id="XMLID_79_" class="st13" d="M381.7,578.1c-2.2,4.7-7.7,6.8-12.5,4.6c-4.7-2.2-6.8-7.7-4.6-12.5" style="fill: none; opacity: 0.31; stroke: rgb(114, 200, 214); stroke-linecap: round; stroke-linejoin: round; stroke-miterlimit: 10; stroke-width: 8px;"/>
    <path id="XMLID_85_" class="st13" d="M683.7,550.8c2.2,4.7,7.7,6.8,12.5,4.6s6.8-7.7,4.6-12.5" style="fill: none; opacity: 0.31; stroke: rgb(114, 200, 214); stroke-linecap: round; stroke-linejoin: round; stroke-miterlimit: 10; stroke-width: 8px;"/>
    <path id="XMLID_83_" class="st13" d="M654,566.3c2.2,4.7,7.7,6.8,12.5,4.6c4.7-2.2,6.8-7.7,4.6-12.5" style="fill: none; opacity: 0.31; stroke: rgb(114, 200, 214); stroke-linecap: round; stroke-linejoin: round; stroke-miterlimit: 10; stroke-width: 8px;"/>
    <path id="XMLID_82_" class="st13" d="M671.2,578.2c2.2,4.7,7.7,6.8,12.5,4.6c4.7-2.2,6.8-7.7,4.6-12.5" style="fill: none; opacity: 0.31; stroke: rgb(114, 200, 214); stroke-linecap: round; stroke-linejoin: round; stroke-miterlimit: 10; stroke-width: 8px;"/>
    <path id="XMLID_81_" class="st13" d="M645.1,598.1c2.2,4.7,7.7,6.8,12.5,4.6c4.7-2.2,6.8-7.7,4.6-12.5" style="fill: none; opacity: 0.31; stroke: rgb(114, 200, 214); stroke-linecap: round; stroke-linejoin: round; stroke-miterlimit: 10; stroke-width: 8px;"/>
    <path id="XMLID_80_" class="st13" d="M625.1,580.1c2.2,4.7,7.7,6.8,12.5,4.6c4.7-2.2,6.8-7.7,4.6-12.5" style="fill: none; opacity: 0.31; stroke: rgb(114, 200, 214); stroke-linecap: round; stroke-linejoin: round; stroke-miterlimit: 10; stroke-width: 8px;"/>
    <path id="XMLID_8_" class="st12" d="M468.7,624.1c0,8.4-6.8,15.2-15.2,15.2c-8.4,0-15.2-6.8-15.2-15.2" style="fill: none; stroke: rgb(65, 61, 81); stroke-linecap: round; stroke-linejoin: round; stroke-miterlimit: 10; stroke-width: 8px;"/>
    <path id="XMLID_7_" class="st12" d="M515.2,624.1c0,8.4-6.8,15.2-15.2,15.2s-15.2-6.8-15.2-15.2" style="fill: none; stroke: rgb(65, 61, 81); stroke-linecap: round; stroke-linejoin: round; stroke-miterlimit: 10; stroke-width: 8px;"/>
    <path id="XMLID_6_" class="st12" d="M561.7,624.1c0,8.4-6.8,15.2-15.2,15.2c-8.4,0-15.2-6.8-15.2-15.2" style="fill: none; stroke: rgb(65, 61, 81); stroke-linecap: round; stroke-linejoin: round; stroke-miterlimit: 10; stroke-width: 8px;"/>
  </g>
  <path d="M -226.483 243.064 L -242.036 243.064 C -247.347 243.064 -251.288 242.001 -253.859 239.877 C -256.43 237.752 -257.716 234.479 -257.716 230.061 L -257.716 210.237 C -257.716 205.818 -256.43 202.535 -253.859 200.389 C -251.288 198.243 -247.347 197.17 -242.036 197.17 L -226.483 197.17 C -225.675 197.17 -225.091 197.351 -224.73 197.712 C -224.369 198.073 -224.188 198.657 -224.188 199.465 L -224.188 207.178 C -224.188 207.985 -224.369 208.569 -224.73 208.93 C -225.091 209.291 -225.675 209.472 -226.483 209.472 L -239.295 209.472 C -240.612 209.472 -241.59 209.737 -242.227 210.269 C -242.864 210.8 -243.183 211.597 -243.183 212.659 L -243.183 227.83 C -243.183 228.892 -242.864 229.667 -242.227 230.156 C -241.59 230.644 -240.612 230.889 -239.295 230.889 L -226.483 230.889 C -225.675 230.889 -225.091 231.07 -224.73 231.431 C -224.369 231.792 -224.188 232.376 -224.188 233.184 L -224.188 240.769 C -224.188 241.576 -224.369 242.161 -224.73 242.522 C -225.091 242.883 -225.675 243.064 -226.483 243.064 Z" style="fill: rgb(65, 61, 81); white-space: pre;"/>
  <path d="M -178.429 231.017 C -178.429 232.971 -178.715 234.745 -179.29 236.339 C -179.863 237.932 -180.883 239.292 -182.349 240.418 C -183.815 241.544 -185.834 242.426 -188.405 243.064 C -190.975 243.701 -194.237 244.02 -198.189 244.02 C -202.14 244.02 -205.412 243.701 -208.005 243.064 C -210.596 242.426 -212.625 241.544 -214.092 240.418 C -215.558 239.292 -216.577 237.932 -217.152 236.339 C -217.725 234.745 -218.012 232.971 -218.012 231.017 L -218.012 209.281 C -218.012 207.326 -217.725 205.552 -217.152 203.958 C -216.577 202.365 -215.558 200.995 -214.092 199.847 C -212.625 198.7 -210.596 197.808 -208.005 197.17 C -205.412 196.533 -202.14 196.214 -198.189 196.214 C -194.237 196.214 -190.975 196.533 -188.405 197.17 C -185.834 197.808 -183.815 198.7 -182.349 199.847 C -180.883 200.995 -179.863 202.365 -179.29 203.958 C -178.715 205.552 -178.429 207.326 -178.429 209.281 L -178.429 231.017 Z M -203.543 228.722 C -203.543 229.571 -203.224 230.283 -202.587 230.857 C -201.949 231.431 -200.483 231.718 -198.189 231.718 C -195.894 231.718 -194.428 231.431 -193.79 230.857 C -193.153 230.283 -192.834 229.571 -192.834 228.722 L -192.834 211.576 C -192.834 210.768 -193.153 210.078 -193.79 209.504 C -194.428 208.93 -195.894 208.644 -198.189 208.644 C -200.483 208.644 -201.949 208.93 -202.587 209.504 C -203.224 210.078 -203.543 210.768 -203.543 211.576 L -203.543 228.722 Z" style="fill: rgb(65, 61, 81); white-space: pre;"/>
  <path d="M -146.558 243.064 L -168.039 243.064 C -168.846 243.064 -169.431 242.883 -169.792 242.522 C -170.153 242.161 -170.334 241.576 -170.334 240.769 L -170.334 199.465 C -170.334 198.657 -170.153 198.073 -169.792 197.712 C -169.431 197.351 -168.846 197.17 -168.039 197.17 L -146.558 197.17 C -141.247 197.17 -137.305 198.232 -134.734 200.357 C -132.163 202.482 -130.878 205.754 -130.878 210.173 L -130.878 230.061 C -130.878 234.479 -132.163 237.752 -134.734 239.877 C -137.305 242.001 -141.247 243.064 -146.558 243.064 Z M -155.865 209.345 L -155.865 231.017 L -148.279 231.017 C -147.26 231.017 -146.505 230.762 -146.016 230.252 C -145.528 229.742 -145.284 228.956 -145.284 227.893 L -145.284 212.404 C -145.284 211.342 -145.528 210.566 -146.016 210.078 C -146.505 209.589 -147.26 209.345 -148.279 209.345 L -155.865 209.345 Z" style="fill: rgb(65, 61, 81); white-space: pre;"/>
  <path d="M -90.915 243.064 L -120.491 243.064 C -121.298 243.064 -121.882 242.883 -122.243 242.522 C -122.604 242.161 -122.785 241.576 -122.785 240.769 L -122.785 199.465 C -122.785 198.657 -122.604 198.073 -122.243 197.712 C -121.882 197.351 -121.298 197.17 -120.491 197.17 L -90.915 197.17 C -90.107 197.17 -89.523 197.351 -89.162 197.712 C -88.801 198.073 -88.62 198.657 -88.62 199.465 L -88.62 206.923 C -88.62 207.73 -88.801 208.314 -89.162 208.675 C -89.523 209.036 -90.107 209.217 -90.915 209.217 L -108.507 209.217 L -108.507 214.125 L -96.078 214.125 C -95.27 214.125 -94.686 214.306 -94.325 214.667 C -93.964 215.028 -93.783 215.612 -93.783 216.42 L -93.783 223.24 C -93.783 224.047 -93.964 224.632 -94.325 224.993 C -94.686 225.354 -95.27 225.535 -96.078 225.535 L -108.507 225.535 L -108.507 231.017 L -90.915 231.017 C -90.107 231.017 -89.523 231.197 -89.162 231.558 C -88.801 231.919 -88.62 232.504 -88.62 233.311 L -88.62 240.769 C -88.62 241.576 -88.801 242.161 -89.162 242.522 C -89.523 242.883 -90.107 243.064 -90.915 243.064 Z" style="fill: rgb(65, 61, 81); white-space: pre;"/>
  <path d="M -66.696 208.644 L -66.696 216.803 L -61.915 216.803 C -60.81 216.803 -60.067 216.515 -59.684 215.942 C -59.302 215.368 -59.11 214.656 -59.11 213.807 L -59.11 211.64 C -59.11 210.789 -59.302 210.078 -59.684 209.504 C -60.067 208.93 -60.81 208.644 -61.915 208.644 L -66.696 208.644 Z M -68.99 243.064 L -78.806 243.064 C -79.613 243.064 -80.198 242.883 -80.559 242.522 C -80.92 242.161 -81.101 241.576 -81.101 240.769 L -81.101 199.465 C -81.101 198.657 -80.92 198.073 -80.559 197.712 C -80.198 197.351 -79.613 197.17 -78.806 197.17 L -57.581 197.17 C -52.821 197.17 -49.539 198.158 -47.732 200.134 C -45.926 202.11 -45.024 204.67 -45.024 207.815 L -45.024 210.747 C -45.024 212.532 -45.289 214.051 -45.82 215.304 C -46.352 216.558 -47.275 217.461 -48.593 218.014 C -46.299 218.269 -44.439 219.203 -43.015 220.818 C -41.592 222.432 -40.881 224.579 -40.881 227.256 L -40.881 240.769 C -40.881 241.576 -41.061 242.161 -41.422 242.522 C -41.783 242.883 -42.367 243.064 -43.175 243.064 L -53.055 243.064 C -53.862 243.064 -54.447 242.883 -54.808 242.522 C -55.169 242.161 -55.35 241.576 -55.35 240.769 L -55.35 231.017 C -55.35 230.081 -55.53 229.391 -55.891 228.945 C -56.252 228.499 -56.879 228.276 -57.772 228.276 L -66.696 228.276 L -66.696 240.769 C -66.696 241.576 -66.876 242.161 -67.237 242.522 C -67.598 242.883 -68.182 243.064 -68.99 243.064 Z" style="fill: rgb(65, 61, 81); white-space: pre;"/>
  <path d="M -12.442 243.064 L -32.584 243.064 C -33.391 243.064 -33.976 242.883 -34.337 242.522 C -34.698 242.161 -34.879 241.576 -34.879 240.769 L -34.879 233.311 C -34.879 232.504 -34.698 231.919 -34.337 231.558 C -33.976 231.197 -33.391 231.017 -32.584 231.017 L -15.438 231.017 C -14.885 231.017 -14.471 230.836 -14.195 230.475 C -13.919 230.114 -13.781 229.678 -13.781 229.168 C -13.781 228.446 -13.919 227.914 -14.195 227.575 C -14.471 227.235 -14.885 227.043 -15.438 227.001 L -24.999 225.662 C -27.973 225.237 -30.364 224.26 -32.17 222.73 C -33.976 221.201 -34.879 218.651 -34.879 215.082 L -34.879 208.389 C -34.879 204.776 -33.71 202.004 -31.373 200.07 C -29.035 198.136 -25.806 197.17 -21.685 197.17 L -3.837 197.17 C -3.029 197.17 -2.446 197.351 -2.085 197.712 C -1.723 198.073 -1.542 198.657 -1.542 199.465 L -1.542 207.05 C -1.542 207.857 -1.723 208.442 -2.085 208.803 C -2.446 209.164 -3.029 209.345 -3.837 209.345 L -18.689 209.345 C -19.241 209.345 -19.666 209.525 -19.964 209.886 C -20.261 210.247 -20.41 210.704 -20.41 211.257 C -20.41 211.809 -20.261 212.277 -19.964 212.659 C -19.666 213.042 -19.241 213.254 -18.689 213.297 L -9.191 214.572 C -6.216 214.996 -3.816 215.974 -1.989 217.504 C -0.161 219.033 0.752 221.583 0.752 225.153 L 0.752 231.845 C 0.752 235.457 -0.427 238.229 -2.786 240.163 C -5.143 242.097 -8.363 243.064 -12.442 243.064 Z" style="fill: rgb(65, 61, 81); white-space: pre;"/>
  <path d="M 34.216 243.064 L 24.336 243.064 C 23.529 243.064 22.945 242.883 22.583 242.522 C 22.222 242.161 22.042 241.576 22.042 240.769 L 22.042 199.465 C 22.042 198.657 22.222 198.073 22.583 197.712 C 22.945 197.351 23.529 197.17 24.336 197.17 L 52.765 197.17 C 53.573 197.17 54.156 197.351 54.517 197.712 C 54.879 198.073 55.059 198.657 55.059 199.465 L 55.059 207.05 C 55.059 207.857 54.879 208.442 54.517 208.803 C 54.156 209.164 53.573 209.345 52.765 209.345 L 36.511 209.345 L 36.511 215.974 L 47.602 215.974 C 48.41 215.974 48.993 216.154 49.354 216.515 C 49.716 216.876 49.896 217.461 49.896 218.269 L 49.896 225.917 C 49.896 226.725 49.716 227.309 49.354 227.67 C 48.993 228.031 48.41 228.212 47.602 228.212 L 36.511 228.212 L 36.511 240.769 C 36.511 241.576 36.33 242.161 35.969 242.522 C 35.608 242.883 35.024 243.064 34.216 243.064 Z" style="fill: rgb(65, 61, 81); white-space: pre;"/>
  <path d="M 99.989 231.017 C 99.989 232.971 99.703 234.745 99.129 236.339 C 98.556 237.932 97.536 239.292 96.069 240.418 C 94.604 241.544 92.585 242.426 90.014 243.064 C 87.443 243.701 84.182 244.02 80.23 244.02 C 76.278 244.02 73.006 243.701 70.414 243.064 C 67.822 242.426 65.793 241.544 64.326 240.418 C 62.861 239.292 61.841 237.932 61.267 236.339 C 60.694 234.745 60.406 232.971 60.406 231.017 L 60.406 209.281 C 60.406 207.326 60.694 205.552 61.267 203.958 C 61.841 202.365 62.861 200.995 64.326 199.847 C 65.793 198.7 67.822 197.808 70.414 197.17 C 73.006 196.533 76.278 196.214 80.23 196.214 C 84.182 196.214 87.443 196.533 90.014 197.17 C 92.585 197.808 94.604 198.7 96.069 199.847 C 97.536 200.995 98.556 202.365 99.129 203.958 C 99.703 205.552 99.989 207.326 99.989 209.281 L 99.989 231.017 Z M 74.876 228.722 C 74.876 229.571 75.194 230.283 75.832 230.857 C 76.469 231.431 77.935 231.718 80.23 231.718 C 82.525 231.718 83.991 231.431 84.628 230.857 C 85.265 230.283 85.584 229.571 85.584 228.722 L 85.584 211.576 C 85.584 210.768 85.265 210.078 84.628 209.504 C 83.991 208.93 82.525 208.644 80.23 208.644 C 77.935 208.644 76.469 208.93 75.832 209.504 C 75.194 210.078 74.876 210.768 74.876 211.576 L 74.876 228.722 Z" style="fill: rgb(65, 61, 81); white-space: pre;"/>
  <path d="M 122.49 208.644 L 122.49 216.803 L 127.271 216.803 C 128.376 216.803 129.119 216.515 129.501 215.942 C 129.884 215.368 130.075 214.656 130.075 213.807 L 130.075 211.64 C 130.075 210.789 129.884 210.078 129.501 209.504 C 129.119 208.93 128.376 208.644 127.271 208.644 L 122.49 208.644 Z M 120.195 243.064 L 110.379 243.064 C 109.572 243.064 108.988 242.883 108.627 242.522 C 108.266 242.161 108.085 241.576 108.085 240.769 L 108.085 199.465 C 108.085 198.657 108.266 198.073 108.627 197.712 C 108.988 197.351 109.572 197.17 110.379 197.17 L 131.605 197.17 C 136.365 197.17 139.647 198.158 141.453 200.134 C 143.259 202.11 144.162 204.67 144.162 207.815 L 144.162 210.747 C 144.162 212.532 143.897 214.051 143.365 215.304 C 142.834 216.558 141.91 217.461 140.592 218.014 C 142.887 218.269 144.746 219.203 146.17 220.818 C 147.594 222.432 148.305 224.579 148.305 227.256 L 148.305 240.769 C 148.305 241.576 148.125 242.161 147.764 242.522 C 147.403 242.883 146.818 243.064 146.01 243.064 L 136.131 243.064 C 135.323 243.064 134.739 242.883 134.378 242.522 C 134.017 242.161 133.836 241.576 133.836 240.769 L 133.836 231.017 C 133.836 230.081 133.655 229.391 133.294 228.945 C 132.933 228.499 132.306 228.276 131.414 228.276 L 122.49 228.276 L 122.49 240.769 C 122.49 241.576 122.309 242.161 121.949 242.522 C 121.588 242.883 121.003 243.064 120.195 243.064 Z" style="fill: rgb(65, 61, 81); white-space: pre;"/>
  <path d="M 201.66 243.064 L 172.084 243.064 C 171.277 243.064 170.692 242.883 170.331 242.522 C 169.97 242.161 169.789 241.576 169.789 240.769 L 169.789 199.465 C 169.789 198.657 169.97 198.073 170.331 197.712 C 170.692 197.351 171.277 197.17 172.084 197.17 L 201.66 197.17 C 202.467 197.17 203.051 197.351 203.412 197.712 C 203.774 198.073 203.954 198.657 203.954 199.465 L 203.954 206.923 C 203.954 207.73 203.774 208.314 203.412 208.675 C 203.051 209.036 202.467 209.217 201.66 209.217 L 184.067 209.217 L 184.067 214.125 L 196.497 214.125 C 197.304 214.125 197.888 214.306 198.249 214.667 C 198.611 215.028 198.791 215.612 198.791 216.42 L 198.791 223.24 C 198.791 224.047 198.611 224.632 198.249 224.993 C 197.888 225.354 197.304 225.535 196.497 225.535 L 184.067 225.535 L 184.067 231.017 L 201.66 231.017 C 202.467 231.017 203.051 231.197 203.412 231.558 C 203.774 231.919 203.954 232.504 203.954 233.311 L 203.954 240.769 C 203.954 241.576 203.774 242.161 203.412 242.522 C 203.051 242.883 202.467 243.064 201.66 243.064 Z" style="fill: rgb(65, 61, 81); white-space: pre;"/>
  <path d="M 228.11 210.556 L 225.114 220.245 L 235.121 220.245 L 232.126 210.556 C 231.956 210.173 231.775 209.897 231.583 209.727 C 231.393 209.557 231.169 209.472 230.914 209.472 L 229.321 209.472 C 229.066 209.472 228.843 209.557 228.651 209.727 C 228.461 209.897 228.28 210.173 228.11 210.556 Z M 224.477 240.769 C 224.477 241.576 224.296 242.161 223.935 242.522 C 223.574 242.883 222.99 243.064 222.182 243.064 L 212.812 243.064 C 212.005 243.064 211.421 242.883 211.059 242.522 C 210.698 242.161 210.517 241.576 210.517 240.769 L 210.517 223.941 C 210.517 222.667 210.719 221.201 211.123 219.543 C 211.527 217.886 212.154 215.952 213.003 213.743 L 218.549 199.274 C 218.804 198.551 219.197 198.02 219.728 197.68 C 220.259 197.34 220.95 197.17 221.8 197.17 L 238.946 197.17 C 239.754 197.17 240.423 197.34 240.953 197.68 C 241.485 198.02 241.878 198.551 242.133 199.274 L 247.678 213.743 C 248.528 215.952 249.155 217.886 249.558 219.543 C 249.962 221.201 250.164 222.667 250.164 223.941 L 250.164 240.769 C 250.164 241.576 249.984 242.161 249.622 242.522 C 249.261 242.883 248.677 243.064 247.87 243.064 L 238.245 243.064 C 237.395 243.064 236.768 242.883 236.364 242.522 C 235.961 242.161 235.759 241.576 235.759 240.769 L 235.759 231.845 L 224.477 231.845 L 224.477 240.769 Z" style="fill: rgb(65, 61, 81); white-space: pre;"/>
  <path d="M 272.409 208.644 L 272.409 216.803 L 277.19 216.803 C 278.295 216.803 279.038 216.515 279.421 215.942 C 279.803 215.368 279.994 214.656 279.994 213.807 L 279.994 211.64 C 279.994 210.789 279.803 210.078 279.421 209.504 C 279.038 208.93 278.295 208.644 277.19 208.644 L 272.409 208.644 Z M 270.114 243.064 L 260.298 243.064 C 259.491 243.064 258.907 242.883 258.545 242.522 C 258.184 242.161 258.004 241.576 258.004 240.769 L 258.004 199.465 C 258.004 198.657 258.184 198.073 258.545 197.712 C 258.907 197.351 259.491 197.17 260.298 197.17 L 281.524 197.17 C 286.284 197.17 289.566 198.158 291.372 200.134 C 293.178 202.11 294.081 204.67 294.081 207.815 L 294.081 210.747 C 294.081 212.532 293.815 214.051 293.284 215.304 C 292.753 216.558 291.829 217.461 290.511 218.014 C 292.806 218.269 294.665 219.203 296.088 220.818 C 297.512 222.432 298.224 224.579 298.224 227.256 L 298.224 240.769 C 298.224 241.576 298.044 242.161 297.682 242.522 C 297.321 242.883 296.737 243.064 295.929 243.064 L 286.05 243.064 C 285.242 243.064 284.658 242.883 284.296 242.522 C 283.935 242.161 283.755 241.576 283.755 240.769 L 283.755 231.017 C 283.755 230.081 283.574 229.391 283.213 228.945 C 282.852 228.499 282.225 228.276 281.333 228.276 L 272.409 228.276 L 272.409 240.769 C 272.409 241.576 272.229 242.161 271.867 242.522 C 271.506 242.883 270.922 243.064 270.114 243.064 Z" style="fill: rgb(65, 61, 81); white-space: pre;"/>
  <path d="M 325.12 243.064 L 314.794 243.064 C 313.987 243.064 313.402 242.883 313.041 242.522 C 312.68 242.161 312.499 241.576 312.499 240.769 L 312.499 209.472 L 303.129 209.472 C 302.322 209.472 301.738 209.291 301.376 208.93 C 301.015 208.569 300.835 207.985 300.835 207.178 L 300.835 199.465 C 300.835 198.657 301.015 198.073 301.376 197.712 C 301.738 197.351 302.322 197.17 303.129 197.17 L 336.784 197.17 C 337.592 197.17 338.176 197.351 338.537 197.712 C 338.899 198.073 339.079 198.657 339.079 199.465 L 339.079 207.178 C 339.079 207.985 338.899 208.569 338.537 208.93 C 338.176 209.291 337.592 209.472 336.784 209.472 L 327.414 209.472 L 327.414 240.769 C 327.414 241.576 327.234 242.161 326.872 242.522 C 326.511 242.883 325.928 243.064 325.12 243.064 Z" style="fill: rgb(65, 61, 81); white-space: pre;"/>
  <path d="M 357.441 243.064 L 347.561 243.064 C 346.754 243.064 346.169 242.883 345.808 242.522 C 345.447 242.161 345.266 241.576 345.266 240.769 L 345.266 199.465 C 345.266 198.657 345.447 198.073 345.808 197.712 C 346.169 197.351 346.754 197.17 347.561 197.17 L 357.441 197.17 C 358.249 197.17 358.833 197.351 359.194 197.712 C 359.555 198.073 359.735 198.657 359.735 199.465 L 359.735 213.297 L 370.38 213.297 L 370.38 199.465 C 370.38 198.657 370.561 198.073 370.922 197.712 C 371.283 197.351 371.868 197.17 372.675 197.17 L 382.555 197.17 C 383.362 197.17 383.947 197.351 384.308 197.712 C 384.669 198.073 384.849 198.657 384.849 199.465 L 384.849 240.769 C 384.849 241.576 384.669 242.161 384.308 242.522 C 383.947 242.883 383.362 243.064 382.555 243.064 L 372.675 243.064 C 371.868 243.064 371.283 242.883 370.922 242.522 C 370.561 242.161 370.38 241.576 370.38 240.769 L 370.38 226.619 L 359.735 226.619 L 359.735 240.769 C 359.735 241.576 359.555 242.161 359.194 242.522 C 358.833 242.883 358.249 243.064 357.441 243.064 Z" style="fill: rgb(65, 61, 81); white-space: pre;"/>
  <path d="M -238.599 351.699 L -238.599 352.211 L -247.151 352.211 C -250.463 352.211 -252.656 351.699 -253.731 350.675 C -254.807 349.65 -255.345 347.961 -255.345 345.605 L -255.345 331.267 C -255.345 328.843 -254.798 327.119 -253.706 326.095 C -252.614 325.071 -250.429 324.559 -247.151 324.559 L -238.599 324.559 L -238.599 325.071 L -247.151 325.071 C -250.156 325.071 -252.187 325.54 -253.245 326.479 C -254.303 327.418 -254.833 329.014 -254.833 331.267 L -254.833 345.605 C -254.833 347.824 -254.321 349.395 -253.296 350.317 C -252.272 351.238 -250.224 351.699 -247.151 351.699 L -238.599 351.699 Z" style="fill: rgb(51, 51, 51); white-space: pre;"/>
  <path d="M -202.764 345.964 C -202.764 348.012 -203.498 349.676 -204.966 350.956 C -206.434 352.237 -209.165 352.877 -213.159 352.877 C -217.153 352.877 -219.867 352.237 -221.301 350.956 C -222.734 349.676 -223.451 348.012 -223.451 345.964 L -223.451 330.858 C -223.451 328.809 -222.734 327.145 -221.301 325.864 C -219.867 324.584 -217.153 323.944 -213.159 323.944 C -209.165 323.944 -206.434 324.584 -204.966 325.864 C -203.498 327.145 -202.764 328.809 -202.764 330.858 L -202.764 345.964 Z M -222.939 345.964 C -222.939 347.875 -222.257 349.42 -220.891 350.598 C -219.525 351.776 -216.948 352.365 -213.159 352.365 C -209.369 352.365 -206.775 351.776 -205.375 350.598 C -203.976 349.42 -203.276 347.875 -203.276 345.964 L -203.276 330.858 C -203.276 328.946 -203.976 327.401 -205.375 326.223 C -206.775 325.045 -209.369 324.456 -213.159 324.456 C -216.948 324.456 -219.525 325.045 -220.891 326.223 C -222.257 327.401 -222.939 328.946 -222.939 330.858 L -222.939 345.964 Z" style="fill: rgb(51, 51, 51); white-space: pre;"/>
  <path d="M -185.092 352.211 L -185.092 324.559 L -172.699 324.559 C -170.959 324.559 -169.55 324.747 -168.475 325.122 C -167.399 325.498 -166.572 326.001 -165.992 326.633 C -165.411 327.265 -165.018 328.016 -164.813 328.886 C -164.609 329.756 -164.506 330.687 -164.506 331.677 L -164.506 345.247 C -164.506 346.237 -164.6 347.159 -164.788 348.012 C -164.976 348.866 -165.36 349.6 -165.94 350.214 C -166.521 350.829 -167.357 351.315 -168.449 351.673 C -169.542 352.032 -170.959 352.211 -172.699 352.211 L -185.092 352.211 Z M -172.699 325.071 L -184.579 325.071 L -184.579 351.699 L -172.699 351.699 C -171.061 351.699 -169.738 351.537 -168.731 351.213 C -167.724 350.888 -166.947 350.445 -166.401 349.881 C -165.855 349.318 -165.488 348.635 -165.3 347.833 C -165.112 347.031 -165.018 346.169 -165.018 345.247 L -165.018 331.677 C -165.018 330.755 -165.121 329.884 -165.325 329.065 C -165.53 328.246 -165.906 327.546 -166.452 326.966 C -166.998 326.385 -167.775 325.924 -168.782 325.583 C -169.789 325.242 -171.095 325.071 -172.699 325.071 Z" style="fill: rgb(51, 51, 51); white-space: pre;"/>
  <path d="M -129.631 351.699 L -129.631 352.211 L -146.887 352.211 L -146.887 324.559 L -129.631 324.559 L -129.631 325.071 L -146.375 325.071 L -146.375 337.924 L -133.778 337.924 L -133.778 338.436 L -146.375 338.436 L -146.375 351.699 L -129.631 351.699 Z" style="fill: rgb(51, 51, 51); white-space: pre;"/>
  <path d="M -101.782 325.071 L -112.945 325.071 L -112.945 339.87 L -101.782 339.87 C -99.665 339.87 -98.248 339.358 -97.531 338.334 C -96.814 337.31 -96.456 335.859 -96.456 333.981 L -96.456 330.396 C -96.456 328.826 -96.891 327.546 -97.762 326.556 C -98.632 325.566 -99.972 325.071 -101.782 325.071 Z M -112.945 352.211 L -113.457 352.211 L -113.457 324.559 L -101.782 324.559 C -99.802 324.559 -98.334 325.114 -97.378 326.223 C -96.422 327.333 -95.944 328.724 -95.944 330.396 L -95.944 333.93 C -95.944 335.501 -96.149 336.789 -96.558 337.796 C -96.968 338.803 -97.787 339.494 -99.016 339.87 L -98.453 339.87 C -96.371 339.87 -94.817 340.34 -93.793 341.278 C -92.769 342.217 -92.257 343.574 -92.257 345.349 L -92.257 352.211 L -92.769 352.211 L -92.769 345.349 C -92.769 343.677 -93.23 342.422 -94.151 341.585 C -95.073 340.749 -96.507 340.331 -98.453 340.331 L -112.945 340.331 L -112.945 352.211 Z" style="fill: rgb(51, 51, 51); white-space: pre;"/>
  <path d="M -59.688 324.559 L -59.688 325.071 L -71.056 325.071 C -72.49 325.071 -73.634 325.464 -74.488 326.249 C -75.341 327.034 -75.768 328.024 -75.768 329.219 L -75.768 333.418 C -75.768 334.613 -75.529 335.449 -75.051 335.927 C -74.573 336.405 -73.941 336.712 -73.156 336.849 L -62.351 339.051 C -61.327 339.256 -60.482 339.7 -59.817 340.382 C -59.151 341.065 -58.818 342.294 -58.818 344.069 L -58.818 347.039 C -58.818 348.541 -59.33 349.779 -60.354 350.751 C -61.379 351.724 -62.761 352.211 -64.502 352.211 L -77.253 352.211 L -77.253 351.699 L -64.502 351.699 C -62.932 351.699 -61.677 351.264 -60.738 350.393 C -59.8 349.523 -59.33 348.405 -59.33 347.039 L -59.33 344.069 C -59.33 342.464 -59.612 341.363 -60.175 340.766 C -60.738 340.169 -61.498 339.768 -62.454 339.563 L -73.259 337.361 C -74.146 337.19 -74.872 336.84 -75.435 336.311 C -75.998 335.782 -76.28 334.818 -76.28 333.418 L -76.28 329.219 C -76.28 327.854 -75.802 326.735 -74.846 325.864 C -73.89 324.994 -72.627 324.559 -71.056 324.559 L -59.688 324.559 Z" style="fill: rgb(51, 51, 51); white-space: pre;"/>
  <path d="M -30.552 352.211 L -30.552 324.559 L -14.216 324.559 L -14.216 325.071 L -30.04 325.071 L -30.04 339.716 L -18.364 339.716 L -18.364 340.228 L -30.04 340.228 L -30.04 352.211 L -30.552 352.211 Z" style="fill: rgb(51, 51, 51); white-space: pre;"/>
  <path d="M 20.911 345.964 C 20.911 348.012 20.177 349.676 18.709 350.956 C 17.241 352.237 14.51 352.877 10.516 352.877 C 6.522 352.877 3.807 352.237 2.374 350.956 C 0.94 349.676 0.223 348.012 0.223 345.964 L 0.223 330.858 C 0.223 328.809 0.94 327.145 2.374 325.864 C 3.807 324.584 6.522 323.944 10.516 323.944 C 14.51 323.944 17.241 324.584 18.709 325.864 C 20.177 327.145 20.911 328.809 20.911 330.858 L 20.911 345.964 Z M 0.735 345.964 C 0.735 347.875 1.418 349.42 2.783 350.598 C 4.149 351.776 6.726 352.365 10.516 352.365 C 14.305 352.365 16.9 351.776 18.3 350.598 C 19.699 349.42 20.399 347.875 20.399 345.964 L 20.399 330.858 C 20.399 328.946 19.699 327.401 18.3 326.223 C 16.9 325.045 14.305 324.456 10.516 324.456 C 6.726 324.456 4.149 325.045 2.783 326.223 C 1.418 327.401 0.735 328.946 0.735 330.858 L 0.735 345.964 Z" style="fill: rgb(51, 51, 51); white-space: pre;"/>
  <path d="M 50.207 325.071 L 39.044 325.071 L 39.044 339.87 L 50.207 339.87 C 52.324 339.87 53.74 339.358 54.457 338.334 C 55.174 337.31 55.533 335.859 55.533 333.981 L 55.533 330.396 C 55.533 328.826 55.098 327.546 54.227 326.556 C 53.356 325.566 52.016 325.071 50.207 325.071 Z M 39.044 352.211 L 38.532 352.211 L 38.532 324.559 L 50.207 324.559 C 52.187 324.559 53.655 325.114 54.611 326.223 C 55.567 327.333 56.045 328.724 56.045 330.396 L 56.045 333.93 C 56.045 335.501 55.84 336.789 55.43 337.796 C 55.021 338.803 54.201 339.494 52.972 339.87 L 53.535 339.87 C 55.618 339.87 57.171 340.34 58.196 341.278 C 59.22 342.217 59.732 343.574 59.732 345.349 L 59.732 352.211 L 59.22 352.211 L 59.22 345.349 C 59.22 343.677 58.759 342.422 57.837 341.585 C 56.915 340.749 55.481 340.331 53.535 340.331 L 39.044 340.331 L 39.044 352.211 Z" style="fill: rgb(51, 51, 51); white-space: pre;"/>
  <path d="M 105.402 351.699 L 105.402 352.211 L 88.145 352.211 L 88.145 324.559 L 105.402 324.559 L 105.402 325.071 L 88.657 325.071 L 88.657 337.924 L 101.254 337.924 L 101.254 338.436 L 88.657 338.436 L 88.657 351.699 L 105.402 351.699 Z" style="fill: rgb(51, 51, 51); white-space: pre;"/>
  <path d="M 121.229 341.304 L 121.229 342.891 L 141.2 342.891 L 141.2 341.304 C 141.2 340.382 141.123 339.529 140.969 338.744 C 140.816 337.958 140.62 337.224 140.38 336.541 L 136.847 328.195 C 136.472 327.307 136.079 326.565 135.669 325.967 C 135.26 325.37 134.577 325.071 133.621 325.071 L 128.603 325.071 C 127.578 325.071 126.862 325.37 126.452 325.967 C 126.042 326.565 125.667 327.29 125.325 328.143 L 122.048 336.541 C 121.809 337.224 121.613 337.958 121.459 338.744 C 121.306 339.529 121.229 340.382 121.229 341.304 Z M 141.2 352.211 L 141.2 343.403 L 121.229 343.403 L 121.229 352.211 L 120.717 352.211 L 120.717 341.304 C 120.717 340.348 120.794 339.469 120.947 338.666 C 121.101 337.864 121.314 337.088 121.588 336.337 L 124.865 327.939 C 125.24 326.983 125.667 326.181 126.145 325.532 C 126.623 324.883 127.442 324.559 128.603 324.559 L 133.621 324.559 C 134.748 324.559 135.542 324.883 136.002 325.532 C 136.463 326.181 136.898 327 137.308 327.99 L 140.842 336.337 C 141.115 337.088 141.328 337.864 141.481 338.666 C 141.635 339.469 141.712 340.348 141.712 341.304 L 141.712 352.211 L 141.2 352.211 Z" style="fill: rgb(51, 51, 51); white-space: pre;"/>
  <path d="M 170.65 325.071 L 159.487 325.071 L 159.487 339.87 L 170.65 339.87 C 172.767 339.87 174.183 339.358 174.9 338.334 C 175.617 337.31 175.976 335.859 175.976 333.981 L 175.976 330.396 C 175.976 328.826 175.54 327.546 174.669 326.556 C 173.799 325.566 172.459 325.071 170.65 325.071 Z M 159.487 352.211 L 158.975 352.211 L 158.975 324.559 L 170.65 324.559 C 172.63 324.559 174.098 325.114 175.054 326.223 C 176.01 327.333 176.488 328.724 176.488 330.396 L 176.488 333.93 C 176.488 335.501 176.283 336.789 175.873 337.796 C 175.464 338.803 174.644 339.494 173.415 339.87 L 173.978 339.87 C 176.061 339.87 177.614 340.34 178.638 341.278 C 179.663 342.217 180.175 343.574 180.175 345.349 L 180.175 352.211 L 179.663 352.211 L 179.663 345.349 C 179.663 343.677 179.202 342.422 178.28 341.585 C 177.358 340.749 175.924 340.331 173.978 340.331 L 159.487 340.331 L 159.487 352.211 Z" style="fill: rgb(51, 51, 51); white-space: pre;"/>
  <path d="M 202.954 352.211 L 202.954 325.071 L 192.457 325.071 L 192.457 324.559 L 213.964 324.559 L 213.964 325.071 L 203.466 325.071 L 203.466 352.211 L 202.954 352.211 Z" style="fill: rgb(51, 51, 51); white-space: pre;"/>
  <path d="M 229.072 352.211 L 229.072 324.559 L 229.584 324.559 L 229.584 338.129 L 249.247 338.129 L 249.247 324.559 L 249.76 324.559 L 249.76 352.211 L 249.247 352.211 L 249.247 338.641 L 229.584 338.641 L 229.584 352.211 L 229.072 352.211 Z" style="fill: rgb(51, 51, 51); white-space: pre;"/>
  <path d="M 268.448 352.211 L 268.448 347.347 L 268.96 347.347 L 268.96 352.211 L 268.448 352.211 Z" style="fill: rgb(51, 51, 51); white-space: pre;"/>
  <path d="M 303.79 351.699 L 303.79 352.211 L 295.239 352.211 C 291.927 352.211 289.734 351.699 288.659 350.675 C 287.583 349.65 287.046 347.961 287.046 345.605 L 287.046 331.267 C 287.046 328.843 287.592 327.119 288.684 326.095 C 289.777 325.071 291.962 324.559 295.239 324.559 L 303.79 324.559 L 303.79 325.071 L 295.239 325.071 C 292.235 325.071 290.203 325.54 289.145 326.479 C 288.087 327.418 287.558 329.014 287.558 331.267 L 287.558 345.605 C 287.558 347.824 288.07 349.395 289.094 350.317 C 290.118 351.238 292.167 351.699 295.239 351.699 L 303.79 351.699 Z" style="fill: rgb(51, 51, 51); white-space: pre;"/>
  <path d="M 339.626 345.964 C 339.626 348.012 338.892 349.676 337.424 350.956 C 335.956 352.237 333.225 352.877 329.231 352.877 C 325.237 352.877 322.523 352.237 321.089 350.956 C 319.655 349.676 318.938 348.012 318.938 345.964 L 318.938 330.858 C 318.938 328.809 319.655 327.145 321.089 325.864 C 322.523 324.584 325.237 323.944 329.231 323.944 C 333.225 323.944 335.956 324.584 337.424 325.864 C 338.892 327.145 339.626 328.809 339.626 330.858 L 339.626 345.964 Z M 319.45 345.964 C 319.45 347.875 320.133 349.42 321.499 350.598 C 322.864 351.776 325.442 352.365 329.231 352.365 C 333.02 352.365 335.615 351.776 337.014 350.598 C 338.414 349.42 339.114 347.875 339.114 345.964 L 339.114 330.858 C 339.114 328.946 338.414 327.401 337.014 326.223 C 335.615 325.045 333.02 324.456 329.231 324.456 C 325.442 324.456 322.864 325.045 321.499 326.223 C 320.133 327.401 319.45 328.946 319.45 330.858 L 319.45 345.964 Z" style="fill: rgb(51, 51, 51); white-space: pre;"/>
  <path d="M 369.741 337.105 C 370.356 337.105 370.8 336.968 371.073 336.695 C 371.346 336.422 371.773 335.842 372.353 334.954 L 378.6 325.43 C 378.805 325.088 379.036 324.858 379.292 324.738 C 379.548 324.619 379.812 324.559 380.085 324.559 L 380.956 324.559 C 381.434 324.559 381.784 324.687 382.006 324.943 C 382.227 325.199 382.338 325.6 382.338 326.147 L 382.338 352.211 L 381.826 352.211 L 381.826 326.147 C 381.826 325.874 381.767 325.626 381.647 325.404 C 381.528 325.182 381.297 325.071 380.956 325.071 L 380.188 325.071 C 379.949 325.071 379.744 325.105 379.573 325.173 C 379.403 325.242 379.215 325.446 379.01 325.788 L 372.763 335.21 C 372.148 336.132 371.679 336.764 371.355 337.105 C 371.03 337.446 370.492 337.617 369.741 337.617 C 368.99 337.617 368.453 337.446 368.128 337.105 C 367.804 336.764 367.335 336.132 366.72 335.21 L 360.473 325.788 C 360.268 325.446 360.072 325.242 359.884 325.173 C 359.696 325.105 359.483 325.071 359.244 325.071 L 358.476 325.071 C 358.134 325.071 357.912 325.182 357.81 325.404 C 357.708 325.626 357.656 325.874 357.656 326.147 L 357.656 352.211 L 357.144 352.211 L 357.144 326.147 C 357.144 325.6 357.255 325.199 357.477 324.943 C 357.699 324.687 358.032 324.559 358.476 324.559 L 359.346 324.559 C 359.62 324.559 359.893 324.619 360.166 324.738 C 360.439 324.858 360.678 325.088 360.883 325.43 L 367.13 334.954 C 367.71 335.842 368.137 336.422 368.41 336.695 C 368.683 336.968 369.127 337.105 369.741 337.105 Z" style="fill: rgb(51, 51, 51); white-space: pre;"/>
</svg>