<?xml version="1.0" encoding="utf-8"?>
<svg viewBox="0 247.742 1000 552.258" style="enable-background:new 0 0 1000 1000;" xmlns="http://www.w3.org/2000/svg">
  <defs>
    <style type="text/css">
	.st0{opacity:0.7;fill:#FFFFFF;}
	.st1{fill:#413D51;}
	.st2{fill:#8FE3F9;}
	.st3{fill:#B2EBF9;}
	.st4{fill:#A4E0EA;}
	.st5{fill:#7AD1E5;}
	.st6{fill:none;stroke:#413D51;stroke-width:16;stroke-linecap:round;stroke-linejoin:round;stroke-miterlimit:10;}
	.st7{fill:#F7E8AD;}
	.st8{fill:#F7D6A1;}
	.st9{fill:#EFCA92;}
	.st10{fill:#FFFFFF;}
	.st11{opacity:0.89;fill:#EFCA92;}
	.st12{fill:none;stroke:#413D51;stroke-width:8;stroke-linecap:round;stroke-linejoin:round;stroke-miterlimit:10;}
	.st13{opacity:0.31;fill:none;stroke:#72C8D6;stroke-width:8;stroke-linecap:round;stroke-linejoin:round;stroke-miterlimit:10;}
</style>
  </defs>
  <rect class="st0" width="1000" height="1000"/>
  <g>
    <ellipse id="XMLID_2_" class="st2" cx="501.8" cy="487.5" rx="228" ry="205.8"/>
    <ellipse id="XMLID_188_" class="st2" cx="501.8" cy="487.5" rx="228" ry="205.8"/>
    <path id="XMLID_193_" class="st3" d="M507.8,689.3c52.1,0,100.1-15.3,138.5-41l-10.5-24.7c-22-51.9-74.2-85.8-132.1-85.8l0,0 c-57.9,0-110.1,33.9-132.1,85.8l-8.6,20.4C402.3,672.3,452.8,689.3,507.8,689.3z"/>
    <path id="XMLID_189_" class="st4" d="M501.7,470.3l-43.6,64l32.9,43.8c5.4,7.2,16.3,7.2,21.7,0l32.6-43.8L501.7,470.3z"/>
    <path id="XMLID_192_" class="st5" d="M501.8,669.3c-121.5,0-220.7-85.7-227.6-193.8c-0.3,4-0.4,8-0.4,12 c0,113.6,102.1,205.8,228,205.8s228-92.1,228-205.8c0-4-0.1-8-0.4-12C722.5,583.6,623.2,669.3,501.8,669.3z"/>
    <path id="XMLID_76_" class="st4" d="M638.6,628.1c-38.1,25.8-85.5,41.2-136.8,41.2c-50,0-96.2-14.5-133.7-39.1l-5,12.3 c39.4,29.2,89.8,46.8,144.8,46.8c49.7,0,95.7-14.4,133.2-38.8c1.8-1.2,3.5-2.5,5.3-3.8L638.6,628.1z"/>
    <path id="XMLID_186_" class="st5" d="M268.2,488.2c6.4,13.1,15,25.3,25.8,36.2c52.3,52.3,137.2,52.3,189.5,0 c43.8-43.8,50.9-110.3,21.5-161.5"/>
    <path id="XMLID_185_" class="st5" d="M729,503.8c-24,36.1-65,59.8-111.6,59.8c-74,0-134-60-134-134c0-33,11.9-63.2,31.7-86.6"/>
    <ellipse id="XMLID_75_" class="st6" cx="501.8" cy="487.5" rx="228" ry="205.8"/>
    <polygon id="XMLID_74_" class="st1" points="501.7,442.3 458.1,506.3 501.9,564.6 545.4,506.3 &#9;"/>
    <polygon id="XMLID_73_" class="st6" points="501.7,442.3 458.1,506.3 501.9,564.6 545.4,506.3 &#9;"/>
    <path id="XMLID_72_" class="st1" d="M600.7,303.9c-30-14-64.1-21.9-100-21.9s-70,7.9-100,21.9v140.1h200V303.9z"/>
    <g id="XMLID_58_">
      <path id="XMLID_71_" class="st1" d="M613.5,317.9l108.7-3.3c-15.7,39.3-17.8,98.4-4.1,163c-17.4,36.8-54.4,62.9-97.9,64.2l0,0 c-61.8,1.9-113.5-46.7-115.3-108.6l0,0C503,371.4,551.6,319.8,613.5,317.9z"/>
      <path id="XMLID_70_" class="st6" d="M613.5,317.9l108.7-3.3c-15.7,39.3-17.8,98.4-4.1,163c-17.4,36.8-54.4,62.9-97.9,64.2l0,0 c-61.8,1.9-113.5-46.7-115.3-108.6l0,0C503,371.4,551.6,319.8,613.5,317.9z"/>
      <circle id="XMLID_69_" class="st7" cx="617.4" cy="429.7" r="112"/>
      <circle id="XMLID_5_" class="st7" cx="617.4" cy="429.7" r="112"/>
      <path id="XMLID_86_" class="st8" d="M696.6,350.5c-21.5-21.5-49.7-32.4-77.9-32.8c21.2,4.1,41.5,14.3,57.9,30.8 c43.7,43.7,43.7,114.6,0,158.4c-22.2,22.2-51.4,33.1-80.4,32.8c35.3,6.8,73.1-3.5,100.4-30.8C740.3,465.1,740.3,394.2,696.6,350.5 z"/>
      <ellipse id="XMLID_3_" transform="matrix(0.7071 -0.7071 0.7071 0.7071 -130.8246 543.5441)" class="st0" cx="590.7" cy="429.7" rx="84" ry="84.6"/>
      <path id="XMLID_12_" class="st9" d="M711.4,376.6c-3.1-4-9.1-15-12.8-18.7c-44-43.4-114.9-43-158.3,1.1 c-8.6,8.7-15.5,18.5-20.6,29C581.4,366.3,649,371.5,711.4,376.6z"/>
      <circle id="XMLID_68_" class="st6" cx="617.4" cy="429.7" r="112"/>
      <circle id="XMLID_67_" class="st6" cx="617.4" cy="429.7" r="112"/>
      <path id="XMLID_66_" class="st1" d="M706.7,362.1c-3.1-4-6.4-7.9-10.1-11.6c-43.7-43.7-114.6-43.7-158.4,0 c-8.7,8.7-15.6,18.4-20.8,28.8C579.4,358.1,644.3,356.5,706.7,362.1z"/>
      <circle id="XMLID_57_" class="st1" cx="562.9" cy="438.1" r="42"/>
      <circle id="XMLID_56_" class="st10" cx="539.1" cy="438.4" r="14"/>
    </g>
    <g id="XMLID_26_">
      <path id="XMLID_89_" class="st1" d="M388.8,317.9L280,314.6c15.7,39.3,17.8,98.4,4.1,163c17.4,36.8,54.4,62.9,97.9,64.2l0,0 c61.8,1.9,113.5-46.7,115.3-108.6l0,0C499.2,371.4,450.6,319.8,388.8,317.9z"/>
      <path id="XMLID_88_" class="st6" d="M388.8,317.9L280,314.6c15.7,39.3,17.8,98.4,4.1,163c17.4,36.8,54.4,62.9,97.9,64.2l0,0 c61.8,1.9,113.5-46.7,115.3-108.6l0,0C499.2,371.4,450.6,319.8,388.8,317.9z"/>
      <circle id="XMLID_87_" class="st7" cx="384.8" cy="429.7" r="112"/>
      <circle id="XMLID_84_" class="st7" cx="384.8" cy="429.7" r="112"/>
      <path id="XMLID_65_" class="st8" d="M305.6,350.5c21.5-21.5,49.7-32.4,77.9-32.8c-21.2,4.1-41.5,14.3-57.9,30.8 c-43.7,43.7-43.7,114.6,0,158.4c22.2,22.2,51.4,33.1,80.4,32.8c-35.3,6.8-73.1-3.5-100.4-30.8 C261.9,465.1,261.9,394.2,305.6,350.5z"/>
      <ellipse id="XMLID_64_" transform="matrix(0.7071 -0.7071 0.7071 0.7071 -183.3021 416.8521)" class="st0" cx="411.5" cy="429.7" rx="84.6" ry="84"/>
      <path id="XMLID_63_" class="st11" d="M290.9,376.6c3.1-4,9.1-15,12.8-18.7c44-43.4,114.9-43,158.3,1.1c8.6,8.7,15.5,18.5,20.6,29 C420.8,366.3,353.2,371.5,290.9,376.6z"/>
      <circle id="XMLID_62_" class="st6" cx="384.8" cy="429.7" r="112"/>
      <circle id="XMLID_61_" class="st6" cx="384.8" cy="429.7" r="112"/>
      <path id="XMLID_60_" class="st1" d="M295.6,362.1c3.1-4,6.4-7.9,10.1-11.6c43.7-43.7,114.6-43.7,158.4,0 c8.7,8.7,15.6,18.4,20.8,28.8C422.9,358.1,357.9,356.5,295.6,362.1z"/>
      <circle id="XMLID_59_" class="st1" cx="439.4" cy="438.1" r="42"/>
      <circle id="XMLID_37_" class="st10" cx="463.2" cy="438.4" r="14"/>
    </g>
    <path id="XMLID_19_" class="st1" d="M447.9,718.3L447.9,718.3c-8.8,0-16-7.2-16-16v-18c0-8.8,7.2-16,16-16h0c8.8,0,16,7.2,16,16v18 C463.9,711.1,456.8,718.3,447.9,718.3z"/>
    <path id="XMLID_17_" class="st1" d="M415.9,718.3L415.9,718.3c-8.8,0-16-7.2-16-16v-18c0-8.8,7.2-16,16-16h0c8.8,0,16,7.2,16,16v18 C431.9,711.1,424.8,718.3,415.9,718.3z"/>
    <path id="XMLID_16_" class="st1" d="M479.7,718.3L479.7,718.3c-8.8,0-16-7.2-16-16v-18c0-8.8,7.2-16,16-16h0c8.8,0,16,7.2,16,16v18 C495.7,711.1,488.5,718.3,479.7,718.3z"/>
    <path id="XMLID_15_" class="st1" d="M521.9,718.3L521.9,718.3c-8.8,0-16-7.2-16-16v-18c0-8.8,7.2-16,16-16h0c8.8,0,16,7.2,16,16v18 C537.9,711.1,530.7,718.3,521.9,718.3z"/>
    <path id="XMLID_14_" class="st1" d="M553.7,718.3L553.7,718.3c-8.8,0-16-7.2-16-16v-18c0-8.8,7.2-16,16-16h0c8.8,0,16,7.2,16,16v18 C569.7,711.1,562.5,718.3,553.7,718.3z"/>
    <path id="XMLID_13_" class="st1" d="M585.7,718.3L585.7,718.3c-8.8,0-16-7.2-16-16v-18c0-8.8,7.2-16,16-16h0c8.8,0,16,7.2,16,16v18 C601.7,711.1,594.5,718.3,585.7,718.3z"/>
    <path id="XMLID_11_" class="st12" d="M491.9,587.6c0,8.4-6.8,15.2-15.2,15.2c-8.4,0-15.2-6.8-15.2-15.2"/>
    <path id="XMLID_9_" class="st12" d="M538.4,587.6c0,8.4-6.8,15.2-15.2,15.2c-8.4,0-15.2-6.8-15.2-15.2"/>
    <path id="XMLID_10_" class="st13" d="M323,548.8c-2.2,4.7-7.7,6.8-12.5,4.6s-6.8-7.7-4.6-12.5"/>
    <path id="XMLID_1_" class="st13" d="M352.8,564.3c-2.2,4.7-7.7,6.8-12.5,4.6c-4.7-2.2-6.8-7.7-4.6-12.5"/>
    <path id="XMLID_78_" class="st13" d="M335.5,576.2c-2.2,4.7-7.7,6.8-12.5,4.6c-4.7-2.2-6.8-7.7-4.6-12.5"/>
    <path id="XMLID_77_" class="st13" d="M361.7,596.1c-2.2,4.7-7.7,6.8-12.5,4.6c-4.7-2.2-6.8-7.7-4.6-12.5"/>
    <path id="XMLID_79_" class="st13" d="M381.7,578.1c-2.2,4.7-7.7,6.8-12.5,4.6c-4.7-2.2-6.8-7.7-4.6-12.5"/>
    <path id="XMLID_85_" class="st13" d="M683.7,550.8c2.2,4.7,7.7,6.8,12.5,4.6s6.8-7.7,4.6-12.5"/>
    <path id="XMLID_83_" class="st13" d="M654,566.3c2.2,4.7,7.7,6.8,12.5,4.6c4.7-2.2,6.8-7.7,4.6-12.5"/>
    <path id="XMLID_82_" class="st13" d="M671.2,578.2c2.2,4.7,7.7,6.8,12.5,4.6c4.7-2.2,6.8-7.7,4.6-12.5"/>
    <path id="XMLID_81_" class="st13" d="M645.1,598.1c2.2,4.7,7.7,6.8,12.5,4.6c4.7-2.2,6.8-7.7,4.6-12.5"/>
    <path id="XMLID_80_" class="st13" d="M625.1,580.1c2.2,4.7,7.7,6.8,12.5,4.6c4.7-2.2,6.8-7.7,4.6-12.5"/>
    <path id="XMLID_8_" class="st12" d="M468.7,624.1c0,8.4-6.8,15.2-15.2,15.2c-8.4,0-15.2-6.8-15.2-15.2"/>
    <path id="XMLID_7_" class="st12" d="M515.2,624.1c0,8.4-6.8,15.2-15.2,15.2s-15.2-6.8-15.2-15.2"/>
    <path id="XMLID_6_" class="st12" d="M561.7,624.1c0,8.4-6.8,15.2-15.2,15.2c-8.4,0-15.2-6.8-15.2-15.2"/>
  </g>
  <path d="M 94.599 778.693 L 72.883 778.693 Q 61.758 778.693 56.373 774.243 Q 50.989 769.793 50.989 760.537 L 50.989 732.858 Q 50.989 723.602 56.373 719.108 Q 61.758 714.613 72.883 714.613 L 94.599 714.613 Q 96.29 714.613 97.046 715.37 Q 97.803 716.126 97.803 717.817 L 97.803 728.586 Q 97.803 730.277 97.046 731.034 Q 96.29 731.79 94.599 731.79 L 76.71 731.79 Q 73.951 731.79 72.616 732.903 Q 71.281 734.015 71.281 736.24 L 71.281 757.422 Q 71.281 759.647 72.616 760.671 Q 73.951 761.694 76.71 761.694 L 94.599 761.694 Q 96.29 761.694 97.046 762.451 Q 97.803 763.207 97.803 764.898 L 97.803 775.489 Q 97.803 777.18 97.046 777.937 Q 96.29 778.693 94.599 778.693 Z" style="fill: rgb(65, 61, 81); white-space: pre;"/>
  <path d="M 161.68 761.872 Q 161.68 765.966 160.479 769.304 Q 159.277 772.641 156.207 775 Q 153.136 777.358 147.752 778.693 Q 142.367 780.028 134.09 780.028 Q 125.813 780.028 120.384 778.693 Q 114.955 777.358 111.885 775 Q 108.814 772.641 107.613 769.304 Q 106.411 765.966 106.411 761.872 L 106.411 731.523 Q 106.411 727.429 107.613 724.092 Q 108.814 720.754 111.885 718.351 Q 114.955 715.948 120.384 714.613 Q 125.813 713.278 134.09 713.278 Q 142.367 713.278 147.752 714.613 Q 153.136 715.948 156.207 718.351 Q 159.277 720.754 160.479 724.092 Q 161.68 727.429 161.68 731.523 Z M 126.614 758.668 Q 126.614 760.448 127.949 761.65 Q 129.284 762.851 134.09 762.851 Q 138.896 762.851 140.231 761.65 Q 141.566 760.448 141.566 758.668 L 141.566 734.727 Q 141.566 733.036 140.231 731.835 Q 138.896 730.633 134.09 730.633 Q 129.284 730.633 127.949 731.835 Q 126.614 733.036 126.614 734.727 Z" style="fill: rgb(65, 61, 81); white-space: pre;"/>
  <path d="M 206.182 778.693 L 176.189 778.693 Q 174.498 778.693 173.742 777.937 Q 172.985 777.18 172.985 775.489 L 172.985 717.817 Q 172.985 716.126 173.742 715.37 Q 174.498 714.613 176.189 714.613 L 206.182 714.613 Q 217.307 714.613 222.692 719.063 Q 228.076 723.513 228.076 732.769 L 228.076 760.537 Q 228.076 769.793 222.692 774.243 Q 217.307 778.693 206.182 778.693 Z M 193.188 731.612 L 193.188 761.872 L 203.779 761.872 Q 205.915 761.872 206.939 760.804 Q 207.962 759.736 207.962 757.511 L 207.962 735.884 Q 207.962 733.659 206.939 732.636 Q 205.915 731.612 203.779 731.612 Z" style="fill: rgb(65, 61, 81); white-space: pre;"/>
  <path d="M 283.861 778.693 L 242.565 778.693 Q 240.874 778.693 240.118 777.937 Q 239.361 777.18 239.361 775.489 L 239.361 717.817 Q 239.361 716.126 240.118 715.37 Q 240.874 714.613 242.565 714.613 L 283.861 714.613 Q 285.552 714.613 286.309 715.37 Q 287.065 716.126 287.065 717.817 L 287.065 728.23 Q 287.065 729.921 286.309 730.678 Q 285.552 731.434 283.861 731.434 L 259.297 731.434 L 259.297 738.287 L 276.652 738.287 Q 278.343 738.287 279.1 739.044 Q 279.856 739.8 279.856 741.491 L 279.856 751.014 Q 279.856 752.705 279.1 753.462 Q 278.343 754.218 276.652 754.218 L 259.297 754.218 L 259.297 761.872 L 283.861 761.872 Q 285.552 761.872 286.309 762.629 Q 287.065 763.385 287.065 765.076 L 287.065 775.489 Q 287.065 777.18 286.309 777.937 Q 285.552 778.693 283.861 778.693 Z" style="fill: rgb(65, 61, 81); white-space: pre;"/>
  <path d="M 317.679 730.633 L 317.679 742.025 L 324.354 742.025 Q 326.668 742.025 327.469 740.824 Q 328.27 739.622 328.27 737.842 L 328.27 734.816 Q 328.27 733.036 327.469 731.835 Q 326.668 730.633 324.354 730.633 Z M 314.475 778.693 L 300.769 778.693 Q 299.078 778.693 298.322 777.937 Q 297.565 777.18 297.565 775.489 L 297.565 717.817 Q 297.565 716.126 298.322 715.37 Q 299.078 714.613 300.769 714.613 L 330.406 714.613 Q 340.374 714.613 344.157 718.752 Q 347.939 722.89 347.939 729.476 L 347.939 733.57 Q 347.939 737.308 346.827 739.934 Q 345.714 742.559 342.955 743.716 Q 347.761 744.25 350.743 747.632 Q 353.724 751.014 353.724 756.621 L 353.724 775.489 Q 353.724 777.18 352.968 777.937 Q 352.211 778.693 350.52 778.693 L 336.725 778.693 Q 335.034 778.693 334.278 777.937 Q 333.521 777.18 333.521 775.489 L 333.521 761.872 Q 333.521 759.914 332.765 758.98 Q 332.008 758.045 330.139 758.045 L 317.679 758.045 L 317.679 775.489 Q 317.679 777.18 316.923 777.937 Q 316.166 778.693 314.475 778.693 Z" style="fill: rgb(65, 61, 81); white-space: pre;"/>
  <path d="M 393.401 778.693 L 365.277 778.693 Q 363.586 778.693 362.83 777.937 Q 362.073 777.18 362.073 775.489 L 362.073 765.076 Q 362.073 763.385 362.83 762.629 Q 363.586 761.872 365.277 761.872 L 389.218 761.872 Q 390.375 761.872 390.954 761.116 Q 391.532 760.359 391.532 759.291 Q 391.532 757.778 390.954 757.066 Q 390.375 756.354 389.218 756.265 L 375.868 754.396 Q 369.638 753.506 365.856 750.302 Q 362.073 747.098 362.073 739.622 L 362.073 730.277 Q 362.073 722.712 366.968 718.663 Q 371.863 714.613 380.496 714.613 L 405.416 714.613 Q 407.107 714.613 407.864 715.37 Q 408.62 716.126 408.62 717.817 L 408.62 728.408 Q 408.62 730.099 407.864 730.856 Q 407.107 731.612 405.416 731.612 L 384.679 731.612 Q 383.522 731.612 382.899 732.369 Q 382.276 733.125 382.276 734.282 Q 382.276 735.439 382.899 736.24 Q 383.522 737.041 384.679 737.13 L 397.94 738.91 Q 404.17 739.8 407.997 743.004 Q 411.824 746.208 411.824 753.684 L 411.824 763.029 Q 411.824 770.594 406.885 774.644 Q 401.945 778.693 393.401 778.693 Z" style="fill: rgb(65, 61, 81); white-space: pre;"/>
  <path d="M 458.535 778.693 L 444.74 778.693 Q 443.049 778.693 442.292 777.937 Q 441.536 777.18 441.536 775.489 L 441.536 717.817 Q 441.536 716.126 442.292 715.37 Q 443.049 714.613 444.74 714.613 L 484.434 714.613 Q 486.125 714.613 486.881 715.37 Q 487.638 716.126 487.638 717.817 L 487.638 728.408 Q 487.638 730.099 486.881 730.856 Q 486.125 731.612 484.434 731.612 L 461.739 731.612 L 461.739 740.868 L 477.225 740.868 Q 478.916 740.868 479.672 741.625 Q 480.429 742.381 480.429 744.072 L 480.429 754.752 Q 480.429 756.443 479.672 757.2 Q 478.916 757.956 477.225 757.956 L 461.739 757.956 L 461.739 775.489 Q 461.739 777.18 460.982 777.937 Q 460.226 778.693 458.535 778.693 Z" style="fill: rgb(65, 61, 81); white-space: pre;"/>
  <path d="M 550.374 761.872 Q 550.374 765.966 549.172 769.304 Q 547.971 772.641 544.9 775 Q 541.83 777.358 536.445 778.693 Q 531.061 780.028 522.784 780.028 Q 514.507 780.028 509.078 778.693 Q 503.649 777.358 500.578 775 Q 497.508 772.641 496.306 769.304 Q 495.105 765.966 495.105 761.872 L 495.105 731.523 Q 495.105 727.429 496.306 724.092 Q 497.508 720.754 500.578 718.351 Q 503.649 715.948 509.078 714.613 Q 514.507 713.278 522.784 713.278 Q 531.061 713.278 536.445 714.613 Q 541.83 715.948 544.9 718.351 Q 547.971 720.754 549.172 724.092 Q 550.374 727.429 550.374 731.523 Z M 515.308 758.668 Q 515.308 760.448 516.643 761.65 Q 517.978 762.851 522.784 762.851 Q 527.59 762.851 528.925 761.65 Q 530.26 760.448 530.26 758.668 L 530.26 734.727 Q 530.26 733.036 528.925 731.835 Q 527.59 730.633 522.784 730.633 Q 517.978 730.633 516.643 731.835 Q 515.308 733.036 515.308 734.727 Z" style="fill: rgb(65, 61, 81); white-space: pre;"/>
  <path d="M 581.777 730.633 L 581.777 742.025 L 588.452 742.025 Q 590.766 742.025 591.567 740.824 Q 592.368 739.622 592.368 737.842 L 592.368 734.816 Q 592.368 733.036 591.567 731.835 Q 590.766 730.633 588.452 730.633 Z M 578.573 778.693 L 564.867 778.693 Q 563.176 778.693 562.419 777.937 Q 561.663 777.18 561.663 775.489 L 561.663 717.817 Q 561.663 716.126 562.419 715.37 Q 563.176 714.613 564.867 714.613 L 594.504 714.613 Q 604.472 714.613 608.254 718.752 Q 612.037 722.89 612.037 729.476 L 612.037 733.57 Q 612.037 737.308 610.924 739.934 Q 609.812 742.559 607.053 743.716 Q 611.859 744.25 614.84 747.632 Q 617.822 751.014 617.822 756.621 L 617.822 775.489 Q 617.822 777.18 617.065 777.937 Q 616.309 778.693 614.618 778.693 L 600.823 778.693 Q 599.132 778.693 598.375 777.937 Q 597.619 777.18 597.619 775.489 L 597.619 761.872 Q 597.619 759.914 596.862 758.98 Q 596.106 758.045 594.237 758.045 L 581.777 758.045 L 581.777 775.489 Q 581.777 777.18 581.02 777.937 Q 580.264 778.693 578.573 778.693 Z" style="fill: rgb(65, 61, 81); white-space: pre;"/>
  <path d="M 692.305 778.693 L 651.009 778.693 Q 649.318 778.693 648.561 777.937 Q 647.805 777.18 647.805 775.489 L 647.805 717.817 Q 647.805 716.126 648.561 715.37 Q 649.318 714.613 651.009 714.613 L 692.305 714.613 Q 693.996 714.613 694.752 715.37 Q 695.509 716.126 695.509 717.817 L 695.509 728.23 Q 695.509 729.921 694.752 730.678 Q 693.996 731.434 692.305 731.434 L 667.741 731.434 L 667.741 738.287 L 685.096 738.287 Q 686.787 738.287 687.543 739.044 Q 688.3 739.8 688.3 741.491 L 688.3 751.014 Q 688.3 752.705 687.543 753.462 Q 686.787 754.218 685.096 754.218 L 667.741 754.218 L 667.741 761.872 L 692.305 761.872 Q 693.996 761.872 694.752 762.629 Q 695.509 763.385 695.509 765.076 L 695.509 775.489 Q 695.509 777.18 694.752 777.937 Q 693.996 778.693 692.305 778.693 Z" style="fill: rgb(65, 61, 81); white-space: pre;"/>
  <path d="M 729.238 733.303 L 725.055 746.831 L 739.028 746.831 L 734.845 733.303 Q 734.489 732.502 734.088 732.146 Q 733.688 731.79 733.154 731.79 L 730.929 731.79 Q 730.395 731.79 729.994 732.146 Q 729.594 732.502 729.238 733.303 Z M 724.165 775.489 Q 724.165 777.18 723.408 777.937 Q 722.652 778.693 720.961 778.693 L 707.878 778.693 Q 706.187 778.693 705.43 777.937 Q 704.674 777.18 704.674 775.489 L 704.674 751.993 Q 704.674 749.323 705.519 745.852 Q 706.365 742.381 708.145 737.753 L 715.888 717.55 Q 716.422 716.037 717.534 715.325 Q 718.647 714.613 720.427 714.613 L 744.368 714.613 Q 746.059 714.613 747.171 715.325 Q 748.284 716.037 748.818 717.55 L 756.561 737.753 Q 758.341 742.381 759.186 745.852 Q 760.032 749.323 760.032 751.993 L 760.032 775.489 Q 760.032 777.18 759.275 777.937 Q 758.519 778.693 756.828 778.693 L 743.389 778.693 Q 741.609 778.693 740.763 777.937 Q 739.918 777.18 739.918 775.489 L 739.918 763.029 L 724.165 763.029 Z" style="fill: rgb(65, 61, 81); white-space: pre;"/>
  <path d="M 791.077 730.633 L 791.077 742.025 L 797.752 742.025 Q 800.066 742.025 800.867 740.824 Q 801.668 739.622 801.668 737.842 L 801.668 734.816 Q 801.668 733.036 800.867 731.835 Q 800.066 730.633 797.752 730.633 Z M 787.873 778.693 L 774.167 778.693 Q 772.476 778.693 771.719 777.937 Q 770.963 777.18 770.963 775.489 L 770.963 717.817 Q 770.963 716.126 771.719 715.37 Q 772.476 714.613 774.167 714.613 L 803.804 714.613 Q 813.772 714.613 817.554 718.752 Q 821.337 722.89 821.337 729.476 L 821.337 733.57 Q 821.337 737.308 820.224 739.934 Q 819.112 742.559 816.353 743.716 Q 821.159 744.25 824.14 747.632 Q 827.122 751.014 827.122 756.621 L 827.122 775.489 Q 827.122 777.18 826.365 777.937 Q 825.609 778.693 823.918 778.693 L 810.123 778.693 Q 808.432 778.693 807.675 777.937 Q 806.919 777.18 806.919 775.489 L 806.919 761.872 Q 806.919 759.914 806.162 758.98 Q 805.406 758.045 803.537 758.045 L 791.077 758.045 L 791.077 775.489 Q 791.077 777.18 790.32 777.937 Q 789.564 778.693 787.873 778.693 Z" style="fill: rgb(65, 61, 81); white-space: pre;"/>
  <path d="M 864.677 778.693 L 850.259 778.693 Q 848.568 778.693 847.811 777.937 Q 847.055 777.18 847.055 775.489 L 847.055 731.79 L 833.972 731.79 Q 832.281 731.79 831.524 731.034 Q 830.768 730.277 830.768 728.586 L 830.768 717.817 Q 830.768 716.126 831.524 715.37 Q 832.281 714.613 833.972 714.613 L 880.964 714.613 Q 882.655 714.613 883.411 715.37 Q 884.168 716.126 884.168 717.817 L 884.168 728.586 Q 884.168 730.277 883.411 731.034 Q 882.655 731.79 880.964 731.79 L 867.881 731.79 L 867.881 775.489 Q 867.881 777.18 867.124 777.937 Q 866.368 778.693 864.677 778.693 Z" style="fill: rgb(65, 61, 81); white-space: pre;"/>
  <path d="M 909.791 778.693 L 895.996 778.693 Q 894.305 778.693 893.549 777.937 Q 892.792 777.18 892.792 775.489 L 892.792 717.817 Q 892.792 716.126 893.549 715.37 Q 894.305 714.613 895.996 714.613 L 909.791 714.613 Q 911.482 714.613 912.239 715.37 Q 912.995 716.126 912.995 717.817 L 912.995 737.13 L 927.858 737.13 L 927.858 717.817 Q 927.858 716.126 928.615 715.37 Q 929.371 714.613 931.062 714.613 L 944.857 714.613 Q 946.548 714.613 947.305 715.37 Q 948.061 716.126 948.061 717.817 L 948.061 775.489 Q 948.061 777.18 947.305 777.937 Q 946.548 778.693 944.857 778.693 L 931.062 778.693 Q 929.371 778.693 928.615 777.937 Q 927.858 777.18 927.858 775.489 L 927.858 755.731 L 912.995 755.731 L 912.995 775.489 Q 912.995 777.18 912.239 777.937 Q 911.482 778.693 909.791 778.693 Z" style="fill: rgb(65, 61, 81); white-space: pre;"/>
</svg>