<?xml version="1.0" encoding="utf-8"?>
<svg viewBox="0 230.041 1000 569.959" style="enable-background:new 0 0 1000 1000;" xmlns="http://www.w3.org/2000/svg">
  <defs>
    <style type="text/css">
	.st0{opacity:0.7;fill:#FFFFFF;}
	.st1{fill:#413D51;}
	.st2{fill:#8FE3F9;}
	.st3{fill:#B2EBF9;}
	.st4{fill:#A4E0EA;}
	.st5{fill:#7AD1E5;}
	.st6{fill:none;stroke:#413D51;stroke-width:16;stroke-linecap:round;stroke-linejoin:round;stroke-miterlimit:10;}
	.st7{fill:#F7E8AD;}
	.st8{fill:#F7D6A1;}
	.st9{fill:#EFCA92;}
	.st10{fill:#FFFFFF;}
	.st11{opacity:0.89;fill:#EFCA92;}
	.st12{fill:none;stroke:#413D51;stroke-width:8;stroke-linecap:round;stroke-linejoin:round;stroke-miterlimit:10;}
	.st13{opacity:0.31;fill:none;stroke:#72C8D6;stroke-width:8;stroke-linecap:round;stroke-linejoin:round;stroke-miterlimit:10;}
</style>
  </defs>
  <rect class="st0" width="1000" height="1000"/>
  <g>
    <ellipse id="XMLID_2_" class="st2" cx="501.8" cy="487.5" rx="228" ry="205.8"/>
    <ellipse id="XMLID_188_" class="st2" cx="501.8" cy="487.5" rx="228" ry="205.8"/>
    <path id="XMLID_193_" class="st3" d="M507.8,689.3c52.1,0,100.1-15.3,138.5-41l-10.5-24.7c-22-51.9-74.2-85.8-132.1-85.8l0,0 c-57.9,0-110.1,33.9-132.1,85.8l-8.6,20.4C402.3,672.3,452.8,689.3,507.8,689.3z"/>
    <path id="XMLID_189_" class="st4" d="M501.7,470.3l-43.6,64l32.9,43.8c5.4,7.2,16.3,7.2,21.7,0l32.6-43.8L501.7,470.3z"/>
    <path id="XMLID_192_" class="st5" d="M501.8,669.3c-121.5,0-220.7-85.7-227.6-193.8c-0.3,4-0.4,8-0.4,12 c0,113.6,102.1,205.8,228,205.8s228-92.1,228-205.8c0-4-0.1-8-0.4-12C722.5,583.6,623.2,669.3,501.8,669.3z"/>
    <path id="XMLID_76_" class="st4" d="M638.6,628.1c-38.1,25.8-85.5,41.2-136.8,41.2c-50,0-96.2-14.5-133.7-39.1l-5,12.3 c39.4,29.2,89.8,46.8,144.8,46.8c49.7,0,95.7-14.4,133.2-38.8c1.8-1.2,3.5-2.5,5.3-3.8L638.6,628.1z"/>
    <path id="XMLID_186_" class="st5" d="M268.2,488.2c6.4,13.1,15,25.3,25.8,36.2c52.3,52.3,137.2,52.3,189.5,0 c43.8-43.8,50.9-110.3,21.5-161.5"/>
    <path id="XMLID_185_" class="st5" d="M729,503.8c-24,36.1-65,59.8-111.6,59.8c-74,0-134-60-134-134c0-33,11.9-63.2,31.7-86.6"/>
    <ellipse id="XMLID_75_" class="st6" cx="501.8" cy="487.5" rx="228" ry="205.8"/>
    <polygon id="XMLID_74_" class="st1" points="501.7,442.3 458.1,506.3 501.9,564.6 545.4,506.3 &#9;"/>
    <polygon id="XMLID_73_" class="st6" points="501.7,442.3 458.1,506.3 501.9,564.6 545.4,506.3 &#9;"/>
    <path id="XMLID_72_" class="st1" d="M600.7,303.9c-30-14-64.1-21.9-100-21.9s-70,7.9-100,21.9v140.1h200V303.9z"/>
    <g id="XMLID_58_">
      <path id="XMLID_71_" class="st1" d="M613.5,317.9l108.7-3.3c-15.7,39.3-17.8,98.4-4.1,163c-17.4,36.8-54.4,62.9-97.9,64.2l0,0 c-61.8,1.9-113.5-46.7-115.3-108.6l0,0C503,371.4,551.6,319.8,613.5,317.9z"/>
      <path id="XMLID_70_" class="st6" d="M613.5,317.9l108.7-3.3c-15.7,39.3-17.8,98.4-4.1,163c-17.4,36.8-54.4,62.9-97.9,64.2l0,0 c-61.8,1.9-113.5-46.7-115.3-108.6l0,0C503,371.4,551.6,319.8,613.5,317.9z"/>
      <circle id="XMLID_69_" class="st7" cx="617.4" cy="429.7" r="112"/>
      <circle id="XMLID_5_" class="st7" cx="617.4" cy="429.7" r="112"/>
      <path id="XMLID_86_" class="st8" d="M696.6,350.5c-21.5-21.5-49.7-32.4-77.9-32.8c21.2,4.1,41.5,14.3,57.9,30.8 c43.7,43.7,43.7,114.6,0,158.4c-22.2,22.2-51.4,33.1-80.4,32.8c35.3,6.8,73.1-3.5,100.4-30.8C740.3,465.1,740.3,394.2,696.6,350.5 z"/>
      <ellipse id="XMLID_3_" transform="matrix(0.7071 -0.7071 0.7071 0.7071 -130.8246 543.5441)" class="st0" cx="590.7" cy="429.7" rx="84" ry="84.6"/>
      <path id="XMLID_12_" class="st9" d="M711.4,376.6c-3.1-4-9.1-15-12.8-18.7c-44-43.4-114.9-43-158.3,1.1 c-8.6,8.7-15.5,18.5-20.6,29C581.4,366.3,649,371.5,711.4,376.6z"/>
      <circle id="XMLID_68_" class="st6" cx="617.4" cy="429.7" r="112"/>
      <circle id="XMLID_67_" class="st6" cx="617.4" cy="429.7" r="112"/>
      <path id="XMLID_66_" class="st1" d="M706.7,362.1c-3.1-4-6.4-7.9-10.1-11.6c-43.7-43.7-114.6-43.7-158.4,0 c-8.7,8.7-15.6,18.4-20.8,28.8C579.4,358.1,644.3,356.5,706.7,362.1z"/>
      <circle id="XMLID_57_" class="st1" cx="562.9" cy="438.1" r="42"/>
      <circle id="XMLID_56_" class="st10" cx="539.1" cy="438.4" r="14"/>
    </g>
    <g id="XMLID_26_">
      <path id="XMLID_89_" class="st1" d="M388.8,317.9L280,314.6c15.7,39.3,17.8,98.4,4.1,163c17.4,36.8,54.4,62.9,97.9,64.2l0,0 c61.8,1.9,113.5-46.7,115.3-108.6l0,0C499.2,371.4,450.6,319.8,388.8,317.9z"/>
      <path id="XMLID_88_" class="st6" d="M388.8,317.9L280,314.6c15.7,39.3,17.8,98.4,4.1,163c17.4,36.8,54.4,62.9,97.9,64.2l0,0 c61.8,1.9,113.5-46.7,115.3-108.6l0,0C499.2,371.4,450.6,319.8,388.8,317.9z"/>
      <circle id="XMLID_87_" class="st7" cx="384.8" cy="429.7" r="112"/>
      <circle id="XMLID_84_" class="st7" cx="384.8" cy="429.7" r="112"/>
      <path id="XMLID_65_" class="st8" d="M305.6,350.5c21.5-21.5,49.7-32.4,77.9-32.8c-21.2,4.1-41.5,14.3-57.9,30.8 c-43.7,43.7-43.7,114.6,0,158.4c22.2,22.2,51.4,33.1,80.4,32.8c-35.3,6.8-73.1-3.5-100.4-30.8 C261.9,465.1,261.9,394.2,305.6,350.5z"/>
      <ellipse id="XMLID_64_" transform="matrix(0.7071 -0.7071 0.7071 0.7071 -183.3021 416.8521)" class="st0" cx="411.5" cy="429.7" rx="84.6" ry="84"/>
      <path id="XMLID_63_" class="st11" d="M290.9,376.6c3.1-4,9.1-15,12.8-18.7c44-43.4,114.9-43,158.3,1.1c8.6,8.7,15.5,18.5,20.6,29 C420.8,366.3,353.2,371.5,290.9,376.6z"/>
      <circle id="XMLID_62_" class="st6" cx="384.8" cy="429.7" r="112"/>
      <circle id="XMLID_61_" class="st6" cx="384.8" cy="429.7" r="112"/>
      <path id="XMLID_60_" class="st1" d="M295.6,362.1c3.1-4,6.4-7.9,10.1-11.6c43.7-43.7,114.6-43.7,158.4,0 c8.7,8.7,15.6,18.4,20.8,28.8C422.9,358.1,357.9,356.5,295.6,362.1z"/>
      <circle id="XMLID_59_" class="st1" cx="439.4" cy="438.1" r="42"/>
      <circle id="XMLID_37_" class="st10" cx="463.2" cy="438.4" r="14"/>
    </g>
    <path id="XMLID_19_" class="st1" d="M447.9,718.3L447.9,718.3c-8.8,0-16-7.2-16-16v-18c0-8.8,7.2-16,16-16h0c8.8,0,16,7.2,16,16v18 C463.9,711.1,456.8,718.3,447.9,718.3z"/>
    <path id="XMLID_17_" class="st1" d="M415.9,718.3L415.9,718.3c-8.8,0-16-7.2-16-16v-18c0-8.8,7.2-16,16-16h0c8.8,0,16,7.2,16,16v18 C431.9,711.1,424.8,718.3,415.9,718.3z"/>
    <path id="XMLID_16_" class="st1" d="M479.7,718.3L479.7,718.3c-8.8,0-16-7.2-16-16v-18c0-8.8,7.2-16,16-16h0c8.8,0,16,7.2,16,16v18 C495.7,711.1,488.5,718.3,479.7,718.3z"/>
    <path id="XMLID_15_" class="st1" d="M521.9,718.3L521.9,718.3c-8.8,0-16-7.2-16-16v-18c0-8.8,7.2-16,16-16h0c8.8,0,16,7.2,16,16v18 C537.9,711.1,530.7,718.3,521.9,718.3z"/>
    <path id="XMLID_14_" class="st1" d="M553.7,718.3L553.7,718.3c-8.8,0-16-7.2-16-16v-18c0-8.8,7.2-16,16-16h0c8.8,0,16,7.2,16,16v18 C569.7,711.1,562.5,718.3,553.7,718.3z"/>
    <path id="XMLID_13_" class="st1" d="M585.7,718.3L585.7,718.3c-8.8,0-16-7.2-16-16v-18c0-8.8,7.2-16,16-16h0c8.8,0,16,7.2,16,16v18 C601.7,711.1,594.5,718.3,585.7,718.3z"/>
    <path id="XMLID_11_" class="st12" d="M491.9,587.6c0,8.4-6.8,15.2-15.2,15.2c-8.4,0-15.2-6.8-15.2-15.2"/>
    <path id="XMLID_9_" class="st12" d="M538.4,587.6c0,8.4-6.8,15.2-15.2,15.2c-8.4,0-15.2-6.8-15.2-15.2"/>
    <path id="XMLID_10_" class="st13" d="M323,548.8c-2.2,4.7-7.7,6.8-12.5,4.6s-6.8-7.7-4.6-12.5"/>
    <path id="XMLID_1_" class="st13" d="M352.8,564.3c-2.2,4.7-7.7,6.8-12.5,4.6c-4.7-2.2-6.8-7.7-4.6-12.5"/>
    <path id="XMLID_78_" class="st13" d="M335.5,576.2c-2.2,4.7-7.7,6.8-12.5,4.6c-4.7-2.2-6.8-7.7-4.6-12.5"/>
    <path id="XMLID_77_" class="st13" d="M361.7,596.1c-2.2,4.7-7.7,6.8-12.5,4.6c-4.7-2.2-6.8-7.7-4.6-12.5"/>
    <path id="XMLID_79_" class="st13" d="M381.7,578.1c-2.2,4.7-7.7,6.8-12.5,4.6c-4.7-2.2-6.8-7.7-4.6-12.5"/>
    <path id="XMLID_85_" class="st13" d="M683.7,550.8c2.2,4.7,7.7,6.8,12.5,4.6s6.8-7.7,4.6-12.5"/>
    <path id="XMLID_83_" class="st13" d="M654,566.3c2.2,4.7,7.7,6.8,12.5,4.6c4.7-2.2,6.8-7.7,4.6-12.5"/>
    <path id="XMLID_82_" class="st13" d="M671.2,578.2c2.2,4.7,7.7,6.8,12.5,4.6c4.7-2.2,6.8-7.7,4.6-12.5"/>
    <path id="XMLID_81_" class="st13" d="M645.1,598.1c2.2,4.7,7.7,6.8,12.5,4.6c4.7-2.2,6.8-7.7,4.6-12.5"/>
    <path id="XMLID_80_" class="st13" d="M625.1,580.1c2.2,4.7,7.7,6.8,12.5,4.6c4.7-2.2,6.8-7.7,4.6-12.5"/>
    <path id="XMLID_8_" class="st12" d="M468.7,624.1c0,8.4-6.8,15.2-15.2,15.2c-8.4,0-15.2-6.8-15.2-15.2"/>
    <path id="XMLID_7_" class="st12" d="M515.2,624.1c0,8.4-6.8,15.2-15.2,15.2s-15.2-6.8-15.2-15.2"/>
    <path id="XMLID_6_" class="st12" d="M561.7,624.1c0,8.4-6.8,15.2-15.2,15.2c-8.4,0-15.2-6.8-15.2-15.2"/>
  </g>
  <path d="M 78.025 766.779 L 59.725 766.779 Q 50.35 766.779 45.812 763.029 Q 41.275 759.279 41.275 751.479 L 41.275 728.154 Q 41.275 720.354 45.812 716.566 Q 50.35 712.779 59.725 712.779 L 78.025 712.779 Q 79.45 712.779 80.087 713.416 Q 80.725 714.054 80.725 715.479 L 80.725 724.554 Q 80.725 725.979 80.087 726.616 Q 79.45 727.254 78.025 727.254 L 62.95 727.254 Q 60.625 727.254 59.5 728.191 Q 58.375 729.129 58.375 731.004 L 58.375 748.854 Q 58.375 750.729 59.5 751.591 Q 60.625 752.454 62.95 752.454 L 78.025 752.454 Q 79.45 752.454 80.087 753.091 Q 80.725 753.729 80.725 755.154 L 80.725 764.079 Q 80.725 765.504 80.087 766.141 Q 79.45 766.779 78.025 766.779 Z" style="fill: rgb(65, 61, 81); white-space: pre;"/>
  <path d="M 134.554 752.604 Q 134.554 756.054 133.541 758.866 Q 132.529 761.679 129.941 763.666 Q 127.354 765.654 122.816 766.779 Q 118.279 767.904 111.304 767.904 Q 104.329 767.904 99.754 766.779 Q 95.179 765.654 92.591 763.666 Q 90.004 761.679 88.991 758.866 Q 87.979 756.054 87.979 752.604 L 87.979 727.029 Q 87.979 723.579 88.991 720.766 Q 90.004 717.954 92.591 715.929 Q 95.179 713.904 99.754 712.779 Q 104.329 711.654 111.304 711.654 Q 118.279 711.654 122.816 712.779 Q 127.354 713.904 129.941 715.929 Q 132.529 717.954 133.541 720.766 Q 134.554 723.579 134.554 727.029 Z M 105.004 749.904 Q 105.004 751.404 106.129 752.416 Q 107.254 753.429 111.304 753.429 Q 115.354 753.429 116.479 752.416 Q 117.604 751.404 117.604 749.904 L 117.604 729.729 Q 117.604 728.304 116.479 727.291 Q 115.354 726.279 111.304 726.279 Q 107.254 726.279 106.129 727.291 Q 105.004 728.304 105.004 729.729 Z" style="fill: rgb(65, 61, 81); white-space: pre;"/>
  <path d="M 172.045 766.779 L 146.77 766.779 Q 145.345 766.779 144.707 766.141 Q 144.07 765.504 144.07 764.079 L 144.07 715.479 Q 144.07 714.054 144.707 713.416 Q 145.345 712.779 146.77 712.779 L 172.045 712.779 Q 181.42 712.779 185.957 716.529 Q 190.495 720.279 190.495 728.079 L 190.495 751.479 Q 190.495 759.279 185.957 763.029 Q 181.42 766.779 172.045 766.779 Z M 161.095 727.104 L 161.095 752.604 L 170.02 752.604 Q 171.82 752.604 172.682 751.704 Q 173.545 750.804 173.545 748.929 L 173.545 730.704 Q 173.545 728.829 172.682 727.966 Q 171.82 727.104 170.02 727.104 Z" style="fill: rgb(65, 61, 81); white-space: pre;"/>
  <path d="M 237.508 766.779 L 202.708 766.779 Q 201.283 766.779 200.645 766.141 Q 200.008 765.504 200.008 764.079 L 200.008 715.479 Q 200.008 714.054 200.645 713.416 Q 201.283 712.779 202.708 712.779 L 237.508 712.779 Q 238.933 712.779 239.57 713.416 Q 240.208 714.054 240.208 715.479 L 240.208 724.254 Q 240.208 725.679 239.57 726.316 Q 238.933 726.954 237.508 726.954 L 216.808 726.954 L 216.808 732.729 L 231.433 732.729 Q 232.858 732.729 233.495 733.366 Q 234.133 734.004 234.133 735.429 L 234.133 743.454 Q 234.133 744.879 233.495 745.516 Q 232.858 746.154 231.433 746.154 L 216.808 746.154 L 216.808 752.604 L 237.508 752.604 Q 238.933 752.604 239.57 753.241 Q 240.208 753.879 240.208 755.304 L 240.208 764.079 Q 240.208 765.504 239.57 766.141 Q 238.933 766.779 237.508 766.779 Z" style="fill: rgb(65, 61, 81); white-space: pre;"/>
  <path d="M 266.005 726.279 L 266.005 735.879 L 271.63 735.879 Q 273.58 735.879 274.255 734.866 Q 274.93 733.854 274.93 732.354 L 274.93 729.804 Q 274.93 728.304 274.255 727.291 Q 273.58 726.279 271.63 726.279 Z M 263.305 766.779 L 251.755 766.779 Q 250.33 766.779 249.693 766.141 Q 249.055 765.504 249.055 764.079 L 249.055 715.479 Q 249.055 714.054 249.693 713.416 Q 250.33 712.779 251.755 712.779 L 276.73 712.779 Q 285.13 712.779 288.318 716.266 Q 291.505 719.754 291.505 725.304 L 291.505 728.754 Q 291.505 731.904 290.568 734.116 Q 289.63 736.329 287.305 737.304 Q 291.355 737.754 293.868 740.604 Q 296.38 743.454 296.38 748.179 L 296.38 764.079 Q 296.38 765.504 295.743 766.141 Q 295.105 766.779 293.68 766.779 L 282.055 766.779 Q 280.63 766.779 279.993 766.141 Q 279.355 765.504 279.355 764.079 L 279.355 752.604 Q 279.355 750.954 278.718 750.166 Q 278.08 749.379 276.505 749.379 L 266.005 749.379 L 266.005 764.079 Q 266.005 765.504 265.368 766.141 Q 264.73 766.779 263.305 766.779 Z" style="fill: rgb(65, 61, 81); white-space: pre;"/>
  <path d="M 329.809 766.779 L 306.109 766.779 Q 304.684 766.779 304.046 766.141 Q 303.409 765.504 303.409 764.079 L 303.409 755.304 Q 303.409 753.879 304.046 753.241 Q 304.684 752.604 306.109 752.604 L 326.284 752.604 Q 327.259 752.604 327.746 751.966 Q 328.234 751.329 328.234 750.429 Q 328.234 749.154 327.746 748.554 Q 327.259 747.954 326.284 747.879 L 315.034 746.304 Q 309.784 745.554 306.596 742.854 Q 303.409 740.154 303.409 733.854 L 303.409 725.979 Q 303.409 719.604 307.534 716.191 Q 311.659 712.779 318.934 712.779 L 339.934 712.779 Q 341.359 712.779 341.996 713.416 Q 342.634 714.054 342.634 715.479 L 342.634 724.404 Q 342.634 725.829 341.996 726.466 Q 341.359 727.104 339.934 727.104 L 322.459 727.104 Q 321.484 727.104 320.959 727.741 Q 320.434 728.379 320.434 729.354 Q 320.434 730.329 320.959 731.004 Q 321.484 731.679 322.459 731.754 L 333.634 733.254 Q 338.884 734.004 342.109 736.704 Q 345.334 739.404 345.334 745.704 L 345.334 753.579 Q 345.334 759.954 341.171 763.366 Q 337.009 766.779 329.809 766.779 Z" style="fill: rgb(65, 61, 81); white-space: pre;"/>
  <path d="M 367.834 766.779 L 356.209 766.779 Q 354.784 766.779 354.147 766.141 Q 353.509 765.504 353.509 764.079 L 353.509 715.479 Q 353.509 714.054 354.147 713.416 Q 354.784 712.779 356.209 712.779 L 389.659 712.779 Q 391.084 712.779 391.722 713.416 Q 392.359 714.054 392.359 715.479 L 392.359 724.404 Q 392.359 725.829 391.722 726.466 Q 391.084 727.104 389.659 727.104 L 370.534 727.104 L 370.534 734.904 L 383.584 734.904 Q 385.009 734.904 385.647 735.541 Q 386.284 736.179 386.284 737.604 L 386.284 746.604 Q 386.284 748.029 385.647 748.666 Q 385.009 749.304 383.584 749.304 L 370.534 749.304 L 370.534 764.079 Q 370.534 765.504 369.897 766.141 Q 369.259 766.779 367.834 766.779 Z" style="fill: rgb(65, 61, 81); white-space: pre;"/>
  <path d="M 445.229 752.604 Q 445.229 756.054 444.216 758.866 Q 443.204 761.679 440.616 763.666 Q 438.029 765.654 433.491 766.779 Q 428.954 767.904 421.979 767.904 Q 415.004 767.904 410.429 766.779 Q 405.854 765.654 403.266 763.666 Q 400.679 761.679 399.666 758.866 Q 398.654 756.054 398.654 752.604 L 398.654 727.029 Q 398.654 723.579 399.666 720.766 Q 400.679 717.954 403.266 715.929 Q 405.854 713.904 410.429 712.779 Q 415.004 711.654 421.979 711.654 Q 428.954 711.654 433.491 712.779 Q 438.029 713.904 440.616 715.929 Q 443.204 717.954 444.216 720.766 Q 445.229 723.579 445.229 727.029 Z M 415.679 749.904 Q 415.679 751.404 416.804 752.416 Q 417.929 753.429 421.979 753.429 Q 426.029 753.429 427.154 752.416 Q 428.279 751.404 428.279 749.904 L 428.279 729.729 Q 428.279 728.304 427.154 727.291 Q 426.029 726.279 421.979 726.279 Q 417.929 726.279 416.804 727.291 Q 415.679 728.304 415.679 729.729 Z" style="fill: rgb(65, 61, 81); white-space: pre;"/>
  <path d="M 471.679 726.279 L 471.679 735.879 L 477.304 735.879 Q 479.254 735.879 479.929 734.866 Q 480.604 733.854 480.604 732.354 L 480.604 729.804 Q 480.604 728.304 479.929 727.291 Q 479.254 726.279 477.304 726.279 Z M 468.979 766.779 L 457.429 766.779 Q 456.004 766.779 455.367 766.141 Q 454.729 765.504 454.729 764.079 L 454.729 715.479 Q 454.729 714.054 455.367 713.416 Q 456.004 712.779 457.429 712.779 L 482.404 712.779 Q 490.804 712.779 493.992 716.266 Q 497.179 719.754 497.179 725.304 L 497.179 728.754 Q 497.179 731.904 496.242 734.116 Q 495.304 736.329 492.979 737.304 Q 497.029 737.754 499.542 740.604 Q 502.054 743.454 502.054 748.179 L 502.054 764.079 Q 502.054 765.504 501.417 766.141 Q 500.779 766.779 499.354 766.779 L 487.729 766.779 Q 486.304 766.779 485.667 766.141 Q 485.029 765.504 485.029 764.079 L 485.029 752.604 Q 485.029 750.954 484.392 750.166 Q 483.754 749.379 482.179 749.379 L 471.679 749.379 L 471.679 764.079 Q 471.679 765.504 471.042 766.141 Q 470.404 766.779 468.979 766.779 Z" style="fill: rgb(65, 61, 81); white-space: pre;"/>
  <path d="M 547.948 766.779 L 513.148 766.779 Q 511.723 766.779 511.086 766.141 Q 510.448 765.504 510.448 764.079 L 510.448 715.479 Q 510.448 714.054 511.086 713.416 Q 511.723 712.779 513.148 712.779 L 547.948 712.779 Q 549.373 712.779 550.011 713.416 Q 550.648 714.054 550.648 715.479 L 550.648 724.254 Q 550.648 725.679 550.011 726.316 Q 549.373 726.954 547.948 726.954 L 527.248 726.954 L 527.248 732.729 L 541.873 732.729 Q 543.298 732.729 543.936 733.366 Q 544.573 734.004 544.573 735.429 L 544.573 743.454 Q 544.573 744.879 543.936 745.516 Q 543.298 746.154 541.873 746.154 L 527.248 746.154 L 527.248 752.604 L 547.948 752.604 Q 549.373 752.604 550.011 753.241 Q 550.648 753.879 550.648 755.304 L 550.648 764.079 Q 550.648 765.504 550.011 766.141 Q 549.373 766.779 547.948 766.779 Z" style="fill: rgb(65, 61, 81); white-space: pre;"/>
  <path d="M 579.071 728.529 L 575.546 739.929 L 587.321 739.929 L 583.796 728.529 Q 583.496 727.854 583.158 727.554 Q 582.821 727.254 582.371 727.254 L 580.496 727.254 Q 580.046 727.254 579.708 727.554 Q 579.371 727.854 579.071 728.529 Z M 574.796 764.079 Q 574.796 765.504 574.158 766.141 Q 573.521 766.779 572.096 766.779 L 561.071 766.779 Q 559.646 766.779 559.008 766.141 Q 558.371 765.504 558.371 764.079 L 558.371 744.279 Q 558.371 742.029 559.083 739.104 Q 559.796 736.179 561.296 732.279 L 567.821 715.254 Q 568.271 713.979 569.208 713.379 Q 570.146 712.779 571.646 712.779 L 591.821 712.779 Q 593.246 712.779 594.183 713.379 Q 595.121 713.979 595.571 715.254 L 602.096 732.279 Q 603.596 736.179 604.308 739.104 Q 605.021 742.029 605.021 744.279 L 605.021 764.079 Q 605.021 765.504 604.383 766.141 Q 603.746 766.779 602.321 766.779 L 590.996 766.779 Q 589.496 766.779 588.783 766.141 Q 588.071 765.504 588.071 764.079 L 588.071 753.579 L 574.796 753.579 Z" style="fill: rgb(65, 61, 81); white-space: pre;"/>
  <path d="M 631.181 726.279 L 631.181 735.879 L 636.806 735.879 Q 638.756 735.879 639.431 734.866 Q 640.106 733.854 640.106 732.354 L 640.106 729.804 Q 640.106 728.304 639.431 727.291 Q 638.756 726.279 636.806 726.279 Z M 628.481 766.779 L 616.931 766.779 Q 615.506 766.779 614.868 766.141 Q 614.231 765.504 614.231 764.079 L 614.231 715.479 Q 614.231 714.054 614.868 713.416 Q 615.506 712.779 616.931 712.779 L 641.906 712.779 Q 650.306 712.779 653.493 716.266 Q 656.681 719.754 656.681 725.304 L 656.681 728.754 Q 656.681 731.904 655.743 734.116 Q 654.806 736.329 652.481 737.304 Q 656.531 737.754 659.043 740.604 Q 661.556 743.454 661.556 748.179 L 661.556 764.079 Q 661.556 765.504 660.918 766.141 Q 660.281 766.779 658.856 766.779 L 647.231 766.779 Q 645.806 766.779 645.168 766.141 Q 644.531 765.504 644.531 764.079 L 644.531 752.604 Q 644.531 750.954 643.893 750.166 Q 643.256 749.379 641.681 749.379 L 631.181 749.379 L 631.181 764.079 Q 631.181 765.504 630.543 766.141 Q 629.906 766.779 628.481 766.779 Z" style="fill: rgb(65, 61, 81); white-space: pre;"/>
  <path d="M 693.2 766.779 L 681.05 766.779 Q 679.625 766.779 678.988 766.141 Q 678.35 765.504 678.35 764.079 L 678.35 727.254 L 667.325 727.254 Q 665.9 727.254 665.263 726.616 Q 664.625 725.979 664.625 724.554 L 664.625 715.479 Q 664.625 714.054 665.263 713.416 Q 665.9 712.779 667.325 712.779 L 706.925 712.779 Q 708.35 712.779 708.988 713.416 Q 709.625 714.054 709.625 715.479 L 709.625 724.554 Q 709.625 725.979 708.988 726.616 Q 708.35 727.254 706.925 727.254 L 695.9 727.254 L 695.9 764.079 Q 695.9 765.504 695.263 766.141 Q 694.625 766.779 693.2 766.779 Z" style="fill: rgb(65, 61, 81); white-space: pre;"/>
  <path d="M 731.213 766.779 L 719.588 766.779 Q 718.163 766.779 717.526 766.141 Q 716.888 765.504 716.888 764.079 L 716.888 715.479 Q 716.888 714.054 717.526 713.416 Q 718.163 712.779 719.588 712.779 L 731.213 712.779 Q 732.638 712.779 733.276 713.416 Q 733.913 714.054 733.913 715.479 L 733.913 731.754 L 746.438 731.754 L 746.438 715.479 Q 746.438 714.054 747.076 713.416 Q 747.713 712.779 749.138 712.779 L 760.763 712.779 Q 762.188 712.779 762.826 713.416 Q 763.463 714.054 763.463 715.479 L 763.463 764.079 Q 763.463 765.504 762.826 766.141 Q 762.188 766.779 760.763 766.779 L 749.138 766.779 Q 747.713 766.779 747.076 766.141 Q 746.438 765.504 746.438 764.079 L 746.438 747.429 L 733.913 747.429 L 733.913 764.079 Q 733.913 765.504 733.276 766.141 Q 732.638 766.779 731.213 766.779 Z" style="fill: rgb(65, 61, 81); white-space: pre;"/>
  <path d="M 790.595 766.779 L 775.445 766.779 Q 774.02 766.779 773.382 766.141 Q 772.745 765.504 772.745 764.079 L 772.745 748.854 Q 772.745 747.429 773.382 746.791 Q 774.02 746.154 775.445 746.154 L 790.595 746.154 Q 792.02 746.154 792.657 746.791 Q 793.295 747.429 793.295 748.854 L 793.295 764.079 Q 793.295 765.504 792.657 766.141 Q 792.02 766.779 790.595 766.779 Z" style="fill: rgb(65, 61, 81); white-space: pre;"/>
  <path d="M 838.517 766.779 L 820.217 766.779 Q 810.842 766.779 806.305 763.029 Q 801.767 759.279 801.767 751.479 L 801.767 728.154 Q 801.767 720.354 806.305 716.566 Q 810.842 712.779 820.217 712.779 L 838.517 712.779 Q 839.942 712.779 840.58 713.416 Q 841.217 714.054 841.217 715.479 L 841.217 724.554 Q 841.217 725.979 840.58 726.616 Q 839.942 727.254 838.517 727.254 L 823.442 727.254 Q 821.117 727.254 819.992 728.191 Q 818.867 729.129 818.867 731.004 L 818.867 748.854 Q 818.867 750.729 819.992 751.591 Q 821.117 752.454 823.442 752.454 L 838.517 752.454 Q 839.942 752.454 840.58 753.091 Q 841.217 753.729 841.217 755.154 L 841.217 764.079 Q 841.217 765.504 840.58 766.141 Q 839.942 766.779 838.517 766.779 Z" style="fill: rgb(65, 61, 81); white-space: pre;"/>
  <path d="M 895.061 752.604 Q 895.061 756.054 894.049 758.866 Q 893.036 761.679 890.449 763.666 Q 887.861 765.654 883.324 766.779 Q 878.786 767.904 871.811 767.904 Q 864.836 767.904 860.261 766.779 Q 855.686 765.654 853.099 763.666 Q 850.511 761.679 849.499 758.866 Q 848.486 756.054 848.486 752.604 L 848.486 727.029 Q 848.486 723.579 849.499 720.766 Q 850.511 717.954 853.099 715.929 Q 855.686 713.904 860.261 712.779 Q 864.836 711.654 871.811 711.654 Q 878.786 711.654 883.324 712.779 Q 887.861 713.904 890.449 715.929 Q 893.036 717.954 894.049 720.766 Q 895.061 723.579 895.061 727.029 Z M 865.511 749.904 Q 865.511 751.404 866.636 752.416 Q 867.761 753.429 871.811 753.429 Q 875.861 753.429 876.986 752.416 Q 878.111 751.404 878.111 749.904 L 878.111 729.729 Q 878.111 728.304 876.986 727.291 Q 875.861 726.279 871.811 726.279 Q 867.761 726.279 866.636 727.291 Q 865.511 728.304 865.511 729.729 Z" style="fill: rgb(65, 61, 81); white-space: pre;"/>
  <path d="M 918.453 766.779 L 907.278 766.779 Q 905.853 766.779 905.215 766.141 Q 904.578 765.504 904.578 764.079 L 904.578 715.479 Q 904.578 714.054 905.215 713.416 Q 905.853 712.779 907.278 712.779 L 919.353 712.779 Q 920.553 712.779 921.34 713.304 Q 922.128 713.829 922.803 715.029 L 929.553 727.254 Q 929.928 727.929 930.19 728.229 Q 930.453 728.529 930.903 728.529 L 931.578 728.529 Q 932.028 728.529 932.29 728.229 Q 932.553 727.929 932.928 727.254 L 939.603 715.029 Q 940.278 713.829 941.065 713.304 Q 941.853 712.779 943.053 712.779 L 955.203 712.779 Q 956.628 712.779 957.265 713.416 Q 957.903 714.054 957.903 715.479 L 957.903 764.079 Q 957.903 765.504 957.265 766.141 Q 956.628 766.779 955.203 766.779 L 943.653 766.779 Q 942.228 766.779 941.59 766.141 Q 940.953 765.504 940.953 764.079 L 940.953 737.679 L 936.528 745.854 Q 935.853 747.129 934.915 747.691 Q 933.978 748.254 932.553 748.254 L 929.553 748.254 Q 928.128 748.254 927.19 747.691 Q 926.253 747.129 925.578 745.854 L 921.153 737.679 L 921.153 764.079 Q 921.153 765.504 920.515 766.141 Q 919.878 766.779 918.453 766.779 Z" style="fill: rgb(65, 61, 81); white-space: pre;"/>
</svg>