<?xml version="1.0" encoding="utf-8"?>
<svg viewBox="0 0 1000 1000" style="enable-background:new 0 0 1000 1000;" xmlns="http://www.w3.org/2000/svg">
  <defs>
    <style type="text/css">
	.st0{opacity:0.7;fill:#FFFFFF;}
	.st1{fill:#413D51;}
	.st2{fill:#8FE3F9;}
	.st3{fill:#B2EBF9;}
	.st4{fill:#A4E0EA;}
	.st5{fill:#7AD1E5;}
	.st6{fill:none;stroke:#413D51;stroke-width:16;stroke-linecap:round;stroke-linejoin:round;stroke-miterlimit:10;}
	.st7{fill:#F7E8AD;}
	.st8{fill:#F7D6A1;}
	.st9{fill:#EFCA92;}
	.st10{fill:#FFFFFF;}
	.st11{opacity:0.89;fill:#EFCA92;}
	.st12{fill:none;stroke:#413D51;stroke-width:8;stroke-linecap:round;stroke-linejoin:round;stroke-miterlimit:10;}
	.st13{opacity:0.31;fill:none;stroke:#72C8D6;stroke-width:8;stroke-linecap:round;stroke-linejoin:round;stroke-miterlimit:10;}
</style>
  </defs>
  <rect class="st0" width="1000" height="1000"/>
  <g>
    <ellipse id="XMLID_2_" class="st2" cx="501.8" cy="487.5" rx="228" ry="205.8"/>
    <ellipse id="XMLID_188_" class="st2" cx="501.8" cy="487.5" rx="228" ry="205.8"/>
    <path id="XMLID_193_" class="st3" d="M507.8,689.3c52.1,0,100.1-15.3,138.5-41l-10.5-24.7c-22-51.9-74.2-85.8-132.1-85.8l0,0 c-57.9,0-110.1,33.9-132.1,85.8l-8.6,20.4C402.3,672.3,452.8,689.3,507.8,689.3z"/>
    <path id="XMLID_189_" class="st4" d="M501.7,470.3l-43.6,64l32.9,43.8c5.4,7.2,16.3,7.2,21.7,0l32.6-43.8L501.7,470.3z"/>
    <path id="XMLID_192_" class="st5" d="M501.8,669.3c-121.5,0-220.7-85.7-227.6-193.8c-0.3,4-0.4,8-0.4,12 c0,113.6,102.1,205.8,228,205.8s228-92.1,228-205.8c0-4-0.1-8-0.4-12C722.5,583.6,623.2,669.3,501.8,669.3z"/>
    <path id="XMLID_76_" class="st4" d="M638.6,628.1c-38.1,25.8-85.5,41.2-136.8,41.2c-50,0-96.2-14.5-133.7-39.1l-5,12.3 c39.4,29.2,89.8,46.8,144.8,46.8c49.7,0,95.7-14.4,133.2-38.8c1.8-1.2,3.5-2.5,5.3-3.8L638.6,628.1z"/>
    <path id="XMLID_186_" class="st5" d="M268.2,488.2c6.4,13.1,15,25.3,25.8,36.2c52.3,52.3,137.2,52.3,189.5,0 c43.8-43.8,50.9-110.3,21.5-161.5"/>
    <path id="XMLID_185_" class="st5" d="M729,503.8c-24,36.1-65,59.8-111.6,59.8c-74,0-134-60-134-134c0-33,11.9-63.2,31.7-86.6"/>
    <ellipse id="XMLID_75_" class="st6" cx="501.8" cy="487.5" rx="228" ry="205.8"/>
    <polygon id="XMLID_74_" class="st1" points="501.7,442.3 458.1,506.3 501.9,564.6 545.4,506.3 &#9;"/>
    <polygon id="XMLID_73_" class="st6" points="501.7,442.3 458.1,506.3 501.9,564.6 545.4,506.3 &#9;"/>
    <path id="XMLID_72_" class="st1" d="M600.7,303.9c-30-14-64.1-21.9-100-21.9s-70,7.9-100,21.9v140.1h200V303.9z"/>
    <g id="XMLID_58_">
      <path id="XMLID_71_" class="st1" d="M613.5,317.9l108.7-3.3c-15.7,39.3-17.8,98.4-4.1,163c-17.4,36.8-54.4,62.9-97.9,64.2l0,0 c-61.8,1.9-113.5-46.7-115.3-108.6l0,0C503,371.4,551.6,319.8,613.5,317.9z"/>
      <path id="XMLID_70_" class="st6" d="M613.5,317.9l108.7-3.3c-15.7,39.3-17.8,98.4-4.1,163c-17.4,36.8-54.4,62.9-97.9,64.2l0,0 c-61.8,1.9-113.5-46.7-115.3-108.6l0,0C503,371.4,551.6,319.8,613.5,317.9z"/>
      <circle id="XMLID_69_" class="st7" cx="617.4" cy="429.7" r="112"/>
      <circle id="XMLID_5_" class="st7" cx="617.4" cy="429.7" r="112"/>
      <path id="XMLID_86_" class="st8" d="M696.6,350.5c-21.5-21.5-49.7-32.4-77.9-32.8c21.2,4.1,41.5,14.3,57.9,30.8 c43.7,43.7,43.7,114.6,0,158.4c-22.2,22.2-51.4,33.1-80.4,32.8c35.3,6.8,73.1-3.5,100.4-30.8C740.3,465.1,740.3,394.2,696.6,350.5 z"/>
      <ellipse id="XMLID_3_" transform="matrix(0.7071 -0.7071 0.7071 0.7071 -130.8246 543.5441)" class="st0" cx="590.7" cy="429.7" rx="84" ry="84.6"/>
      <path id="XMLID_12_" class="st9" d="M711.4,376.6c-3.1-4-9.1-15-12.8-18.7c-44-43.4-114.9-43-158.3,1.1 c-8.6,8.7-15.5,18.5-20.6,29C581.4,366.3,649,371.5,711.4,376.6z"/>
      <circle id="XMLID_68_" class="st6" cx="617.4" cy="429.7" r="112"/>
      <circle id="XMLID_67_" class="st6" cx="617.4" cy="429.7" r="112"/>
      <path id="XMLID_66_" class="st1" d="M706.7,362.1c-3.1-4-6.4-7.9-10.1-11.6c-43.7-43.7-114.6-43.7-158.4,0 c-8.7,8.7-15.6,18.4-20.8,28.8C579.4,358.1,644.3,356.5,706.7,362.1z"/>
      <circle id="XMLID_57_" class="st1" cx="562.9" cy="438.1" r="42"/>
      <circle id="XMLID_56_" class="st10" cx="539.1" cy="438.4" r="14"/>
    </g>
    <g id="XMLID_26_">
      <path id="XMLID_89_" class="st1" d="M388.8,317.9L280,314.6c15.7,39.3,17.8,98.4,4.1,163c17.4,36.8,54.4,62.9,97.9,64.2l0,0 c61.8,1.9,113.5-46.7,115.3-108.6l0,0C499.2,371.4,450.6,319.8,388.8,317.9z"/>
      <path id="XMLID_88_" class="st6" d="M388.8,317.9L280,314.6c15.7,39.3,17.8,98.4,4.1,163c17.4,36.8,54.4,62.9,97.9,64.2l0,0 c61.8,1.9,113.5-46.7,115.3-108.6l0,0C499.2,371.4,450.6,319.8,388.8,317.9z"/>
      <circle id="XMLID_87_" class="st7" cx="384.8" cy="429.7" r="112"/>
      <circle id="XMLID_84_" class="st7" cx="384.8" cy="429.7" r="112"/>
      <path id="XMLID_65_" class="st8" d="M305.6,350.5c21.5-21.5,49.7-32.4,77.9-32.8c-21.2,4.1-41.5,14.3-57.9,30.8 c-43.7,43.7-43.7,114.6,0,158.4c22.2,22.2,51.4,33.1,80.4,32.8c-35.3,6.8-73.1-3.5-100.4-30.8 C261.9,465.1,261.9,394.2,305.6,350.5z"/>
      <ellipse id="XMLID_64_" transform="matrix(0.7071 -0.7071 0.7071 0.7071 -183.3021 416.8521)" class="st0" cx="411.5" cy="429.7" rx="84.6" ry="84"/>
      <path id="XMLID_63_" class="st11" d="M290.9,376.6c3.1-4,9.1-15,12.8-18.7c44-43.4,114.9-43,158.3,1.1c8.6,8.7,15.5,18.5,20.6,29 C420.8,366.3,353.2,371.5,290.9,376.6z"/>
      <circle id="XMLID_62_" class="st6" cx="384.8" cy="429.7" r="112"/>
      <circle id="XMLID_61_" class="st6" cx="384.8" cy="429.7" r="112"/>
      <path id="XMLID_60_" class="st1" d="M295.6,362.1c3.1-4,6.4-7.9,10.1-11.6c43.7-43.7,114.6-43.7,158.4,0 c8.7,8.7,15.6,18.4,20.8,28.8C422.9,358.1,357.9,356.5,295.6,362.1z"/>
      <circle id="XMLID_59_" class="st1" cx="439.4" cy="438.1" r="42"/>
      <circle id="XMLID_37_" class="st10" cx="463.2" cy="438.4" r="14"/>
    </g>
    <path id="XMLID_19_" class="st1" d="M447.9,718.3L447.9,718.3c-8.8,0-16-7.2-16-16v-18c0-8.8,7.2-16,16-16h0c8.8,0,16,7.2,16,16v18 C463.9,711.1,456.8,718.3,447.9,718.3z"/>
    <path id="XMLID_17_" class="st1" d="M415.9,718.3L415.9,718.3c-8.8,0-16-7.2-16-16v-18c0-8.8,7.2-16,16-16h0c8.8,0,16,7.2,16,16v18 C431.9,711.1,424.8,718.3,415.9,718.3z"/>
    <path id="XMLID_16_" class="st1" d="M479.7,718.3L479.7,718.3c-8.8,0-16-7.2-16-16v-18c0-8.8,7.2-16,16-16h0c8.8,0,16,7.2,16,16v18 C495.7,711.1,488.5,718.3,479.7,718.3z"/>
    <path id="XMLID_15_" class="st1" d="M521.9,718.3L521.9,718.3c-8.8,0-16-7.2-16-16v-18c0-8.8,7.2-16,16-16h0c8.8,0,16,7.2,16,16v18 C537.9,711.1,530.7,718.3,521.9,718.3z"/>
    <path id="XMLID_14_" class="st1" d="M553.7,718.3L553.7,718.3c-8.8,0-16-7.2-16-16v-18c0-8.8,7.2-16,16-16h0c8.8,0,16,7.2,16,16v18 C569.7,711.1,562.5,718.3,553.7,718.3z"/>
    <path id="XMLID_13_" class="st1" d="M585.7,718.3L585.7,718.3c-8.8,0-16-7.2-16-16v-18c0-8.8,7.2-16,16-16h0c8.8,0,16,7.2,16,16v18 C601.7,711.1,594.5,718.3,585.7,718.3z"/>
    <path id="XMLID_11_" class="st12" d="M491.9,587.6c0,8.4-6.8,15.2-15.2,15.2c-8.4,0-15.2-6.8-15.2-15.2"/>
    <path id="XMLID_9_" class="st12" d="M538.4,587.6c0,8.4-6.8,15.2-15.2,15.2c-8.4,0-15.2-6.8-15.2-15.2"/>
    <path id="XMLID_10_" class="st13" d="M323,548.8c-2.2,4.7-7.7,6.8-12.5,4.6s-6.8-7.7-4.6-12.5"/>
    <path id="XMLID_1_" class="st13" d="M352.8,564.3c-2.2,4.7-7.7,6.8-12.5,4.6c-4.7-2.2-6.8-7.7-4.6-12.5"/>
    <path id="XMLID_78_" class="st13" d="M335.5,576.2c-2.2,4.7-7.7,6.8-12.5,4.6c-4.7-2.2-6.8-7.7-4.6-12.5"/>
    <path id="XMLID_77_" class="st13" d="M361.7,596.1c-2.2,4.7-7.7,6.8-12.5,4.6c-4.7-2.2-6.8-7.7-4.6-12.5"/>
    <path id="XMLID_79_" class="st13" d="M381.7,578.1c-2.2,4.7-7.7,6.8-12.5,4.6c-4.7-2.2-6.8-7.7-4.6-12.5"/>
    <path id="XMLID_85_" class="st13" d="M683.7,550.8c2.2,4.7,7.7,6.8,12.5,4.6s6.8-7.7,4.6-12.5"/>
    <path id="XMLID_83_" class="st13" d="M654,566.3c2.2,4.7,7.7,6.8,12.5,4.6c4.7-2.2,6.8-7.7,4.6-12.5"/>
    <path id="XMLID_82_" class="st13" d="M671.2,578.2c2.2,4.7,7.7,6.8,12.5,4.6c4.7-2.2,6.8-7.7,4.6-12.5"/>
    <path id="XMLID_81_" class="st13" d="M645.1,598.1c2.2,4.7,7.7,6.8,12.5,4.6c4.7-2.2,6.8-7.7,4.6-12.5"/>
    <path id="XMLID_80_" class="st13" d="M625.1,580.1c2.2,4.7,7.7,6.8,12.5,4.6c4.7-2.2,6.8-7.7,4.6-12.5"/>
    <path id="XMLID_8_" class="st12" d="M468.7,624.1c0,8.4-6.8,15.2-15.2,15.2c-8.4,0-15.2-6.8-15.2-15.2"/>
    <path id="XMLID_7_" class="st12" d="M515.2,624.1c0,8.4-6.8,15.2-15.2,15.2s-15.2-6.8-15.2-15.2"/>
    <path id="XMLID_6_" class="st12" d="M561.7,624.1c0,8.4-6.8,15.2-15.2,15.2c-8.4,0-15.2-6.8-15.2-15.2"/>
  </g>
  <path d="M 65.593 769.698 L 50.465 769.698 Q 42.715 769.698 38.964 766.598 Q 35.213 763.498 35.213 757.05 L 35.213 737.768 Q 35.213 731.32 38.964 728.189 Q 42.715 725.058 50.465 725.058 L 65.593 725.058 Q 66.771 725.058 67.298 725.585 Q 67.825 726.112 67.825 727.29 L 67.825 734.792 Q 67.825 735.97 67.298 736.497 Q 66.771 737.024 65.593 737.024 L 53.131 737.024 Q 51.209 737.024 50.279 737.799 Q 49.349 738.574 49.349 740.124 L 49.349 754.88 Q 49.349 756.43 50.279 757.143 Q 51.209 757.856 53.131 757.856 L 65.593 757.856 Q 66.771 757.856 67.298 758.383 Q 67.825 758.91 67.825 760.088 L 67.825 767.466 Q 67.825 768.644 67.298 769.171 Q 66.771 769.698 65.593 769.698 Z" style="fill: rgb(51, 51, 51); white-space: pre;"/>
  <path d="M 121.84 757.98 Q 121.84 760.832 121.003 763.157 Q 120.166 765.482 118.027 767.125 Q 115.888 768.768 112.137 769.698 Q 108.386 770.628 102.62 770.628 Q 96.854 770.628 93.072 769.698 Q 89.29 768.768 87.151 767.125 Q 85.012 765.482 84.175 763.157 Q 83.338 760.832 83.338 757.98 L 83.338 736.838 Q 83.338 733.986 84.175 731.661 Q 85.012 729.336 87.151 727.662 Q 89.29 725.988 93.072 725.058 Q 96.854 724.128 102.62 724.128 Q 108.386 724.128 112.137 725.058 Q 115.888 725.988 118.027 727.662 Q 120.166 729.336 121.003 731.661 Q 121.84 733.986 121.84 736.838 Z M 97.412 755.748 Q 97.412 756.988 98.342 757.825 Q 99.272 758.662 102.62 758.662 Q 105.968 758.662 106.898 757.825 Q 107.828 756.988 107.828 755.748 L 107.828 739.07 Q 107.828 737.892 106.898 737.055 Q 105.968 736.218 102.62 736.218 Q 99.272 736.218 98.342 737.055 Q 97.412 737.892 97.412 739.07 Z" style="fill: rgb(51, 51, 51); white-space: pre;"/>
  <path d="M 162.334 769.698 L 141.44 769.698 Q 140.262 769.698 139.735 769.171 Q 139.208 768.644 139.208 767.466 L 139.208 727.29 Q 139.208 726.112 139.735 725.585 Q 140.262 725.058 141.44 725.058 L 162.334 725.058 Q 170.084 725.058 173.835 728.158 Q 177.586 731.258 177.586 737.706 L 177.586 757.05 Q 177.586 763.498 173.835 766.598 Q 170.084 769.698 162.334 769.698 Z M 153.282 736.9 L 153.282 757.98 L 160.66 757.98 Q 162.148 757.98 162.861 757.236 Q 163.574 756.492 163.574 754.942 L 163.574 739.876 Q 163.574 738.326 162.861 737.613 Q 162.148 736.9 160.66 736.9 Z" style="fill: rgb(51, 51, 51); white-space: pre;"/>
  <path d="M 225.958 769.698 L 197.19 769.698 Q 196.012 769.698 195.485 769.171 Q 194.958 768.644 194.958 767.466 L 194.958 727.29 Q 194.958 726.112 195.485 725.585 Q 196.012 725.058 197.19 725.058 L 225.958 725.058 Q 227.136 725.058 227.663 725.585 Q 228.19 726.112 228.19 727.29 L 228.19 734.544 Q 228.19 735.722 227.663 736.249 Q 227.136 736.776 225.958 736.776 L 208.846 736.776 L 208.846 741.55 L 220.936 741.55 Q 222.114 741.55 222.641 742.077 Q 223.168 742.604 223.168 743.782 L 223.168 750.416 Q 223.168 751.594 222.641 752.121 Q 222.114 752.648 220.936 752.648 L 208.846 752.648 L 208.846 757.98 L 225.958 757.98 Q 227.136 757.98 227.663 758.507 Q 228.19 759.034 228.19 760.212 L 228.19 767.466 Q 228.19 768.644 227.663 769.171 Q 227.136 769.698 225.958 769.698 Z" style="fill: rgb(51, 51, 51); white-space: pre;"/>
  <path d="M 259.017 736.218 L 259.017 744.154 L 263.667 744.154 Q 265.279 744.154 265.837 743.317 Q 266.395 742.48 266.395 741.24 L 266.395 739.132 Q 266.395 737.892 265.837 737.055 Q 265.279 736.218 263.667 736.218 Z M 256.785 769.698 L 247.237 769.698 Q 246.059 769.698 245.532 769.171 Q 245.005 768.644 245.005 767.466 L 245.005 727.29 Q 245.005 726.112 245.532 725.585 Q 246.059 725.058 247.237 725.058 L 267.883 725.058 Q 274.827 725.058 277.462 727.941 Q 280.097 730.824 280.097 735.412 L 280.097 738.264 Q 280.097 740.868 279.322 742.697 Q 278.547 744.526 276.625 745.332 Q 279.973 745.704 282.05 748.06 Q 284.127 750.416 284.127 754.322 L 284.127 767.466 Q 284.127 768.644 283.6 769.171 Q 283.073 769.698 281.895 769.698 L 272.285 769.698 Q 271.107 769.698 270.58 769.171 Q 270.053 768.644 270.053 767.466 L 270.053 757.98 Q 270.053 756.616 269.526 755.965 Q 268.999 755.314 267.697 755.314 L 259.017 755.314 L 259.017 767.466 Q 259.017 768.644 258.49 769.171 Q 257.963 769.698 256.785 769.698 Z" style="fill: rgb(51, 51, 51); white-space: pre;"/>
  <path d="M 321.275 769.698 L 301.683 769.698 Q 300.505 769.698 299.978 769.171 Q 299.451 768.644 299.451 767.466 L 299.451 760.212 Q 299.451 759.034 299.978 758.507 Q 300.505 757.98 301.683 757.98 L 318.361 757.98 Q 319.167 757.98 319.57 757.453 Q 319.973 756.926 319.973 756.182 Q 319.973 755.128 319.57 754.632 Q 319.167 754.136 318.361 754.074 L 309.061 752.772 Q 304.721 752.152 302.086 749.92 Q 299.451 747.688 299.451 742.48 L 299.451 735.97 Q 299.451 730.7 302.861 727.879 Q 306.271 725.058 312.285 725.058 L 329.645 725.058 Q 330.823 725.058 331.35 725.585 Q 331.877 726.112 331.877 727.29 L 331.877 734.668 Q 331.877 735.846 331.35 736.373 Q 330.823 736.9 329.645 736.9 L 315.199 736.9 Q 314.393 736.9 313.959 737.427 Q 313.525 737.954 313.525 738.76 Q 313.525 739.566 313.959 740.124 Q 314.393 740.682 315.199 740.744 L 324.437 741.984 Q 328.777 742.604 331.443 744.836 Q 334.109 747.068 334.109 752.276 L 334.109 758.786 Q 334.109 764.056 330.668 766.877 Q 327.227 769.698 321.275 769.698 Z" style="fill: rgb(51, 51, 51); white-space: pre;"/>
  <path d="M 362.222 769.698 L 352.612 769.698 Q 351.434 769.698 350.907 769.171 Q 350.38 768.644 350.38 767.466 L 350.38 727.29 Q 350.38 726.112 350.907 725.585 Q 351.434 725.058 352.612 725.058 L 380.264 725.058 Q 381.442 725.058 381.969 725.585 Q 382.496 726.112 382.496 727.29 L 382.496 734.668 Q 382.496 735.846 381.969 736.373 Q 381.442 736.9 380.264 736.9 L 364.454 736.9 L 364.454 743.348 L 375.242 743.348 Q 376.42 743.348 376.947 743.875 Q 377.474 744.402 377.474 745.58 L 377.474 753.02 Q 377.474 754.198 376.947 754.725 Q 376.42 755.252 375.242 755.252 L 364.454 755.252 L 364.454 767.466 Q 364.454 768.644 363.927 769.171 Q 363.4 769.698 362.222 769.698 Z" style="fill: rgb(51, 51, 51); white-space: pre;"/>
  <path d="M 435.7 757.98 Q 435.7 760.832 434.863 763.157 Q 434.026 765.482 431.887 767.125 Q 429.748 768.768 425.997 769.698 Q 422.246 770.628 416.48 770.628 Q 410.714 770.628 406.932 769.698 Q 403.15 768.768 401.011 767.125 Q 398.872 765.482 398.035 763.157 Q 397.198 760.832 397.198 757.98 L 397.198 736.838 Q 397.198 733.986 398.035 731.661 Q 398.872 729.336 401.011 727.662 Q 403.15 725.988 406.932 725.058 Q 410.714 724.128 416.48 724.128 Q 422.246 724.128 425.997 725.058 Q 429.748 725.988 431.887 727.662 Q 434.026 729.336 434.863 731.661 Q 435.7 733.986 435.7 736.838 Z M 411.272 755.748 Q 411.272 756.988 412.202 757.825 Q 413.132 758.662 416.48 758.662 Q 419.828 758.662 420.758 757.825 Q 421.688 756.988 421.688 755.748 L 421.688 739.07 Q 421.688 737.892 420.758 737.055 Q 419.828 736.218 416.48 736.218 Q 413.132 736.218 412.202 737.055 Q 411.272 737.892 411.272 739.07 Z" style="fill: rgb(51, 51, 51); white-space: pre;"/>
  <path d="M 467.079 736.218 L 467.079 744.154 L 471.729 744.154 Q 473.341 744.154 473.899 743.317 Q 474.457 742.48 474.457 741.24 L 474.457 739.132 Q 474.457 737.892 473.899 737.055 Q 473.341 736.218 471.729 736.218 Z M 464.847 769.698 L 455.299 769.698 Q 454.121 769.698 453.594 769.171 Q 453.067 768.644 453.067 767.466 L 453.067 727.29 Q 453.067 726.112 453.594 725.585 Q 454.121 725.058 455.299 725.058 L 475.945 725.058 Q 482.889 725.058 485.524 727.941 Q 488.159 730.824 488.159 735.412 L 488.159 738.264 Q 488.159 740.868 487.384 742.697 Q 486.609 744.526 484.687 745.332 Q 488.035 745.704 490.112 748.06 Q 492.189 750.416 492.189 754.322 L 492.189 767.466 Q 492.189 768.644 491.662 769.171 Q 491.135 769.698 489.957 769.698 L 480.347 769.698 Q 479.169 769.698 478.642 769.171 Q 478.115 768.644 478.115 767.466 L 478.115 757.98 Q 478.115 756.616 477.588 755.965 Q 477.061 755.314 475.759 755.314 L 467.079 755.314 L 467.079 767.466 Q 467.079 768.644 466.552 769.171 Q 466.025 769.698 464.847 769.698 Z" style="fill: rgb(51, 51, 51); white-space: pre;"/>
  <path d="M 539.645 769.698 L 510.877 769.698 Q 509.699 769.698 509.172 769.171 Q 508.645 768.644 508.645 767.466 L 508.645 727.29 Q 508.645 726.112 509.172 725.585 Q 509.699 725.058 510.877 725.058 L 539.645 725.058 Q 540.823 725.058 541.35 725.585 Q 541.877 726.112 541.877 727.29 L 541.877 734.544 Q 541.877 735.722 541.35 736.249 Q 540.823 736.776 539.645 736.776 L 522.533 736.776 L 522.533 741.55 L 534.623 741.55 Q 535.801 741.55 536.328 742.077 Q 536.855 742.604 536.855 743.782 L 536.855 750.416 Q 536.855 751.594 536.328 752.121 Q 535.801 752.648 534.623 752.648 L 522.533 752.648 L 522.533 757.98 L 539.645 757.98 Q 540.823 757.98 541.35 758.507 Q 541.877 759.034 541.877 760.212 L 541.877 767.466 Q 541.877 768.644 541.35 769.171 Q 540.823 769.698 539.645 769.698 Z" style="fill: rgb(51, 51, 51); white-space: pre;"/>
  <path d="M 574.874 738.078 L 571.96 747.502 L 581.694 747.502 L 578.78 738.078 Q 578.532 737.52 578.253 737.272 Q 577.974 737.024 577.602 737.024 L 576.052 737.024 Q 575.68 737.024 575.401 737.272 Q 575.122 737.52 574.874 738.078 Z M 571.34 767.466 Q 571.34 768.644 570.813 769.171 Q 570.286 769.698 569.108 769.698 L 559.994 769.698 Q 558.816 769.698 558.289 769.171 Q 557.762 768.644 557.762 767.466 L 557.762 751.098 Q 557.762 749.238 558.351 746.82 Q 558.94 744.402 560.18 741.178 L 565.574 727.104 Q 565.946 726.05 566.721 725.554 Q 567.496 725.058 568.736 725.058 L 585.414 725.058 Q 586.592 725.058 587.367 725.554 Q 588.142 726.05 588.514 727.104 L 593.908 741.178 Q 595.148 744.402 595.737 746.82 Q 596.326 749.238 596.326 751.098 L 596.326 767.466 Q 596.326 768.644 595.799 769.171 Q 595.272 769.698 594.094 769.698 L 584.732 769.698 Q 583.492 769.698 582.903 769.171 Q 582.314 768.644 582.314 767.466 L 582.314 758.786 L 571.34 758.786 Z" style="fill: rgb(51, 51, 51); white-space: pre;"/>
  <path d="M 627.454 736.218 L 627.454 744.154 L 632.104 744.154 Q 633.716 744.154 634.274 743.317 Q 634.832 742.48 634.832 741.24 L 634.832 739.132 Q 634.832 737.892 634.274 737.055 Q 633.716 736.218 632.104 736.218 Z M 625.222 769.698 L 615.674 769.698 Q 614.496 769.698 613.969 769.171 Q 613.442 768.644 613.442 767.466 L 613.442 727.29 Q 613.442 726.112 613.969 725.585 Q 614.496 725.058 615.674 725.058 L 636.32 725.058 Q 643.264 725.058 645.899 727.941 Q 648.534 730.824 648.534 735.412 L 648.534 738.264 Q 648.534 740.868 647.759 742.697 Q 646.984 744.526 645.062 745.332 Q 648.41 745.704 650.487 748.06 Q 652.564 750.416 652.564 754.322 L 652.564 767.466 Q 652.564 768.644 652.037 769.171 Q 651.51 769.698 650.332 769.698 L 640.722 769.698 Q 639.544 769.698 639.017 769.171 Q 638.49 768.644 638.49 767.466 L 638.49 757.98 Q 638.49 756.616 637.963 755.965 Q 637.436 755.314 636.134 755.314 L 627.454 755.314 L 627.454 767.466 Q 627.454 768.644 626.927 769.171 Q 626.4 769.698 625.222 769.698 Z" style="fill: rgb(51, 51, 51); white-space: pre;"/>
  <path d="M 688.241 769.698 L 678.197 769.698 Q 677.019 769.698 676.492 769.171 Q 675.965 768.644 675.965 767.466 L 675.965 737.024 L 666.851 737.024 Q 665.673 737.024 665.146 736.497 Q 664.619 735.97 664.619 734.792 L 664.619 727.29 Q 664.619 726.112 665.146 725.585 Q 665.673 725.058 666.851 725.058 L 699.587 725.058 Q 700.765 725.058 701.292 725.585 Q 701.819 726.112 701.819 727.29 L 701.819 734.792 Q 701.819 735.97 701.292 736.497 Q 700.765 737.024 699.587 737.024 L 690.473 737.024 L 690.473 767.466 Q 690.473 768.644 689.946 769.171 Q 689.419 769.698 688.241 769.698 Z" style="fill: rgb(51, 51, 51); white-space: pre;"/>
  <path d="M 729.175 769.698 L 719.565 769.698 Q 718.387 769.698 717.86 769.171 Q 717.333 768.644 717.333 767.466 L 717.333 727.29 Q 717.333 726.112 717.86 725.585 Q 718.387 725.058 719.565 725.058 L 729.175 725.058 Q 730.353 725.058 730.88 725.585 Q 731.407 726.112 731.407 727.29 L 731.407 740.744 L 741.761 740.744 L 741.761 727.29 Q 741.761 726.112 742.288 725.585 Q 742.815 725.058 743.993 725.058 L 753.603 725.058 Q 754.781 725.058 755.308 725.585 Q 755.835 726.112 755.835 727.29 L 755.835 767.466 Q 755.835 768.644 755.308 769.171 Q 754.781 769.698 753.603 769.698 L 743.993 769.698 Q 742.815 769.698 742.288 769.171 Q 741.761 768.644 741.761 767.466 L 741.761 753.702 L 731.407 753.702 L 731.407 767.466 Q 731.407 768.644 730.88 769.171 Q 730.353 769.698 729.175 769.698 Z" style="fill: rgb(51, 51, 51); white-space: pre;"/>
  <path d="M 787.768 769.698 L 775.244 769.698 Q 774.066 769.698 773.539 769.171 Q 773.012 768.644 773.012 767.466 L 773.012 754.88 Q 773.012 753.702 773.539 753.175 Q 774.066 752.648 775.244 752.648 L 787.768 752.648 Q 788.946 752.648 789.473 753.175 Q 790 753.702 790 754.88 L 790 767.466 Q 790 768.644 789.473 769.171 Q 788.946 769.698 787.768 769.698 Z" style="fill: rgb(51, 51, 51); white-space: pre;"/>
  <path d="M 836.89 769.698 L 821.762 769.698 Q 814.012 769.698 810.261 766.598 Q 806.51 763.498 806.51 757.05 L 806.51 737.768 Q 806.51 731.32 810.261 728.189 Q 814.012 725.058 821.762 725.058 L 836.89 725.058 Q 838.068 725.058 838.595 725.585 Q 839.122 726.112 839.122 727.29 L 839.122 734.792 Q 839.122 735.97 838.595 736.497 Q 838.068 737.024 836.89 737.024 L 824.428 737.024 Q 822.506 737.024 821.576 737.799 Q 820.646 738.574 820.646 740.124 L 820.646 754.88 Q 820.646 756.43 821.576 757.143 Q 822.506 757.856 824.428 757.856 L 836.89 757.856 Q 838.068 757.856 838.595 758.383 Q 839.122 758.91 839.122 760.088 L 839.122 767.466 Q 839.122 768.644 838.595 769.171 Q 838.068 769.698 836.89 769.698 Z" style="fill: rgb(51, 51, 51); white-space: pre;"/>
  <path d="M 893.137 757.98 Q 893.137 760.832 892.3 763.157 Q 891.463 765.482 889.324 767.125 Q 887.185 768.768 883.434 769.698 Q 879.683 770.628 873.917 770.628 Q 868.151 770.628 864.369 769.698 Q 860.587 768.768 858.448 767.125 Q 856.309 765.482 855.472 763.157 Q 854.635 760.832 854.635 757.98 L 854.635 736.838 Q 854.635 733.986 855.472 731.661 Q 856.309 729.336 858.448 727.662 Q 860.587 725.988 864.369 725.058 Q 868.151 724.128 873.917 724.128 Q 879.683 724.128 883.434 725.058 Q 887.185 725.988 889.324 727.662 Q 891.463 729.336 892.3 731.661 Q 893.137 733.986 893.137 736.838 Z M 868.709 755.748 Q 868.709 756.988 869.639 757.825 Q 870.569 758.662 873.917 758.662 Q 877.265 758.662 878.195 757.825 Q 879.125 756.988 879.125 755.748 L 879.125 739.07 Q 879.125 737.892 878.195 737.055 Q 877.265 736.218 873.917 736.218 Q 870.569 736.218 869.639 737.055 Q 868.709 737.892 868.709 739.07 Z" style="fill: rgb(51, 51, 51); white-space: pre;"/>
  <path d="M 921.975 769.698 L 912.737 769.698 Q 911.559 769.698 911.032 769.171 Q 910.505 768.644 910.505 767.466 L 910.505 727.29 Q 910.505 726.112 911.032 725.585 Q 911.559 725.058 912.737 725.058 L 922.719 725.058 Q 923.711 725.058 924.362 725.492 Q 925.013 725.926 925.571 726.918 L 931.151 737.024 Q 931.461 737.582 931.678 737.83 Q 931.895 738.078 932.267 738.078 L 932.825 738.078 Q 933.197 738.078 933.414 737.83 Q 933.631 737.582 933.941 737.024 L 939.459 726.918 Q 940.017 725.926 940.668 725.492 Q 941.319 725.058 942.311 725.058 L 952.355 725.058 Q 953.533 725.058 954.06 725.585 Q 954.587 726.112 954.587 727.29 L 954.587 767.466 Q 954.587 768.644 954.06 769.171 Q 953.533 769.698 952.355 769.698 L 942.807 769.698 Q 941.629 769.698 941.102 769.171 Q 940.575 768.644 940.575 767.466 L 940.575 745.642 L 936.917 752.4 Q 936.359 753.454 935.584 753.919 Q 934.809 754.384 933.631 754.384 L 931.151 754.384 Q 929.973 754.384 929.198 753.919 Q 928.423 753.454 927.865 752.4 L 924.207 745.642 L 924.207 767.466 Q 924.207 768.644 923.68 769.171 Q 923.153 769.698 921.975 769.698 Z" style="fill: rgb(51, 51, 51); white-space: pre;"/>
</svg>