<?xml version="1.0" encoding="utf-8"?>
<svg viewBox="-286.198 -122.208 1920 600" xmlns="http://www.w3.org/2000/svg">
  <rect x="-286.2" y="-122.2" width="1920" height="600" style="fill: rgb(255, 255, 255); stroke: rgb(255, 255, 255);"/>
  <g transform="matrix(0.643634, 0, 0, 0.643634, 352.296967, -210.797638)" style="">
    <ellipse id="XMLID_2_" class="st2" cx="501.8" cy="487.5" rx="228" ry="205.8" style="fill: rgb(143, 227, 249);"/>
    <ellipse id="XMLID_188_" class="st2" cx="501.8" cy="487.5" rx="228" ry="205.8" style="fill: rgb(143, 227, 249);"/>
    <path id="XMLID_193_" class="st3" d="M507.8,689.3c52.1,0,100.1-15.3,138.5-41l-10.5-24.7c-22-51.9-74.2-85.8-132.1-85.8l0,0 c-57.9,0-110.1,33.9-132.1,85.8l-8.6,20.4C402.3,672.3,452.8,689.3,507.8,689.3z" style="fill: rgb(178, 235, 249);"/>
    <path id="XMLID_189_" class="st4" d="M501.7,470.3l-43.6,64l32.9,43.8c5.4,7.2,16.3,7.2,21.7,0l32.6-43.8L501.7,470.3z" style="fill: rgb(164, 224, 234);"/>
    <path id="XMLID_192_" class="st5" d="M501.8,669.3c-121.5,0-220.7-85.7-227.6-193.8c-0.3,4-0.4,8-0.4,12 c0,113.6,102.1,205.8,228,205.8s228-92.1,228-205.8c0-4-0.1-8-0.4-12C722.5,583.6,623.2,669.3,501.8,669.3z" style="fill: rgb(122, 209, 229);"/>
    <path id="XMLID_76_" class="st4" d="M638.6,628.1c-38.1,25.8-85.5,41.2-136.8,41.2c-50,0-96.2-14.5-133.7-39.1l-5,12.3 c39.4,29.2,89.8,46.8,144.8,46.8c49.7,0,95.7-14.4,133.2-38.8c1.8-1.2,3.5-2.5,5.3-3.8L638.6,628.1z" style="fill: rgb(164, 224, 234);"/>
    <path id="XMLID_186_" class="st5" d="M268.2,488.2c6.4,13.1,15,25.3,25.8,36.2c52.3,52.3,137.2,52.3,189.5,0 c43.8-43.8,50.9-110.3,21.5-161.5" style="fill: rgb(122, 209, 229);"/>
    <path id="XMLID_185_" class="st5" d="M729,503.8c-24,36.1-65,59.8-111.6,59.8c-74,0-134-60-134-134c0-33,11.9-63.2,31.7-86.6" style="fill: rgb(122, 209, 229);"/>
    <ellipse id="XMLID_75_" class="st6" cx="501.8" cy="487.5" rx="228" ry="205.8" style="fill: none; stroke: rgb(65, 61, 81); stroke-linecap: round; stroke-linejoin: round; stroke-miterlimit: 10; stroke-width: 16px;"/>
    <polygon id="XMLID_74_" class="st1" points="501.7,442.3 458.1,506.3 501.9,564.6 545.4,506.3 &#9;" style="fill: rgb(65, 61, 81);"/>
    <polygon id="XMLID_73_" class="st6" points="501.7,442.3 458.1,506.3 501.9,564.6 545.4,506.3 &#9;" style="fill: none; stroke: rgb(65, 61, 81); stroke-linecap: round; stroke-linejoin: round; stroke-miterlimit: 10; stroke-width: 16px;"/>
    <path id="XMLID_72_" class="st1" d="M600.7,303.9c-30-14-64.1-21.9-100-21.9s-70,7.9-100,21.9v140.1h200V303.9z" style="fill: rgb(65, 61, 81);"/>
    <g id="XMLID_58_">
      <path id="XMLID_71_" class="st1" d="M613.5,317.9l108.7-3.3c-15.7,39.3-17.8,98.4-4.1,163c-17.4,36.8-54.4,62.9-97.9,64.2l0,0 c-61.8,1.9-113.5-46.7-115.3-108.6l0,0C503,371.4,551.6,319.8,613.5,317.9z" style="fill: rgb(65, 61, 81);"/>
      <path id="XMLID_70_" class="st6" d="M613.5,317.9l108.7-3.3c-15.7,39.3-17.8,98.4-4.1,163c-17.4,36.8-54.4,62.9-97.9,64.2l0,0 c-61.8,1.9-113.5-46.7-115.3-108.6l0,0C503,371.4,551.6,319.8,613.5,317.9z" style="fill: none; stroke: rgb(65, 61, 81); stroke-linecap: round; stroke-linejoin: round; stroke-miterlimit: 10; stroke-width: 16px;"/>
      <circle id="XMLID_69_" class="st7" cx="617.4" cy="429.7" r="112" style="fill: rgb(247, 232, 173);"/>
      <circle id="XMLID_5_" class="st7" cx="617.4" cy="429.7" r="112" style="fill: rgb(247, 232, 173);"/>
      <path id="XMLID_86_" class="st8" d="M696.6,350.5c-21.5-21.5-49.7-32.4-77.9-32.8c21.2,4.1,41.5,14.3,57.9,30.8 c43.7,43.7,43.7,114.6,0,158.4c-22.2,22.2-51.4,33.1-80.4,32.8c35.3,6.8,73.1-3.5,100.4-30.8C740.3,465.1,740.3,394.2,696.6,350.5 z" style="fill: rgb(247, 214, 161);"/>
      <ellipse id="XMLID_3_" transform="matrix(0.7071 -0.7071 0.7071 0.7071 -130.8246 543.5441)" class="st0" cx="590.7" cy="429.7" rx="84" ry="84.6" style="fill: rgb(255, 255, 255); opacity: 0.7;"/>
      <path id="XMLID_12_" class="st9" d="M711.4,376.6c-3.1-4-9.1-15-12.8-18.7c-44-43.4-114.9-43-158.3,1.1 c-8.6,8.7-15.5,18.5-20.6,29C581.4,366.3,649,371.5,711.4,376.6z" style="fill: rgb(239, 202, 146);"/>
      <circle id="XMLID_68_" class="st6" cx="617.4" cy="429.7" r="112" style="fill: none; stroke: rgb(65, 61, 81); stroke-linecap: round; stroke-linejoin: round; stroke-miterlimit: 10; stroke-width: 16px;"/>
      <circle id="XMLID_67_" class="st6" cx="617.4" cy="429.7" r="112" style="fill: none; stroke: rgb(65, 61, 81); stroke-linecap: round; stroke-linejoin: round; stroke-miterlimit: 10; stroke-width: 16px;"/>
      <path id="XMLID_66_" class="st1" d="M706.7,362.1c-3.1-4-6.4-7.9-10.1-11.6c-43.7-43.7-114.6-43.7-158.4,0 c-8.7,8.7-15.6,18.4-20.8,28.8C579.4,358.1,644.3,356.5,706.7,362.1z" style="fill: rgb(65, 61, 81);"/>
      <circle id="XMLID_57_" class="st1" cx="562.9" cy="438.1" r="42" style="fill: rgb(65, 61, 81);"/>
      <circle id="XMLID_56_" class="st10" cx="539.1" cy="438.4" r="14" style="fill: rgb(255, 255, 255);"/>
    </g>
    <g id="XMLID_26_">
      <path id="XMLID_89_" class="st1" d="M388.8,317.9L280,314.6c15.7,39.3,17.8,98.4,4.1,163c17.4,36.8,54.4,62.9,97.9,64.2l0,0 c61.8,1.9,113.5-46.7,115.3-108.6l0,0C499.2,371.4,450.6,319.8,388.8,317.9z" style="fill: rgb(65, 61, 81);"/>
      <path id="XMLID_88_" class="st6" d="M388.8,317.9L280,314.6c15.7,39.3,17.8,98.4,4.1,163c17.4,36.8,54.4,62.9,97.9,64.2l0,0 c61.8,1.9,113.5-46.7,115.3-108.6l0,0C499.2,371.4,450.6,319.8,388.8,317.9z" style="fill: none; stroke: rgb(65, 61, 81); stroke-linecap: round; stroke-linejoin: round; stroke-miterlimit: 10; stroke-width: 16px;"/>
      <circle id="XMLID_87_" class="st7" cx="384.8" cy="429.7" r="112" style="fill: rgb(247, 232, 173);"/>
      <circle id="XMLID_84_" class="st7" cx="384.8" cy="429.7" r="112" style="fill: rgb(247, 232, 173);"/>
      <path id="XMLID_65_" class="st8" d="M305.6,350.5c21.5-21.5,49.7-32.4,77.9-32.8c-21.2,4.1-41.5,14.3-57.9,30.8 c-43.7,43.7-43.7,114.6,0,158.4c22.2,22.2,51.4,33.1,80.4,32.8c-35.3,6.8-73.1-3.5-100.4-30.8 C261.9,465.1,261.9,394.2,305.6,350.5z" style="fill: rgb(247, 214, 161);"/>
      <ellipse id="XMLID_64_" transform="matrix(0.7071 -0.7071 0.7071 0.7071 -183.3021 416.8521)" class="st0" cx="411.5" cy="429.7" rx="84.6" ry="84" style="fill: rgb(255, 255, 255); opacity: 0.7;"/>
      <path id="XMLID_63_" class="st11" d="M290.9,376.6c3.1-4,9.1-15,12.8-18.7c44-43.4,114.9-43,158.3,1.1c8.6,8.7,15.5,18.5,20.6,29 C420.8,366.3,353.2,371.5,290.9,376.6z" style="fill: rgb(239, 202, 146); opacity: 0.89;"/>
      <circle id="XMLID_62_" class="st6" cx="384.8" cy="429.7" r="112" style="fill: none; stroke: rgb(65, 61, 81); stroke-linecap: round; stroke-linejoin: round; stroke-miterlimit: 10; stroke-width: 16px;"/>
      <circle id="XMLID_61_" class="st6" cx="384.8" cy="429.7" r="112" style="fill: none; stroke: rgb(65, 61, 81); stroke-linecap: round; stroke-linejoin: round; stroke-miterlimit: 10; stroke-width: 16px;"/>
      <path id="XMLID_60_" class="st1" d="M295.6,362.1c3.1-4,6.4-7.9,10.1-11.6c43.7-43.7,114.6-43.7,158.4,0 c8.7,8.7,15.6,18.4,20.8,28.8C422.9,358.1,357.9,356.5,295.6,362.1z" style="fill: rgb(65, 61, 81);"/>
      <circle id="XMLID_59_" class="st1" cx="439.4" cy="438.1" r="42" style="fill: rgb(65, 61, 81);"/>
      <circle id="XMLID_37_" class="st10" cx="463.2" cy="438.4" r="14" style="fill: rgb(255, 255, 255);"/>
    </g>
    <path id="XMLID_19_" class="st1" d="M447.9,718.3L447.9,718.3c-8.8,0-16-7.2-16-16v-18c0-8.8,7.2-16,16-16h0c8.8,0,16,7.2,16,16v18 C463.9,711.1,456.8,718.3,447.9,718.3z" style="fill: rgb(65, 61, 81);"/>
    <path id="XMLID_17_" class="st1" d="M415.9,718.3L415.9,718.3c-8.8,0-16-7.2-16-16v-18c0-8.8,7.2-16,16-16h0c8.8,0,16,7.2,16,16v18 C431.9,711.1,424.8,718.3,415.9,718.3z" style="fill: rgb(65, 61, 81);"/>
    <path id="XMLID_16_" class="st1" d="M479.7,718.3L479.7,718.3c-8.8,0-16-7.2-16-16v-18c0-8.8,7.2-16,16-16h0c8.8,0,16,7.2,16,16v18 C495.7,711.1,488.5,718.3,479.7,718.3z" style="fill: rgb(65, 61, 81);"/>
    <path id="XMLID_15_" class="st1" d="M521.9,718.3L521.9,718.3c-8.8,0-16-7.2-16-16v-18c0-8.8,7.2-16,16-16h0c8.8,0,16,7.2,16,16v18 C537.9,711.1,530.7,718.3,521.9,718.3z" style="fill: rgb(65, 61, 81);"/>
    <path id="XMLID_14_" class="st1" d="M553.7,718.3L553.7,718.3c-8.8,0-16-7.2-16-16v-18c0-8.8,7.2-16,16-16h0c8.8,0,16,7.2,16,16v18 C569.7,711.1,562.5,718.3,553.7,718.3z" style="fill: rgb(65, 61, 81);"/>
    <path id="XMLID_13_" class="st1" d="M585.7,718.3L585.7,718.3c-8.8,0-16-7.2-16-16v-18c0-8.8,7.2-16,16-16h0c8.8,0,16,7.2,16,16v18 C601.7,711.1,594.5,718.3,585.7,718.3z" style="fill: rgb(65, 61, 81);"/>
    <path id="XMLID_11_" class="st12" d="M491.9,587.6c0,8.4-6.8,15.2-15.2,15.2c-8.4,0-15.2-6.8-15.2-15.2" style="fill: none; stroke: rgb(65, 61, 81); stroke-linecap: round; stroke-linejoin: round; stroke-miterlimit: 10; stroke-width: 8px;"/>
    <path id="XMLID_9_" class="st12" d="M538.4,587.6c0,8.4-6.8,15.2-15.2,15.2c-8.4,0-15.2-6.8-15.2-15.2" style="fill: none; stroke: rgb(65, 61, 81); stroke-linecap: round; stroke-linejoin: round; stroke-miterlimit: 10; stroke-width: 8px;"/>
    <path id="XMLID_10_" class="st13" d="M323,548.8c-2.2,4.7-7.7,6.8-12.5,4.6s-6.8-7.7-4.6-12.5" style="fill: none; opacity: 0.31; stroke: rgb(114, 200, 214); stroke-linecap: round; stroke-linejoin: round; stroke-miterlimit: 10; stroke-width: 8px;"/>
    <path id="XMLID_1_" class="st13" d="M352.8,564.3c-2.2,4.7-7.7,6.8-12.5,4.6c-4.7-2.2-6.8-7.7-4.6-12.5" style="fill: none; opacity: 0.31; stroke: rgb(114, 200, 214); stroke-linecap: round; stroke-linejoin: round; stroke-miterlimit: 10; stroke-width: 8px;"/>
    <path id="XMLID_78_" class="st13" d="M335.5,576.2c-2.2,4.7-7.7,6.8-12.5,4.6c-4.7-2.2-6.8-7.7-4.6-12.5" style="fill: none; opacity: 0.31; stroke: rgb(114, 200, 214); stroke-linecap: round; stroke-linejoin: round; stroke-miterlimit: 10; stroke-width: 8px;"/>
    <path id="XMLID_77_" class="st13" d="M361.7,596.1c-2.2,4.7-7.7,6.8-12.5,4.6c-4.7-2.2-6.8-7.7-4.6-12.5" style="fill: none; opacity: 0.31; stroke: rgb(114, 200, 214); stroke-linecap: round; stroke-linejoin: round; stroke-miterlimit: 10; stroke-width: 8px;"/>
    <path id="XMLID_79_" class="st13" d="M381.7,578.1c-2.2,4.7-7.7,6.8-12.5,4.6c-4.7-2.2-6.8-7.7-4.6-12.5" style="fill: none; opacity: 0.31; stroke: rgb(114, 200, 214); stroke-linecap: round; stroke-linejoin: round; stroke-miterlimit: 10; stroke-width: 8px;"/>
    <path id="XMLID_85_" class="st13" d="M683.7,550.8c2.2,4.7,7.7,6.8,12.5,4.6s6.8-7.7,4.6-12.5" style="fill: none; opacity: 0.31; stroke: rgb(114, 200, 214); stroke-linecap: round; stroke-linejoin: round; stroke-miterlimit: 10; stroke-width: 8px;"/>
    <path id="XMLID_83_" class="st13" d="M654,566.3c2.2,4.7,7.7,6.8,12.5,4.6c4.7-2.2,6.8-7.7,4.6-12.5" style="fill: none; opacity: 0.31; stroke: rgb(114, 200, 214); stroke-linecap: round; stroke-linejoin: round; stroke-miterlimit: 10; stroke-width: 8px;"/>
    <path id="XMLID_82_" class="st13" d="M671.2,578.2c2.2,4.7,7.7,6.8,12.5,4.6c4.7-2.2,6.8-7.7,4.6-12.5" style="fill: none; opacity: 0.31; stroke: rgb(114, 200, 214); stroke-linecap: round; stroke-linejoin: round; stroke-miterlimit: 10; stroke-width: 8px;"/>
    <path id="XMLID_81_" class="st13" d="M645.1,598.1c2.2,4.7,7.7,6.8,12.5,4.6c4.7-2.2,6.8-7.7,4.6-12.5" style="fill: none; opacity: 0.31; stroke: rgb(114, 200, 214); stroke-linecap: round; stroke-linejoin: round; stroke-miterlimit: 10; stroke-width: 8px;"/>
    <path id="XMLID_80_" class="st13" d="M625.1,580.1c2.2,4.7,7.7,6.8,12.5,4.6c4.7-2.2,6.8-7.7,4.6-12.5" style="fill: none; opacity: 0.31; stroke: rgb(114, 200, 214); stroke-linecap: round; stroke-linejoin: round; stroke-miterlimit: 10; stroke-width: 8px;"/>
    <path id="XMLID_8_" class="st12" d="M468.7,624.1c0,8.4-6.8,15.2-15.2,15.2c-8.4,0-15.2-6.8-15.2-15.2" style="fill: none; stroke: rgb(65, 61, 81); stroke-linecap: round; stroke-linejoin: round; stroke-miterlimit: 10; stroke-width: 8px;"/>
    <path id="XMLID_7_" class="st12" d="M515.2,624.1c0,8.4-6.8,15.2-15.2,15.2s-15.2-6.8-15.2-15.2" style="fill: none; stroke: rgb(65, 61, 81); stroke-linecap: round; stroke-linejoin: round; stroke-miterlimit: 10; stroke-width: 8px;"/>
    <path id="XMLID_6_" class="st12" d="M561.7,624.1c0,8.4-6.8,15.2-15.2,15.2c-8.4,0-15.2-6.8-15.2-15.2" style="fill: none; stroke: rgb(65, 61, 81); stroke-linecap: round; stroke-linejoin: round; stroke-miterlimit: 10; stroke-width: 8px;"/>
  </g>
  <path d="M 413.137 290.395 L 399.16 290.395 C 394.387 290.395 390.845 289.44 388.534 287.531 C 386.223 285.622 385.068 282.681 385.068 278.71 L 385.068 260.895 C 385.068 256.923 386.223 253.972 388.534 252.044 C 390.845 250.116 394.387 249.151 399.16 249.151 L 413.137 249.151 C 413.863 249.151 414.388 249.314 414.712 249.638 C 415.037 249.962 415.199 250.488 415.199 251.214 L 415.199 258.145 C 415.199 258.87 415.037 259.396 414.712 259.72 C 414.388 260.044 413.863 260.207 413.137 260.207 L 401.623 260.207 C 400.439 260.207 399.561 260.445 398.988 260.923 C 398.415 261.4 398.129 262.116 398.129 263.071 L 398.129 276.705 C 398.129 277.659 398.415 278.356 398.988 278.795 C 399.561 279.234 400.439 279.454 401.623 279.454 L 413.137 279.454 C 413.863 279.454 414.388 279.617 414.712 279.941 C 415.037 280.265 415.199 280.791 415.199 281.517 L 415.199 288.333 C 415.199 289.059 415.037 289.584 414.712 289.908 C 414.388 290.233 413.863 290.395 413.137 290.395 Z" style="fill: rgb(65, 61, 81); white-space: pre;"/>
  <path d="M 456.323 279.569 C 456.323 281.325 456.065 282.92 455.549 284.352 C 455.034 285.784 454.118 287.006 452.799 288.018 C 451.483 289.03 449.668 289.823 447.358 290.395 C 445.048 290.968 442.116 291.255 438.565 291.255 C 435.013 291.255 432.073 290.968 429.743 290.395 C 427.414 289.823 425.591 289.03 424.272 288.018 C 422.955 287.006 422.039 285.784 421.523 284.352 C 421.008 282.92 420.75 281.325 420.75 279.569 L 420.75 260.035 C 420.75 258.278 421.008 256.684 421.523 255.252 C 422.039 253.82 422.955 252.588 424.272 251.557 C 425.591 250.526 427.414 249.724 429.743 249.151 C 432.073 248.579 435.013 248.292 438.565 248.292 C 442.116 248.292 445.048 248.579 447.358 249.151 C 449.668 249.724 451.483 250.526 452.799 251.557 C 454.118 252.588 455.034 253.82 455.549 255.252 C 456.065 256.684 456.323 258.278 456.323 260.035 L 456.323 279.569 Z M 433.753 277.507 C 433.753 278.27 434.04 278.91 434.612 279.425 C 435.185 279.941 436.503 280.199 438.565 280.199 C 440.627 280.199 441.945 279.941 442.517 279.425 C 443.09 278.91 443.377 278.27 443.377 277.507 L 443.377 262.097 C 443.377 261.371 443.09 260.751 442.517 260.235 C 441.945 259.72 440.627 259.462 438.565 259.462 C 436.503 259.462 435.185 259.72 434.612 260.235 C 434.04 260.751 433.753 261.371 433.753 262.097 L 433.753 277.507 Z" style="fill: rgb(65, 61, 81); white-space: pre;"/>
  <path d="M 484.964 290.395 L 465.66 290.395 C 464.935 290.395 464.409 290.233 464.085 289.908 C 463.761 289.584 463.598 289.059 463.598 288.333 L 463.598 251.214 C 463.598 250.488 463.761 249.962 464.085 249.638 C 464.409 249.314 464.935 249.151 465.66 249.151 L 484.964 249.151 C 489.738 249.151 493.28 250.106 495.591 252.016 C 497.901 253.925 499.056 256.865 499.056 260.837 L 499.056 278.71 C 499.056 282.681 497.901 285.622 495.591 287.531 C 493.28 289.44 489.738 290.395 484.964 290.395 Z M 476.601 260.093 L 476.601 279.569 L 483.418 279.569 C 484.334 279.569 485.013 279.34 485.452 278.882 C 485.891 278.423 486.11 277.717 486.11 276.762 L 486.11 262.842 C 486.11 261.887 485.891 261.19 485.452 260.751 C 485.013 260.312 484.334 260.093 483.418 260.093 L 476.601 260.093 Z" style="fill: rgb(65, 61, 81); white-space: pre;"/>
  <path d="M 534.971 290.395 L 508.391 290.395 C 507.666 290.395 507.141 290.233 506.816 289.908 C 506.492 289.584 506.329 289.059 506.329 288.333 L 506.329 251.214 C 506.329 250.488 506.492 249.962 506.816 249.638 C 507.141 249.314 507.666 249.151 508.391 249.151 L 534.971 249.151 C 535.697 249.151 536.222 249.314 536.547 249.638 C 536.871 249.962 537.033 250.488 537.033 251.214 L 537.033 257.916 C 537.033 258.641 536.871 259.166 536.547 259.491 C 536.222 259.815 535.697 259.978 534.971 259.978 L 519.161 259.978 L 519.161 264.389 L 530.331 264.389 C 531.057 264.389 531.582 264.551 531.907 264.875 C 532.231 265.2 532.393 265.725 532.393 266.451 L 532.393 272.58 C 532.393 273.306 532.231 273.831 531.907 274.155 C 531.582 274.48 531.057 274.643 530.331 274.643 L 519.161 274.643 L 519.161 279.569 L 534.971 279.569 C 535.697 279.569 536.222 279.731 536.547 280.056 C 536.871 280.38 537.033 280.905 537.033 281.631 L 537.033 288.333 C 537.033 289.059 536.871 289.584 536.547 289.908 C 536.222 290.233 535.697 290.395 534.971 290.395 Z" style="fill: rgb(65, 61, 81); white-space: pre;"/>
  <path d="M 556.737 259.462 L 556.737 266.795 L 561.033 266.795 C 562.026 266.795 562.694 266.537 563.038 266.021 C 563.382 265.506 563.553 264.866 563.553 264.102 L 563.553 262.155 C 563.553 261.391 563.382 260.751 563.038 260.235 C 562.694 259.72 562.026 259.462 561.033 259.462 L 556.737 259.462 Z M 554.674 290.395 L 545.853 290.395 C 545.127 290.395 544.602 290.233 544.278 289.908 C 543.953 289.584 543.791 289.059 543.791 288.333 L 543.791 251.214 C 543.791 250.488 543.953 249.962 544.278 249.638 C 544.602 249.314 545.127 249.151 545.853 249.151 L 564.928 249.151 C 569.206 249.151 572.156 250.039 573.779 251.815 C 575.402 253.591 576.213 255.892 576.213 258.718 L 576.213 261.353 C 576.213 262.957 575.975 264.322 575.497 265.448 C 575.02 266.575 574.189 267.386 573.005 267.883 C 575.067 268.112 576.738 268.952 578.018 270.404 C 579.297 271.854 579.936 273.783 579.936 276.189 L 579.936 288.333 C 579.936 289.059 579.774 289.584 579.45 289.908 C 579.125 290.233 578.6 290.395 577.874 290.395 L 568.995 290.395 C 568.27 290.395 567.745 290.233 567.42 289.908 C 567.096 289.584 566.933 289.059 566.933 288.333 L 566.933 279.569 C 566.933 278.728 566.771 278.108 566.447 277.707 C 566.122 277.306 565.558 277.106 564.756 277.106 L 556.737 277.106 L 556.737 288.333 C 556.737 289.059 556.575 289.584 556.25 289.908 C 555.926 290.233 555.401 290.395 554.674 290.395 Z" style="fill: rgb(65, 61, 81); white-space: pre;"/>
  <path d="M 605.494 290.395 L 587.392 290.395 C 586.667 290.395 586.142 290.233 585.817 289.908 C 585.492 289.584 585.33 289.059 585.33 288.333 L 585.33 281.631 C 585.33 280.905 585.492 280.38 585.817 280.056 C 586.142 279.731 586.667 279.569 587.392 279.569 L 602.802 279.569 C 603.298 279.569 603.67 279.406 603.918 279.082 C 604.167 278.757 604.291 278.366 604.291 277.908 C 604.291 277.258 604.167 276.781 603.918 276.476 C 603.67 276.17 603.298 275.998 602.802 275.96 L 594.209 274.757 C 591.536 274.375 589.388 273.497 587.764 272.122 C 586.142 270.747 585.33 268.456 585.33 265.248 L 585.33 259.233 C 585.33 255.987 586.381 253.495 588.481 251.758 C 590.582 250.02 593.484 249.151 597.188 249.151 L 613.227 249.151 C 613.953 249.151 614.478 249.314 614.802 249.638 C 615.127 249.962 615.289 250.488 615.289 251.214 L 615.289 258.03 C 615.289 258.756 615.127 259.281 614.802 259.605 C 614.478 259.93 613.953 260.093 613.227 260.093 L 599.88 260.093 C 599.384 260.093 599.002 260.255 598.734 260.579 C 598.467 260.904 598.333 261.314 598.333 261.811 C 598.333 262.307 598.467 262.728 598.734 263.071 C 599.002 263.415 599.384 263.606 599.88 263.644 L 608.415 264.79 C 611.089 265.171 613.246 266.05 614.888 267.425 C 616.531 268.8 617.352 271.091 617.352 274.299 L 617.352 280.314 C 617.352 283.559 616.292 286.051 614.172 287.789 C 612.053 289.527 609.16 290.395 605.494 290.395 Z" style="fill: rgb(65, 61, 81); white-space: pre;"/>
  <path d="M 647.425 290.395 L 638.546 290.395 C 637.821 290.395 637.296 290.233 636.971 289.908 C 636.646 289.584 636.484 289.059 636.484 288.333 L 636.484 251.214 C 636.484 250.488 636.646 249.962 636.971 249.638 C 637.296 249.314 637.821 249.151 638.546 249.151 L 664.095 249.151 C 664.821 249.151 665.345 249.314 665.67 249.638 C 665.995 249.962 666.157 250.488 666.157 251.214 L 666.157 258.03 C 666.157 258.756 665.995 259.281 665.67 259.605 C 665.345 259.93 664.821 260.093 664.095 260.093 L 649.488 260.093 L 649.488 266.05 L 659.455 266.05 C 660.181 266.05 660.705 266.212 661.03 266.537 C 661.355 266.861 661.517 267.386 661.517 268.112 L 661.517 274.986 C 661.517 275.712 661.355 276.237 661.03 276.561 C 660.705 276.886 660.181 277.048 659.455 277.048 L 649.488 277.048 L 649.488 288.333 C 649.488 289.059 649.325 289.584 649 289.908 C 648.676 290.233 648.151 290.395 647.425 290.395 Z" style="fill: rgb(65, 61, 81); white-space: pre;"/>
  <path d="M 706.535 279.569 C 706.535 281.325 706.278 282.92 705.762 284.352 C 705.247 285.784 704.33 287.006 703.012 288.018 C 701.695 289.03 699.881 289.823 697.57 290.395 C 695.26 290.968 692.329 291.255 688.778 291.255 C 685.226 291.255 682.286 290.968 679.956 290.395 C 677.627 289.823 675.803 289.03 674.485 288.018 C 673.168 287.006 672.252 285.784 671.735 284.352 C 671.22 282.92 670.962 281.325 670.962 279.569 L 670.962 260.035 C 670.962 258.278 671.22 256.684 671.735 255.252 C 672.252 253.82 673.168 252.588 674.485 251.557 C 675.803 250.526 677.627 249.724 679.956 249.151 C 682.286 248.579 685.226 248.292 688.778 248.292 C 692.329 248.292 695.26 248.579 697.57 249.151 C 699.881 249.724 701.695 250.526 703.012 251.557 C 704.33 252.588 705.247 253.82 705.762 255.252 C 706.278 256.684 706.535 258.278 706.535 260.035 L 706.535 279.569 Z M 683.966 277.507 C 683.966 278.27 684.252 278.91 684.825 279.425 C 685.398 279.941 686.715 280.199 688.778 280.199 C 690.84 280.199 692.157 279.941 692.73 279.425 C 693.303 278.91 693.589 278.27 693.589 277.507 L 693.589 262.097 C 693.589 261.371 693.303 260.751 692.73 260.235 C 692.157 259.72 690.84 259.462 688.778 259.462 C 686.715 259.462 685.398 259.72 684.825 260.235 C 684.252 260.751 683.966 261.371 683.966 262.097 L 683.966 277.507 Z" style="fill: rgb(65, 61, 81); white-space: pre;"/>
  <path d="M 726.756 259.462 L 726.756 266.795 L 731.053 266.795 C 732.046 266.795 732.714 266.537 733.058 266.021 C 733.401 265.506 733.573 264.866 733.573 264.102 L 733.573 262.155 C 733.573 261.391 733.401 260.751 733.058 260.235 C 732.714 259.72 732.046 259.462 731.053 259.462 L 726.756 259.462 Z M 724.694 290.395 L 715.873 290.395 C 715.147 290.395 714.622 290.233 714.298 289.908 C 713.973 289.584 713.81 289.059 713.81 288.333 L 713.81 251.214 C 713.81 250.488 713.973 249.962 714.298 249.638 C 714.622 249.314 715.147 249.151 715.873 249.151 L 734.948 249.151 C 739.226 249.151 742.175 250.039 743.799 251.815 C 745.422 253.591 746.233 255.892 746.233 258.718 L 746.233 261.353 C 746.233 262.957 745.995 264.322 745.517 265.448 C 745.039 266.575 744.209 267.386 743.025 267.883 C 745.087 268.112 746.758 268.952 748.038 270.404 C 749.317 271.854 749.956 273.783 749.956 276.189 L 749.956 288.333 C 749.956 289.059 749.794 289.584 749.47 289.908 C 749.145 290.233 748.62 290.395 747.894 290.395 L 739.015 290.395 C 738.29 290.395 737.764 290.233 737.44 289.908 C 737.116 289.584 736.953 289.059 736.953 288.333 L 736.953 279.569 C 736.953 278.728 736.791 278.108 736.466 277.707 C 736.142 277.306 735.578 277.106 734.776 277.106 L 726.756 277.106 L 726.756 288.333 C 726.756 289.059 726.594 289.584 726.27 289.908 C 725.945 290.233 725.42 290.395 724.694 290.395 Z" style="fill: rgb(65, 61, 81); white-space: pre;"/>
  <path d="M 797.906 290.395 L 771.326 290.395 C 770.601 290.395 770.076 290.233 769.751 289.908 C 769.426 289.584 769.264 289.059 769.264 288.333 L 769.264 251.214 C 769.264 250.488 769.426 249.962 769.751 249.638 C 770.076 249.314 770.601 249.151 771.326 249.151 L 797.906 249.151 C 798.632 249.151 799.156 249.314 799.481 249.638 C 799.806 249.962 799.968 250.488 799.968 251.214 L 799.968 257.916 C 799.968 258.641 799.806 259.166 799.481 259.491 C 799.156 259.815 798.632 259.978 797.906 259.978 L 782.095 259.978 L 782.095 264.389 L 793.266 264.389 C 793.992 264.389 794.516 264.551 794.841 264.875 C 795.166 265.2 795.328 265.725 795.328 266.451 L 795.328 272.58 C 795.328 273.306 795.166 273.831 794.841 274.155 C 794.516 274.48 793.992 274.643 793.266 274.643 L 782.095 274.643 L 782.095 279.569 L 797.906 279.569 C 798.632 279.569 799.156 279.731 799.481 280.056 C 799.806 280.38 799.968 280.905 799.968 281.631 L 799.968 288.333 C 799.968 289.059 799.806 289.584 799.481 289.908 C 799.156 290.233 798.632 290.395 797.906 290.395 Z" style="fill: rgb(65, 61, 81); white-space: pre;"/>
  <path d="M 821.676 261.181 L 818.984 269.888 L 827.977 269.888 L 825.285 261.181 C 825.133 260.837 824.97 260.589 824.798 260.436 C 824.627 260.283 824.426 260.207 824.197 260.207 L 822.765 260.207 C 822.536 260.207 822.335 260.283 822.163 260.436 C 821.992 260.589 821.83 260.837 821.676 261.181 Z M 818.411 288.333 C 818.411 289.059 818.249 289.584 817.924 289.908 C 817.6 290.233 817.075 290.395 816.349 290.395 L 807.928 290.395 C 807.203 290.395 806.678 290.233 806.353 289.908 C 806.028 289.584 805.866 289.059 805.866 288.333 L 805.866 273.21 C 805.866 272.065 806.048 270.747 806.41 269.258 C 806.773 267.769 807.337 266.031 808.1 264.045 L 813.084 251.042 C 813.313 250.392 813.666 249.915 814.143 249.61 C 814.621 249.304 815.242 249.151 816.005 249.151 L 831.414 249.151 C 832.141 249.151 832.742 249.304 833.219 249.61 C 833.696 249.915 834.05 250.392 834.279 251.042 L 839.262 264.045 C 840.026 266.031 840.589 267.769 840.952 269.258 C 841.315 270.747 841.496 272.065 841.496 273.21 L 841.496 288.333 C 841.496 289.059 841.334 289.584 841.009 289.908 C 840.685 290.233 840.16 290.395 839.434 290.395 L 830.784 290.395 C 830.021 290.395 829.457 290.233 829.094 289.908 C 828.732 289.584 828.55 289.059 828.55 288.333 L 828.55 280.314 L 818.411 280.314 L 818.411 288.333 Z" style="fill: rgb(65, 61, 81); white-space: pre;"/>
  <path d="M 861.488 259.462 L 861.488 266.795 L 865.784 266.795 C 866.777 266.795 867.445 266.537 867.789 266.021 C 868.133 265.506 868.304 264.866 868.304 264.102 L 868.304 262.155 C 868.304 261.391 868.133 260.751 867.789 260.235 C 867.445 259.72 866.777 259.462 865.784 259.462 L 861.488 259.462 Z M 859.425 290.395 L 850.604 290.395 C 849.878 290.395 849.353 290.233 849.028 289.908 C 848.704 289.584 848.542 289.059 848.542 288.333 L 848.542 251.214 C 848.542 250.488 848.704 249.962 849.028 249.638 C 849.353 249.314 849.878 249.151 850.604 249.151 L 869.679 249.151 C 873.957 249.151 876.907 250.039 878.529 251.815 C 880.152 253.591 880.964 255.892 880.964 258.718 L 880.964 261.353 C 880.964 262.957 880.725 264.322 880.248 265.448 C 879.771 266.575 878.94 267.386 877.756 267.883 C 879.818 268.112 881.489 268.952 882.768 270.404 C 884.048 271.854 884.687 273.783 884.687 276.189 L 884.687 288.333 C 884.687 289.059 884.525 289.584 884.2 289.908 C 883.876 290.233 883.351 290.395 882.625 290.395 L 873.746 290.395 C 873.021 290.395 872.496 290.233 872.171 289.908 C 871.846 289.584 871.684 289.059 871.684 288.333 L 871.684 279.569 C 871.684 278.728 871.522 278.108 871.197 277.707 C 870.872 277.306 870.309 277.106 869.507 277.106 L 861.488 277.106 L 861.488 288.333 C 861.488 289.059 861.325 289.584 861 289.908 C 860.676 290.233 860.151 290.395 859.425 290.395 Z" style="fill: rgb(65, 61, 81); white-space: pre;"/>
  <path d="M 908.858 290.395 L 899.579 290.395 C 898.853 290.395 898.328 290.233 898.003 289.908 C 897.679 289.584 897.516 289.059 897.516 288.333 L 897.516 260.207 L 889.096 260.207 C 888.37 260.207 887.845 260.044 887.52 259.72 C 887.196 259.396 887.033 258.87 887.033 258.145 L 887.033 251.214 C 887.033 250.488 887.196 249.962 887.52 249.638 C 887.845 249.314 888.37 249.151 889.096 249.151 L 919.341 249.151 C 920.067 249.151 920.592 249.314 920.916 249.638 C 921.241 249.962 921.404 250.488 921.404 251.214 L 921.404 258.145 C 921.404 258.87 921.241 259.396 920.916 259.72 C 920.592 260.044 920.067 260.207 919.341 260.207 L 910.921 260.207 L 910.921 288.333 C 910.921 289.059 910.758 289.584 910.433 289.908 C 910.109 290.233 909.584 290.395 908.858 290.395 Z" style="fill: rgb(65, 61, 81); white-space: pre;"/>
  <path d="M 937.905 290.395 L 929.026 290.395 C 928.301 290.395 927.775 290.233 927.451 289.908 C 927.127 289.584 926.964 289.059 926.964 288.333 L 926.964 251.214 C 926.964 250.488 927.127 249.962 927.451 249.638 C 927.775 249.314 928.301 249.151 929.026 249.151 L 937.905 249.151 C 938.631 249.151 939.156 249.314 939.481 249.638 C 939.805 249.962 939.967 250.488 939.967 251.214 L 939.967 263.644 L 949.534 263.644 L 949.534 251.214 C 949.534 250.488 949.696 249.962 950.021 249.638 C 950.345 249.314 950.87 249.151 951.596 249.151 L 960.475 249.151 C 961.201 249.151 961.726 249.314 962.05 249.638 C 962.375 249.962 962.537 250.488 962.537 251.214 L 962.537 288.333 C 962.537 289.059 962.375 289.584 962.05 289.908 C 961.726 290.233 961.201 290.395 960.475 290.395 L 951.596 290.395 C 950.87 290.395 950.345 290.233 950.021 289.908 C 949.696 289.584 949.534 289.059 949.534 288.333 L 949.534 275.616 L 939.967 275.616 L 939.967 288.333 C 939.967 289.059 939.805 289.584 939.481 289.908 C 939.156 290.233 938.631 290.395 937.905 290.395 Z" style="fill: rgb(65, 61, 81); white-space: pre;"/>
  <path d="M 402.248 388.025 L 402.248 388.485 L 394.562 388.485 C 391.587 388.485 389.616 388.025 388.649 387.105 C 387.682 386.184 387.199 384.666 387.199 382.549 L 387.199 369.664 C 387.199 367.485 387.69 365.936 388.672 365.015 C 389.654 364.095 391.617 363.635 394.562 363.635 L 402.248 363.635 L 402.248 364.095 L 394.562 364.095 C 391.863 364.095 390.037 364.517 389.086 365.36 C 388.135 366.205 387.659 367.639 387.659 369.664 L 387.659 382.549 C 387.659 384.543 388.119 385.955 389.04 386.783 C 389.96 387.611 391.801 388.025 394.562 388.025 L 402.248 388.025 Z" style="fill: rgb(51, 51, 51); white-space: pre;"/>
  <path d="M 434.453 382.871 C 434.453 384.712 433.794 386.207 432.474 387.358 C 431.155 388.508 428.701 389.084 425.111 389.084 C 421.522 389.084 419.083 388.508 417.794 387.358 C 416.506 386.207 415.861 384.712 415.861 382.871 L 415.861 369.295 C 415.861 367.455 416.506 365.959 417.794 364.808 C 419.083 363.658 421.522 363.082 425.111 363.082 C 428.701 363.082 431.155 363.658 432.474 364.808 C 433.794 365.959 434.453 367.455 434.453 369.295 L 434.453 382.871 Z M 416.322 382.871 C 416.322 384.589 416.936 385.978 418.162 387.036 C 419.39 388.095 421.706 388.624 425.111 388.624 C 428.517 388.624 430.848 388.095 432.106 387.036 C 433.364 385.978 433.993 384.589 433.993 382.871 L 433.993 369.295 C 433.993 367.577 433.364 366.189 432.106 365.13 C 430.848 364.072 428.517 363.543 425.111 363.543 C 421.706 363.543 419.39 364.072 418.162 365.13 C 416.936 366.189 416.322 367.577 416.322 369.295 L 416.322 382.871 Z" style="fill: rgb(51, 51, 51); white-space: pre;"/>
  <path d="M 450.335 388.485 L 450.335 363.635 L 461.472 363.635 C 463.036 363.635 464.302 363.804 465.269 364.141 C 466.235 364.478 466.979 364.931 467.5 365.499 C 468.022 366.066 468.375 366.741 468.559 367.523 C 468.743 368.306 468.835 369.142 468.835 370.032 L 468.835 382.227 C 468.835 383.117 468.751 383.945 468.582 384.712 C 468.413 385.479 468.068 386.139 467.546 386.691 C 467.025 387.243 466.273 387.68 465.291 388.002 C 464.31 388.324 463.036 388.485 461.472 388.485 L 450.335 388.485 Z M 461.472 364.095 L 450.795 364.095 L 450.795 388.025 L 461.472 388.025 C 462.944 388.025 464.133 387.88 465.038 387.588 C 465.943 387.297 466.641 386.898 467.132 386.392 C 467.623 385.886 467.953 385.272 468.122 384.551 C 468.29 383.83 468.375 383.056 468.375 382.227 L 468.375 370.032 C 468.375 369.203 468.283 368.421 468.099 367.684 C 467.915 366.948 467.577 366.319 467.086 365.798 C 466.596 365.276 465.897 364.862 464.992 364.555 C 464.088 364.249 462.914 364.095 461.472 364.095 Z" style="fill: rgb(51, 51, 51); white-space: pre;"/>
  <path d="M 500.177 388.025 L 500.177 388.485 L 484.669 388.485 L 484.669 363.635 L 500.177 363.635 L 500.177 364.095 L 485.129 364.095 L 485.129 375.646 L 496.45 375.646 L 496.45 376.106 L 485.129 376.106 L 485.129 388.025 L 500.177 388.025 Z" style="fill: rgb(51, 51, 51); white-space: pre;"/>
  <path d="M 525.205 364.095 L 515.173 364.095 L 515.173 377.395 L 525.205 377.395 C 527.108 377.395 528.381 376.935 529.025 376.014 C 529.669 375.094 529.991 373.79 529.991 372.102 L 529.991 368.881 C 529.991 367.47 529.6 366.319 528.818 365.43 C 528.036 364.54 526.832 364.095 525.205 364.095 Z M 515.173 388.485 L 514.713 388.485 L 514.713 363.635 L 525.205 363.635 C 526.985 363.635 528.304 364.133 529.163 365.13 C 530.022 366.128 530.451 367.378 530.451 368.881 L 530.451 372.057 C 530.451 373.468 530.267 374.626 529.899 375.531 C 529.531 376.436 528.795 377.058 527.69 377.395 L 528.197 377.395 C 530.068 377.395 531.464 377.817 532.384 378.66 C 533.305 379.504 533.765 380.724 533.765 382.319 L 533.765 388.485 L 533.305 388.485 L 533.305 382.319 C 533.305 380.816 532.891 379.688 532.062 378.936 C 531.234 378.185 529.945 377.809 528.197 377.809 L 515.173 377.809 L 515.173 388.485 Z" style="fill: rgb(51, 51, 51); white-space: pre;"/>
  <path d="M 563.034 363.635 L 563.034 364.095 L 552.818 364.095 C 551.529 364.095 550.501 364.448 549.734 365.154 C 548.967 365.859 548.584 366.749 548.584 367.823 L 548.584 371.596 C 548.584 372.67 548.799 373.422 549.228 373.851 C 549.658 374.281 550.225 374.557 550.93 374.679 L 560.641 376.659 C 561.561 376.843 562.321 377.242 562.919 377.855 C 563.517 378.469 563.816 379.574 563.816 381.168 L 563.816 383.838 C 563.816 385.188 563.356 386.3 562.435 387.174 C 561.515 388.048 560.273 388.485 558.708 388.485 L 547.249 388.485 L 547.249 388.025 L 558.708 388.025 C 560.12 388.025 561.247 387.634 562.09 386.852 C 562.934 386.07 563.356 385.065 563.356 383.838 L 563.356 381.168 C 563.356 379.727 563.103 378.737 562.596 378.2 C 562.09 377.663 561.408 377.303 560.549 377.119 L 550.838 375.14 C 550.041 374.986 549.389 374.672 548.882 374.196 C 548.377 373.721 548.124 372.854 548.124 371.596 L 548.124 367.823 C 548.124 366.596 548.554 365.591 549.412 364.808 C 550.271 364.026 551.407 363.635 552.818 363.635 L 563.034 363.635 Z" style="fill: rgb(51, 51, 51); white-space: pre;"/>
  <path d="M 589.219 388.485 L 589.219 363.635 L 603.9 363.635 L 603.9 364.095 L 589.679 364.095 L 589.679 377.256 L 600.172 377.256 L 600.172 377.717 L 589.679 377.717 L 589.679 388.485 L 589.219 388.485 Z" style="fill: rgb(51, 51, 51); white-space: pre;"/>
  <path d="M 635.468 382.871 C 635.468 384.712 634.809 386.207 633.489 387.358 C 632.17 388.508 629.716 389.084 626.126 389.084 C 622.537 389.084 620.097 388.508 618.809 387.358 C 617.52 386.207 616.876 384.712 616.876 382.871 L 616.876 369.295 C 616.876 367.455 617.52 365.959 618.809 364.808 C 620.097 363.658 622.537 363.082 626.126 363.082 C 629.716 363.082 632.17 363.658 633.489 364.808 C 634.809 365.959 635.468 367.455 635.468 369.295 L 635.468 382.871 Z M 617.336 382.871 C 617.336 384.589 617.95 385.978 619.177 387.036 C 620.404 388.095 622.721 388.624 626.126 388.624 C 629.532 388.624 631.864 388.095 633.121 387.036 C 634.379 385.978 635.008 384.589 635.008 382.871 L 635.008 369.295 C 635.008 367.577 634.379 366.189 633.121 365.13 C 631.864 364.072 629.532 363.543 626.126 363.543 C 622.721 363.543 620.404 364.072 619.177 365.13 C 617.95 366.189 617.336 367.577 617.336 369.295 L 617.336 382.871 Z" style="fill: rgb(51, 51, 51); white-space: pre;"/>
  <path d="M 661.796 364.095 L 651.764 364.095 L 651.764 377.395 L 661.796 377.395 C 663.699 377.395 664.972 376.935 665.616 376.014 C 666.261 375.094 666.582 373.79 666.582 372.102 L 666.582 368.881 C 666.582 367.47 666.192 366.319 665.409 365.43 C 664.626 364.54 663.422 364.095 661.796 364.095 Z M 651.764 388.485 L 651.304 388.485 L 651.304 363.635 L 661.796 363.635 C 663.576 363.635 664.895 364.133 665.754 365.13 C 666.613 366.128 667.043 367.378 667.043 368.881 L 667.043 372.057 C 667.043 373.468 666.859 374.626 666.49 375.531 C 666.122 376.436 665.386 377.058 664.281 377.395 L 664.787 377.395 C 666.659 377.395 668.055 377.817 668.975 378.66 C 669.896 379.504 670.356 380.724 670.356 382.319 L 670.356 388.485 L 669.896 388.485 L 669.896 382.319 C 669.896 380.816 669.482 379.688 668.653 378.936 C 667.825 378.185 666.537 377.809 664.787 377.809 L 651.764 377.809 L 651.764 388.485 Z" style="fill: rgb(51, 51, 51); white-space: pre;"/>
  <path d="M 711.4 388.025 L 711.4 388.485 L 695.891 388.485 L 695.891 363.635 L 711.4 363.635 L 711.4 364.095 L 696.351 364.095 L 696.351 375.646 L 707.672 375.646 L 707.672 376.106 L 696.351 376.106 L 696.351 388.025 L 711.4 388.025 Z" style="fill: rgb(51, 51, 51); white-space: pre;"/>
  <path d="M 725.623 378.683 L 725.623 380.11 L 743.571 380.11 L 743.571 378.683 C 743.571 377.855 743.502 377.088 743.363 376.382 C 743.226 375.677 743.049 375.017 742.834 374.403 L 739.659 366.902 C 739.322 366.105 738.969 365.437 738.601 364.9 C 738.232 364.363 737.619 364.095 736.76 364.095 L 732.25 364.095 C 731.329 364.095 730.685 364.363 730.317 364.9 C 729.949 365.437 729.612 366.089 729.305 366.856 L 726.359 374.403 C 726.145 375.017 725.969 375.677 725.83 376.382 C 725.692 377.088 725.623 377.855 725.623 378.683 Z M 743.571 388.485 L 743.571 380.57 L 725.623 380.57 L 725.623 388.485 L 725.163 388.485 L 725.163 378.683 C 725.163 377.825 725.232 377.034 725.37 376.313 C 725.508 375.592 725.7 374.894 725.945 374.219 L 728.891 366.672 C 729.228 365.813 729.612 365.092 730.041 364.509 C 730.471 363.926 731.207 363.635 732.25 363.635 L 736.76 363.635 C 737.773 363.635 738.486 363.926 738.9 364.509 C 739.314 365.092 739.705 365.829 740.073 366.718 L 743.249 374.219 C 743.495 374.894 743.686 375.592 743.824 376.313 C 743.962 377.034 744.031 377.825 744.031 378.683 L 744.031 388.485 L 743.571 388.485 Z" style="fill: rgb(51, 51, 51); white-space: pre;"/>
  <path d="M 770.038 364.095 L 760.005 364.095 L 760.005 377.395 L 770.038 377.395 C 771.94 377.395 773.213 376.935 773.857 376.014 C 774.502 375.094 774.824 373.79 774.824 372.102 L 774.824 368.881 C 774.824 367.47 774.432 366.319 773.65 365.43 C 772.868 364.54 771.663 364.095 770.038 364.095 Z M 760.005 388.485 L 759.545 388.485 L 759.545 363.635 L 770.038 363.635 C 771.817 363.635 773.137 364.133 773.995 365.13 C 774.855 366.128 775.284 367.378 775.284 368.881 L 775.284 372.057 C 775.284 373.468 775.1 374.626 774.732 375.531 C 774.363 376.436 773.627 377.058 772.523 377.395 L 773.029 377.395 C 774.9 377.395 776.296 377.817 777.217 378.66 C 778.137 379.504 778.597 380.724 778.597 382.319 L 778.597 388.485 L 778.137 388.485 L 778.137 382.319 C 778.137 380.816 777.723 379.688 776.894 378.936 C 776.066 378.185 774.778 377.809 773.029 377.809 L 760.005 377.809 L 760.005 388.485 Z" style="fill: rgb(51, 51, 51); white-space: pre;"/>
  <path d="M 799.069 388.485 L 799.069 364.095 L 789.635 364.095 L 789.635 363.635 L 808.963 363.635 L 808.963 364.095 L 799.529 364.095 L 799.529 388.485 L 799.069 388.485 Z" style="fill: rgb(51, 51, 51); white-space: pre;"/>
  <path d="M 822.541 388.485 L 822.541 363.635 L 823.001 363.635 L 823.001 375.83 L 840.673 375.83 L 840.673 363.635 L 841.133 363.635 L 841.133 388.485 L 840.673 388.485 L 840.673 376.29 L 823.001 376.29 L 823.001 388.485 L 822.541 388.485 Z" style="fill: rgb(51, 51, 51); white-space: pre;"/>
  <path d="M 857.928 388.485 L 857.928 384.114 L 858.388 384.114 L 858.388 388.485 L 857.928 388.485 Z" style="fill: rgb(51, 51, 51); white-space: pre;"/>
  <path d="M 889.69 388.025 L 889.69 388.485 L 882.005 388.485 C 879.029 388.485 877.058 388.025 876.091 387.105 C 875.125 386.184 874.642 384.666 874.642 382.549 L 874.642 369.664 C 874.642 367.485 875.133 365.936 876.114 365.015 C 877.096 364.095 879.059 363.635 882.005 363.635 L 889.69 363.635 L 889.69 364.095 L 882.005 364.095 C 879.305 364.095 877.479 364.517 876.528 365.36 C 875.577 366.205 875.102 367.639 875.102 369.664 L 875.102 382.549 C 875.102 384.543 875.562 385.955 876.482 386.783 C 877.403 387.611 879.244 388.025 882.005 388.025 L 889.69 388.025 Z" style="fill: rgb(51, 51, 51); white-space: pre;"/>
  <path d="M 921.895 382.871 C 921.895 384.712 921.236 386.207 919.916 387.358 C 918.597 388.508 916.143 389.084 912.553 389.084 C 908.964 389.084 906.525 388.508 905.236 387.358 C 903.948 386.207 903.303 384.712 903.303 382.871 L 903.303 369.295 C 903.303 367.455 903.948 365.959 905.236 364.808 C 906.525 363.658 908.964 363.082 912.553 363.082 C 916.143 363.082 918.597 363.658 919.916 364.808 C 921.236 365.959 921.895 367.455 921.895 369.295 L 921.895 382.871 Z M 903.763 382.871 C 903.763 384.589 904.377 385.978 905.604 387.036 C 906.832 388.095 909.148 388.624 912.553 388.624 C 915.959 388.624 918.29 388.095 919.548 387.036 C 920.806 385.978 921.435 384.589 921.435 382.871 L 921.435 369.295 C 921.435 367.577 920.806 366.189 919.548 365.13 C 918.29 364.072 915.959 363.543 912.553 363.543 C 909.148 363.543 906.832 364.072 905.604 365.13 C 904.377 366.189 903.763 367.577 903.763 369.295 L 903.763 382.871 Z" style="fill: rgb(51, 51, 51); white-space: pre;"/>
  <path d="M 948.959 374.91 C 949.512 374.91 949.911 374.787 950.156 374.542 C 950.402 374.296 950.785 373.775 951.307 372.977 L 956.921 364.417 C 957.105 364.111 957.312 363.904 957.542 363.795 C 957.773 363.689 958.01 363.635 958.255 363.635 L 959.038 363.635 C 959.468 363.635 959.782 363.75 959.982 363.98 C 960.181 364.21 960.28 364.571 960.28 365.062 L 960.28 388.485 L 959.82 388.485 L 959.82 365.062 C 959.82 364.816 959.767 364.594 959.659 364.394 C 959.552 364.195 959.345 364.095 959.038 364.095 L 958.347 364.095 C 958.133 364.095 957.949 364.126 957.795 364.187 C 957.642 364.249 957.473 364.433 957.289 364.739 L 951.675 373.207 C 951.123 374.036 950.701 374.603 950.41 374.91 C 950.118 375.217 949.635 375.37 948.959 375.37 C 948.285 375.37 947.802 375.217 947.51 374.91 C 947.219 374.603 946.797 374.036 946.245 373.207 L 940.63 364.739 C 940.446 364.433 940.27 364.249 940.101 364.187 C 939.932 364.126 939.741 364.095 939.526 364.095 L 938.835 364.095 C 938.529 364.095 938.329 364.195 938.237 364.394 C 938.145 364.594 938.099 364.816 938.099 365.062 L 938.099 388.485 L 937.639 388.485 L 937.639 365.062 C 937.639 364.571 937.738 364.21 937.938 363.98 C 938.137 363.75 938.437 363.635 938.835 363.635 L 939.618 363.635 C 939.864 363.635 940.109 363.689 940.354 363.795 C 940.6 363.904 940.814 364.111 940.998 364.417 L 946.613 372.977 C 947.134 373.775 947.518 374.296 947.763 374.542 C 948.009 374.787 948.407 374.91 948.959 374.91 Z" style="fill: rgb(51, 51, 51); white-space: pre;"/>
</svg>