<?xml version="1.0" encoding="utf-8"?>
<svg viewBox="200 200 16 16" style="enable-background:new 0 0 1000 1000;" xmlns="http://www.w3.org/2000/svg">
  <defs>
    <style type="text/css">
	.st0{opacity:0.7;fill:#FFFFFF;}
	.st1{fill:#413D51;}
	.st2{fill:#8FE3F9;}
	.st3{fill:#B2EBF9;}
	.st4{fill:#A4E0EA;}
	.st5{fill:#7AD1E5;}
	.st6{fill:none;stroke:#413D51;stroke-width:16;stroke-linecap:round;stroke-linejoin:round;stroke-miterlimit:10;}
	.st7{fill:#F7E8AD;}
	.st8{fill:#F7D6A1;}
	.st9{fill:#EFCA92;}
	.st10{fill:#FFFFFF;}
	.st11{opacity:0.89;fill:#EFCA92;}
	.st12{fill:none;stroke:#413D51;stroke-width:8;stroke-linecap:round;stroke-linejoin:round;stroke-miterlimit:10;}
	.st13{opacity:0.31;fill:none;stroke:#72C8D6;stroke-width:8;stroke-linecap:round;stroke-linejoin:round;stroke-miterlimit:10;}
</style>
  </defs>
  <g transform="matrix(0.030329, 0, 0, 0.030329, 192.865829, 192.835495)" style="">
    <ellipse id="XMLID_2_" class="st2" cx="501.8" cy="487.5" rx="228" ry="205.8" style="stroke: rgb(0, 0, 0); fill: rgb(255, 255, 255);"/>
    <ellipse id="XMLID_188_" class="st2" cx="501.8" cy="487.5" rx="228" ry="205.8" style="stroke: rgb(0, 0, 0); fill: rgb(255, 255, 255);"/>
    <path id="XMLID_193_" class="st3" d="M507.8,689.3c52.1,0,100.1-15.3,138.5-41l-10.5-24.7c-22-51.9-74.2-85.8-132.1-85.8l0,0 c-57.9,0-110.1,33.9-132.1,85.8l-8.6,20.4C402.3,672.3,452.8,689.3,507.8,689.3z" style="stroke: rgb(0, 0, 0); fill: rgb(255, 255, 255);"/>
    <path id="XMLID_189_" class="st4" d="M501.7,470.3l-43.6,64l32.9,43.8c5.4,7.2,16.3,7.2,21.7,0l32.6-43.8L501.7,470.3z" style="stroke: rgb(0, 0, 0); fill: rgb(255, 255, 255);"/>
    <path id="XMLID_192_" class="st5" d="M501.8,669.3c-121.5,0-220.7-85.7-227.6-193.8c-0.3,4-0.4,8-0.4,12 c0,113.6,102.1,205.8,228,205.8s228-92.1,228-205.8c0-4-0.1-8-0.4-12C722.5,583.6,623.2,669.3,501.8,669.3z" style="stroke: rgb(0, 0, 0); fill: rgb(255, 255, 255);"/>
    <path id="XMLID_76_" class="st4" d="M638.6,628.1c-38.1,25.8-85.5,41.2-136.8,41.2c-50,0-96.2-14.5-133.7-39.1l-5,12.3 c39.4,29.2,89.8,46.8,144.8,46.8c49.7,0,95.7-14.4,133.2-38.8c1.8-1.2,3.5-2.5,5.3-3.8L638.6,628.1z" style="stroke: rgb(0, 0, 0); fill: rgb(255, 255, 255);"/>
    <path id="XMLID_186_" class="st5" d="M268.2,488.2c6.4,13.1,15,25.3,25.8,36.2c52.3,52.3,137.2,52.3,189.5,0 c43.8-43.8,50.9-110.3,21.5-161.5" style="stroke: rgb(0, 0, 0); fill: rgb(255, 255, 255);"/>
    <path id="XMLID_185_" class="st5" d="M729,503.8c-24,36.1-65,59.8-111.6,59.8c-74,0-134-60-134-134c0-33,11.9-63.2,31.7-86.6" style="stroke: rgb(0, 0, 0); fill: rgb(255, 255, 255);"/>
    <ellipse id="XMLID_75_" class="st6" cx="501.8" cy="487.5" rx="228" ry="205.8" style="stroke: rgb(0, 0, 0); fill: rgb(255, 255, 255);"/>
    <polygon id="XMLID_74_" class="st1" points="501.7,442.3 458.1,506.3 501.9,564.6 545.4,506.3 &#9;" style="stroke: rgb(0, 0, 0); fill: rgb(255, 255, 255);"/>
    <polygon id="XMLID_73_" class="st6" points="501.7,442.3 458.1,506.3 501.9,564.6 545.4,506.3 &#9;" style="stroke: rgb(0, 0, 0); fill: rgb(255, 255, 255);"/>
    <path id="XMLID_72_" class="st1" d="M600.7,303.9c-30-14-64.1-21.9-100-21.9s-70,7.9-100,21.9v140.1h200V303.9z" style="stroke: rgb(0, 0, 0); fill: rgb(0, 0, 0);"/>
    <g id="XMLID_58_">
      <path id="XMLID_71_" class="st1" d="M613.5,317.9l108.7-3.3c-15.7,39.3-17.8,98.4-4.1,163c-17.4,36.8-54.4,62.9-97.9,64.2l0,0 c-61.8,1.9-113.5-46.7-115.3-108.6l0,0C503,371.4,551.6,319.8,613.5,317.9z" style="stroke: rgb(0, 0, 0); fill: rgb(255, 255, 255);"/>
      <path id="XMLID_70_" class="st6" d="M613.5,317.9l108.7-3.3c-15.7,39.3-17.8,98.4-4.1,163c-17.4,36.8-54.4,62.9-97.9,64.2l0,0 c-61.8,1.9-113.5-46.7-115.3-108.6l0,0C503,371.4,551.6,319.8,613.5,317.9z" style="stroke: rgb(0, 0, 0); fill: rgb(255, 255, 255);"/>
      <circle id="XMLID_69_" class="st7" cx="617.4" cy="429.7" r="112" style="stroke: rgb(0, 0, 0); fill: rgb(255, 255, 255);"/>
      <circle id="XMLID_5_" class="st7" cx="617.4" cy="429.7" r="112" style="stroke: rgb(0, 0, 0); fill: rgb(255, 255, 255);"/>
      <path id="XMLID_86_" class="st8" d="M696.6,350.5c-21.5-21.5-49.7-32.4-77.9-32.8c21.2,4.1,41.5,14.3,57.9,30.8 c43.7,43.7,43.7,114.6,0,158.4c-22.2,22.2-51.4,33.1-80.4,32.8c35.3,6.8,73.1-3.5,100.4-30.8C740.3,465.1,740.3,394.2,696.6,350.5 z" style="stroke: rgb(0, 0, 0); fill: rgb(255, 255, 255);"/>
      <ellipse id="XMLID_3_" transform="matrix(0.7071 -0.7071 0.7071 0.7071 -130.8246 543.5441)" class="st0" cx="590.7" cy="429.7" rx="84" ry="84.6" style="stroke: rgb(0, 0, 0);"/>
      <path id="XMLID_12_" class="st9" d="M711.4,376.6c-3.1-4-9.1-15-12.8-18.7c-44-43.4-114.9-43-158.3,1.1 c-8.6,8.7-15.5,18.5-20.6,29C581.4,366.3,649,371.5,711.4,376.6z" style="stroke: rgb(0, 0, 0); fill: rgb(255, 255, 255);"/>
      <circle id="XMLID_68_" class="st6" cx="617.4" cy="429.7" r="112" style="stroke: rgb(0, 0, 0); fill: rgb(255, 255, 255);"/>
      <circle id="XMLID_67_" class="st6" cx="617.4" cy="429.7" r="112" style="stroke: rgb(0, 0, 0); fill: rgb(255, 255, 255);"/>
      <path id="XMLID_66_" class="st1" d="M706.7,362.1c-3.1-4-6.4-7.9-10.1-11.6c-43.7-43.7-114.6-43.7-158.4,0 c-8.7,8.7-15.6,18.4-20.8,28.8C579.4,358.1,644.3,356.5,706.7,362.1z" style="stroke: rgb(0, 0, 0); fill: rgb(0, 0, 0);"/>
      <circle id="XMLID_57_" class="st1" cx="562.9" cy="438.1" r="42" style="stroke: rgb(0, 0, 0); fill: rgb(0, 0, 0);"/>
      <circle id="XMLID_56_" class="st10" cx="539.1" cy="438.4" r="14" style="stroke: rgb(0, 0, 0);"/>
    </g>
    <g id="XMLID_26_">
      <path id="XMLID_89_" class="st1" d="M388.8,317.9L280,314.6c15.7,39.3,17.8,98.4,4.1,163c17.4,36.8,54.4,62.9,97.9,64.2l0,0 c61.8,1.9,113.5-46.7,115.3-108.6l0,0C499.2,371.4,450.6,319.8,388.8,317.9z" style="stroke: rgb(0, 0, 0); fill: rgb(255, 255, 255);"/>
      <path id="XMLID_88_" class="st6" d="M388.8,317.9L280,314.6c15.7,39.3,17.8,98.4,4.1,163c17.4,36.8,54.4,62.9,97.9,64.2l0,0 c61.8,1.9,113.5-46.7,115.3-108.6l0,0C499.2,371.4,450.6,319.8,388.8,317.9z" style="stroke: rgb(0, 0, 0); fill: rgb(255, 255, 255);"/>
      <circle id="XMLID_87_" class="st7" cx="384.8" cy="429.7" r="112" style="stroke: rgb(0, 0, 0); fill: rgb(255, 255, 255);"/>
      <circle id="XMLID_84_" class="st7" cx="384.8" cy="429.7" r="112" style="stroke: rgb(0, 0, 0); fill: rgb(255, 255, 255);"/>
      <path id="XMLID_65_" class="st8" d="M305.6,350.5c21.5-21.5,49.7-32.4,77.9-32.8c-21.2,4.1-41.5,14.3-57.9,30.8 c-43.7,43.7-43.7,114.6,0,158.4c22.2,22.2,51.4,33.1,80.4,32.8c-35.3,6.8-73.1-3.5-100.4-30.8 C261.9,465.1,261.9,394.2,305.6,350.5z" style="stroke: rgb(0, 0, 0); fill: rgb(255, 255, 255);"/>
      <ellipse id="XMLID_64_" transform="matrix(0.7071 -0.7071 0.7071 0.7071 -183.3021 416.8521)" class="st0" cx="411.5" cy="429.7" rx="84.6" ry="84" style="stroke: rgb(0, 0, 0);"/>
      <path id="XMLID_63_" class="st11" d="M290.9,376.6c3.1-4,9.1-15,12.8-18.7c44-43.4,114.9-43,158.3,1.1c8.6,8.7,15.5,18.5,20.6,29 C420.8,366.3,353.2,371.5,290.9,376.6z" style="stroke: rgb(0, 0, 0); fill: rgb(255, 255, 255);"/>
      <circle id="XMLID_62_" class="st6" cx="384.8" cy="429.7" r="112" style="stroke: rgb(0, 0, 0); fill: rgb(255, 255, 255);"/>
      <circle id="XMLID_61_" class="st6" cx="384.8" cy="429.7" r="112" style="stroke: rgb(0, 0, 0); fill: rgb(255, 255, 255);"/>
      <path id="XMLID_60_" class="st1" d="M295.6,362.1c3.1-4,6.4-7.9,10.1-11.6c43.7-43.7,114.6-43.7,158.4,0 c8.7,8.7,15.6,18.4,20.8,28.8C422.9,358.1,357.9,356.5,295.6,362.1z" style="stroke: rgb(0, 0, 0); fill: rgb(0, 0, 0);"/>
      <circle id="XMLID_59_" class="st1" cx="439.4" cy="438.1" r="42" style="stroke: rgb(0, 0, 0); fill: rgb(0, 0, 0);"/>
      <circle id="XMLID_37_" class="st10" cx="463.2" cy="438.4" r="14" style="stroke: rgb(0, 0, 0);"/>
    </g>
    <path id="XMLID_19_" class="st1" d="M447.9,718.3L447.9,718.3c-8.8,0-16-7.2-16-16v-18c0-8.8,7.2-16,16-16h0c8.8,0,16,7.2,16,16v18 C463.9,711.1,456.8,718.3,447.9,718.3z" style="stroke: rgb(0, 0, 0); fill: rgb(0, 0, 0);"/>
    <path id="XMLID_17_" class="st1" d="M415.9,718.3L415.9,718.3c-8.8,0-16-7.2-16-16v-18c0-8.8,7.2-16,16-16h0c8.8,0,16,7.2,16,16v18 C431.9,711.1,424.8,718.3,415.9,718.3z" style="stroke: rgb(0, 0, 0); fill: rgb(0, 0, 0);"/>
    <path id="XMLID_16_" class="st1" d="M479.7,718.3L479.7,718.3c-8.8,0-16-7.2-16-16v-18c0-8.8,7.2-16,16-16h0c8.8,0,16,7.2,16,16v18 C495.7,711.1,488.5,718.3,479.7,718.3z" style="stroke: rgb(0, 0, 0); fill: rgb(0, 0, 0);"/>
    <path id="XMLID_15_" class="st1" d="M521.9,718.3L521.9,718.3c-8.8,0-16-7.2-16-16v-18c0-8.8,7.2-16,16-16h0c8.8,0,16,7.2,16,16v18 C537.9,711.1,530.7,718.3,521.9,718.3z" style="stroke: rgb(0, 0, 0); fill: rgb(0, 0, 0);"/>
    <path id="XMLID_14_" class="st1" d="M553.7,718.3L553.7,718.3c-8.8,0-16-7.2-16-16v-18c0-8.8,7.2-16,16-16h0c8.8,0,16,7.2,16,16v18 C569.7,711.1,562.5,718.3,553.7,718.3z" style="stroke: rgb(0, 0, 0); fill: rgb(0, 0, 0);"/>
    <path id="XMLID_13_" class="st1" d="M585.7,718.3L585.7,718.3c-8.8,0-16-7.2-16-16v-18c0-8.8,7.2-16,16-16h0c8.8,0,16,7.2,16,16v18 C601.7,711.1,594.5,718.3,585.7,718.3z" style="stroke: rgb(0, 0, 0); fill: rgb(0, 0, 0);"/>
  </g>
  <path id="XMLID_11_" class="st12" d="M 207.781 210.784 C 207.781 211.012 207.597 211.197 207.369 211.197 C 207.14 211.197 206.955 211.012 206.955 210.784" style="stroke: rgb(0, 0, 0); stroke-width: 0.2px;"/>
  <path id="XMLID_9_" class="st12" d="M 209.044 210.784 C 209.044 211.012 208.858 211.197 208.63 211.197 C 208.402 211.197 208.218 211.012 208.218 210.784" style="stroke: rgb(0, 0, 0); stroke-width: 0.2px;"/>
  <path id="XMLID_8_" class="st12" d="M 207.151 211.774 C 207.151 212.003 206.967 212.187 206.739 212.187 C 206.51 212.187 206.326 212.003 206.326 211.774" style="stroke: rgb(0, 0, 0); stroke-width: 0.2px;"/>
  <path id="XMLID_7_" class="st12" d="M 208.414 211.774 C 208.414 212.003 208.229 212.187 208.001 212.187 C 207.772 212.187 207.588 212.003 207.588 211.774" style="stroke: rgb(0, 0, 0); stroke-width: 0.2px;"/>
  <path id="XMLID_6_" class="st12" d="M 209.675 211.774 C 209.675 212.003 209.491 212.187 209.262 212.187 C 209.035 212.187 208.851 212.003 208.851 211.774" style="stroke: rgb(0, 0, 0); stroke-width: 0.2px;"/>
</svg>