<?xml version="1.0" encoding="utf-8"?>
<svg viewBox="0 0 1920 600" style="enable-background:new 0 0 1000 1000;" xmlns="http://www.w3.org/2000/svg">
  <defs>
    <style type="text/css">
	.st0{opacity:0.7;fill:#FFFFFF;}
	.st1{fill:#413D51;}
	.st2{fill:#8FE3F9;}
	.st3{fill:#B2EBF9;}
	.st4{fill:#A4E0EA;}
	.st5{fill:#7AD1E5;}
	.st6{fill:none;stroke:#413D51;stroke-width:16;stroke-linecap:round;stroke-linejoin:round;stroke-miterlimit:10;}
	.st7{fill:#F7E8AD;}
	.st8{fill:#F7D6A1;}
	.st9{fill:#EFCA92;}
	.st10{fill:#FFFFFF;}
	.st11{opacity:0.89;fill:#EFCA92;}
	.st12{fill:none;stroke:#413D51;stroke-width:8;stroke-linecap:round;stroke-linejoin:round;stroke-miterlimit:10;}
	.st13{opacity:0.31;fill:none;stroke:#72C8D6;stroke-width:8;stroke-linecap:round;stroke-linejoin:round;stroke-miterlimit:10;}
</style>
  </defs>
  <rect class="st0" width="1920" height="600" style="opacity: 1;"/>
  <g transform="matrix(1, 0, 0, 1, 459.968384, -234.044708)">
    <ellipse id="XMLID_2_" class="st2" cx="501.8" cy="487.5" rx="228" ry="205.8"/>
    <ellipse id="XMLID_188_" class="st2" cx="501.8" cy="487.5" rx="228" ry="205.8"/>
    <path id="XMLID_193_" class="st3" d="M507.8,689.3c52.1,0,100.1-15.3,138.5-41l-10.5-24.7c-22-51.9-74.2-85.8-132.1-85.8l0,0 c-57.9,0-110.1,33.9-132.1,85.8l-8.6,20.4C402.3,672.3,452.8,689.3,507.8,689.3z"/>
    <path id="XMLID_189_" class="st4" d="M501.7,470.3l-43.6,64l32.9,43.8c5.4,7.2,16.3,7.2,21.7,0l32.6-43.8L501.7,470.3z"/>
    <path id="XMLID_192_" class="st5" d="M501.8,669.3c-121.5,0-220.7-85.7-227.6-193.8c-0.3,4-0.4,8-0.4,12 c0,113.6,102.1,205.8,228,205.8s228-92.1,228-205.8c0-4-0.1-8-0.4-12C722.5,583.6,623.2,669.3,501.8,669.3z"/>
    <path id="XMLID_76_" class="st4" d="M638.6,628.1c-38.1,25.8-85.5,41.2-136.8,41.2c-50,0-96.2-14.5-133.7-39.1l-5,12.3 c39.4,29.2,89.8,46.8,144.8,46.8c49.7,0,95.7-14.4,133.2-38.8c1.8-1.2,3.5-2.5,5.3-3.8L638.6,628.1z"/>
    <path id="XMLID_186_" class="st5" d="M268.2,488.2c6.4,13.1,15,25.3,25.8,36.2c52.3,52.3,137.2,52.3,189.5,0 c43.8-43.8,50.9-110.3,21.5-161.5"/>
    <path id="XMLID_185_" class="st5" d="M729,503.8c-24,36.1-65,59.8-111.6,59.8c-74,0-134-60-134-134c0-33,11.9-63.2,31.7-86.6"/>
    <ellipse id="XMLID_75_" class="st6" cx="501.8" cy="487.5" rx="228" ry="205.8"/>
    <polygon id="XMLID_74_" class="st1" points="501.7,442.3 458.1,506.3 501.9,564.6 545.4,506.3 &#9;"/>
    <polygon id="XMLID_73_" class="st6" points="501.7,442.3 458.1,506.3 501.9,564.6 545.4,506.3 &#9;"/>
    <path id="XMLID_72_" class="st1" d="M600.7,303.9c-30-14-64.1-21.9-100-21.9s-70,7.9-100,21.9v140.1h200V303.9z"/>
    <g id="XMLID_58_">
      <path id="XMLID_71_" class="st1" d="M613.5,317.9l108.7-3.3c-15.7,39.3-17.8,98.4-4.1,163c-17.4,36.8-54.4,62.9-97.9,64.2l0,0 c-61.8,1.9-113.5-46.7-115.3-108.6l0,0C503,371.4,551.6,319.8,613.5,317.9z"/>
      <path id="XMLID_70_" class="st6" d="M613.5,317.9l108.7-3.3c-15.7,39.3-17.8,98.4-4.1,163c-17.4,36.8-54.4,62.9-97.9,64.2l0,0 c-61.8,1.9-113.5-46.7-115.3-108.6l0,0C503,371.4,551.6,319.8,613.5,317.9z"/>
      <circle id="XMLID_69_" class="st7" cx="617.4" cy="429.7" r="112"/>
      <circle id="XMLID_5_" class="st7" cx="617.4" cy="429.7" r="112"/>
      <path id="XMLID_86_" class="st8" d="M696.6,350.5c-21.5-21.5-49.7-32.4-77.9-32.8c21.2,4.1,41.5,14.3,57.9,30.8 c43.7,43.7,43.7,114.6,0,158.4c-22.2,22.2-51.4,33.1-80.4,32.8c35.3,6.8,73.1-3.5,100.4-30.8C740.3,465.1,740.3,394.2,696.6,350.5 z"/>
      <ellipse id="XMLID_3_" transform="matrix(0.7071 -0.7071 0.7071 0.7071 -130.8246 543.5441)" class="st0" cx="590.7" cy="429.7" rx="84" ry="84.6"/>
      <path id="XMLID_12_" class="st9" d="M711.4,376.6c-3.1-4-9.1-15-12.8-18.7c-44-43.4-114.9-43-158.3,1.1 c-8.6,8.7-15.5,18.5-20.6,29C581.4,366.3,649,371.5,711.4,376.6z"/>
      <circle id="XMLID_68_" class="st6" cx="617.4" cy="429.7" r="112"/>
      <circle id="XMLID_67_" class="st6" cx="617.4" cy="429.7" r="112"/>
      <path id="XMLID_66_" class="st1" d="M706.7,362.1c-3.1-4-6.4-7.9-10.1-11.6c-43.7-43.7-114.6-43.7-158.4,0 c-8.7,8.7-15.6,18.4-20.8,28.8C579.4,358.1,644.3,356.5,706.7,362.1z"/>
      <circle id="XMLID_57_" class="st1" cx="562.9" cy="438.1" r="42"/>
      <circle id="XMLID_56_" class="st10" cx="539.1" cy="438.4" r="14"/>
    </g>
    <g id="XMLID_26_">
      <path id="XMLID_89_" class="st1" d="M388.8,317.9L280,314.6c15.7,39.3,17.8,98.4,4.1,163c17.4,36.8,54.4,62.9,97.9,64.2l0,0 c61.8,1.9,113.5-46.7,115.3-108.6l0,0C499.2,371.4,450.6,319.8,388.8,317.9z"/>
      <path id="XMLID_88_" class="st6" d="M388.8,317.9L280,314.6c15.7,39.3,17.8,98.4,4.1,163c17.4,36.8,54.4,62.9,97.9,64.2l0,0 c61.8,1.9,113.5-46.7,115.3-108.6l0,0C499.2,371.4,450.6,319.8,388.8,317.9z"/>
      <circle id="XMLID_87_" class="st7" cx="384.8" cy="429.7" r="112"/>
      <circle id="XMLID_84_" class="st7" cx="384.8" cy="429.7" r="112"/>
      <path id="XMLID_65_" class="st8" d="M305.6,350.5c21.5-21.5,49.7-32.4,77.9-32.8c-21.2,4.1-41.5,14.3-57.9,30.8 c-43.7,43.7-43.7,114.6,0,158.4c22.2,22.2,51.4,33.1,80.4,32.8c-35.3,6.8-73.1-3.5-100.4-30.8 C261.9,465.1,261.9,394.2,305.6,350.5z"/>
      <ellipse id="XMLID_64_" transform="matrix(0.7071 -0.7071 0.7071 0.7071 -183.3021 416.8521)" class="st0" cx="411.5" cy="429.7" rx="84.6" ry="84"/>
      <path id="XMLID_63_" class="st11" d="M290.9,376.6c3.1-4,9.1-15,12.8-18.7c44-43.4,114.9-43,158.3,1.1c8.6,8.7,15.5,18.5,20.6,29 C420.8,366.3,353.2,371.5,290.9,376.6z"/>
      <circle id="XMLID_62_" class="st6" cx="384.8" cy="429.7" r="112"/>
      <circle id="XMLID_61_" class="st6" cx="384.8" cy="429.7" r="112"/>
      <path id="XMLID_60_" class="st1" d="M295.6,362.1c3.1-4,6.4-7.9,10.1-11.6c43.7-43.7,114.6-43.7,158.4,0 c8.7,8.7,15.6,18.4,20.8,28.8C422.9,358.1,357.9,356.5,295.6,362.1z"/>
      <circle id="XMLID_59_" class="st1" cx="439.4" cy="438.1" r="42"/>
      <circle id="XMLID_37_" class="st10" cx="463.2" cy="438.4" r="14"/>
    </g>
    <path id="XMLID_19_" class="st1" d="M447.9,718.3L447.9,718.3c-8.8,0-16-7.2-16-16v-18c0-8.8,7.2-16,16-16h0c8.8,0,16,7.2,16,16v18 C463.9,711.1,456.8,718.3,447.9,718.3z"/>
    <path id="XMLID_17_" class="st1" d="M415.9,718.3L415.9,718.3c-8.8,0-16-7.2-16-16v-18c0-8.8,7.2-16,16-16h0c8.8,0,16,7.2,16,16v18 C431.9,711.1,424.8,718.3,415.9,718.3z"/>
    <path id="XMLID_16_" class="st1" d="M479.7,718.3L479.7,718.3c-8.8,0-16-7.2-16-16v-18c0-8.8,7.2-16,16-16h0c8.8,0,16,7.2,16,16v18 C495.7,711.1,488.5,718.3,479.7,718.3z"/>
    <path id="XMLID_15_" class="st1" d="M521.9,718.3L521.9,718.3c-8.8,0-16-7.2-16-16v-18c0-8.8,7.2-16,16-16h0c8.8,0,16,7.2,16,16v18 C537.9,711.1,530.7,718.3,521.9,718.3z"/>
    <path id="XMLID_14_" class="st1" d="M553.7,718.3L553.7,718.3c-8.8,0-16-7.2-16-16v-18c0-8.8,7.2-16,16-16h0c8.8,0,16,7.2,16,16v18 C569.7,711.1,562.5,718.3,553.7,718.3z"/>
    <path id="XMLID_13_" class="st1" d="M585.7,718.3L585.7,718.3c-8.8,0-16-7.2-16-16v-18c0-8.8,7.2-16,16-16h0c8.8,0,16,7.2,16,16v18 C601.7,711.1,594.5,718.3,585.7,718.3z"/>
    <path id="XMLID_11_" class="st12" d="M491.9,587.6c0,8.4-6.8,15.2-15.2,15.2c-8.4,0-15.2-6.8-15.2-15.2"/>
    <path id="XMLID_9_" class="st12" d="M538.4,587.6c0,8.4-6.8,15.2-15.2,15.2c-8.4,0-15.2-6.8-15.2-15.2"/>
    <path id="XMLID_10_" class="st13" d="M323,548.8c-2.2,4.7-7.7,6.8-12.5,4.6s-6.8-7.7-4.6-12.5"/>
    <path id="XMLID_1_" class="st13" d="M352.8,564.3c-2.2,4.7-7.7,6.8-12.5,4.6c-4.7-2.2-6.8-7.7-4.6-12.5"/>
    <path id="XMLID_78_" class="st13" d="M335.5,576.2c-2.2,4.7-7.7,6.8-12.5,4.6c-4.7-2.2-6.8-7.7-4.6-12.5"/>
    <path id="XMLID_77_" class="st13" d="M361.7,596.1c-2.2,4.7-7.7,6.8-12.5,4.6c-4.7-2.2-6.8-7.7-4.6-12.5"/>
    <path id="XMLID_79_" class="st13" d="M381.7,578.1c-2.2,4.7-7.7,6.8-12.5,4.6c-4.7-2.2-6.8-7.7-4.6-12.5"/>
    <path id="XMLID_85_" class="st13" d="M683.7,550.8c2.2,4.7,7.7,6.8,12.5,4.6s6.8-7.7,4.6-12.5"/>
    <path id="XMLID_83_" class="st13" d="M654,566.3c2.2,4.7,7.7,6.8,12.5,4.6c4.7-2.2,6.8-7.7,4.6-12.5"/>
    <path id="XMLID_82_" class="st13" d="M671.2,578.2c2.2,4.7,7.7,6.8,12.5,4.6c4.7-2.2,6.8-7.7,4.6-12.5"/>
    <path id="XMLID_81_" class="st13" d="M645.1,598.1c2.2,4.7,7.7,6.8,12.5,4.6c4.7-2.2,6.8-7.7,4.6-12.5"/>
    <path id="XMLID_80_" class="st13" d="M625.1,580.1c2.2,4.7,7.7,6.8,12.5,4.6c4.7-2.2,6.8-7.7,4.6-12.5"/>
    <path id="XMLID_8_" class="st12" d="M468.7,624.1c0,8.4-6.8,15.2-15.2,15.2c-8.4,0-15.2-6.8-15.2-15.2"/>
    <path id="XMLID_7_" class="st12" d="M515.2,624.1c0,8.4-6.8,15.2-15.2,15.2s-15.2-6.8-15.2-15.2"/>
    <path id="XMLID_6_" class="st12" d="M561.7,624.1c0,8.4-6.8,15.2-15.2,15.2c-8.4,0-15.2-6.8-15.2-15.2"/>
  </g>
  <path d="M 622.903 547.665 L 609.553 547.665 Q 607.862 547.665 607.106 546.908 Q 606.349 546.152 606.349 544.461 L 606.349 486.789 Q 606.349 485.098 607.106 484.341 Q 607.862 483.585 609.553 483.585 L 618.809 483.585 Q 620.5 483.585 621.702 484.119 Q 622.903 484.653 624.06 485.988 L 641.326 505.746 L 641.326 486.789 Q 641.326 485.098 642.083 484.341 Q 642.839 483.585 644.53 483.585 L 657.88 483.585 Q 659.571 483.585 660.328 484.341 Q 661.084 485.098 661.084 486.789 L 661.084 544.461 Q 661.084 546.152 660.328 546.908 Q 659.571 547.665 657.88 547.665 L 644.53 547.665 Q 642.839 547.665 642.083 546.908 Q 641.326 546.152 641.326 544.461 L 641.326 533.514 L 626.107 515.091 L 626.107 544.461 Q 626.107 546.152 625.351 546.908 Q 624.594 547.665 622.903 547.665 Z" style="fill: rgb(65, 61, 81); white-space: pre;"/>
  <path d="M 703.091 547.665 L 674.967 547.665 Q 673.276 547.665 672.519 546.908 Q 671.763 546.152 671.763 544.461 L 671.763 534.048 Q 671.763 532.357 672.519 531.6 Q 673.276 530.844 674.967 530.844 L 698.908 530.844 Q 700.065 530.844 700.643 530.087 Q 701.222 529.331 701.222 528.263 Q 701.222 526.75 700.643 526.038 Q 700.065 525.326 698.908 525.237 L 685.558 523.368 Q 679.328 522.478 675.545 519.274 Q 671.763 516.07 671.763 508.594 L 671.763 499.249 Q 671.763 491.684 676.658 487.634 Q 681.553 483.585 690.186 483.585 L 715.106 483.585 Q 716.797 483.585 717.553 484.341 Q 718.31 485.098 718.31 486.789 L 718.31 497.38 Q 718.31 499.071 717.553 499.827 Q 716.797 500.584 715.106 500.584 L 694.369 500.584 Q 693.212 500.584 692.589 501.34 Q 691.966 502.097 691.966 503.254 Q 691.966 504.411 692.589 505.212 Q 693.212 506.013 694.369 506.102 L 707.63 507.882 Q 713.86 508.772 717.687 511.976 Q 721.514 515.18 721.514 522.656 L 721.514 532.001 Q 721.514 539.566 716.574 543.615 Q 711.635 547.665 703.091 547.665 Z" style="fill: rgb(65, 61, 81); white-space: pre;"/>
  <path d="M 785.765 530.844 Q 785.765 534.938 784.564 538.275 Q 783.362 541.613 780.292 543.971 Q 777.221 546.33 771.881 547.665 Q 766.541 549 758.264 549 Q 749.987 549 744.647 547.665 Q 739.307 546.33 736.237 543.971 Q 733.166 541.613 731.965 538.275 Q 730.763 534.938 730.763 530.844 L 730.763 486.789 Q 730.763 485.098 731.52 484.341 Q 732.276 483.585 733.967 483.585 L 747.94 483.585 Q 749.631 483.585 750.388 484.341 Q 751.144 485.098 751.144 486.789 L 751.144 527.373 Q 751.144 529.153 752.479 530.354 Q 753.814 531.556 758.442 531.556 Q 763.159 531.556 764.494 530.354 Q 765.829 529.153 765.829 527.373 L 765.829 486.789 Q 765.829 485.098 766.586 484.341 Q 767.342 483.585 769.033 483.585 L 782.561 483.585 Q 784.252 483.585 785.009 484.341 Q 785.765 485.098 785.765 486.789 Z" style="fill: rgb(65, 61, 81); white-space: pre;"/>
  <path d="M 827.325 547.665 L 799.201 547.665 Q 797.51 547.665 796.754 546.908 Q 795.997 546.152 795.997 544.461 L 795.997 534.048 Q 795.997 532.357 796.754 531.6 Q 797.51 530.844 799.201 530.844 L 823.142 530.844 Q 824.299 530.844 824.878 530.087 Q 825.456 529.331 825.456 528.263 Q 825.456 526.75 824.878 526.038 Q 824.299 525.326 823.142 525.237 L 809.792 523.368 Q 803.562 522.478 799.78 519.274 Q 795.997 516.07 795.997 508.594 L 795.997 499.249 Q 795.997 491.684 800.892 487.634 Q 805.787 483.585 814.42 483.585 L 839.34 483.585 Q 841.031 483.585 841.788 484.341 Q 842.544 485.098 842.544 486.789 L 842.544 497.38 Q 842.544 499.071 841.788 499.827 Q 841.031 500.584 839.34 500.584 L 818.603 500.584 Q 817.446 500.584 816.823 501.34 Q 816.2 502.097 816.2 503.254 Q 816.2 504.411 816.823 505.212 Q 817.446 506.013 818.603 506.102 L 831.864 507.882 Q 838.094 508.772 841.921 511.976 Q 845.748 515.18 845.748 522.656 L 845.748 532.001 Q 845.748 539.566 840.809 543.615 Q 835.869 547.665 827.325 547.665 Z" style="fill: rgb(65, 61, 81); white-space: pre;"/>
  <path d="M 884.828 547.665 L 870.41 547.665 Q 868.719 547.665 867.962 546.908 Q 867.206 546.152 867.206 544.461 L 867.206 500.762 L 854.123 500.762 Q 852.432 500.762 851.675 500.005 Q 850.919 499.249 850.919 497.558 L 850.919 486.789 Q 850.919 485.098 851.675 484.341 Q 852.432 483.585 854.123 483.585 L 901.115 483.585 Q 902.806 483.585 903.562 484.341 Q 904.319 485.098 904.319 486.789 L 904.319 497.558 Q 904.319 499.249 903.562 500.005 Q 902.806 500.762 901.115 500.762 L 888.032 500.762 L 888.032 544.461 Q 888.032 546.152 887.275 546.908 Q 886.519 547.665 884.828 547.665 Z" style="fill: rgb(65, 61, 81); white-space: pre;"/>
  <path d="M 932.609 502.275 L 928.426 515.803 L 942.399 515.803 L 938.216 502.275 Q 937.86 501.474 937.46 501.118 Q 937.059 500.762 936.525 500.762 L 934.3 500.762 Q 933.766 500.762 933.366 501.118 Q 932.965 501.474 932.609 502.275 Z M 927.536 544.461 Q 927.536 546.152 926.78 546.908 Q 926.023 547.665 924.332 547.665 L 911.249 547.665 Q 909.558 547.665 908.802 546.908 Q 908.045 546.152 908.045 544.461 L 908.045 520.965 Q 908.045 518.295 908.891 514.824 Q 909.736 511.353 911.516 506.725 L 919.259 486.522 Q 919.793 485.009 920.906 484.297 Q 922.018 483.585 923.798 483.585 L 947.739 483.585 Q 949.43 483.585 950.543 484.297 Q 951.655 485.009 952.189 486.522 L 959.932 506.725 Q 961.712 511.353 962.558 514.824 Q 963.403 518.295 963.403 520.965 L 963.403 544.461 Q 963.403 546.152 962.647 546.908 Q 961.89 547.665 960.199 547.665 L 946.76 547.665 Q 944.98 547.665 944.135 546.908 Q 943.289 546.152 943.289 544.461 L 943.289 532.001 L 927.536 532.001 Z" style="fill: rgb(65, 61, 81); white-space: pre;"/>
  <path d="M 976.129 547.665 Q 974.438 547.665 973.682 546.908 Q 972.925 546.152 972.925 544.461 L 972.925 533.87 Q 972.925 532.179 973.682 531.422 Q 974.438 530.666 976.129 530.666 L 984.94 530.666 L 984.94 500.762 L 976.129 500.762 Q 974.438 500.762 973.682 500.005 Q 972.925 499.249 972.925 497.558 L 972.925 486.789 Q 972.925 485.098 973.682 484.341 Q 974.438 483.585 976.129 483.585 L 1014.043 483.585 Q 1015.734 483.585 1016.491 484.341 Q 1017.247 485.098 1017.247 486.789 L 1017.247 497.558 Q 1017.247 499.249 1016.491 500.005 Q 1015.734 500.762 1014.043 500.762 L 1005.41 500.762 L 1005.41 530.666 L 1014.043 530.666 Q 1015.734 530.666 1016.491 531.422 Q 1017.247 532.179 1017.247 533.87 L 1017.247 544.461 Q 1017.247 546.152 1016.491 546.908 Q 1015.734 547.665 1014.043 547.665 Z" style="fill: rgb(65, 61, 81); white-space: pre;"/>
  <path d="M 1044.762 547.665 L 1031.412 547.665 Q 1029.721 547.665 1028.965 546.908 Q 1028.208 546.152 1028.208 544.461 L 1028.208 486.789 Q 1028.208 485.098 1028.965 484.341 Q 1029.721 483.585 1031.412 483.585 L 1040.668 483.585 Q 1042.359 483.585 1043.561 484.119 Q 1044.762 484.653 1045.919 485.988 L 1063.185 505.746 L 1063.185 486.789 Q 1063.185 485.098 1063.942 484.341 Q 1064.698 483.585 1066.389 483.585 L 1079.739 483.585 Q 1081.43 483.585 1082.187 484.341 Q 1082.943 485.098 1082.943 486.789 L 1082.943 544.461 Q 1082.943 546.152 1082.187 546.908 Q 1081.43 547.665 1079.739 547.665 L 1066.389 547.665 Q 1064.698 547.665 1063.942 546.908 Q 1063.185 546.152 1063.185 544.461 L 1063.185 533.514 L 1047.966 515.091 L 1047.966 544.461 Q 1047.966 546.152 1047.21 546.908 Q 1046.453 547.665 1044.762 547.665 Z" style="fill: rgb(65, 61, 81); white-space: pre;"/>
  <path d="M 1115.16 547.665 L 1097.182 547.665 Q 1095.491 547.665 1094.735 546.908 Q 1093.978 546.152 1093.978 544.461 L 1093.978 526.394 Q 1093.978 524.703 1094.735 523.946 Q 1095.491 523.19 1097.182 523.19 L 1115.16 523.19 Q 1116.851 523.19 1117.608 523.946 Q 1118.364 524.703 1118.364 526.394 L 1118.364 544.461 Q 1118.364 546.152 1117.608 546.908 Q 1116.851 547.665 1115.16 547.665 Z" style="fill: rgb(65, 61, 81); white-space: pre;"/>
  <path d="M 1172.027 547.665 L 1150.311 547.665 Q 1139.186 547.665 1133.801 543.215 Q 1128.417 538.765 1128.417 529.509 L 1128.417 501.83 Q 1128.417 492.574 1133.801 488.079 Q 1139.186 483.585 1150.311 483.585 L 1172.027 483.585 Q 1173.718 483.585 1174.474 484.341 Q 1175.231 485.098 1175.231 486.789 L 1175.231 497.558 Q 1175.231 499.249 1174.474 500.005 Q 1173.718 500.762 1172.027 500.762 L 1154.138 500.762 Q 1151.379 500.762 1150.044 501.874 Q 1148.709 502.987 1148.709 505.212 L 1148.709 526.394 Q 1148.709 528.619 1150.044 529.642 Q 1151.379 530.666 1154.138 530.666 L 1172.027 530.666 Q 1173.718 530.666 1174.474 531.422 Q 1175.231 532.179 1175.231 533.87 L 1175.231 544.461 Q 1175.231 546.152 1174.474 546.908 Q 1173.718 547.665 1172.027 547.665 Z" style="fill: rgb(65, 61, 81); white-space: pre;"/>
  <path d="M 1239.123 530.844 Q 1239.123 534.938 1237.922 538.275 Q 1236.72 541.613 1233.65 543.971 Q 1230.579 546.33 1225.195 547.665 Q 1219.81 549 1211.533 549 Q 1203.256 549 1197.827 547.665 Q 1192.398 546.33 1189.328 543.971 Q 1186.257 541.613 1185.056 538.275 Q 1183.854 534.938 1183.854 530.844 L 1183.854 500.495 Q 1183.854 496.401 1185.056 493.063 Q 1186.257 489.726 1189.328 487.323 Q 1192.398 484.92 1197.827 483.585 Q 1203.256 482.25 1211.533 482.25 Q 1219.81 482.25 1225.195 483.585 Q 1230.579 484.92 1233.65 487.323 Q 1236.72 489.726 1237.922 493.063 Q 1239.123 496.401 1239.123 500.495 Z M 1204.057 527.64 Q 1204.057 529.42 1205.392 530.621 Q 1206.727 531.823 1211.533 531.823 Q 1216.339 531.823 1217.674 530.621 Q 1219.009 529.42 1219.009 527.64 L 1219.009 503.699 Q 1219.009 502.008 1217.674 500.806 Q 1216.339 499.605 1211.533 499.605 Q 1206.727 499.605 1205.392 500.806 Q 1204.057 502.008 1204.057 503.699 Z" style="fill: rgb(65, 61, 81); white-space: pre;"/>
  <path d="M 1266.892 547.665 L 1253.631 547.665 Q 1251.94 547.665 1251.184 546.908 Q 1250.427 546.152 1250.427 544.461 L 1250.427 486.789 Q 1250.427 485.098 1251.184 484.341 Q 1251.94 483.585 1253.631 483.585 L 1267.96 483.585 Q 1269.384 483.585 1270.319 484.208 Q 1271.253 484.831 1272.054 486.255 L 1280.064 500.762 Q 1280.509 501.563 1280.821 501.919 Q 1281.132 502.275 1281.666 502.275 L 1282.467 502.275 Q 1283.001 502.275 1283.313 501.919 Q 1283.624 501.563 1284.069 500.762 L 1291.99 486.255 Q 1292.791 484.831 1293.726 484.208 Q 1294.66 483.585 1296.084 483.585 L 1310.502 483.585 Q 1312.193 483.585 1312.95 484.341 Q 1313.706 485.098 1313.706 486.789 L 1313.706 544.461 Q 1313.706 546.152 1312.95 546.908 Q 1312.193 547.665 1310.502 547.665 L 1296.796 547.665 Q 1295.105 547.665 1294.349 546.908 Q 1293.592 546.152 1293.592 544.461 L 1293.592 513.133 L 1288.341 522.834 Q 1287.54 524.347 1286.428 525.014 Q 1285.315 525.682 1283.624 525.682 L 1280.064 525.682 Q 1278.373 525.682 1277.261 525.014 Q 1276.148 524.347 1275.347 522.834 L 1270.096 513.133 L 1270.096 544.461 Q 1270.096 546.152 1269.34 546.908 Q 1268.583 547.665 1266.892 547.665 Z" style="fill: rgb(65, 61, 81); white-space: pre;"/>
</svg>