<?xml version="1.0" encoding="utf-8"?>
<svg viewBox="0 0 1000 700" style="enable-background:new 0 0 1000 1000;" xmlns="http://www.w3.org/2000/svg">
  <defs>
    <style type="text/css">
	.st0{opacity:0.7;fill:#FFFFFF;}
	.st1{fill:#413D51;}
	.st2{fill:#8FE3F9;}
	.st3{fill:#B2EBF9;}
	.st4{fill:#A4E0EA;}
	.st5{fill:#7AD1E5;}
	.st6{fill:none;stroke:#413D51;stroke-width:16;stroke-linecap:round;stroke-linejoin:round;stroke-miterlimit:10;}
	.st7{fill:#F7E8AD;}
	.st8{fill:#F7D6A1;}
	.st9{fill:#EFCA92;}
	.st10{fill:#FFFFFF;}
	.st11{opacity:0.89;fill:#EFCA92;}
	.st12{fill:none;stroke:#413D51;stroke-width:8;stroke-linecap:round;stroke-linejoin:round;stroke-miterlimit:10;}
	.st13{opacity:0.31;fill:none;stroke:#72C8D6;stroke-width:8;stroke-linecap:round;stroke-linejoin:round;stroke-miterlimit:10;}
</style>
  </defs>
  <g transform="matrix(1, 0, 0, 1, 0, -199)">
    <ellipse id="XMLID_2_" class="st2" cx="501.8" cy="487.5" rx="228" ry="205.8"/>
    <ellipse id="XMLID_188_" class="st2" cx="501.8" cy="487.5" rx="228" ry="205.8"/>
    <path id="XMLID_193_" class="st3" d="M507.8,689.3c52.1,0,100.1-15.3,138.5-41l-10.5-24.7c-22-51.9-74.2-85.8-132.1-85.8l0,0 c-57.9,0-110.1,33.9-132.1,85.8l-8.6,20.4C402.3,672.3,452.8,689.3,507.8,689.3z"/>
    <path id="XMLID_189_" class="st4" d="M501.7,470.3l-43.6,64l32.9,43.8c5.4,7.2,16.3,7.2,21.7,0l32.6-43.8L501.7,470.3z"/>
    <path id="XMLID_192_" class="st5" d="M501.8,669.3c-121.5,0-220.7-85.7-227.6-193.8c-0.3,4-0.4,8-0.4,12 c0,113.6,102.1,205.8,228,205.8s228-92.1,228-205.8c0-4-0.1-8-0.4-12C722.5,583.6,623.2,669.3,501.8,669.3z"/>
    <path id="XMLID_76_" class="st4" d="M638.6,628.1c-38.1,25.8-85.5,41.2-136.8,41.2c-50,0-96.2-14.5-133.7-39.1l-5,12.3 c39.4,29.2,89.8,46.8,144.8,46.8c49.7,0,95.7-14.4,133.2-38.8c1.8-1.2,3.5-2.5,5.3-3.8L638.6,628.1z"/>
    <path id="XMLID_186_" class="st5" d="M268.2,488.2c6.4,13.1,15,25.3,25.8,36.2c52.3,52.3,137.2,52.3,189.5,0 c43.8-43.8,50.9-110.3,21.5-161.5"/>
    <path id="XMLID_185_" class="st5" d="M729,503.8c-24,36.1-65,59.8-111.6,59.8c-74,0-134-60-134-134c0-33,11.9-63.2,31.7-86.6"/>
    <ellipse id="XMLID_75_" class="st6" cx="501.8" cy="487.5" rx="228" ry="205.8"/>
    <polygon id="XMLID_74_" class="st1" points="501.7,442.3 458.1,506.3 501.9,564.6 545.4,506.3 &#9;"/>
    <polygon id="XMLID_73_" class="st6" points="501.7,442.3 458.1,506.3 501.9,564.6 545.4,506.3 &#9;"/>
    <path id="XMLID_72_" class="st1" d="M600.7,303.9c-30-14-64.1-21.9-100-21.9s-70,7.9-100,21.9v140.1h200V303.9z"/>
    <g id="XMLID_58_">
      <path id="XMLID_71_" class="st1" d="M613.5,317.9l108.7-3.3c-15.7,39.3-17.8,98.4-4.1,163c-17.4,36.8-54.4,62.9-97.9,64.2l0,0 c-61.8,1.9-113.5-46.7-115.3-108.6l0,0C503,371.4,551.6,319.8,613.5,317.9z"/>
      <path id="XMLID_70_" class="st6" d="M613.5,317.9l108.7-3.3c-15.7,39.3-17.8,98.4-4.1,163c-17.4,36.8-54.4,62.9-97.9,64.2l0,0 c-61.8,1.9-113.5-46.7-115.3-108.6l0,0C503,371.4,551.6,319.8,613.5,317.9z"/>
      <circle id="XMLID_69_" class="st7" cx="617.4" cy="429.7" r="112"/>
      <circle id="XMLID_5_" class="st7" cx="617.4" cy="429.7" r="112"/>
      <path id="XMLID_86_" class="st8" d="M696.6,350.5c-21.5-21.5-49.7-32.4-77.9-32.8c21.2,4.1,41.5,14.3,57.9,30.8 c43.7,43.7,43.7,114.6,0,158.4c-22.2,22.2-51.4,33.1-80.4,32.8c35.3,6.8,73.1-3.5,100.4-30.8C740.3,465.1,740.3,394.2,696.6,350.5 z"/>
      <ellipse id="XMLID_3_" transform="matrix(0.7071 -0.7071 0.7071 0.7071 -130.8246 543.5441)" class="st0" cx="590.7" cy="429.7" rx="84" ry="84.6"/>
      <path id="XMLID_12_" class="st9" d="M711.4,376.6c-3.1-4-9.1-15-12.8-18.7c-44-43.4-114.9-43-158.3,1.1 c-8.6,8.7-15.5,18.5-20.6,29C581.4,366.3,649,371.5,711.4,376.6z"/>
      <circle id="XMLID_68_" class="st6" cx="617.4" cy="429.7" r="112"/>
      <circle id="XMLID_67_" class="st6" cx="617.4" cy="429.7" r="112"/>
      <path id="XMLID_66_" class="st1" d="M706.7,362.1c-3.1-4-6.4-7.9-10.1-11.6c-43.7-43.7-114.6-43.7-158.4,0 c-8.7,8.7-15.6,18.4-20.8,28.8C579.4,358.1,644.3,356.5,706.7,362.1z"/>
      <circle id="XMLID_57_" class="st1" cx="562.9" cy="438.1" r="42"/>
      <circle id="XMLID_56_" class="st10" cx="539.1" cy="438.4" r="14"/>
    </g>
    <g id="XMLID_26_">
      <path id="XMLID_89_" class="st1" d="M388.8,317.9L280,314.6c15.7,39.3,17.8,98.4,4.1,163c17.4,36.8,54.4,62.9,97.9,64.2l0,0 c61.8,1.9,113.5-46.7,115.3-108.6l0,0C499.2,371.4,450.6,319.8,388.8,317.9z"/>
      <path id="XMLID_88_" class="st6" d="M388.8,317.9L280,314.6c15.7,39.3,17.8,98.4,4.1,163c17.4,36.8,54.4,62.9,97.9,64.2l0,0 c61.8,1.9,113.5-46.7,115.3-108.6l0,0C499.2,371.4,450.6,319.8,388.8,317.9z"/>
      <circle id="XMLID_87_" class="st7" cx="384.8" cy="429.7" r="112"/>
      <circle id="XMLID_84_" class="st7" cx="384.8" cy="429.7" r="112"/>
      <path id="XMLID_65_" class="st8" d="M305.6,350.5c21.5-21.5,49.7-32.4,77.9-32.8c-21.2,4.1-41.5,14.3-57.9,30.8 c-43.7,43.7-43.7,114.6,0,158.4c22.2,22.2,51.4,33.1,80.4,32.8c-35.3,6.8-73.1-3.5-100.4-30.8 C261.9,465.1,261.9,394.2,305.6,350.5z"/>
      <ellipse id="XMLID_64_" transform="matrix(0.7071 -0.7071 0.7071 0.7071 -183.3021 416.8521)" class="st0" cx="411.5" cy="429.7" rx="84.6" ry="84"/>
      <path id="XMLID_63_" class="st11" d="M290.9,376.6c3.1-4,9.1-15,12.8-18.7c44-43.4,114.9-43,158.3,1.1c8.6,8.7,15.5,18.5,20.6,29 C420.8,366.3,353.2,371.5,290.9,376.6z"/>
      <circle id="XMLID_62_" class="st6" cx="384.8" cy="429.7" r="112"/>
      <circle id="XMLID_61_" class="st6" cx="384.8" cy="429.7" r="112"/>
      <path id="XMLID_60_" class="st1" d="M295.6,362.1c3.1-4,6.4-7.9,10.1-11.6c43.7-43.7,114.6-43.7,158.4,0 c8.7,8.7,15.6,18.4,20.8,28.8C422.9,358.1,357.9,356.5,295.6,362.1z"/>
      <circle id="XMLID_59_" class="st1" cx="439.4" cy="438.1" r="42"/>
      <circle id="XMLID_37_" class="st10" cx="463.2" cy="438.4" r="14"/>
    </g>
    <path id="XMLID_19_" class="st1" d="M447.9,718.3L447.9,718.3c-8.8,0-16-7.2-16-16v-18c0-8.8,7.2-16,16-16h0c8.8,0,16,7.2,16,16v18 C463.9,711.1,456.8,718.3,447.9,718.3z"/>
    <path id="XMLID_17_" class="st1" d="M415.9,718.3L415.9,718.3c-8.8,0-16-7.2-16-16v-18c0-8.8,7.2-16,16-16h0c8.8,0,16,7.2,16,16v18 C431.9,711.1,424.8,718.3,415.9,718.3z"/>
    <path id="XMLID_16_" class="st1" d="M479.7,718.3L479.7,718.3c-8.8,0-16-7.2-16-16v-18c0-8.8,7.2-16,16-16h0c8.8,0,16,7.2,16,16v18 C495.7,711.1,488.5,718.3,479.7,718.3z"/>
    <path id="XMLID_15_" class="st1" d="M521.9,718.3L521.9,718.3c-8.8,0-16-7.2-16-16v-18c0-8.8,7.2-16,16-16h0c8.8,0,16,7.2,16,16v18 C537.9,711.1,530.7,718.3,521.9,718.3z"/>
    <path id="XMLID_14_" class="st1" d="M553.7,718.3L553.7,718.3c-8.8,0-16-7.2-16-16v-18c0-8.8,7.2-16,16-16h0c8.8,0,16,7.2,16,16v18 C569.7,711.1,562.5,718.3,553.7,718.3z"/>
    <path id="XMLID_13_" class="st1" d="M585.7,718.3L585.7,718.3c-8.8,0-16-7.2-16-16v-18c0-8.8,7.2-16,16-16h0c8.8,0,16,7.2,16,16v18 C601.7,711.1,594.5,718.3,585.7,718.3z"/>
    <path id="XMLID_11_" class="st12" d="M491.9,587.6c0,8.4-6.8,15.2-15.2,15.2c-8.4,0-15.2-6.8-15.2-15.2"/>
    <path id="XMLID_9_" class="st12" d="M538.4,587.6c0,8.4-6.8,15.2-15.2,15.2c-8.4,0-15.2-6.8-15.2-15.2"/>
    <path id="XMLID_10_" class="st13" d="M323,548.8c-2.2,4.7-7.7,6.8-12.5,4.6s-6.8-7.7-4.6-12.5"/>
    <path id="XMLID_1_" class="st13" d="M352.8,564.3c-2.2,4.7-7.7,6.8-12.5,4.6c-4.7-2.2-6.8-7.7-4.6-12.5"/>
    <path id="XMLID_78_" class="st13" d="M335.5,576.2c-2.2,4.7-7.7,6.8-12.5,4.6c-4.7-2.2-6.8-7.7-4.6-12.5"/>
    <path id="XMLID_77_" class="st13" d="M361.7,596.1c-2.2,4.7-7.7,6.8-12.5,4.6c-4.7-2.2-6.8-7.7-4.6-12.5"/>
    <path id="XMLID_79_" class="st13" d="M381.7,578.1c-2.2,4.7-7.7,6.8-12.5,4.6c-4.7-2.2-6.8-7.7-4.6-12.5"/>
    <path id="XMLID_85_" class="st13" d="M683.7,550.8c2.2,4.7,7.7,6.8,12.5,4.6s6.8-7.7,4.6-12.5"/>
    <path id="XMLID_83_" class="st13" d="M654,566.3c2.2,4.7,7.7,6.8,12.5,4.6c4.7-2.2,6.8-7.7,4.6-12.5"/>
    <path id="XMLID_82_" class="st13" d="M671.2,578.2c2.2,4.7,7.7,6.8,12.5,4.6c4.7-2.2,6.8-7.7,4.6-12.5"/>
    <path id="XMLID_81_" class="st13" d="M645.1,598.1c2.2,4.7,7.7,6.8,12.5,4.6c4.7-2.2,6.8-7.7,4.6-12.5"/>
    <path id="XMLID_80_" class="st13" d="M625.1,580.1c2.2,4.7,7.7,6.8,12.5,4.6c4.7-2.2,6.8-7.7,4.6-12.5"/>
    <path id="XMLID_8_" class="st12" d="M468.7,624.1c0,8.4-6.8,15.2-15.2,15.2c-8.4,0-15.2-6.8-15.2-15.2"/>
    <path id="XMLID_7_" class="st12" d="M515.2,624.1c0,8.4-6.8,15.2-15.2,15.2s-15.2-6.8-15.2-15.2"/>
    <path id="XMLID_6_" class="st12" d="M561.7,624.1c0,8.4-6.8,15.2-15.2,15.2c-8.4,0-15.2-6.8-15.2-15.2"/>
  </g>
  <path d="M 162.934 582.709 L 149.584 582.709 Q 147.893 582.709 147.136 581.952 Q 146.38 581.196 146.38 579.505 L 146.38 521.833 Q 146.38 520.142 147.136 519.385 Q 147.893 518.629 149.584 518.629 L 158.84 518.629 Q 160.531 518.629 161.732 519.163 Q 162.934 519.697 164.091 521.032 L 181.357 540.79 L 181.357 521.833 Q 181.357 520.142 182.113 519.385 Q 182.87 518.629 184.561 518.629 L 197.911 518.629 Q 199.602 518.629 200.358 519.385 Q 201.115 520.142 201.115 521.833 L 201.115 579.505 Q 201.115 581.196 200.358 581.952 Q 199.602 582.709 197.911 582.709 L 184.561 582.709 Q 182.87 582.709 182.113 581.952 Q 181.357 581.196 181.357 579.505 L 181.357 568.558 L 166.138 550.135 L 166.138 579.505 Q 166.138 581.196 165.381 581.952 Q 164.625 582.709 162.934 582.709 Z" style="fill: rgb(65, 61, 81); white-space: pre;"/>
  <path d="M 243.122 582.709 L 214.998 582.709 Q 213.307 582.709 212.55 581.952 Q 211.794 581.196 211.794 579.505 L 211.794 569.092 Q 211.794 567.401 212.55 566.644 Q 213.307 565.888 214.998 565.888 L 238.939 565.888 Q 240.096 565.888 240.674 565.131 Q 241.253 564.375 241.253 563.307 Q 241.253 561.794 240.674 561.082 Q 240.096 560.37 238.939 560.281 L 225.589 558.412 Q 219.359 557.522 215.576 554.318 Q 211.794 551.114 211.794 543.638 L 211.794 534.293 Q 211.794 526.728 216.689 522.678 Q 221.584 518.629 230.217 518.629 L 255.137 518.629 Q 256.828 518.629 257.584 519.385 Q 258.341 520.142 258.341 521.833 L 258.341 532.424 Q 258.341 534.115 257.584 534.871 Q 256.828 535.628 255.137 535.628 L 234.4 535.628 Q 233.243 535.628 232.62 536.384 Q 231.997 537.141 231.997 538.298 Q 231.997 539.455 232.62 540.256 Q 233.243 541.057 234.4 541.146 L 247.661 542.926 Q 253.891 543.816 257.718 547.02 Q 261.545 550.224 261.545 557.7 L 261.545 567.045 Q 261.545 574.61 256.605 578.659 Q 251.666 582.709 243.122 582.709 Z" style="fill: rgb(65, 61, 81); white-space: pre;"/>
  <path d="M 325.796 565.888 Q 325.796 569.982 324.595 573.319 Q 323.393 576.657 320.323 579.015 Q 317.252 581.374 311.912 582.709 Q 306.572 584.044 298.295 584.044 Q 290.018 584.044 284.678 582.709 Q 279.338 581.374 276.268 579.015 Q 273.197 576.657 271.996 573.319 Q 270.794 569.982 270.794 565.888 L 270.794 521.833 Q 270.794 520.142 271.551 519.385 Q 272.307 518.629 273.998 518.629 L 287.971 518.629 Q 289.662 518.629 290.419 519.385 Q 291.175 520.142 291.175 521.833 L 291.175 562.417 Q 291.175 564.197 292.51 565.398 Q 293.845 566.6 298.473 566.6 Q 303.19 566.6 304.525 565.398 Q 305.86 564.197 305.86 562.417 L 305.86 521.833 Q 305.86 520.142 306.617 519.385 Q 307.373 518.629 309.064 518.629 L 322.592 518.629 Q 324.283 518.629 325.04 519.385 Q 325.796 520.142 325.796 521.833 Z" style="fill: rgb(65, 61, 81); white-space: pre;"/>
  <path d="M 367.356 582.709 L 339.232 582.709 Q 337.541 582.709 336.785 581.952 Q 336.028 581.196 336.028 579.505 L 336.028 569.092 Q 336.028 567.401 336.785 566.644 Q 337.541 565.888 339.232 565.888 L 363.173 565.888 Q 364.33 565.888 364.909 565.131 Q 365.487 564.375 365.487 563.307 Q 365.487 561.794 364.909 561.082 Q 364.33 560.37 363.173 560.281 L 349.823 558.412 Q 343.593 557.522 339.811 554.318 Q 336.028 551.114 336.028 543.638 L 336.028 534.293 Q 336.028 526.728 340.923 522.678 Q 345.818 518.629 354.451 518.629 L 379.371 518.629 Q 381.062 518.629 381.819 519.385 Q 382.575 520.142 382.575 521.833 L 382.575 532.424 Q 382.575 534.115 381.819 534.871 Q 381.062 535.628 379.371 535.628 L 358.634 535.628 Q 357.477 535.628 356.854 536.384 Q 356.231 537.141 356.231 538.298 Q 356.231 539.455 356.854 540.256 Q 357.477 541.057 358.634 541.146 L 371.895 542.926 Q 378.125 543.816 381.952 547.02 Q 385.779 550.224 385.779 557.7 L 385.779 567.045 Q 385.779 574.61 380.84 578.659 Q 375.9 582.709 367.356 582.709 Z" style="fill: rgb(65, 61, 81); white-space: pre;"/>
  <path d="M 424.859 582.709 L 410.441 582.709 Q 408.75 582.709 407.993 581.952 Q 407.237 581.196 407.237 579.505 L 407.237 535.806 L 394.154 535.806 Q 392.463 535.806 391.706 535.049 Q 390.95 534.293 390.95 532.602 L 390.95 521.833 Q 390.95 520.142 391.706 519.385 Q 392.463 518.629 394.154 518.629 L 441.146 518.629 Q 442.837 518.629 443.593 519.385 Q 444.35 520.142 444.35 521.833 L 444.35 532.602 Q 444.35 534.293 443.593 535.049 Q 442.837 535.806 441.146 535.806 L 428.063 535.806 L 428.063 579.505 Q 428.063 581.196 427.306 581.952 Q 426.55 582.709 424.859 582.709 Z" style="fill: rgb(65, 61, 81); white-space: pre;"/>
  <path d="M 472.64 537.319 L 468.457 550.847 L 482.43 550.847 L 478.247 537.319 Q 477.891 536.518 477.491 536.162 Q 477.09 535.806 476.556 535.806 L 474.331 535.806 Q 473.797 535.806 473.397 536.162 Q 472.996 536.518 472.64 537.319 Z M 467.567 579.505 Q 467.567 581.196 466.811 581.952 Q 466.054 582.709 464.363 582.709 L 451.28 582.709 Q 449.589 582.709 448.833 581.952 Q 448.076 581.196 448.076 579.505 L 448.076 556.009 Q 448.076 553.339 448.922 549.868 Q 449.767 546.397 451.547 541.769 L 459.29 521.566 Q 459.824 520.053 460.937 519.341 Q 462.049 518.629 463.829 518.629 L 487.77 518.629 Q 489.461 518.629 490.574 519.341 Q 491.686 520.053 492.22 521.566 L 499.963 541.769 Q 501.743 546.397 502.589 549.868 Q 503.434 553.339 503.434 556.009 L 503.434 579.505 Q 503.434 581.196 502.678 581.952 Q 501.921 582.709 500.23 582.709 L 486.791 582.709 Q 485.011 582.709 484.166 581.952 Q 483.32 581.196 483.32 579.505 L 483.32 567.045 L 467.567 567.045 Z" style="fill: rgb(65, 61, 81); white-space: pre;"/>
  <path d="M 516.16 582.709 Q 514.469 582.709 513.713 581.952 Q 512.956 581.196 512.956 579.505 L 512.956 568.914 Q 512.956 567.223 513.713 566.466 Q 514.469 565.71 516.16 565.71 L 524.971 565.71 L 524.971 535.806 L 516.16 535.806 Q 514.469 535.806 513.713 535.049 Q 512.956 534.293 512.956 532.602 L 512.956 521.833 Q 512.956 520.142 513.713 519.385 Q 514.469 518.629 516.16 518.629 L 554.074 518.629 Q 555.765 518.629 556.522 519.385 Q 557.278 520.142 557.278 521.833 L 557.278 532.602 Q 557.278 534.293 556.522 535.049 Q 555.765 535.806 554.074 535.806 L 545.441 535.806 L 545.441 565.71 L 554.074 565.71 Q 555.765 565.71 556.522 566.466 Q 557.278 567.223 557.278 568.914 L 557.278 579.505 Q 557.278 581.196 556.522 581.952 Q 555.765 582.709 554.074 582.709 Z" style="fill: rgb(65, 61, 81); white-space: pre;"/>
  <path d="M 584.793 582.709 L 571.443 582.709 Q 569.752 582.709 568.996 581.952 Q 568.239 581.196 568.239 579.505 L 568.239 521.833 Q 568.239 520.142 568.996 519.385 Q 569.752 518.629 571.443 518.629 L 580.699 518.629 Q 582.39 518.629 583.592 519.163 Q 584.793 519.697 585.95 521.032 L 603.216 540.79 L 603.216 521.833 Q 603.216 520.142 603.973 519.385 Q 604.729 518.629 606.42 518.629 L 619.77 518.629 Q 621.461 518.629 622.218 519.385 Q 622.974 520.142 622.974 521.833 L 622.974 579.505 Q 622.974 581.196 622.218 581.952 Q 621.461 582.709 619.77 582.709 L 606.42 582.709 Q 604.729 582.709 603.973 581.952 Q 603.216 581.196 603.216 579.505 L 603.216 568.558 L 587.997 550.135 L 587.997 579.505 Q 587.997 581.196 587.241 581.952 Q 586.484 582.709 584.793 582.709 Z" style="fill: rgb(65, 61, 81); white-space: pre;"/>
  <path d="M 655.191 582.709 L 637.213 582.709 Q 635.522 582.709 634.766 581.952 Q 634.009 581.196 634.009 579.505 L 634.009 561.438 Q 634.009 559.747 634.766 558.99 Q 635.522 558.234 637.213 558.234 L 655.191 558.234 Q 656.882 558.234 657.639 558.99 Q 658.395 559.747 658.395 561.438 L 658.395 579.505 Q 658.395 581.196 657.639 581.952 Q 656.882 582.709 655.191 582.709 Z" style="fill: rgb(65, 61, 81); white-space: pre;"/>
  <path d="M 712.058 582.709 L 690.342 582.709 Q 679.217 582.709 673.832 578.259 Q 668.448 573.809 668.448 564.553 L 668.448 536.874 Q 668.448 527.618 673.832 523.123 Q 679.217 518.629 690.342 518.629 L 712.058 518.629 Q 713.749 518.629 714.505 519.385 Q 715.262 520.142 715.262 521.833 L 715.262 532.602 Q 715.262 534.293 714.505 535.049 Q 713.749 535.806 712.058 535.806 L 694.169 535.806 Q 691.41 535.806 690.075 536.918 Q 688.74 538.031 688.74 540.256 L 688.74 561.438 Q 688.74 563.663 690.075 564.686 Q 691.41 565.71 694.169 565.71 L 712.058 565.71 Q 713.749 565.71 714.505 566.466 Q 715.262 567.223 715.262 568.914 L 715.262 579.505 Q 715.262 581.196 714.505 581.952 Q 713.749 582.709 712.058 582.709 Z" style="fill: rgb(65, 61, 81); white-space: pre;"/>
  <path d="M 779.154 565.888 Q 779.154 569.982 777.953 573.319 Q 776.751 576.657 773.681 579.015 Q 770.61 581.374 765.226 582.709 Q 759.841 584.044 751.564 584.044 Q 743.287 584.044 737.858 582.709 Q 732.429 581.374 729.359 579.015 Q 726.288 576.657 725.087 573.319 Q 723.885 569.982 723.885 565.888 L 723.885 535.539 Q 723.885 531.445 725.087 528.107 Q 726.288 524.77 729.359 522.367 Q 732.429 519.964 737.858 518.629 Q 743.287 517.294 751.564 517.294 Q 759.841 517.294 765.226 518.629 Q 770.61 519.964 773.681 522.367 Q 776.751 524.77 777.953 528.107 Q 779.154 531.445 779.154 535.539 Z M 744.088 562.684 Q 744.088 564.464 745.423 565.665 Q 746.758 566.867 751.564 566.867 Q 756.37 566.867 757.705 565.665 Q 759.04 564.464 759.04 562.684 L 759.04 538.743 Q 759.04 537.052 757.705 535.85 Q 756.37 534.649 751.564 534.649 Q 746.758 534.649 745.423 535.85 Q 744.088 537.052 744.088 538.743 Z" style="fill: rgb(65, 61, 81); white-space: pre;"/>
  <path d="M 806.923 582.709 L 793.662 582.709 Q 791.971 582.709 791.215 581.952 Q 790.458 581.196 790.458 579.505 L 790.458 521.833 Q 790.458 520.142 791.215 519.385 Q 791.971 518.629 793.662 518.629 L 807.991 518.629 Q 809.415 518.629 810.35 519.252 Q 811.284 519.875 812.085 521.299 L 820.095 535.806 Q 820.54 536.607 820.852 536.963 Q 821.163 537.319 821.697 537.319 L 822.498 537.319 Q 823.032 537.319 823.344 536.963 Q 823.655 536.607 824.1 535.806 L 832.021 521.299 Q 832.822 519.875 833.757 519.252 Q 834.691 518.629 836.115 518.629 L 850.533 518.629 Q 852.224 518.629 852.981 519.385 Q 853.737 520.142 853.737 521.833 L 853.737 579.505 Q 853.737 581.196 852.981 581.952 Q 852.224 582.709 850.533 582.709 L 836.827 582.709 Q 835.136 582.709 834.38 581.952 Q 833.623 581.196 833.623 579.505 L 833.623 548.177 L 828.372 557.878 Q 827.571 559.391 826.459 560.058 Q 825.346 560.726 823.655 560.726 L 820.095 560.726 Q 818.404 560.726 817.292 560.058 Q 816.179 559.391 815.378 557.878 L 810.127 548.177 L 810.127 579.505 Q 810.127 581.196 809.371 581.952 Q 808.614 582.709 806.923 582.709 Z" style="fill: rgb(65, 61, 81); white-space: pre;"/>
  <path d="M 157.319 639.788 Q 153.471 639.788 150.637 638.228 Q 147.803 636.668 146.269 633.6 Q 144.735 630.532 144.735 626.112 Q 144.735 619.3 147.933 615.79 Q 151.131 612.28 156.851 612.28 Q 161.063 612.28 163.663 614.152 Q 166.263 616.024 167.433 619.378 Q 168.603 622.732 168.551 627.204 L 148.011 627.204 L 147.855 623.148 L 164.391 623.148 L 163.091 624.448 Q 162.935 620.444 161.427 618.598 Q 159.919 616.752 156.695 616.752 Q 154.615 616.752 153.159 617.61 Q 151.703 618.468 150.949 620.522 Q 150.195 622.576 150.195 626.164 Q 150.195 630.532 152.223 632.794 Q 154.251 635.056 158.203 635.056 Q 159.971 635.056 161.505 634.744 Q 163.039 634.432 164.339 633.938 Q 165.639 633.444 166.575 632.976 L 166.575 638.02 Q 164.755 638.8 162.467 639.294 Q 160.179 639.788 157.319 639.788 Z" style="fill: rgb(65, 61, 81); white-space: pre;"/>
  <path d="M 176.337 615.036 Q 177.481 614.464 178.911 613.97 Q 180.341 613.476 181.953 613.112 Q 183.565 612.748 185.229 612.54 Q 186.893 612.332 188.453 612.332 Q 192.145 612.332 194.485 613.346 Q 196.825 614.36 197.969 616.466 Q 199.113 618.572 199.113 621.744 L 199.113 639.008 L 193.653 639.008 L 193.653 622.472 Q 193.653 621.484 193.419 620.522 Q 193.185 619.56 192.535 618.754 Q 191.885 617.948 190.663 617.48 Q 189.441 617.012 187.465 617.012 Q 186.061 617.012 184.579 617.272 Q 183.097 617.532 181.797 618 L 181.797 639.008 L 176.337 639.008 Z" style="fill: rgb(65, 61, 81); white-space: pre;"/>
  <path d="M 216.573 639.008 L 205.601 612.904 L 211.425 612.904 L 220.369 634.588 L 219.069 634.744 L 227.389 612.904 L 233.057 612.904 L 222.033 639.008 Z" style="fill: rgb(65, 61, 81); white-space: pre;"/>
  <path d="M 240.118 639.008 L 240.118 613.06 L 245.578 613.06 L 245.63 639.008 Z M 239.962 608.744 L 239.962 603.804 L 245.786 603.804 L 245.786 608.744 Z" style="fill: rgb(65, 61, 81); white-space: pre;"/>
  <path d="M 254.993 639.008 L 254.993 615.296 Q 255.669 614.88 257.489 614.152 Q 259.309 613.424 261.805 612.878 Q 264.301 612.332 266.849 612.332 Q 268.149 612.332 268.981 612.54 Q 269.813 612.748 270.385 613.008 L 270.385 617.376 Q 269.189 617.22 267.889 617.142 Q 266.589 617.064 265.289 617.142 Q 263.989 617.22 262.741 617.376 Q 261.493 617.532 260.453 617.688 L 260.453 639.008 Z" style="fill: rgb(65, 61, 81); white-space: pre;"/>
  <path d="M 286.955 639.788 Q 280.611 639.788 277.517 636.2 Q 274.423 632.612 274.423 625.956 Q 274.423 618.884 277.621 615.582 Q 280.819 612.28 286.851 612.28 Q 291.167 612.28 293.975 613.866 Q 296.783 615.452 298.135 618.52 Q 299.487 621.588 299.487 625.956 Q 299.487 632.56 296.237 636.174 Q 292.987 639.788 286.955 639.788 Z M 286.903 635.16 Q 289.555 635.16 291.115 633.99 Q 292.675 632.82 293.377 630.74 Q 294.079 628.66 294.079 625.956 Q 294.079 622.94 293.351 620.912 Q 292.623 618.884 291.063 617.87 Q 289.503 616.856 286.903 616.856 Q 284.303 616.856 282.743 617.948 Q 281.183 619.04 280.507 621.068 Q 279.831 623.096 279.831 625.956 Q 279.831 630.272 281.443 632.716 Q 283.055 635.16 286.903 635.16 Z" style="fill: rgb(65, 61, 81); white-space: pre;"/>
  <path d="M 307.337 615.036 Q 308.481 614.464 309.911 613.97 Q 311.341 613.476 312.953 613.112 Q 314.565 612.748 316.229 612.54 Q 317.893 612.332 319.453 612.332 Q 323.145 612.332 325.485 613.346 Q 327.825 614.36 328.969 616.466 Q 330.113 618.572 330.113 621.744 L 330.113 639.008 L 324.653 639.008 L 324.653 622.472 Q 324.653 621.484 324.419 620.522 Q 324.185 619.56 323.535 618.754 Q 322.885 617.948 321.663 617.48 Q 320.441 617.012 318.465 617.012 Q 317.061 617.012 315.579 617.272 Q 314.097 617.532 312.797 618 L 312.797 639.008 L 307.337 639.008 Z" style="fill: rgb(65, 61, 81); white-space: pre;"/>
  <path d="M 361.926 621.744 L 361.926 639.008 L 356.466 639.008 L 356.466 622.472 Q 356.466 621.484 356.232 620.522 Q 355.998 619.56 355.348 618.754 Q 354.698 617.948 353.476 617.48 Q 352.254 617.012 350.278 617.012 Q 348.874 617.012 347.47 617.272 Q 346.066 617.532 344.766 618 L 344.766 639.008 L 339.306 639.008 L 339.306 615.036 Q 340.45 614.464 341.88 613.97 Q 343.31 613.476 344.922 613.112 Q 346.534 612.748 348.198 612.54 Q 349.862 612.332 351.422 612.332 Q 355.114 612.332 357.402 613.346 Q 359.69 614.36 360.808 616.466 Q 361.926 618.572 361.926 621.744 Z M 355.686 616.388 Q 357.35 615.036 359.352 614.152 Q 361.354 613.268 363.512 612.8 Q 365.67 612.332 367.75 612.332 Q 371.442 612.332 373.73 613.346 Q 376.018 614.36 377.136 616.466 Q 378.254 618.572 378.254 621.744 L 378.254 639.008 L 372.794 639.008 L 372.794 622.472 Q 372.794 621.484 372.56 620.522 Q 372.326 619.56 371.676 618.754 Q 371.026 617.948 369.804 617.48 Q 368.582 617.012 366.606 617.012 Q 365.202 617.012 363.798 617.428 Q 362.394 617.844 361.094 618.728 Z" style="fill: rgb(65, 61, 81); white-space: pre;"/>
  <path d="M 398.678 639.788 Q 394.83 639.788 391.996 638.228 Q 389.162 636.668 387.628 633.6 Q 386.094 630.532 386.094 626.112 Q 386.094 619.3 389.292 615.79 Q 392.49 612.28 398.21 612.28 Q 402.422 612.28 405.022 614.152 Q 407.622 616.024 408.792 619.378 Q 409.962 622.732 409.91 627.204 L 389.37 627.204 L 389.214 623.148 L 405.75 623.148 L 404.45 624.448 Q 404.294 620.444 402.786 618.598 Q 401.278 616.752 398.054 616.752 Q 395.974 616.752 394.518 617.61 Q 393.062 618.468 392.308 620.522 Q 391.554 622.576 391.554 626.164 Q 391.554 630.532 393.582 632.794 Q 395.61 635.056 399.562 635.056 Q 401.33 635.056 402.864 634.744 Q 404.398 634.432 405.698 633.938 Q 406.998 633.444 407.934 632.976 L 407.934 638.02 Q 406.114 638.8 403.826 639.294 Q 401.538 639.788 398.678 639.788 Z" style="fill: rgb(65, 61, 81); white-space: pre;"/>
  <path d="M 417.712 615.036 Q 418.856 614.464 420.286 613.97 Q 421.716 613.476 423.328 613.112 Q 424.94 612.748 426.604 612.54 Q 428.268 612.332 429.828 612.332 Q 433.52 612.332 435.86 613.346 Q 438.2 614.36 439.344 616.466 Q 440.488 618.572 440.488 621.744 L 440.488 639.008 L 435.028 639.008 L 435.028 622.472 Q 435.028 621.484 434.794 620.522 Q 434.56 619.56 433.91 618.754 Q 433.26 617.948 432.038 617.48 Q 430.816 617.012 428.84 617.012 Q 427.436 617.012 425.954 617.272 Q 424.472 617.532 423.172 618 L 423.172 639.008 L 417.712 639.008 Z" style="fill: rgb(65, 61, 81); white-space: pre;"/>
  <path d="M 458.989 639.684 Q 455.453 639.684 453.399 637.812 Q 451.345 635.94 451.345 632.3 L 451.345 617.428 L 447.133 617.428 L 447.133 612.904 L 451.345 612.904 L 451.345 605.624 L 456.961 605.624 L 456.961 612.904 L 463.305 612.904 L 463.305 617.428 L 456.961 617.428 L 456.961 631.208 Q 456.961 633.028 457.611 633.938 Q 458.261 634.848 460.029 634.848 Q 460.913 634.848 461.797 634.614 Q 462.681 634.38 463.305 634.016 L 463.305 638.852 Q 462.369 639.268 461.199 639.476 Q 460.029 639.684 458.989 639.684 Z" style="fill: rgb(65, 61, 81); white-space: pre;"/>
  <path d="M 509.203 639.008 L 492.875 619.352 Q 491.731 617.948 490.613 616.024 Q 489.495 614.1 489.495 612.228 Q 489.495 609.94 490.743 608.042 Q 491.991 606.144 494.097 605 Q 496.203 603.856 498.803 603.856 Q 501.403 603.856 503.405 604.896 Q 505.407 605.936 506.577 607.756 Q 507.747 609.576 507.747 611.812 Q 507.747 613.944 506.785 615.478 Q 505.823 617.012 504.107 618.286 Q 502.391 619.56 500.051 620.964 L 497.763 617.792 Q 499.843 616.648 500.883 615.712 Q 501.923 614.776 502.261 613.918 Q 502.599 613.06 502.599 612.228 Q 502.599 610.668 501.533 609.68 Q 500.467 608.692 498.855 608.692 Q 497.243 608.692 496.125 609.758 Q 495.007 610.824 495.007 612.332 Q 495.007 613.008 495.553 613.944 Q 496.099 614.88 496.801 615.842 Q 497.503 616.804 498.127 617.532 L 516.067 639.008 Z M 497.035 639.528 Q 494.227 639.528 492.147 638.644 Q 490.067 637.76 488.741 636.278 Q 487.415 634.796 486.739 633.08 Q 486.063 631.364 486.063 629.752 Q 486.063 628.036 486.765 626.19 Q 487.467 624.344 489.209 622.524 Q 490.951 620.704 494.019 619.144 L 497.451 622.212 Q 495.215 623.46 493.993 624.786 Q 492.771 626.112 492.303 627.282 Q 491.835 628.452 491.835 629.388 Q 491.835 630.012 492.069 630.922 Q 492.303 631.832 492.927 632.742 Q 493.551 633.652 494.747 634.25 Q 495.943 634.848 497.815 634.848 Q 499.895 634.848 501.767 633.73 Q 503.639 632.612 504.783 631.364 L 507.695 634.848 Q 506.551 636.096 505.017 637.162 Q 503.483 638.228 501.481 638.878 Q 499.479 639.528 497.035 639.528 Z M 507.019 628.92 Q 507.643 627.932 508.059 626.866 Q 508.475 625.8 508.735 624.916 Q 508.995 624.032 509.099 623.616 L 513.519 623.616 Q 513.207 625.384 512.297 627.698 Q 511.387 630.012 510.035 632.144 Z" style="fill: rgb(65, 61, 81); white-space: pre;"/>
  <path d="M 546.986 639.788 Q 544.178 639.788 542.228 639.19 Q 540.278 638.592 538.406 637.708 L 538.406 632.56 Q 539.758 633.392 541.058 634.042 Q 542.358 634.692 543.788 635.056 Q 545.218 635.42 546.986 635.42 Q 549.222 635.42 550.496 634.484 Q 551.77 633.548 551.77 632.144 Q 551.77 630.948 550.964 630.272 Q 550.158 629.596 548.91 629.128 Q 547.662 628.66 546.31 628.192 Q 544.906 627.828 543.502 627.334 Q 542.098 626.84 540.928 625.982 Q 539.758 625.124 539.056 623.772 Q 538.354 622.42 538.354 620.444 Q 538.354 618.26 539.238 616.726 Q 540.122 615.192 541.552 614.23 Q 542.982 613.268 544.724 612.826 Q 546.466 612.384 548.13 612.384 Q 550.886 612.436 552.628 613.06 Q 554.37 613.684 556.034 614.568 L 556.086 619.248 Q 554.214 618.26 552.55 617.532 Q 550.886 616.804 548.702 616.804 Q 546.674 616.804 545.322 617.558 Q 543.97 618.312 543.97 619.768 Q 543.97 621.016 544.724 621.744 Q 545.478 622.472 546.7 622.888 Q 547.922 623.304 549.326 623.72 Q 550.626 624.136 552.03 624.578 Q 553.434 625.02 554.63 625.852 Q 555.826 626.684 556.58 628.036 Q 557.334 629.388 557.334 631.572 Q 557.282 634.484 555.8 636.304 Q 554.318 638.124 551.926 638.956 Q 549.534 639.788 546.986 639.788 Z" style="fill: rgb(65, 61, 81); white-space: pre;"/>
  <path d="M 576.787 639.788 Q 573.199 639.788 570.625 638.618 Q 568.051 637.448 566.647 635.108 Q 565.243 632.768 565.243 629.284 L 565.243 612.904 L 570.703 612.904 L 570.703 628.504 Q 570.703 631.832 572.185 633.418 Q 573.667 635.004 576.787 635.004 Q 579.907 635.004 581.389 633.418 Q 582.871 631.832 582.871 628.504 L 582.871 612.904 L 588.123 612.904 L 588.123 629.284 Q 588.123 634.484 585.133 637.136 Q 582.143 639.788 576.787 639.788 Z" style="fill: rgb(65, 61, 81); white-space: pre;"/>
  <path d="M 604.846 639.788 Q 602.038 639.788 600.088 639.19 Q 598.138 638.592 596.266 637.708 L 596.266 632.56 Q 597.618 633.392 598.918 634.042 Q 600.218 634.692 601.648 635.056 Q 603.078 635.42 604.846 635.42 Q 607.082 635.42 608.356 634.484 Q 609.63 633.548 609.63 632.144 Q 609.63 630.948 608.824 630.272 Q 608.018 629.596 606.77 629.128 Q 605.522 628.66 604.17 628.192 Q 602.766 627.828 601.362 627.334 Q 599.958 626.84 598.788 625.982 Q 597.618 625.124 596.916 623.772 Q 596.214 622.42 596.214 620.444 Q 596.214 618.26 597.098 616.726 Q 597.982 615.192 599.412 614.23 Q 600.842 613.268 602.584 612.826 Q 604.326 612.384 605.99 612.384 Q 608.746 612.436 610.488 613.06 Q 612.23 613.684 613.894 614.568 L 613.946 619.248 Q 612.074 618.26 610.41 617.532 Q 608.746 616.804 606.562 616.804 Q 604.534 616.804 603.182 617.558 Q 601.83 618.312 601.83 619.768 Q 601.83 621.016 602.584 621.744 Q 603.338 622.472 604.56 622.888 Q 605.782 623.304 607.186 623.72 Q 608.486 624.136 609.89 624.578 Q 611.294 625.02 612.49 625.852 Q 613.686 626.684 614.44 628.036 Q 615.194 629.388 615.194 631.572 Q 615.142 634.484 613.66 636.304 Q 612.178 638.124 609.786 638.956 Q 607.394 639.788 604.846 639.788 Z" style="fill: rgb(65, 61, 81); white-space: pre;"/>
  <path d="M 632.411 639.684 Q 628.875 639.684 626.821 637.812 Q 624.767 635.94 624.767 632.3 L 624.767 617.428 L 620.555 617.428 L 620.555 612.904 L 624.767 612.904 L 624.767 605.624 L 630.383 605.624 L 630.383 612.904 L 636.727 612.904 L 636.727 617.428 L 630.383 617.428 L 630.383 631.208 Q 630.383 633.028 631.033 633.938 Q 631.683 634.848 633.451 634.848 Q 634.335 634.848 635.219 634.614 Q 636.103 634.38 636.727 634.016 L 636.727 638.852 Q 635.791 639.268 634.621 639.476 Q 633.451 639.684 632.411 639.684 Z" style="fill: rgb(65, 61, 81); white-space: pre;"/>
  <path d="M 654.035 639.788 Q 652.007 639.788 650.135 639.398 Q 648.263 639.008 646.729 638.072 Q 645.195 637.136 644.285 635.498 Q 643.375 633.86 643.375 631.416 Q 643.375 628.504 644.519 626.632 Q 645.663 624.76 647.795 623.824 Q 649.927 622.888 652.891 622.888 Q 654.867 622.888 656.453 623.2 Q 658.039 623.512 659.313 624.058 Q 660.587 624.604 661.471 625.28 L 662.043 628.868 Q 660.899 628.088 658.975 627.542 Q 657.051 626.996 654.815 626.996 Q 651.851 626.996 650.317 628.036 Q 648.783 629.076 648.783 631.156 Q 648.783 632.716 649.667 633.678 Q 650.551 634.64 651.877 635.082 Q 653.203 635.524 654.659 635.524 Q 657.727 635.524 659.183 635.108 Q 660.639 634.692 660.639 633.184 L 660.639 622.264 Q 660.639 619.508 658.975 618.234 Q 657.311 616.96 654.243 616.96 Q 652.059 616.96 649.719 617.662 Q 647.379 618.364 645.871 619.612 L 645.871 614.516 Q 647.327 613.528 650.109 612.93 Q 652.891 612.332 655.855 612.332 Q 657.311 612.332 658.793 612.618 Q 660.275 612.904 661.575 613.502 Q 662.875 614.1 663.889 615.114 Q 664.903 616.128 665.475 617.584 Q 666.047 619.04 666.047 621.016 L 666.047 633.496 Q 666.047 636.044 664.461 637.422 Q 662.875 638.8 660.171 639.294 Q 657.467 639.788 654.035 639.788 Z" style="fill: rgb(65, 61, 81); white-space: pre;"/>
  <path d="M 675.399 639.008 L 675.399 613.06 L 680.859 613.06 L 680.911 639.008 Z M 675.243 608.744 L 675.243 603.804 L 681.067 603.804 L 681.067 608.744 Z" style="fill: rgb(65, 61, 81); white-space: pre;"/>
  <path d="M 690.259 615.036 Q 691.403 614.464 692.833 613.97 Q 694.263 613.476 695.875 613.112 Q 697.487 612.748 699.151 612.54 Q 700.815 612.332 702.375 612.332 Q 706.067 612.332 708.407 613.346 Q 710.747 614.36 711.891 616.466 Q 713.035 618.572 713.035 621.744 L 713.035 639.008 L 707.575 639.008 L 707.575 622.472 Q 707.575 621.484 707.341 620.522 Q 707.107 619.56 706.457 618.754 Q 705.807 617.948 704.585 617.48 Q 703.363 617.012 701.387 617.012 Q 699.983 617.012 698.501 617.272 Q 697.019 617.532 695.719 618 L 695.719 639.008 L 690.259 639.008 Z" style="fill: rgb(65, 61, 81); white-space: pre;"/>
  <path d="M 731.692 639.788 Q 729.664 639.788 727.792 639.398 Q 725.92 639.008 724.386 638.072 Q 722.852 637.136 721.942 635.498 Q 721.032 633.86 721.032 631.416 Q 721.032 628.504 722.176 626.632 Q 723.32 624.76 725.452 623.824 Q 727.584 622.888 730.548 622.888 Q 732.524 622.888 734.11 623.2 Q 735.696 623.512 736.97 624.058 Q 738.244 624.604 739.128 625.28 L 739.7 628.868 Q 738.556 628.088 736.632 627.542 Q 734.708 626.996 732.472 626.996 Q 729.508 626.996 727.974 628.036 Q 726.44 629.076 726.44 631.156 Q 726.44 632.716 727.324 633.678 Q 728.208 634.64 729.534 635.082 Q 730.86 635.524 732.316 635.524 Q 735.384 635.524 736.84 635.108 Q 738.296 634.692 738.296 633.184 L 738.296 622.264 Q 738.296 619.508 736.632 618.234 Q 734.968 616.96 731.9 616.96 Q 729.716 616.96 727.376 617.662 Q 725.036 618.364 723.528 619.612 L 723.528 614.516 Q 724.984 613.528 727.766 612.93 Q 730.548 612.332 733.512 612.332 Q 734.968 612.332 736.45 612.618 Q 737.932 612.904 739.232 613.502 Q 740.532 614.1 741.546 615.114 Q 742.56 616.128 743.132 617.584 Q 743.704 619.04 743.704 621.016 L 743.704 633.496 Q 743.704 636.044 742.118 637.422 Q 740.532 638.8 737.828 639.294 Q 735.124 639.788 731.692 639.788 Z" style="fill: rgb(65, 61, 81); white-space: pre;"/>
  <path d="M 763.924 639.788 Q 761.792 639.788 759.816 639.528 Q 757.84 639.268 756.28 638.618 Q 754.72 637.968 753.81 636.824 Q 752.9 635.68 752.9 633.86 L 752.9 602.452 L 758.308 602.452 L 758.308 616.544 L 756.904 614.776 Q 757.892 613.996 759.374 613.476 Q 760.856 612.956 762.39 612.644 Q 763.924 612.332 765.016 612.332 Q 770.944 612.332 773.908 615.842 Q 776.872 619.352 776.872 625.696 Q 776.872 629.96 775.754 632.716 Q 774.636 635.472 772.79 637.006 Q 770.944 638.54 768.63 639.164 Q 766.316 639.788 763.924 639.788 Z M 763.664 635.056 Q 766.732 635.056 768.396 633.808 Q 770.06 632.56 770.684 630.506 Q 771.308 628.452 771.308 625.904 Q 771.308 622.992 770.528 621.016 Q 769.748 619.04 768.188 618 Q 766.628 616.96 764.184 616.96 Q 762.832 616.96 761.246 617.324 Q 759.66 617.688 758.308 618.468 L 758.308 632.508 Q 758.308 633.548 759.14 634.12 Q 759.972 634.692 761.194 634.874 Q 762.416 635.056 763.664 635.056 Z" style="fill: rgb(65, 61, 81); white-space: pre;"/>
  <path d="M 784.868 639.008 L 784.868 613.06 L 790.328 613.06 L 790.38 639.008 Z M 784.712 608.744 L 784.712 603.804 L 790.536 603.804 L 790.536 608.744 Z" style="fill: rgb(65, 61, 81); white-space: pre;"/>
  <path d="M 805.151 639.008 L 799.743 639.008 L 799.743 603.024 L 805.151 603.024 Z" style="fill: rgb(65, 61, 81); white-space: pre;"/>
  <path d="M 814.493 639.008 L 814.493 613.06 L 819.953 613.06 L 820.005 639.008 Z M 814.337 608.744 L 814.337 603.804 L 820.161 603.804 L 820.161 608.744 Z" style="fill: rgb(65, 61, 81); white-space: pre;"/>
  <path d="M 838.661 639.684 Q 835.125 639.684 833.071 637.812 Q 831.017 635.94 831.017 632.3 L 831.017 617.428 L 826.805 617.428 L 826.805 612.904 L 831.017 612.904 L 831.017 605.624 L 836.633 605.624 L 836.633 612.904 L 842.977 612.904 L 842.977 617.428 L 836.633 617.428 L 836.633 631.208 Q 836.633 633.028 837.283 633.938 Q 837.933 634.848 839.701 634.848 Q 840.585 634.848 841.469 634.614 Q 842.353 634.38 842.977 634.016 L 842.977 638.852 Q 842.041 639.268 840.871 639.476 Q 839.701 639.684 838.661 639.684 Z" style="fill: rgb(65, 61, 81); white-space: pre;"/>
  <path d="M 854.877 649.096 Q 853.889 649.096 853.005 648.914 Q 852.121 648.732 851.445 648.472 L 851.445 643.792 Q 852.069 644 852.693 644.156 Q 853.317 644.312 854.045 644.312 Q 855.605 644.312 856.645 643.48 Q 857.685 642.648 858.413 641.088 Q 859.141 639.528 859.609 637.344 L 859.713 640.048 L 848.585 612.904 L 854.773 612.904 L 862.313 633.496 L 861.533 633.496 L 868.969 612.904 L 874.637 612.904 L 863.873 640.62 Q 862.573 643.948 861.065 645.794 Q 859.557 647.64 857.971 648.368 Q 856.385 649.096 854.877 649.096 Z" style="fill: rgb(65, 61, 81); white-space: pre;"/>
</svg>