<?xml version="1.0" encoding="utf-8"?>
<svg viewBox="0 0 1280 640" style="enable-background:new 0 0 1000 1000;" xmlns="http://www.w3.org/2000/svg">
  <defs>
    <style type="text/css">
	.st0{opacity:0.7;fill:#FFFFFF;}
	.st1{fill:#413D51;}
	.st2{fill:#8FE3F9;}
	.st3{fill:#B2EBF9;}
	.st4{fill:#A4E0EA;}
	.st5{fill:#7AD1E5;}
	.st6{fill:none;stroke:#413D51;stroke-width:16;stroke-linecap:round;stroke-linejoin:round;stroke-miterlimit:10;}
	.st7{fill:#F7E8AD;}
	.st8{fill:#F7D6A1;}
	.st9{fill:#EFCA92;}
	.st10{fill:#FFFFFF;}
	.st11{opacity:0.89;fill:#EFCA92;}
	.st12{fill:none;stroke:#413D51;stroke-width:8;stroke-linecap:round;stroke-linejoin:round;stroke-miterlimit:10;}
	.st13{opacity:0.31;fill:none;stroke:#72C8D6;stroke-width:8;stroke-linecap:round;stroke-linejoin:round;stroke-miterlimit:10;}
</style>
  </defs>
  <rect class="st0" width="1280" height="640" style="opacity: 1;"/>
  <g transform="matrix(0.563983, 0, 0, 0.563983, 357.720734, -8.566069)" style="">
    <ellipse id="XMLID_2_" class="st2" cx="501.8" cy="487.5" rx="228" ry="205.8"/>
    <ellipse id="XMLID_188_" class="st2" cx="501.8" cy="487.5" rx="228" ry="205.8"/>
    <path id="XMLID_193_" class="st3" d="M507.8,689.3c52.1,0,100.1-15.3,138.5-41l-10.5-24.7c-22-51.9-74.2-85.8-132.1-85.8l0,0 c-57.9,0-110.1,33.9-132.1,85.8l-8.6,20.4C402.3,672.3,452.8,689.3,507.8,689.3z"/>
    <path id="XMLID_189_" class="st4" d="M501.7,470.3l-43.6,64l32.9,43.8c5.4,7.2,16.3,7.2,21.7,0l32.6-43.8L501.7,470.3z"/>
    <path id="XMLID_192_" class="st5" d="M501.8,669.3c-121.5,0-220.7-85.7-227.6-193.8c-0.3,4-0.4,8-0.4,12 c0,113.6,102.1,205.8,228,205.8s228-92.1,228-205.8c0-4-0.1-8-0.4-12C722.5,583.6,623.2,669.3,501.8,669.3z"/>
    <path id="XMLID_76_" class="st4" d="M638.6,628.1c-38.1,25.8-85.5,41.2-136.8,41.2c-50,0-96.2-14.5-133.7-39.1l-5,12.3 c39.4,29.2,89.8,46.8,144.8,46.8c49.7,0,95.7-14.4,133.2-38.8c1.8-1.2,3.5-2.5,5.3-3.8L638.6,628.1z"/>
    <path id="XMLID_186_" class="st5" d="M268.2,488.2c6.4,13.1,15,25.3,25.8,36.2c52.3,52.3,137.2,52.3,189.5,0 c43.8-43.8,50.9-110.3,21.5-161.5"/>
    <path id="XMLID_185_" class="st5" d="M729,503.8c-24,36.1-65,59.8-111.6,59.8c-74,0-134-60-134-134c0-33,11.9-63.2,31.7-86.6"/>
    <ellipse id="XMLID_75_" class="st6" cx="501.8" cy="487.5" rx="228" ry="205.8"/>
    <polygon id="XMLID_74_" class="st1" points="501.7,442.3 458.1,506.3 501.9,564.6 545.4,506.3 &#9;"/>
    <polygon id="XMLID_73_" class="st6" points="501.7,442.3 458.1,506.3 501.9,564.6 545.4,506.3 &#9;"/>
    <path id="XMLID_72_" class="st1" d="M600.7,303.9c-30-14-64.1-21.9-100-21.9s-70,7.9-100,21.9v140.1h200V303.9z"/>
    <g id="XMLID_58_">
      <path id="XMLID_71_" class="st1" d="M613.5,317.9l108.7-3.3c-15.7,39.3-17.8,98.4-4.1,163c-17.4,36.8-54.4,62.9-97.9,64.2l0,0 c-61.8,1.9-113.5-46.7-115.3-108.6l0,0C503,371.4,551.6,319.8,613.5,317.9z"/>
      <path id="XMLID_70_" class="st6" d="M613.5,317.9l108.7-3.3c-15.7,39.3-17.8,98.4-4.1,163c-17.4,36.8-54.4,62.9-97.9,64.2l0,0 c-61.8,1.9-113.5-46.7-115.3-108.6l0,0C503,371.4,551.6,319.8,613.5,317.9z"/>
      <circle id="XMLID_69_" class="st7" cx="617.4" cy="429.7" r="112"/>
      <circle id="XMLID_5_" class="st7" cx="617.4" cy="429.7" r="112"/>
      <path id="XMLID_86_" class="st8" d="M696.6,350.5c-21.5-21.5-49.7-32.4-77.9-32.8c21.2,4.1,41.5,14.3,57.9,30.8 c43.7,43.7,43.7,114.6,0,158.4c-22.2,22.2-51.4,33.1-80.4,32.8c35.3,6.8,73.1-3.5,100.4-30.8C740.3,465.1,740.3,394.2,696.6,350.5 z"/>
      <ellipse id="XMLID_3_" transform="matrix(0.7071 -0.7071 0.7071 0.7071 -130.8246 543.5441)" class="st0" cx="590.7" cy="429.7" rx="84" ry="84.6"/>
      <path id="XMLID_12_" class="st9" d="M711.4,376.6c-3.1-4-9.1-15-12.8-18.7c-44-43.4-114.9-43-158.3,1.1 c-8.6,8.7-15.5,18.5-20.6,29C581.4,366.3,649,371.5,711.4,376.6z"/>
      <circle id="XMLID_68_" class="st6" cx="617.4" cy="429.7" r="112"/>
      <circle id="XMLID_67_" class="st6" cx="617.4" cy="429.7" r="112"/>
      <path id="XMLID_66_" class="st1" d="M706.7,362.1c-3.1-4-6.4-7.9-10.1-11.6c-43.7-43.7-114.6-43.7-158.4,0 c-8.7,8.7-15.6,18.4-20.8,28.8C579.4,358.1,644.3,356.5,706.7,362.1z"/>
      <circle id="XMLID_57_" class="st1" cx="562.9" cy="438.1" r="42"/>
      <circle id="XMLID_56_" class="st10" cx="539.1" cy="438.4" r="14"/>
    </g>
    <g id="XMLID_26_">
      <path id="XMLID_89_" class="st1" d="M388.8,317.9L280,314.6c15.7,39.3,17.8,98.4,4.1,163c17.4,36.8,54.4,62.9,97.9,64.2l0,0 c61.8,1.9,113.5-46.7,115.3-108.6l0,0C499.2,371.4,450.6,319.8,388.8,317.9z"/>
      <path id="XMLID_88_" class="st6" d="M388.8,317.9L280,314.6c15.7,39.3,17.8,98.4,4.1,163c17.4,36.8,54.4,62.9,97.9,64.2l0,0 c61.8,1.9,113.5-46.7,115.3-108.6l0,0C499.2,371.4,450.6,319.8,388.8,317.9z"/>
      <circle id="XMLID_87_" class="st7" cx="384.8" cy="429.7" r="112"/>
      <circle id="XMLID_84_" class="st7" cx="384.8" cy="429.7" r="112"/>
      <path id="XMLID_65_" class="st8" d="M305.6,350.5c21.5-21.5,49.7-32.4,77.9-32.8c-21.2,4.1-41.5,14.3-57.9,30.8 c-43.7,43.7-43.7,114.6,0,158.4c22.2,22.2,51.4,33.1,80.4,32.8c-35.3,6.8-73.1-3.5-100.4-30.8 C261.9,465.1,261.9,394.2,305.6,350.5z"/>
      <ellipse id="XMLID_64_" transform="matrix(0.7071 -0.7071 0.7071 0.7071 -183.3021 416.8521)" class="st0" cx="411.5" cy="429.7" rx="84.6" ry="84"/>
      <path id="XMLID_63_" class="st11" d="M290.9,376.6c3.1-4,9.1-15,12.8-18.7c44-43.4,114.9-43,158.3,1.1c8.6,8.7,15.5,18.5,20.6,29 C420.8,366.3,353.2,371.5,290.9,376.6z"/>
      <circle id="XMLID_62_" class="st6" cx="384.8" cy="429.7" r="112"/>
      <circle id="XMLID_61_" class="st6" cx="384.8" cy="429.7" r="112"/>
      <path id="XMLID_60_" class="st1" d="M295.6,362.1c3.1-4,6.4-7.9,10.1-11.6c43.7-43.7,114.6-43.7,158.4,0 c8.7,8.7,15.6,18.4,20.8,28.8C422.9,358.1,357.9,356.5,295.6,362.1z"/>
      <circle id="XMLID_59_" class="st1" cx="439.4" cy="438.1" r="42"/>
      <circle id="XMLID_37_" class="st10" cx="463.2" cy="438.4" r="14"/>
    </g>
    <path id="XMLID_19_" class="st1" d="M447.9,718.3L447.9,718.3c-8.8,0-16-7.2-16-16v-18c0-8.8,7.2-16,16-16h0c8.8,0,16,7.2,16,16v18 C463.9,711.1,456.8,718.3,447.9,718.3z"/>
    <path id="XMLID_17_" class="st1" d="M415.9,718.3L415.9,718.3c-8.8,0-16-7.2-16-16v-18c0-8.8,7.2-16,16-16h0c8.8,0,16,7.2,16,16v18 C431.9,711.1,424.8,718.3,415.9,718.3z"/>
    <path id="XMLID_16_" class="st1" d="M479.7,718.3L479.7,718.3c-8.8,0-16-7.2-16-16v-18c0-8.8,7.2-16,16-16h0c8.8,0,16,7.2,16,16v18 C495.7,711.1,488.5,718.3,479.7,718.3z"/>
    <path id="XMLID_15_" class="st1" d="M521.9,718.3L521.9,718.3c-8.8,0-16-7.2-16-16v-18c0-8.8,7.2-16,16-16h0c8.8,0,16,7.2,16,16v18 C537.9,711.1,530.7,718.3,521.9,718.3z"/>
    <path id="XMLID_14_" class="st1" d="M553.7,718.3L553.7,718.3c-8.8,0-16-7.2-16-16v-18c0-8.8,7.2-16,16-16h0c8.8,0,16,7.2,16,16v18 C569.7,711.1,562.5,718.3,553.7,718.3z"/>
    <path id="XMLID_13_" class="st1" d="M585.7,718.3L585.7,718.3c-8.8,0-16-7.2-16-16v-18c0-8.8,7.2-16,16-16h0c8.8,0,16,7.2,16,16v18 C601.7,711.1,594.5,718.3,585.7,718.3z"/>
    <path id="XMLID_11_" class="st12" d="M491.9,587.6c0,8.4-6.8,15.2-15.2,15.2c-8.4,0-15.2-6.8-15.2-15.2"/>
    <path id="XMLID_9_" class="st12" d="M538.4,587.6c0,8.4-6.8,15.2-15.2,15.2c-8.4,0-15.2-6.8-15.2-15.2"/>
    <path id="XMLID_10_" class="st13" d="M323,548.8c-2.2,4.7-7.7,6.8-12.5,4.6s-6.8-7.7-4.6-12.5"/>
    <path id="XMLID_1_" class="st13" d="M352.8,564.3c-2.2,4.7-7.7,6.8-12.5,4.6c-4.7-2.2-6.8-7.7-4.6-12.5"/>
    <path id="XMLID_78_" class="st13" d="M335.5,576.2c-2.2,4.7-7.7,6.8-12.5,4.6c-4.7-2.2-6.8-7.7-4.6-12.5"/>
    <path id="XMLID_77_" class="st13" d="M361.7,596.1c-2.2,4.7-7.7,6.8-12.5,4.6c-4.7-2.2-6.8-7.7-4.6-12.5"/>
    <path id="XMLID_79_" class="st13" d="M381.7,578.1c-2.2,4.7-7.7,6.8-12.5,4.6c-4.7-2.2-6.8-7.7-4.6-12.5"/>
    <path id="XMLID_85_" class="st13" d="M683.7,550.8c2.2,4.7,7.7,6.8,12.5,4.6s6.8-7.7,4.6-12.5"/>
    <path id="XMLID_83_" class="st13" d="M654,566.3c2.2,4.7,7.7,6.8,12.5,4.6c4.7-2.2,6.8-7.7,4.6-12.5"/>
    <path id="XMLID_82_" class="st13" d="M671.2,578.2c2.2,4.7,7.7,6.8,12.5,4.6c4.7-2.2,6.8-7.7,4.6-12.5"/>
    <path id="XMLID_81_" class="st13" d="M645.1,598.1c2.2,4.7,7.7,6.8,12.5,4.6c4.7-2.2,6.8-7.7,4.6-12.5"/>
    <path id="XMLID_80_" class="st13" d="M625.1,580.1c2.2,4.7,7.7,6.8,12.5,4.6c4.7-2.2,6.8-7.7,4.6-12.5"/>
    <path id="XMLID_8_" class="st12" d="M468.7,624.1c0,8.4-6.8,15.2-15.2,15.2c-8.4,0-15.2-6.8-15.2-15.2"/>
    <path id="XMLID_7_" class="st12" d="M515.2,624.1c0,8.4-6.8,15.2-15.2,15.2s-15.2-6.8-15.2-15.2"/>
    <path id="XMLID_6_" class="st12" d="M561.7,624.1c0,8.4-6.8,15.2-15.2,15.2c-8.4,0-15.2-6.8-15.2-15.2"/>
  </g>
  <path d="M 449.614 432.305 L 442.084 432.305 Q 441.13 432.305 440.703 431.878 Q 440.277 431.452 440.277 430.498 L 440.277 397.968 Q 440.277 397.014 440.703 396.588 Q 441.13 396.161 442.084 396.161 L 447.305 396.161 Q 448.259 396.161 448.936 396.462 Q 449.614 396.763 450.267 397.516 L 460.005 408.661 L 460.005 397.968 Q 460.005 397.014 460.432 396.588 Q 460.859 396.161 461.813 396.161 L 469.343 396.161 Q 470.296 396.161 470.723 396.588 Q 471.15 397.014 471.15 397.968 L 471.15 430.498 Q 471.15 431.452 470.723 431.878 Q 470.296 432.305 469.343 432.305 L 461.813 432.305 Q 460.859 432.305 460.432 431.878 Q 460.005 431.452 460.005 430.498 L 460.005 424.323 L 451.421 413.932 L 451.421 430.498 Q 451.421 431.452 450.994 431.878 Q 450.568 432.305 449.614 432.305 Z" style="fill: rgb(65, 61, 81); white-space: pre;"/>
  <path d="M 494.825 432.305 L 478.962 432.305 Q 478.008 432.305 477.581 431.878 Q 477.154 431.452 477.154 430.498 L 477.154 424.624 Q 477.154 423.671 477.581 423.244 Q 478.008 422.817 478.962 422.817 L 492.465 422.817 Q 493.118 422.817 493.444 422.39 Q 493.771 421.964 493.771 421.361 Q 493.771 420.508 493.444 420.106 Q 493.118 419.705 492.465 419.655 L 484.935 418.6 Q 481.421 418.098 479.288 416.291 Q 477.154 414.484 477.154 410.267 L 477.154 404.996 Q 477.154 400.729 479.915 398.445 Q 482.676 396.161 487.546 396.161 L 501.602 396.161 Q 502.556 396.161 502.982 396.588 Q 503.409 397.014 503.409 397.968 L 503.409 403.942 Q 503.409 404.896 502.982 405.322 Q 502.556 405.749 501.602 405.749 L 489.905 405.749 Q 489.253 405.749 488.901 406.176 Q 488.55 406.603 488.55 407.255 Q 488.55 407.908 488.901 408.36 Q 489.253 408.811 489.905 408.862 L 497.385 409.866 Q 500.899 410.368 503.058 412.175 Q 505.216 413.982 505.216 418.199 L 505.216 423.47 Q 505.216 427.737 502.43 430.021 Q 499.644 432.305 494.825 432.305 Z" style="fill: rgb(65, 61, 81); white-space: pre;"/>
  <path d="M 541.456 422.817 Q 541.456 425.126 540.778 427.009 Q 540.1 428.891 538.368 430.222 Q 536.636 431.552 533.624 432.305 Q 530.612 433.058 525.944 433.058 Q 521.275 433.058 518.263 432.305 Q 515.251 431.552 513.519 430.222 Q 511.787 428.891 511.11 427.009 Q 510.432 425.126 510.432 422.817 L 510.432 397.968 Q 510.432 397.014 510.859 396.588 Q 511.285 396.161 512.239 396.161 L 520.121 396.161 Q 521.074 396.161 521.501 396.588 Q 521.928 397.014 521.928 397.968 L 521.928 420.859 Q 521.928 421.863 522.681 422.541 Q 523.434 423.219 526.044 423.219 Q 528.705 423.219 529.458 422.541 Q 530.211 421.863 530.211 420.859 L 530.211 397.968 Q 530.211 397.014 530.638 396.588 Q 531.064 396.161 532.018 396.161 L 539.648 396.161 Q 540.602 396.161 541.029 396.588 Q 541.456 397.014 541.456 397.968 Z" style="fill: rgb(65, 61, 81); white-space: pre;"/>
  <path d="M 564.887 432.305 L 549.024 432.305 Q 548.07 432.305 547.644 431.878 Q 547.217 431.452 547.217 430.498 L 547.217 424.624 Q 547.217 423.671 547.644 423.244 Q 548.07 422.817 549.024 422.817 L 562.528 422.817 Q 563.181 422.817 563.507 422.39 Q 563.833 421.964 563.833 421.361 Q 563.833 420.508 563.507 420.106 Q 563.181 419.705 562.528 419.655 L 554.998 418.6 Q 551.484 418.098 549.35 416.291 Q 547.217 414.484 547.217 410.267 L 547.217 404.996 Q 547.217 400.729 549.978 398.445 Q 552.739 396.161 557.608 396.161 L 571.664 396.161 Q 572.618 396.161 573.045 396.588 Q 573.472 397.014 573.472 397.968 L 573.472 403.942 Q 573.472 404.896 573.045 405.322 Q 572.618 405.749 571.664 405.749 L 559.968 405.749 Q 559.315 405.749 558.964 406.176 Q 558.612 406.603 558.612 407.255 Q 558.612 407.908 558.964 408.36 Q 559.315 408.811 559.968 408.862 L 567.448 409.866 Q 570.962 410.368 573.12 412.175 Q 575.279 413.982 575.279 418.199 L 575.279 423.47 Q 575.279 427.737 572.493 430.021 Q 569.707 432.305 564.887 432.305 Z" style="fill: rgb(65, 61, 81); white-space: pre;"/>
  <path d="M 597.314 432.305 L 589.181 432.305 Q 588.227 432.305 587.801 431.878 Q 587.374 431.452 587.374 430.498 L 587.374 405.85 L 579.995 405.85 Q 579.041 405.85 578.614 405.423 Q 578.187 404.996 578.187 404.042 L 578.187 397.968 Q 578.187 397.014 578.614 396.588 Q 579.041 396.161 579.995 396.161 L 606.5 396.161 Q 607.454 396.161 607.881 396.588 Q 608.307 397.014 608.307 397.968 L 608.307 404.042 Q 608.307 404.996 607.881 405.423 Q 607.454 405.85 606.5 405.85 L 599.121 405.85 L 599.121 430.498 Q 599.121 431.452 598.694 431.878 Q 598.267 432.305 597.314 432.305 Z" style="fill: rgb(65, 61, 81); white-space: pre;"/>
  <path d="M 624.254 406.703 L 621.895 414.333 L 629.776 414.333 L 627.417 406.703 Q 627.216 406.251 626.99 406.05 Q 626.764 405.85 626.463 405.85 L 625.208 405.85 Q 624.907 405.85 624.681 406.05 Q 624.455 406.251 624.254 406.703 Z M 621.393 430.498 Q 621.393 431.452 620.966 431.878 Q 620.539 432.305 619.585 432.305 L 612.206 432.305 Q 611.252 432.305 610.825 431.878 Q 610.399 431.452 610.399 430.498 L 610.399 417.245 Q 610.399 415.739 610.876 413.781 Q 611.353 411.823 612.357 409.213 L 616.724 397.818 Q 617.025 396.964 617.653 396.563 Q 618.28 396.161 619.284 396.161 L 632.788 396.161 Q 633.742 396.161 634.369 396.563 Q 634.997 396.964 635.298 397.818 L 639.665 409.213 Q 640.669 411.823 641.146 413.781 Q 641.623 415.739 641.623 417.245 L 641.623 430.498 Q 641.623 431.452 641.196 431.878 Q 640.77 432.305 639.816 432.305 L 632.236 432.305 Q 631.232 432.305 630.755 431.878 Q 630.278 431.452 630.278 430.498 L 630.278 423.47 L 621.393 423.47 Z" style="fill: rgb(65, 61, 81); white-space: pre;"/>
  <path d="M 648.796 432.305 Q 647.843 432.305 647.416 431.878 Q 646.989 431.452 646.989 430.498 L 646.989 424.524 Q 646.989 423.57 647.416 423.143 Q 647.843 422.717 648.796 422.717 L 653.766 422.717 L 653.766 405.85 L 648.796 405.85 Q 647.843 405.85 647.416 405.423 Q 646.989 404.996 646.989 404.042 L 646.989 397.968 Q 646.989 397.014 647.416 396.588 Q 647.843 396.161 648.796 396.161 L 670.182 396.161 Q 671.135 396.161 671.562 396.588 Q 671.989 397.014 671.989 397.968 L 671.989 404.042 Q 671.989 404.996 671.562 405.423 Q 671.135 405.85 670.182 405.85 L 665.312 405.85 L 665.312 422.717 L 670.182 422.717 Q 671.135 422.717 671.562 423.143 Q 671.989 423.57 671.989 424.524 L 671.989 430.498 Q 671.989 431.452 671.562 431.878 Q 671.135 432.305 670.182 432.305 Z" style="fill: rgb(65, 61, 81); white-space: pre;"/>
  <path d="M 687.489 432.305 L 679.959 432.305 Q 679.005 432.305 678.578 431.878 Q 678.152 431.452 678.152 430.498 L 678.152 397.968 Q 678.152 397.014 678.578 396.588 Q 679.005 396.161 679.959 396.161 L 685.18 396.161 Q 686.134 396.161 686.811 396.462 Q 687.489 396.763 688.142 397.516 L 697.88 408.661 L 697.88 397.968 Q 697.88 397.014 698.307 396.588 Q 698.734 396.161 699.688 396.161 L 707.218 396.161 Q 708.171 396.161 708.598 396.588 Q 709.025 397.014 709.025 397.968 L 709.025 430.498 Q 709.025 431.452 708.598 431.878 Q 708.171 432.305 707.218 432.305 L 699.688 432.305 Q 698.734 432.305 698.307 431.878 Q 697.88 431.452 697.88 430.498 L 697.88 424.323 L 689.296 413.932 L 689.296 430.498 Q 689.296 431.452 688.869 431.878 Q 688.443 432.305 687.489 432.305 Z" style="fill: rgb(65, 61, 81); white-space: pre;"/>
  <path d="M 727.193 432.305 L 717.053 432.305 Q 716.099 432.305 715.673 431.878 Q 715.246 431.452 715.246 430.498 L 715.246 420.307 Q 715.246 419.353 715.673 418.927 Q 716.099 418.5 717.053 418.5 L 727.193 418.5 Q 728.147 418.5 728.574 418.927 Q 729.001 419.353 729.001 420.307 L 729.001 430.498 Q 729.001 431.452 728.574 431.878 Q 728.147 432.305 727.193 432.305 Z" style="fill: rgb(65, 61, 81); white-space: pre;"/>
  <path d="M 759.26 432.305 L 747.011 432.305 Q 740.736 432.305 737.699 429.795 Q 734.662 427.285 734.662 422.064 L 734.662 406.452 Q 734.662 401.231 737.699 398.696 Q 740.736 396.161 747.011 396.161 L 759.26 396.161 Q 760.214 396.161 760.641 396.588 Q 761.067 397.014 761.067 397.968 L 761.067 404.042 Q 761.067 404.996 760.641 405.423 Q 760.214 405.85 759.26 405.85 L 749.17 405.85 Q 747.614 405.85 746.861 406.477 Q 746.108 407.105 746.108 408.36 L 746.108 420.307 Q 746.108 421.562 746.861 422.139 Q 747.614 422.717 749.17 422.717 L 759.26 422.717 Q 760.214 422.717 760.641 423.143 Q 761.067 423.57 761.067 424.524 L 761.067 430.498 Q 761.067 431.452 760.641 431.878 Q 760.214 432.305 759.26 432.305 Z" style="fill: rgb(65, 61, 81); white-space: pre;"/>
  <path d="M 797.102 422.817 Q 797.102 425.126 796.424 427.009 Q 795.747 428.891 794.015 430.222 Q 792.283 431.552 789.246 432.305 Q 786.209 433.058 781.54 433.058 Q 776.871 433.058 773.809 432.305 Q 770.747 431.552 769.015 430.222 Q 767.283 428.891 766.605 427.009 Q 765.928 425.126 765.928 422.817 L 765.928 405.699 Q 765.928 403.39 766.605 401.507 Q 767.283 399.625 769.015 398.269 Q 770.747 396.914 773.809 396.161 Q 776.871 395.408 781.54 395.408 Q 786.209 395.408 789.246 396.161 Q 792.283 396.914 794.015 398.269 Q 795.747 399.625 796.424 401.507 Q 797.102 403.39 797.102 405.699 Z M 777.323 421.01 Q 777.323 422.014 778.076 422.692 Q 778.829 423.369 781.54 423.369 Q 784.251 423.369 785.004 422.692 Q 785.757 422.014 785.757 421.01 L 785.757 407.506 Q 785.757 406.552 785.004 405.875 Q 784.251 405.197 781.54 405.197 Q 778.829 405.197 778.076 405.875 Q 777.323 406.552 777.323 407.506 Z" style="fill: rgb(65, 61, 81); white-space: pre;"/>
  <path d="M 812.767 432.305 L 805.287 432.305 Q 804.333 432.305 803.907 431.878 Q 803.48 431.452 803.48 430.498 L 803.48 397.968 Q 803.48 397.014 803.907 396.588 Q 804.333 396.161 805.287 396.161 L 813.369 396.161 Q 814.173 396.161 814.7 396.512 Q 815.227 396.864 815.679 397.667 L 820.197 405.85 Q 820.448 406.301 820.623 406.502 Q 820.799 406.703 821.1 406.703 L 821.552 406.703 Q 821.853 406.703 822.029 406.502 Q 822.205 406.301 822.456 405.85 L 826.923 397.667 Q 827.375 396.864 827.902 396.512 Q 828.429 396.161 829.233 396.161 L 837.365 396.161 Q 838.319 396.161 838.745 396.588 Q 839.172 397.014 839.172 397.968 L 839.172 430.498 Q 839.172 431.452 838.745 431.878 Q 838.319 432.305 837.365 432.305 L 829.634 432.305 Q 828.68 432.305 828.254 431.878 Q 827.827 431.452 827.827 430.498 L 827.827 412.827 L 824.865 418.299 Q 824.413 419.153 823.786 419.529 Q 823.158 419.906 822.205 419.906 L 820.197 419.906 Q 819.243 419.906 818.615 419.529 Q 817.988 419.153 817.536 418.299 L 814.574 412.827 L 814.574 430.498 Q 814.574 431.452 814.147 431.878 Q 813.721 432.305 812.767 432.305 Z" style="fill: rgb(65, 61, 81); white-space: pre;"/>
  <path d="M 445.219 469.35 C 443.835 469.35 442.633 469.069 441.613 468.508 C 440.594 467.947 439.809 467.114 439.256 466.011 C 438.705 464.907 438.429 463.56 438.429 461.97 C 438.429 459.519 439.004 457.663 440.154 456.4 C 441.305 455.137 442.909 454.506 444.967 454.506 C 446.482 454.506 447.707 454.843 448.643 455.516 C 449.578 456.19 450.256 457.13 450.677 458.336 C 451.098 459.543 451.299 460.951 451.28 462.559 L 440.197 462.559 L 440.113 460.371 L 449.036 460.371 L 448.334 461.072 C 448.278 459.632 447.979 458.579 447.436 457.915 C 446.894 457.251 446.043 456.919 444.883 456.919 C 444.135 456.919 443.498 457.073 442.975 457.382 C 442.451 457.691 442.053 458.215 441.782 458.953 C 441.511 459.692 441.375 460.707 441.375 461.998 C 441.375 463.569 441.74 464.762 442.47 465.575 C 443.199 466.389 444.275 466.796 445.696 466.796 C 446.332 466.796 446.926 466.74 447.478 466.628 C 448.03 466.516 448.54 466.37 449.007 466.192 C 449.475 466.015 449.877 465.842 450.214 465.674 L 450.214 468.396 C 449.559 468.676 448.82 468.905 447.997 469.083 C 447.174 469.261 446.248 469.35 445.219 469.35 Z" style="fill: rgb(65, 61, 81); white-space: pre;"/>
  <path d="M 455.728 455.993 C 456.14 455.788 456.603 455.596 457.117 455.418 C 457.631 455.24 458.179 455.086 458.759 454.955 C 459.338 454.824 459.928 454.721 460.526 454.646 C 461.125 454.572 461.705 454.534 462.266 454.534 C 463.594 454.534 464.679 454.716 465.521 455.081 C 466.363 455.446 466.989 456.007 467.401 456.764 C 467.812 457.522 468.018 458.472 468.018 459.613 L 468.018 468.929 L 465.072 468.929 L 465.072 460.006 C 465.072 459.65 465.03 459.3 464.945 458.953 C 464.861 458.607 464.702 458.289 464.468 457.999 C 464.235 457.709 463.898 457.48 463.458 457.312 C 463.019 457.144 462.444 457.06 461.733 457.06 C 461.228 457.06 460.709 457.106 460.175 457.2 C 459.642 457.293 459.142 457.424 458.674 457.593 L 458.674 468.929 L 455.728 468.929 L 455.728 455.993 Z" style="fill: rgb(65, 61, 81); white-space: pre;"/>
  <path d="M 477.707 468.929 L 471.787 454.843 L 474.93 454.843 L 479.756 466.544 L 479.054 466.628 L 483.544 454.843 L 486.602 454.843 L 480.654 468.929 L 477.707 468.929 Z" style="fill: rgb(65, 61, 81); white-space: pre;"/>
  <path d="M 490.66 468.929 L 490.66 454.927 L 493.606 454.927 L 493.634 468.929 L 490.66 468.929 Z M 490.576 452.598 L 490.576 449.933 L 493.719 449.933 L 493.719 452.598 L 490.576 452.598 Z" style="fill: rgb(65, 61, 81); white-space: pre;"/>
  <path d="M 498.936 468.929 L 498.936 456.134 C 499.179 455.984 499.628 455.778 500.283 455.516 C 500.937 455.254 501.714 455.025 502.612 454.828 C 503.509 454.632 504.417 454.534 505.333 454.534 C 505.801 454.534 506.184 454.572 506.484 454.646 C 506.783 454.721 507.036 454.805 507.241 454.899 L 507.241 457.256 C 506.811 457.2 506.362 457.158 505.894 457.129 C 505.427 457.102 504.959 457.102 504.492 457.129 C 504.024 457.158 503.566 457.2 503.117 457.256 C 502.668 457.312 502.256 457.368 501.882 457.424 L 501.882 468.929 L 498.936 468.929 Z" style="fill: rgb(65, 61, 81); white-space: pre;"/>
  <path d="M 516.444 469.35 C 514.162 469.35 512.464 468.704 511.351 467.414 C 510.238 466.123 509.682 464.28 509.682 461.886 C 509.682 459.342 510.257 457.476 511.407 456.287 C 512.557 455.1 514.218 454.506 516.388 454.506 C 517.94 454.506 519.222 454.791 520.232 455.362 C 521.242 455.932 521.99 456.77 522.477 457.873 C 522.963 458.977 523.206 460.314 523.206 461.886 C 523.206 464.262 522.621 466.099 521.452 467.399 C 520.283 468.699 518.614 469.35 516.444 469.35 Z M 516.416 466.852 C 517.37 466.852 518.127 466.642 518.689 466.221 C 519.25 465.8 519.656 465.216 519.909 464.467 C 520.162 463.719 520.288 462.859 520.288 461.886 C 520.288 460.801 520.157 459.894 519.895 459.164 C 519.633 458.435 519.222 457.887 518.661 457.522 C 518.099 457.158 517.351 456.975 516.416 456.975 C 515.48 456.975 514.732 457.172 514.171 457.565 C 513.61 457.958 513.208 458.519 512.964 459.248 C 512.721 459.978 512.6 460.857 512.6 461.886 C 512.6 463.438 512.89 464.654 513.47 465.534 C 514.049 466.413 515.032 466.852 516.416 466.852 Z" style="fill: rgb(65, 61, 81); white-space: pre;"/>
  <path d="M 527.691 455.993 C 528.102 455.788 528.565 455.596 529.079 455.418 C 529.594 455.24 530.141 455.086 530.721 454.955 C 531.301 454.824 531.89 454.721 532.489 454.646 C 533.088 454.572 533.667 454.534 534.229 454.534 C 535.557 454.534 536.642 454.716 537.484 455.081 C 538.325 455.446 538.952 456.007 539.364 456.764 C 539.775 457.522 539.981 458.472 539.981 459.613 L 539.981 468.929 L 537.035 468.929 L 537.035 460.006 C 537.035 459.65 536.992 459.3 536.908 458.953 C 536.824 458.607 536.665 458.289 536.431 457.999 C 536.197 457.709 535.861 457.48 535.421 457.312 C 534.981 457.144 534.406 457.06 533.696 457.06 C 533.19 457.06 532.671 457.106 532.138 457.2 C 531.605 457.293 531.105 457.424 530.637 457.593 L 530.637 468.929 L 527.691 468.929 L 527.691 455.993 Z" style="fill: rgb(65, 61, 81); white-space: pre;"/>
  <path d="M 557.404 459.613 L 557.404 468.929 L 554.458 468.929 L 554.458 460.006 C 554.458 459.65 554.415 459.3 554.331 458.953 C 554.247 458.607 554.088 458.289 553.854 457.999 C 553.62 457.709 553.284 457.48 552.844 457.312 C 552.404 457.144 551.829 457.06 551.118 457.06 C 550.613 457.06 550.108 457.106 549.603 457.2 C 549.098 457.293 548.612 457.424 548.144 457.593 L 548.144 468.929 L 545.198 468.929 L 545.198 455.993 C 545.609 455.788 546.072 455.596 546.586 455.418 C 547.101 455.24 547.648 455.086 548.228 454.955 C 548.808 454.824 549.397 454.721 549.996 454.646 C 550.595 454.572 551.175 454.534 551.736 454.534 C 553.064 454.534 554.14 454.716 554.963 455.081 C 555.786 455.446 556.398 456.007 556.8 456.764 C 557.203 457.522 557.404 458.472 557.404 459.613 Z M 554.037 456.723 C 554.635 456.237 555.294 455.834 556.014 455.516 C 556.735 455.198 557.483 454.955 558.259 454.787 C 559.036 454.618 559.798 454.534 560.546 454.534 C 561.875 454.534 562.95 454.716 563.773 455.081 C 564.596 455.446 565.209 456.007 565.611 456.764 C 566.013 457.522 566.214 458.472 566.214 459.613 L 566.214 468.929 L 563.268 468.929 L 563.268 460.006 C 563.268 459.65 563.226 459.3 563.141 458.953 C 563.058 458.607 562.899 458.289 562.664 457.999 C 562.431 457.709 562.094 457.48 561.654 457.312 C 561.215 457.144 560.64 457.06 559.929 457.06 C 559.424 457.06 558.919 457.134 558.414 457.284 C 557.909 457.434 557.422 457.668 556.955 457.986 L 554.037 456.723 Z" style="fill: rgb(65, 61, 81); white-space: pre;"/>
  <path d="M 577.504 469.35 C 576.12 469.35 574.918 469.069 573.898 468.508 C 572.879 467.947 572.093 467.114 571.541 466.011 C 570.989 464.907 570.714 463.56 570.714 461.97 C 570.714 459.519 571.289 457.663 572.439 456.4 C 573.59 455.137 575.194 454.506 577.251 454.506 C 578.767 454.506 579.992 454.843 580.927 455.516 C 581.863 456.19 582.54 457.13 582.961 458.336 C 583.382 459.543 583.583 460.951 583.565 462.559 L 572.481 462.559 L 572.397 460.371 L 581.32 460.371 L 580.619 461.072 C 580.562 459.632 580.263 458.579 579.721 457.915 C 579.178 457.251 578.327 456.919 577.167 456.919 C 576.419 456.919 575.783 457.073 575.259 457.382 C 574.735 457.691 574.338 458.215 574.066 458.953 C 573.795 459.692 573.66 460.707 573.66 461.998 C 573.66 463.569 574.025 464.762 574.754 465.575 C 575.484 466.389 576.559 466.796 577.981 466.796 C 578.617 466.796 579.211 466.74 579.762 466.628 C 580.314 466.516 580.824 466.37 581.292 466.192 C 581.76 466.015 582.162 465.842 582.499 465.674 L 582.499 468.396 C 581.844 468.676 581.105 468.905 580.282 469.083 C 579.459 469.261 578.533 469.35 577.504 469.35 Z" style="fill: rgb(65, 61, 81); white-space: pre;"/>
  <path d="M 588.013 455.993 C 588.424 455.788 588.887 455.596 589.401 455.418 C 589.916 455.24 590.463 455.086 591.043 454.955 C 591.623 454.824 592.212 454.721 592.811 454.646 C 593.409 454.572 593.989 454.534 594.551 454.534 C 595.879 454.534 596.964 454.716 597.805 455.081 C 598.647 455.446 599.274 456.007 599.685 456.764 C 600.097 457.522 600.303 458.472 600.303 459.613 L 600.303 468.929 L 597.356 468.929 L 597.356 460.006 C 597.356 459.65 597.314 459.3 597.23 458.953 C 597.146 458.607 596.987 458.289 596.753 457.999 C 596.519 457.709 596.182 457.48 595.743 457.312 C 595.303 457.144 594.728 457.06 594.017 457.06 C 593.512 457.06 592.993 457.106 592.46 457.2 C 591.927 457.293 591.427 457.424 590.959 457.593 L 590.959 468.929 L 588.013 468.929 L 588.013 455.993 Z" style="fill: rgb(65, 61, 81); white-space: pre;"/>
  <path d="M 610.541 469.293 C 609.269 469.293 608.264 468.957 607.526 468.283 C 606.786 467.61 606.417 466.618 606.417 465.309 L 606.417 457.284 L 604.144 457.284 L 604.144 454.843 L 606.417 454.843 L 606.417 450.915 L 609.447 450.915 L 609.447 454.843 L 612.87 454.843 L 612.87 457.284 L 609.447 457.284 L 609.447 464.72 C 609.447 465.375 609.564 465.865 609.798 466.192 C 610.032 466.52 610.467 466.684 611.103 466.684 C 611.421 466.684 611.739 466.642 612.057 466.557 C 612.375 466.473 612.646 466.366 612.87 466.235 L 612.87 468.845 C 612.534 468.994 612.155 469.106 611.734 469.181 C 611.313 469.256 610.916 469.293 610.541 469.293 Z" style="fill: rgb(65, 61, 81); white-space: pre;"/>
  <path d="M 638.155 468.929 L 629.344 458.322 C 628.933 457.817 628.526 457.219 628.123 456.526 C 627.721 455.834 627.52 455.152 627.52 454.478 C 627.52 453.655 627.745 452.902 628.194 452.219 C 628.643 451.536 629.246 450.989 630.003 450.578 C 630.761 450.166 631.608 449.961 632.543 449.961 C 633.478 449.961 634.306 450.148 635.026 450.522 C 635.746 450.896 636.317 451.41 636.737 452.065 C 637.159 452.72 637.369 453.449 637.369 454.254 C 637.369 455.021 637.196 455.68 636.85 456.231 C 636.504 456.784 636.022 457.289 635.405 457.747 C 634.788 458.205 634.058 458.687 633.216 459.192 L 631.982 457.48 C 632.73 457.069 633.291 456.695 633.665 456.358 C 634.039 456.021 634.287 455.699 634.408 455.39 C 634.53 455.081 634.591 454.777 634.591 454.478 C 634.591 453.917 634.399 453.459 634.016 453.103 C 633.632 452.748 633.151 452.57 632.571 452.57 C 631.991 452.57 631.5 452.762 631.097 453.145 C 630.696 453.529 630.495 453.992 630.495 454.534 C 630.495 454.777 630.593 455.067 630.789 455.404 C 630.985 455.741 631.21 456.082 631.462 456.428 C 631.715 456.774 631.954 457.078 632.178 457.34 L 641.859 468.929 L 638.155 468.929 Z M 631.589 469.209 C 630.579 469.209 629.7 469.05 628.951 468.732 C 628.203 468.414 627.59 467.989 627.113 467.455 C 626.636 466.922 626.276 466.347 626.033 465.73 C 625.79 465.113 625.668 464.514 625.668 463.934 C 625.668 463.317 625.794 462.676 626.047 462.012 C 626.3 461.348 626.739 460.689 627.365 460.034 C 627.992 459.379 628.858 458.771 629.961 458.21 L 631.813 459.866 C 631.009 460.314 630.387 460.777 629.947 461.254 C 629.508 461.731 629.204 462.18 629.035 462.601 C 628.867 463.022 628.783 463.401 628.783 463.738 C 628.783 463.962 628.825 464.238 628.909 464.565 C 628.993 464.893 629.148 465.22 629.372 465.547 C 629.597 465.875 629.924 466.146 630.354 466.361 C 630.785 466.576 631.336 466.684 632.01 466.684 C 632.758 466.684 633.469 466.483 634.142 466.08 C 634.816 465.678 635.358 465.253 635.77 464.804 L 637.341 466.684 C 636.93 467.133 636.448 467.549 635.896 467.932 C 635.344 468.316 634.708 468.625 633.987 468.858 C 633.268 469.092 632.468 469.209 631.589 469.209 Z M 636.976 463.485 C 637.201 463.13 637.388 462.76 637.537 462.376 C 637.687 461.993 637.809 461.643 637.902 461.325 C 637.996 461.007 638.061 460.773 638.099 460.623 L 640.484 460.623 C 640.371 461.259 640.152 461.993 639.824 462.825 C 639.497 463.658 639.09 464.458 638.604 465.225 L 636.976 463.485 Z" style="fill: rgb(65, 61, 81); white-space: pre;"/>
  <path d="M 659.054 469.35 C 658.044 469.35 657.188 469.242 656.487 469.026 C 655.785 468.812 655.098 468.545 654.424 468.227 L 654.424 465.449 C 654.911 465.749 655.388 466.015 655.855 466.249 C 656.323 466.483 656.814 466.665 657.329 466.796 C 657.843 466.927 658.418 466.993 659.054 466.993 C 659.859 466.993 660.49 466.824 660.949 466.488 C 661.407 466.151 661.636 465.73 661.636 465.225 C 661.636 464.795 661.491 464.458 661.201 464.215 C 660.911 463.972 660.541 463.766 660.092 463.597 C 659.643 463.429 659.176 463.261 658.689 463.092 C 658.184 462.961 657.679 462.807 657.174 462.629 C 656.669 462.452 656.206 462.208 655.786 461.899 C 655.365 461.591 655.028 461.194 654.776 460.707 C 654.523 460.221 654.396 459.622 654.396 458.912 C 654.396 458.126 654.555 457.457 654.873 456.905 C 655.191 456.353 655.608 455.904 656.122 455.558 C 656.637 455.212 657.207 454.96 657.834 454.8 C 658.46 454.642 659.073 454.562 659.671 454.562 C 660.663 454.581 661.472 454.703 662.099 454.927 C 662.725 455.152 663.338 455.423 663.937 455.741 L 663.965 458.266 C 663.291 457.911 662.655 457.602 662.057 457.34 C 661.458 457.078 660.766 456.947 659.98 456.947 C 659.251 456.947 658.643 457.083 658.156 457.354 C 657.67 457.625 657.427 458.023 657.427 458.547 C 657.427 458.996 657.563 459.351 657.834 459.613 C 658.105 459.875 658.46 460.081 658.9 460.23 C 659.34 460.38 659.812 460.53 660.317 460.679 C 660.785 460.829 661.271 460.983 661.776 461.142 C 662.281 461.301 662.749 461.53 663.179 461.83 C 663.609 462.129 663.96 462.522 664.232 463.008 C 664.503 463.495 664.638 464.131 664.638 464.916 C 664.619 465.964 664.344 466.815 663.811 467.47 C 663.277 468.124 662.58 468.601 661.72 468.901 C 660.859 469.2 659.971 469.35 659.054 469.35 Z" style="fill: rgb(65, 61, 81); white-space: pre;"/>
  <path d="M 675.381 469.35 C 674.09 469.35 672.982 469.139 672.056 468.718 C 671.13 468.297 670.414 467.666 669.909 466.824 C 669.404 465.982 669.152 464.935 669.152 463.682 L 669.152 454.843 L 672.098 454.843 L 672.098 463.261 C 672.098 464.458 672.365 465.342 672.898 465.912 C 673.431 466.483 674.258 466.768 675.381 466.768 C 676.503 466.768 677.331 466.483 677.865 465.912 C 678.397 465.342 678.664 464.458 678.664 463.261 L 678.664 454.843 L 681.498 454.843 L 681.498 463.682 C 681.498 465.552 680.96 466.965 679.885 467.919 C 678.809 468.873 677.308 469.35 675.381 469.35 Z" style="fill: rgb(65, 61, 81); white-space: pre;"/>
  <path d="M 690.787 469.35 C 689.777 469.35 688.922 469.242 688.22 469.026 C 687.519 468.812 686.831 468.545 686.158 468.227 L 686.158 465.449 C 686.644 465.749 687.121 466.015 687.589 466.249 C 688.056 466.483 688.547 466.665 689.062 466.796 C 689.576 466.927 690.151 466.993 690.787 466.993 C 691.592 466.993 692.223 466.824 692.682 466.488 C 693.14 466.151 693.369 465.73 693.369 465.225 C 693.369 464.795 693.224 464.458 692.934 464.215 C 692.644 463.972 692.275 463.766 691.826 463.597 C 691.377 463.429 690.909 463.261 690.423 463.092 C 689.918 462.961 689.412 462.807 688.907 462.629 C 688.402 462.452 687.94 462.208 687.519 461.899 C 687.098 461.591 686.761 461.194 686.509 460.707 C 686.256 460.221 686.13 459.622 686.13 458.912 C 686.13 458.126 686.289 457.457 686.607 456.905 C 686.925 456.353 687.341 455.904 687.856 455.558 C 688.37 455.212 688.94 454.96 689.567 454.8 C 690.194 454.642 690.806 454.562 691.405 454.562 C 692.396 454.581 693.205 454.703 693.832 454.927 C 694.459 455.152 695.071 455.423 695.67 455.741 L 695.698 458.266 C 695.024 457.911 694.388 457.602 693.79 457.34 C 693.191 457.078 692.499 456.947 691.713 456.947 C 690.984 456.947 690.376 457.083 689.89 457.354 C 689.403 457.625 689.16 458.023 689.16 458.547 C 689.16 458.996 689.296 459.351 689.567 459.613 C 689.838 459.875 690.194 460.081 690.634 460.23 C 691.073 460.38 691.545 460.53 692.05 460.679 C 692.518 460.829 693.004 460.983 693.509 461.142 C 694.014 461.301 694.482 461.53 694.912 461.83 C 695.342 462.129 695.693 462.522 695.965 463.008 C 696.236 463.495 696.371 464.131 696.371 464.916 C 696.353 465.964 696.077 466.815 695.544 467.47 C 695.011 468.124 694.314 468.601 693.453 468.901 C 692.593 469.2 691.704 469.35 690.787 469.35 Z" style="fill: rgb(65, 61, 81); white-space: pre;"/>
  <path d="M 705.908 469.293 C 704.636 469.293 703.63 468.957 702.891 468.283 C 702.152 467.61 701.783 466.618 701.783 465.309 L 701.783 457.284 L 699.51 457.284 L 699.51 454.843 L 701.783 454.843 L 701.783 450.915 L 704.813 450.915 L 704.813 454.843 L 708.236 454.843 L 708.236 457.284 L 704.813 457.284 L 704.813 464.72 C 704.813 465.375 704.93 465.865 705.163 466.192 C 705.398 466.52 705.833 466.684 706.469 466.684 C 706.787 466.684 707.105 466.642 707.423 466.557 C 707.741 466.473 708.012 466.366 708.236 466.235 L 708.236 468.845 C 707.9 468.994 707.521 469.106 707.1 469.181 C 706.679 469.256 706.282 469.293 705.908 469.293 Z" style="fill: rgb(65, 61, 81); white-space: pre;"/>
  <path d="M 717.829 469.35 C 717.099 469.35 716.398 469.279 715.724 469.139 C 715.051 468.999 714.439 468.76 713.887 468.424 C 713.335 468.087 712.895 467.624 712.568 467.034 C 712.241 466.445 712.077 465.711 712.077 464.832 C 712.077 463.784 712.283 462.924 712.694 462.251 C 713.106 461.577 713.695 461.072 714.462 460.735 C 715.229 460.399 716.145 460.23 717.212 460.23 C 717.922 460.23 718.563 460.286 719.134 460.399 C 719.704 460.511 720.219 460.665 720.677 460.861 C 721.135 461.058 721.523 461.278 721.841 461.521 L 722.15 463.457 C 721.739 463.177 721.187 462.938 720.495 462.741 C 719.802 462.545 719.054 462.447 718.25 462.447 C 717.184 462.447 716.375 462.634 715.823 463.008 C 715.271 463.382 714.995 463.944 714.995 464.692 C 714.995 465.253 715.154 465.706 715.472 466.052 C 715.79 466.399 716.188 466.651 716.665 466.81 C 717.142 466.969 717.642 467.049 718.166 467.049 C 719.269 467.049 720.083 466.974 720.607 466.824 C 721.131 466.675 721.392 466.329 721.392 465.786 L 721.392 459.894 C 721.392 458.902 721.093 458.177 720.495 457.719 C 719.896 457.261 719.045 457.032 717.941 457.032 C 717.155 457.032 716.342 457.158 715.5 457.41 C 714.658 457.663 713.966 458.014 713.424 458.463 L 713.424 455.713 C 713.947 455.357 714.71 455.072 715.711 454.856 C 716.711 454.642 717.745 454.534 718.811 454.534 C 719.335 454.534 719.863 454.586 720.397 454.688 C 720.93 454.791 721.43 454.95 721.898 455.165 C 722.365 455.381 722.782 455.671 723.147 456.035 C 723.511 456.4 723.796 456.844 724.002 457.368 C 724.208 457.892 724.311 458.509 724.311 459.22 L 724.311 465.954 C 724.311 466.871 724.026 467.577 723.455 468.072 C 722.884 468.568 722.113 468.905 721.14 469.083 C 720.167 469.261 719.064 469.35 717.829 469.35 Z" style="fill: rgb(65, 61, 81); white-space: pre;"/>
  <path d="M 729.618 468.929 L 729.618 454.927 L 732.564 454.927 L 732.592 468.929 L 729.618 468.929 Z M 729.534 452.598 L 729.534 449.933 L 732.676 449.933 L 732.676 452.598 L 729.534 452.598 Z" style="fill: rgb(65, 61, 81); white-space: pre;"/>
  <path d="M 737.894 455.993 C 738.306 455.788 738.769 455.596 739.283 455.418 C 739.797 455.24 740.345 455.086 740.925 454.955 C 741.505 454.824 742.094 454.721 742.692 454.646 C 743.291 454.572 743.871 454.534 744.432 454.534 C 745.76 454.534 746.845 454.716 747.687 455.081 C 748.529 455.446 749.155 456.007 749.567 456.764 C 749.979 457.522 750.184 458.472 750.184 459.613 L 750.184 468.929 L 747.238 468.929 L 747.238 460.006 C 747.238 459.65 747.196 459.3 747.111 458.953 C 747.027 458.607 746.868 458.289 746.634 457.999 C 746.401 457.709 746.064 457.48 745.624 457.312 C 745.185 457.144 744.61 457.06 743.899 457.06 C 743.394 457.06 742.875 457.106 742.341 457.2 C 741.808 457.293 741.308 457.424 740.84 457.593 L 740.84 468.929 L 737.894 468.929 L 737.894 455.993 Z" style="fill: rgb(65, 61, 81); white-space: pre;"/>
  <path d="M 760.508 469.35 C 759.779 469.35 759.077 469.279 758.404 469.139 C 757.73 468.999 757.118 468.76 756.565 468.424 C 756.014 468.087 755.574 467.624 755.247 467.034 C 754.92 466.445 754.756 465.711 754.756 464.832 C 754.756 463.784 754.962 462.924 755.373 462.251 C 755.785 461.577 756.374 461.072 757.141 460.735 C 757.908 460.399 758.825 460.23 759.891 460.23 C 760.602 460.23 761.242 460.286 761.812 460.399 C 762.383 460.511 762.898 460.665 763.356 460.861 C 763.814 461.058 764.203 461.278 764.521 461.521 L 764.829 463.457 C 764.418 463.177 763.866 462.938 763.174 462.741 C 762.482 462.545 761.733 462.447 760.929 462.447 C 759.863 462.447 759.054 462.634 758.501 463.008 C 757.95 463.382 757.674 463.944 757.674 464.692 C 757.674 465.253 757.833 465.706 758.151 466.052 C 758.469 466.399 758.867 466.651 759.343 466.81 C 759.821 466.969 760.321 467.049 760.845 467.049 C 761.949 467.049 762.762 466.974 763.286 466.824 C 763.81 466.675 764.072 466.329 764.072 465.786 L 764.072 459.894 C 764.072 458.902 763.772 458.177 763.174 457.719 C 762.575 457.261 761.724 457.032 760.62 457.032 C 759.835 457.032 759.021 457.158 758.179 457.41 C 757.337 457.663 756.645 458.014 756.103 458.463 L 756.103 455.713 C 756.627 455.357 757.389 455.072 758.389 454.856 C 759.39 454.642 760.424 454.534 761.49 454.534 C 762.014 454.534 762.542 454.586 763.075 454.688 C 763.609 454.791 764.109 454.95 764.577 455.165 C 765.044 455.381 765.461 455.671 765.825 456.035 C 766.19 456.4 766.475 456.844 766.681 457.368 C 766.887 457.892 766.99 458.509 766.99 459.22 L 766.99 465.954 C 766.99 466.871 766.704 467.577 766.134 468.072 C 765.563 468.568 764.792 468.905 763.819 469.083 C 762.846 469.261 761.743 469.35 760.508 469.35 Z" style="fill: rgb(65, 61, 81); white-space: pre;"/>
  <path d="M 778.146 469.35 C 777.379 469.35 776.64 469.303 775.929 469.209 C 775.218 469.116 774.582 468.952 774.021 468.718 C 773.46 468.484 773.016 468.162 772.689 467.75 C 772.361 467.339 772.197 466.806 772.197 466.151 L 772.197 449.203 L 775.116 449.203 L 775.116 456.807 L 774.358 455.853 C 774.713 455.572 775.158 455.339 775.691 455.152 C 776.224 454.965 776.767 454.815 777.319 454.703 C 777.87 454.59 778.342 454.534 778.735 454.534 C 780.868 454.534 782.467 455.165 783.533 456.428 C 784.6 457.691 785.133 459.463 785.133 461.746 C 785.133 463.279 784.932 464.542 784.53 465.534 C 784.127 466.525 783.594 467.296 782.931 467.848 C 782.266 468.4 781.518 468.788 780.686 469.013 C 779.853 469.237 779.006 469.35 778.146 469.35 Z M 778.006 466.796 C 779.109 466.796 779.96 466.572 780.559 466.123 C 781.158 465.674 781.569 465.08 781.794 464.341 C 782.018 463.602 782.13 462.774 782.13 461.858 C 782.13 460.81 781.99 459.931 781.709 459.22 C 781.429 458.509 781.008 457.967 780.447 457.593 C 779.886 457.219 779.165 457.032 778.286 457.032 C 777.8 457.032 777.272 457.097 776.701 457.228 C 776.13 457.359 775.602 457.565 775.116 457.845 L 775.116 465.421 C 775.116 465.795 775.265 466.085 775.564 466.291 C 775.864 466.497 776.233 466.632 776.673 466.698 C 777.113 466.763 777.557 466.796 778.006 466.796 Z" style="fill: rgb(65, 61, 81); white-space: pre;"/>
  <path d="M 789.713 468.929 L 789.713 454.927 L 792.659 454.927 L 792.687 468.929 L 789.713 468.929 Z M 789.629 452.598 L 789.629 449.933 L 792.772 449.933 L 792.772 452.598 L 789.629 452.598 Z" style="fill: rgb(65, 61, 81); white-space: pre;"/>
  <path d="M 800.907 468.929 L 797.989 468.929 L 797.989 449.512 L 800.907 449.512 L 800.907 468.929 Z" style="fill: rgb(65, 61, 81); white-space: pre;"/>
  <path d="M 806.207 468.929 L 806.207 454.927 L 809.153 454.927 L 809.182 468.929 L 806.207 468.929 Z M 806.123 452.598 L 806.123 449.933 L 809.266 449.933 L 809.266 452.598 L 806.123 452.598 Z" style="fill: rgb(65, 61, 81); white-space: pre;"/>
  <path d="M 819.505 469.293 C 818.233 469.293 817.228 468.957 816.49 468.283 C 815.75 467.61 815.381 466.618 815.381 465.309 L 815.381 457.284 L 813.108 457.284 L 813.108 454.843 L 815.381 454.843 L 815.381 450.915 L 818.411 450.915 L 818.411 454.843 L 821.834 454.843 L 821.834 457.284 L 818.411 457.284 L 818.411 464.72 C 818.411 465.375 818.528 465.865 818.762 466.192 C 818.996 466.52 819.431 466.684 820.067 466.684 C 820.385 466.684 820.703 466.642 821.021 466.557 C 821.339 466.473 821.61 466.366 821.834 466.235 L 821.834 468.845 C 821.498 468.994 821.119 469.106 820.698 469.181 C 820.277 469.256 819.88 469.293 819.505 469.293 Z" style="fill: rgb(65, 61, 81); white-space: pre;"/>
  <path d="M 828.51 474.372 C 828.154 474.372 827.817 474.339 827.499 474.274 C 827.181 474.208 826.901 474.129 826.658 474.036 L 826.658 471.51 C 826.882 471.585 827.107 471.65 827.331 471.707 C 827.556 471.763 827.799 471.791 828.061 471.791 C 828.622 471.791 829.09 471.641 829.464 471.342 C 829.838 471.043 830.156 470.612 830.418 470.051 C 830.68 469.49 830.895 468.816 831.063 468.031 L 831.119 469.49 L 825.114 454.843 L 828.453 454.843 L 832.522 465.954 L 832.101 465.954 L 836.114 454.843 L 839.172 454.843 L 833.364 469.799 C 832.896 470.996 832.391 471.926 831.849 472.59 C 831.306 473.254 830.75 473.718 830.179 473.979 C 829.608 474.241 829.052 474.372 828.51 474.372 Z" style="fill: rgb(65, 61, 81); white-space: pre;"/>
</svg>