<?xml version="1.0" encoding="utf-8"?>
<svg viewBox="0 0 1280 640" style="enable-background:new 0 0 1000 1000;" xmlns="http://www.w3.org/2000/svg">
  <defs>
    <style type="text/css">
	.st0{opacity:0.7;fill:#FFFFFF;}
	.st1{fill:#413D51;}
	.st2{fill:#8FE3F9;}
	.st3{fill:#B2EBF9;}
	.st4{fill:#A4E0EA;}
	.st5{fill:#7AD1E5;}
	.st6{fill:none;stroke:#413D51;stroke-width:16;stroke-linecap:round;stroke-linejoin:round;stroke-miterlimit:10;}
	.st7{fill:#F7E8AD;}
	.st8{fill:#F7D6A1;}
	.st9{fill:#EFCA92;}
	.st10{fill:#FFFFFF;}
	.st11{opacity:0.89;fill:#EFCA92;}
	.st12{fill:none;stroke:#413D51;stroke-width:8;stroke-linecap:round;stroke-linejoin:round;stroke-miterlimit:10;}
	.st13{opacity:0.31;fill:none;stroke:#72C8D6;stroke-width:8;stroke-linecap:round;stroke-linejoin:round;stroke-miterlimit:10;}
</style>
  </defs>
  <rect class="st0" width="1280" height="640" style="opacity: 1;"/>
  <g transform="matrix(0.563983, 0, 0, 0.563983, 358.036285, -73.689796)" style="">
    <ellipse id="XMLID_2_" class="st2" cx="501.8" cy="487.5" rx="228" ry="205.8"/>
    <ellipse id="XMLID_188_" class="st2" cx="501.8" cy="487.5" rx="228" ry="205.8"/>
    <path id="XMLID_193_" class="st3" d="M507.8,689.3c52.1,0,100.1-15.3,138.5-41l-10.5-24.7c-22-51.9-74.2-85.8-132.1-85.8l0,0 c-57.9,0-110.1,33.9-132.1,85.8l-8.6,20.4C402.3,672.3,452.8,689.3,507.8,689.3z"/>
    <path id="XMLID_189_" class="st4" d="M501.7,470.3l-43.6,64l32.9,43.8c5.4,7.2,16.3,7.2,21.7,0l32.6-43.8L501.7,470.3z"/>
    <path id="XMLID_192_" class="st5" d="M501.8,669.3c-121.5,0-220.7-85.7-227.6-193.8c-0.3,4-0.4,8-0.4,12 c0,113.6,102.1,205.8,228,205.8s228-92.1,228-205.8c0-4-0.1-8-0.4-12C722.5,583.6,623.2,669.3,501.8,669.3z"/>
    <path id="XMLID_76_" class="st4" d="M638.6,628.1c-38.1,25.8-85.5,41.2-136.8,41.2c-50,0-96.2-14.5-133.7-39.1l-5,12.3 c39.4,29.2,89.8,46.8,144.8,46.8c49.7,0,95.7-14.4,133.2-38.8c1.8-1.2,3.5-2.5,5.3-3.8L638.6,628.1z"/>
    <path id="XMLID_186_" class="st5" d="M268.2,488.2c6.4,13.1,15,25.3,25.8,36.2c52.3,52.3,137.2,52.3,189.5,0 c43.8-43.8,50.9-110.3,21.5-161.5"/>
    <path id="XMLID_185_" class="st5" d="M729,503.8c-24,36.1-65,59.8-111.6,59.8c-74,0-134-60-134-134c0-33,11.9-63.2,31.7-86.6"/>
    <ellipse id="XMLID_75_" class="st6" cx="501.8" cy="487.5" rx="228" ry="205.8"/>
    <polygon id="XMLID_74_" class="st1" points="501.7,442.3 458.1,506.3 501.9,564.6 545.4,506.3 &#9;"/>
    <polygon id="XMLID_73_" class="st6" points="501.7,442.3 458.1,506.3 501.9,564.6 545.4,506.3 &#9;"/>
    <path id="XMLID_72_" class="st1" d="M600.7,303.9c-30-14-64.1-21.9-100-21.9s-70,7.9-100,21.9v140.1h200V303.9z"/>
    <g id="XMLID_58_">
      <path id="XMLID_71_" class="st1" d="M613.5,317.9l108.7-3.3c-15.7,39.3-17.8,98.4-4.1,163c-17.4,36.8-54.4,62.9-97.9,64.2l0,0 c-61.8,1.9-113.5-46.7-115.3-108.6l0,0C503,371.4,551.6,319.8,613.5,317.9z"/>
      <path id="XMLID_70_" class="st6" d="M613.5,317.9l108.7-3.3c-15.7,39.3-17.8,98.4-4.1,163c-17.4,36.8-54.4,62.9-97.9,64.2l0,0 c-61.8,1.9-113.5-46.7-115.3-108.6l0,0C503,371.4,551.6,319.8,613.5,317.9z"/>
      <circle id="XMLID_69_" class="st7" cx="617.4" cy="429.7" r="112"/>
      <circle id="XMLID_5_" class="st7" cx="617.4" cy="429.7" r="112"/>
      <path id="XMLID_86_" class="st8" d="M696.6,350.5c-21.5-21.5-49.7-32.4-77.9-32.8c21.2,4.1,41.5,14.3,57.9,30.8 c43.7,43.7,43.7,114.6,0,158.4c-22.2,22.2-51.4,33.1-80.4,32.8c35.3,6.8,73.1-3.5,100.4-30.8C740.3,465.1,740.3,394.2,696.6,350.5 z"/>
      <ellipse id="XMLID_3_" transform="matrix(0.7071 -0.7071 0.7071 0.7071 -130.8246 543.5441)" class="st0" cx="590.7" cy="429.7" rx="84" ry="84.6"/>
      <path id="XMLID_12_" class="st9" d="M711.4,376.6c-3.1-4-9.1-15-12.8-18.7c-44-43.4-114.9-43-158.3,1.1 c-8.6,8.7-15.5,18.5-20.6,29C581.4,366.3,649,371.5,711.4,376.6z"/>
      <circle id="XMLID_68_" class="st6" cx="617.4" cy="429.7" r="112"/>
      <circle id="XMLID_67_" class="st6" cx="617.4" cy="429.7" r="112"/>
      <path id="XMLID_66_" class="st1" d="M706.7,362.1c-3.1-4-6.4-7.9-10.1-11.6c-43.7-43.7-114.6-43.7-158.4,0 c-8.7,8.7-15.6,18.4-20.8,28.8C579.4,358.1,644.3,356.5,706.7,362.1z"/>
      <circle id="XMLID_57_" class="st1" cx="562.9" cy="438.1" r="42"/>
      <circle id="XMLID_56_" class="st10" cx="539.1" cy="438.4" r="14"/>
    </g>
    <g id="XMLID_26_">
      <path id="XMLID_89_" class="st1" d="M388.8,317.9L280,314.6c15.7,39.3,17.8,98.4,4.1,163c17.4,36.8,54.4,62.9,97.9,64.2l0,0 c61.8,1.9,113.5-46.7,115.3-108.6l0,0C499.2,371.4,450.6,319.8,388.8,317.9z"/>
      <path id="XMLID_88_" class="st6" d="M388.8,317.9L280,314.6c15.7,39.3,17.8,98.4,4.1,163c17.4,36.8,54.4,62.9,97.9,64.2l0,0 c61.8,1.9,113.5-46.7,115.3-108.6l0,0C499.2,371.4,450.6,319.8,388.8,317.9z"/>
      <circle id="XMLID_87_" class="st7" cx="384.8" cy="429.7" r="112"/>
      <circle id="XMLID_84_" class="st7" cx="384.8" cy="429.7" r="112"/>
      <path id="XMLID_65_" class="st8" d="M305.6,350.5c21.5-21.5,49.7-32.4,77.9-32.8c-21.2,4.1-41.5,14.3-57.9,30.8 c-43.7,43.7-43.7,114.6,0,158.4c22.2,22.2,51.4,33.1,80.4,32.8c-35.3,6.8-73.1-3.5-100.4-30.8 C261.9,465.1,261.9,394.2,305.6,350.5z"/>
      <ellipse id="XMLID_64_" transform="matrix(0.7071 -0.7071 0.7071 0.7071 -183.3021 416.8521)" class="st0" cx="411.5" cy="429.7" rx="84.6" ry="84"/>
      <path id="XMLID_63_" class="st11" d="M290.9,376.6c3.1-4,9.1-15,12.8-18.7c44-43.4,114.9-43,158.3,1.1c8.6,8.7,15.5,18.5,20.6,29 C420.8,366.3,353.2,371.5,290.9,376.6z"/>
      <circle id="XMLID_62_" class="st6" cx="384.8" cy="429.7" r="112"/>
      <circle id="XMLID_61_" class="st6" cx="384.8" cy="429.7" r="112"/>
      <path id="XMLID_60_" class="st1" d="M295.6,362.1c3.1-4,6.4-7.9,10.1-11.6c43.7-43.7,114.6-43.7,158.4,0 c8.7,8.7,15.6,18.4,20.8,28.8C422.9,358.1,357.9,356.5,295.6,362.1z"/>
      <circle id="XMLID_59_" class="st1" cx="439.4" cy="438.1" r="42"/>
      <circle id="XMLID_37_" class="st10" cx="463.2" cy="438.4" r="14"/>
    </g>
    <path id="XMLID_19_" class="st1" d="M447.9,718.3L447.9,718.3c-8.8,0-16-7.2-16-16v-18c0-8.8,7.2-16,16-16h0c8.8,0,16,7.2,16,16v18 C463.9,711.1,456.8,718.3,447.9,718.3z"/>
    <path id="XMLID_17_" class="st1" d="M415.9,718.3L415.9,718.3c-8.8,0-16-7.2-16-16v-18c0-8.8,7.2-16,16-16h0c8.8,0,16,7.2,16,16v18 C431.9,711.1,424.8,718.3,415.9,718.3z"/>
    <path id="XMLID_16_" class="st1" d="M479.7,718.3L479.7,718.3c-8.8,0-16-7.2-16-16v-18c0-8.8,7.2-16,16-16h0c8.8,0,16,7.2,16,16v18 C495.7,711.1,488.5,718.3,479.7,718.3z"/>
    <path id="XMLID_15_" class="st1" d="M521.9,718.3L521.9,718.3c-8.8,0-16-7.2-16-16v-18c0-8.8,7.2-16,16-16h0c8.8,0,16,7.2,16,16v18 C537.9,711.1,530.7,718.3,521.9,718.3z"/>
    <path id="XMLID_14_" class="st1" d="M553.7,718.3L553.7,718.3c-8.8,0-16-7.2-16-16v-18c0-8.8,7.2-16,16-16h0c8.8,0,16,7.2,16,16v18 C569.7,711.1,562.5,718.3,553.7,718.3z"/>
    <path id="XMLID_13_" class="st1" d="M585.7,718.3L585.7,718.3c-8.8,0-16-7.2-16-16v-18c0-8.8,7.2-16,16-16h0c8.8,0,16,7.2,16,16v18 C601.7,711.1,594.5,718.3,585.7,718.3z"/>
    <path id="XMLID_11_" class="st12" d="M491.9,587.6c0,8.4-6.8,15.2-15.2,15.2c-8.4,0-15.2-6.8-15.2-15.2"/>
    <path id="XMLID_9_" class="st12" d="M538.4,587.6c0,8.4-6.8,15.2-15.2,15.2c-8.4,0-15.2-6.8-15.2-15.2"/>
    <path id="XMLID_10_" class="st13" d="M323,548.8c-2.2,4.7-7.7,6.8-12.5,4.6s-6.8-7.7-4.6-12.5"/>
    <path id="XMLID_1_" class="st13" d="M352.8,564.3c-2.2,4.7-7.7,6.8-12.5,4.6c-4.7-2.2-6.8-7.7-4.6-12.5"/>
    <path id="XMLID_78_" class="st13" d="M335.5,576.2c-2.2,4.7-7.7,6.8-12.5,4.6c-4.7-2.2-6.8-7.7-4.6-12.5"/>
    <path id="XMLID_77_" class="st13" d="M361.7,596.1c-2.2,4.7-7.7,6.8-12.5,4.6c-4.7-2.2-6.8-7.7-4.6-12.5"/>
    <path id="XMLID_79_" class="st13" d="M381.7,578.1c-2.2,4.7-7.7,6.8-12.5,4.6c-4.7-2.2-6.8-7.7-4.6-12.5"/>
    <path id="XMLID_85_" class="st13" d="M683.7,550.8c2.2,4.7,7.7,6.8,12.5,4.6s6.8-7.7,4.6-12.5"/>
    <path id="XMLID_83_" class="st13" d="M654,566.3c2.2,4.7,7.7,6.8,12.5,4.6c4.7-2.2,6.8-7.7,4.6-12.5"/>
    <path id="XMLID_82_" class="st13" d="M671.2,578.2c2.2,4.7,7.7,6.8,12.5,4.6c4.7-2.2,6.8-7.7,4.6-12.5"/>
    <path id="XMLID_81_" class="st13" d="M645.1,598.1c2.2,4.7,7.7,6.8,12.5,4.6c4.7-2.2,6.8-7.7,4.6-12.5"/>
    <path id="XMLID_80_" class="st13" d="M625.1,580.1c2.2,4.7,7.7,6.8,12.5,4.6c4.7-2.2,6.8-7.7,4.6-12.5"/>
    <path id="XMLID_8_" class="st12" d="M468.7,624.1c0,8.4-6.8,15.2-15.2,15.2c-8.4,0-15.2-6.8-15.2-15.2"/>
    <path id="XMLID_7_" class="st12" d="M515.2,624.1c0,8.4-6.8,15.2-15.2,15.2s-15.2-6.8-15.2-15.2"/>
    <path id="XMLID_6_" class="st12" d="M561.7,624.1c0,8.4-6.8,15.2-15.2,15.2c-8.4,0-15.2-6.8-15.2-15.2"/>
  </g>
  <path d="M 449.93 367.181 L 442.4 367.181 Q 441.446 367.181 441.019 366.754 Q 440.593 366.328 440.593 365.374 L 440.593 332.844 Q 440.593 331.89 441.019 331.464 Q 441.446 331.037 442.4 331.037 L 447.621 331.037 Q 448.575 331.037 449.252 331.338 Q 449.93 331.639 450.583 332.392 L 460.321 343.537 L 460.321 332.844 Q 460.321 331.89 460.748 331.464 Q 461.175 331.037 462.129 331.037 L 469.659 331.037 Q 470.612 331.037 471.039 331.464 Q 471.466 331.89 471.466 332.844 L 471.466 365.374 Q 471.466 366.328 471.039 366.754 Q 470.612 367.181 469.659 367.181 L 462.129 367.181 Q 461.175 367.181 460.748 366.754 Q 460.321 366.328 460.321 365.374 L 460.321 359.199 L 451.737 348.808 L 451.737 365.374 Q 451.737 366.328 451.31 366.754 Q 450.884 367.181 449.93 367.181 Z" style="fill: rgb(65, 61, 81); white-space: pre;"/>
  <path d="M 495.141 367.181 L 479.278 367.181 Q 478.324 367.181 477.897 366.754 Q 477.47 366.328 477.47 365.374 L 477.47 359.5 Q 477.47 358.547 477.897 358.12 Q 478.324 357.693 479.278 357.693 L 492.781 357.693 Q 493.434 357.693 493.76 357.266 Q 494.087 356.84 494.087 356.237 Q 494.087 355.384 493.76 354.982 Q 493.434 354.581 492.781 354.531 L 485.251 353.476 Q 481.737 352.974 479.604 351.167 Q 477.47 349.36 477.47 345.143 L 477.47 339.872 Q 477.47 335.605 480.231 333.321 Q 482.992 331.037 487.862 331.037 L 501.918 331.037 Q 502.872 331.037 503.298 331.464 Q 503.725 331.89 503.725 332.844 L 503.725 338.818 Q 503.725 339.772 503.298 340.198 Q 502.872 340.625 501.918 340.625 L 490.221 340.625 Q 489.569 340.625 489.217 341.052 Q 488.866 341.479 488.866 342.131 Q 488.866 342.784 489.217 343.236 Q 489.569 343.687 490.221 343.738 L 497.701 344.742 Q 501.215 345.244 503.374 347.051 Q 505.532 348.858 505.532 353.075 L 505.532 358.346 Q 505.532 362.613 502.746 364.897 Q 499.96 367.181 495.141 367.181 Z" style="fill: rgb(65, 61, 81); white-space: pre;"/>
  <path d="M 541.772 357.693 Q 541.772 360.002 541.094 361.885 Q 540.416 363.767 538.684 365.098 Q 536.952 366.428 533.94 367.181 Q 530.928 367.934 526.26 367.934 Q 521.591 367.934 518.579 367.181 Q 515.567 366.428 513.835 365.098 Q 512.103 363.767 511.426 361.885 Q 510.748 360.002 510.748 357.693 L 510.748 332.844 Q 510.748 331.89 511.175 331.464 Q 511.601 331.037 512.555 331.037 L 520.437 331.037 Q 521.39 331.037 521.817 331.464 Q 522.244 331.89 522.244 332.844 L 522.244 355.735 Q 522.244 356.739 522.997 357.417 Q 523.75 358.095 526.36 358.095 Q 529.021 358.095 529.774 357.417 Q 530.527 356.739 530.527 355.735 L 530.527 332.844 Q 530.527 331.89 530.954 331.464 Q 531.38 331.037 532.334 331.037 L 539.964 331.037 Q 540.918 331.037 541.345 331.464 Q 541.772 331.89 541.772 332.844 Z" style="fill: rgb(65, 61, 81); white-space: pre;"/>
  <path d="M 565.203 367.181 L 549.34 367.181 Q 548.386 367.181 547.96 366.754 Q 547.533 366.328 547.533 365.374 L 547.533 359.5 Q 547.533 358.547 547.96 358.12 Q 548.386 357.693 549.34 357.693 L 562.844 357.693 Q 563.497 357.693 563.823 357.266 Q 564.149 356.84 564.149 356.237 Q 564.149 355.384 563.823 354.982 Q 563.497 354.581 562.844 354.531 L 555.314 353.476 Q 551.8 352.974 549.666 351.167 Q 547.533 349.36 547.533 345.143 L 547.533 339.872 Q 547.533 335.605 550.294 333.321 Q 553.055 331.037 557.924 331.037 L 571.98 331.037 Q 572.934 331.037 573.361 331.464 Q 573.788 331.89 573.788 332.844 L 573.788 338.818 Q 573.788 339.772 573.361 340.198 Q 572.934 340.625 571.98 340.625 L 560.284 340.625 Q 559.631 340.625 559.28 341.052 Q 558.928 341.479 558.928 342.131 Q 558.928 342.784 559.28 343.236 Q 559.631 343.687 560.284 343.738 L 567.764 344.742 Q 571.278 345.244 573.436 347.051 Q 575.595 348.858 575.595 353.075 L 575.595 358.346 Q 575.595 362.613 572.809 364.897 Q 570.023 367.181 565.203 367.181 Z" style="fill: rgb(65, 61, 81); white-space: pre;"/>
  <path d="M 597.63 367.181 L 589.497 367.181 Q 588.543 367.181 588.117 366.754 Q 587.69 366.328 587.69 365.374 L 587.69 340.726 L 580.311 340.726 Q 579.357 340.726 578.93 340.299 Q 578.503 339.872 578.503 338.918 L 578.503 332.844 Q 578.503 331.89 578.93 331.464 Q 579.357 331.037 580.311 331.037 L 606.816 331.037 Q 607.77 331.037 608.197 331.464 Q 608.623 331.89 608.623 332.844 L 608.623 338.918 Q 608.623 339.872 608.197 340.299 Q 607.77 340.726 606.816 340.726 L 599.437 340.726 L 599.437 365.374 Q 599.437 366.328 599.01 366.754 Q 598.583 367.181 597.63 367.181 Z" style="fill: rgb(65, 61, 81); white-space: pre;"/>
  <path d="M 624.57 341.579 L 622.211 349.209 L 630.092 349.209 L 627.733 341.579 Q 627.532 341.127 627.306 340.926 Q 627.08 340.726 626.779 340.726 L 625.524 340.726 Q 625.223 340.726 624.997 340.926 Q 624.771 341.127 624.57 341.579 Z M 621.709 365.374 Q 621.709 366.328 621.282 366.754 Q 620.855 367.181 619.901 367.181 L 612.522 367.181 Q 611.568 367.181 611.142 366.754 Q 610.715 366.328 610.715 365.374 L 610.715 352.121 Q 610.715 350.615 611.192 348.657 Q 611.669 346.699 612.673 344.089 L 617.04 332.694 Q 617.341 331.84 617.969 331.439 Q 618.596 331.037 619.6 331.037 L 633.104 331.037 Q 634.058 331.037 634.685 331.439 Q 635.313 331.84 635.614 332.694 L 639.981 344.089 Q 640.985 346.699 641.462 348.657 Q 641.939 350.615 641.939 352.121 L 641.939 365.374 Q 641.939 366.328 641.513 366.754 Q 641.086 367.181 640.132 367.181 L 632.552 367.181 Q 631.548 367.181 631.071 366.754 Q 630.594 366.328 630.594 365.374 L 630.594 358.346 L 621.709 358.346 Z" style="fill: rgb(65, 61, 81); white-space: pre;"/>
  <path d="M 649.112 367.181 Q 648.159 367.181 647.732 366.754 Q 647.305 366.328 647.305 365.374 L 647.305 359.4 Q 647.305 358.446 647.732 358.019 Q 648.159 357.593 649.112 357.593 L 654.082 357.593 L 654.082 340.726 L 649.112 340.726 Q 648.159 340.726 647.732 340.299 Q 647.305 339.872 647.305 338.918 L 647.305 332.844 Q 647.305 331.89 647.732 331.464 Q 648.159 331.037 649.112 331.037 L 670.498 331.037 Q 671.451 331.037 671.878 331.464 Q 672.305 331.89 672.305 332.844 L 672.305 338.918 Q 672.305 339.872 671.878 340.299 Q 671.451 340.726 670.498 340.726 L 665.628 340.726 L 665.628 357.593 L 670.498 357.593 Q 671.451 357.593 671.878 358.019 Q 672.305 358.446 672.305 359.4 L 672.305 365.374 Q 672.305 366.328 671.878 366.754 Q 671.451 367.181 670.498 367.181 Z" style="fill: rgb(65, 61, 81); white-space: pre;"/>
  <path d="M 687.805 367.181 L 680.275 367.181 Q 679.321 367.181 678.895 366.754 Q 678.468 366.328 678.468 365.374 L 678.468 332.844 Q 678.468 331.89 678.895 331.464 Q 679.321 331.037 680.275 331.037 L 685.496 331.037 Q 686.45 331.037 687.127 331.338 Q 687.805 331.639 688.458 332.392 L 698.196 343.537 L 698.196 332.844 Q 698.196 331.89 698.623 331.464 Q 699.05 331.037 700.004 331.037 L 707.534 331.037 Q 708.487 331.037 708.914 331.464 Q 709.341 331.89 709.341 332.844 L 709.341 365.374 Q 709.341 366.328 708.914 366.754 Q 708.487 367.181 707.534 367.181 L 700.004 367.181 Q 699.05 367.181 698.623 366.754 Q 698.196 366.328 698.196 365.374 L 698.196 359.199 L 689.612 348.808 L 689.612 365.374 Q 689.612 366.328 689.186 366.754 Q 688.759 367.181 687.805 367.181 Z" style="fill: rgb(65, 61, 81); white-space: pre;"/>
  <path d="M 727.51 367.181 L 717.369 367.181 Q 716.415 367.181 715.989 366.754 Q 715.562 366.328 715.562 365.374 L 715.562 355.183 Q 715.562 354.229 715.989 353.803 Q 716.415 353.376 717.369 353.376 L 727.51 353.376 Q 728.463 353.376 728.89 353.803 Q 729.317 354.229 729.317 355.183 L 729.317 365.374 Q 729.317 366.328 728.89 366.754 Q 728.463 367.181 727.51 367.181 Z" style="fill: rgb(65, 61, 81); white-space: pre;"/>
  <path d="M 759.576 367.181 L 747.327 367.181 Q 741.052 367.181 738.015 364.671 Q 734.978 362.161 734.978 356.94 L 734.978 341.328 Q 734.978 336.107 738.015 333.572 Q 741.052 331.037 747.327 331.037 L 759.576 331.037 Q 760.53 331.037 760.957 331.464 Q 761.383 331.89 761.383 332.844 L 761.383 338.918 Q 761.383 339.872 760.957 340.299 Q 760.53 340.726 759.576 340.726 L 749.486 340.726 Q 747.93 340.726 747.177 341.353 Q 746.424 341.981 746.424 343.236 L 746.424 355.183 Q 746.424 356.438 747.177 357.015 Q 747.93 357.593 749.486 357.593 L 759.576 357.593 Q 760.53 357.593 760.957 358.019 Q 761.383 358.446 761.383 359.4 L 761.383 365.374 Q 761.383 366.328 760.957 366.754 Q 760.53 367.181 759.576 367.181 Z" style="fill: rgb(65, 61, 81); white-space: pre;"/>
  <path d="M 797.418 357.693 Q 797.418 360.002 796.74 361.885 Q 796.063 363.767 794.331 365.098 Q 792.599 366.428 789.562 367.181 Q 786.525 367.934 781.856 367.934 Q 777.187 367.934 774.125 367.181 Q 771.063 366.428 769.331 365.098 Q 767.599 363.767 766.921 361.885 Q 766.244 360.002 766.244 357.693 L 766.244 340.575 Q 766.244 338.266 766.921 336.383 Q 767.599 334.501 769.331 333.145 Q 771.063 331.79 774.125 331.037 Q 777.187 330.284 781.856 330.284 Q 786.525 330.284 789.562 331.037 Q 792.599 331.79 794.331 333.145 Q 796.063 334.501 796.74 336.383 Q 797.418 338.266 797.418 340.575 Z M 777.639 355.886 Q 777.639 356.89 778.392 357.568 Q 779.145 358.245 781.856 358.245 Q 784.567 358.245 785.32 357.568 Q 786.073 356.89 786.073 355.886 L 786.073 342.382 Q 786.073 341.428 785.32 340.751 Q 784.567 340.073 781.856 340.073 Q 779.145 340.073 778.392 340.751 Q 777.639 341.428 777.639 342.382 Z" style="fill: rgb(65, 61, 81); white-space: pre;"/>
  <path d="M 813.083 367.181 L 805.603 367.181 Q 804.649 367.181 804.223 366.754 Q 803.796 366.328 803.796 365.374 L 803.796 332.844 Q 803.796 331.89 804.223 331.464 Q 804.649 331.037 805.603 331.037 L 813.685 331.037 Q 814.489 331.037 815.016 331.388 Q 815.543 331.74 815.995 332.543 L 820.513 340.726 Q 820.764 341.177 820.939 341.378 Q 821.115 341.579 821.416 341.579 L 821.868 341.579 Q 822.169 341.579 822.345 341.378 Q 822.521 341.177 822.772 340.726 L 827.239 332.543 Q 827.691 331.74 828.218 331.388 Q 828.745 331.037 829.549 331.037 L 837.681 331.037 Q 838.635 331.037 839.061 331.464 Q 839.488 331.89 839.488 332.844 L 839.488 365.374 Q 839.488 366.328 839.061 366.754 Q 838.635 367.181 837.681 367.181 L 829.95 367.181 Q 828.996 367.181 828.57 366.754 Q 828.143 366.328 828.143 365.374 L 828.143 347.703 L 825.181 353.175 Q 824.729 354.029 824.102 354.405 Q 823.474 354.782 822.521 354.782 L 820.513 354.782 Q 819.559 354.782 818.931 354.405 Q 818.304 354.029 817.852 353.175 L 814.89 347.703 L 814.89 365.374 Q 814.89 366.328 814.463 366.754 Q 814.037 367.181 813.083 367.181 Z" style="fill: rgb(65, 61, 81); white-space: pre;"/>
  <path d="M 438.196 475.037 L 438.196 452.897 L 451.275 452.897 L 451.275 453.307 L 438.606 453.307 L 438.606 465.033 L 447.954 465.033 L 447.954 465.443 L 438.606 465.443 L 438.606 475.037 Z" style="fill: rgb(51, 51, 51); white-space: pre;"/>
  <path d="M 479.393 470.035 Q 479.393 472.495 477.63 474.032 Q 475.867 475.57 471.07 475.57 Q 466.273 475.57 464.551 474.032 Q 462.829 472.495 462.829 470.035 L 462.829 457.94 Q 462.829 455.48 464.551 453.942 Q 466.273 452.405 471.07 452.405 Q 475.867 452.405 477.63 453.942 Q 479.393 455.48 479.393 457.94 Z M 463.239 470.035 Q 463.239 472.331 464.879 473.745 Q 466.519 475.16 471.07 475.16 Q 475.621 475.16 477.302 473.745 Q 478.983 472.331 478.983 470.035 L 478.983 457.94 Q 478.983 455.644 477.302 454.229 Q 475.621 452.815 471.07 452.815 Q 466.519 452.815 464.879 454.229 Q 463.239 455.644 463.239 457.94 Z" style="fill: rgb(51, 51, 51); white-space: pre;"/>
  <path d="M 502.847 453.307 L 493.909 453.307 L 493.909 465.156 L 502.847 465.156 Q 505.389 465.156 506.25 463.926 Q 507.111 462.696 507.111 460.441 L 507.111 457.571 Q 507.111 455.685 506.066 454.496 Q 505.02 453.307 502.847 453.307 Z M 493.909 475.037 L 493.499 475.037 L 493.499 452.897 L 502.847 452.897 Q 505.225 452.897 506.373 454.229 Q 507.521 455.562 507.521 457.571 L 507.521 460.4 Q 507.521 462.286 507.029 463.495 Q 506.537 464.705 505.061 465.156 L 505.512 465.156 Q 508.013 465.156 509.243 466.283 Q 510.473 467.411 510.473 469.543 L 510.473 475.037 L 510.063 475.037 L 510.063 469.543 Q 510.063 467.534 508.956 466.529 Q 507.849 465.525 505.512 465.525 L 493.909 465.525 Z" style="fill: rgb(51, 51, 51); white-space: pre;"/>
  <path d="M 547.045 474.627 L 547.045 475.037 L 533.228 475.037 L 533.228 452.897 L 547.045 452.897 L 547.045 453.307 L 533.638 453.307 L 533.638 463.598 L 543.724 463.598 L 543.724 464.008 L 533.638 464.008 L 533.638 474.627 Z" style="fill: rgb(51, 51, 51); white-space: pre;"/>
  <path d="M 560.983 453.225 L 576.071 470.199 L 576.071 452.897 L 576.481 452.897 L 576.481 475.037 L 576.071 475.037 L 576.071 470.814 L 560.573 453.43 Q 560.532 453.389 560.471 453.348 Q 560.409 453.307 560.368 453.307 Q 560.327 453.307 560.307 453.348 Q 560.286 453.389 560.286 453.43 L 560.286 475.037 L 559.876 475.037 L 559.876 453.348 Q 559.876 453.102 560.04 452.979 Q 560.204 452.856 560.368 452.856 Q 560.532 452.856 560.655 452.938 Q 560.778 453.02 560.983 453.225 Z" style="fill: rgb(51, 51, 51); white-space: pre;"/>
  <path d="M 590.464 452.897 L 590.874 452.897 L 590.874 461.753 Q 590.874 462.819 591.038 463.782 Q 591.202 464.746 591.53 465.566 L 594.236 472.126 Q 594.646 473.192 595.159 473.909 Q 595.671 474.627 596.819 474.627 L 600.427 474.627 Q 601.575 474.627 602.088 473.909 Q 602.6 473.192 603.01 472.126 L 605.716 465.566 Q 606.044 464.746 606.208 463.782 Q 606.372 462.819 606.372 461.753 L 606.372 452.897 L 606.782 452.897 L 606.782 461.753 Q 606.782 462.901 606.639 463.864 Q 606.495 464.828 606.126 465.73 L 603.42 472.29 Q 602.928 473.479 602.313 474.258 Q 601.698 475.037 600.427 475.037 L 596.819 475.037 Q 595.548 475.037 594.933 474.258 Q 594.318 473.479 593.826 472.29 L 591.12 465.73 Q 590.751 464.828 590.608 463.864 Q 590.464 462.901 590.464 461.753 Z" style="fill: rgb(51, 51, 51); white-space: pre;"/>
  <path d="M 632.44 475.037 L 619.402 475.037 L 619.402 474.627 L 625.757 474.627 L 625.757 453.307 L 619.402 453.307 L 619.402 452.897 L 632.44 452.897 L 632.44 453.307 L 626.167 453.307 L 626.167 474.627 L 632.44 474.627 Z" style="fill: rgb(51, 51, 51); white-space: pre;"/>
  <path d="M 654.957 453.307 L 646.019 453.307 L 646.019 465.156 L 654.957 465.156 Q 657.499 465.156 658.36 463.926 Q 659.221 462.696 659.221 460.441 L 659.221 457.571 Q 659.221 455.685 658.175 454.496 Q 657.13 453.307 654.957 453.307 Z M 646.019 475.037 L 645.609 475.037 L 645.609 452.897 L 654.957 452.897 Q 657.335 452.897 658.483 454.229 Q 659.631 455.562 659.631 457.571 L 659.631 460.4 Q 659.631 462.286 659.139 463.495 Q 658.647 464.705 657.171 465.156 L 657.622 465.156 Q 660.123 465.156 661.353 466.283 Q 662.583 467.411 662.583 469.543 L 662.583 475.037 L 662.173 475.037 L 662.173 469.543 Q 662.173 467.534 661.066 466.529 Q 659.959 465.525 657.622 465.525 L 646.019 465.525 Z" style="fill: rgb(51, 51, 51); white-space: pre;"/>
  <path d="M 691.972 470.035 Q 691.972 472.495 690.209 474.032 Q 688.446 475.57 683.649 475.57 Q 678.852 475.57 677.13 474.032 Q 675.408 472.495 675.408 470.035 L 675.408 457.94 Q 675.408 455.48 677.13 453.942 Q 678.852 452.405 683.649 452.405 Q 688.446 452.405 690.209 453.942 Q 691.972 455.48 691.972 457.94 Z M 675.818 470.035 Q 675.818 472.331 677.458 473.745 Q 679.098 475.16 683.649 475.16 Q 688.2 475.16 689.881 473.745 Q 691.562 472.331 691.562 470.035 L 691.562 457.94 Q 691.562 455.644 689.881 454.229 Q 688.2 452.815 683.649 452.815 Q 679.098 452.815 677.458 454.229 Q 675.818 455.644 675.818 457.94 Z" style="fill: rgb(51, 51, 51); white-space: pre;"/>
  <path d="M 707.061 453.225 L 722.149 470.199 L 722.149 452.897 L 722.559 452.897 L 722.559 475.037 L 722.149 475.037 L 722.149 470.814 L 706.651 453.43 Q 706.61 453.389 706.549 453.348 Q 706.487 453.307 706.446 453.307 Q 706.405 453.307 706.385 453.348 Q 706.364 453.389 706.364 453.43 L 706.364 475.037 L 705.954 475.037 L 705.954 453.348 Q 705.954 453.102 706.118 452.979 Q 706.282 452.856 706.446 452.856 Q 706.61 452.856 706.733 452.938 Q 706.856 453.02 707.061 453.225 Z" style="fill: rgb(51, 51, 51); white-space: pre;"/>
  <path d="M 746.956 462.942 Q 747.694 462.942 748.022 462.614 Q 748.35 462.286 749.047 461.22 L 754.049 453.594 Q 754.295 453.184 754.603 453.04 Q 754.91 452.897 755.238 452.897 L 755.935 452.897 Q 756.509 452.897 756.776 453.204 Q 757.042 453.512 757.042 454.168 L 757.042 475.037 L 756.632 475.037 L 756.632 454.168 Q 756.632 453.84 756.489 453.573 Q 756.345 453.307 755.935 453.307 L 755.32 453.307 Q 755.033 453.307 754.828 453.389 Q 754.623 453.471 754.377 453.881 L 749.375 461.425 Q 748.637 462.532 748.248 462.942 Q 747.858 463.352 746.956 463.352 Q 746.054 463.352 745.665 462.942 Q 745.275 462.532 744.537 461.425 L 739.535 453.881 Q 739.289 453.471 739.064 453.389 Q 738.838 453.307 738.551 453.307 L 737.936 453.307 Q 737.526 453.307 737.403 453.573 Q 737.28 453.84 737.28 454.168 L 737.28 475.037 L 736.87 475.037 L 736.87 454.168 Q 736.87 453.512 737.137 453.204 Q 737.403 452.897 737.936 452.897 L 738.633 452.897 Q 738.961 452.897 739.289 453.04 Q 739.617 453.184 739.863 453.594 L 744.865 461.22 Q 745.562 462.286 745.89 462.614 Q 746.218 462.942 746.956 462.942 Z" style="fill: rgb(51, 51, 51); white-space: pre;"/>
  <path d="M 785.623 474.627 L 785.623 475.037 L 771.806 475.037 L 771.806 452.897 L 785.623 452.897 L 785.623 453.307 L 772.216 453.307 L 772.216 463.598 L 782.302 463.598 L 782.302 464.008 L 772.216 464.008 L 772.216 474.627 Z" style="fill: rgb(51, 51, 51); white-space: pre;"/>
  <path d="M 799.561 453.225 L 814.649 470.199 L 814.649 452.897 L 815.059 452.897 L 815.059 475.037 L 814.649 475.037 L 814.649 470.814 L 799.151 453.43 Q 799.11 453.389 799.049 453.348 Q 798.987 453.307 798.946 453.307 Q 798.905 453.307 798.885 453.348 Q 798.864 453.389 798.864 453.43 L 798.864 475.037 L 798.454 475.037 L 798.454 453.348 Q 798.454 453.102 798.618 452.979 Q 798.782 452.856 798.946 452.856 Q 799.11 452.856 799.233 452.938 Q 799.356 453.02 799.561 453.225 Z" style="fill: rgb(51, 51, 51); white-space: pre;"/>
  <path d="M 835.438 475.037 L 835.438 453.307 L 827.033 453.307 L 827.033 452.897 L 844.253 452.897 L 844.253 453.307 L 835.848 453.307 L 835.848 475.037 Z" style="fill: rgb(51, 51, 51); white-space: pre;"/>
  <path d="M 405.821 538.246 L 405.821 516.106 L 418.9 516.106 L 418.9 516.516 L 406.231 516.516 L 406.231 528.242 L 415.579 528.242 L 415.579 528.652 L 406.231 528.652 L 406.231 538.246 Z" style="fill: rgb(51, 51, 51); white-space: pre;"/>
  <path d="M 447.018 533.244 Q 447.018 535.704 445.255 537.241 Q 443.492 538.779 438.695 538.779 Q 433.898 538.779 432.176 537.241 Q 430.454 535.704 430.454 533.244 L 430.454 521.149 Q 430.454 518.689 432.176 517.151 Q 433.898 515.614 438.695 515.614 Q 443.492 515.614 445.255 517.151 Q 447.018 518.689 447.018 521.149 Z M 430.864 533.244 Q 430.864 535.54 432.504 536.954 Q 434.144 538.369 438.695 538.369 Q 443.246 538.369 444.927 536.954 Q 446.608 535.54 446.608 533.244 L 446.608 521.149 Q 446.608 518.853 444.927 517.438 Q 443.246 516.024 438.695 516.024 Q 434.144 516.024 432.504 517.438 Q 430.864 518.853 430.864 521.149 Z" style="fill: rgb(51, 51, 51); white-space: pre;"/>
  <path d="M 470.472 516.516 L 461.534 516.516 L 461.534 528.365 L 470.472 528.365 Q 473.014 528.365 473.875 527.135 Q 474.736 525.905 474.736 523.65 L 474.736 520.78 Q 474.736 518.894 473.691 517.705 Q 472.645 516.516 470.472 516.516 Z M 461.534 538.246 L 461.124 538.246 L 461.124 516.106 L 470.472 516.106 Q 472.85 516.106 473.998 517.438 Q 475.146 518.771 475.146 520.78 L 475.146 523.609 Q 475.146 525.495 474.654 526.704 Q 474.162 527.914 472.686 528.365 L 473.137 528.365 Q 475.638 528.365 476.868 529.492 Q 478.098 530.62 478.098 532.752 L 478.098 538.246 L 477.688 538.246 L 477.688 532.752 Q 477.688 530.743 476.581 529.738 Q 475.474 528.734 473.137 528.734 L 461.534 528.734 Z" style="fill: rgb(51, 51, 51); white-space: pre;"/>
  <path d="M 513.399 516.106 L 513.399 516.516 L 504.297 516.516 Q 502.575 516.516 501.55 517.459 Q 500.525 518.402 500.525 519.837 L 500.525 523.199 Q 500.525 524.634 501.099 525.208 Q 501.673 525.782 502.616 525.946 L 511.267 527.709 Q 512.497 527.955 513.296 528.775 Q 514.096 529.595 514.096 531.727 L 514.096 534.105 Q 514.096 535.909 512.866 537.077 Q 511.636 538.246 509.545 538.246 L 499.336 538.246 L 499.336 537.836 L 509.545 537.836 Q 511.431 537.836 512.558 536.79 Q 513.686 535.745 513.686 534.105 L 513.686 531.727 Q 513.686 529.8 513.009 529.082 Q 512.333 528.365 511.185 528.119 L 502.534 526.356 Q 501.468 526.151 500.791 525.515 Q 500.115 524.88 500.115 523.199 L 500.115 519.837 Q 500.115 518.197 501.263 517.151 Q 502.411 516.106 504.297 516.106 Z" style="fill: rgb(51, 51, 51); white-space: pre;"/>
  <path d="M 527.345 516.106 L 527.755 516.106 L 527.755 533.203 Q 527.755 535.499 529.374 536.913 Q 530.994 538.328 535.545 538.328 Q 540.096 538.328 541.736 536.913 Q 543.376 535.499 543.376 533.203 L 543.376 516.106 L 543.786 516.106 L 543.786 533.203 Q 543.786 535.663 542.064 537.2 Q 540.342 538.738 535.545 538.738 Q 530.748 538.738 529.046 537.2 Q 527.345 535.663 527.345 533.203 Z" style="fill: rgb(51, 51, 51); white-space: pre;"/>
  <path d="M 570.633 516.106 L 570.633 516.516 L 561.531 516.516 Q 559.809 516.516 558.784 517.459 Q 557.759 518.402 557.759 519.837 L 557.759 523.199 Q 557.759 524.634 558.333 525.208 Q 558.907 525.782 559.85 525.946 L 568.501 527.709 Q 569.731 527.955 570.531 528.775 Q 571.33 529.595 571.33 531.727 L 571.33 534.105 Q 571.33 535.909 570.1 537.077 Q 568.87 538.246 566.779 538.246 L 556.57 538.246 L 556.57 537.836 L 566.779 537.836 Q 568.665 537.836 569.793 536.79 Q 570.92 535.745 570.92 534.105 L 570.92 531.727 Q 570.92 529.8 570.244 529.082 Q 569.567 528.365 568.419 528.119 L 559.768 526.356 Q 558.702 526.151 558.026 525.515 Q 557.349 524.88 557.349 523.199 L 557.349 519.837 Q 557.349 518.197 558.497 517.151 Q 559.645 516.106 561.531 516.106 Z" style="fill: rgb(51, 51, 51); white-space: pre;"/>
  <path d="M 590.266 538.246 L 590.266 516.516 L 581.861 516.516 L 581.861 516.106 L 599.081 516.106 L 599.081 516.516 L 590.676 516.516 L 590.676 538.246 Z" style="fill: rgb(51, 51, 51); white-space: pre;"/>
  <path d="M 609.259 529.513 L 609.259 530.784 L 625.249 530.784 L 625.249 529.513 Q 625.249 528.406 625.065 527.463 Q 624.88 526.52 624.593 525.7 L 621.764 519.017 Q 621.313 517.951 620.821 517.233 Q 620.329 516.516 619.181 516.516 L 615.163 516.516 Q 613.933 516.516 613.441 517.233 Q 612.949 517.951 612.539 518.976 L 609.915 525.7 Q 609.628 526.52 609.444 527.463 Q 609.259 528.406 609.259 529.513 Z M 625.249 538.246 L 625.249 531.194 L 609.259 531.194 L 609.259 538.246 L 608.849 538.246 L 608.849 529.513 Q 608.849 528.365 609.034 527.401 Q 609.218 526.438 609.546 525.536 L 612.17 518.812 Q 612.621 517.664 613.195 516.885 Q 613.769 516.106 615.163 516.106 L 619.181 516.106 Q 620.534 516.106 621.088 516.885 Q 621.641 517.664 622.133 518.853 L 624.962 525.536 Q 625.29 526.438 625.475 527.401 Q 625.659 528.365 625.659 529.513 L 625.659 538.246 Z" style="fill: rgb(51, 51, 51); white-space: pre;"/>
  <path d="M 651.112 538.246 L 638.074 538.246 L 638.074 537.836 L 644.429 537.836 L 644.429 516.516 L 638.074 516.516 L 638.074 516.106 L 651.112 516.106 L 651.112 516.516 L 644.839 516.516 L 644.839 537.836 L 651.112 537.836 Z" style="fill: rgb(51, 51, 51); white-space: pre;"/>
  <path d="M 665.264 516.434 L 680.352 533.408 L 680.352 516.106 L 680.762 516.106 L 680.762 538.246 L 680.352 538.246 L 680.352 534.023 L 664.854 516.639 Q 664.813 516.598 664.752 516.557 Q 664.69 516.516 664.649 516.516 Q 664.608 516.516 664.588 516.557 Q 664.567 516.598 664.567 516.639 L 664.567 538.246 L 664.157 538.246 L 664.157 516.557 Q 664.157 516.311 664.321 516.188 Q 664.485 516.065 664.649 516.065 Q 664.813 516.065 664.936 516.147 Q 665.059 516.229 665.264 516.434 Z" style="fill: rgb(51, 51, 51); white-space: pre;"/>
  <path d="M 694.868 529.513 L 694.868 530.784 L 710.858 530.784 L 710.858 529.513 Q 710.858 528.406 710.674 527.463 Q 710.489 526.52 710.202 525.7 L 707.373 519.017 Q 706.922 517.951 706.43 517.233 Q 705.938 516.516 704.79 516.516 L 700.772 516.516 Q 699.542 516.516 699.05 517.233 Q 698.558 517.951 698.148 518.976 L 695.524 525.7 Q 695.237 526.52 695.053 527.463 Q 694.868 528.406 694.868 529.513 Z M 710.858 538.246 L 710.858 531.194 L 694.868 531.194 L 694.868 538.246 L 694.458 538.246 L 694.458 529.513 Q 694.458 528.365 694.643 527.401 Q 694.827 526.438 695.155 525.536 L 697.779 518.812 Q 698.23 517.664 698.804 516.885 Q 699.378 516.106 700.772 516.106 L 704.79 516.106 Q 706.143 516.106 706.697 516.885 Q 707.25 517.664 707.742 518.853 L 710.571 525.536 Q 710.899 526.438 711.084 527.401 Q 711.268 528.365 711.268 529.513 L 711.268 538.246 Z" style="fill: rgb(51, 51, 51); white-space: pre;"/>
  <path d="M 736.229 538.246 L 725.2 538.246 L 725.2 516.106 L 733.523 516.106 Q 735.204 516.106 736.27 516.454 Q 737.336 516.803 737.91 517.397 Q 738.484 517.992 738.689 518.771 Q 738.894 519.55 738.894 520.452 L 738.894 523.076 Q 738.894 524.306 738.464 525.331 Q 738.033 526.356 736.27 526.807 Q 737.951 526.807 739.017 527.155 Q 740.083 527.504 740.657 528.139 Q 741.231 528.775 741.416 529.636 Q 741.6 530.497 741.6 531.522 L 741.6 534.146 Q 741.6 535.048 741.395 535.806 Q 741.19 536.565 740.637 537.098 Q 740.083 537.631 739.017 537.938 Q 737.951 538.246 736.229 538.246 Z M 733.523 516.516 L 725.61 516.516 L 725.61 526.807 L 733.523 526.807 Q 735.204 526.807 736.188 526.499 Q 737.172 526.192 737.685 525.679 Q 738.197 525.167 738.341 524.49 Q 738.484 523.814 738.484 523.076 L 738.484 520.452 Q 738.484 518.812 737.541 517.664 Q 736.598 516.516 733.523 516.516 Z M 736.27 527.217 L 725.61 527.217 L 725.61 537.836 L 736.229 537.836 Q 739.304 537.836 740.247 536.831 Q 741.19 535.827 741.19 534.146 L 741.19 531.522 Q 741.19 529.677 740.268 528.447 Q 739.345 527.217 736.27 527.217 Z" style="fill: rgb(51, 51, 51); white-space: pre;"/>
  <path d="M 766.456 538.246 L 753.418 538.246 L 753.418 537.836 L 759.773 537.836 L 759.773 516.516 L 753.418 516.516 L 753.418 516.106 L 766.456 516.106 L 766.456 516.516 L 760.183 516.516 L 760.183 537.836 L 766.456 537.836 Z" style="fill: rgb(51, 51, 51); white-space: pre;"/>
  <path d="M 779.65 538.246 L 779.65 516.106 L 780.06 516.106 L 780.06 537.836 L 794.328 537.836 L 794.328 529.759 L 794.738 529.759 L 794.738 538.246 Z" style="fill: rgb(51, 51, 51); white-space: pre;"/>
  <path d="M 819.753 538.246 L 806.715 538.246 L 806.715 537.836 L 813.07 537.836 L 813.07 516.516 L 806.715 516.516 L 806.715 516.106 L 819.753 516.106 L 819.753 516.516 L 813.48 516.516 L 813.48 537.836 L 819.753 537.836 Z" style="fill: rgb(51, 51, 51); white-space: pre;"/>
  <path d="M 838.891 538.246 L 838.891 516.516 L 830.486 516.516 L 830.486 516.106 L 847.706 516.106 L 847.706 516.516 L 839.301 516.516 L 839.301 538.246 Z" style="fill: rgb(51, 51, 51); white-space: pre;"/>
  <path d="M 867.52 531.235 L 867.233 531.235 L 867.233 538.246 L 866.823 538.246 L 866.823 531.235 L 866.413 531.235 Q 865.511 531.235 864.793 530.825 Q 864.076 530.415 863.42 529.513 L 859.443 523.978 Q 858.992 523.363 858.91 522.543 Q 858.828 521.723 858.828 520.821 L 858.828 516.106 L 859.238 516.106 L 859.238 520.821 Q 859.238 521.682 859.32 522.44 Q 859.402 523.199 859.812 523.814 L 863.789 529.349 Q 864.322 530.169 865.019 530.497 Q 865.716 530.825 866.413 530.825 L 867.52 530.825 Q 868.299 530.825 868.934 530.476 Q 869.57 530.128 870.185 529.349 L 874.285 523.814 Q 874.695 523.281 874.777 522.481 Q 874.859 521.682 874.859 520.821 L 874.859 516.106 L 875.269 516.106 L 875.269 520.821 Q 875.269 521.723 875.207 522.522 Q 875.146 523.322 874.654 523.978 L 870.554 529.513 Q 869.898 530.415 869.18 530.825 Q 868.463 531.235 867.52 531.235 Z" style="fill: rgb(51, 51, 51); white-space: pre;"/>
</svg>