<?xml version="1.0" encoding="utf-8"?>
<svg viewBox="0 0 1280 640" style="enable-background:new 0 0 1000 1000;" xmlns="http://www.w3.org/2000/svg">
  <defs>
    <style type="text/css">
	.st0{opacity:0.7;fill:#FFFFFF;}
	.st1{fill:#413D51;}
	.st2{fill:#8FE3F9;}
	.st3{fill:#B2EBF9;}
	.st4{fill:#A4E0EA;}
	.st5{fill:#7AD1E5;}
	.st6{fill:none;stroke:#413D51;stroke-width:16;stroke-linecap:round;stroke-linejoin:round;stroke-miterlimit:10;}
	.st7{fill:#F7E8AD;}
	.st8{fill:#F7D6A1;}
	.st9{fill:#EFCA92;}
	.st10{fill:#FFFFFF;}
	.st11{opacity:0.89;fill:#EFCA92;}
	.st12{fill:none;stroke:#413D51;stroke-width:8;stroke-linecap:round;stroke-linejoin:round;stroke-miterlimit:10;}
	.st13{opacity:0.31;fill:none;stroke:#72C8D6;stroke-width:8;stroke-linecap:round;stroke-linejoin:round;stroke-miterlimit:10;}
</style>
  </defs>
  <rect class="st0" width="1280" height="640" style="opacity: 1;"/>
  <g transform="matrix(0.563983, 0, 0, 0.563983, 357.720734, -8.566069)" style="">
    <ellipse id="XMLID_2_" class="st2" cx="501.8" cy="487.5" rx="228" ry="205.8"/>
    <ellipse id="XMLID_188_" class="st2" cx="501.8" cy="487.5" rx="228" ry="205.8"/>
    <path id="XMLID_193_" class="st3" d="M507.8,689.3c52.1,0,100.1-15.3,138.5-41l-10.5-24.7c-22-51.9-74.2-85.8-132.1-85.8l0,0 c-57.9,0-110.1,33.9-132.1,85.8l-8.6,20.4C402.3,672.3,452.8,689.3,507.8,689.3z"/>
    <path id="XMLID_189_" class="st4" d="M501.7,470.3l-43.6,64l32.9,43.8c5.4,7.2,16.3,7.2,21.7,0l32.6-43.8L501.7,470.3z"/>
    <path id="XMLID_192_" class="st5" d="M501.8,669.3c-121.5,0-220.7-85.7-227.6-193.8c-0.3,4-0.4,8-0.4,12 c0,113.6,102.1,205.8,228,205.8s228-92.1,228-205.8c0-4-0.1-8-0.4-12C722.5,583.6,623.2,669.3,501.8,669.3z"/>
    <path id="XMLID_76_" class="st4" d="M638.6,628.1c-38.1,25.8-85.5,41.2-136.8,41.2c-50,0-96.2-14.5-133.7-39.1l-5,12.3 c39.4,29.2,89.8,46.8,144.8,46.8c49.7,0,95.7-14.4,133.2-38.8c1.8-1.2,3.5-2.5,5.3-3.8L638.6,628.1z"/>
    <path id="XMLID_186_" class="st5" d="M268.2,488.2c6.4,13.1,15,25.3,25.8,36.2c52.3,52.3,137.2,52.3,189.5,0 c43.8-43.8,50.9-110.3,21.5-161.5"/>
    <path id="XMLID_185_" class="st5" d="M729,503.8c-24,36.1-65,59.8-111.6,59.8c-74,0-134-60-134-134c0-33,11.9-63.2,31.7-86.6"/>
    <ellipse id="XMLID_75_" class="st6" cx="501.8" cy="487.5" rx="228" ry="205.8"/>
    <polygon id="XMLID_74_" class="st1" points="501.7,442.3 458.1,506.3 501.9,564.6 545.4,506.3 &#9;"/>
    <polygon id="XMLID_73_" class="st6" points="501.7,442.3 458.1,506.3 501.9,564.6 545.4,506.3 &#9;"/>
    <path id="XMLID_72_" class="st1" d="M600.7,303.9c-30-14-64.1-21.9-100-21.9s-70,7.9-100,21.9v140.1h200V303.9z"/>
    <g id="XMLID_58_">
      <path id="XMLID_71_" class="st1" d="M613.5,317.9l108.7-3.3c-15.7,39.3-17.8,98.4-4.1,163c-17.4,36.8-54.4,62.9-97.9,64.2l0,0 c-61.8,1.9-113.5-46.7-115.3-108.6l0,0C503,371.4,551.6,319.8,613.5,317.9z"/>
      <path id="XMLID_70_" class="st6" d="M613.5,317.9l108.7-3.3c-15.7,39.3-17.8,98.4-4.1,163c-17.4,36.8-54.4,62.9-97.9,64.2l0,0 c-61.8,1.9-113.5-46.7-115.3-108.6l0,0C503,371.4,551.6,319.8,613.5,317.9z"/>
      <circle id="XMLID_69_" class="st7" cx="617.4" cy="429.7" r="112"/>
      <circle id="XMLID_5_" class="st7" cx="617.4" cy="429.7" r="112"/>
      <path id="XMLID_86_" class="st8" d="M696.6,350.5c-21.5-21.5-49.7-32.4-77.9-32.8c21.2,4.1,41.5,14.3,57.9,30.8 c43.7,43.7,43.7,114.6,0,158.4c-22.2,22.2-51.4,33.1-80.4,32.8c35.3,6.8,73.1-3.5,100.4-30.8C740.3,465.1,740.3,394.2,696.6,350.5 z"/>
      <ellipse id="XMLID_3_" transform="matrix(0.7071 -0.7071 0.7071 0.7071 -130.8246 543.5441)" class="st0" cx="590.7" cy="429.7" rx="84" ry="84.6"/>
      <path id="XMLID_12_" class="st9" d="M711.4,376.6c-3.1-4-9.1-15-12.8-18.7c-44-43.4-114.9-43-158.3,1.1 c-8.6,8.7-15.5,18.5-20.6,29C581.4,366.3,649,371.5,711.4,376.6z"/>
      <circle id="XMLID_68_" class="st6" cx="617.4" cy="429.7" r="112"/>
      <circle id="XMLID_67_" class="st6" cx="617.4" cy="429.7" r="112"/>
      <path id="XMLID_66_" class="st1" d="M706.7,362.1c-3.1-4-6.4-7.9-10.1-11.6c-43.7-43.7-114.6-43.7-158.4,0 c-8.7,8.7-15.6,18.4-20.8,28.8C579.4,358.1,644.3,356.5,706.7,362.1z"/>
      <circle id="XMLID_57_" class="st1" cx="562.9" cy="438.1" r="42"/>
      <circle id="XMLID_56_" class="st10" cx="539.1" cy="438.4" r="14"/>
    </g>
    <g id="XMLID_26_">
      <path id="XMLID_89_" class="st1" d="M388.8,317.9L280,314.6c15.7,39.3,17.8,98.4,4.1,163c17.4,36.8,54.4,62.9,97.9,64.2l0,0 c61.8,1.9,113.5-46.7,115.3-108.6l0,0C499.2,371.4,450.6,319.8,388.8,317.9z"/>
      <path id="XMLID_88_" class="st6" d="M388.8,317.9L280,314.6c15.7,39.3,17.8,98.4,4.1,163c17.4,36.8,54.4,62.9,97.9,64.2l0,0 c61.8,1.9,113.5-46.7,115.3-108.6l0,0C499.2,371.4,450.6,319.8,388.8,317.9z"/>
      <circle id="XMLID_87_" class="st7" cx="384.8" cy="429.7" r="112"/>
      <circle id="XMLID_84_" class="st7" cx="384.8" cy="429.7" r="112"/>
      <path id="XMLID_65_" class="st8" d="M305.6,350.5c21.5-21.5,49.7-32.4,77.9-32.8c-21.2,4.1-41.5,14.3-57.9,30.8 c-43.7,43.7-43.7,114.6,0,158.4c22.2,22.2,51.4,33.1,80.4,32.8c-35.3,6.8-73.1-3.5-100.4-30.8 C261.9,465.1,261.9,394.2,305.6,350.5z"/>
      <ellipse id="XMLID_64_" transform="matrix(0.7071 -0.7071 0.7071 0.7071 -183.3021 416.8521)" class="st0" cx="411.5" cy="429.7" rx="84.6" ry="84"/>
      <path id="XMLID_63_" class="st11" d="M290.9,376.6c3.1-4,9.1-15,12.8-18.7c44-43.4,114.9-43,158.3,1.1c8.6,8.7,15.5,18.5,20.6,29 C420.8,366.3,353.2,371.5,290.9,376.6z"/>
      <circle id="XMLID_62_" class="st6" cx="384.8" cy="429.7" r="112"/>
      <circle id="XMLID_61_" class="st6" cx="384.8" cy="429.7" r="112"/>
      <path id="XMLID_60_" class="st1" d="M295.6,362.1c3.1-4,6.4-7.9,10.1-11.6c43.7-43.7,114.6-43.7,158.4,0 c8.7,8.7,15.6,18.4,20.8,28.8C422.9,358.1,357.9,356.5,295.6,362.1z"/>
      <circle id="XMLID_59_" class="st1" cx="439.4" cy="438.1" r="42"/>
      <circle id="XMLID_37_" class="st10" cx="463.2" cy="438.4" r="14"/>
    </g>
    <path id="XMLID_19_" class="st1" d="M447.9,718.3L447.9,718.3c-8.8,0-16-7.2-16-16v-18c0-8.8,7.2-16,16-16h0c8.8,0,16,7.2,16,16v18 C463.9,711.1,456.8,718.3,447.9,718.3z"/>
    <path id="XMLID_17_" class="st1" d="M415.9,718.3L415.9,718.3c-8.8,0-16-7.2-16-16v-18c0-8.8,7.2-16,16-16h0c8.8,0,16,7.2,16,16v18 C431.9,711.1,424.8,718.3,415.9,718.3z"/>
    <path id="XMLID_16_" class="st1" d="M479.7,718.3L479.7,718.3c-8.8,0-16-7.2-16-16v-18c0-8.8,7.2-16,16-16h0c8.8,0,16,7.2,16,16v18 C495.7,711.1,488.5,718.3,479.7,718.3z"/>
    <path id="XMLID_15_" class="st1" d="M521.9,718.3L521.9,718.3c-8.8,0-16-7.2-16-16v-18c0-8.8,7.2-16,16-16h0c8.8,0,16,7.2,16,16v18 C537.9,711.1,530.7,718.3,521.9,718.3z"/>
    <path id="XMLID_14_" class="st1" d="M553.7,718.3L553.7,718.3c-8.8,0-16-7.2-16-16v-18c0-8.8,7.2-16,16-16h0c8.8,0,16,7.2,16,16v18 C569.7,711.1,562.5,718.3,553.7,718.3z"/>
    <path id="XMLID_13_" class="st1" d="M585.7,718.3L585.7,718.3c-8.8,0-16-7.2-16-16v-18c0-8.8,7.2-16,16-16h0c8.8,0,16,7.2,16,16v18 C601.7,711.1,594.5,718.3,585.7,718.3z"/>
    <path id="XMLID_11_" class="st12" d="M491.9,587.6c0,8.4-6.8,15.2-15.2,15.2c-8.4,0-15.2-6.8-15.2-15.2"/>
    <path id="XMLID_9_" class="st12" d="M538.4,587.6c0,8.4-6.8,15.2-15.2,15.2c-8.4,0-15.2-6.8-15.2-15.2"/>
    <path id="XMLID_10_" class="st13" d="M323,548.8c-2.2,4.7-7.7,6.8-12.5,4.6s-6.8-7.7-4.6-12.5"/>
    <path id="XMLID_1_" class="st13" d="M352.8,564.3c-2.2,4.7-7.7,6.8-12.5,4.6c-4.7-2.2-6.8-7.7-4.6-12.5"/>
    <path id="XMLID_78_" class="st13" d="M335.5,576.2c-2.2,4.7-7.7,6.8-12.5,4.6c-4.7-2.2-6.8-7.7-4.6-12.5"/>
    <path id="XMLID_77_" class="st13" d="M361.7,596.1c-2.2,4.7-7.7,6.8-12.5,4.6c-4.7-2.2-6.8-7.7-4.6-12.5"/>
    <path id="XMLID_79_" class="st13" d="M381.7,578.1c-2.2,4.7-7.7,6.8-12.5,4.6c-4.7-2.2-6.8-7.7-4.6-12.5"/>
    <path id="XMLID_85_" class="st13" d="M683.7,550.8c2.2,4.7,7.7,6.8,12.5,4.6s6.8-7.7,4.6-12.5"/>
    <path id="XMLID_83_" class="st13" d="M654,566.3c2.2,4.7,7.7,6.8,12.5,4.6c4.7-2.2,6.8-7.7,4.6-12.5"/>
    <path id="XMLID_82_" class="st13" d="M671.2,578.2c2.2,4.7,7.7,6.8,12.5,4.6c4.7-2.2,6.8-7.7,4.6-12.5"/>
    <path id="XMLID_81_" class="st13" d="M645.1,598.1c2.2,4.7,7.7,6.8,12.5,4.6c4.7-2.2,6.8-7.7,4.6-12.5"/>
    <path id="XMLID_80_" class="st13" d="M625.1,580.1c2.2,4.7,7.7,6.8,12.5,4.6c4.7-2.2,6.8-7.7,4.6-12.5"/>
    <path id="XMLID_8_" class="st12" d="M468.7,624.1c0,8.4-6.8,15.2-15.2,15.2c-8.4,0-15.2-6.8-15.2-15.2"/>
    <path id="XMLID_7_" class="st12" d="M515.2,624.1c0,8.4-6.8,15.2-15.2,15.2s-15.2-6.8-15.2-15.2"/>
    <path id="XMLID_6_" class="st12" d="M561.7,624.1c0,8.4-6.8,15.2-15.2,15.2c-8.4,0-15.2-6.8-15.2-15.2"/>
  </g>
  <path d="M 449.614 432.305 L 442.084 432.305 Q 441.13 432.305 440.703 431.878 Q 440.277 431.452 440.277 430.498 L 440.277 397.968 Q 440.277 397.014 440.703 396.588 Q 441.13 396.161 442.084 396.161 L 447.305 396.161 Q 448.259 396.161 448.936 396.462 Q 449.614 396.763 450.267 397.516 L 460.005 408.661 L 460.005 397.968 Q 460.005 397.014 460.432 396.588 Q 460.859 396.161 461.813 396.161 L 469.343 396.161 Q 470.296 396.161 470.723 396.588 Q 471.15 397.014 471.15 397.968 L 471.15 430.498 Q 471.15 431.452 470.723 431.878 Q 470.296 432.305 469.343 432.305 L 461.813 432.305 Q 460.859 432.305 460.432 431.878 Q 460.005 431.452 460.005 430.498 L 460.005 424.323 L 451.421 413.932 L 451.421 430.498 Q 451.421 431.452 450.994 431.878 Q 450.568 432.305 449.614 432.305 Z" style="fill: rgb(65, 61, 81); white-space: pre;"/>
  <path d="M 494.825 432.305 L 478.962 432.305 Q 478.008 432.305 477.581 431.878 Q 477.154 431.452 477.154 430.498 L 477.154 424.624 Q 477.154 423.671 477.581 423.244 Q 478.008 422.817 478.962 422.817 L 492.465 422.817 Q 493.118 422.817 493.444 422.39 Q 493.771 421.964 493.771 421.361 Q 493.771 420.508 493.444 420.106 Q 493.118 419.705 492.465 419.655 L 484.935 418.6 Q 481.421 418.098 479.288 416.291 Q 477.154 414.484 477.154 410.267 L 477.154 404.996 Q 477.154 400.729 479.915 398.445 Q 482.676 396.161 487.546 396.161 L 501.602 396.161 Q 502.556 396.161 502.982 396.588 Q 503.409 397.014 503.409 397.968 L 503.409 403.942 Q 503.409 404.896 502.982 405.322 Q 502.556 405.749 501.602 405.749 L 489.905 405.749 Q 489.253 405.749 488.901 406.176 Q 488.55 406.603 488.55 407.255 Q 488.55 407.908 488.901 408.36 Q 489.253 408.811 489.905 408.862 L 497.385 409.866 Q 500.899 410.368 503.058 412.175 Q 505.216 413.982 505.216 418.199 L 505.216 423.47 Q 505.216 427.737 502.43 430.021 Q 499.644 432.305 494.825 432.305 Z" style="fill: rgb(65, 61, 81); white-space: pre;"/>
  <path d="M 541.456 422.817 Q 541.456 425.126 540.778 427.009 Q 540.1 428.891 538.368 430.222 Q 536.636 431.552 533.624 432.305 Q 530.612 433.058 525.944 433.058 Q 521.275 433.058 518.263 432.305 Q 515.251 431.552 513.519 430.222 Q 511.787 428.891 511.11 427.009 Q 510.432 425.126 510.432 422.817 L 510.432 397.968 Q 510.432 397.014 510.859 396.588 Q 511.285 396.161 512.239 396.161 L 520.121 396.161 Q 521.074 396.161 521.501 396.588 Q 521.928 397.014 521.928 397.968 L 521.928 420.859 Q 521.928 421.863 522.681 422.541 Q 523.434 423.219 526.044 423.219 Q 528.705 423.219 529.458 422.541 Q 530.211 421.863 530.211 420.859 L 530.211 397.968 Q 530.211 397.014 530.638 396.588 Q 531.064 396.161 532.018 396.161 L 539.648 396.161 Q 540.602 396.161 541.029 396.588 Q 541.456 397.014 541.456 397.968 Z" style="fill: rgb(65, 61, 81); white-space: pre;"/>
  <path d="M 564.887 432.305 L 549.024 432.305 Q 548.07 432.305 547.644 431.878 Q 547.217 431.452 547.217 430.498 L 547.217 424.624 Q 547.217 423.671 547.644 423.244 Q 548.07 422.817 549.024 422.817 L 562.528 422.817 Q 563.181 422.817 563.507 422.39 Q 563.833 421.964 563.833 421.361 Q 563.833 420.508 563.507 420.106 Q 563.181 419.705 562.528 419.655 L 554.998 418.6 Q 551.484 418.098 549.35 416.291 Q 547.217 414.484 547.217 410.267 L 547.217 404.996 Q 547.217 400.729 549.978 398.445 Q 552.739 396.161 557.608 396.161 L 571.664 396.161 Q 572.618 396.161 573.045 396.588 Q 573.472 397.014 573.472 397.968 L 573.472 403.942 Q 573.472 404.896 573.045 405.322 Q 572.618 405.749 571.664 405.749 L 559.968 405.749 Q 559.315 405.749 558.964 406.176 Q 558.612 406.603 558.612 407.255 Q 558.612 407.908 558.964 408.36 Q 559.315 408.811 559.968 408.862 L 567.448 409.866 Q 570.962 410.368 573.12 412.175 Q 575.279 413.982 575.279 418.199 L 575.279 423.47 Q 575.279 427.737 572.493 430.021 Q 569.707 432.305 564.887 432.305 Z" style="fill: rgb(65, 61, 81); white-space: pre;"/>
  <path d="M 597.314 432.305 L 589.181 432.305 Q 588.227 432.305 587.801 431.878 Q 587.374 431.452 587.374 430.498 L 587.374 405.85 L 579.995 405.85 Q 579.041 405.85 578.614 405.423 Q 578.187 404.996 578.187 404.042 L 578.187 397.968 Q 578.187 397.014 578.614 396.588 Q 579.041 396.161 579.995 396.161 L 606.5 396.161 Q 607.454 396.161 607.881 396.588 Q 608.307 397.014 608.307 397.968 L 608.307 404.042 Q 608.307 404.996 607.881 405.423 Q 607.454 405.85 606.5 405.85 L 599.121 405.85 L 599.121 430.498 Q 599.121 431.452 598.694 431.878 Q 598.267 432.305 597.314 432.305 Z" style="fill: rgb(65, 61, 81); white-space: pre;"/>
  <path d="M 624.254 406.703 L 621.895 414.333 L 629.776 414.333 L 627.417 406.703 Q 627.216 406.251 626.99 406.05 Q 626.764 405.85 626.463 405.85 L 625.208 405.85 Q 624.907 405.85 624.681 406.05 Q 624.455 406.251 624.254 406.703 Z M 621.393 430.498 Q 621.393 431.452 620.966 431.878 Q 620.539 432.305 619.585 432.305 L 612.206 432.305 Q 611.252 432.305 610.825 431.878 Q 610.399 431.452 610.399 430.498 L 610.399 417.245 Q 610.399 415.739 610.876 413.781 Q 611.353 411.823 612.357 409.213 L 616.724 397.818 Q 617.025 396.964 617.653 396.563 Q 618.28 396.161 619.284 396.161 L 632.788 396.161 Q 633.742 396.161 634.369 396.563 Q 634.997 396.964 635.298 397.818 L 639.665 409.213 Q 640.669 411.823 641.146 413.781 Q 641.623 415.739 641.623 417.245 L 641.623 430.498 Q 641.623 431.452 641.196 431.878 Q 640.77 432.305 639.816 432.305 L 632.236 432.305 Q 631.232 432.305 630.755 431.878 Q 630.278 431.452 630.278 430.498 L 630.278 423.47 L 621.393 423.47 Z" style="fill: rgb(65, 61, 81); white-space: pre;"/>
  <path d="M 648.796 432.305 Q 647.843 432.305 647.416 431.878 Q 646.989 431.452 646.989 430.498 L 646.989 424.524 Q 646.989 423.57 647.416 423.143 Q 647.843 422.717 648.796 422.717 L 653.766 422.717 L 653.766 405.85 L 648.796 405.85 Q 647.843 405.85 647.416 405.423 Q 646.989 404.996 646.989 404.042 L 646.989 397.968 Q 646.989 397.014 647.416 396.588 Q 647.843 396.161 648.796 396.161 L 670.182 396.161 Q 671.135 396.161 671.562 396.588 Q 671.989 397.014 671.989 397.968 L 671.989 404.042 Q 671.989 404.996 671.562 405.423 Q 671.135 405.85 670.182 405.85 L 665.312 405.85 L 665.312 422.717 L 670.182 422.717 Q 671.135 422.717 671.562 423.143 Q 671.989 423.57 671.989 424.524 L 671.989 430.498 Q 671.989 431.452 671.562 431.878 Q 671.135 432.305 670.182 432.305 Z" style="fill: rgb(65, 61, 81); white-space: pre;"/>
  <path d="M 687.489 432.305 L 679.959 432.305 Q 679.005 432.305 678.578 431.878 Q 678.152 431.452 678.152 430.498 L 678.152 397.968 Q 678.152 397.014 678.578 396.588 Q 679.005 396.161 679.959 396.161 L 685.18 396.161 Q 686.134 396.161 686.811 396.462 Q 687.489 396.763 688.142 397.516 L 697.88 408.661 L 697.88 397.968 Q 697.88 397.014 698.307 396.588 Q 698.734 396.161 699.688 396.161 L 707.218 396.161 Q 708.171 396.161 708.598 396.588 Q 709.025 397.014 709.025 397.968 L 709.025 430.498 Q 709.025 431.452 708.598 431.878 Q 708.171 432.305 707.218 432.305 L 699.688 432.305 Q 698.734 432.305 698.307 431.878 Q 697.88 431.452 697.88 430.498 L 697.88 424.323 L 689.296 413.932 L 689.296 430.498 Q 689.296 431.452 688.869 431.878 Q 688.443 432.305 687.489 432.305 Z" style="fill: rgb(65, 61, 81); white-space: pre;"/>
  <path d="M 727.193 432.305 L 717.053 432.305 Q 716.099 432.305 715.673 431.878 Q 715.246 431.452 715.246 430.498 L 715.246 420.307 Q 715.246 419.353 715.673 418.927 Q 716.099 418.5 717.053 418.5 L 727.193 418.5 Q 728.147 418.5 728.574 418.927 Q 729.001 419.353 729.001 420.307 L 729.001 430.498 Q 729.001 431.452 728.574 431.878 Q 728.147 432.305 727.193 432.305 Z" style="fill: rgb(65, 61, 81); white-space: pre;"/>
  <path d="M 759.26 432.305 L 747.011 432.305 Q 740.736 432.305 737.699 429.795 Q 734.662 427.285 734.662 422.064 L 734.662 406.452 Q 734.662 401.231 737.699 398.696 Q 740.736 396.161 747.011 396.161 L 759.26 396.161 Q 760.214 396.161 760.641 396.588 Q 761.067 397.014 761.067 397.968 L 761.067 404.042 Q 761.067 404.996 760.641 405.423 Q 760.214 405.85 759.26 405.85 L 749.17 405.85 Q 747.614 405.85 746.861 406.477 Q 746.108 407.105 746.108 408.36 L 746.108 420.307 Q 746.108 421.562 746.861 422.139 Q 747.614 422.717 749.17 422.717 L 759.26 422.717 Q 760.214 422.717 760.641 423.143 Q 761.067 423.57 761.067 424.524 L 761.067 430.498 Q 761.067 431.452 760.641 431.878 Q 760.214 432.305 759.26 432.305 Z" style="fill: rgb(65, 61, 81); white-space: pre;"/>
  <path d="M 797.102 422.817 Q 797.102 425.126 796.424 427.009 Q 795.747 428.891 794.015 430.222 Q 792.283 431.552 789.246 432.305 Q 786.209 433.058 781.54 433.058 Q 776.871 433.058 773.809 432.305 Q 770.747 431.552 769.015 430.222 Q 767.283 428.891 766.605 427.009 Q 765.928 425.126 765.928 422.817 L 765.928 405.699 Q 765.928 403.39 766.605 401.507 Q 767.283 399.625 769.015 398.269 Q 770.747 396.914 773.809 396.161 Q 776.871 395.408 781.54 395.408 Q 786.209 395.408 789.246 396.161 Q 792.283 396.914 794.015 398.269 Q 795.747 399.625 796.424 401.507 Q 797.102 403.39 797.102 405.699 Z M 777.323 421.01 Q 777.323 422.014 778.076 422.692 Q 778.829 423.369 781.54 423.369 Q 784.251 423.369 785.004 422.692 Q 785.757 422.014 785.757 421.01 L 785.757 407.506 Q 785.757 406.552 785.004 405.875 Q 784.251 405.197 781.54 405.197 Q 778.829 405.197 778.076 405.875 Q 777.323 406.552 777.323 407.506 Z" style="fill: rgb(65, 61, 81); white-space: pre;"/>
  <path d="M 812.767 432.305 L 805.287 432.305 Q 804.333 432.305 803.907 431.878 Q 803.48 431.452 803.48 430.498 L 803.48 397.968 Q 803.48 397.014 803.907 396.588 Q 804.333 396.161 805.287 396.161 L 813.369 396.161 Q 814.173 396.161 814.7 396.512 Q 815.227 396.864 815.679 397.667 L 820.197 405.85 Q 820.448 406.301 820.623 406.502 Q 820.799 406.703 821.1 406.703 L 821.552 406.703 Q 821.853 406.703 822.029 406.502 Q 822.205 406.301 822.456 405.85 L 826.923 397.667 Q 827.375 396.864 827.902 396.512 Q 828.429 396.161 829.233 396.161 L 837.365 396.161 Q 838.319 396.161 838.745 396.588 Q 839.172 397.014 839.172 397.968 L 839.172 430.498 Q 839.172 431.452 838.745 431.878 Q 838.319 432.305 837.365 432.305 L 829.634 432.305 Q 828.68 432.305 828.254 431.878 Q 827.827 431.452 827.827 430.498 L 827.827 412.827 L 824.865 418.299 Q 824.413 419.153 823.786 419.529 Q 823.158 419.906 822.205 419.906 L 820.197 419.906 Q 819.243 419.906 818.615 419.529 Q 817.988 419.153 817.536 418.299 L 814.574 412.827 L 814.574 430.498 Q 814.574 431.452 814.147 431.878 Q 813.721 432.305 812.767 432.305 Z" style="fill: rgb(65, 61, 81); white-space: pre;"/>
  <path d="M 445.447 469.603 Q 443.301 469.603 441.72 468.733 Q 440.14 467.863 439.284 466.152 Q 438.429 464.441 438.429 461.976 Q 438.429 458.177 440.212 456.219 Q 441.996 454.262 445.186 454.262 Q 447.535 454.262 448.985 455.306 Q 450.435 456.35 451.087 458.22 Q 451.74 460.091 451.711 462.585 L 440.256 462.585 L 440.169 460.323 L 449.391 460.323 L 448.666 461.048 Q 448.579 458.815 447.738 457.785 Q 446.897 456.756 445.099 456.756 Q 443.939 456.756 443.127 457.234 Q 442.315 457.713 441.894 458.858 Q 441.474 460.004 441.474 462.005 Q 441.474 464.441 442.605 465.702 Q 443.736 466.964 445.94 466.964 Q 446.926 466.964 447.781 466.79 Q 448.637 466.616 449.362 466.34 Q 450.087 466.065 450.609 465.804 L 450.609 468.617 Q 449.594 469.052 448.318 469.327 Q 447.042 469.603 445.447 469.603 Z" style="fill: rgb(65, 61, 81); white-space: pre;"/>
  <path d="M 456.308 455.799 Q 456.946 455.48 457.743 455.204 Q 458.541 454.929 459.44 454.726 Q 460.339 454.523 461.267 454.407 Q 462.195 454.291 463.065 454.291 Q 465.124 454.291 466.429 454.856 Q 467.734 455.422 468.372 456.596 Q 469.01 457.771 469.01 459.54 L 469.01 469.168 L 465.965 469.168 L 465.965 459.946 Q 465.965 459.395 465.834 458.858 Q 465.704 458.322 465.341 457.872 Q 464.979 457.423 464.297 457.162 Q 463.616 456.901 462.514 456.901 Q 461.731 456.901 460.904 457.046 Q 460.078 457.191 459.353 457.452 L 459.353 469.168 L 456.308 469.168 Z" style="fill: rgb(65, 61, 81); white-space: pre;"/>
  <path d="M 479.024 469.168 L 472.905 454.61 L 476.153 454.61 L 481.141 466.703 L 480.416 466.79 L 485.056 454.61 L 488.217 454.61 L 482.069 469.168 Z" style="fill: rgb(65, 61, 81); white-space: pre;"/>
  <path d="M 492.411 469.168 L 492.411 454.697 L 495.456 454.697 L 495.485 469.168 Z M 492.324 452.29 L 492.324 449.535 L 495.572 449.535 L 495.572 452.29 Z" style="fill: rgb(65, 61, 81); white-space: pre;"/>
  <path d="M 500.964 469.168 L 500.964 455.944 Q 501.341 455.712 502.356 455.306 Q 503.371 454.9 504.763 454.595 Q 506.155 454.291 507.576 454.291 Q 508.301 454.291 508.765 454.407 Q 509.229 454.523 509.548 454.668 L 509.548 457.104 Q 508.881 457.017 508.156 456.973 Q 507.431 456.93 506.706 456.973 Q 505.981 457.017 505.285 457.104 Q 504.589 457.191 504.009 457.278 L 504.009 469.168 Z" style="fill: rgb(65, 61, 81); white-space: pre;"/>
  <path d="M 519.059 469.603 Q 515.521 469.603 513.795 467.602 Q 512.07 465.601 512.07 461.889 Q 512.07 457.945 513.853 456.103 Q 515.637 454.262 519.001 454.262 Q 521.408 454.262 522.974 455.146 Q 524.54 456.031 525.294 457.742 Q 526.048 459.453 526.048 461.889 Q 526.048 465.572 524.235 467.587 Q 522.423 469.603 519.059 469.603 Z M 519.03 467.022 Q 520.509 467.022 521.379 466.369 Q 522.249 465.717 522.64 464.557 Q 523.032 463.397 523.032 461.889 Q 523.032 460.207 522.626 459.076 Q 522.22 457.945 521.35 457.379 Q 520.48 456.814 519.03 456.814 Q 517.58 456.814 516.71 457.423 Q 515.84 458.032 515.463 459.163 Q 515.086 460.294 515.086 461.889 Q 515.086 464.296 515.985 465.659 Q 516.884 467.022 519.03 467.022 Z" style="fill: rgb(65, 61, 81); white-space: pre;"/>
  <path d="M 530.683 455.799 Q 531.321 455.48 532.118 455.204 Q 532.916 454.929 533.815 454.726 Q 534.714 454.523 535.642 454.407 Q 536.57 454.291 537.44 454.291 Q 539.499 454.291 540.804 454.856 Q 542.109 455.422 542.747 456.596 Q 543.385 457.771 543.385 459.54 L 543.385 469.168 L 540.34 469.168 L 540.34 459.946 Q 540.34 459.395 540.209 458.858 Q 540.079 458.322 539.716 457.872 Q 539.354 457.423 538.672 457.162 Q 537.991 456.901 536.889 456.901 Q 536.106 456.901 535.279 457.046 Q 534.453 457.191 533.728 457.452 L 533.728 469.168 L 530.683 469.168 Z" style="fill: rgb(65, 61, 81); white-space: pre;"/>
  <path d="M 561.392 459.54 L 561.392 469.168 L 558.347 469.168 L 558.347 459.946 Q 558.347 459.395 558.216 458.858 Q 558.086 458.322 557.723 457.872 Q 557.361 457.423 556.679 457.162 Q 555.998 456.901 554.896 456.901 Q 554.113 456.901 553.33 457.046 Q 552.547 457.191 551.822 457.452 L 551.822 469.168 L 548.777 469.168 L 548.777 455.799 Q 549.415 455.48 550.212 455.204 Q 551.01 454.929 551.909 454.726 Q 552.808 454.523 553.736 454.407 Q 554.664 454.291 555.534 454.291 Q 557.593 454.291 558.869 454.856 Q 560.145 455.422 560.768 456.596 Q 561.392 457.771 561.392 459.54 Z M 557.912 456.553 Q 558.84 455.799 559.956 455.306 Q 561.073 454.813 562.276 454.552 Q 563.48 454.291 564.64 454.291 Q 566.699 454.291 567.975 454.856 Q 569.251 455.422 569.874 456.596 Q 570.498 457.771 570.498 459.54 L 570.498 469.168 L 567.453 469.168 L 567.453 459.946 Q 567.453 459.395 567.322 458.858 Q 567.192 458.322 566.829 457.872 Q 566.467 457.423 565.785 457.162 Q 565.104 456.901 564.002 456.901 Q 563.219 456.901 562.436 457.133 Q 561.653 457.365 560.928 457.858 Z" style="fill: rgb(65, 61, 81); white-space: pre;"/>
  <path d="M 582.166 469.603 Q 580.02 469.603 578.439 468.733 Q 576.859 467.863 576.003 466.152 Q 575.148 464.441 575.148 461.976 Q 575.148 458.177 576.931 456.219 Q 578.715 454.262 581.905 454.262 Q 584.254 454.262 585.704 455.306 Q 587.154 456.35 587.806 458.22 Q 588.459 460.091 588.43 462.585 L 576.975 462.585 L 576.888 460.323 L 586.11 460.323 L 585.385 461.048 Q 585.298 458.815 584.457 457.785 Q 583.616 456.756 581.818 456.756 Q 580.658 456.756 579.846 457.234 Q 579.034 457.713 578.613 458.858 Q 578.193 460.004 578.193 462.005 Q 578.193 464.441 579.324 465.702 Q 580.455 466.964 582.659 466.964 Q 583.645 466.964 584.5 466.79 Q 585.356 466.616 586.081 466.34 Q 586.806 466.065 587.328 465.804 L 587.328 468.617 Q 586.313 469.052 585.037 469.327 Q 583.761 469.603 582.166 469.603 Z" style="fill: rgb(65, 61, 81); white-space: pre;"/>
  <path d="M 593.027 455.799 Q 593.665 455.48 594.462 455.204 Q 595.26 454.929 596.159 454.726 Q 597.058 454.523 597.986 454.407 Q 598.914 454.291 599.784 454.291 Q 601.843 454.291 603.148 454.856 Q 604.453 455.422 605.091 456.596 Q 605.729 457.771 605.729 459.54 L 605.729 469.168 L 602.684 469.168 L 602.684 459.946 Q 602.684 459.395 602.553 458.858 Q 602.423 458.322 602.06 457.872 Q 601.698 457.423 601.016 457.162 Q 600.335 456.901 599.233 456.901 Q 598.45 456.901 597.623 457.046 Q 596.797 457.191 596.072 457.452 L 596.072 469.168 L 593.027 469.168 Z" style="fill: rgb(65, 61, 81); white-space: pre;"/>
  <path d="M 616.311 469.545 Q 614.339 469.545 613.194 468.501 Q 612.048 467.457 612.048 465.427 L 612.048 457.133 L 609.699 457.133 L 609.699 454.61 L 612.048 454.61 L 612.048 450.55 L 615.18 450.55 L 615.18 454.61 L 618.718 454.61 L 618.718 457.133 L 615.18 457.133 L 615.18 464.818 Q 615.18 465.833 615.543 466.34 Q 615.905 466.848 616.891 466.848 Q 617.384 466.848 617.877 466.717 Q 618.37 466.587 618.718 466.384 L 618.718 469.081 Q 618.196 469.313 617.544 469.429 Q 616.891 469.545 616.311 469.545 Z" style="fill: rgb(65, 61, 81); white-space: pre;"/>
  <path d="M 644.85 469.168 L 635.744 458.206 Q 635.106 457.423 634.482 456.35 Q 633.859 455.277 633.859 454.233 Q 633.859 452.957 634.555 451.898 Q 635.251 450.84 636.425 450.202 Q 637.6 449.564 639.05 449.564 Q 640.5 449.564 641.616 450.144 Q 642.733 450.724 643.385 451.739 Q 644.038 452.754 644.038 454.001 Q 644.038 455.19 643.501 456.045 Q 642.965 456.901 642.008 457.611 Q 641.051 458.322 639.746 459.105 L 638.47 457.336 Q 639.63 456.698 640.21 456.176 Q 640.79 455.654 640.978 455.175 Q 641.167 454.697 641.167 454.233 Q 641.167 453.363 640.572 452.812 Q 639.978 452.261 639.079 452.261 Q 638.18 452.261 637.556 452.855 Q 636.933 453.45 636.933 454.291 Q 636.933 454.668 637.237 455.19 Q 637.542 455.712 637.933 456.248 Q 638.325 456.785 638.673 457.191 L 648.678 469.168 Z M 638.064 469.458 Q 636.498 469.458 635.338 468.965 Q 634.178 468.472 633.438 467.645 Q 632.699 466.819 632.322 465.862 Q 631.945 464.905 631.945 464.006 Q 631.945 463.049 632.336 462.019 Q 632.728 460.99 633.699 459.975 Q 634.671 458.96 636.382 458.09 L 638.296 459.801 Q 637.049 460.497 636.367 461.236 Q 635.686 461.976 635.425 462.628 Q 635.164 463.281 635.164 463.803 Q 635.164 464.151 635.294 464.658 Q 635.425 465.166 635.773 465.673 Q 636.121 466.181 636.788 466.514 Q 637.455 466.848 638.499 466.848 Q 639.659 466.848 640.703 466.224 Q 641.747 465.601 642.385 464.905 L 644.009 466.848 Q 643.371 467.544 642.515 468.138 Q 641.66 468.733 640.543 469.095 Q 639.427 469.458 638.064 469.458 Z M 643.632 463.542 Q 643.98 462.991 644.212 462.396 Q 644.444 461.802 644.589 461.309 Q 644.734 460.816 644.792 460.584 L 647.257 460.584 Q 647.083 461.57 646.575 462.86 Q 646.068 464.151 645.314 465.34 Z" style="fill: rgb(65, 61, 81); white-space: pre;"/>
  <path d="M 666.45 469.603 Q 664.884 469.603 663.797 469.269 Q 662.709 468.936 661.665 468.443 L 661.665 465.572 Q 662.419 466.036 663.144 466.398 Q 663.869 466.761 664.667 466.964 Q 665.464 467.167 666.45 467.167 Q 667.697 467.167 668.408 466.645 Q 669.118 466.123 669.118 465.34 Q 669.118 464.673 668.669 464.296 Q 668.219 463.919 667.523 463.658 Q 666.827 463.397 666.073 463.136 Q 665.29 462.933 664.507 462.657 Q 663.724 462.382 663.072 461.903 Q 662.419 461.425 662.028 460.671 Q 661.636 459.917 661.636 458.815 Q 661.636 457.597 662.129 456.741 Q 662.622 455.886 663.42 455.349 Q 664.217 454.813 665.189 454.566 Q 666.16 454.32 667.088 454.32 Q 668.625 454.349 669.597 454.697 Q 670.568 455.045 671.496 455.538 L 671.525 458.148 Q 670.481 457.597 669.553 457.191 Q 668.625 456.785 667.407 456.785 Q 666.276 456.785 665.522 457.205 Q 664.768 457.626 664.768 458.438 Q 664.768 459.134 665.189 459.54 Q 665.609 459.946 666.291 460.178 Q 666.972 460.41 667.755 460.642 Q 668.48 460.874 669.263 461.12 Q 670.046 461.367 670.713 461.831 Q 671.38 462.295 671.801 463.049 Q 672.221 463.803 672.221 465.021 Q 672.192 466.645 671.366 467.66 Q 670.539 468.675 669.205 469.139 Q 667.871 469.603 666.45 469.603 Z" style="fill: rgb(65, 61, 81); white-space: pre;"/>
  <path d="M 683.324 469.603 Q 681.323 469.603 679.888 468.95 Q 678.452 468.298 677.669 466.993 Q 676.886 465.688 676.886 463.745 L 676.886 454.61 L 679.931 454.61 L 679.931 463.31 Q 679.931 465.166 680.758 466.05 Q 681.584 466.935 683.324 466.935 Q 685.064 466.935 685.891 466.05 Q 686.717 465.166 686.717 463.31 L 686.717 454.61 L 689.646 454.61 L 689.646 463.745 Q 689.646 466.645 687.979 468.124 Q 686.311 469.603 683.324 469.603 Z" style="fill: rgb(65, 61, 81); white-space: pre;"/>
  <path d="M 699.247 469.603 Q 697.681 469.603 696.594 469.269 Q 695.506 468.936 694.462 468.443 L 694.462 465.572 Q 695.216 466.036 695.941 466.398 Q 696.666 466.761 697.464 466.964 Q 698.261 467.167 699.247 467.167 Q 700.494 467.167 701.205 466.645 Q 701.915 466.123 701.915 465.34 Q 701.915 464.673 701.466 464.296 Q 701.016 463.919 700.32 463.658 Q 699.624 463.397 698.87 463.136 Q 698.087 462.933 697.304 462.657 Q 696.521 462.382 695.869 461.903 Q 695.216 461.425 694.825 460.671 Q 694.433 459.917 694.433 458.815 Q 694.433 457.597 694.926 456.741 Q 695.419 455.886 696.217 455.349 Q 697.014 454.813 697.986 454.566 Q 698.957 454.32 699.885 454.32 Q 701.422 454.349 702.394 454.697 Q 703.365 455.045 704.293 455.538 L 704.322 458.148 Q 703.278 457.597 702.35 457.191 Q 701.422 456.785 700.204 456.785 Q 699.073 456.785 698.319 457.205 Q 697.565 457.626 697.565 458.438 Q 697.565 459.134 697.986 459.54 Q 698.406 459.946 699.088 460.178 Q 699.769 460.41 700.552 460.642 Q 701.277 460.874 702.06 461.12 Q 702.843 461.367 703.51 461.831 Q 704.177 462.295 704.598 463.049 Q 705.018 463.803 705.018 465.021 Q 704.989 466.645 704.163 467.66 Q 703.336 468.675 702.002 469.139 Q 700.668 469.603 699.247 469.603 Z" style="fill: rgb(65, 61, 81); white-space: pre;"/>
  <path d="M 714.874 469.545 Q 712.902 469.545 711.756 468.501 Q 710.611 467.457 710.611 465.427 L 710.611 457.133 L 708.262 457.133 L 708.262 454.61 L 710.611 454.61 L 710.611 450.55 L 713.743 450.55 L 713.743 454.61 L 717.281 454.61 L 717.281 457.133 L 713.743 457.133 L 713.743 464.818 Q 713.743 465.833 714.105 466.34 Q 714.468 466.848 715.454 466.848 Q 715.947 466.848 716.44 466.717 Q 716.933 466.587 717.281 466.384 L 717.281 469.081 Q 716.759 469.313 716.106 469.429 Q 715.454 469.545 714.874 469.545 Z" style="fill: rgb(65, 61, 81); white-space: pre;"/>
  <path d="M 727.195 469.603 Q 726.064 469.603 725.02 469.385 Q 723.976 469.168 723.121 468.646 Q 722.265 468.124 721.758 467.21 Q 721.25 466.297 721.25 464.934 Q 721.25 463.31 721.888 462.266 Q 722.526 461.222 723.715 460.7 Q 724.904 460.178 726.557 460.178 Q 727.659 460.178 728.544 460.352 Q 729.428 460.526 730.139 460.83 Q 730.849 461.135 731.342 461.512 L 731.661 463.513 Q 731.023 463.078 729.95 462.773 Q 728.877 462.469 727.63 462.469 Q 725.977 462.469 725.122 463.049 Q 724.266 463.629 724.266 464.789 Q 724.266 465.659 724.759 466.195 Q 725.252 466.732 725.992 466.978 Q 726.731 467.225 727.543 467.225 Q 729.254 467.225 730.066 466.993 Q 730.878 466.761 730.878 465.92 L 730.878 459.83 Q 730.878 458.293 729.95 457.582 Q 729.022 456.872 727.311 456.872 Q 726.093 456.872 724.788 457.263 Q 723.483 457.655 722.642 458.351 L 722.642 455.509 Q 723.454 454.958 725.006 454.624 Q 726.557 454.291 728.21 454.291 Q 729.022 454.291 729.849 454.45 Q 730.675 454.61 731.4 454.943 Q 732.125 455.277 732.691 455.842 Q 733.256 456.408 733.575 457.22 Q 733.894 458.032 733.894 459.134 L 733.894 466.094 Q 733.894 467.515 733.01 468.283 Q 732.125 469.052 730.617 469.327 Q 729.109 469.603 727.195 469.603 Z" style="fill: rgb(65, 61, 81); white-space: pre;"/>
  <path d="M 739.379 469.168 L 739.379 454.697 L 742.424 454.697 L 742.453 469.168 Z M 739.292 452.29 L 739.292 449.535 L 742.54 449.535 L 742.54 452.29 Z" style="fill: rgb(65, 61, 81); white-space: pre;"/>
  <path d="M 747.933 455.799 Q 748.571 455.48 749.368 455.204 Q 750.166 454.929 751.065 454.726 Q 751.964 454.523 752.892 454.407 Q 753.82 454.291 754.69 454.291 Q 756.749 454.291 758.054 454.856 Q 759.359 455.422 759.997 456.596 Q 760.635 457.771 760.635 459.54 L 760.635 469.168 L 757.59 469.168 L 757.59 459.946 Q 757.59 459.395 757.459 458.858 Q 757.329 458.322 756.966 457.872 Q 756.604 457.423 755.922 457.162 Q 755.241 456.901 754.139 456.901 Q 753.356 456.901 752.529 457.046 Q 751.703 457.191 750.978 457.452 L 750.978 469.168 L 747.933 469.168 Z" style="fill: rgb(65, 61, 81); white-space: pre;"/>
  <path d="M 771.305 469.603 Q 770.174 469.603 769.13 469.385 Q 768.086 469.168 767.23 468.646 Q 766.375 468.124 765.867 467.21 Q 765.36 466.297 765.36 464.934 Q 765.36 463.31 765.998 462.266 Q 766.636 461.222 767.825 460.7 Q 769.014 460.178 770.667 460.178 Q 771.769 460.178 772.653 460.352 Q 773.538 460.526 774.248 460.83 Q 774.959 461.135 775.452 461.512 L 775.771 463.513 Q 775.133 463.078 774.06 462.773 Q 772.987 462.469 771.74 462.469 Q 770.087 462.469 769.231 463.049 Q 768.376 463.629 768.376 464.789 Q 768.376 465.659 768.869 466.195 Q 769.362 466.732 770.101 466.978 Q 770.841 467.225 771.653 467.225 Q 773.364 467.225 774.176 466.993 Q 774.988 466.761 774.988 465.92 L 774.988 459.83 Q 774.988 458.293 774.06 457.582 Q 773.132 456.872 771.421 456.872 Q 770.203 456.872 768.898 457.263 Q 767.593 457.655 766.752 458.351 L 766.752 455.509 Q 767.564 454.958 769.115 454.624 Q 770.667 454.291 772.32 454.291 Q 773.132 454.291 773.958 454.45 Q 774.785 454.61 775.51 454.943 Q 776.235 455.277 776.8 455.842 Q 777.366 456.408 777.685 457.22 Q 778.004 458.032 778.004 459.134 L 778.004 466.094 Q 778.004 467.515 777.119 468.283 Q 776.235 469.052 774.727 469.327 Q 773.219 469.603 771.305 469.603 Z" style="fill: rgb(65, 61, 81); white-space: pre;"/>
  <path d="M 789.534 469.603 Q 788.345 469.603 787.243 469.458 Q 786.141 469.313 785.271 468.95 Q 784.401 468.588 783.894 467.95 Q 783.386 467.312 783.386 466.297 L 783.386 448.781 L 786.402 448.781 L 786.402 456.64 L 785.619 455.654 Q 786.17 455.219 786.997 454.929 Q 787.823 454.639 788.679 454.465 Q 789.534 454.291 790.143 454.291 Q 793.449 454.291 795.102 456.248 Q 796.755 458.206 796.755 461.744 Q 796.755 464.122 796.132 465.659 Q 795.508 467.196 794.479 468.051 Q 793.449 468.907 792.159 469.255 Q 790.868 469.603 789.534 469.603 Z M 789.389 466.964 Q 791.1 466.964 792.028 466.268 Q 792.956 465.572 793.304 464.426 Q 793.652 463.281 793.652 461.86 Q 793.652 460.236 793.217 459.134 Q 792.782 458.032 791.912 457.452 Q 791.042 456.872 789.679 456.872 Q 788.925 456.872 788.041 457.075 Q 787.156 457.278 786.402 457.713 L 786.402 465.543 Q 786.402 466.123 786.866 466.442 Q 787.33 466.761 788.012 466.862 Q 788.693 466.964 789.389 466.964 Z" style="fill: rgb(65, 61, 81); white-space: pre;"/>
  <path d="M 801.489 469.168 L 801.489 454.697 L 804.534 454.697 L 804.563 469.168 Z M 801.402 452.29 L 801.402 449.535 L 804.65 449.535 L 804.65 452.29 Z" style="fill: rgb(65, 61, 81); white-space: pre;"/>
  <path d="M 813.058 469.168 L 810.042 469.168 L 810.042 449.1 L 813.058 449.1 Z" style="fill: rgb(65, 61, 81); white-space: pre;"/>
  <path d="M 818.536 469.168 L 818.536 454.697 L 821.581 454.697 L 821.61 469.168 Z M 818.449 452.29 L 818.449 449.535 L 821.697 449.535 L 821.697 452.29 Z" style="fill: rgb(65, 61, 81); white-space: pre;"/>
  <path d="M 832.28 469.545 Q 830.308 469.545 829.163 468.501 Q 828.017 467.457 828.017 465.427 L 828.017 457.133 L 825.668 457.133 L 825.668 454.61 L 828.017 454.61 L 828.017 450.55 L 831.149 450.55 L 831.149 454.61 L 834.687 454.61 L 834.687 457.133 L 831.149 457.133 L 831.149 464.818 Q 831.149 465.833 831.512 466.34 Q 831.874 466.848 832.86 466.848 Q 833.353 466.848 833.846 466.717 Q 834.339 466.587 834.687 466.384 L 834.687 469.081 Q 834.165 469.313 833.513 469.429 Q 832.86 469.545 832.28 469.545 Z" style="fill: rgb(65, 61, 81); white-space: pre;"/>
  <path d="M 841.586 474.794 Q 841.035 474.794 840.542 474.692 Q 840.049 474.591 839.672 474.446 L 839.672 471.836 Q 840.02 471.952 840.368 472.039 Q 840.716 472.126 841.122 472.126 Q 841.992 472.126 842.572 471.662 Q 843.152 471.198 843.558 470.328 Q 843.964 469.458 844.225 468.24 L 844.283 469.748 L 838.077 454.61 L 841.528 454.61 L 845.733 466.094 L 845.298 466.094 L 849.445 454.61 L 852.606 454.61 L 846.603 470.067 Q 845.878 471.923 845.037 472.952 Q 844.196 473.982 843.311 474.388 Q 842.427 474.794 841.586 474.794 Z" style="fill: rgb(65, 61, 81); white-space: pre;"/>
</svg>