<?xml version="1.0" encoding="utf-8"?>
<svg viewBox="0 0 1920 600" style="enable-background:new 0 0 1000 1000;" xmlns="http://www.w3.org/2000/svg">
  <defs>
    <style type="text/css">
	.st0{opacity:0.7;fill:#FFFFFF;}
	.st1{fill:#413D51;}
	.st2{fill:#8FE3F9;}
	.st3{fill:#B2EBF9;}
	.st4{fill:#A4E0EA;}
	.st5{fill:#7AD1E5;}
	.st6{fill:none;stroke:#413D51;stroke-width:16;stroke-linecap:round;stroke-linejoin:round;stroke-miterlimit:10;}
	.st7{fill:#F7E8AD;}
	.st8{fill:#F7D6A1;}
	.st9{fill:#EFCA92;}
	.st10{fill:#FFFFFF;}
	.st11{opacity:0.89;fill:#EFCA92;}
	.st12{fill:none;stroke:#413D51;stroke-width:8;stroke-linecap:round;stroke-linejoin:round;stroke-miterlimit:10;}
	.st13{opacity:0.31;fill:none;stroke:#72C8D6;stroke-width:8;stroke-linecap:round;stroke-linejoin:round;stroke-miterlimit:10;}
</style>
  </defs>
  <rect class="st0" width="1920" height="600" style="opacity: 1;"/>
  <g transform="matrix(0.416555, 0, 0, 0.416555, 751.582092, 48.266483)" style="">
    <ellipse id="XMLID_2_" class="st2" cx="501.8" cy="487.5" rx="228" ry="205.8"/>
    <ellipse id="XMLID_188_" class="st2" cx="501.8" cy="487.5" rx="228" ry="205.8"/>
    <path id="XMLID_193_" class="st3" d="M507.8,689.3c52.1,0,100.1-15.3,138.5-41l-10.5-24.7c-22-51.9-74.2-85.8-132.1-85.8l0,0 c-57.9,0-110.1,33.9-132.1,85.8l-8.6,20.4C402.3,672.3,452.8,689.3,507.8,689.3z"/>
    <path id="XMLID_189_" class="st4" d="M501.7,470.3l-43.6,64l32.9,43.8c5.4,7.2,16.3,7.2,21.7,0l32.6-43.8L501.7,470.3z"/>
    <path id="XMLID_192_" class="st5" d="M501.8,669.3c-121.5,0-220.7-85.7-227.6-193.8c-0.3,4-0.4,8-0.4,12 c0,113.6,102.1,205.8,228,205.8s228-92.1,228-205.8c0-4-0.1-8-0.4-12C722.5,583.6,623.2,669.3,501.8,669.3z"/>
    <path id="XMLID_76_" class="st4" d="M638.6,628.1c-38.1,25.8-85.5,41.2-136.8,41.2c-50,0-96.2-14.5-133.7-39.1l-5,12.3 c39.4,29.2,89.8,46.8,144.8,46.8c49.7,0,95.7-14.4,133.2-38.8c1.8-1.2,3.5-2.5,5.3-3.8L638.6,628.1z"/>
    <path id="XMLID_186_" class="st5" d="M268.2,488.2c6.4,13.1,15,25.3,25.8,36.2c52.3,52.3,137.2,52.3,189.5,0 c43.8-43.8,50.9-110.3,21.5-161.5"/>
    <path id="XMLID_185_" class="st5" d="M729,503.8c-24,36.1-65,59.8-111.6,59.8c-74,0-134-60-134-134c0-33,11.9-63.2,31.7-86.6"/>
    <ellipse id="XMLID_75_" class="st6" cx="501.8" cy="487.5" rx="228" ry="205.8"/>
    <polygon id="XMLID_74_" class="st1" points="501.7,442.3 458.1,506.3 501.9,564.6 545.4,506.3 &#9;"/>
    <polygon id="XMLID_73_" class="st6" points="501.7,442.3 458.1,506.3 501.9,564.6 545.4,506.3 &#9;"/>
    <path id="XMLID_72_" class="st1" d="M600.7,303.9c-30-14-64.1-21.9-100-21.9s-70,7.9-100,21.9v140.1h200V303.9z"/>
    <g id="XMLID_58_">
      <path id="XMLID_71_" class="st1" d="M613.5,317.9l108.7-3.3c-15.7,39.3-17.8,98.4-4.1,163c-17.4,36.8-54.4,62.9-97.9,64.2l0,0 c-61.8,1.9-113.5-46.7-115.3-108.6l0,0C503,371.4,551.6,319.8,613.5,317.9z"/>
      <path id="XMLID_70_" class="st6" d="M613.5,317.9l108.7-3.3c-15.7,39.3-17.8,98.4-4.1,163c-17.4,36.8-54.4,62.9-97.9,64.2l0,0 c-61.8,1.9-113.5-46.7-115.3-108.6l0,0C503,371.4,551.6,319.8,613.5,317.9z"/>
      <circle id="XMLID_69_" class="st7" cx="617.4" cy="429.7" r="112"/>
      <circle id="XMLID_5_" class="st7" cx="617.4" cy="429.7" r="112"/>
      <path id="XMLID_86_" class="st8" d="M696.6,350.5c-21.5-21.5-49.7-32.4-77.9-32.8c21.2,4.1,41.5,14.3,57.9,30.8 c43.7,43.7,43.7,114.6,0,158.4c-22.2,22.2-51.4,33.1-80.4,32.8c35.3,6.8,73.1-3.5,100.4-30.8C740.3,465.1,740.3,394.2,696.6,350.5 z"/>
      <ellipse id="XMLID_3_" transform="matrix(0.7071 -0.7071 0.7071 0.7071 -130.8246 543.5441)" class="st0" cx="590.7" cy="429.7" rx="84" ry="84.6"/>
      <path id="XMLID_12_" class="st9" d="M711.4,376.6c-3.1-4-9.1-15-12.8-18.7c-44-43.4-114.9-43-158.3,1.1 c-8.6,8.7-15.5,18.5-20.6,29C581.4,366.3,649,371.5,711.4,376.6z"/>
      <circle id="XMLID_68_" class="st6" cx="617.4" cy="429.7" r="112"/>
      <circle id="XMLID_67_" class="st6" cx="617.4" cy="429.7" r="112"/>
      <path id="XMLID_66_" class="st1" d="M706.7,362.1c-3.1-4-6.4-7.9-10.1-11.6c-43.7-43.7-114.6-43.7-158.4,0 c-8.7,8.7-15.6,18.4-20.8,28.8C579.4,358.1,644.3,356.5,706.7,362.1z"/>
      <circle id="XMLID_57_" class="st1" cx="562.9" cy="438.1" r="42"/>
      <circle id="XMLID_56_" class="st10" cx="539.1" cy="438.4" r="14"/>
    </g>
    <g id="XMLID_26_">
      <path id="XMLID_89_" class="st1" d="M388.8,317.9L280,314.6c15.7,39.3,17.8,98.4,4.1,163c17.4,36.8,54.4,62.9,97.9,64.2l0,0 c61.8,1.9,113.5-46.7,115.3-108.6l0,0C499.2,371.4,450.6,319.8,388.8,317.9z"/>
      <path id="XMLID_88_" class="st6" d="M388.8,317.9L280,314.6c15.7,39.3,17.8,98.4,4.1,163c17.4,36.8,54.4,62.9,97.9,64.2l0,0 c61.8,1.9,113.5-46.7,115.3-108.6l0,0C499.2,371.4,450.6,319.8,388.8,317.9z"/>
      <circle id="XMLID_87_" class="st7" cx="384.8" cy="429.7" r="112"/>
      <circle id="XMLID_84_" class="st7" cx="384.8" cy="429.7" r="112"/>
      <path id="XMLID_65_" class="st8" d="M305.6,350.5c21.5-21.5,49.7-32.4,77.9-32.8c-21.2,4.1-41.5,14.3-57.9,30.8 c-43.7,43.7-43.7,114.6,0,158.4c22.2,22.2,51.4,33.1,80.4,32.8c-35.3,6.8-73.1-3.5-100.4-30.8 C261.9,465.1,261.9,394.2,305.6,350.5z"/>
      <ellipse id="XMLID_64_" transform="matrix(0.7071 -0.7071 0.7071 0.7071 -183.3021 416.8521)" class="st0" cx="411.5" cy="429.7" rx="84.6" ry="84"/>
      <path id="XMLID_63_" class="st11" d="M290.9,376.6c3.1-4,9.1-15,12.8-18.7c44-43.4,114.9-43,158.3,1.1c8.6,8.7,15.5,18.5,20.6,29 C420.8,366.3,353.2,371.5,290.9,376.6z"/>
      <circle id="XMLID_62_" class="st6" cx="384.8" cy="429.7" r="112"/>
      <circle id="XMLID_61_" class="st6" cx="384.8" cy="429.7" r="112"/>
      <path id="XMLID_60_" class="st1" d="M295.6,362.1c3.1-4,6.4-7.9,10.1-11.6c43.7-43.7,114.6-43.7,158.4,0 c8.7,8.7,15.6,18.4,20.8,28.8C422.9,358.1,357.9,356.5,295.6,362.1z"/>
      <circle id="XMLID_59_" class="st1" cx="439.4" cy="438.1" r="42"/>
      <circle id="XMLID_37_" class="st10" cx="463.2" cy="438.4" r="14"/>
    </g>
    <path id="XMLID_19_" class="st1" d="M447.9,718.3L447.9,718.3c-8.8,0-16-7.2-16-16v-18c0-8.8,7.2-16,16-16h0c8.8,0,16,7.2,16,16v18 C463.9,711.1,456.8,718.3,447.9,718.3z"/>
    <path id="XMLID_17_" class="st1" d="M415.9,718.3L415.9,718.3c-8.8,0-16-7.2-16-16v-18c0-8.8,7.2-16,16-16h0c8.8,0,16,7.2,16,16v18 C431.9,711.1,424.8,718.3,415.9,718.3z"/>
    <path id="XMLID_16_" class="st1" d="M479.7,718.3L479.7,718.3c-8.8,0-16-7.2-16-16v-18c0-8.8,7.2-16,16-16h0c8.8,0,16,7.2,16,16v18 C495.7,711.1,488.5,718.3,479.7,718.3z"/>
    <path id="XMLID_15_" class="st1" d="M521.9,718.3L521.9,718.3c-8.8,0-16-7.2-16-16v-18c0-8.8,7.2-16,16-16h0c8.8,0,16,7.2,16,16v18 C537.9,711.1,530.7,718.3,521.9,718.3z"/>
    <path id="XMLID_14_" class="st1" d="M553.7,718.3L553.7,718.3c-8.8,0-16-7.2-16-16v-18c0-8.8,7.2-16,16-16h0c8.8,0,16,7.2,16,16v18 C569.7,711.1,562.5,718.3,553.7,718.3z"/>
    <path id="XMLID_13_" class="st1" d="M585.7,718.3L585.7,718.3c-8.8,0-16-7.2-16-16v-18c0-8.8,7.2-16,16-16h0c8.8,0,16,7.2,16,16v18 C601.7,711.1,594.5,718.3,585.7,718.3z"/>
    <path id="XMLID_11_" class="st12" d="M491.9,587.6c0,8.4-6.8,15.2-15.2,15.2c-8.4,0-15.2-6.8-15.2-15.2"/>
    <path id="XMLID_9_" class="st12" d="M538.4,587.6c0,8.4-6.8,15.2-15.2,15.2c-8.4,0-15.2-6.8-15.2-15.2"/>
    <path id="XMLID_10_" class="st13" d="M323,548.8c-2.2,4.7-7.7,6.8-12.5,4.6s-6.8-7.7-4.6-12.5"/>
    <path id="XMLID_1_" class="st13" d="M352.8,564.3c-2.2,4.7-7.7,6.8-12.5,4.6c-4.7-2.2-6.8-7.7-4.6-12.5"/>
    <path id="XMLID_78_" class="st13" d="M335.5,576.2c-2.2,4.7-7.7,6.8-12.5,4.6c-4.7-2.2-6.8-7.7-4.6-12.5"/>
    <path id="XMLID_77_" class="st13" d="M361.7,596.1c-2.2,4.7-7.7,6.8-12.5,4.6c-4.7-2.2-6.8-7.7-4.6-12.5"/>
    <path id="XMLID_79_" class="st13" d="M381.7,578.1c-2.2,4.7-7.7,6.8-12.5,4.6c-4.7-2.2-6.8-7.7-4.6-12.5"/>
    <path id="XMLID_85_" class="st13" d="M683.7,550.8c2.2,4.7,7.7,6.8,12.5,4.6s6.8-7.7,4.6-12.5"/>
    <path id="XMLID_83_" class="st13" d="M654,566.3c2.2,4.7,7.7,6.8,12.5,4.6c4.7-2.2,6.8-7.7,4.6-12.5"/>
    <path id="XMLID_82_" class="st13" d="M671.2,578.2c2.2,4.7,7.7,6.8,12.5,4.6c4.7-2.2,6.8-7.7,4.6-12.5"/>
    <path id="XMLID_81_" class="st13" d="M645.1,598.1c2.2,4.7,7.7,6.8,12.5,4.6c4.7-2.2,6.8-7.7,4.6-12.5"/>
    <path id="XMLID_80_" class="st13" d="M625.1,580.1c2.2,4.7,7.7,6.8,12.5,4.6c4.7-2.2,6.8-7.7,4.6-12.5"/>
    <path id="XMLID_8_" class="st12" d="M468.7,624.1c0,8.4-6.8,15.2-15.2,15.2c-8.4,0-15.2-6.8-15.2-15.2"/>
    <path id="XMLID_7_" class="st12" d="M515.2,624.1c0,8.4-6.8,15.2-15.2,15.2s-15.2-6.8-15.2-15.2"/>
    <path id="XMLID_6_" class="st12" d="M561.7,624.1c0,8.4-6.8,15.2-15.2,15.2c-8.4,0-15.2-6.8-15.2-15.2"/>
  </g>
  <path d="M 819.461 373.892 L 813.896 373.892 Q 813.191 373.892 812.875 373.577 Q 812.56 373.261 812.56 372.556 L 812.56 348.516 Q 812.56 347.811 812.875 347.495 Q 813.191 347.18 813.896 347.18 L 817.754 347.18 Q 818.459 347.18 818.96 347.403 Q 819.461 347.625 819.943 348.182 L 827.14 356.418 L 827.14 348.516 Q 827.14 347.811 827.456 347.495 Q 827.771 347.18 828.476 347.18 L 834.041 347.18 Q 834.746 347.18 835.061 347.495 Q 835.376 347.811 835.376 348.516 L 835.376 372.556 Q 835.376 373.261 835.061 373.577 Q 834.746 373.892 834.041 373.892 L 828.476 373.892 Q 827.771 373.892 827.456 373.577 Q 827.14 373.261 827.14 372.556 L 827.14 367.993 L 820.796 360.313 L 820.796 372.556 Q 820.796 373.261 820.481 373.577 Q 820.165 373.892 819.461 373.892 Z" style="fill: rgb(65, 61, 81); white-space: pre;"/>
  <path d="M 852.858 373.892 L 841.134 373.892 Q 840.429 373.892 840.114 373.577 Q 839.798 373.261 839.798 372.556 L 839.798 368.216 Q 839.798 367.511 840.114 367.195 Q 840.429 366.88 841.134 366.88 L 851.114 366.88 Q 851.596 366.88 851.837 366.565 Q 852.078 366.249 852.078 365.804 Q 852.078 365.173 851.837 364.877 Q 851.596 364.58 851.114 364.543 L 845.549 363.764 Q 842.952 363.393 841.375 362.057 Q 839.798 360.721 839.798 357.605 L 839.798 353.71 Q 839.798 350.556 841.839 348.868 Q 843.879 347.18 847.478 347.18 L 857.866 347.18 Q 858.571 347.18 858.886 347.495 Q 859.202 347.811 859.202 348.516 L 859.202 352.93 Q 859.202 353.635 858.886 353.951 Q 858.571 354.266 857.866 354.266 L 849.222 354.266 Q 848.739 354.266 848.48 354.581 Q 848.22 354.897 848.22 355.379 Q 848.22 355.861 848.48 356.195 Q 848.739 356.529 849.222 356.566 L 854.75 357.308 Q 857.347 357.679 858.942 359.015 Q 860.537 360.35 860.537 363.467 L 860.537 367.362 Q 860.537 370.516 858.478 372.204 Q 856.419 373.892 852.858 373.892 Z" style="fill: rgb(65, 61, 81); white-space: pre;"/>
  <path d="M 887.318 366.88 Q 887.318 368.587 886.817 369.978 Q 886.316 371.369 885.036 372.352 Q 883.756 373.335 881.53 373.892 Q 879.304 374.448 875.854 374.448 Q 872.404 374.448 870.178 373.892 Q 867.952 373.335 866.672 372.352 Q 865.392 371.369 864.891 369.978 Q 864.39 368.587 864.39 366.88 L 864.39 348.516 Q 864.39 347.811 864.705 347.495 Q 865.021 347.18 865.726 347.18 L 871.55 347.18 Q 872.255 347.18 872.571 347.495 Q 872.886 347.811 872.886 348.516 L 872.886 365.433 Q 872.886 366.175 873.442 366.676 Q 873.999 367.177 875.928 367.177 Q 877.894 367.177 878.451 366.676 Q 879.007 366.175 879.007 365.433 L 879.007 348.516 Q 879.007 347.811 879.323 347.495 Q 879.638 347.18 880.343 347.18 L 885.982 347.18 Q 886.687 347.18 887.002 347.495 Q 887.318 347.811 887.318 348.516 Z" style="fill: rgb(65, 61, 81); white-space: pre;"/>
  <path d="M 904.623 373.892 L 892.9 373.892 Q 892.195 373.892 891.879 373.577 Q 891.564 373.261 891.564 372.556 L 891.564 368.216 Q 891.564 367.511 891.879 367.195 Q 892.195 366.88 892.9 366.88 L 902.879 366.88 Q 903.362 366.88 903.603 366.565 Q 903.844 366.249 903.844 365.804 Q 903.844 365.173 903.603 364.877 Q 903.362 364.58 902.879 364.543 L 897.314 363.764 Q 894.717 363.393 893.141 362.057 Q 891.564 360.721 891.564 357.605 L 891.564 353.71 Q 891.564 350.556 893.604 348.868 Q 895.645 347.18 899.244 347.18 L 909.632 347.18 Q 910.337 347.18 910.652 347.495 Q 910.967 347.811 910.967 348.516 L 910.967 352.93 Q 910.967 353.635 910.652 353.951 Q 910.337 354.266 909.632 354.266 L 900.987 354.266 Q 900.505 354.266 900.245 354.581 Q 899.986 354.897 899.986 355.379 Q 899.986 355.861 900.245 356.195 Q 900.505 356.529 900.987 356.566 L 906.515 357.308 Q 909.112 357.679 910.708 359.015 Q 912.303 360.35 912.303 363.467 L 912.303 367.362 Q 912.303 370.516 910.244 372.204 Q 908.185 373.892 904.623 373.892 Z" style="fill: rgb(65, 61, 81); white-space: pre;"/>
  <path d="M 928.58 373.892 L 922.57 373.892 Q 921.865 373.892 921.55 373.577 Q 921.234 373.261 921.234 372.556 L 921.234 354.34 L 915.781 354.34 Q 915.076 354.34 914.76 354.025 Q 914.445 353.71 914.445 353.005 L 914.445 348.516 Q 914.445 347.811 914.76 347.495 Q 915.076 347.18 915.781 347.18 L 935.369 347.18 Q 936.074 347.18 936.39 347.495 Q 936.705 347.811 936.705 348.516 L 936.705 353.005 Q 936.705 353.71 936.39 354.025 Q 936.074 354.34 935.369 354.34 L 929.916 354.34 L 929.916 372.556 Q 929.916 373.261 929.6 373.577 Q 929.285 373.892 928.58 373.892 Z" style="fill: rgb(65, 61, 81); white-space: pre;"/>
  <path d="M 948.493 354.971 L 946.749 360.61 L 952.574 360.61 L 950.83 354.971 Q 950.682 354.637 950.515 354.489 Q 950.348 354.34 950.125 354.34 L 949.198 354.34 Q 948.975 354.34 948.808 354.489 Q 948.641 354.637 948.493 354.971 Z M 946.378 372.556 Q 946.378 373.261 946.063 373.577 Q 945.748 373.892 945.043 373.892 L 939.589 373.892 Q 938.884 373.892 938.569 373.577 Q 938.253 373.261 938.253 372.556 L 938.253 362.762 Q 938.253 361.649 938.606 360.202 Q 938.958 358.755 939.7 356.826 L 942.928 348.404 Q 943.151 347.774 943.614 347.477 Q 944.078 347.18 944.82 347.18 L 954.8 347.18 Q 955.505 347.18 955.969 347.477 Q 956.432 347.774 956.655 348.404 L 959.883 356.826 Q 960.625 358.755 960.977 360.202 Q 961.33 361.649 961.33 362.762 L 961.33 372.556 Q 961.33 373.261 961.014 373.577 Q 960.699 373.892 959.994 373.892 L 954.392 373.892 Q 953.65 373.892 953.297 373.577 Q 952.945 373.261 952.945 372.556 L 952.945 367.362 L 946.378 367.362 Z" style="fill: rgb(65, 61, 81); white-space: pre;"/>
  <path d="M 966.614 373.892 Q 965.91 373.892 965.594 373.577 Q 965.279 373.261 965.279 372.556 L 965.279 368.141 Q 965.279 367.437 965.594 367.121 Q 965.91 366.806 966.614 366.806 L 970.287 366.806 L 970.287 354.34 L 966.614 354.34 Q 965.91 354.34 965.594 354.025 Q 965.279 353.71 965.279 353.005 L 965.279 348.516 Q 965.279 347.811 965.594 347.495 Q 965.91 347.18 966.614 347.18 L 982.419 347.18 Q 983.124 347.18 983.439 347.495 Q 983.755 347.811 983.755 348.516 L 983.755 353.005 Q 983.755 353.71 983.439 354.025 Q 983.124 354.34 982.419 354.34 L 978.82 354.34 L 978.82 366.806 L 982.419 366.806 Q 983.124 366.806 983.439 367.121 Q 983.755 367.437 983.755 368.141 L 983.755 372.556 Q 983.755 373.261 983.439 373.577 Q 983.124 373.892 982.419 373.892 Z" style="fill: rgb(65, 61, 81); white-space: pre;"/>
  <path d="M 995.195 373.892 L 989.63 373.892 Q 988.925 373.892 988.61 373.577 Q 988.294 373.261 988.294 372.556 L 988.294 348.516 Q 988.294 347.811 988.61 347.495 Q 988.925 347.18 989.63 347.18 L 993.488 347.18 Q 994.193 347.18 994.694 347.403 Q 995.195 347.625 995.677 348.182 L 1002.875 356.418 L 1002.875 348.516 Q 1002.875 347.811 1003.19 347.495 Q 1003.505 347.18 1004.21 347.18 L 1009.775 347.18 Q 1010.48 347.18 1010.795 347.495 Q 1011.111 347.811 1011.111 348.516 L 1011.111 372.556 Q 1011.111 373.261 1010.795 373.577 Q 1010.48 373.892 1009.775 373.892 L 1004.21 373.892 Q 1003.505 373.892 1003.19 373.577 Q 1002.875 373.261 1002.875 372.556 L 1002.875 367.993 L 996.53 360.313 L 996.53 372.556 Q 996.53 373.261 996.215 373.577 Q 995.9 373.892 995.195 373.892 Z" style="fill: rgb(65, 61, 81); white-space: pre;"/>
  <path d="M 1024.527 373.892 L 1017.032 373.892 Q 1016.327 373.892 1016.012 373.577 Q 1015.697 373.261 1015.697 372.556 L 1015.697 365.025 Q 1015.697 364.32 1016.012 364.005 Q 1016.327 363.689 1017.032 363.689 L 1024.527 363.689 Q 1025.231 363.689 1025.547 364.005 Q 1025.862 364.32 1025.862 365.025 L 1025.862 372.556 Q 1025.862 373.261 1025.547 373.577 Q 1025.231 373.892 1024.527 373.892 Z" style="fill: rgb(65, 61, 81); white-space: pre;"/>
  <path d="M 1048.237 373.892 L 1039.185 373.892 Q 1034.547 373.892 1032.303 372.037 Q 1030.058 370.182 1030.058 366.324 L 1030.058 354.785 Q 1030.058 350.927 1032.303 349.054 Q 1034.547 347.18 1039.185 347.18 L 1048.237 347.18 Q 1048.942 347.18 1049.257 347.495 Q 1049.573 347.811 1049.573 348.516 L 1049.573 353.005 Q 1049.573 353.71 1049.257 354.025 Q 1048.942 354.34 1048.237 354.34 L 1040.78 354.34 Q 1039.63 354.34 1039.073 354.804 Q 1038.517 355.268 1038.517 356.195 L 1038.517 365.025 Q 1038.517 365.953 1039.073 366.379 Q 1039.63 366.806 1040.78 366.806 L 1048.237 366.806 Q 1048.942 366.806 1049.257 367.121 Q 1049.573 367.437 1049.573 368.141 L 1049.573 372.556 Q 1049.573 373.261 1049.257 373.577 Q 1048.942 373.892 1048.237 373.892 Z" style="fill: rgb(65, 61, 81); white-space: pre;"/>
  <path d="M 1076.191 366.88 Q 1076.191 368.587 1075.69 369.978 Q 1075.189 371.369 1073.909 372.352 Q 1072.629 373.335 1070.385 373.892 Q 1068.14 374.448 1064.69 374.448 Q 1061.24 374.448 1058.977 373.892 Q 1056.713 373.335 1055.433 372.352 Q 1054.154 371.369 1053.653 369.978 Q 1053.152 368.587 1053.152 366.88 L 1053.152 354.229 Q 1053.152 352.522 1053.653 351.131 Q 1054.154 349.74 1055.433 348.738 Q 1056.713 347.736 1058.977 347.18 Q 1061.24 346.623 1064.69 346.623 Q 1068.14 346.623 1070.385 347.18 Q 1072.629 347.736 1073.909 348.738 Q 1075.189 349.74 1075.69 351.131 Q 1076.191 352.522 1076.191 354.229 Z M 1061.574 365.544 Q 1061.574 366.286 1062.13 366.787 Q 1062.687 367.288 1064.69 367.288 Q 1066.693 367.288 1067.25 366.787 Q 1067.806 366.286 1067.806 365.544 L 1067.806 355.565 Q 1067.806 354.86 1067.25 354.359 Q 1066.693 353.858 1064.69 353.858 Q 1062.687 353.858 1062.13 354.359 Q 1061.574 354.86 1061.574 355.565 Z" style="fill: rgb(65, 61, 81); white-space: pre;"/>
  <path d="M 1087.752 373.892 L 1082.224 373.892 Q 1081.519 373.892 1081.203 373.577 Q 1080.888 373.261 1080.888 372.556 L 1080.888 348.516 Q 1080.888 347.811 1081.203 347.495 Q 1081.519 347.18 1082.224 347.18 L 1088.197 347.18 Q 1088.79 347.18 1089.18 347.44 Q 1089.569 347.699 1089.903 348.293 L 1093.242 354.34 Q 1093.428 354.674 1093.558 354.823 Q 1093.688 354.971 1093.91 354.971 L 1094.244 354.971 Q 1094.467 354.971 1094.596 354.823 Q 1094.726 354.674 1094.912 354.34 L 1098.214 348.293 Q 1098.548 347.699 1098.937 347.44 Q 1099.327 347.18 1099.92 347.18 L 1105.931 347.18 Q 1106.635 347.18 1106.951 347.495 Q 1107.266 347.811 1107.266 348.516 L 1107.266 372.556 Q 1107.266 373.261 1106.951 373.577 Q 1106.635 373.892 1105.931 373.892 L 1100.217 373.892 Q 1099.512 373.892 1099.197 373.577 Q 1098.882 373.261 1098.882 372.556 L 1098.882 359.497 L 1096.693 363.541 Q 1096.359 364.172 1095.895 364.45 Q 1095.431 364.728 1094.726 364.728 L 1093.242 364.728 Q 1092.537 364.728 1092.074 364.45 Q 1091.61 364.172 1091.276 363.541 L 1089.087 359.497 L 1089.087 372.556 Q 1089.087 373.261 1088.772 373.577 Q 1088.456 373.892 1087.752 373.892 Z" style="fill: rgb(65, 61, 81); white-space: pre;"/>
  <path d="M 817.939 416.306 C 816.842 416.306 815.89 416.084 815.083 415.639 C 814.275 415.195 813.653 414.536 813.216 413.661 C 812.778 412.786 812.56 411.719 812.56 410.46 C 812.56 408.518 813.016 407.048 813.928 406.048 C 814.839 405.048 816.109 404.547 817.739 404.547 C 818.94 404.547 819.91 404.814 820.651 405.347 C 821.393 405.881 821.93 406.626 822.263 407.582 C 822.597 408.538 822.755 409.652 822.741 410.927 L 813.96 410.927 L 813.894 409.193 L 820.963 409.193 L 820.407 409.749 C 820.362 408.607 820.126 407.774 819.695 407.248 C 819.265 406.722 818.592 406.459 817.673 406.459 C 817.08 406.459 816.576 406.582 816.161 406.826 C 815.746 407.071 815.431 407.485 815.217 408.071 C 815.001 408.656 814.894 409.46 814.894 410.482 C 814.894 411.727 815.183 412.672 815.761 413.317 C 816.339 413.962 817.191 414.283 818.317 414.283 C 818.821 414.283 819.291 414.239 819.729 414.15 C 820.166 414.061 820.57 413.946 820.94 413.806 C 821.31 413.665 821.629 413.528 821.896 413.394 L 821.896 415.55 C 821.377 415.773 820.792 415.954 820.14 416.095 C 819.488 416.236 818.754 416.306 817.939 416.306 Z" style="fill: rgb(51, 51, 51); white-space: pre;"/>
  <path d="M 825.431 405.725 C 825.756 405.562 826.123 405.41 826.53 405.27 C 826.938 405.129 827.372 405.006 827.831 404.903 C 828.29 404.799 828.757 404.717 829.232 404.658 C 829.706 404.599 830.165 404.569 830.61 404.569 C 831.662 404.569 832.522 404.714 833.188 405.003 C 833.855 405.292 834.352 405.737 834.678 406.337 C 835.003 406.937 835.167 407.689 835.167 408.593 L 835.167 415.973 L 832.833 415.973 L 832.833 408.904 C 832.833 408.623 832.799 408.344 832.732 408.071 C 832.666 407.796 832.54 407.544 832.354 407.315 C 832.17 407.085 831.903 406.903 831.554 406.77 C 831.206 406.637 830.751 406.57 830.188 406.57 C 829.787 406.57 829.376 406.607 828.953 406.681 C 828.531 406.755 828.135 406.859 827.765 406.992 L 827.765 415.973 L 825.431 415.973 L 825.431 405.725 Z" style="fill: rgb(51, 51, 51); white-space: pre;"/>
  <path d="M 841.985 415.973 L 837.295 404.814 L 839.785 404.814 L 843.608 414.083 L 843.052 414.15 L 846.609 404.814 L 849.032 404.814 L 844.319 415.973 L 841.985 415.973 Z" style="fill: rgb(51, 51, 51); white-space: pre;"/>
  <path d="M 851.41 415.973 L 851.41 404.881 L 853.744 404.881 L 853.767 415.973 L 851.41 415.973 Z M 851.344 403.036 L 851.344 400.924 L 853.833 400.924 L 853.833 403.036 L 851.344 403.036 Z" style="fill: rgb(51, 51, 51); white-space: pre;"/>
  <path d="M 857.128 415.973 L 857.128 405.836 C 857.32 405.718 857.676 405.555 858.195 405.347 C 858.714 405.14 859.329 404.959 860.04 404.803 C 860.751 404.648 861.47 404.569 862.196 404.569 C 862.566 404.569 862.871 404.599 863.108 404.658 C 863.344 404.717 863.544 404.784 863.708 404.858 L 863.708 406.726 C 863.367 406.681 863.011 406.648 862.641 406.626 C 862.271 406.604 861.899 406.604 861.529 406.626 C 861.159 406.648 860.796 406.681 860.44 406.726 C 860.084 406.77 859.759 406.814 859.462 406.859 L 859.462 415.973 L 857.128 415.973 Z" style="fill: rgb(51, 51, 51); white-space: pre;"/>
  <path d="M 870.152 416.306 C 868.344 416.306 867 415.795 866.117 414.772 C 865.236 413.75 864.795 412.29 864.795 410.393 C 864.795 408.378 865.25 406.899 866.162 405.959 C 867.073 405.018 868.388 404.547 870.108 404.547 C 871.338 404.547 872.353 404.773 873.153 405.226 C 873.953 405.677 874.546 406.34 874.931 407.215 C 875.317 408.089 875.509 409.148 875.509 410.393 C 875.509 412.275 875.046 413.732 874.12 414.762 C 873.194 415.791 871.872 416.306 870.152 416.306 Z M 870.13 414.328 C 870.886 414.328 871.486 414.162 871.931 413.828 C 872.375 413.495 872.697 413.031 872.897 412.438 C 873.097 411.846 873.198 411.164 873.198 410.393 C 873.198 409.534 873.094 408.815 872.886 408.237 C 872.679 407.659 872.353 407.226 871.908 406.937 C 871.464 406.648 870.871 406.503 870.13 406.503 C 869.389 406.503 868.796 406.659 868.352 406.97 C 867.907 407.281 867.588 407.726 867.396 408.304 C 867.203 408.882 867.107 409.579 867.107 410.393 C 867.107 411.624 867.337 412.586 867.796 413.283 C 868.255 413.98 869.033 414.328 870.13 414.328 Z" style="fill: rgb(51, 51, 51); white-space: pre;"/>
  <path d="M 878.224 405.725 C 878.55 405.562 878.917 405.41 879.324 405.27 C 879.732 405.129 880.166 405.006 880.625 404.903 C 881.084 404.799 881.551 404.717 882.025 404.658 C 882.5 404.599 882.959 404.569 883.404 404.569 C 884.456 404.569 885.315 404.714 885.982 405.003 C 886.649 405.292 887.146 405.737 887.471 406.337 C 887.797 406.937 887.96 407.689 887.96 408.593 L 887.96 415.973 L 885.626 415.973 L 885.626 408.904 C 885.626 408.623 885.593 408.344 885.526 408.071 C 885.459 407.796 885.334 407.544 885.148 407.315 C 884.963 407.085 884.697 406.903 884.348 406.77 C 884 406.637 883.545 406.57 882.981 406.57 C 882.581 406.57 882.169 406.607 881.747 406.681 C 881.325 406.755 880.928 406.859 880.558 406.992 L 880.558 415.973 L 878.224 415.973 L 878.224 405.725 Z" style="fill: rgb(51, 51, 51); white-space: pre;"/>
  <path d="M 900.911 408.593 L 900.911 415.973 L 898.577 415.973 L 898.577 408.904 C 898.577 408.623 898.543 408.344 898.477 408.071 C 898.41 407.796 898.284 407.544 898.099 407.315 C 897.914 407.085 897.647 406.903 897.299 406.77 C 896.951 406.637 896.495 406.57 895.932 406.57 C 895.532 406.57 895.132 406.607 894.732 406.681 C 894.331 406.755 893.946 406.859 893.576 406.992 L 893.576 415.973 L 891.242 415.973 L 891.242 405.725 C 891.567 405.562 891.935 405.41 892.341 405.27 C 892.749 405.129 893.183 405.006 893.642 404.903 C 894.101 404.799 894.568 404.717 895.043 404.658 C 895.517 404.599 895.976 404.569 896.421 404.569 C 897.473 404.569 898.325 404.714 898.977 405.003 C 899.63 405.292 900.115 405.737 900.433 406.337 C 900.752 406.937 900.911 407.689 900.911 408.593 Z M 898.244 406.303 C 898.718 405.918 899.24 405.6 899.81 405.347 C 900.382 405.095 900.974 404.903 901.589 404.769 C 902.204 404.636 902.808 404.569 903.401 404.569 C 904.453 404.569 905.305 404.714 905.957 405.003 C 906.61 405.292 907.095 405.737 907.413 406.337 C 907.732 406.937 907.891 407.689 907.891 408.593 L 907.891 415.973 L 905.557 415.973 L 905.557 408.904 C 905.557 408.623 905.523 408.344 905.457 408.071 C 905.39 407.796 905.264 407.544 905.079 407.315 C 904.894 407.085 904.627 406.903 904.278 406.77 C 903.93 406.637 903.475 406.57 902.912 406.57 C 902.512 406.57 902.112 406.629 901.711 406.748 C 901.311 406.867 900.926 407.051 900.556 407.303 L 898.244 406.303 Z" style="fill: rgb(51, 51, 51); white-space: pre;"/>
  <path d="M 915.977 416.306 C 914.88 416.306 913.928 416.084 913.12 415.639 C 912.313 415.195 911.69 414.536 911.252 413.661 C 910.816 412.786 910.597 411.719 910.597 410.46 C 910.597 408.518 911.052 407.048 911.964 406.048 C 912.875 405.048 914.146 404.547 915.777 404.547 C 916.977 404.547 917.947 404.814 918.689 405.347 C 919.43 405.881 919.966 406.626 920.3 407.582 C 920.633 408.538 920.793 409.652 920.778 410.927 L 911.998 410.927 L 911.931 409.193 L 919 409.193 L 918.444 409.749 C 918.4 408.607 918.163 407.774 917.733 407.248 C 917.303 406.722 916.629 406.459 915.71 406.459 C 915.117 406.459 914.613 406.582 914.198 406.826 C 913.784 407.071 913.469 407.485 913.253 408.071 C 913.039 408.656 912.931 409.46 912.931 410.482 C 912.931 411.727 913.22 412.672 913.798 413.317 C 914.376 413.962 915.229 414.283 916.354 414.283 C 916.858 414.283 917.329 414.239 917.766 414.15 C 918.203 414.061 918.607 413.946 918.978 413.806 C 919.348 413.665 919.667 413.528 919.933 413.394 L 919.933 415.55 C 919.414 415.773 918.83 415.954 918.177 416.095 C 917.525 416.236 916.791 416.306 915.977 416.306 Z" style="fill: rgb(51, 51, 51); white-space: pre;"/>
  <path d="M 923.482 405.725 C 923.808 405.562 924.175 405.41 924.582 405.27 C 924.99 405.129 925.424 405.006 925.883 404.903 C 926.342 404.799 926.809 404.717 927.283 404.658 C 927.758 404.599 928.217 404.569 928.662 404.569 C 929.714 404.569 930.573 404.714 931.24 405.003 C 931.907 405.292 932.404 405.737 932.729 406.337 C 933.055 406.937 933.218 407.689 933.218 408.593 L 933.218 415.973 L 930.884 415.973 L 930.884 408.904 C 930.884 408.623 930.851 408.344 930.784 408.071 C 930.717 407.796 930.592 407.544 930.406 407.315 C 930.221 407.085 929.955 406.903 929.606 406.77 C 929.258 406.637 928.803 406.57 928.239 406.57 C 927.839 406.57 927.427 406.607 927.005 406.681 C 926.583 406.755 926.186 406.859 925.816 406.992 L 925.816 415.973 L 923.482 415.973 L 923.482 405.725 Z" style="fill: rgb(51, 51, 51); white-space: pre;"/>
  <path d="M 940.479 416.262 C 939.471 416.262 938.674 415.995 938.089 415.461 C 937.504 414.928 937.211 414.142 937.211 413.105 L 937.211 406.748 L 935.41 406.748 L 935.41 404.814 L 937.211 404.814 L 937.211 401.702 L 939.612 401.702 L 939.612 404.814 L 942.324 404.814 L 942.324 406.748 L 939.612 406.748 L 939.612 412.638 C 939.612 413.157 939.705 413.546 939.889 413.806 C 940.075 414.065 940.42 414.194 940.923 414.194 C 941.175 414.194 941.427 414.162 941.679 414.095 C 941.931 414.028 942.146 413.942 942.324 413.839 L 942.324 415.906 C 942.057 416.025 941.756 416.114 941.423 416.173 C 941.089 416.232 940.775 416.262 940.479 416.262 Z" style="fill: rgb(51, 51, 51); white-space: pre;"/>
  <path d="M 960.658 415.973 L 953.678 407.57 C 953.352 407.17 953.029 406.696 952.711 406.148 C 952.392 405.6 952.233 405.058 952.233 404.525 C 952.233 403.873 952.411 403.276 952.766 402.736 C 953.122 402.195 953.6 401.761 954.201 401.435 C 954.801 401.109 955.471 400.946 956.212 400.946 C 956.953 400.946 957.608 401.094 958.18 401.391 C 958.75 401.687 959.202 402.094 959.536 402.613 C 959.869 403.132 960.035 403.71 960.035 404.347 C 960.035 404.955 959.898 405.477 959.625 405.915 C 959.35 406.352 958.968 406.752 958.479 407.115 C 957.99 407.477 957.412 407.859 956.745 408.259 L 955.767 406.903 C 956.36 406.578 956.804 406.281 957.101 406.014 C 957.398 405.747 957.594 405.492 957.691 405.248 C 957.786 405.003 957.835 404.762 957.835 404.525 C 957.835 404.08 957.683 403.717 957.379 403.436 C 957.075 403.154 956.693 403.013 956.234 403.013 C 955.775 403.013 955.386 403.165 955.068 403.469 C 954.749 403.773 954.589 404.139 954.589 404.569 C 954.589 404.762 954.667 404.992 954.823 405.258 C 954.979 405.525 955.156 405.796 955.357 406.07 C 955.557 406.344 955.745 406.584 955.923 406.792 L 963.592 415.973 L 960.658 415.973 Z M 955.456 416.195 C 954.656 416.195 953.959 416.069 953.367 415.817 C 952.774 415.565 952.289 415.229 951.911 414.806 C 951.533 414.384 951.247 413.928 951.055 413.439 C 950.862 412.95 950.766 412.475 950.766 412.016 C 950.766 411.527 950.866 411.02 951.066 410.494 C 951.266 409.967 951.614 409.445 952.111 408.926 C 952.607 408.407 953.292 407.926 954.167 407.481 L 955.634 408.793 C 954.997 409.148 954.504 409.516 954.156 409.894 C 953.807 410.272 953.567 410.627 953.433 410.961 C 953.3 411.294 953.233 411.594 953.233 411.86 C 953.233 412.038 953.267 412.257 953.334 412.517 C 953.4 412.776 953.522 413.035 953.7 413.295 C 953.878 413.554 954.137 413.768 954.478 413.939 C 954.819 414.109 955.256 414.194 955.79 414.194 C 956.382 414.194 956.945 414.035 957.479 413.717 C 958.012 413.398 958.443 413.061 958.768 412.705 L 960.013 414.194 C 959.687 414.55 959.306 414.88 958.869 415.184 C 958.431 415.488 957.927 415.732 957.357 415.918 C 956.786 416.102 956.153 416.195 955.456 416.195 Z M 959.724 411.66 C 959.902 411.379 960.05 411.086 960.169 410.783 C 960.288 410.478 960.383 410.201 960.458 409.949 C 960.532 409.696 960.583 409.512 960.613 409.393 L 962.503 409.393 C 962.414 409.897 962.24 410.478 961.981 411.138 C 961.721 411.798 961.399 412.431 961.013 413.039 L 959.724 411.66 Z" style="fill: rgb(51, 51, 51); white-space: pre;"/>
  <path d="M 975.528 416.306 C 974.728 416.306 974.049 416.221 973.493 416.051 C 972.938 415.88 972.394 415.669 971.86 415.417 L 971.86 413.216 C 972.246 413.453 972.624 413.665 972.994 413.85 C 973.364 414.035 973.753 414.18 974.16 414.283 C 974.568 414.387 975.024 414.439 975.528 414.439 C 976.165 414.439 976.665 414.306 977.028 414.039 C 977.391 413.772 977.573 413.439 977.573 413.039 C 977.573 412.697 977.458 412.431 977.228 412.238 C 976.999 412.046 976.706 411.883 976.35 411.749 C 975.995 411.616 975.624 411.483 975.239 411.349 C 974.839 411.246 974.439 411.123 974.038 410.983 C 973.638 410.842 973.271 410.649 972.938 410.405 C 972.604 410.16 972.338 409.845 972.137 409.46 C 971.937 409.074 971.838 408.6 971.838 408.037 C 971.838 407.415 971.963 406.885 972.216 406.448 C 972.468 406.01 972.798 405.655 973.204 405.381 C 973.612 405.107 974.065 404.907 974.56 404.781 C 975.057 404.654 975.542 404.592 976.017 404.592 C 976.803 404.606 977.443 404.703 977.939 404.881 C 978.436 405.058 978.921 405.273 979.396 405.525 L 979.418 407.526 C 978.884 407.245 978.381 407 977.906 406.792 C 977.432 406.584 976.884 406.481 976.261 406.481 C 975.683 406.481 975.202 406.588 974.817 406.804 C 974.431 407.018 974.239 407.333 974.239 407.748 C 974.239 408.104 974.346 408.385 974.56 408.593 C 974.776 408.801 975.057 408.963 975.405 409.082 C 975.754 409.201 976.128 409.319 976.528 409.437 C 976.898 409.556 977.284 409.678 977.684 409.805 C 978.084 409.93 978.454 410.112 978.795 410.349 C 979.137 410.586 979.414 410.897 979.629 411.282 C 979.844 411.668 979.951 412.172 979.951 412.794 C 979.937 413.624 979.717 414.298 979.295 414.817 C 978.873 415.336 978.321 415.714 977.64 415.951 C 976.958 416.187 976.254 416.306 975.528 416.306 Z" style="fill: rgb(51, 51, 51); white-space: pre;"/>
  <path d="M 987.629 416.306 C 986.607 416.306 985.728 416.14 984.994 415.807 C 984.261 415.473 983.695 414.972 983.294 414.306 C 982.894 413.639 982.694 412.809 982.694 411.816 L 982.694 404.814 L 985.028 404.814 L 985.028 411.483 C 985.028 412.431 985.239 413.131 985.661 413.584 C 986.084 414.035 986.74 414.261 987.629 414.261 C 988.518 414.261 989.173 414.035 989.596 413.584 C 990.018 413.131 990.23 412.431 990.23 411.483 L 990.23 404.814 L 992.475 404.814 L 992.475 411.816 C 992.475 413.298 992.049 414.417 991.196 415.173 C 990.345 415.928 989.155 416.306 987.629 416.306 Z" style="fill: rgb(51, 51, 51); white-space: pre;"/>
  <path d="M 998.979 416.306 C 998.179 416.306 997.502 416.221 996.946 416.051 C 996.39 415.88 995.845 415.669 995.312 415.417 L 995.312 413.216 C 995.697 413.453 996.075 413.665 996.445 413.85 C 996.815 414.035 997.205 414.18 997.613 414.283 C 998.02 414.387 998.476 414.439 998.979 414.439 C 999.616 414.439 1000.117 414.306 1000.48 414.039 C 1000.843 413.772 1001.024 413.439 1001.024 413.039 C 1001.024 412.697 1000.909 412.431 1000.68 412.238 C 1000.45 412.046 1000.157 411.883 999.802 411.749 C 999.446 411.616 999.076 411.483 998.69 411.349 C 998.29 411.246 997.89 411.123 997.49 410.983 C 997.09 410.842 996.724 410.649 996.39 410.405 C 996.057 410.16 995.79 409.845 995.59 409.46 C 995.39 409.074 995.289 408.6 995.289 408.037 C 995.289 407.415 995.415 406.885 995.667 406.448 C 995.919 406.01 996.249 405.655 996.657 405.381 C 997.064 405.107 997.516 404.907 998.013 404.781 C 998.509 404.654 998.994 404.592 999.468 404.592 C 1000.254 404.606 1000.895 404.703 1001.392 404.881 C 1001.887 405.058 1002.373 405.273 1002.847 405.525 L 1002.869 407.526 C 1002.336 407.245 1001.832 407 1001.358 406.792 C 1000.883 406.584 1000.335 406.481 999.713 406.481 C 999.135 406.481 998.654 406.588 998.268 406.804 C 997.882 407.018 997.69 407.333 997.69 407.748 C 997.69 408.104 997.797 408.385 998.013 408.593 C 998.227 408.801 998.509 408.963 998.858 409.082 C 999.205 409.201 999.58 409.319 999.98 409.437 C 1000.35 409.556 1000.735 409.678 1001.136 409.805 C 1001.536 409.93 1001.906 410.112 1002.247 410.349 C 1002.588 410.586 1002.866 410.897 1003.081 411.282 C 1003.296 411.668 1003.403 412.172 1003.403 412.794 C 1003.388 413.624 1003.17 414.298 1002.748 414.817 C 1002.325 415.336 1001.772 415.714 1001.091 415.951 C 1000.41 416.187 999.705 416.306 998.979 416.306 Z" style="fill: rgb(51, 51, 51); white-space: pre;"/>
  <path d="M 1010.125 416.262 C 1009.117 416.262 1008.32 415.995 1007.736 415.461 C 1007.15 414.928 1006.857 414.142 1006.857 413.105 L 1006.857 406.748 L 1005.057 406.748 L 1005.057 404.814 L 1006.857 404.814 L 1006.857 401.702 L 1009.258 401.702 L 1009.258 404.814 L 1011.97 404.814 L 1011.97 406.748 L 1009.258 406.748 L 1009.258 412.638 C 1009.258 413.157 1009.351 413.546 1009.536 413.806 C 1009.721 414.065 1010.066 414.194 1010.569 414.194 C 1010.822 414.194 1011.073 414.162 1011.325 414.095 C 1011.577 414.028 1011.792 413.942 1011.97 413.839 L 1011.97 415.906 C 1011.703 416.025 1011.403 416.114 1011.07 416.173 C 1010.736 416.232 1010.421 416.262 1010.125 416.262 Z" style="fill: rgb(51, 51, 51); white-space: pre;"/>
  <path d="M 1018.723 416.306 C 1018.145 416.306 1017.59 416.251 1017.056 416.14 C 1016.523 416.029 1016.038 415.839 1015.601 415.573 C 1015.163 415.306 1014.815 414.94 1014.556 414.473 C 1014.296 414.006 1014.167 413.424 1014.167 412.727 C 1014.167 411.897 1014.33 411.216 1014.656 410.682 C 1014.981 410.149 1015.448 409.749 1016.056 409.482 C 1016.664 409.215 1017.39 409.082 1018.234 409.082 C 1018.798 409.082 1019.305 409.126 1019.758 409.215 C 1020.209 409.304 1020.617 409.427 1020.98 409.582 C 1021.343 409.738 1021.65 409.912 1021.902 410.104 L 1022.147 411.638 C 1021.821 411.416 1021.383 411.227 1020.835 411.072 C 1020.287 410.916 1019.694 410.838 1019.057 410.838 C 1018.212 410.838 1017.571 410.986 1017.135 411.282 C 1016.697 411.579 1016.478 412.024 1016.478 412.616 C 1016.478 413.061 1016.604 413.42 1016.856 413.695 C 1017.108 413.968 1017.424 414.168 1017.801 414.295 C 1018.179 414.421 1018.576 414.483 1018.99 414.483 C 1019.865 414.483 1020.509 414.424 1020.924 414.306 C 1021.339 414.187 1021.546 413.913 1021.546 413.483 L 1021.546 408.815 C 1021.546 408.029 1021.31 407.455 1020.835 407.093 C 1020.361 406.729 1019.687 406.548 1018.812 406.548 C 1018.19 406.548 1017.545 406.648 1016.878 406.848 C 1016.212 407.048 1015.664 407.326 1015.233 407.681 L 1015.233 405.503 C 1015.648 405.222 1016.252 404.996 1017.046 404.825 C 1017.838 404.654 1018.657 404.569 1019.501 404.569 C 1019.916 404.569 1020.336 404.61 1020.758 404.692 C 1021.18 404.773 1021.576 404.899 1021.947 405.07 C 1022.317 405.24 1022.647 405.47 1022.936 405.759 C 1023.225 406.048 1023.45 406.4 1023.614 406.814 C 1023.777 407.229 1023.858 407.718 1023.858 408.282 L 1023.858 413.616 C 1023.858 414.342 1023.632 414.902 1023.181 415.295 C 1022.728 415.688 1022.117 415.954 1021.346 416.095 C 1020.576 416.236 1019.701 416.306 1018.723 416.306 Z" style="fill: rgb(51, 51, 51); white-space: pre;"/>
  <path d="M 1027.219 415.973 L 1027.219 404.881 L 1029.553 404.881 L 1029.575 415.973 L 1027.219 415.973 Z M 1027.152 403.036 L 1027.152 400.924 L 1029.642 400.924 L 1029.642 403.036 L 1027.152 403.036 Z" style="fill: rgb(51, 51, 51); white-space: pre;"/>
  <path d="M 1032.935 405.725 C 1033.261 405.562 1033.628 405.41 1034.035 405.27 C 1034.443 405.129 1034.877 405.006 1035.336 404.903 C 1035.795 404.799 1036.262 404.717 1036.737 404.658 C 1037.211 404.599 1037.67 404.569 1038.115 404.569 C 1039.167 404.569 1040.026 404.714 1040.693 405.003 C 1041.36 405.292 1041.857 405.737 1042.183 406.337 C 1042.508 406.937 1042.672 407.689 1042.672 408.593 L 1042.672 415.973 L 1040.338 415.973 L 1040.338 408.904 C 1040.338 408.623 1040.304 408.344 1040.237 408.071 C 1040.17 407.796 1040.045 407.544 1039.859 407.315 C 1039.675 407.085 1039.408 406.903 1039.059 406.77 C 1038.711 406.637 1038.256 406.57 1037.692 406.57 C 1037.292 406.57 1036.881 406.607 1036.458 406.681 C 1036.036 406.755 1035.64 406.859 1035.269 406.992 L 1035.269 415.973 L 1032.935 415.973 L 1032.935 405.725 Z" style="fill: rgb(51, 51, 51); white-space: pre;"/>
  <path d="M 1049.999 416.306 C 1049.421 416.306 1048.865 416.251 1048.331 416.14 C 1047.798 416.029 1047.313 415.839 1046.875 415.573 C 1046.438 415.306 1046.09 414.94 1045.83 414.473 C 1045.571 414.006 1045.442 413.424 1045.442 412.727 C 1045.442 411.897 1045.605 411.216 1045.931 410.682 C 1046.256 410.149 1046.723 409.749 1047.331 409.482 C 1047.939 409.215 1048.665 409.082 1049.509 409.082 C 1050.073 409.082 1050.58 409.126 1051.032 409.215 C 1051.484 409.304 1051.892 409.427 1052.254 409.582 C 1052.618 409.738 1052.925 409.912 1053.177 410.104 L 1053.422 411.638 C 1053.096 411.416 1052.658 411.227 1052.11 411.072 C 1051.562 410.916 1050.969 410.838 1050.332 410.838 C 1049.487 410.838 1048.846 410.986 1048.409 411.282 C 1047.972 411.579 1047.753 412.024 1047.753 412.616 C 1047.753 413.061 1047.879 413.42 1048.131 413.695 C 1048.384 413.968 1048.698 414.168 1049.076 414.295 C 1049.453 414.421 1049.851 414.483 1050.265 414.483 C 1051.14 414.483 1051.785 414.424 1052.199 414.306 C 1052.614 414.187 1052.822 413.913 1052.822 413.483 L 1052.822 408.815 C 1052.822 408.029 1052.585 407.455 1052.11 407.093 C 1051.636 406.729 1050.962 406.548 1050.087 406.548 C 1049.465 406.548 1048.82 406.648 1048.154 406.848 C 1047.487 407.048 1046.939 407.326 1046.509 407.681 L 1046.509 405.503 C 1046.923 405.222 1047.527 404.996 1048.32 404.825 C 1049.113 404.654 1049.932 404.569 1050.777 404.569 C 1051.191 404.569 1051.61 404.61 1052.032 404.692 C 1052.454 404.773 1052.852 404.899 1053.222 405.07 C 1053.592 405.24 1053.921 405.47 1054.21 405.759 C 1054.499 406.048 1054.726 406.4 1054.889 406.814 C 1055.052 407.229 1055.133 407.718 1055.133 408.282 L 1055.133 413.616 C 1055.133 414.342 1054.907 414.902 1054.455 415.295 C 1054.004 415.688 1053.392 415.954 1052.622 416.095 C 1051.851 416.236 1050.977 416.306 1049.999 416.306 Z" style="fill: rgb(51, 51, 51); white-space: pre;"/>
  <path d="M 1063.139 416.306 C 1062.531 416.306 1061.946 416.269 1061.383 416.195 C 1060.819 416.121 1060.316 415.991 1059.871 415.807 C 1059.426 415.621 1059.075 415.365 1058.815 415.039 C 1058.556 414.713 1058.426 414.291 1058.426 413.772 L 1058.426 400.346 L 1060.738 400.346 L 1060.738 406.37 L 1060.138 405.614 C 1060.419 405.392 1060.771 405.206 1061.193 405.058 C 1061.616 404.91 1062.046 404.792 1062.482 404.703 C 1062.92 404.614 1063.294 404.569 1063.606 404.569 C 1065.295 404.569 1066.562 405.07 1067.407 406.07 C 1068.251 407.071 1068.674 408.474 1068.674 410.282 C 1068.674 411.497 1068.514 412.497 1068.195 413.283 C 1067.877 414.069 1067.455 414.68 1066.928 415.117 C 1066.402 415.554 1065.81 415.862 1065.15 416.039 C 1064.491 416.217 1063.82 416.306 1063.139 416.306 Z M 1063.028 414.283 C 1063.902 414.283 1064.576 414.106 1065.05 413.75 C 1065.525 413.394 1065.851 412.924 1066.028 412.339 C 1066.206 411.753 1066.295 411.097 1066.295 410.371 C 1066.295 409.541 1066.184 408.845 1065.962 408.282 C 1065.739 407.718 1065.406 407.289 1064.961 406.992 C 1064.517 406.696 1063.947 406.548 1063.25 406.548 C 1062.864 406.548 1062.446 406.6 1061.993 406.703 C 1061.542 406.807 1061.124 406.97 1060.738 407.192 L 1060.738 413.194 C 1060.738 413.491 1060.857 413.72 1061.094 413.883 C 1061.33 414.047 1061.623 414.154 1061.971 414.206 C 1062.32 414.257 1062.672 414.283 1063.028 414.283 Z" style="fill: rgb(51, 51, 51); white-space: pre;"/>
  <path d="M 1071.449 415.973 L 1071.449 404.881 L 1073.783 404.881 L 1073.806 415.973 L 1071.449 415.973 Z M 1071.383 403.036 L 1071.383 400.924 L 1073.872 400.924 L 1073.872 403.036 L 1071.383 403.036 Z" style="fill: rgb(51, 51, 51); white-space: pre;"/>
  <path d="M 1079.479 415.973 L 1077.167 415.973 L 1077.167 400.59 L 1079.479 400.59 L 1079.479 415.973 Z" style="fill: rgb(51, 51, 51); white-space: pre;"/>
  <path d="M 1082.835 415.973 L 1082.835 404.881 L 1085.169 404.881 L 1085.192 415.973 L 1082.835 415.973 Z M 1082.769 403.036 L 1082.769 400.924 L 1085.258 400.924 L 1085.258 403.036 L 1082.769 403.036 Z" style="fill: rgb(51, 51, 51); white-space: pre;"/>
  <path d="M 1092.532 416.262 C 1091.524 416.262 1090.728 415.995 1090.142 415.461 C 1089.557 414.928 1089.264 414.142 1089.264 413.105 L 1089.264 406.748 L 1087.464 406.748 L 1087.464 404.814 L 1089.264 404.814 L 1089.264 401.702 L 1091.665 401.702 L 1091.665 404.814 L 1094.377 404.814 L 1094.377 406.748 L 1091.665 406.748 L 1091.665 412.638 C 1091.665 413.157 1091.758 413.546 1091.943 413.806 C 1092.128 414.065 1092.473 414.194 1092.977 414.194 C 1093.229 414.194 1093.48 414.162 1093.732 414.095 C 1093.985 414.028 1094.199 413.942 1094.377 413.839 L 1094.377 415.906 C 1094.11 416.025 1093.81 416.114 1093.476 416.173 C 1093.143 416.232 1092.829 416.262 1092.532 416.262 Z" style="fill: rgb(51, 51, 51); white-space: pre;"/>
  <path d="M 1098.819 420.285 C 1098.538 420.285 1098.271 420.259 1098.019 420.208 C 1097.767 420.156 1097.544 420.093 1097.352 420.018 L 1097.352 418.018 C 1097.53 418.077 1097.708 418.129 1097.885 418.173 C 1098.063 418.218 1098.256 418.24 1098.463 418.24 C 1098.908 418.24 1099.278 418.121 1099.575 417.884 C 1099.871 417.648 1100.123 417.306 1100.331 416.862 C 1100.538 416.417 1100.708 415.884 1100.842 415.261 L 1100.886 416.417 L 1096.129 404.814 L 1098.775 404.814 L 1101.998 413.616 L 1101.664 413.616 L 1104.843 404.814 L 1107.266 404.814 L 1102.665 416.662 C 1102.294 417.61 1101.894 418.347 1101.464 418.874 C 1101.034 419.4 1100.593 419.766 1100.141 419.974 C 1099.69 420.182 1099.249 420.285 1098.819 420.285 Z" style="fill: rgb(51, 51, 51); white-space: pre;"/>
</svg>