<?xml version="1.0" encoding="utf-8"?>
<svg viewBox="0 0 1280 640" style="enable-background:new 0 0 1000 1000;" xmlns="http://www.w3.org/2000/svg">
  <defs>
    <style type="text/css">
	.st0{opacity:0.7;fill:#FFFFFF;}
	.st1{fill:#413D51;}
	.st2{fill:#8FE3F9;}
	.st3{fill:#B2EBF9;}
	.st4{fill:#A4E0EA;}
	.st5{fill:#7AD1E5;}
	.st6{fill:none;stroke:#413D51;stroke-width:16;stroke-linecap:round;stroke-linejoin:round;stroke-miterlimit:10;}
	.st7{fill:#F7E8AD;}
	.st8{fill:#F7D6A1;}
	.st9{fill:#EFCA92;}
	.st10{fill:#FFFFFF;}
	.st11{opacity:0.89;fill:#EFCA92;}
	.st12{fill:none;stroke:#413D51;stroke-width:8;stroke-linecap:round;stroke-linejoin:round;stroke-miterlimit:10;}
	.st13{opacity:0.31;fill:none;stroke:#72C8D6;stroke-width:8;stroke-linecap:round;stroke-linejoin:round;stroke-miterlimit:10;}
</style>
  </defs>
  <rect class="st0" width="1280" height="640" style="opacity: 1;"/>
  <g transform="matrix(1, 0, 0, 1, 139.999954, -218.149216)">
    <ellipse id="XMLID_2_" class="st2" cx="501.8" cy="487.5" rx="228" ry="205.8"/>
    <ellipse id="XMLID_188_" class="st2" cx="501.8" cy="487.5" rx="228" ry="205.8"/>
    <path id="XMLID_193_" class="st3" d="M507.8,689.3c52.1,0,100.1-15.3,138.5-41l-10.5-24.7c-22-51.9-74.2-85.8-132.1-85.8l0,0 c-57.9,0-110.1,33.9-132.1,85.8l-8.6,20.4C402.3,672.3,452.8,689.3,507.8,689.3z"/>
    <path id="XMLID_189_" class="st4" d="M501.7,470.3l-43.6,64l32.9,43.8c5.4,7.2,16.3,7.2,21.7,0l32.6-43.8L501.7,470.3z"/>
    <path id="XMLID_192_" class="st5" d="M501.8,669.3c-121.5,0-220.7-85.7-227.6-193.8c-0.3,4-0.4,8-0.4,12 c0,113.6,102.1,205.8,228,205.8s228-92.1,228-205.8c0-4-0.1-8-0.4-12C722.5,583.6,623.2,669.3,501.8,669.3z"/>
    <path id="XMLID_76_" class="st4" d="M638.6,628.1c-38.1,25.8-85.5,41.2-136.8,41.2c-50,0-96.2-14.5-133.7-39.1l-5,12.3 c39.4,29.2,89.8,46.8,144.8,46.8c49.7,0,95.7-14.4,133.2-38.8c1.8-1.2,3.5-2.5,5.3-3.8L638.6,628.1z"/>
    <path id="XMLID_186_" class="st5" d="M268.2,488.2c6.4,13.1,15,25.3,25.8,36.2c52.3,52.3,137.2,52.3,189.5,0 c43.8-43.8,50.9-110.3,21.5-161.5"/>
    <path id="XMLID_185_" class="st5" d="M729,503.8c-24,36.1-65,59.8-111.6,59.8c-74,0-134-60-134-134c0-33,11.9-63.2,31.7-86.6"/>
    <ellipse id="XMLID_75_" class="st6" cx="501.8" cy="487.5" rx="228" ry="205.8"/>
    <polygon id="XMLID_74_" class="st1" points="501.7,442.3 458.1,506.3 501.9,564.6 545.4,506.3 &#9;"/>
    <polygon id="XMLID_73_" class="st6" points="501.7,442.3 458.1,506.3 501.9,564.6 545.4,506.3 &#9;"/>
    <path id="XMLID_72_" class="st1" d="M600.7,303.9c-30-14-64.1-21.9-100-21.9s-70,7.9-100,21.9v140.1h200V303.9z"/>
    <g id="XMLID_58_">
      <path id="XMLID_71_" class="st1" d="M613.5,317.9l108.7-3.3c-15.7,39.3-17.8,98.4-4.1,163c-17.4,36.8-54.4,62.9-97.9,64.2l0,0 c-61.8,1.9-113.5-46.7-115.3-108.6l0,0C503,371.4,551.6,319.8,613.5,317.9z"/>
      <path id="XMLID_70_" class="st6" d="M613.5,317.9l108.7-3.3c-15.7,39.3-17.8,98.4-4.1,163c-17.4,36.8-54.4,62.9-97.9,64.2l0,0 c-61.8,1.9-113.5-46.7-115.3-108.6l0,0C503,371.4,551.6,319.8,613.5,317.9z"/>
      <circle id="XMLID_69_" class="st7" cx="617.4" cy="429.7" r="112"/>
      <circle id="XMLID_5_" class="st7" cx="617.4" cy="429.7" r="112"/>
      <path id="XMLID_86_" class="st8" d="M696.6,350.5c-21.5-21.5-49.7-32.4-77.9-32.8c21.2,4.1,41.5,14.3,57.9,30.8 c43.7,43.7,43.7,114.6,0,158.4c-22.2,22.2-51.4,33.1-80.4,32.8c35.3,6.8,73.1-3.5,100.4-30.8C740.3,465.1,740.3,394.2,696.6,350.5 z"/>
      <ellipse id="XMLID_3_" transform="matrix(0.7071 -0.7071 0.7071 0.7071 -130.8246 543.5441)" class="st0" cx="590.7" cy="429.7" rx="84" ry="84.6"/>
      <path id="XMLID_12_" class="st9" d="M711.4,376.6c-3.1-4-9.1-15-12.8-18.7c-44-43.4-114.9-43-158.3,1.1 c-8.6,8.7-15.5,18.5-20.6,29C581.4,366.3,649,371.5,711.4,376.6z"/>
      <circle id="XMLID_68_" class="st6" cx="617.4" cy="429.7" r="112"/>
      <circle id="XMLID_67_" class="st6" cx="617.4" cy="429.7" r="112"/>
      <path id="XMLID_66_" class="st1" d="M706.7,362.1c-3.1-4-6.4-7.9-10.1-11.6c-43.7-43.7-114.6-43.7-158.4,0 c-8.7,8.7-15.6,18.4-20.8,28.8C579.4,358.1,644.3,356.5,706.7,362.1z"/>
      <circle id="XMLID_57_" class="st1" cx="562.9" cy="438.1" r="42"/>
      <circle id="XMLID_56_" class="st10" cx="539.1" cy="438.4" r="14"/>
    </g>
    <g id="XMLID_26_">
      <path id="XMLID_89_" class="st1" d="M388.8,317.9L280,314.6c15.7,39.3,17.8,98.4,4.1,163c17.4,36.8,54.4,62.9,97.9,64.2l0,0 c61.8,1.9,113.5-46.7,115.3-108.6l0,0C499.2,371.4,450.6,319.8,388.8,317.9z"/>
      <path id="XMLID_88_" class="st6" d="M388.8,317.9L280,314.6c15.7,39.3,17.8,98.4,4.1,163c17.4,36.8,54.4,62.9,97.9,64.2l0,0 c61.8,1.9,113.5-46.7,115.3-108.6l0,0C499.2,371.4,450.6,319.8,388.8,317.9z"/>
      <circle id="XMLID_87_" class="st7" cx="384.8" cy="429.7" r="112"/>
      <circle id="XMLID_84_" class="st7" cx="384.8" cy="429.7" r="112"/>
      <path id="XMLID_65_" class="st8" d="M305.6,350.5c21.5-21.5,49.7-32.4,77.9-32.8c-21.2,4.1-41.5,14.3-57.9,30.8 c-43.7,43.7-43.7,114.6,0,158.4c22.2,22.2,51.4,33.1,80.4,32.8c-35.3,6.8-73.1-3.5-100.4-30.8 C261.9,465.1,261.9,394.2,305.6,350.5z"/>
      <ellipse id="XMLID_64_" transform="matrix(0.7071 -0.7071 0.7071 0.7071 -183.3021 416.8521)" class="st0" cx="411.5" cy="429.7" rx="84.6" ry="84"/>
      <path id="XMLID_63_" class="st11" d="M290.9,376.6c3.1-4,9.1-15,12.8-18.7c44-43.4,114.9-43,158.3,1.1c8.6,8.7,15.5,18.5,20.6,29 C420.8,366.3,353.2,371.5,290.9,376.6z"/>
      <circle id="XMLID_62_" class="st6" cx="384.8" cy="429.7" r="112"/>
      <circle id="XMLID_61_" class="st6" cx="384.8" cy="429.7" r="112"/>
      <path id="XMLID_60_" class="st1" d="M295.6,362.1c3.1-4,6.4-7.9,10.1-11.6c43.7-43.7,114.6-43.7,158.4,0 c8.7,8.7,15.6,18.4,20.8,28.8C422.9,358.1,357.9,356.5,295.6,362.1z"/>
      <circle id="XMLID_59_" class="st1" cx="439.4" cy="438.1" r="42"/>
      <circle id="XMLID_37_" class="st10" cx="463.2" cy="438.4" r="14"/>
    </g>
    <path id="XMLID_19_" class="st1" d="M447.9,718.3L447.9,718.3c-8.8,0-16-7.2-16-16v-18c0-8.8,7.2-16,16-16h0c8.8,0,16,7.2,16,16v18 C463.9,711.1,456.8,718.3,447.9,718.3z"/>
    <path id="XMLID_17_" class="st1" d="M415.9,718.3L415.9,718.3c-8.8,0-16-7.2-16-16v-18c0-8.8,7.2-16,16-16h0c8.8,0,16,7.2,16,16v18 C431.9,711.1,424.8,718.3,415.9,718.3z"/>
    <path id="XMLID_16_" class="st1" d="M479.7,718.3L479.7,718.3c-8.8,0-16-7.2-16-16v-18c0-8.8,7.2-16,16-16h0c8.8,0,16,7.2,16,16v18 C495.7,711.1,488.5,718.3,479.7,718.3z"/>
    <path id="XMLID_15_" class="st1" d="M521.9,718.3L521.9,718.3c-8.8,0-16-7.2-16-16v-18c0-8.8,7.2-16,16-16h0c8.8,0,16,7.2,16,16v18 C537.9,711.1,530.7,718.3,521.9,718.3z"/>
    <path id="XMLID_14_" class="st1" d="M553.7,718.3L553.7,718.3c-8.8,0-16-7.2-16-16v-18c0-8.8,7.2-16,16-16h0c8.8,0,16,7.2,16,16v18 C569.7,711.1,562.5,718.3,553.7,718.3z"/>
    <path id="XMLID_13_" class="st1" d="M585.7,718.3L585.7,718.3c-8.8,0-16-7.2-16-16v-18c0-8.8,7.2-16,16-16h0c8.8,0,16,7.2,16,16v18 C601.7,711.1,594.5,718.3,585.7,718.3z"/>
    <path id="XMLID_11_" class="st12" d="M491.9,587.6c0,8.4-6.8,15.2-15.2,15.2c-8.4,0-15.2-6.8-15.2-15.2"/>
    <path id="XMLID_9_" class="st12" d="M538.4,587.6c0,8.4-6.8,15.2-15.2,15.2c-8.4,0-15.2-6.8-15.2-15.2"/>
    <path id="XMLID_10_" class="st13" d="M323,548.8c-2.2,4.7-7.7,6.8-12.5,4.6s-6.8-7.7-4.6-12.5"/>
    <path id="XMLID_1_" class="st13" d="M352.8,564.3c-2.2,4.7-7.7,6.8-12.5,4.6c-4.7-2.2-6.8-7.7-4.6-12.5"/>
    <path id="XMLID_78_" class="st13" d="M335.5,576.2c-2.2,4.7-7.7,6.8-12.5,4.6c-4.7-2.2-6.8-7.7-4.6-12.5"/>
    <path id="XMLID_77_" class="st13" d="M361.7,596.1c-2.2,4.7-7.7,6.8-12.5,4.6c-4.7-2.2-6.8-7.7-4.6-12.5"/>
    <path id="XMLID_79_" class="st13" d="M381.7,578.1c-2.2,4.7-7.7,6.8-12.5,4.6c-4.7-2.2-6.8-7.7-4.6-12.5"/>
    <path id="XMLID_85_" class="st13" d="M683.7,550.8c2.2,4.7,7.7,6.8,12.5,4.6s6.8-7.7,4.6-12.5"/>
    <path id="XMLID_83_" class="st13" d="M654,566.3c2.2,4.7,7.7,6.8,12.5,4.6c4.7-2.2,6.8-7.7,4.6-12.5"/>
    <path id="XMLID_82_" class="st13" d="M671.2,578.2c2.2,4.7,7.7,6.8,12.5,4.6c4.7-2.2,6.8-7.7,4.6-12.5"/>
    <path id="XMLID_81_" class="st13" d="M645.1,598.1c2.2,4.7,7.7,6.8,12.5,4.6c4.7-2.2,6.8-7.7,4.6-12.5"/>
    <path id="XMLID_80_" class="st13" d="M625.1,580.1c2.2,4.7,7.7,6.8,12.5,4.6c4.7-2.2,6.8-7.7,4.6-12.5"/>
    <path id="XMLID_8_" class="st12" d="M468.7,624.1c0,8.4-6.8,15.2-15.2,15.2c-8.4,0-15.2-6.8-15.2-15.2"/>
    <path id="XMLID_7_" class="st12" d="M515.2,624.1c0,8.4-6.8,15.2-15.2,15.2s-15.2-6.8-15.2-15.2"/>
    <path id="XMLID_6_" class="st12" d="M561.7,624.1c0,8.4-6.8,15.2-15.2,15.2c-8.4,0-15.2-6.8-15.2-15.2"/>
  </g>
  <path d="M 302.934 563.56 L 289.584 563.56 Q 287.893 563.56 287.137 562.803 Q 286.38 562.047 286.38 560.356 L 286.38 502.684 Q 286.38 500.993 287.137 500.236 Q 287.893 499.48 289.584 499.48 L 298.84 499.48 Q 300.531 499.48 301.733 500.014 Q 302.934 500.548 304.091 501.883 L 321.357 521.641 L 321.357 502.684 Q 321.357 500.993 322.114 500.236 Q 322.87 499.48 324.561 499.48 L 337.911 499.48 Q 339.602 499.48 340.359 500.236 Q 341.115 500.993 341.115 502.684 L 341.115 560.356 Q 341.115 562.047 340.359 562.803 Q 339.602 563.56 337.911 563.56 L 324.561 563.56 Q 322.87 563.56 322.114 562.803 Q 321.357 562.047 321.357 560.356 L 321.357 549.409 L 306.138 530.986 L 306.138 560.356 Q 306.138 562.047 305.382 562.803 Q 304.625 563.56 302.934 563.56 Z" style="fill: rgb(65, 61, 81); white-space: pre;"/>
  <path d="M 383.122 563.56 L 354.998 563.56 Q 353.307 563.56 352.55 562.803 Q 351.794 562.047 351.794 560.356 L 351.794 549.943 Q 351.794 548.252 352.55 547.495 Q 353.307 546.739 354.998 546.739 L 378.939 546.739 Q 380.096 546.739 380.674 545.982 Q 381.253 545.226 381.253 544.158 Q 381.253 542.645 380.674 541.933 Q 380.096 541.221 378.939 541.132 L 365.589 539.263 Q 359.359 538.373 355.576 535.169 Q 351.794 531.965 351.794 524.489 L 351.794 515.144 Q 351.794 507.579 356.689 503.529 Q 361.584 499.48 370.217 499.48 L 395.137 499.48 Q 396.828 499.48 397.584 500.236 Q 398.341 500.993 398.341 502.684 L 398.341 513.275 Q 398.341 514.966 397.584 515.722 Q 396.828 516.479 395.137 516.479 L 374.4 516.479 Q 373.243 516.479 372.62 517.235 Q 371.997 517.992 371.997 519.149 Q 371.997 520.306 372.62 521.107 Q 373.243 521.908 374.4 521.997 L 387.661 523.777 Q 393.891 524.667 397.718 527.871 Q 401.545 531.075 401.545 538.551 L 401.545 547.896 Q 401.545 555.461 396.605 559.51 Q 391.666 563.56 383.122 563.56 Z" style="fill: rgb(65, 61, 81); white-space: pre;"/>
  <path d="M 465.796 546.739 Q 465.796 550.833 464.595 554.17 Q 463.393 557.508 460.323 559.866 Q 457.252 562.225 451.912 563.56 Q 446.572 564.895 438.295 564.895 Q 430.018 564.895 424.678 563.56 Q 419.338 562.225 416.268 559.866 Q 413.197 557.508 411.996 554.17 Q 410.794 550.833 410.794 546.739 L 410.794 502.684 Q 410.794 500.993 411.551 500.236 Q 412.307 499.48 413.998 499.48 L 427.971 499.48 Q 429.662 499.48 430.419 500.236 Q 431.175 500.993 431.175 502.684 L 431.175 543.268 Q 431.175 545.048 432.51 546.249 Q 433.845 547.451 438.473 547.451 Q 443.19 547.451 444.525 546.249 Q 445.86 545.048 445.86 543.268 L 445.86 502.684 Q 445.86 500.993 446.617 500.236 Q 447.373 499.48 449.064 499.48 L 462.592 499.48 Q 464.283 499.48 465.04 500.236 Q 465.796 500.993 465.796 502.684 Z" style="fill: rgb(65, 61, 81); white-space: pre;"/>
  <path d="M 507.356 563.56 L 479.232 563.56 Q 477.541 563.56 476.785 562.803 Q 476.028 562.047 476.028 560.356 L 476.028 549.943 Q 476.028 548.252 476.785 547.495 Q 477.541 546.739 479.232 546.739 L 503.173 546.739 Q 504.33 546.739 504.909 545.982 Q 505.487 545.226 505.487 544.158 Q 505.487 542.645 504.909 541.933 Q 504.33 541.221 503.173 541.132 L 489.823 539.263 Q 483.593 538.373 479.811 535.169 Q 476.028 531.965 476.028 524.489 L 476.028 515.144 Q 476.028 507.579 480.923 503.529 Q 485.818 499.48 494.451 499.48 L 519.371 499.48 Q 521.062 499.48 521.819 500.236 Q 522.575 500.993 522.575 502.684 L 522.575 513.275 Q 522.575 514.966 521.819 515.722 Q 521.062 516.479 519.371 516.479 L 498.634 516.479 Q 497.477 516.479 496.854 517.235 Q 496.231 517.992 496.231 519.149 Q 496.231 520.306 496.854 521.107 Q 497.477 521.908 498.634 521.997 L 511.895 523.777 Q 518.125 524.667 521.952 527.871 Q 525.779 531.075 525.779 538.551 L 525.779 547.896 Q 525.779 555.461 520.84 559.51 Q 515.9 563.56 507.356 563.56 Z" style="fill: rgb(65, 61, 81); white-space: pre;"/>
  <path d="M 564.859 563.56 L 550.441 563.56 Q 548.75 563.56 547.993 562.803 Q 547.237 562.047 547.237 560.356 L 547.237 516.657 L 534.154 516.657 Q 532.463 516.657 531.706 515.9 Q 530.95 515.144 530.95 513.453 L 530.95 502.684 Q 530.95 500.993 531.706 500.236 Q 532.463 499.48 534.154 499.48 L 581.146 499.48 Q 582.837 499.48 583.593 500.236 Q 584.35 500.993 584.35 502.684 L 584.35 513.453 Q 584.35 515.144 583.593 515.9 Q 582.837 516.657 581.146 516.657 L 568.063 516.657 L 568.063 560.356 Q 568.063 562.047 567.306 562.803 Q 566.55 563.56 564.859 563.56 Z" style="fill: rgb(65, 61, 81); white-space: pre;"/>
  <path d="M 612.64 518.17 L 608.457 531.698 L 622.43 531.698 L 618.247 518.17 Q 617.891 517.369 617.491 517.013 Q 617.09 516.657 616.556 516.657 L 614.331 516.657 Q 613.797 516.657 613.397 517.013 Q 612.996 517.369 612.64 518.17 Z M 607.567 560.356 Q 607.567 562.047 606.811 562.803 Q 606.054 563.56 604.363 563.56 L 591.28 563.56 Q 589.589 563.56 588.833 562.803 Q 588.076 562.047 588.076 560.356 L 588.076 536.86 Q 588.076 534.19 588.922 530.719 Q 589.767 527.248 591.547 522.62 L 599.29 502.417 Q 599.824 500.904 600.937 500.192 Q 602.049 499.48 603.829 499.48 L 627.77 499.48 Q 629.461 499.48 630.574 500.192 Q 631.686 500.904 632.22 502.417 L 639.963 522.62 Q 641.743 527.248 642.589 530.719 Q 643.434 534.19 643.434 536.86 L 643.434 560.356 Q 643.434 562.047 642.678 562.803 Q 641.921 563.56 640.23 563.56 L 626.791 563.56 Q 625.011 563.56 624.166 562.803 Q 623.32 562.047 623.32 560.356 L 623.32 547.896 L 607.567 547.896 Z" style="fill: rgb(65, 61, 81); white-space: pre;"/>
  <path d="M 656.16 563.56 Q 654.469 563.56 653.713 562.803 Q 652.956 562.047 652.956 560.356 L 652.956 549.765 Q 652.956 548.074 653.713 547.317 Q 654.469 546.561 656.16 546.561 L 664.971 546.561 L 664.971 516.657 L 656.16 516.657 Q 654.469 516.657 653.713 515.9 Q 652.956 515.144 652.956 513.453 L 652.956 502.684 Q 652.956 500.993 653.713 500.236 Q 654.469 499.48 656.16 499.48 L 694.074 499.48 Q 695.765 499.48 696.522 500.236 Q 697.278 500.993 697.278 502.684 L 697.278 513.453 Q 697.278 515.144 696.522 515.9 Q 695.765 516.657 694.074 516.657 L 685.441 516.657 L 685.441 546.561 L 694.074 546.561 Q 695.765 546.561 696.522 547.317 Q 697.278 548.074 697.278 549.765 L 697.278 560.356 Q 697.278 562.047 696.522 562.803 Q 695.765 563.56 694.074 563.56 Z" style="fill: rgb(65, 61, 81); white-space: pre;"/>
  <path d="M 724.793 563.56 L 711.443 563.56 Q 709.752 563.56 708.996 562.803 Q 708.239 562.047 708.239 560.356 L 708.239 502.684 Q 708.239 500.993 708.996 500.236 Q 709.752 499.48 711.443 499.48 L 720.699 499.48 Q 722.39 499.48 723.592 500.014 Q 724.793 500.548 725.95 501.883 L 743.216 521.641 L 743.216 502.684 Q 743.216 500.993 743.973 500.236 Q 744.729 499.48 746.42 499.48 L 759.77 499.48 Q 761.461 499.48 762.218 500.236 Q 762.974 500.993 762.974 502.684 L 762.974 560.356 Q 762.974 562.047 762.218 562.803 Q 761.461 563.56 759.77 563.56 L 746.42 563.56 Q 744.729 563.56 743.973 562.803 Q 743.216 562.047 743.216 560.356 L 743.216 549.409 L 727.997 530.986 L 727.997 560.356 Q 727.997 562.047 727.241 562.803 Q 726.484 563.56 724.793 563.56 Z" style="fill: rgb(65, 61, 81); white-space: pre;"/>
  <path d="M 795.191 563.56 L 777.213 563.56 Q 775.522 563.56 774.766 562.803 Q 774.009 562.047 774.009 560.356 L 774.009 542.289 Q 774.009 540.598 774.766 539.841 Q 775.522 539.085 777.213 539.085 L 795.191 539.085 Q 796.882 539.085 797.639 539.841 Q 798.395 540.598 798.395 542.289 L 798.395 560.356 Q 798.395 562.047 797.639 562.803 Q 796.882 563.56 795.191 563.56 Z" style="fill: rgb(65, 61, 81); white-space: pre;"/>
  <path d="M 852.058 563.56 L 830.342 563.56 Q 819.217 563.56 813.832 559.11 Q 808.448 554.66 808.448 545.404 L 808.448 517.725 Q 808.448 508.469 813.832 503.974 Q 819.217 499.48 830.342 499.48 L 852.058 499.48 Q 853.749 499.48 854.505 500.236 Q 855.262 500.993 855.262 502.684 L 855.262 513.453 Q 855.262 515.144 854.505 515.9 Q 853.749 516.657 852.058 516.657 L 834.169 516.657 Q 831.41 516.657 830.075 517.769 Q 828.74 518.882 828.74 521.107 L 828.74 542.289 Q 828.74 544.514 830.075 545.537 Q 831.41 546.561 834.169 546.561 L 852.058 546.561 Q 853.749 546.561 854.505 547.317 Q 855.262 548.074 855.262 549.765 L 855.262 560.356 Q 855.262 562.047 854.505 562.803 Q 853.749 563.56 852.058 563.56 Z" style="fill: rgb(65, 61, 81); white-space: pre;"/>
  <path d="M 919.154 546.739 Q 919.154 550.833 917.953 554.17 Q 916.751 557.508 913.681 559.866 Q 910.61 562.225 905.226 563.56 Q 899.841 564.895 891.564 564.895 Q 883.287 564.895 877.858 563.56 Q 872.429 562.225 869.359 559.866 Q 866.288 557.508 865.087 554.17 Q 863.885 550.833 863.885 546.739 L 863.885 516.39 Q 863.885 512.296 865.087 508.958 Q 866.288 505.621 869.359 503.218 Q 872.429 500.815 877.858 499.48 Q 883.287 498.145 891.564 498.145 Q 899.841 498.145 905.226 499.48 Q 910.61 500.815 913.681 503.218 Q 916.751 505.621 917.953 508.958 Q 919.154 512.296 919.154 516.39 Z M 884.088 543.535 Q 884.088 545.315 885.423 546.516 Q 886.758 547.718 891.564 547.718 Q 896.37 547.718 897.705 546.516 Q 899.04 545.315 899.04 543.535 L 899.04 519.594 Q 899.04 517.903 897.705 516.701 Q 896.37 515.5 891.564 515.5 Q 886.758 515.5 885.423 516.701 Q 884.088 517.903 884.088 519.594 Z" style="fill: rgb(65, 61, 81); white-space: pre;"/>
  <path d="M 946.923 563.56 L 933.662 563.56 Q 931.971 563.56 931.215 562.803 Q 930.458 562.047 930.458 560.356 L 930.458 502.684 Q 930.458 500.993 931.215 500.236 Q 931.971 499.48 933.662 499.48 L 947.991 499.48 Q 949.415 499.48 950.35 500.103 Q 951.284 500.726 952.085 502.15 L 960.095 516.657 Q 960.54 517.458 960.852 517.814 Q 961.163 518.17 961.697 518.17 L 962.498 518.17 Q 963.032 518.17 963.344 517.814 Q 963.655 517.458 964.1 516.657 L 972.021 502.15 Q 972.822 500.726 973.757 500.103 Q 974.691 499.48 976.115 499.48 L 990.533 499.48 Q 992.224 499.48 992.981 500.236 Q 993.737 500.993 993.737 502.684 L 993.737 560.356 Q 993.737 562.047 992.981 562.803 Q 992.224 563.56 990.533 563.56 L 976.827 563.56 Q 975.136 563.56 974.38 562.803 Q 973.623 562.047 973.623 560.356 L 973.623 529.028 L 968.372 538.729 Q 967.571 540.242 966.459 540.909 Q 965.346 541.577 963.655 541.577 L 960.095 541.577 Q 958.404 541.577 957.292 540.909 Q 956.179 540.242 955.378 538.729 L 950.127 529.028 L 950.127 560.356 Q 950.127 562.047 949.371 562.803 Q 948.614 563.56 946.923 563.56 Z" style="fill: rgb(65, 61, 81); white-space: pre;"/>
</svg>