<?xml version="1.0" encoding="utf-8"?>
<svg viewBox="0 0 1000 700" style="enable-background:new 0 0 1000 1000;" xmlns="http://www.w3.org/2000/svg">
  <defs>
    <style type="text/css">
	.st0{opacity:0.7;fill:#FFFFFF;}
	.st1{fill:#413D51;}
	.st2{fill:#8FE3F9;}
	.st3{fill:#B2EBF9;}
	.st4{fill:#A4E0EA;}
	.st5{fill:#7AD1E5;}
	.st6{fill:none;stroke:#413D51;stroke-width:16;stroke-linecap:round;stroke-linejoin:round;stroke-miterlimit:10;}
	.st7{fill:#F7E8AD;}
	.st8{fill:#F7D6A1;}
	.st9{fill:#EFCA92;}
	.st10{fill:#FFFFFF;}
	.st11{opacity:0.89;fill:#EFCA92;}
	.st12{fill:none;stroke:#413D51;stroke-width:8;stroke-linecap:round;stroke-linejoin:round;stroke-miterlimit:10;}
	.st13{opacity:0.31;fill:none;stroke:#72C8D6;stroke-width:8;stroke-linecap:round;stroke-linejoin:round;stroke-miterlimit:10;}
</style>
  </defs>
  <rect class="st0" width="1000" height="700" style="opacity: 1;"/>
  <g transform="matrix(1, 0, 0, 1, 0, -207)">
    <ellipse id="XMLID_2_" class="st2" cx="501.8" cy="487.5" rx="228" ry="205.8"/>
    <ellipse id="XMLID_188_" class="st2" cx="501.8" cy="487.5" rx="228" ry="205.8"/>
    <path id="XMLID_193_" class="st3" d="M507.8,689.3c52.1,0,100.1-15.3,138.5-41l-10.5-24.7c-22-51.9-74.2-85.8-132.1-85.8l0,0 c-57.9,0-110.1,33.9-132.1,85.8l-8.6,20.4C402.3,672.3,452.8,689.3,507.8,689.3z"/>
    <path id="XMLID_189_" class="st4" d="M501.7,470.3l-43.6,64l32.9,43.8c5.4,7.2,16.3,7.2,21.7,0l32.6-43.8L501.7,470.3z"/>
    <path id="XMLID_192_" class="st5" d="M501.8,669.3c-121.5,0-220.7-85.7-227.6-193.8c-0.3,4-0.4,8-0.4,12 c0,113.6,102.1,205.8,228,205.8s228-92.1,228-205.8c0-4-0.1-8-0.4-12C722.5,583.6,623.2,669.3,501.8,669.3z"/>
    <path id="XMLID_76_" class="st4" d="M638.6,628.1c-38.1,25.8-85.5,41.2-136.8,41.2c-50,0-96.2-14.5-133.7-39.1l-5,12.3 c39.4,29.2,89.8,46.8,144.8,46.8c49.7,0,95.7-14.4,133.2-38.8c1.8-1.2,3.5-2.5,5.3-3.8L638.6,628.1z"/>
    <path id="XMLID_186_" class="st5" d="M268.2,488.2c6.4,13.1,15,25.3,25.8,36.2c52.3,52.3,137.2,52.3,189.5,0 c43.8-43.8,50.9-110.3,21.5-161.5"/>
    <path id="XMLID_185_" class="st5" d="M729,503.8c-24,36.1-65,59.8-111.6,59.8c-74,0-134-60-134-134c0-33,11.9-63.2,31.7-86.6"/>
    <ellipse id="XMLID_75_" class="st6" cx="501.8" cy="487.5" rx="228" ry="205.8"/>
    <polygon id="XMLID_74_" class="st1" points="501.7,442.3 458.1,506.3 501.9,564.6 545.4,506.3 &#9;"/>
    <polygon id="XMLID_73_" class="st6" points="501.7,442.3 458.1,506.3 501.9,564.6 545.4,506.3 &#9;"/>
    <path id="XMLID_72_" class="st1" d="M600.7,303.9c-30-14-64.1-21.9-100-21.9s-70,7.9-100,21.9v140.1h200V303.9z"/>
    <g id="XMLID_58_">
      <path id="XMLID_71_" class="st1" d="M613.5,317.9l108.7-3.3c-15.7,39.3-17.8,98.4-4.1,163c-17.4,36.8-54.4,62.9-97.9,64.2l0,0 c-61.8,1.9-113.5-46.7-115.3-108.6l0,0C503,371.4,551.6,319.8,613.5,317.9z"/>
      <path id="XMLID_70_" class="st6" d="M613.5,317.9l108.7-3.3c-15.7,39.3-17.8,98.4-4.1,163c-17.4,36.8-54.4,62.9-97.9,64.2l0,0 c-61.8,1.9-113.5-46.7-115.3-108.6l0,0C503,371.4,551.6,319.8,613.5,317.9z"/>
      <circle id="XMLID_69_" class="st7" cx="617.4" cy="429.7" r="112"/>
      <circle id="XMLID_5_" class="st7" cx="617.4" cy="429.7" r="112"/>
      <path id="XMLID_86_" class="st8" d="M696.6,350.5c-21.5-21.5-49.7-32.4-77.9-32.8c21.2,4.1,41.5,14.3,57.9,30.8 c43.7,43.7,43.7,114.6,0,158.4c-22.2,22.2-51.4,33.1-80.4,32.8c35.3,6.8,73.1-3.5,100.4-30.8C740.3,465.1,740.3,394.2,696.6,350.5 z"/>
      <ellipse id="XMLID_3_" transform="matrix(0.7071 -0.7071 0.7071 0.7071 -130.8246 543.5441)" class="st0" cx="590.7" cy="429.7" rx="84" ry="84.6"/>
      <path id="XMLID_12_" class="st9" d="M711.4,376.6c-3.1-4-9.1-15-12.8-18.7c-44-43.4-114.9-43-158.3,1.1 c-8.6,8.7-15.5,18.5-20.6,29C581.4,366.3,649,371.5,711.4,376.6z"/>
      <circle id="XMLID_68_" class="st6" cx="617.4" cy="429.7" r="112"/>
      <circle id="XMLID_67_" class="st6" cx="617.4" cy="429.7" r="112"/>
      <path id="XMLID_66_" class="st1" d="M706.7,362.1c-3.1-4-6.4-7.9-10.1-11.6c-43.7-43.7-114.6-43.7-158.4,0 c-8.7,8.7-15.6,18.4-20.8,28.8C579.4,358.1,644.3,356.5,706.7,362.1z"/>
      <circle id="XMLID_57_" class="st1" cx="562.9" cy="438.1" r="42"/>
      <circle id="XMLID_56_" class="st10" cx="539.1" cy="438.4" r="14"/>
    </g>
    <g id="XMLID_26_">
      <path id="XMLID_89_" class="st1" d="M388.8,317.9L280,314.6c15.7,39.3,17.8,98.4,4.1,163c17.4,36.8,54.4,62.9,97.9,64.2l0,0 c61.8,1.9,113.5-46.7,115.3-108.6l0,0C499.2,371.4,450.6,319.8,388.8,317.9z"/>
      <path id="XMLID_88_" class="st6" d="M388.8,317.9L280,314.6c15.7,39.3,17.8,98.4,4.1,163c17.4,36.8,54.4,62.9,97.9,64.2l0,0 c61.8,1.9,113.5-46.7,115.3-108.6l0,0C499.2,371.4,450.6,319.8,388.8,317.9z"/>
      <circle id="XMLID_87_" class="st7" cx="384.8" cy="429.7" r="112"/>
      <circle id="XMLID_84_" class="st7" cx="384.8" cy="429.7" r="112"/>
      <path id="XMLID_65_" class="st8" d="M305.6,350.5c21.5-21.5,49.7-32.4,77.9-32.8c-21.2,4.1-41.5,14.3-57.9,30.8 c-43.7,43.7-43.7,114.6,0,158.4c22.2,22.2,51.4,33.1,80.4,32.8c-35.3,6.8-73.1-3.5-100.4-30.8 C261.9,465.1,261.9,394.2,305.6,350.5z"/>
      <ellipse id="XMLID_64_" transform="matrix(0.7071 -0.7071 0.7071 0.7071 -183.3021 416.8521)" class="st0" cx="411.5" cy="429.7" rx="84.6" ry="84"/>
      <path id="XMLID_63_" class="st11" d="M290.9,376.6c3.1-4,9.1-15,12.8-18.7c44-43.4,114.9-43,158.3,1.1c8.6,8.7,15.5,18.5,20.6,29 C420.8,366.3,353.2,371.5,290.9,376.6z"/>
      <circle id="XMLID_62_" class="st6" cx="384.8" cy="429.7" r="112"/>
      <circle id="XMLID_61_" class="st6" cx="384.8" cy="429.7" r="112"/>
      <path id="XMLID_60_" class="st1" d="M295.6,362.1c3.1-4,6.4-7.9,10.1-11.6c43.7-43.7,114.6-43.7,158.4,0 c8.7,8.7,15.6,18.4,20.8,28.8C422.9,358.1,357.9,356.5,295.6,362.1z"/>
      <circle id="XMLID_59_" class="st1" cx="439.4" cy="438.1" r="42"/>
      <circle id="XMLID_37_" class="st10" cx="463.2" cy="438.4" r="14"/>
    </g>
    <path id="XMLID_19_" class="st1" d="M447.9,718.3L447.9,718.3c-8.8,0-16-7.2-16-16v-18c0-8.8,7.2-16,16-16h0c8.8,0,16,7.2,16,16v18 C463.9,711.1,456.8,718.3,447.9,718.3z"/>
    <path id="XMLID_17_" class="st1" d="M415.9,718.3L415.9,718.3c-8.8,0-16-7.2-16-16v-18c0-8.8,7.2-16,16-16h0c8.8,0,16,7.2,16,16v18 C431.9,711.1,424.8,718.3,415.9,718.3z"/>
    <path id="XMLID_16_" class="st1" d="M479.7,718.3L479.7,718.3c-8.8,0-16-7.2-16-16v-18c0-8.8,7.2-16,16-16h0c8.8,0,16,7.2,16,16v18 C495.7,711.1,488.5,718.3,479.7,718.3z"/>
    <path id="XMLID_15_" class="st1" d="M521.9,718.3L521.9,718.3c-8.8,0-16-7.2-16-16v-18c0-8.8,7.2-16,16-16h0c8.8,0,16,7.2,16,16v18 C537.9,711.1,530.7,718.3,521.9,718.3z"/>
    <path id="XMLID_14_" class="st1" d="M553.7,718.3L553.7,718.3c-8.8,0-16-7.2-16-16v-18c0-8.8,7.2-16,16-16h0c8.8,0,16,7.2,16,16v18 C569.7,711.1,562.5,718.3,553.7,718.3z"/>
    <path id="XMLID_13_" class="st1" d="M585.7,718.3L585.7,718.3c-8.8,0-16-7.2-16-16v-18c0-8.8,7.2-16,16-16h0c8.8,0,16,7.2,16,16v18 C601.7,711.1,594.5,718.3,585.7,718.3z"/>
    <path id="XMLID_11_" class="st12" d="M491.9,587.6c0,8.4-6.8,15.2-15.2,15.2c-8.4,0-15.2-6.8-15.2-15.2"/>
    <path id="XMLID_9_" class="st12" d="M538.4,587.6c0,8.4-6.8,15.2-15.2,15.2c-8.4,0-15.2-6.8-15.2-15.2"/>
    <path id="XMLID_10_" class="st13" d="M323,548.8c-2.2,4.7-7.7,6.8-12.5,4.6s-6.8-7.7-4.6-12.5"/>
    <path id="XMLID_1_" class="st13" d="M352.8,564.3c-2.2,4.7-7.7,6.8-12.5,4.6c-4.7-2.2-6.8-7.7-4.6-12.5"/>
    <path id="XMLID_78_" class="st13" d="M335.5,576.2c-2.2,4.7-7.7,6.8-12.5,4.6c-4.7-2.2-6.8-7.7-4.6-12.5"/>
    <path id="XMLID_77_" class="st13" d="M361.7,596.1c-2.2,4.7-7.7,6.8-12.5,4.6c-4.7-2.2-6.8-7.7-4.6-12.5"/>
    <path id="XMLID_79_" class="st13" d="M381.7,578.1c-2.2,4.7-7.7,6.8-12.5,4.6c-4.7-2.2-6.8-7.7-4.6-12.5"/>
    <path id="XMLID_85_" class="st13" d="M683.7,550.8c2.2,4.7,7.7,6.8,12.5,4.6s6.8-7.7,4.6-12.5"/>
    <path id="XMLID_83_" class="st13" d="M654,566.3c2.2,4.7,7.7,6.8,12.5,4.6c4.7-2.2,6.8-7.7,4.6-12.5"/>
    <path id="XMLID_82_" class="st13" d="M671.2,578.2c2.2,4.7,7.7,6.8,12.5,4.6c4.7-2.2,6.8-7.7,4.6-12.5"/>
    <path id="XMLID_81_" class="st13" d="M645.1,598.1c2.2,4.7,7.7,6.8,12.5,4.6c4.7-2.2,6.8-7.7,4.6-12.5"/>
    <path id="XMLID_80_" class="st13" d="M625.1,580.1c2.2,4.7,7.7,6.8,12.5,4.6c4.7-2.2,6.8-7.7,4.6-12.5"/>
    <path id="XMLID_8_" class="st12" d="M468.7,624.1c0,8.4-6.8,15.2-15.2,15.2c-8.4,0-15.2-6.8-15.2-15.2"/>
    <path id="XMLID_7_" class="st12" d="M515.2,624.1c0,8.4-6.8,15.2-15.2,15.2s-15.2-6.8-15.2-15.2"/>
    <path id="XMLID_6_" class="st12" d="M561.7,624.1c0,8.4-6.8,15.2-15.2,15.2c-8.4,0-15.2-6.8-15.2-15.2"/>
  </g>
  <path d="M 162.934 574.709 L 149.584 574.709 Q 147.893 574.709 147.136 573.952 Q 146.38 573.196 146.38 571.505 L 146.38 513.833 Q 146.38 512.142 147.136 511.385 Q 147.893 510.629 149.584 510.629 L 158.84 510.629 Q 160.531 510.629 161.732 511.163 Q 162.934 511.697 164.091 513.032 L 181.357 532.79 L 181.357 513.833 Q 181.357 512.142 182.113 511.385 Q 182.87 510.629 184.561 510.629 L 197.911 510.629 Q 199.602 510.629 200.358 511.385 Q 201.115 512.142 201.115 513.833 L 201.115 571.505 Q 201.115 573.196 200.358 573.952 Q 199.602 574.709 197.911 574.709 L 184.561 574.709 Q 182.87 574.709 182.113 573.952 Q 181.357 573.196 181.357 571.505 L 181.357 560.558 L 166.138 542.135 L 166.138 571.505 Q 166.138 573.196 165.381 573.952 Q 164.625 574.709 162.934 574.709 Z" style="fill: rgb(65, 61, 81); white-space: pre;"/>
  <path d="M 243.122 574.709 L 214.998 574.709 Q 213.307 574.709 212.55 573.952 Q 211.794 573.196 211.794 571.505 L 211.794 561.092 Q 211.794 559.401 212.55 558.644 Q 213.307 557.888 214.998 557.888 L 238.939 557.888 Q 240.096 557.888 240.674 557.131 Q 241.253 556.375 241.253 555.307 Q 241.253 553.794 240.674 553.082 Q 240.096 552.37 238.939 552.281 L 225.589 550.412 Q 219.359 549.522 215.576 546.318 Q 211.794 543.114 211.794 535.638 L 211.794 526.293 Q 211.794 518.728 216.689 514.678 Q 221.584 510.629 230.217 510.629 L 255.137 510.629 Q 256.828 510.629 257.584 511.385 Q 258.341 512.142 258.341 513.833 L 258.341 524.424 Q 258.341 526.115 257.584 526.871 Q 256.828 527.628 255.137 527.628 L 234.4 527.628 Q 233.243 527.628 232.62 528.384 Q 231.997 529.141 231.997 530.298 Q 231.997 531.455 232.62 532.256 Q 233.243 533.057 234.4 533.146 L 247.661 534.926 Q 253.891 535.816 257.718 539.02 Q 261.545 542.224 261.545 549.7 L 261.545 559.045 Q 261.545 566.61 256.605 570.659 Q 251.666 574.709 243.122 574.709 Z" style="fill: rgb(65, 61, 81); white-space: pre;"/>
  <path d="M 325.796 557.888 Q 325.796 561.982 324.595 565.319 Q 323.393 568.657 320.323 571.015 Q 317.252 573.374 311.912 574.709 Q 306.572 576.044 298.295 576.044 Q 290.018 576.044 284.678 574.709 Q 279.338 573.374 276.268 571.015 Q 273.197 568.657 271.996 565.319 Q 270.794 561.982 270.794 557.888 L 270.794 513.833 Q 270.794 512.142 271.551 511.385 Q 272.307 510.629 273.998 510.629 L 287.971 510.629 Q 289.662 510.629 290.419 511.385 Q 291.175 512.142 291.175 513.833 L 291.175 554.417 Q 291.175 556.197 292.51 557.398 Q 293.845 558.6 298.473 558.6 Q 303.19 558.6 304.525 557.398 Q 305.86 556.197 305.86 554.417 L 305.86 513.833 Q 305.86 512.142 306.617 511.385 Q 307.373 510.629 309.064 510.629 L 322.592 510.629 Q 324.283 510.629 325.04 511.385 Q 325.796 512.142 325.796 513.833 Z" style="fill: rgb(65, 61, 81); white-space: pre;"/>
  <path d="M 367.356 574.709 L 339.232 574.709 Q 337.541 574.709 336.785 573.952 Q 336.028 573.196 336.028 571.505 L 336.028 561.092 Q 336.028 559.401 336.785 558.644 Q 337.541 557.888 339.232 557.888 L 363.173 557.888 Q 364.33 557.888 364.909 557.131 Q 365.487 556.375 365.487 555.307 Q 365.487 553.794 364.909 553.082 Q 364.33 552.37 363.173 552.281 L 349.823 550.412 Q 343.593 549.522 339.811 546.318 Q 336.028 543.114 336.028 535.638 L 336.028 526.293 Q 336.028 518.728 340.923 514.678 Q 345.818 510.629 354.451 510.629 L 379.371 510.629 Q 381.062 510.629 381.819 511.385 Q 382.575 512.142 382.575 513.833 L 382.575 524.424 Q 382.575 526.115 381.819 526.871 Q 381.062 527.628 379.371 527.628 L 358.634 527.628 Q 357.477 527.628 356.854 528.384 Q 356.231 529.141 356.231 530.298 Q 356.231 531.455 356.854 532.256 Q 357.477 533.057 358.634 533.146 L 371.895 534.926 Q 378.125 535.816 381.952 539.02 Q 385.779 542.224 385.779 549.7 L 385.779 559.045 Q 385.779 566.61 380.84 570.659 Q 375.9 574.709 367.356 574.709 Z" style="fill: rgb(65, 61, 81); white-space: pre;"/>
  <path d="M 424.859 574.709 L 410.441 574.709 Q 408.75 574.709 407.993 573.952 Q 407.237 573.196 407.237 571.505 L 407.237 527.806 L 394.154 527.806 Q 392.463 527.806 391.706 527.049 Q 390.95 526.293 390.95 524.602 L 390.95 513.833 Q 390.95 512.142 391.706 511.385 Q 392.463 510.629 394.154 510.629 L 441.146 510.629 Q 442.837 510.629 443.593 511.385 Q 444.35 512.142 444.35 513.833 L 444.35 524.602 Q 444.35 526.293 443.593 527.049 Q 442.837 527.806 441.146 527.806 L 428.063 527.806 L 428.063 571.505 Q 428.063 573.196 427.306 573.952 Q 426.55 574.709 424.859 574.709 Z" style="fill: rgb(65, 61, 81); white-space: pre;"/>
  <path d="M 472.64 529.319 L 468.457 542.847 L 482.43 542.847 L 478.247 529.319 Q 477.891 528.518 477.491 528.162 Q 477.09 527.806 476.556 527.806 L 474.331 527.806 Q 473.797 527.806 473.397 528.162 Q 472.996 528.518 472.64 529.319 Z M 467.567 571.505 Q 467.567 573.196 466.811 573.952 Q 466.054 574.709 464.363 574.709 L 451.28 574.709 Q 449.589 574.709 448.833 573.952 Q 448.076 573.196 448.076 571.505 L 448.076 548.009 Q 448.076 545.339 448.922 541.868 Q 449.767 538.397 451.547 533.769 L 459.29 513.566 Q 459.824 512.053 460.937 511.341 Q 462.049 510.629 463.829 510.629 L 487.77 510.629 Q 489.461 510.629 490.574 511.341 Q 491.686 512.053 492.22 513.566 L 499.963 533.769 Q 501.743 538.397 502.589 541.868 Q 503.434 545.339 503.434 548.009 L 503.434 571.505 Q 503.434 573.196 502.678 573.952 Q 501.921 574.709 500.23 574.709 L 486.791 574.709 Q 485.011 574.709 484.166 573.952 Q 483.32 573.196 483.32 571.505 L 483.32 559.045 L 467.567 559.045 Z" style="fill: rgb(65, 61, 81); white-space: pre;"/>
  <path d="M 516.16 574.709 Q 514.469 574.709 513.713 573.952 Q 512.956 573.196 512.956 571.505 L 512.956 560.914 Q 512.956 559.223 513.713 558.466 Q 514.469 557.71 516.16 557.71 L 524.971 557.71 L 524.971 527.806 L 516.16 527.806 Q 514.469 527.806 513.713 527.049 Q 512.956 526.293 512.956 524.602 L 512.956 513.833 Q 512.956 512.142 513.713 511.385 Q 514.469 510.629 516.16 510.629 L 554.074 510.629 Q 555.765 510.629 556.522 511.385 Q 557.278 512.142 557.278 513.833 L 557.278 524.602 Q 557.278 526.293 556.522 527.049 Q 555.765 527.806 554.074 527.806 L 545.441 527.806 L 545.441 557.71 L 554.074 557.71 Q 555.765 557.71 556.522 558.466 Q 557.278 559.223 557.278 560.914 L 557.278 571.505 Q 557.278 573.196 556.522 573.952 Q 555.765 574.709 554.074 574.709 Z" style="fill: rgb(65, 61, 81); white-space: pre;"/>
  <path d="M 584.793 574.709 L 571.443 574.709 Q 569.752 574.709 568.996 573.952 Q 568.239 573.196 568.239 571.505 L 568.239 513.833 Q 568.239 512.142 568.996 511.385 Q 569.752 510.629 571.443 510.629 L 580.699 510.629 Q 582.39 510.629 583.592 511.163 Q 584.793 511.697 585.95 513.032 L 603.216 532.79 L 603.216 513.833 Q 603.216 512.142 603.973 511.385 Q 604.729 510.629 606.42 510.629 L 619.77 510.629 Q 621.461 510.629 622.218 511.385 Q 622.974 512.142 622.974 513.833 L 622.974 571.505 Q 622.974 573.196 622.218 573.952 Q 621.461 574.709 619.77 574.709 L 606.42 574.709 Q 604.729 574.709 603.973 573.952 Q 603.216 573.196 603.216 571.505 L 603.216 560.558 L 587.997 542.135 L 587.997 571.505 Q 587.997 573.196 587.241 573.952 Q 586.484 574.709 584.793 574.709 Z" style="fill: rgb(65, 61, 81); white-space: pre;"/>
  <path d="M 655.191 574.709 L 637.213 574.709 Q 635.522 574.709 634.766 573.952 Q 634.009 573.196 634.009 571.505 L 634.009 553.438 Q 634.009 551.747 634.766 550.99 Q 635.522 550.234 637.213 550.234 L 655.191 550.234 Q 656.882 550.234 657.639 550.99 Q 658.395 551.747 658.395 553.438 L 658.395 571.505 Q 658.395 573.196 657.639 573.952 Q 656.882 574.709 655.191 574.709 Z" style="fill: rgb(65, 61, 81); white-space: pre;"/>
  <path d="M 712.058 574.709 L 690.342 574.709 Q 679.217 574.709 673.832 570.259 Q 668.448 565.809 668.448 556.553 L 668.448 528.874 Q 668.448 519.618 673.832 515.123 Q 679.217 510.629 690.342 510.629 L 712.058 510.629 Q 713.749 510.629 714.505 511.385 Q 715.262 512.142 715.262 513.833 L 715.262 524.602 Q 715.262 526.293 714.505 527.049 Q 713.749 527.806 712.058 527.806 L 694.169 527.806 Q 691.41 527.806 690.075 528.918 Q 688.74 530.031 688.74 532.256 L 688.74 553.438 Q 688.74 555.663 690.075 556.686 Q 691.41 557.71 694.169 557.71 L 712.058 557.71 Q 713.749 557.71 714.505 558.466 Q 715.262 559.223 715.262 560.914 L 715.262 571.505 Q 715.262 573.196 714.505 573.952 Q 713.749 574.709 712.058 574.709 Z" style="fill: rgb(65, 61, 81); white-space: pre;"/>
  <path d="M 779.154 557.888 Q 779.154 561.982 777.953 565.319 Q 776.751 568.657 773.681 571.015 Q 770.61 573.374 765.226 574.709 Q 759.841 576.044 751.564 576.044 Q 743.287 576.044 737.858 574.709 Q 732.429 573.374 729.359 571.015 Q 726.288 568.657 725.087 565.319 Q 723.885 561.982 723.885 557.888 L 723.885 527.539 Q 723.885 523.445 725.087 520.107 Q 726.288 516.77 729.359 514.367 Q 732.429 511.964 737.858 510.629 Q 743.287 509.294 751.564 509.294 Q 759.841 509.294 765.226 510.629 Q 770.61 511.964 773.681 514.367 Q 776.751 516.77 777.953 520.107 Q 779.154 523.445 779.154 527.539 Z M 744.088 554.684 Q 744.088 556.464 745.423 557.665 Q 746.758 558.867 751.564 558.867 Q 756.37 558.867 757.705 557.665 Q 759.04 556.464 759.04 554.684 L 759.04 530.743 Q 759.04 529.052 757.705 527.85 Q 756.37 526.649 751.564 526.649 Q 746.758 526.649 745.423 527.85 Q 744.088 529.052 744.088 530.743 Z" style="fill: rgb(65, 61, 81); white-space: pre;"/>
  <path d="M 806.923 574.709 L 793.662 574.709 Q 791.971 574.709 791.215 573.952 Q 790.458 573.196 790.458 571.505 L 790.458 513.833 Q 790.458 512.142 791.215 511.385 Q 791.971 510.629 793.662 510.629 L 807.991 510.629 Q 809.415 510.629 810.35 511.252 Q 811.284 511.875 812.085 513.299 L 820.095 527.806 Q 820.54 528.607 820.852 528.963 Q 821.163 529.319 821.697 529.319 L 822.498 529.319 Q 823.032 529.319 823.344 528.963 Q 823.655 528.607 824.1 527.806 L 832.021 513.299 Q 832.822 511.875 833.757 511.252 Q 834.691 510.629 836.115 510.629 L 850.533 510.629 Q 852.224 510.629 852.981 511.385 Q 853.737 512.142 853.737 513.833 L 853.737 571.505 Q 853.737 573.196 852.981 573.952 Q 852.224 574.709 850.533 574.709 L 836.827 574.709 Q 835.136 574.709 834.38 573.952 Q 833.623 573.196 833.623 571.505 L 833.623 540.177 L 828.372 549.878 Q 827.571 551.391 826.459 552.058 Q 825.346 552.726 823.655 552.726 L 820.095 552.726 Q 818.404 552.726 817.292 552.058 Q 816.179 551.391 815.378 549.878 L 810.127 540.177 L 810.127 571.505 Q 810.127 573.196 809.371 573.952 Q 808.614 574.709 806.923 574.709 Z" style="fill: rgb(65, 61, 81); white-space: pre;"/>
  <path d="M 156.959 631.387 C 154.467 631.387 152.303 630.882 150.468 629.871 C 148.633 628.861 147.218 627.363 146.225 625.376 C 145.232 623.389 144.735 620.965 144.735 618.102 C 144.735 613.691 145.77 610.349 147.841 608.076 C 149.912 605.803 152.8 604.666 156.504 604.666 C 159.232 604.666 161.437 605.273 163.121 606.485 C 164.805 607.697 166.025 609.389 166.783 611.561 C 167.541 613.733 167.903 616.267 167.869 619.163 L 147.917 619.163 L 147.766 615.223 L 163.828 615.223 L 162.565 616.486 C 162.464 613.893 161.926 611.999 160.949 610.803 C 159.972 609.608 158.44 609.01 156.353 609.01 C 155.006 609.01 153.861 609.288 152.918 609.844 C 151.975 610.399 151.259 611.342 150.771 612.672 C 150.283 614.003 150.039 615.829 150.039 618.153 C 150.039 620.981 150.695 623.128 152.009 624.593 C 153.322 626.058 155.258 626.79 157.817 626.79 C 158.962 626.79 160.031 626.689 161.025 626.487 C 162.018 626.285 162.936 626.024 163.778 625.704 C 164.62 625.384 165.344 625.073 165.95 624.77 L 165.95 629.669 C 164.771 630.174 163.441 630.587 161.959 630.907 C 160.478 631.227 158.811 631.387 156.959 631.387 Z" style="fill: rgb(65, 61, 81); white-space: pre;"/>
  <path d="M 175.432 607.343 C 176.173 606.973 177.006 606.628 177.932 606.308 C 178.858 605.988 179.843 605.71 180.887 605.475 C 181.931 605.239 182.992 605.054 184.069 604.919 C 185.147 604.784 186.191 604.717 187.201 604.717 C 189.592 604.717 191.545 605.045 193.06 605.702 C 194.576 606.359 195.704 607.369 196.445 608.733 C 197.186 610.096 197.556 611.805 197.556 613.859 L 197.556 630.629 L 192.252 630.629 L 192.252 614.567 C 192.252 613.927 192.177 613.295 192.025 612.672 C 191.873 612.049 191.587 611.477 191.166 610.955 C 190.745 610.433 190.139 610.021 189.348 609.718 C 188.557 609.414 187.521 609.263 186.241 609.263 C 185.332 609.263 184.398 609.347 183.438 609.515 C 182.478 609.684 181.578 609.92 180.736 610.223 L 180.736 630.629 L 175.432 630.629 L 175.432 607.343 Z" style="fill: rgb(65, 61, 81); white-space: pre;"/>
  <path d="M 214.516 630.629 L 203.858 605.273 L 209.515 605.273 L 218.203 626.336 L 216.941 626.487 L 225.022 605.273 L 230.528 605.273 L 219.82 630.629 L 214.516 630.629 Z" style="fill: rgb(65, 61, 81); white-space: pre;"/>
  <path d="M 237.387 630.629 L 237.387 605.424 L 242.69 605.424 L 242.741 630.629 L 237.387 630.629 Z M 237.235 601.232 L 237.235 596.433 L 242.893 596.433 L 242.893 601.232 L 237.235 601.232 Z" style="fill: rgb(65, 61, 81); white-space: pre;"/>
  <path d="M 251.836 630.629 L 251.836 607.596 C 252.274 607.327 253.082 606.956 254.26 606.485 C 255.439 606.013 256.836 605.601 258.453 605.247 C 260.069 604.894 261.702 604.717 263.352 604.717 C 264.194 604.717 264.885 604.784 265.423 604.919 C 265.962 605.054 266.417 605.205 266.787 605.374 L 266.787 609.616 C 266.013 609.515 265.204 609.44 264.363 609.389 C 263.521 609.339 262.679 609.339 261.837 609.389 C 260.995 609.44 260.17 609.515 259.362 609.616 C 258.554 609.718 257.813 609.819 257.14 609.92 L 257.14 630.629 L 251.836 630.629 Z" style="fill: rgb(65, 61, 81); white-space: pre;"/>
  <path d="M 282.883 631.387 C 278.774 631.387 275.719 630.225 273.715 627.901 C 271.711 625.578 270.71 622.261 270.71 617.951 C 270.71 613.371 271.745 610.012 273.816 607.874 C 275.887 605.736 278.875 604.666 282.782 604.666 C 285.577 604.666 287.883 605.18 289.702 606.207 C 291.52 607.234 292.867 608.741 293.743 610.728 C 294.618 612.714 295.056 615.122 295.056 617.951 C 295.056 622.227 294.004 625.536 291.899 627.876 C 289.794 630.217 286.789 631.387 282.883 631.387 Z M 282.832 626.891 C 284.55 626.891 285.913 626.512 286.924 625.755 C 287.934 624.997 288.666 623.945 289.121 622.598 C 289.575 621.251 289.803 619.702 289.803 617.951 C 289.803 615.998 289.567 614.365 289.096 613.051 C 288.624 611.738 287.883 610.753 286.873 610.096 C 285.863 609.44 284.516 609.111 282.832 609.111 C 281.148 609.111 279.802 609.465 278.791 610.172 C 277.781 610.879 277.057 611.889 276.619 613.203 C 276.182 614.516 275.963 616.099 275.963 617.951 C 275.963 620.746 276.485 622.935 277.529 624.517 C 278.572 626.1 280.34 626.891 282.832 626.891 Z" style="fill: rgb(65, 61, 81); white-space: pre;"/>
  <path d="M 302.681 607.343 C 303.422 606.973 304.255 606.628 305.181 606.308 C 306.107 605.988 307.092 605.71 308.136 605.475 C 309.18 605.239 310.241 605.054 311.318 604.919 C 312.396 604.784 313.44 604.717 314.45 604.717 C 316.841 604.717 318.794 605.045 320.309 605.702 C 321.825 606.359 322.953 607.369 323.694 608.733 C 324.434 610.096 324.805 611.805 324.805 613.859 L 324.805 630.629 L 319.501 630.629 L 319.501 614.567 C 319.501 613.927 319.425 613.295 319.274 612.672 C 319.122 612.049 318.836 611.477 318.415 610.955 C 317.994 610.433 317.388 610.021 316.597 609.718 C 315.806 609.414 314.77 609.263 313.49 609.263 C 312.581 609.263 311.647 609.347 310.687 609.515 C 309.727 609.684 308.827 609.92 307.985 610.223 L 307.985 630.629 L 302.681 630.629 L 302.681 607.343 Z" style="fill: rgb(65, 61, 81); white-space: pre;"/>
  <path d="M 355.707 613.859 L 355.707 630.629 L 350.403 630.629 L 350.403 614.567 C 350.403 613.927 350.328 613.295 350.176 612.672 C 350.024 612.049 349.738 611.477 349.317 610.955 C 348.896 610.433 348.29 610.021 347.499 609.718 C 346.708 609.414 345.672 609.263 344.392 609.263 C 343.483 609.263 342.574 609.347 341.665 609.515 C 340.756 609.684 339.88 609.92 339.038 610.223 L 339.038 630.629 L 333.735 630.629 L 333.735 607.343 C 334.475 606.973 335.309 606.628 336.235 606.308 C 337.161 605.988 338.146 605.71 339.19 605.475 C 340.234 605.239 341.294 605.054 342.372 604.919 C 343.45 604.784 344.494 604.717 345.504 604.717 C 347.895 604.717 349.831 605.045 351.312 605.702 C 352.794 606.359 353.897 607.369 354.621 608.733 C 355.345 610.096 355.707 611.805 355.707 613.859 Z M 349.646 608.657 C 350.723 607.781 351.91 607.057 353.207 606.485 C 354.503 605.912 355.85 605.475 357.248 605.172 C 358.645 604.868 360.017 604.717 361.364 604.717 C 363.755 604.717 365.691 605.045 367.173 605.702 C 368.655 606.359 369.757 607.369 370.481 608.733 C 371.205 610.096 371.567 611.805 371.567 613.859 L 371.567 630.629 L 366.264 630.629 L 366.264 614.567 C 366.264 613.927 366.188 613.295 366.036 612.672 C 365.885 612.049 365.599 611.477 365.178 610.955 C 364.757 610.433 364.151 610.021 363.359 609.718 C 362.568 609.414 361.533 609.263 360.253 609.263 C 359.344 609.263 358.435 609.398 357.525 609.667 C 356.616 609.936 355.741 610.357 354.899 610.93 L 349.646 608.657 Z" style="fill: rgb(65, 61, 81); white-space: pre;"/>
  <path d="M 391.407 631.387 C 388.915 631.387 386.751 630.882 384.916 629.871 C 383.081 628.861 381.666 627.363 380.673 625.376 C 379.68 623.389 379.183 620.965 379.183 618.102 C 379.183 613.691 380.218 610.349 382.289 608.076 C 384.36 605.803 387.248 604.666 390.952 604.666 C 393.68 604.666 395.885 605.273 397.569 606.485 C 399.253 607.697 400.473 609.389 401.231 611.561 C 401.989 613.733 402.351 616.267 402.317 619.163 L 382.365 619.163 L 382.214 615.223 L 398.276 615.223 L 397.013 616.486 C 396.912 613.893 396.374 611.999 395.397 610.803 C 394.42 609.608 392.888 609.01 390.8 609.01 C 389.454 609.01 388.309 609.288 387.366 609.844 C 386.423 610.399 385.707 611.342 385.219 612.672 C 384.731 614.003 384.487 615.829 384.487 618.153 C 384.487 620.981 385.143 623.128 386.457 624.593 C 387.77 626.058 389.706 626.79 392.265 626.79 C 393.41 626.79 394.479 626.689 395.473 626.487 C 396.466 626.285 397.384 626.024 398.226 625.704 C 399.067 625.384 399.791 625.073 400.398 624.77 L 400.398 629.669 C 399.219 630.174 397.889 630.587 396.407 630.907 C 394.926 631.227 393.259 631.387 391.407 631.387 Z" style="fill: rgb(65, 61, 81); white-space: pre;"/>
  <path d="M 409.896 607.343 C 410.636 606.973 411.47 606.628 412.396 606.308 C 413.322 605.988 414.307 605.71 415.351 605.475 C 416.395 605.239 417.455 605.054 418.533 604.919 C 419.611 604.784 420.654 604.717 421.665 604.717 C 424.056 604.717 426.009 605.045 427.524 605.702 C 429.039 606.359 430.167 607.369 430.908 608.733 C 431.649 610.096 432.019 611.805 432.019 613.859 L 432.019 630.629 L 426.716 630.629 L 426.716 614.567 C 426.716 613.927 426.64 613.295 426.488 612.672 C 426.337 612.049 426.051 611.477 425.63 610.955 C 425.209 610.433 424.603 610.021 423.811 609.718 C 423.02 609.414 421.985 609.263 420.705 609.263 C 419.796 609.263 418.861 609.347 417.902 609.515 C 416.942 609.684 416.041 609.92 415.199 610.223 L 415.199 630.629 L 409.896 630.629 L 409.896 607.343 Z" style="fill: rgb(65, 61, 81); white-space: pre;"/>
  <path d="M 449.991 631.286 C 447.701 631.286 445.891 630.68 444.561 629.467 C 443.231 628.255 442.566 626.47 442.566 624.113 L 442.566 609.667 L 438.474 609.667 L 438.474 605.273 L 442.566 605.273 L 442.566 598.201 L 448.021 598.201 L 448.021 605.273 L 454.183 605.273 L 454.183 609.667 L 448.021 609.667 L 448.021 623.052 C 448.021 624.231 448.231 625.115 448.652 625.704 C 449.073 626.294 449.856 626.588 451.001 626.588 C 451.573 626.588 452.146 626.512 452.718 626.361 C 453.291 626.209 453.779 626.016 454.183 625.78 L 454.183 630.478 C 453.577 630.747 452.895 630.949 452.137 631.084 C 451.38 631.218 450.664 631.286 449.991 631.286 Z" style="fill: rgb(65, 61, 81); white-space: pre;"/>
  <path d="M 498.767 630.629 L 482.906 611.536 C 482.166 610.627 481.433 609.549 480.709 608.303 C 479.985 607.057 479.623 605.828 479.623 604.616 C 479.623 603.134 480.027 601.779 480.835 600.55 C 481.644 599.321 482.73 598.336 484.093 597.595 C 485.457 596.854 486.981 596.484 488.665 596.484 C 490.348 596.484 491.838 596.82 493.135 597.494 C 494.431 598.167 495.458 599.093 496.216 600.272 C 496.974 601.451 497.353 602.764 497.353 604.212 C 497.353 605.592 497.041 606.779 496.418 607.773 C 495.795 608.766 494.928 609.675 493.817 610.5 C 492.705 611.325 491.392 612.193 489.877 613.102 L 487.654 610.021 C 489.001 609.28 490.012 608.606 490.685 608 C 491.359 607.394 491.805 606.813 492.024 606.258 C 492.242 605.702 492.352 605.155 492.352 604.616 C 492.352 603.606 492.007 602.781 491.316 602.141 C 490.626 601.501 489.759 601.181 488.715 601.181 C 487.671 601.181 486.787 601.526 486.063 602.217 C 485.339 602.907 484.977 603.74 484.977 604.717 C 484.977 605.155 485.154 605.677 485.508 606.283 C 485.861 606.889 486.265 607.503 486.72 608.126 C 487.175 608.749 487.604 609.297 488.008 609.768 L 505.434 630.629 L 498.767 630.629 Z M 486.947 631.134 C 485.129 631.134 483.546 630.848 482.199 630.275 C 480.852 629.703 479.749 628.937 478.891 627.977 C 478.032 627.018 477.384 625.982 476.946 624.871 C 476.508 623.76 476.289 622.682 476.289 621.638 C 476.289 620.527 476.517 619.374 476.971 618.178 C 477.426 616.983 478.217 615.796 479.345 614.617 C 480.473 613.438 482.031 612.344 484.018 611.334 L 487.351 614.314 C 485.903 615.122 484.784 615.956 483.992 616.814 C 483.201 617.673 482.654 618.481 482.351 619.239 C 482.048 619.997 481.896 620.678 481.896 621.285 C 481.896 621.689 481.972 622.185 482.123 622.775 C 482.275 623.364 482.553 623.953 482.957 624.542 C 483.361 625.132 483.95 625.62 484.725 626.007 C 485.499 626.395 486.493 626.588 487.705 626.588 C 489.052 626.588 490.331 626.226 491.544 625.502 C 492.756 624.778 493.733 624.012 494.473 623.204 L 497.302 626.588 C 496.561 627.396 495.694 628.146 494.701 628.836 C 493.707 629.526 492.562 630.082 491.266 630.503 C 489.969 630.924 488.53 631.134 486.947 631.134 Z M 496.645 620.83 C 497.049 620.19 497.386 619.525 497.656 618.835 C 497.925 618.144 498.144 617.513 498.312 616.941 C 498.481 616.368 498.598 615.947 498.666 615.678 L 502.959 615.678 C 502.757 616.823 502.362 618.144 501.772 619.643 C 501.183 621.141 500.451 622.581 499.575 623.962 L 496.645 620.83 Z" style="fill: rgb(65, 61, 81); white-space: pre;"/>
  <path d="M 535.468 631.387 C 533.65 631.387 532.109 631.193 530.846 630.806 C 529.583 630.419 528.346 629.939 527.134 629.366 L 527.134 624.366 C 528.009 624.904 528.868 625.384 529.71 625.805 C 530.552 626.226 531.435 626.555 532.362 626.79 C 533.288 627.026 534.323 627.144 535.468 627.144 C 536.916 627.144 538.052 626.841 538.877 626.235 C 539.702 625.628 540.115 624.871 540.115 623.962 C 540.115 623.187 539.854 622.581 539.332 622.143 C 538.81 621.705 538.145 621.335 537.337 621.032 C 536.529 620.729 535.687 620.426 534.811 620.123 C 533.902 619.887 532.993 619.609 532.084 619.289 C 531.175 618.969 530.341 618.532 529.583 617.976 C 528.826 617.42 528.22 616.705 527.765 615.829 C 527.31 614.954 527.083 613.876 527.083 612.597 C 527.083 611.182 527.369 609.978 527.942 608.985 C 528.514 607.992 529.264 607.184 530.19 606.561 C 531.116 605.938 532.143 605.483 533.271 605.197 C 534.399 604.911 535.502 604.767 536.579 604.767 C 538.364 604.801 539.82 605.02 540.948 605.424 C 542.076 605.828 543.179 606.316 544.257 606.889 L 544.307 611.435 C 543.095 610.795 541.95 610.239 540.873 609.768 C 539.795 609.297 538.549 609.061 537.135 609.061 C 535.822 609.061 534.727 609.305 533.852 609.793 C 532.976 610.282 532.538 610.997 532.538 611.94 C 532.538 612.748 532.782 613.388 533.271 613.859 C 533.759 614.331 534.399 614.701 535.19 614.971 C 535.981 615.24 536.832 615.509 537.741 615.779 C 538.583 616.048 539.458 616.326 540.368 616.612 C 541.277 616.898 542.119 617.311 542.893 617.85 C 543.668 618.389 544.299 619.096 544.787 619.971 C 545.276 620.847 545.52 621.992 545.52 623.406 C 545.486 625.292 544.989 626.824 544.03 628.002 C 543.07 629.181 541.815 630.04 540.266 630.579 C 538.717 631.117 537.118 631.387 535.468 631.387 Z" style="fill: rgb(65, 61, 81); white-space: pre;"/>
  <path d="M 564.416 631.387 C 562.092 631.387 560.097 631.008 558.43 630.25 C 556.763 629.493 555.475 628.356 554.566 626.841 C 553.657 625.325 553.202 623.44 553.202 621.184 L 553.202 605.273 L 558.506 605.273 L 558.506 620.426 C 558.506 622.581 558.986 624.172 559.945 625.199 C 560.905 626.226 562.395 626.74 564.416 626.74 C 566.436 626.74 567.926 626.226 568.886 625.199 C 569.846 624.172 570.325 622.581 570.325 620.426 L 570.325 605.273 L 575.427 605.273 L 575.427 621.184 C 575.427 624.551 574.459 627.093 572.523 628.811 C 570.586 630.528 567.884 631.387 564.416 631.387 Z" style="fill: rgb(65, 61, 81); white-space: pre;"/>
  <path d="M 591.671 631.387 C 589.853 631.387 588.312 631.193 587.049 630.806 C 585.787 630.419 584.549 629.939 583.337 629.366 L 583.337 624.366 C 584.212 624.904 585.071 625.384 585.913 625.805 C 586.755 626.226 587.639 626.555 588.565 626.79 C 589.491 627.026 590.526 627.144 591.671 627.144 C 593.119 627.144 594.256 626.841 595.081 626.235 C 595.906 625.628 596.318 624.871 596.318 623.962 C 596.318 623.187 596.057 622.581 595.535 622.143 C 595.013 621.705 594.348 621.335 593.54 621.032 C 592.732 620.729 591.89 620.426 591.015 620.123 C 590.105 619.887 589.196 619.609 588.287 619.289 C 587.378 618.969 586.544 618.532 585.787 617.976 C 585.029 617.42 584.423 616.705 583.968 615.829 C 583.514 614.954 583.286 613.876 583.286 612.597 C 583.286 611.182 583.573 609.978 584.145 608.985 C 584.717 607.992 585.467 607.184 586.393 606.561 C 587.319 605.938 588.346 605.483 589.474 605.197 C 590.602 604.911 591.705 604.767 592.782 604.767 C 594.567 604.801 596.024 605.02 597.152 605.424 C 598.28 605.828 599.383 606.316 600.46 606.889 L 600.511 611.435 C 599.298 610.795 598.153 610.239 597.076 609.768 C 595.998 609.297 594.752 609.061 593.338 609.061 C 592.025 609.061 590.93 609.305 590.055 609.793 C 589.179 610.282 588.742 610.997 588.742 611.94 C 588.742 612.748 588.986 613.388 589.474 613.859 C 589.962 614.331 590.602 614.701 591.393 614.971 C 592.185 615.24 593.035 615.509 593.944 615.779 C 594.786 616.048 595.662 616.326 596.571 616.612 C 597.48 616.898 598.322 617.311 599.096 617.85 C 599.871 618.389 600.502 619.096 600.99 619.971 C 601.479 620.847 601.723 621.992 601.723 623.406 C 601.689 625.292 601.193 626.824 600.233 628.002 C 599.273 629.181 598.019 630.04 596.47 630.579 C 594.921 631.117 593.321 631.387 591.671 631.387 Z" style="fill: rgb(65, 61, 81); white-space: pre;"/>
  <path d="M 618.447 631.286 C 616.157 631.286 614.347 630.68 613.017 629.467 C 611.687 628.255 611.022 626.47 611.022 624.113 L 611.022 609.667 L 606.93 609.667 L 606.93 605.273 L 611.022 605.273 L 611.022 598.201 L 616.477 598.201 L 616.477 605.273 L 622.639 605.273 L 622.639 609.667 L 616.477 609.667 L 616.477 623.052 C 616.477 624.231 616.687 625.115 617.108 625.704 C 617.529 626.294 618.312 626.588 619.457 626.588 C 620.03 626.588 620.602 626.512 621.174 626.361 C 621.747 626.209 622.235 626.016 622.639 625.78 L 622.639 630.478 C 622.033 630.747 621.351 630.949 620.594 631.084 C 619.836 631.218 619.12 631.286 618.447 631.286 Z" style="fill: rgb(65, 61, 81); white-space: pre;"/>
  <path d="M 639.452 631.387 C 638.138 631.387 636.876 631.26 635.663 631.008 C 634.451 630.755 633.348 630.326 632.355 629.72 C 631.362 629.114 630.57 628.28 629.981 627.22 C 629.392 626.159 629.097 624.837 629.097 623.254 C 629.097 621.369 629.467 619.82 630.208 618.607 C 630.949 617.395 632.01 616.486 633.39 615.88 C 634.771 615.274 636.421 614.971 638.34 614.971 C 639.62 614.971 640.773 615.072 641.8 615.274 C 642.828 615.476 643.754 615.754 644.579 616.107 C 645.404 616.461 646.102 616.856 646.675 617.294 L 647.23 620.779 C 646.49 620.274 645.496 619.845 644.25 619.491 C 643.004 619.138 641.657 618.961 640.209 618.961 C 638.29 618.961 636.834 619.298 635.84 619.971 C 634.847 620.645 634.35 621.655 634.35 623.002 C 634.35 624.012 634.636 624.829 635.209 625.452 C 635.781 626.075 636.497 626.529 637.355 626.815 C 638.214 627.102 639.115 627.245 640.058 627.245 C 642.045 627.245 643.509 627.11 644.452 626.841 C 645.395 626.571 645.867 625.948 645.867 624.972 L 645.867 614.365 C 645.867 612.58 645.328 611.275 644.25 610.45 C 643.173 609.625 641.641 609.212 639.654 609.212 C 638.239 609.212 636.775 609.44 635.259 609.894 C 633.744 610.349 632.498 610.98 631.521 611.788 L 631.521 606.838 C 632.464 606.199 633.837 605.685 635.638 605.298 C 637.44 604.911 639.3 604.717 641.22 604.717 C 642.162 604.717 643.114 604.81 644.073 604.995 C 645.033 605.18 645.934 605.466 646.776 605.853 C 647.618 606.241 648.367 606.763 649.024 607.419 C 649.68 608.076 650.194 608.876 650.564 609.819 C 650.935 610.761 651.12 611.873 651.12 613.152 L 651.12 625.275 C 651.12 626.925 650.606 628.196 649.579 629.088 C 648.552 629.981 647.163 630.587 645.412 630.907 C 643.661 631.227 641.674 631.387 639.452 631.387 Z" style="fill: rgb(65, 61, 81); white-space: pre;"/>
  <path d="M 660.204 630.629 L 660.204 605.424 L 665.508 605.424 L 665.558 630.629 L 660.204 630.629 Z M 660.052 601.232 L 660.052 596.433 L 665.71 596.433 L 665.71 601.232 L 660.052 601.232 Z" style="fill: rgb(65, 61, 81); white-space: pre;"/>
  <path d="M 674.638 607.343 C 675.379 606.973 676.213 606.628 677.139 606.308 C 678.065 605.988 679.05 605.71 680.094 605.475 C 681.138 605.239 682.198 605.054 683.276 604.919 C 684.353 604.784 685.397 604.717 686.408 604.717 C 688.798 604.717 690.751 605.045 692.267 605.702 C 693.782 606.359 694.91 607.369 695.651 608.733 C 696.392 610.096 696.762 611.805 696.762 613.859 L 696.762 630.629 L 691.459 630.629 L 691.459 614.567 C 691.459 613.927 691.383 613.295 691.231 612.672 C 691.08 612.049 690.794 611.477 690.373 610.955 C 689.952 610.433 689.346 610.021 688.554 609.718 C 687.763 609.414 686.727 609.263 685.448 609.263 C 684.539 609.263 683.604 609.347 682.644 609.515 C 681.685 609.684 680.784 609.92 679.942 610.223 L 679.942 630.629 L 674.638 630.629 L 674.638 607.343 Z" style="fill: rgb(65, 61, 81); white-space: pre;"/>
  <path d="M 714.885 631.387 C 713.572 631.387 712.309 631.26 711.097 631.008 C 709.884 630.755 708.782 630.326 707.788 629.72 C 706.795 629.114 706.004 628.28 705.414 627.22 C 704.825 626.159 704.53 624.837 704.53 623.254 C 704.53 621.369 704.901 619.82 705.642 618.607 C 706.382 617.395 707.443 616.486 708.824 615.88 C 710.204 615.274 711.854 614.971 713.774 614.971 C 715.053 614.971 716.207 615.072 717.234 615.274 C 718.261 615.476 719.187 615.754 720.012 616.107 C 720.837 616.461 721.536 616.856 722.108 617.294 L 722.664 620.779 C 721.923 620.274 720.93 619.845 719.684 619.491 C 718.438 619.138 717.091 618.961 715.643 618.961 C 713.723 618.961 712.267 619.298 711.274 619.971 C 710.28 620.645 709.783 621.655 709.783 623.002 C 709.783 624.012 710.07 624.829 710.642 625.452 C 711.215 626.075 711.93 626.529 712.789 626.815 C 713.648 627.102 714.548 627.245 715.491 627.245 C 717.478 627.245 718.943 627.11 719.886 626.841 C 720.829 626.571 721.3 625.948 721.3 624.972 L 721.3 614.365 C 721.3 612.58 720.761 611.275 719.684 610.45 C 718.606 609.625 717.074 609.212 715.087 609.212 C 713.673 609.212 712.208 609.44 710.693 609.894 C 709.177 610.349 707.931 610.98 706.955 611.788 L 706.955 606.838 C 707.898 606.199 709.27 605.685 711.071 605.298 C 712.873 604.911 714.734 604.717 716.653 604.717 C 717.596 604.717 718.547 604.81 719.507 604.995 C 720.467 605.18 721.367 605.466 722.209 605.853 C 723.051 606.241 723.8 606.763 724.457 607.419 C 725.114 608.076 725.627 608.876 725.997 609.819 C 726.368 610.761 726.553 611.873 726.553 613.152 L 726.553 625.275 C 726.553 626.925 726.04 628.196 725.013 629.088 C 723.985 629.981 722.596 630.587 720.845 630.907 C 719.094 631.227 717.108 631.387 714.885 631.387 Z" style="fill: rgb(65, 61, 81); white-space: pre;"/>
  <path d="M 746.194 631.387 C 744.814 631.387 743.483 631.303 742.204 631.134 C 740.924 630.966 739.779 630.671 738.769 630.25 C 737.759 629.829 736.959 629.248 736.37 628.508 C 735.78 627.767 735.486 626.807 735.486 625.628 L 735.486 595.12 L 740.739 595.12 L 740.739 608.808 L 739.375 607.091 C 740.015 606.586 740.815 606.165 741.774 605.828 C 742.734 605.491 743.711 605.222 744.704 605.02 C 745.697 604.818 746.548 604.717 747.255 604.717 C 751.094 604.717 753.973 605.853 755.892 608.126 C 757.812 610.399 758.771 613.59 758.771 617.698 C 758.771 620.46 758.409 622.733 757.685 624.517 C 756.961 626.302 756.002 627.691 754.806 628.684 C 753.611 629.678 752.264 630.377 750.765 630.781 C 749.267 631.185 747.743 631.387 746.194 631.387 Z M 745.942 626.79 C 747.928 626.79 749.461 626.386 750.538 625.578 C 751.616 624.77 752.356 623.701 752.761 622.371 C 753.165 621.04 753.367 619.55 753.367 617.9 C 753.367 616.015 753.114 614.432 752.609 613.152 C 752.104 611.873 751.346 610.896 750.336 610.223 C 749.326 609.549 748.029 609.212 746.447 609.212 C 745.571 609.212 744.62 609.33 743.593 609.566 C 742.566 609.802 741.614 610.172 740.739 610.677 L 740.739 624.315 C 740.739 624.989 741.008 625.511 741.547 625.881 C 742.086 626.251 742.751 626.496 743.542 626.613 C 744.334 626.731 745.133 626.79 745.942 626.79 Z" style="fill: rgb(65, 61, 81); white-space: pre;"/>
  <path d="M 766.538 630.629 L 766.538 605.424 L 771.842 605.424 L 771.893 630.629 L 766.538 630.629 Z M 766.387 601.232 L 766.387 596.433 L 772.044 596.433 L 772.044 601.232 L 766.387 601.232 Z" style="fill: rgb(65, 61, 81); white-space: pre;"/>
  <path d="M 786.241 630.629 L 780.987 630.629 L 780.987 595.675 L 786.241 595.675 L 786.241 630.629 Z" style="fill: rgb(65, 61, 81); white-space: pre;"/>
  <path d="M 795.315 630.629 L 795.315 605.424 L 800.619 605.424 L 800.669 630.629 L 795.315 630.629 Z M 795.164 601.232 L 795.164 596.433 L 800.821 596.433 L 800.821 601.232 L 795.164 601.232 Z" style="fill: rgb(65, 61, 81); white-space: pre;"/>
  <path d="M 818.791 631.286 C 816.501 631.286 814.691 630.68 813.361 629.467 C 812.031 628.255 811.366 626.47 811.366 624.113 L 811.366 609.667 L 807.275 609.667 L 807.275 605.273 L 811.366 605.273 L 811.366 598.201 L 816.821 598.201 L 816.821 605.273 L 822.984 605.273 L 822.984 609.667 L 816.821 609.667 L 816.821 623.052 C 816.821 624.231 817.032 625.115 817.453 625.704 C 817.874 626.294 818.656 626.588 819.801 626.588 C 820.374 626.588 820.946 626.512 821.519 626.361 C 822.091 626.209 822.579 626.016 822.984 625.78 L 822.984 630.478 C 822.377 630.747 821.696 630.949 820.938 631.084 C 820.18 631.218 819.465 631.286 818.791 631.286 Z" style="fill: rgb(65, 61, 81); white-space: pre;"/>
  <path d="M 834.543 640.428 C 833.903 640.428 833.297 640.369 832.724 640.251 C 832.152 640.134 831.647 639.99 831.209 639.822 L 831.209 635.276 C 831.613 635.411 832.017 635.529 832.421 635.63 C 832.825 635.731 833.263 635.781 833.735 635.781 C 834.745 635.781 835.587 635.512 836.26 634.973 C 836.934 634.434 837.506 633.66 837.978 632.65 C 838.449 631.639 838.836 630.427 839.139 629.013 L 839.24 631.639 L 828.431 605.273 L 834.442 605.273 L 841.766 625.275 L 841.008 625.275 L 848.231 605.273 L 853.737 605.273 L 843.281 632.195 C 842.439 634.35 841.53 636.025 840.554 637.221 C 839.577 638.416 838.575 639.25 837.548 639.721 C 836.521 640.192 835.519 640.428 834.543 640.428 Z" style="fill: rgb(65, 61, 81); white-space: pre;"/>
</svg>