<?xml version="1.0" encoding="utf-8"?>
<svg viewBox="0 0 1000 700" style="enable-background:new 0 0 1000 1000;" xmlns="http://www.w3.org/2000/svg">
  <defs>
    <style type="text/css">
	.st0{opacity:0.7;fill:#FFFFFF;}
	.st1{fill:#413D51;}
	.st2{fill:#8FE3F9;}
	.st3{fill:#B2EBF9;}
	.st4{fill:#A4E0EA;}
	.st5{fill:#7AD1E5;}
	.st6{fill:none;stroke:#413D51;stroke-width:16;stroke-linecap:round;stroke-linejoin:round;stroke-miterlimit:10;}
	.st7{fill:#F7E8AD;}
	.st8{fill:#F7D6A1;}
	.st9{fill:#EFCA92;}
	.st10{fill:#FFFFFF;}
	.st11{opacity:0.89;fill:#EFCA92;}
	.st12{fill:none;stroke:#413D51;stroke-width:8;stroke-linecap:round;stroke-linejoin:round;stroke-miterlimit:10;}
	.st13{opacity:0.31;fill:none;stroke:#72C8D6;stroke-width:8;stroke-linecap:round;stroke-linejoin:round;stroke-miterlimit:10;}
</style>
  </defs>
  <rect class="st0" width="1000" height="700" style="opacity: 1;"/>
  <g transform="matrix(1, 0, 0, 1, 0, -216)">
    <ellipse id="XMLID_2_" class="st2" cx="501.8" cy="487.5" rx="228" ry="205.8"/>
    <ellipse id="XMLID_188_" class="st2" cx="501.8" cy="487.5" rx="228" ry="205.8"/>
    <path id="XMLID_193_" class="st3" d="M507.8,689.3c52.1,0,100.1-15.3,138.5-41l-10.5-24.7c-22-51.9-74.2-85.8-132.1-85.8l0,0 c-57.9,0-110.1,33.9-132.1,85.8l-8.6,20.4C402.3,672.3,452.8,689.3,507.8,689.3z"/>
    <path id="XMLID_189_" class="st4" d="M501.7,470.3l-43.6,64l32.9,43.8c5.4,7.2,16.3,7.2,21.7,0l32.6-43.8L501.7,470.3z"/>
    <path id="XMLID_192_" class="st5" d="M501.8,669.3c-121.5,0-220.7-85.7-227.6-193.8c-0.3,4-0.4,8-0.4,12 c0,113.6,102.1,205.8,228,205.8s228-92.1,228-205.8c0-4-0.1-8-0.4-12C722.5,583.6,623.2,669.3,501.8,669.3z"/>
    <path id="XMLID_76_" class="st4" d="M638.6,628.1c-38.1,25.8-85.5,41.2-136.8,41.2c-50,0-96.2-14.5-133.7-39.1l-5,12.3 c39.4,29.2,89.8,46.8,144.8,46.8c49.7,0,95.7-14.4,133.2-38.8c1.8-1.2,3.5-2.5,5.3-3.8L638.6,628.1z"/>
    <path id="XMLID_186_" class="st5" d="M268.2,488.2c6.4,13.1,15,25.3,25.8,36.2c52.3,52.3,137.2,52.3,189.5,0 c43.8-43.8,50.9-110.3,21.5-161.5"/>
    <path id="XMLID_185_" class="st5" d="M729,503.8c-24,36.1-65,59.8-111.6,59.8c-74,0-134-60-134-134c0-33,11.9-63.2,31.7-86.6"/>
    <ellipse id="XMLID_75_" class="st6" cx="501.8" cy="487.5" rx="228" ry="205.8"/>
    <polygon id="XMLID_74_" class="st1" points="501.7,442.3 458.1,506.3 501.9,564.6 545.4,506.3 &#9;"/>
    <polygon id="XMLID_73_" class="st6" points="501.7,442.3 458.1,506.3 501.9,564.6 545.4,506.3 &#9;"/>
    <path id="XMLID_72_" class="st1" d="M600.7,303.9c-30-14-64.1-21.9-100-21.9s-70,7.9-100,21.9v140.1h200V303.9z"/>
    <g id="XMLID_58_">
      <path id="XMLID_71_" class="st1" d="M613.5,317.9l108.7-3.3c-15.7,39.3-17.8,98.4-4.1,163c-17.4,36.8-54.4,62.9-97.9,64.2l0,0 c-61.8,1.9-113.5-46.7-115.3-108.6l0,0C503,371.4,551.6,319.8,613.5,317.9z"/>
      <path id="XMLID_70_" class="st6" d="M613.5,317.9l108.7-3.3c-15.7,39.3-17.8,98.4-4.1,163c-17.4,36.8-54.4,62.9-97.9,64.2l0,0 c-61.8,1.9-113.5-46.7-115.3-108.6l0,0C503,371.4,551.6,319.8,613.5,317.9z"/>
      <circle id="XMLID_69_" class="st7" cx="617.4" cy="429.7" r="112"/>
      <circle id="XMLID_5_" class="st7" cx="617.4" cy="429.7" r="112"/>
      <path id="XMLID_86_" class="st8" d="M696.6,350.5c-21.5-21.5-49.7-32.4-77.9-32.8c21.2,4.1,41.5,14.3,57.9,30.8 c43.7,43.7,43.7,114.6,0,158.4c-22.2,22.2-51.4,33.1-80.4,32.8c35.3,6.8,73.1-3.5,100.4-30.8C740.3,465.1,740.3,394.2,696.6,350.5 z"/>
      <ellipse id="XMLID_3_" transform="matrix(0.7071 -0.7071 0.7071 0.7071 -130.8246 543.5441)" class="st0" cx="590.7" cy="429.7" rx="84" ry="84.6"/>
      <path id="XMLID_12_" class="st9" d="M711.4,376.6c-3.1-4-9.1-15-12.8-18.7c-44-43.4-114.9-43-158.3,1.1 c-8.6,8.7-15.5,18.5-20.6,29C581.4,366.3,649,371.5,711.4,376.6z"/>
      <circle id="XMLID_68_" class="st6" cx="617.4" cy="429.7" r="112"/>
      <circle id="XMLID_67_" class="st6" cx="617.4" cy="429.7" r="112"/>
      <path id="XMLID_66_" class="st1" d="M706.7,362.1c-3.1-4-6.4-7.9-10.1-11.6c-43.7-43.7-114.6-43.7-158.4,0 c-8.7,8.7-15.6,18.4-20.8,28.8C579.4,358.1,644.3,356.5,706.7,362.1z"/>
      <circle id="XMLID_57_" class="st1" cx="562.9" cy="438.1" r="42"/>
      <circle id="XMLID_56_" class="st10" cx="539.1" cy="438.4" r="14"/>
    </g>
    <g id="XMLID_26_">
      <path id="XMLID_89_" class="st1" d="M388.8,317.9L280,314.6c15.7,39.3,17.8,98.4,4.1,163c17.4,36.8,54.4,62.9,97.9,64.2l0,0 c61.8,1.9,113.5-46.7,115.3-108.6l0,0C499.2,371.4,450.6,319.8,388.8,317.9z"/>
      <path id="XMLID_88_" class="st6" d="M388.8,317.9L280,314.6c15.7,39.3,17.8,98.4,4.1,163c17.4,36.8,54.4,62.9,97.9,64.2l0,0 c61.8,1.9,113.5-46.7,115.3-108.6l0,0C499.2,371.4,450.6,319.8,388.8,317.9z"/>
      <circle id="XMLID_87_" class="st7" cx="384.8" cy="429.7" r="112"/>
      <circle id="XMLID_84_" class="st7" cx="384.8" cy="429.7" r="112"/>
      <path id="XMLID_65_" class="st8" d="M305.6,350.5c21.5-21.5,49.7-32.4,77.9-32.8c-21.2,4.1-41.5,14.3-57.9,30.8 c-43.7,43.7-43.7,114.6,0,158.4c22.2,22.2,51.4,33.1,80.4,32.8c-35.3,6.8-73.1-3.5-100.4-30.8 C261.9,465.1,261.9,394.2,305.6,350.5z"/>
      <ellipse id="XMLID_64_" transform="matrix(0.7071 -0.7071 0.7071 0.7071 -183.3021 416.8521)" class="st0" cx="411.5" cy="429.7" rx="84.6" ry="84"/>
      <path id="XMLID_63_" class="st11" d="M290.9,376.6c3.1-4,9.1-15,12.8-18.7c44-43.4,114.9-43,158.3,1.1c8.6,8.7,15.5,18.5,20.6,29 C420.8,366.3,353.2,371.5,290.9,376.6z"/>
      <circle id="XMLID_62_" class="st6" cx="384.8" cy="429.7" r="112"/>
      <circle id="XMLID_61_" class="st6" cx="384.8" cy="429.7" r="112"/>
      <path id="XMLID_60_" class="st1" d="M295.6,362.1c3.1-4,6.4-7.9,10.1-11.6c43.7-43.7,114.6-43.7,158.4,0 c8.7,8.7,15.6,18.4,20.8,28.8C422.9,358.1,357.9,356.5,295.6,362.1z"/>
      <circle id="XMLID_59_" class="st1" cx="439.4" cy="438.1" r="42"/>
      <circle id="XMLID_37_" class="st10" cx="463.2" cy="438.4" r="14"/>
    </g>
    <path id="XMLID_19_" class="st1" d="M447.9,718.3L447.9,718.3c-8.8,0-16-7.2-16-16v-18c0-8.8,7.2-16,16-16h0c8.8,0,16,7.2,16,16v18 C463.9,711.1,456.8,718.3,447.9,718.3z"/>
    <path id="XMLID_17_" class="st1" d="M415.9,718.3L415.9,718.3c-8.8,0-16-7.2-16-16v-18c0-8.8,7.2-16,16-16h0c8.8,0,16,7.2,16,16v18 C431.9,711.1,424.8,718.3,415.9,718.3z"/>
    <path id="XMLID_16_" class="st1" d="M479.7,718.3L479.7,718.3c-8.8,0-16-7.2-16-16v-18c0-8.8,7.2-16,16-16h0c8.8,0,16,7.2,16,16v18 C495.7,711.1,488.5,718.3,479.7,718.3z"/>
    <path id="XMLID_15_" class="st1" d="M521.9,718.3L521.9,718.3c-8.8,0-16-7.2-16-16v-18c0-8.8,7.2-16,16-16h0c8.8,0,16,7.2,16,16v18 C537.9,711.1,530.7,718.3,521.9,718.3z"/>
    <path id="XMLID_14_" class="st1" d="M553.7,718.3L553.7,718.3c-8.8,0-16-7.2-16-16v-18c0-8.8,7.2-16,16-16h0c8.8,0,16,7.2,16,16v18 C569.7,711.1,562.5,718.3,553.7,718.3z"/>
    <path id="XMLID_13_" class="st1" d="M585.7,718.3L585.7,718.3c-8.8,0-16-7.2-16-16v-18c0-8.8,7.2-16,16-16h0c8.8,0,16,7.2,16,16v18 C601.7,711.1,594.5,718.3,585.7,718.3z"/>
    <path id="XMLID_11_" class="st12" d="M491.9,587.6c0,8.4-6.8,15.2-15.2,15.2c-8.4,0-15.2-6.8-15.2-15.2"/>
    <path id="XMLID_9_" class="st12" d="M538.4,587.6c0,8.4-6.8,15.2-15.2,15.2c-8.4,0-15.2-6.8-15.2-15.2"/>
    <path id="XMLID_10_" class="st13" d="M323,548.8c-2.2,4.7-7.7,6.8-12.5,4.6s-6.8-7.7-4.6-12.5"/>
    <path id="XMLID_1_" class="st13" d="M352.8,564.3c-2.2,4.7-7.7,6.8-12.5,4.6c-4.7-2.2-6.8-7.7-4.6-12.5"/>
    <path id="XMLID_78_" class="st13" d="M335.5,576.2c-2.2,4.7-7.7,6.8-12.5,4.6c-4.7-2.2-6.8-7.7-4.6-12.5"/>
    <path id="XMLID_77_" class="st13" d="M361.7,596.1c-2.2,4.7-7.7,6.8-12.5,4.6c-4.7-2.2-6.8-7.7-4.6-12.5"/>
    <path id="XMLID_79_" class="st13" d="M381.7,578.1c-2.2,4.7-7.7,6.8-12.5,4.6c-4.7-2.2-6.8-7.7-4.6-12.5"/>
    <path id="XMLID_85_" class="st13" d="M683.7,550.8c2.2,4.7,7.7,6.8,12.5,4.6s6.8-7.7,4.6-12.5"/>
    <path id="XMLID_83_" class="st13" d="M654,566.3c2.2,4.7,7.7,6.8,12.5,4.6c4.7-2.2,6.8-7.7,4.6-12.5"/>
    <path id="XMLID_82_" class="st13" d="M671.2,578.2c2.2,4.7,7.7,6.8,12.5,4.6c4.7-2.2,6.8-7.7,4.6-12.5"/>
    <path id="XMLID_81_" class="st13" d="M645.1,598.1c2.2,4.7,7.7,6.8,12.5,4.6c4.7-2.2,6.8-7.7,4.6-12.5"/>
    <path id="XMLID_80_" class="st13" d="M625.1,580.1c2.2,4.7,7.7,6.8,12.5,4.6c4.7-2.2,6.8-7.7,4.6-12.5"/>
    <path id="XMLID_8_" class="st12" d="M468.7,624.1c0,8.4-6.8,15.2-15.2,15.2c-8.4,0-15.2-6.8-15.2-15.2"/>
    <path id="XMLID_7_" class="st12" d="M515.2,624.1c0,8.4-6.8,15.2-15.2,15.2s-15.2-6.8-15.2-15.2"/>
    <path id="XMLID_6_" class="st12" d="M561.7,624.1c0,8.4-6.8,15.2-15.2,15.2c-8.4,0-15.2-6.8-15.2-15.2"/>
  </g>
  <path d="M 162.934 565.709 L 149.584 565.709 Q 147.893 565.709 147.136 564.952 Q 146.38 564.196 146.38 562.505 L 146.38 504.833 Q 146.38 503.142 147.136 502.385 Q 147.893 501.629 149.584 501.629 L 158.84 501.629 Q 160.531 501.629 161.732 502.163 Q 162.934 502.697 164.091 504.032 L 181.357 523.79 L 181.357 504.833 Q 181.357 503.142 182.113 502.385 Q 182.87 501.629 184.561 501.629 L 197.911 501.629 Q 199.602 501.629 200.358 502.385 Q 201.115 503.142 201.115 504.833 L 201.115 562.505 Q 201.115 564.196 200.358 564.952 Q 199.602 565.709 197.911 565.709 L 184.561 565.709 Q 182.87 565.709 182.113 564.952 Q 181.357 564.196 181.357 562.505 L 181.357 551.558 L 166.138 533.135 L 166.138 562.505 Q 166.138 564.196 165.381 564.952 Q 164.625 565.709 162.934 565.709 Z" style="fill: rgb(65, 61, 81); white-space: pre;"/>
  <path d="M 243.122 565.709 L 214.998 565.709 Q 213.307 565.709 212.55 564.952 Q 211.794 564.196 211.794 562.505 L 211.794 552.092 Q 211.794 550.401 212.55 549.644 Q 213.307 548.888 214.998 548.888 L 238.939 548.888 Q 240.096 548.888 240.674 548.131 Q 241.253 547.375 241.253 546.307 Q 241.253 544.794 240.674 544.082 Q 240.096 543.37 238.939 543.281 L 225.589 541.412 Q 219.359 540.522 215.576 537.318 Q 211.794 534.114 211.794 526.638 L 211.794 517.293 Q 211.794 509.728 216.689 505.678 Q 221.584 501.629 230.217 501.629 L 255.137 501.629 Q 256.828 501.629 257.584 502.385 Q 258.341 503.142 258.341 504.833 L 258.341 515.424 Q 258.341 517.115 257.584 517.871 Q 256.828 518.628 255.137 518.628 L 234.4 518.628 Q 233.243 518.628 232.62 519.384 Q 231.997 520.141 231.997 521.298 Q 231.997 522.455 232.62 523.256 Q 233.243 524.057 234.4 524.146 L 247.661 525.926 Q 253.891 526.816 257.718 530.02 Q 261.545 533.224 261.545 540.7 L 261.545 550.045 Q 261.545 557.61 256.605 561.659 Q 251.666 565.709 243.122 565.709 Z" style="fill: rgb(65, 61, 81); white-space: pre;"/>
  <path d="M 325.796 548.888 Q 325.796 552.982 324.595 556.319 Q 323.393 559.657 320.323 562.015 Q 317.252 564.374 311.912 565.709 Q 306.572 567.044 298.295 567.044 Q 290.018 567.044 284.678 565.709 Q 279.338 564.374 276.268 562.015 Q 273.197 559.657 271.996 556.319 Q 270.794 552.982 270.794 548.888 L 270.794 504.833 Q 270.794 503.142 271.551 502.385 Q 272.307 501.629 273.998 501.629 L 287.971 501.629 Q 289.662 501.629 290.419 502.385 Q 291.175 503.142 291.175 504.833 L 291.175 545.417 Q 291.175 547.197 292.51 548.398 Q 293.845 549.6 298.473 549.6 Q 303.19 549.6 304.525 548.398 Q 305.86 547.197 305.86 545.417 L 305.86 504.833 Q 305.86 503.142 306.617 502.385 Q 307.373 501.629 309.064 501.629 L 322.592 501.629 Q 324.283 501.629 325.04 502.385 Q 325.796 503.142 325.796 504.833 Z" style="fill: rgb(65, 61, 81); white-space: pre;"/>
  <path d="M 367.356 565.709 L 339.232 565.709 Q 337.541 565.709 336.785 564.952 Q 336.028 564.196 336.028 562.505 L 336.028 552.092 Q 336.028 550.401 336.785 549.644 Q 337.541 548.888 339.232 548.888 L 363.173 548.888 Q 364.33 548.888 364.909 548.131 Q 365.487 547.375 365.487 546.307 Q 365.487 544.794 364.909 544.082 Q 364.33 543.37 363.173 543.281 L 349.823 541.412 Q 343.593 540.522 339.811 537.318 Q 336.028 534.114 336.028 526.638 L 336.028 517.293 Q 336.028 509.728 340.923 505.678 Q 345.818 501.629 354.451 501.629 L 379.371 501.629 Q 381.062 501.629 381.819 502.385 Q 382.575 503.142 382.575 504.833 L 382.575 515.424 Q 382.575 517.115 381.819 517.871 Q 381.062 518.628 379.371 518.628 L 358.634 518.628 Q 357.477 518.628 356.854 519.384 Q 356.231 520.141 356.231 521.298 Q 356.231 522.455 356.854 523.256 Q 357.477 524.057 358.634 524.146 L 371.895 525.926 Q 378.125 526.816 381.952 530.02 Q 385.779 533.224 385.779 540.7 L 385.779 550.045 Q 385.779 557.61 380.84 561.659 Q 375.9 565.709 367.356 565.709 Z" style="fill: rgb(65, 61, 81); white-space: pre;"/>
  <path d="M 424.859 565.709 L 410.441 565.709 Q 408.75 565.709 407.993 564.952 Q 407.237 564.196 407.237 562.505 L 407.237 518.806 L 394.154 518.806 Q 392.463 518.806 391.706 518.049 Q 390.95 517.293 390.95 515.602 L 390.95 504.833 Q 390.95 503.142 391.706 502.385 Q 392.463 501.629 394.154 501.629 L 441.146 501.629 Q 442.837 501.629 443.593 502.385 Q 444.35 503.142 444.35 504.833 L 444.35 515.602 Q 444.35 517.293 443.593 518.049 Q 442.837 518.806 441.146 518.806 L 428.063 518.806 L 428.063 562.505 Q 428.063 564.196 427.306 564.952 Q 426.55 565.709 424.859 565.709 Z" style="fill: rgb(65, 61, 81); white-space: pre;"/>
  <path d="M 472.64 520.319 L 468.457 533.847 L 482.43 533.847 L 478.247 520.319 Q 477.891 519.518 477.491 519.162 Q 477.09 518.806 476.556 518.806 L 474.331 518.806 Q 473.797 518.806 473.397 519.162 Q 472.996 519.518 472.64 520.319 Z M 467.567 562.505 Q 467.567 564.196 466.811 564.952 Q 466.054 565.709 464.363 565.709 L 451.28 565.709 Q 449.589 565.709 448.833 564.952 Q 448.076 564.196 448.076 562.505 L 448.076 539.009 Q 448.076 536.339 448.922 532.868 Q 449.767 529.397 451.547 524.769 L 459.29 504.566 Q 459.824 503.053 460.937 502.341 Q 462.049 501.629 463.829 501.629 L 487.77 501.629 Q 489.461 501.629 490.574 502.341 Q 491.686 503.053 492.22 504.566 L 499.963 524.769 Q 501.743 529.397 502.589 532.868 Q 503.434 536.339 503.434 539.009 L 503.434 562.505 Q 503.434 564.196 502.678 564.952 Q 501.921 565.709 500.23 565.709 L 486.791 565.709 Q 485.011 565.709 484.166 564.952 Q 483.32 564.196 483.32 562.505 L 483.32 550.045 L 467.567 550.045 Z" style="fill: rgb(65, 61, 81); white-space: pre;"/>
  <path d="M 516.16 565.709 Q 514.469 565.709 513.713 564.952 Q 512.956 564.196 512.956 562.505 L 512.956 551.914 Q 512.956 550.223 513.713 549.466 Q 514.469 548.71 516.16 548.71 L 524.971 548.71 L 524.971 518.806 L 516.16 518.806 Q 514.469 518.806 513.713 518.049 Q 512.956 517.293 512.956 515.602 L 512.956 504.833 Q 512.956 503.142 513.713 502.385 Q 514.469 501.629 516.16 501.629 L 554.074 501.629 Q 555.765 501.629 556.522 502.385 Q 557.278 503.142 557.278 504.833 L 557.278 515.602 Q 557.278 517.293 556.522 518.049 Q 555.765 518.806 554.074 518.806 L 545.441 518.806 L 545.441 548.71 L 554.074 548.71 Q 555.765 548.71 556.522 549.466 Q 557.278 550.223 557.278 551.914 L 557.278 562.505 Q 557.278 564.196 556.522 564.952 Q 555.765 565.709 554.074 565.709 Z" style="fill: rgb(65, 61, 81); white-space: pre;"/>
  <path d="M 584.793 565.709 L 571.443 565.709 Q 569.752 565.709 568.996 564.952 Q 568.239 564.196 568.239 562.505 L 568.239 504.833 Q 568.239 503.142 568.996 502.385 Q 569.752 501.629 571.443 501.629 L 580.699 501.629 Q 582.39 501.629 583.592 502.163 Q 584.793 502.697 585.95 504.032 L 603.216 523.79 L 603.216 504.833 Q 603.216 503.142 603.973 502.385 Q 604.729 501.629 606.42 501.629 L 619.77 501.629 Q 621.461 501.629 622.218 502.385 Q 622.974 503.142 622.974 504.833 L 622.974 562.505 Q 622.974 564.196 622.218 564.952 Q 621.461 565.709 619.77 565.709 L 606.42 565.709 Q 604.729 565.709 603.973 564.952 Q 603.216 564.196 603.216 562.505 L 603.216 551.558 L 587.997 533.135 L 587.997 562.505 Q 587.997 564.196 587.241 564.952 Q 586.484 565.709 584.793 565.709 Z" style="fill: rgb(65, 61, 81); white-space: pre;"/>
  <path d="M 655.191 565.709 L 637.213 565.709 Q 635.522 565.709 634.766 564.952 Q 634.009 564.196 634.009 562.505 L 634.009 544.438 Q 634.009 542.747 634.766 541.99 Q 635.522 541.234 637.213 541.234 L 655.191 541.234 Q 656.882 541.234 657.639 541.99 Q 658.395 542.747 658.395 544.438 L 658.395 562.505 Q 658.395 564.196 657.639 564.952 Q 656.882 565.709 655.191 565.709 Z" style="fill: rgb(65, 61, 81); white-space: pre;"/>
  <path d="M 712.058 565.709 L 690.342 565.709 Q 679.217 565.709 673.832 561.259 Q 668.448 556.809 668.448 547.553 L 668.448 519.874 Q 668.448 510.618 673.832 506.123 Q 679.217 501.629 690.342 501.629 L 712.058 501.629 Q 713.749 501.629 714.505 502.385 Q 715.262 503.142 715.262 504.833 L 715.262 515.602 Q 715.262 517.293 714.505 518.049 Q 713.749 518.806 712.058 518.806 L 694.169 518.806 Q 691.41 518.806 690.075 519.918 Q 688.74 521.031 688.74 523.256 L 688.74 544.438 Q 688.74 546.663 690.075 547.686 Q 691.41 548.71 694.169 548.71 L 712.058 548.71 Q 713.749 548.71 714.505 549.466 Q 715.262 550.223 715.262 551.914 L 715.262 562.505 Q 715.262 564.196 714.505 564.952 Q 713.749 565.709 712.058 565.709 Z" style="fill: rgb(65, 61, 81); white-space: pre;"/>
  <path d="M 779.154 548.888 Q 779.154 552.982 777.953 556.319 Q 776.751 559.657 773.681 562.015 Q 770.61 564.374 765.226 565.709 Q 759.841 567.044 751.564 567.044 Q 743.287 567.044 737.858 565.709 Q 732.429 564.374 729.359 562.015 Q 726.288 559.657 725.087 556.319 Q 723.885 552.982 723.885 548.888 L 723.885 518.539 Q 723.885 514.445 725.087 511.107 Q 726.288 507.77 729.359 505.367 Q 732.429 502.964 737.858 501.629 Q 743.287 500.294 751.564 500.294 Q 759.841 500.294 765.226 501.629 Q 770.61 502.964 773.681 505.367 Q 776.751 507.77 777.953 511.107 Q 779.154 514.445 779.154 518.539 Z M 744.088 545.684 Q 744.088 547.464 745.423 548.665 Q 746.758 549.867 751.564 549.867 Q 756.37 549.867 757.705 548.665 Q 759.04 547.464 759.04 545.684 L 759.04 521.743 Q 759.04 520.052 757.705 518.85 Q 756.37 517.649 751.564 517.649 Q 746.758 517.649 745.423 518.85 Q 744.088 520.052 744.088 521.743 Z" style="fill: rgb(65, 61, 81); white-space: pre;"/>
  <path d="M 806.923 565.709 L 793.662 565.709 Q 791.971 565.709 791.215 564.952 Q 790.458 564.196 790.458 562.505 L 790.458 504.833 Q 790.458 503.142 791.215 502.385 Q 791.971 501.629 793.662 501.629 L 807.991 501.629 Q 809.415 501.629 810.35 502.252 Q 811.284 502.875 812.085 504.299 L 820.095 518.806 Q 820.54 519.607 820.852 519.963 Q 821.163 520.319 821.697 520.319 L 822.498 520.319 Q 823.032 520.319 823.344 519.963 Q 823.655 519.607 824.1 518.806 L 832.021 504.299 Q 832.822 502.875 833.757 502.252 Q 834.691 501.629 836.115 501.629 L 850.533 501.629 Q 852.224 501.629 852.981 502.385 Q 853.737 503.142 853.737 504.833 L 853.737 562.505 Q 853.737 564.196 852.981 564.952 Q 852.224 565.709 850.533 565.709 L 836.827 565.709 Q 835.136 565.709 834.38 564.952 Q 833.623 564.196 833.623 562.505 L 833.623 531.177 L 828.372 540.878 Q 827.571 542.391 826.459 543.058 Q 825.346 543.726 823.655 543.726 L 820.095 543.726 Q 818.404 543.726 817.292 543.058 Q 816.179 542.391 815.378 540.878 L 810.127 531.177 L 810.127 562.505 Q 810.127 564.196 809.371 564.952 Q 808.614 565.709 806.923 565.709 Z" style="fill: rgb(65, 61, 81); white-space: pre;"/>
  <path d="M 157.319 622.788 Q 153.471 622.788 150.637 621.228 Q 147.803 619.668 146.269 616.6 Q 144.735 613.532 144.735 609.112 Q 144.735 602.3 147.933 598.79 Q 151.131 595.28 156.851 595.28 Q 161.063 595.28 163.663 597.152 Q 166.263 599.024 167.433 602.378 Q 168.603 605.732 168.551 610.204 L 148.011 610.204 L 147.855 606.148 L 164.391 606.148 L 163.091 607.448 Q 162.935 603.444 161.427 601.598 Q 159.919 599.752 156.695 599.752 Q 154.615 599.752 153.159 600.61 Q 151.703 601.468 150.949 603.522 Q 150.195 605.576 150.195 609.164 Q 150.195 613.532 152.223 615.794 Q 154.251 618.056 158.203 618.056 Q 159.971 618.056 161.505 617.744 Q 163.039 617.432 164.339 616.938 Q 165.639 616.444 166.575 615.976 L 166.575 621.02 Q 164.755 621.8 162.467 622.294 Q 160.179 622.788 157.319 622.788 Z" style="fill: rgb(65, 61, 81); white-space: pre;"/>
  <path d="M 176.337 598.036 Q 177.481 597.464 178.911 596.97 Q 180.341 596.476 181.953 596.112 Q 183.565 595.748 185.229 595.54 Q 186.893 595.332 188.453 595.332 Q 192.145 595.332 194.485 596.346 Q 196.825 597.36 197.969 599.466 Q 199.113 601.572 199.113 604.744 L 199.113 622.008 L 193.653 622.008 L 193.653 605.472 Q 193.653 604.484 193.419 603.522 Q 193.185 602.56 192.535 601.754 Q 191.885 600.948 190.663 600.48 Q 189.441 600.012 187.465 600.012 Q 186.061 600.012 184.579 600.272 Q 183.097 600.532 181.797 601 L 181.797 622.008 L 176.337 622.008 Z" style="fill: rgb(65, 61, 81); white-space: pre;"/>
  <path d="M 216.573 622.008 L 205.601 595.904 L 211.425 595.904 L 220.369 617.588 L 219.069 617.744 L 227.389 595.904 L 233.057 595.904 L 222.033 622.008 Z" style="fill: rgb(65, 61, 81); white-space: pre;"/>
  <path d="M 240.118 622.008 L 240.118 596.06 L 245.578 596.06 L 245.63 622.008 Z M 239.962 591.744 L 239.962 586.804 L 245.786 586.804 L 245.786 591.744 Z" style="fill: rgb(65, 61, 81); white-space: pre;"/>
  <path d="M 254.993 622.008 L 254.993 598.296 Q 255.669 597.88 257.489 597.152 Q 259.309 596.424 261.805 595.878 Q 264.301 595.332 266.849 595.332 Q 268.149 595.332 268.981 595.54 Q 269.813 595.748 270.385 596.008 L 270.385 600.376 Q 269.189 600.22 267.889 600.142 Q 266.589 600.064 265.289 600.142 Q 263.989 600.22 262.741 600.376 Q 261.493 600.532 260.453 600.688 L 260.453 622.008 Z" style="fill: rgb(65, 61, 81); white-space: pre;"/>
  <path d="M 286.955 622.788 Q 280.611 622.788 277.517 619.2 Q 274.423 615.612 274.423 608.956 Q 274.423 601.884 277.621 598.582 Q 280.819 595.28 286.851 595.28 Q 291.167 595.28 293.975 596.866 Q 296.783 598.452 298.135 601.52 Q 299.487 604.588 299.487 608.956 Q 299.487 615.56 296.237 619.174 Q 292.987 622.788 286.955 622.788 Z M 286.903 618.16 Q 289.555 618.16 291.115 616.99 Q 292.675 615.82 293.377 613.74 Q 294.079 611.66 294.079 608.956 Q 294.079 605.94 293.351 603.912 Q 292.623 601.884 291.063 600.87 Q 289.503 599.856 286.903 599.856 Q 284.303 599.856 282.743 600.948 Q 281.183 602.04 280.507 604.068 Q 279.831 606.096 279.831 608.956 Q 279.831 613.272 281.443 615.716 Q 283.055 618.16 286.903 618.16 Z" style="fill: rgb(65, 61, 81); white-space: pre;"/>
  <path d="M 307.337 598.036 Q 308.481 597.464 309.911 596.97 Q 311.341 596.476 312.953 596.112 Q 314.565 595.748 316.229 595.54 Q 317.893 595.332 319.453 595.332 Q 323.145 595.332 325.485 596.346 Q 327.825 597.36 328.969 599.466 Q 330.113 601.572 330.113 604.744 L 330.113 622.008 L 324.653 622.008 L 324.653 605.472 Q 324.653 604.484 324.419 603.522 Q 324.185 602.56 323.535 601.754 Q 322.885 600.948 321.663 600.48 Q 320.441 600.012 318.465 600.012 Q 317.061 600.012 315.579 600.272 Q 314.097 600.532 312.797 601 L 312.797 622.008 L 307.337 622.008 Z" style="fill: rgb(65, 61, 81); white-space: pre;"/>
  <path d="M 361.926 604.744 L 361.926 622.008 L 356.466 622.008 L 356.466 605.472 Q 356.466 604.484 356.232 603.522 Q 355.998 602.56 355.348 601.754 Q 354.698 600.948 353.476 600.48 Q 352.254 600.012 350.278 600.012 Q 348.874 600.012 347.47 600.272 Q 346.066 600.532 344.766 601 L 344.766 622.008 L 339.306 622.008 L 339.306 598.036 Q 340.45 597.464 341.88 596.97 Q 343.31 596.476 344.922 596.112 Q 346.534 595.748 348.198 595.54 Q 349.862 595.332 351.422 595.332 Q 355.114 595.332 357.402 596.346 Q 359.69 597.36 360.808 599.466 Q 361.926 601.572 361.926 604.744 Z M 355.686 599.388 Q 357.35 598.036 359.352 597.152 Q 361.354 596.268 363.512 595.8 Q 365.67 595.332 367.75 595.332 Q 371.442 595.332 373.73 596.346 Q 376.018 597.36 377.136 599.466 Q 378.254 601.572 378.254 604.744 L 378.254 622.008 L 372.794 622.008 L 372.794 605.472 Q 372.794 604.484 372.56 603.522 Q 372.326 602.56 371.676 601.754 Q 371.026 600.948 369.804 600.48 Q 368.582 600.012 366.606 600.012 Q 365.202 600.012 363.798 600.428 Q 362.394 600.844 361.094 601.728 Z" style="fill: rgb(65, 61, 81); white-space: pre;"/>
  <path d="M 398.678 622.788 Q 394.83 622.788 391.996 621.228 Q 389.162 619.668 387.628 616.6 Q 386.094 613.532 386.094 609.112 Q 386.094 602.3 389.292 598.79 Q 392.49 595.28 398.21 595.28 Q 402.422 595.28 405.022 597.152 Q 407.622 599.024 408.792 602.378 Q 409.962 605.732 409.91 610.204 L 389.37 610.204 L 389.214 606.148 L 405.75 606.148 L 404.45 607.448 Q 404.294 603.444 402.786 601.598 Q 401.278 599.752 398.054 599.752 Q 395.974 599.752 394.518 600.61 Q 393.062 601.468 392.308 603.522 Q 391.554 605.576 391.554 609.164 Q 391.554 613.532 393.582 615.794 Q 395.61 618.056 399.562 618.056 Q 401.33 618.056 402.864 617.744 Q 404.398 617.432 405.698 616.938 Q 406.998 616.444 407.934 615.976 L 407.934 621.02 Q 406.114 621.8 403.826 622.294 Q 401.538 622.788 398.678 622.788 Z" style="fill: rgb(65, 61, 81); white-space: pre;"/>
  <path d="M 417.712 598.036 Q 418.856 597.464 420.286 596.97 Q 421.716 596.476 423.328 596.112 Q 424.94 595.748 426.604 595.54 Q 428.268 595.332 429.828 595.332 Q 433.52 595.332 435.86 596.346 Q 438.2 597.36 439.344 599.466 Q 440.488 601.572 440.488 604.744 L 440.488 622.008 L 435.028 622.008 L 435.028 605.472 Q 435.028 604.484 434.794 603.522 Q 434.56 602.56 433.91 601.754 Q 433.26 600.948 432.038 600.48 Q 430.816 600.012 428.84 600.012 Q 427.436 600.012 425.954 600.272 Q 424.472 600.532 423.172 601 L 423.172 622.008 L 417.712 622.008 Z" style="fill: rgb(65, 61, 81); white-space: pre;"/>
  <path d="M 458.989 622.684 Q 455.453 622.684 453.399 620.812 Q 451.345 618.94 451.345 615.3 L 451.345 600.428 L 447.133 600.428 L 447.133 595.904 L 451.345 595.904 L 451.345 588.624 L 456.961 588.624 L 456.961 595.904 L 463.305 595.904 L 463.305 600.428 L 456.961 600.428 L 456.961 614.208 Q 456.961 616.028 457.611 616.938 Q 458.261 617.848 460.029 617.848 Q 460.913 617.848 461.797 617.614 Q 462.681 617.38 463.305 617.016 L 463.305 621.852 Q 462.369 622.268 461.199 622.476 Q 460.029 622.684 458.989 622.684 Z" style="fill: rgb(65, 61, 81); white-space: pre;"/>
  <path d="M 509.203 622.008 L 492.875 602.352 Q 491.731 600.948 490.613 599.024 Q 489.495 597.1 489.495 595.228 Q 489.495 592.94 490.743 591.042 Q 491.991 589.144 494.097 588 Q 496.203 586.856 498.803 586.856 Q 501.403 586.856 503.405 587.896 Q 505.407 588.936 506.577 590.756 Q 507.747 592.576 507.747 594.812 Q 507.747 596.944 506.785 598.478 Q 505.823 600.012 504.107 601.286 Q 502.391 602.56 500.051 603.964 L 497.763 600.792 Q 499.843 599.648 500.883 598.712 Q 501.923 597.776 502.261 596.918 Q 502.599 596.06 502.599 595.228 Q 502.599 593.668 501.533 592.68 Q 500.467 591.692 498.855 591.692 Q 497.243 591.692 496.125 592.758 Q 495.007 593.824 495.007 595.332 Q 495.007 596.008 495.553 596.944 Q 496.099 597.88 496.801 598.842 Q 497.503 599.804 498.127 600.532 L 516.067 622.008 Z M 497.035 622.528 Q 494.227 622.528 492.147 621.644 Q 490.067 620.76 488.741 619.278 Q 487.415 617.796 486.739 616.08 Q 486.063 614.364 486.063 612.752 Q 486.063 611.036 486.765 609.19 Q 487.467 607.344 489.209 605.524 Q 490.951 603.704 494.019 602.144 L 497.451 605.212 Q 495.215 606.46 493.993 607.786 Q 492.771 609.112 492.303 610.282 Q 491.835 611.452 491.835 612.388 Q 491.835 613.012 492.069 613.922 Q 492.303 614.832 492.927 615.742 Q 493.551 616.652 494.747 617.25 Q 495.943 617.848 497.815 617.848 Q 499.895 617.848 501.767 616.73 Q 503.639 615.612 504.783 614.364 L 507.695 617.848 Q 506.551 619.096 505.017 620.162 Q 503.483 621.228 501.481 621.878 Q 499.479 622.528 497.035 622.528 Z M 507.019 611.92 Q 507.643 610.932 508.059 609.866 Q 508.475 608.8 508.735 607.916 Q 508.995 607.032 509.099 606.616 L 513.519 606.616 Q 513.207 608.384 512.297 610.698 Q 511.387 613.012 510.035 615.144 Z" style="fill: rgb(65, 61, 81); white-space: pre;"/>
  <path d="M 546.986 622.788 Q 544.178 622.788 542.228 622.19 Q 540.278 621.592 538.406 620.708 L 538.406 615.56 Q 539.758 616.392 541.058 617.042 Q 542.358 617.692 543.788 618.056 Q 545.218 618.42 546.986 618.42 Q 549.222 618.42 550.496 617.484 Q 551.77 616.548 551.77 615.144 Q 551.77 613.948 550.964 613.272 Q 550.158 612.596 548.91 612.128 Q 547.662 611.66 546.31 611.192 Q 544.906 610.828 543.502 610.334 Q 542.098 609.84 540.928 608.982 Q 539.758 608.124 539.056 606.772 Q 538.354 605.42 538.354 603.444 Q 538.354 601.26 539.238 599.726 Q 540.122 598.192 541.552 597.23 Q 542.982 596.268 544.724 595.826 Q 546.466 595.384 548.13 595.384 Q 550.886 595.436 552.628 596.06 Q 554.37 596.684 556.034 597.568 L 556.086 602.248 Q 554.214 601.26 552.55 600.532 Q 550.886 599.804 548.702 599.804 Q 546.674 599.804 545.322 600.558 Q 543.97 601.312 543.97 602.768 Q 543.97 604.016 544.724 604.744 Q 545.478 605.472 546.7 605.888 Q 547.922 606.304 549.326 606.72 Q 550.626 607.136 552.03 607.578 Q 553.434 608.02 554.63 608.852 Q 555.826 609.684 556.58 611.036 Q 557.334 612.388 557.334 614.572 Q 557.282 617.484 555.8 619.304 Q 554.318 621.124 551.926 621.956 Q 549.534 622.788 546.986 622.788 Z" style="fill: rgb(65, 61, 81); white-space: pre;"/>
  <path d="M 576.787 622.788 Q 573.199 622.788 570.625 621.618 Q 568.051 620.448 566.647 618.108 Q 565.243 615.768 565.243 612.284 L 565.243 595.904 L 570.703 595.904 L 570.703 611.504 Q 570.703 614.832 572.185 616.418 Q 573.667 618.004 576.787 618.004 Q 579.907 618.004 581.389 616.418 Q 582.871 614.832 582.871 611.504 L 582.871 595.904 L 588.123 595.904 L 588.123 612.284 Q 588.123 617.484 585.133 620.136 Q 582.143 622.788 576.787 622.788 Z" style="fill: rgb(65, 61, 81); white-space: pre;"/>
  <path d="M 604.846 622.788 Q 602.038 622.788 600.088 622.19 Q 598.138 621.592 596.266 620.708 L 596.266 615.56 Q 597.618 616.392 598.918 617.042 Q 600.218 617.692 601.648 618.056 Q 603.078 618.42 604.846 618.42 Q 607.082 618.42 608.356 617.484 Q 609.63 616.548 609.63 615.144 Q 609.63 613.948 608.824 613.272 Q 608.018 612.596 606.77 612.128 Q 605.522 611.66 604.17 611.192 Q 602.766 610.828 601.362 610.334 Q 599.958 609.84 598.788 608.982 Q 597.618 608.124 596.916 606.772 Q 596.214 605.42 596.214 603.444 Q 596.214 601.26 597.098 599.726 Q 597.982 598.192 599.412 597.23 Q 600.842 596.268 602.584 595.826 Q 604.326 595.384 605.99 595.384 Q 608.746 595.436 610.488 596.06 Q 612.23 596.684 613.894 597.568 L 613.946 602.248 Q 612.074 601.26 610.41 600.532 Q 608.746 599.804 606.562 599.804 Q 604.534 599.804 603.182 600.558 Q 601.83 601.312 601.83 602.768 Q 601.83 604.016 602.584 604.744 Q 603.338 605.472 604.56 605.888 Q 605.782 606.304 607.186 606.72 Q 608.486 607.136 609.89 607.578 Q 611.294 608.02 612.49 608.852 Q 613.686 609.684 614.44 611.036 Q 615.194 612.388 615.194 614.572 Q 615.142 617.484 613.66 619.304 Q 612.178 621.124 609.786 621.956 Q 607.394 622.788 604.846 622.788 Z" style="fill: rgb(65, 61, 81); white-space: pre;"/>
  <path d="M 632.411 622.684 Q 628.875 622.684 626.821 620.812 Q 624.767 618.94 624.767 615.3 L 624.767 600.428 L 620.555 600.428 L 620.555 595.904 L 624.767 595.904 L 624.767 588.624 L 630.383 588.624 L 630.383 595.904 L 636.727 595.904 L 636.727 600.428 L 630.383 600.428 L 630.383 614.208 Q 630.383 616.028 631.033 616.938 Q 631.683 617.848 633.451 617.848 Q 634.335 617.848 635.219 617.614 Q 636.103 617.38 636.727 617.016 L 636.727 621.852 Q 635.791 622.268 634.621 622.476 Q 633.451 622.684 632.411 622.684 Z" style="fill: rgb(65, 61, 81); white-space: pre;"/>
  <path d="M 654.035 622.788 Q 652.007 622.788 650.135 622.398 Q 648.263 622.008 646.729 621.072 Q 645.195 620.136 644.285 618.498 Q 643.375 616.86 643.375 614.416 Q 643.375 611.504 644.519 609.632 Q 645.663 607.76 647.795 606.824 Q 649.927 605.888 652.891 605.888 Q 654.867 605.888 656.453 606.2 Q 658.039 606.512 659.313 607.058 Q 660.587 607.604 661.471 608.28 L 662.043 611.868 Q 660.899 611.088 658.975 610.542 Q 657.051 609.996 654.815 609.996 Q 651.851 609.996 650.317 611.036 Q 648.783 612.076 648.783 614.156 Q 648.783 615.716 649.667 616.678 Q 650.551 617.64 651.877 618.082 Q 653.203 618.524 654.659 618.524 Q 657.727 618.524 659.183 618.108 Q 660.639 617.692 660.639 616.184 L 660.639 605.264 Q 660.639 602.508 658.975 601.234 Q 657.311 599.96 654.243 599.96 Q 652.059 599.96 649.719 600.662 Q 647.379 601.364 645.871 602.612 L 645.871 597.516 Q 647.327 596.528 650.109 595.93 Q 652.891 595.332 655.855 595.332 Q 657.311 595.332 658.793 595.618 Q 660.275 595.904 661.575 596.502 Q 662.875 597.1 663.889 598.114 Q 664.903 599.128 665.475 600.584 Q 666.047 602.04 666.047 604.016 L 666.047 616.496 Q 666.047 619.044 664.461 620.422 Q 662.875 621.8 660.171 622.294 Q 657.467 622.788 654.035 622.788 Z" style="fill: rgb(65, 61, 81); white-space: pre;"/>
  <path d="M 675.399 622.008 L 675.399 596.06 L 680.859 596.06 L 680.911 622.008 Z M 675.243 591.744 L 675.243 586.804 L 681.067 586.804 L 681.067 591.744 Z" style="fill: rgb(65, 61, 81); white-space: pre;"/>
  <path d="M 690.259 598.036 Q 691.403 597.464 692.833 596.97 Q 694.263 596.476 695.875 596.112 Q 697.487 595.748 699.151 595.54 Q 700.815 595.332 702.375 595.332 Q 706.067 595.332 708.407 596.346 Q 710.747 597.36 711.891 599.466 Q 713.035 601.572 713.035 604.744 L 713.035 622.008 L 707.575 622.008 L 707.575 605.472 Q 707.575 604.484 707.341 603.522 Q 707.107 602.56 706.457 601.754 Q 705.807 600.948 704.585 600.48 Q 703.363 600.012 701.387 600.012 Q 699.983 600.012 698.501 600.272 Q 697.019 600.532 695.719 601 L 695.719 622.008 L 690.259 622.008 Z" style="fill: rgb(65, 61, 81); white-space: pre;"/>
  <path d="M 731.692 622.788 Q 729.664 622.788 727.792 622.398 Q 725.92 622.008 724.386 621.072 Q 722.852 620.136 721.942 618.498 Q 721.032 616.86 721.032 614.416 Q 721.032 611.504 722.176 609.632 Q 723.32 607.76 725.452 606.824 Q 727.584 605.888 730.548 605.888 Q 732.524 605.888 734.11 606.2 Q 735.696 606.512 736.97 607.058 Q 738.244 607.604 739.128 608.28 L 739.7 611.868 Q 738.556 611.088 736.632 610.542 Q 734.708 609.996 732.472 609.996 Q 729.508 609.996 727.974 611.036 Q 726.44 612.076 726.44 614.156 Q 726.44 615.716 727.324 616.678 Q 728.208 617.64 729.534 618.082 Q 730.86 618.524 732.316 618.524 Q 735.384 618.524 736.84 618.108 Q 738.296 617.692 738.296 616.184 L 738.296 605.264 Q 738.296 602.508 736.632 601.234 Q 734.968 599.96 731.9 599.96 Q 729.716 599.96 727.376 600.662 Q 725.036 601.364 723.528 602.612 L 723.528 597.516 Q 724.984 596.528 727.766 595.93 Q 730.548 595.332 733.512 595.332 Q 734.968 595.332 736.45 595.618 Q 737.932 595.904 739.232 596.502 Q 740.532 597.1 741.546 598.114 Q 742.56 599.128 743.132 600.584 Q 743.704 602.04 743.704 604.016 L 743.704 616.496 Q 743.704 619.044 742.118 620.422 Q 740.532 621.8 737.828 622.294 Q 735.124 622.788 731.692 622.788 Z" style="fill: rgb(65, 61, 81); white-space: pre;"/>
  <path d="M 763.924 622.788 Q 761.792 622.788 759.816 622.528 Q 757.84 622.268 756.28 621.618 Q 754.72 620.968 753.81 619.824 Q 752.9 618.68 752.9 616.86 L 752.9 585.452 L 758.308 585.452 L 758.308 599.544 L 756.904 597.776 Q 757.892 596.996 759.374 596.476 Q 760.856 595.956 762.39 595.644 Q 763.924 595.332 765.016 595.332 Q 770.944 595.332 773.908 598.842 Q 776.872 602.352 776.872 608.696 Q 776.872 612.96 775.754 615.716 Q 774.636 618.472 772.79 620.006 Q 770.944 621.54 768.63 622.164 Q 766.316 622.788 763.924 622.788 Z M 763.664 618.056 Q 766.732 618.056 768.396 616.808 Q 770.06 615.56 770.684 613.506 Q 771.308 611.452 771.308 608.904 Q 771.308 605.992 770.528 604.016 Q 769.748 602.04 768.188 601 Q 766.628 599.96 764.184 599.96 Q 762.832 599.96 761.246 600.324 Q 759.66 600.688 758.308 601.468 L 758.308 615.508 Q 758.308 616.548 759.14 617.12 Q 759.972 617.692 761.194 617.874 Q 762.416 618.056 763.664 618.056 Z" style="fill: rgb(65, 61, 81); white-space: pre;"/>
  <path d="M 784.868 622.008 L 784.868 596.06 L 790.328 596.06 L 790.38 622.008 Z M 784.712 591.744 L 784.712 586.804 L 790.536 586.804 L 790.536 591.744 Z" style="fill: rgb(65, 61, 81); white-space: pre;"/>
  <path d="M 805.151 622.008 L 799.743 622.008 L 799.743 586.024 L 805.151 586.024 Z" style="fill: rgb(65, 61, 81); white-space: pre;"/>
  <path d="M 814.493 622.008 L 814.493 596.06 L 819.953 596.06 L 820.005 622.008 Z M 814.337 591.744 L 814.337 586.804 L 820.161 586.804 L 820.161 591.744 Z" style="fill: rgb(65, 61, 81); white-space: pre;"/>
  <path d="M 838.661 622.684 Q 835.125 622.684 833.071 620.812 Q 831.017 618.94 831.017 615.3 L 831.017 600.428 L 826.805 600.428 L 826.805 595.904 L 831.017 595.904 L 831.017 588.624 L 836.633 588.624 L 836.633 595.904 L 842.977 595.904 L 842.977 600.428 L 836.633 600.428 L 836.633 614.208 Q 836.633 616.028 837.283 616.938 Q 837.933 617.848 839.701 617.848 Q 840.585 617.848 841.469 617.614 Q 842.353 617.38 842.977 617.016 L 842.977 621.852 Q 842.041 622.268 840.871 622.476 Q 839.701 622.684 838.661 622.684 Z" style="fill: rgb(65, 61, 81); white-space: pre;"/>
  <path d="M 854.877 632.096 Q 853.889 632.096 853.005 631.914 Q 852.121 631.732 851.445 631.472 L 851.445 626.792 Q 852.069 627 852.693 627.156 Q 853.317 627.312 854.045 627.312 Q 855.605 627.312 856.645 626.48 Q 857.685 625.648 858.413 624.088 Q 859.141 622.528 859.609 620.344 L 859.713 623.048 L 848.585 595.904 L 854.773 595.904 L 862.313 616.496 L 861.533 616.496 L 868.969 595.904 L 874.637 595.904 L 863.873 623.62 Q 862.573 626.948 861.065 628.794 Q 859.557 630.64 857.971 631.368 Q 856.385 632.096 854.877 632.096 Z" style="fill: rgb(65, 61, 81); white-space: pre;"/>
</svg>