<?xml version="1.0" encoding="utf-8"?>
<svg viewBox="0 0 1920 600" style="enable-background:new 0 0 1000 1000;" xmlns="http://www.w3.org/2000/svg">
  <defs>
    <style type="text/css">
	.st0{opacity:0.7;fill:#FFFFFF;}
	.st1{fill:#413D51;}
	.st2{fill:#8FE3F9;}
	.st3{fill:#B2EBF9;}
	.st4{fill:#A4E0EA;}
	.st5{fill:#7AD1E5;}
	.st6{fill:none;stroke:#413D51;stroke-width:16;stroke-linecap:round;stroke-linejoin:round;stroke-miterlimit:10;}
	.st7{fill:#F7E8AD;}
	.st8{fill:#F7D6A1;}
	.st9{fill:#EFCA92;}
	.st10{fill:#FFFFFF;}
	.st11{opacity:0.89;fill:#EFCA92;}
	.st12{fill:none;stroke:#413D51;stroke-width:8;stroke-linecap:round;stroke-linejoin:round;stroke-miterlimit:10;}
	.st13{opacity:0.31;fill:none;stroke:#72C8D6;stroke-width:8;stroke-linecap:round;stroke-linejoin:round;stroke-miterlimit:10;}
</style>
  </defs>
  <rect class="st0" width="1920" height="600" style="opacity: 1;"/>
  <g transform="matrix(0.522213, 0, 0, 0.522213, 698.788635, -60.158478)" style="">
    <ellipse id="XMLID_2_" class="st2" cx="501.8" cy="487.5" rx="228" ry="205.8"/>
    <ellipse id="XMLID_188_" class="st2" cx="501.8" cy="487.5" rx="228" ry="205.8"/>
    <path id="XMLID_193_" class="st3" d="M507.8,689.3c52.1,0,100.1-15.3,138.5-41l-10.5-24.7c-22-51.9-74.2-85.8-132.1-85.8l0,0 c-57.9,0-110.1,33.9-132.1,85.8l-8.6,20.4C402.3,672.3,452.8,689.3,507.8,689.3z"/>
    <path id="XMLID_189_" class="st4" d="M501.7,470.3l-43.6,64l32.9,43.8c5.4,7.2,16.3,7.2,21.7,0l32.6-43.8L501.7,470.3z"/>
    <path id="XMLID_192_" class="st5" d="M501.8,669.3c-121.5,0-220.7-85.7-227.6-193.8c-0.3,4-0.4,8-0.4,12 c0,113.6,102.1,205.8,228,205.8s228-92.1,228-205.8c0-4-0.1-8-0.4-12C722.5,583.6,623.2,669.3,501.8,669.3z"/>
    <path id="XMLID_76_" class="st4" d="M638.6,628.1c-38.1,25.8-85.5,41.2-136.8,41.2c-50,0-96.2-14.5-133.7-39.1l-5,12.3 c39.4,29.2,89.8,46.8,144.8,46.8c49.7,0,95.7-14.4,133.2-38.8c1.8-1.2,3.5-2.5,5.3-3.8L638.6,628.1z"/>
    <path id="XMLID_186_" class="st5" d="M268.2,488.2c6.4,13.1,15,25.3,25.8,36.2c52.3,52.3,137.2,52.3,189.5,0 c43.8-43.8,50.9-110.3,21.5-161.5"/>
    <path id="XMLID_185_" class="st5" d="M729,503.8c-24,36.1-65,59.8-111.6,59.8c-74,0-134-60-134-134c0-33,11.9-63.2,31.7-86.6"/>
    <ellipse id="XMLID_75_" class="st6" cx="501.8" cy="487.5" rx="228" ry="205.8"/>
    <polygon id="XMLID_74_" class="st1" points="501.7,442.3 458.1,506.3 501.9,564.6 545.4,506.3 &#9;"/>
    <polygon id="XMLID_73_" class="st6" points="501.7,442.3 458.1,506.3 501.9,564.6 545.4,506.3 &#9;"/>
    <path id="XMLID_72_" class="st1" d="M600.7,303.9c-30-14-64.1-21.9-100-21.9s-70,7.9-100,21.9v140.1h200V303.9z"/>
    <g id="XMLID_58_">
      <path id="XMLID_71_" class="st1" d="M613.5,317.9l108.7-3.3c-15.7,39.3-17.8,98.4-4.1,163c-17.4,36.8-54.4,62.9-97.9,64.2l0,0 c-61.8,1.9-113.5-46.7-115.3-108.6l0,0C503,371.4,551.6,319.8,613.5,317.9z"/>
      <path id="XMLID_70_" class="st6" d="M613.5,317.9l108.7-3.3c-15.7,39.3-17.8,98.4-4.1,163c-17.4,36.8-54.4,62.9-97.9,64.2l0,0 c-61.8,1.9-113.5-46.7-115.3-108.6l0,0C503,371.4,551.6,319.8,613.5,317.9z"/>
      <circle id="XMLID_69_" class="st7" cx="617.4" cy="429.7" r="112"/>
      <circle id="XMLID_5_" class="st7" cx="617.4" cy="429.7" r="112"/>
      <path id="XMLID_86_" class="st8" d="M696.6,350.5c-21.5-21.5-49.7-32.4-77.9-32.8c21.2,4.1,41.5,14.3,57.9,30.8 c43.7,43.7,43.7,114.6,0,158.4c-22.2,22.2-51.4,33.1-80.4,32.8c35.3,6.8,73.1-3.5,100.4-30.8C740.3,465.1,740.3,394.2,696.6,350.5 z"/>
      <ellipse id="XMLID_3_" transform="matrix(0.7071 -0.7071 0.7071 0.7071 -130.8246 543.5441)" class="st0" cx="590.7" cy="429.7" rx="84" ry="84.6"/>
      <path id="XMLID_12_" class="st9" d="M711.4,376.6c-3.1-4-9.1-15-12.8-18.7c-44-43.4-114.9-43-158.3,1.1 c-8.6,8.7-15.5,18.5-20.6,29C581.4,366.3,649,371.5,711.4,376.6z"/>
      <circle id="XMLID_68_" class="st6" cx="617.4" cy="429.7" r="112"/>
      <circle id="XMLID_67_" class="st6" cx="617.4" cy="429.7" r="112"/>
      <path id="XMLID_66_" class="st1" d="M706.7,362.1c-3.1-4-6.4-7.9-10.1-11.6c-43.7-43.7-114.6-43.7-158.4,0 c-8.7,8.7-15.6,18.4-20.8,28.8C579.4,358.1,644.3,356.5,706.7,362.1z"/>
      <circle id="XMLID_57_" class="st1" cx="562.9" cy="438.1" r="42"/>
      <circle id="XMLID_56_" class="st10" cx="539.1" cy="438.4" r="14"/>
    </g>
    <g id="XMLID_26_">
      <path id="XMLID_89_" class="st1" d="M388.8,317.9L280,314.6c15.7,39.3,17.8,98.4,4.1,163c17.4,36.8,54.4,62.9,97.9,64.2l0,0 c61.8,1.9,113.5-46.7,115.3-108.6l0,0C499.2,371.4,450.6,319.8,388.8,317.9z"/>
      <path id="XMLID_88_" class="st6" d="M388.8,317.9L280,314.6c15.7,39.3,17.8,98.4,4.1,163c17.4,36.8,54.4,62.9,97.9,64.2l0,0 c61.8,1.9,113.5-46.7,115.3-108.6l0,0C499.2,371.4,450.6,319.8,388.8,317.9z"/>
      <circle id="XMLID_87_" class="st7" cx="384.8" cy="429.7" r="112"/>
      <circle id="XMLID_84_" class="st7" cx="384.8" cy="429.7" r="112"/>
      <path id="XMLID_65_" class="st8" d="M305.6,350.5c21.5-21.5,49.7-32.4,77.9-32.8c-21.2,4.1-41.5,14.3-57.9,30.8 c-43.7,43.7-43.7,114.6,0,158.4c22.2,22.2,51.4,33.1,80.4,32.8c-35.3,6.8-73.1-3.5-100.4-30.8 C261.9,465.1,261.9,394.2,305.6,350.5z"/>
      <ellipse id="XMLID_64_" transform="matrix(0.7071 -0.7071 0.7071 0.7071 -183.3021 416.8521)" class="st0" cx="411.5" cy="429.7" rx="84.6" ry="84"/>
      <path id="XMLID_63_" class="st11" d="M290.9,376.6c3.1-4,9.1-15,12.8-18.7c44-43.4,114.9-43,158.3,1.1c8.6,8.7,15.5,18.5,20.6,29 C420.8,366.3,353.2,371.5,290.9,376.6z"/>
      <circle id="XMLID_62_" class="st6" cx="384.8" cy="429.7" r="112"/>
      <circle id="XMLID_61_" class="st6" cx="384.8" cy="429.7" r="112"/>
      <path id="XMLID_60_" class="st1" d="M295.6,362.1c3.1-4,6.4-7.9,10.1-11.6c43.7-43.7,114.6-43.7,158.4,0 c8.7,8.7,15.6,18.4,20.8,28.8C422.9,358.1,357.9,356.5,295.6,362.1z"/>
      <circle id="XMLID_59_" class="st1" cx="439.4" cy="438.1" r="42"/>
      <circle id="XMLID_37_" class="st10" cx="463.2" cy="438.4" r="14"/>
    </g>
    <path id="XMLID_19_" class="st1" d="M447.9,718.3L447.9,718.3c-8.8,0-16-7.2-16-16v-18c0-8.8,7.2-16,16-16h0c8.8,0,16,7.2,16,16v18 C463.9,711.1,456.8,718.3,447.9,718.3z"/>
    <path id="XMLID_17_" class="st1" d="M415.9,718.3L415.9,718.3c-8.8,0-16-7.2-16-16v-18c0-8.8,7.2-16,16-16h0c8.8,0,16,7.2,16,16v18 C431.9,711.1,424.8,718.3,415.9,718.3z"/>
    <path id="XMLID_16_" class="st1" d="M479.7,718.3L479.7,718.3c-8.8,0-16-7.2-16-16v-18c0-8.8,7.2-16,16-16h0c8.8,0,16,7.2,16,16v18 C495.7,711.1,488.5,718.3,479.7,718.3z"/>
    <path id="XMLID_15_" class="st1" d="M521.9,718.3L521.9,718.3c-8.8,0-16-7.2-16-16v-18c0-8.8,7.2-16,16-16h0c8.8,0,16,7.2,16,16v18 C537.9,711.1,530.7,718.3,521.9,718.3z"/>
    <path id="XMLID_14_" class="st1" d="M553.7,718.3L553.7,718.3c-8.8,0-16-7.2-16-16v-18c0-8.8,7.2-16,16-16h0c8.8,0,16,7.2,16,16v18 C569.7,711.1,562.5,718.3,553.7,718.3z"/>
    <path id="XMLID_13_" class="st1" d="M585.7,718.3L585.7,718.3c-8.8,0-16-7.2-16-16v-18c0-8.8,7.2-16,16-16h0c8.8,0,16,7.2,16,16v18 C601.7,711.1,594.5,718.3,585.7,718.3z"/>
    <path id="XMLID_11_" class="st12" d="M491.9,587.6c0,8.4-6.8,15.2-15.2,15.2c-8.4,0-15.2-6.8-15.2-15.2"/>
    <path id="XMLID_9_" class="st12" d="M538.4,587.6c0,8.4-6.8,15.2-15.2,15.2c-8.4,0-15.2-6.8-15.2-15.2"/>
    <path id="XMLID_10_" class="st13" d="M323,548.8c-2.2,4.7-7.7,6.8-12.5,4.6s-6.8-7.7-4.6-12.5"/>
    <path id="XMLID_1_" class="st13" d="M352.8,564.3c-2.2,4.7-7.7,6.8-12.5,4.6c-4.7-2.2-6.8-7.7-4.6-12.5"/>
    <path id="XMLID_78_" class="st13" d="M335.5,576.2c-2.2,4.7-7.7,6.8-12.5,4.6c-4.7-2.2-6.8-7.7-4.6-12.5"/>
    <path id="XMLID_77_" class="st13" d="M361.7,596.1c-2.2,4.7-7.7,6.8-12.5,4.6c-4.7-2.2-6.8-7.7-4.6-12.5"/>
    <path id="XMLID_79_" class="st13" d="M381.7,578.1c-2.2,4.7-7.7,6.8-12.5,4.6c-4.7-2.2-6.8-7.7-4.6-12.5"/>
    <path id="XMLID_85_" class="st13" d="M683.7,550.8c2.2,4.7,7.7,6.8,12.5,4.6s6.8-7.7,4.6-12.5"/>
    <path id="XMLID_83_" class="st13" d="M654,566.3c2.2,4.7,7.7,6.8,12.5,4.6c4.7-2.2,6.8-7.7,4.6-12.5"/>
    <path id="XMLID_82_" class="st13" d="M671.2,578.2c2.2,4.7,7.7,6.8,12.5,4.6c4.7-2.2,6.8-7.7,4.6-12.5"/>
    <path id="XMLID_81_" class="st13" d="M645.1,598.1c2.2,4.7,7.7,6.8,12.5,4.6c4.7-2.2,6.8-7.7,4.6-12.5"/>
    <path id="XMLID_80_" class="st13" d="M625.1,580.1c2.2,4.7,7.7,6.8,12.5,4.6c4.7-2.2,6.8-7.7,4.6-12.5"/>
    <path id="XMLID_8_" class="st12" d="M468.7,624.1c0,8.4-6.8,15.2-15.2,15.2c-8.4,0-15.2-6.8-15.2-15.2"/>
    <path id="XMLID_7_" class="st12" d="M515.2,624.1c0,8.4-6.8,15.2-15.2,15.2s-15.2-6.8-15.2-15.2"/>
    <path id="XMLID_6_" class="st12" d="M561.7,624.1c0,8.4-6.8,15.2-15.2,15.2c-8.4,0-15.2-6.8-15.2-15.2"/>
  </g>
  <path d="M 783.881 348.061 L 776.906 348.061 Q 776.023 348.061 775.628 347.666 Q 775.232 347.271 775.232 346.387 L 775.232 316.255 Q 775.232 315.372 775.628 314.976 Q 776.023 314.581 776.906 314.581 L 781.742 314.581 Q 782.626 314.581 783.254 314.86 Q 783.881 315.139 784.486 315.837 L 793.507 326.16 L 793.507 316.255 Q 793.507 315.372 793.902 314.976 Q 794.297 314.581 795.181 314.581 L 802.156 314.581 Q 803.039 314.581 803.435 314.976 Q 803.83 315.372 803.83 316.255 L 803.83 346.387 Q 803.83 347.271 803.435 347.666 Q 803.039 348.061 802.156 348.061 L 795.181 348.061 Q 794.297 348.061 793.902 347.666 Q 793.507 347.271 793.507 346.387 L 793.507 340.668 L 785.555 331.042 L 785.555 346.387 Q 785.555 347.271 785.16 347.666 Q 784.765 348.061 783.881 348.061 Z" style="fill: rgb(65, 61, 81); white-space: pre;"/>
  <path d="M 825.763 348.061 L 811.069 348.061 Q 810.186 348.061 809.791 347.666 Q 809.395 347.271 809.395 346.387 L 809.395 340.947 Q 809.395 340.063 809.791 339.668 Q 810.186 339.273 811.069 339.273 L 823.578 339.273 Q 824.182 339.273 824.485 338.877 Q 824.787 338.482 824.787 337.924 Q 824.787 337.134 824.485 336.762 Q 824.182 336.39 823.578 336.343 L 816.603 335.367 Q 813.348 334.902 811.372 333.228 Q 809.395 331.554 809.395 327.648 L 809.395 322.765 Q 809.395 318.813 811.953 316.697 Q 814.51 314.581 819.021 314.581 L 832.041 314.581 Q 832.924 314.581 833.32 314.976 Q 833.715 315.372 833.715 316.255 L 833.715 321.789 Q 833.715 322.672 833.32 323.067 Q 832.924 323.463 832.041 323.463 L 821.206 323.463 Q 820.602 323.463 820.276 323.858 Q 819.951 324.253 819.951 324.858 Q 819.951 325.462 820.276 325.881 Q 820.602 326.299 821.206 326.346 L 828.135 327.276 Q 831.39 327.741 833.389 329.415 Q 835.389 331.089 835.389 334.995 L 835.389 339.877 Q 835.389 343.83 832.808 345.945 Q 830.227 348.061 825.763 348.061 Z" style="fill: rgb(65, 61, 81); white-space: pre;"/>
  <path d="M 868.971 339.273 Q 868.971 341.412 868.344 343.155 Q 867.716 344.899 866.112 346.131 Q 864.507 347.364 861.717 348.061 Q 858.927 348.759 854.603 348.759 Q 850.278 348.759 847.488 348.061 Q 844.698 347.364 843.094 346.131 Q 841.49 344.899 840.862 343.155 Q 840.234 341.412 840.234 339.273 L 840.234 316.255 Q 840.234 315.372 840.63 314.976 Q 841.025 314.581 841.908 314.581 L 849.209 314.581 Q 850.092 314.581 850.488 314.976 Q 850.883 315.372 850.883 316.255 L 850.883 337.459 Q 850.883 338.389 851.58 339.017 Q 852.278 339.645 854.696 339.645 Q 857.16 339.645 857.858 339.017 Q 858.555 338.389 858.555 337.459 L 858.555 316.255 Q 858.555 315.372 858.951 314.976 Q 859.346 314.581 860.229 314.581 L 867.297 314.581 Q 868.181 314.581 868.576 314.976 Q 868.971 315.372 868.971 316.255 Z" style="fill: rgb(65, 61, 81); white-space: pre;"/>
  <path d="M 890.685 348.061 L 875.991 348.061 Q 875.108 348.061 874.713 347.666 Q 874.317 347.271 874.317 346.387 L 874.317 340.947 Q 874.317 340.063 874.713 339.668 Q 875.108 339.273 875.991 339.273 L 888.5 339.273 Q 889.104 339.273 889.407 338.877 Q 889.709 338.482 889.709 337.924 Q 889.709 337.134 889.407 336.762 Q 889.104 336.39 888.5 336.343 L 881.525 335.367 Q 878.27 334.902 876.294 333.228 Q 874.317 331.554 874.317 327.648 L 874.317 322.765 Q 874.317 318.813 876.875 316.697 Q 879.432 314.581 883.943 314.581 L 896.963 314.581 Q 897.846 314.581 898.242 314.976 Q 898.637 315.372 898.637 316.255 L 898.637 321.789 Q 898.637 322.672 898.242 323.067 Q 897.846 323.463 896.963 323.463 L 886.128 323.463 Q 885.524 323.463 885.198 323.858 Q 884.873 324.253 884.873 324.858 Q 884.873 325.462 885.198 325.881 Q 885.524 326.299 886.128 326.346 L 893.057 327.276 Q 896.312 327.741 898.311 329.415 Q 900.311 331.089 900.311 334.995 L 900.311 339.877 Q 900.311 343.83 897.73 345.945 Q 895.149 348.061 890.685 348.061 Z" style="fill: rgb(65, 61, 81); white-space: pre;"/>
  <path d="M 920.73 348.061 L 913.197 348.061 Q 912.313 348.061 911.918 347.666 Q 911.523 347.271 911.523 346.387 L 911.523 323.556 L 904.687 323.556 Q 903.804 323.556 903.409 323.16 Q 903.013 322.765 903.013 321.882 L 903.013 316.255 Q 903.013 315.372 903.409 314.976 Q 903.804 314.581 904.687 314.581 L 929.239 314.581 Q 930.123 314.581 930.518 314.976 Q 930.913 315.372 930.913 316.255 L 930.913 321.882 Q 930.913 322.765 930.518 323.16 Q 930.123 323.556 929.239 323.556 L 922.404 323.556 L 922.404 346.387 Q 922.404 347.271 922.009 347.666 Q 921.613 348.061 920.73 348.061 Z" style="fill: rgb(65, 61, 81); white-space: pre;"/>
  <path d="M 945.697 324.346 L 943.512 331.414 L 950.812 331.414 L 948.627 324.346 Q 948.441 323.928 948.231 323.742 Q 948.022 323.556 947.743 323.556 L 946.581 323.556 Q 946.302 323.556 946.092 323.742 Q 945.883 323.928 945.697 324.346 Z M 943.047 346.387 Q 943.047 347.271 942.651 347.666 Q 942.256 348.061 941.373 348.061 L 934.537 348.061 Q 933.654 348.061 933.258 347.666 Q 932.863 347.271 932.863 346.387 L 932.863 334.111 Q 932.863 332.716 933.305 330.903 Q 933.747 329.089 934.677 326.671 L 938.722 316.116 Q 939.001 315.325 939.582 314.953 Q 940.164 314.581 941.094 314.581 L 953.602 314.581 Q 954.486 314.581 955.067 314.953 Q 955.648 315.325 955.927 316.116 L 959.973 326.671 Q 960.903 329.089 961.344 330.903 Q 961.786 332.716 961.786 334.111 L 961.786 346.387 Q 961.786 347.271 961.391 347.666 Q 960.996 348.061 960.112 348.061 L 953.091 348.061 Q 952.161 348.061 951.719 347.666 Q 951.277 347.271 951.277 346.387 L 951.277 339.877 L 943.047 339.877 Z" style="fill: rgb(65, 61, 81); white-space: pre;"/>
  <path d="M 968.428 348.061 Q 967.545 348.061 967.149 347.666 Q 966.754 347.271 966.754 346.387 L 966.754 340.854 Q 966.754 339.97 967.149 339.575 Q 967.545 339.18 968.428 339.18 L 973.032 339.18 L 973.032 323.556 L 968.428 323.556 Q 967.545 323.556 967.149 323.16 Q 966.754 322.765 966.754 321.882 L 966.754 316.255 Q 966.754 315.372 967.149 314.976 Q 967.545 314.581 968.428 314.581 L 988.237 314.581 Q 989.121 314.581 989.516 314.976 Q 989.911 315.372 989.911 316.255 L 989.911 321.882 Q 989.911 322.765 989.516 323.16 Q 989.121 323.556 988.237 323.556 L 983.727 323.556 L 983.727 339.18 L 988.237 339.18 Q 989.121 339.18 989.516 339.575 Q 989.911 339.97 989.911 340.854 L 989.911 346.387 Q 989.911 347.271 989.516 347.666 Q 989.121 348.061 988.237 348.061 Z" style="fill: rgb(65, 61, 81); white-space: pre;"/>
  <path d="M 1004.288 348.061 L 997.313 348.061 Q 996.429 348.061 996.034 347.666 Q 995.639 347.271 995.639 346.387 L 995.639 316.255 Q 995.639 315.372 996.034 314.976 Q 996.429 314.581 997.313 314.581 L 1002.149 314.581 Q 1003.032 314.581 1003.66 314.86 Q 1004.288 315.139 1004.892 315.837 L 1013.913 326.16 L 1013.913 316.255 Q 1013.913 315.372 1014.308 314.976 Q 1014.704 314.581 1015.587 314.581 L 1022.562 314.581 Q 1023.446 314.581 1023.841 314.976 Q 1024.236 315.372 1024.236 316.255 L 1024.236 346.387 Q 1024.236 347.271 1023.841 347.666 Q 1023.446 348.061 1022.562 348.061 L 1015.587 348.061 Q 1014.704 348.061 1014.308 347.666 Q 1013.913 347.271 1013.913 346.387 L 1013.913 340.668 L 1005.962 331.042 L 1005.962 346.387 Q 1005.962 347.271 1005.566 347.666 Q 1005.171 348.061 1004.288 348.061 Z" style="fill: rgb(65, 61, 81); white-space: pre;"/>
  <path d="M 1041.07 348.061 L 1031.677 348.061 Q 1030.794 348.061 1030.399 347.666 Q 1030.003 347.271 1030.003 346.387 L 1030.003 336.948 Q 1030.003 336.064 1030.399 335.669 Q 1030.794 335.274 1031.677 335.274 L 1041.07 335.274 Q 1041.954 335.274 1042.349 335.669 Q 1042.744 336.064 1042.744 336.948 L 1042.744 346.387 Q 1042.744 347.271 1042.349 347.666 Q 1041.954 348.061 1041.07 348.061 Z" style="fill: rgb(65, 61, 81); white-space: pre;"/>
  <path d="M 1070.772 348.061 L 1059.426 348.061 Q 1053.613 348.061 1050.8 345.736 Q 1047.987 343.411 1047.987 338.575 L 1047.987 324.114 Q 1047.987 319.278 1050.8 316.929 Q 1053.613 314.581 1059.426 314.581 L 1070.772 314.581 Q 1071.655 314.581 1072.05 314.976 Q 1072.446 315.372 1072.446 316.255 L 1072.446 321.882 Q 1072.446 322.765 1072.05 323.16 Q 1071.655 323.556 1070.772 323.556 L 1061.425 323.556 Q 1059.984 323.556 1059.286 324.137 Q 1058.589 324.718 1058.589 325.881 L 1058.589 336.948 Q 1058.589 338.11 1059.286 338.645 Q 1059.984 339.18 1061.425 339.18 L 1070.772 339.18 Q 1071.655 339.18 1072.05 339.575 Q 1072.446 339.97 1072.446 340.854 L 1072.446 346.387 Q 1072.446 347.271 1072.05 347.666 Q 1071.655 348.061 1070.772 348.061 Z" style="fill: rgb(65, 61, 81); white-space: pre;"/>
  <path d="M 1105.832 339.273 Q 1105.832 341.412 1105.204 343.155 Q 1104.576 344.899 1102.972 346.131 Q 1101.368 347.364 1098.555 348.061 Q 1095.741 348.759 1091.417 348.759 Q 1087.092 348.759 1084.256 348.061 Q 1081.419 347.364 1079.815 346.131 Q 1078.211 344.899 1077.583 343.155 Q 1076.955 341.412 1076.955 339.273 L 1076.955 323.416 Q 1076.955 321.277 1077.583 319.533 Q 1078.211 317.79 1079.815 316.534 Q 1081.419 315.279 1084.256 314.581 Q 1087.092 313.884 1091.417 313.884 Q 1095.741 313.884 1098.555 314.581 Q 1101.368 315.279 1102.972 316.534 Q 1104.576 317.79 1105.204 319.533 Q 1105.832 321.277 1105.832 323.416 Z M 1087.511 337.599 Q 1087.511 338.529 1088.208 339.156 Q 1088.906 339.784 1091.417 339.784 Q 1093.928 339.784 1094.625 339.156 Q 1095.323 338.529 1095.323 337.599 L 1095.323 325.09 Q 1095.323 324.207 1094.625 323.579 Q 1093.928 322.951 1091.417 322.951 Q 1088.906 322.951 1088.208 323.579 Q 1087.511 324.207 1087.511 325.09 Z" style="fill: rgb(65, 61, 81); white-space: pre;"/>
  <path d="M 1120.351 348.061 L 1113.422 348.061 Q 1112.539 348.061 1112.143 347.666 Q 1111.748 347.271 1111.748 346.387 L 1111.748 316.255 Q 1111.748 315.372 1112.143 314.976 Q 1112.539 314.581 1113.422 314.581 L 1120.909 314.581 Q 1121.653 314.581 1122.141 314.907 Q 1122.629 315.232 1123.048 315.976 L 1127.233 323.556 Q 1127.465 323.974 1127.628 324.16 Q 1127.791 324.346 1128.07 324.346 L 1128.488 324.346 Q 1128.767 324.346 1128.93 324.16 Q 1129.093 323.974 1129.325 323.556 L 1133.464 315.976 Q 1133.882 315.232 1134.37 314.907 Q 1134.859 314.581 1135.603 314.581 L 1143.136 314.581 Q 1144.019 314.581 1144.414 314.976 Q 1144.81 315.372 1144.81 316.255 L 1144.81 346.387 Q 1144.81 347.271 1144.414 347.666 Q 1144.019 348.061 1143.136 348.061 L 1135.975 348.061 Q 1135.091 348.061 1134.696 347.666 Q 1134.301 347.271 1134.301 346.387 L 1134.301 330.019 L 1131.557 335.088 Q 1131.139 335.878 1130.557 336.227 Q 1129.976 336.576 1129.093 336.576 L 1127.233 336.576 Q 1126.349 336.576 1125.768 336.227 Q 1125.187 335.878 1124.768 335.088 L 1122.025 330.019 L 1122.025 346.387 Q 1122.025 347.271 1121.629 347.666 Q 1121.234 348.061 1120.351 348.061 Z" style="fill: rgb(65, 61, 81); white-space: pre;"/>
  <path d="M 767.655 459.779 L 767.655 438.665 L 780.128 438.665 L 780.128 439.056 L 768.046 439.056 L 768.046 450.239 L 776.961 450.239 L 776.961 450.63 L 768.046 450.63 L 768.046 459.779 Z" style="fill: rgb(51, 51, 51); white-space: pre;"/>
  <path d="M 806.935 455.009 Q 806.935 457.355 805.254 458.821 Q 803.573 460.287 798.998 460.287 Q 794.423 460.287 792.781 458.821 Q 791.139 457.355 791.139 455.009 L 791.139 443.474 Q 791.139 441.128 792.781 439.662 Q 794.423 438.196 798.998 438.196 Q 803.573 438.196 805.254 439.662 Q 806.935 441.128 806.935 443.474 Z M 791.53 455.009 Q 791.53 457.198 793.094 458.547 Q 794.658 459.896 798.998 459.896 Q 803.338 459.896 804.941 458.547 Q 806.544 457.198 806.544 455.009 L 806.544 443.474 Q 806.544 441.285 804.941 439.936 Q 803.338 438.587 798.998 438.587 Q 794.658 438.587 793.094 439.936 Q 791.53 441.285 791.53 443.474 Z" style="fill: rgb(51, 51, 51); white-space: pre;"/>
  <path d="M 829.281 439.056 L 820.757 439.056 L 820.757 450.356 L 829.281 450.356 Q 831.705 450.356 832.526 449.183 Q 833.347 448.01 833.347 445.859 L 833.347 443.122 Q 833.347 441.324 832.35 440.19 Q 831.353 439.056 829.281 439.056 Z M 820.757 459.779 L 820.366 459.779 L 820.366 438.665 L 829.281 438.665 Q 831.549 438.665 832.643 439.936 Q 833.738 441.207 833.738 443.122 L 833.738 445.82 Q 833.738 447.619 833.269 448.772 Q 832.8 449.926 831.392 450.356 L 831.822 450.356 Q 834.207 450.356 835.38 451.431 Q 836.553 452.506 836.553 454.54 L 836.553 459.779 L 836.162 459.779 L 836.162 454.54 Q 836.162 452.624 835.107 451.666 Q 834.051 450.708 831.822 450.708 L 820.757 450.708 Z" style="fill: rgb(51, 51, 51); white-space: pre;"/>
  <path d="M 871.41 459.388 L 871.41 459.779 L 858.233 459.779 L 858.233 438.665 L 871.41 438.665 L 871.41 439.056 L 858.624 439.056 L 858.624 448.87 L 868.243 448.87 L 868.243 449.261 L 858.624 449.261 L 858.624 459.388 Z" style="fill: rgb(51, 51, 51); white-space: pre;"/>
  <path d="M 884.679 438.978 L 899.068 455.165 L 899.068 438.665 L 899.459 438.665 L 899.459 459.779 L 899.068 459.779 L 899.068 455.752 L 884.288 439.173 Q 884.249 439.134 884.191 439.095 Q 884.132 439.056 884.093 439.056 Q 884.054 439.056 884.034 439.095 Q 884.015 439.134 884.015 439.173 L 884.015 459.779 L 883.624 459.779 L 883.624 439.095 Q 883.624 438.861 883.78 438.743 Q 883.937 438.626 884.093 438.626 Q 884.249 438.626 884.367 438.704 Q 884.484 438.782 884.679 438.978 Z" style="fill: rgb(51, 51, 51); white-space: pre;"/>
  <path d="M 912.788 438.665 L 913.179 438.665 L 913.179 447.111 Q 913.179 448.127 913.335 449.046 Q 913.491 449.965 913.804 450.747 L 916.385 457.003 Q 916.776 458.02 917.264 458.704 Q 917.753 459.388 918.848 459.388 L 922.289 459.388 Q 923.384 459.388 923.872 458.704 Q 924.361 458.02 924.752 457.003 L 927.333 450.747 Q 927.646 449.965 927.802 449.046 Q 927.958 448.127 927.958 447.111 L 927.958 438.665 L 928.349 438.665 L 928.349 447.111 Q 928.349 448.205 928.212 449.124 Q 928.076 450.043 927.724 450.903 L 925.143 457.159 Q 924.674 458.293 924.087 459.036 Q 923.501 459.779 922.289 459.779 L 918.848 459.779 Q 917.636 459.779 917.049 459.036 Q 916.463 458.293 915.994 457.159 L 913.413 450.903 Q 913.061 450.043 912.924 449.124 Q 912.788 448.205 912.788 447.111 Z" style="fill: rgb(51, 51, 51); white-space: pre;"/>
  <path d="M 952.799 459.779 L 940.365 459.779 L 940.365 459.388 L 946.425 459.388 L 946.425 439.056 L 940.365 439.056 L 940.365 438.665 L 952.799 438.665 L 952.799 439.056 L 946.816 439.056 L 946.816 459.388 L 952.799 459.388 Z" style="fill: rgb(51, 51, 51); white-space: pre;"/>
  <path d="M 974.265 439.056 L 965.741 439.056 L 965.741 450.356 L 974.265 450.356 Q 976.689 450.356 977.51 449.183 Q 978.332 448.01 978.332 445.859 L 978.332 443.122 Q 978.332 441.324 977.335 440.19 Q 976.337 439.056 974.265 439.056 Z M 965.741 459.779 L 965.35 459.779 L 965.35 438.665 L 974.265 438.665 Q 976.533 438.665 977.628 439.936 Q 978.723 441.207 978.723 443.122 L 978.723 445.82 Q 978.723 447.619 978.253 448.772 Q 977.784 449.926 976.377 450.356 L 976.807 450.356 Q 979.192 450.356 980.365 451.431 Q 981.538 452.506 981.538 454.54 L 981.538 459.779 L 981.147 459.779 L 981.147 454.54 Q 981.147 452.624 980.091 451.666 Q 979.035 450.708 976.807 450.708 L 965.741 450.708 Z" style="fill: rgb(51, 51, 51); white-space: pre;"/>
  <path d="M 1009.545 455.009 Q 1009.545 457.355 1007.864 458.821 Q 1006.182 460.287 1001.608 460.287 Q 997.033 460.287 995.391 458.821 Q 993.748 457.355 993.748 455.009 L 993.748 443.474 Q 993.748 441.128 995.391 439.662 Q 997.033 438.196 1001.608 438.196 Q 1006.182 438.196 1007.864 439.662 Q 1009.545 441.128 1009.545 443.474 Z M 994.139 455.009 Q 994.139 457.198 995.703 458.547 Q 997.267 459.896 1001.608 459.896 Q 1005.948 459.896 1007.551 458.547 Q 1009.154 457.198 1009.154 455.009 L 1009.154 443.474 Q 1009.154 441.285 1007.551 439.936 Q 1005.948 438.587 1001.608 438.587 Q 997.267 438.587 995.703 439.936 Q 994.139 441.285 994.139 443.474 Z" style="fill: rgb(51, 51, 51); white-space: pre;"/>
  <path d="M 1023.929 438.978 L 1038.318 455.165 L 1038.318 438.665 L 1038.709 438.665 L 1038.709 459.779 L 1038.318 459.779 L 1038.318 455.752 L 1023.538 439.173 Q 1023.499 439.134 1023.441 439.095 Q 1023.382 439.056 1023.343 439.056 Q 1023.304 439.056 1023.284 439.095 Q 1023.265 439.134 1023.265 439.173 L 1023.265 459.779 L 1022.874 459.779 L 1022.874 439.095 Q 1022.874 438.861 1023.03 438.743 Q 1023.187 438.626 1023.343 438.626 Q 1023.499 438.626 1023.617 438.704 Q 1023.734 438.782 1023.929 438.978 Z" style="fill: rgb(51, 51, 51); white-space: pre;"/>
  <path d="M 1061.953 448.245 Q 1062.657 448.245 1062.97 447.932 Q 1063.283 447.619 1063.947 446.602 L 1068.718 439.33 Q 1068.952 438.939 1069.245 438.802 Q 1069.539 438.665 1069.851 438.665 L 1070.516 438.665 Q 1071.064 438.665 1071.318 438.958 Q 1071.572 439.252 1071.572 439.877 L 1071.572 459.779 L 1071.181 459.779 L 1071.181 439.877 Q 1071.181 439.564 1071.044 439.31 Q 1070.907 439.056 1070.516 439.056 L 1069.93 439.056 Q 1069.656 439.056 1069.46 439.134 Q 1069.265 439.212 1069.03 439.603 L 1064.26 446.798 Q 1063.556 447.854 1063.185 448.245 Q 1062.813 448.636 1061.953 448.636 Q 1061.093 448.636 1060.722 448.245 Q 1060.35 447.854 1059.646 446.798 L 1054.876 439.603 Q 1054.642 439.212 1054.427 439.134 Q 1054.211 439.056 1053.938 439.056 L 1053.351 439.056 Q 1052.96 439.056 1052.843 439.31 Q 1052.726 439.564 1052.726 439.877 L 1052.726 459.779 L 1052.335 459.779 L 1052.335 439.877 Q 1052.335 439.252 1052.589 438.958 Q 1052.843 438.665 1053.351 438.665 L 1054.016 438.665 Q 1054.329 438.665 1054.642 438.802 Q 1054.954 438.939 1055.189 439.33 L 1059.959 446.602 Q 1060.624 447.619 1060.937 447.932 Q 1061.249 448.245 1061.953 448.245 Z" style="fill: rgb(51, 51, 51); white-space: pre;"/>
  <path d="M 1098.801 459.388 L 1098.801 459.779 L 1085.624 459.779 L 1085.624 438.665 L 1098.801 438.665 L 1098.801 439.056 L 1086.015 439.056 L 1086.015 448.87 L 1095.633 448.87 L 1095.633 449.261 L 1086.015 449.261 L 1086.015 459.388 Z" style="fill: rgb(51, 51, 51); white-space: pre;"/>
  <path d="M 1112.086 438.978 L 1126.474 455.165 L 1126.474 438.665 L 1126.865 438.665 L 1126.865 459.779 L 1126.474 459.779 L 1126.474 455.752 L 1111.695 439.173 Q 1111.656 439.134 1111.597 439.095 Q 1111.538 439.056 1111.499 439.056 Q 1111.46 439.056 1111.441 439.095 Q 1111.421 439.134 1111.421 439.173 L 1111.421 459.779 L 1111.03 459.779 L 1111.03 439.095 Q 1111.03 438.861 1111.186 438.743 Q 1111.343 438.626 1111.499 438.626 Q 1111.656 438.626 1111.773 438.704 Q 1111.89 438.782 1112.086 438.978 Z" style="fill: rgb(51, 51, 51); white-space: pre;"/>
  <path d="M 1146.278 459.779 L 1146.278 439.056 L 1138.262 439.056 L 1138.262 438.665 L 1154.684 438.665 L 1154.684 439.056 L 1146.669 439.056 L 1146.669 459.779 Z" style="fill: rgb(51, 51, 51); white-space: pre;"/>
  <path d="M 736.804 498.931 L 736.804 477.817 L 749.276 477.817 L 749.276 478.208 L 737.195 478.208 L 737.195 489.391 L 746.109 489.391 L 746.109 489.782 L 737.195 489.782 L 737.195 498.931 Z" style="fill: rgb(51, 51, 51); white-space: pre;"/>
  <path d="M 776.084 494.161 Q 776.084 496.507 774.403 497.973 Q 772.721 499.439 768.147 499.439 Q 763.572 499.439 761.93 497.973 Q 760.287 496.507 760.287 494.161 L 760.287 482.626 Q 760.287 480.28 761.93 478.814 Q 763.572 477.348 768.147 477.348 Q 772.721 477.348 774.403 478.814 Q 776.084 480.28 776.084 482.626 Z M 760.678 494.161 Q 760.678 496.35 762.242 497.699 Q 763.806 499.048 768.147 499.048 Q 772.487 499.048 774.09 497.699 Q 775.693 496.35 775.693 494.161 L 775.693 482.626 Q 775.693 480.437 774.09 479.088 Q 772.487 477.739 768.147 477.739 Q 763.806 477.739 762.242 479.088 Q 760.678 480.437 760.678 482.626 Z" style="fill: rgb(51, 51, 51); white-space: pre;"/>
  <path d="M 798.429 478.208 L 789.905 478.208 L 789.905 489.508 L 798.429 489.508 Q 800.853 489.508 801.675 488.335 Q 802.496 487.162 802.496 485.011 L 802.496 482.274 Q 802.496 480.476 801.499 479.342 Q 800.502 478.208 798.429 478.208 Z M 789.905 498.931 L 789.514 498.931 L 789.514 477.817 L 798.429 477.817 Q 800.697 477.817 801.792 479.088 Q 802.887 480.359 802.887 482.274 L 802.887 484.972 Q 802.887 486.771 802.417 487.924 Q 801.948 489.078 800.541 489.508 L 800.971 489.508 Q 803.356 489.508 804.529 490.583 Q 805.702 491.658 805.702 493.692 L 805.702 498.931 L 805.311 498.931 L 805.311 493.692 Q 805.311 491.776 804.255 490.818 Q 803.199 489.86 800.971 489.86 L 789.905 489.86 Z" style="fill: rgb(51, 51, 51); white-space: pre;"/>
  <path d="M 839.346 477.817 L 839.346 478.208 L 830.666 478.208 Q 829.024 478.208 828.046 479.107 Q 827.069 480.007 827.069 481.375 L 827.069 484.581 Q 827.069 485.95 827.616 486.497 Q 828.164 487.045 829.063 487.201 L 837.313 488.882 Q 838.486 489.117 839.249 489.899 Q 840.011 490.681 840.011 492.714 L 840.011 494.982 Q 840.011 496.702 838.838 497.817 Q 837.665 498.931 835.671 498.931 L 825.935 498.931 L 825.935 498.54 L 835.671 498.54 Q 837.469 498.54 838.545 497.543 Q 839.62 496.546 839.62 494.982 L 839.62 492.714 Q 839.62 490.876 838.975 490.192 Q 838.33 489.508 837.235 489.273 L 828.985 487.592 Q 827.968 487.397 827.323 486.79 Q 826.678 486.184 826.678 484.581 L 826.678 481.375 Q 826.678 479.811 827.773 478.814 Q 828.867 477.817 830.666 477.817 Z" style="fill: rgb(51, 51, 51); white-space: pre;"/>
  <path d="M 852.616 477.817 L 853.007 477.817 L 853.007 494.122 Q 853.007 496.311 854.551 497.66 Q 856.096 499.009 860.436 499.009 Q 864.776 499.009 866.34 497.66 Q 867.904 496.311 867.904 494.122 L 867.904 477.817 L 868.295 477.817 L 868.295 494.122 Q 868.295 496.468 866.653 497.934 Q 865.011 499.4 860.436 499.4 Q 855.861 499.4 854.239 497.934 Q 852.616 496.468 852.616 494.122 Z" style="fill: rgb(51, 51, 51); white-space: pre;"/>
  <path d="M 893.893 477.817 L 893.893 478.208 L 885.213 478.208 Q 883.571 478.208 882.593 479.107 Q 881.616 480.007 881.616 481.375 L 881.616 484.581 Q 881.616 485.95 882.163 486.497 Q 882.711 487.045 883.61 487.201 L 891.86 488.882 Q 893.033 489.117 893.795 489.899 Q 894.558 490.681 894.558 492.714 L 894.558 494.982 Q 894.558 496.702 893.385 497.817 Q 892.212 498.931 890.218 498.931 L 880.482 498.931 L 880.482 498.54 L 890.218 498.54 Q 892.016 498.54 893.092 497.543 Q 894.167 496.546 894.167 494.982 L 894.167 492.714 Q 894.167 490.876 893.522 490.192 Q 892.877 489.508 891.782 489.273 L 883.532 487.592 Q 882.515 487.397 881.87 486.79 Q 881.225 486.184 881.225 484.581 L 881.225 481.375 Q 881.225 479.811 882.32 478.814 Q 883.414 477.817 885.213 477.817 Z" style="fill: rgb(51, 51, 51); white-space: pre;"/>
  <path d="M 912.614 498.931 L 912.614 478.208 L 904.598 478.208 L 904.598 477.817 L 921.02 477.817 L 921.02 478.208 L 913.005 478.208 L 913.005 498.931 Z" style="fill: rgb(51, 51, 51); white-space: pre;"/>
  <path d="M 930.694 490.603 L 930.694 491.815 L 945.943 491.815 L 945.943 490.603 Q 945.943 489.547 945.767 488.648 Q 945.591 487.748 945.317 486.966 L 942.619 480.593 Q 942.189 479.577 941.72 478.892 Q 941.251 478.208 940.156 478.208 L 936.324 478.208 Q 935.151 478.208 934.682 478.892 Q 934.213 479.577 933.822 480.554 L 931.319 486.966 Q 931.046 487.748 930.87 488.648 Q 930.694 489.547 930.694 490.603 Z M 945.943 498.931 L 945.943 492.206 L 930.694 492.206 L 930.694 498.931 L 930.303 498.931 L 930.303 490.603 Q 930.303 489.508 930.479 488.589 Q 930.655 487.67 930.968 486.81 L 933.47 480.398 Q 933.9 479.303 934.447 478.56 Q 934.995 477.817 936.324 477.817 L 940.156 477.817 Q 941.446 477.817 941.974 478.56 Q 942.502 479.303 942.971 480.437 L 945.669 486.81 Q 945.982 487.67 946.158 488.589 Q 946.334 489.508 946.334 490.603 L 946.334 498.931 Z" style="fill: rgb(51, 51, 51); white-space: pre;"/>
  <path d="M 970.603 498.931 L 958.169 498.931 L 958.169 498.54 L 964.23 498.54 L 964.23 478.208 L 958.169 478.208 L 958.169 477.817 L 970.603 477.817 L 970.603 478.208 L 964.621 478.208 L 964.621 498.54 L 970.603 498.54 Z" style="fill: rgb(51, 51, 51); white-space: pre;"/>
  <path d="M 984.078 478.13 L 998.467 494.317 L 998.467 477.817 L 998.858 477.817 L 998.858 498.931 L 998.467 498.931 L 998.467 494.904 L 983.687 478.325 Q 983.648 478.286 983.589 478.247 Q 983.53 478.208 983.491 478.208 Q 983.452 478.208 983.433 478.247 Q 983.413 478.286 983.413 478.325 L 983.413 498.931 L 983.022 498.931 L 983.022 478.247 Q 983.022 478.013 983.179 477.895 Q 983.335 477.778 983.491 477.778 Q 983.648 477.778 983.765 477.856 Q 983.882 477.934 984.078 478.13 Z" style="fill: rgb(51, 51, 51); white-space: pre;"/>
  <path d="M 1012.303 490.603 L 1012.303 491.815 L 1027.552 491.815 L 1027.552 490.603 Q 1027.552 489.547 1027.376 488.648 Q 1027.2 487.748 1026.927 486.966 L 1024.229 480.593 Q 1023.799 479.577 1023.329 478.892 Q 1022.86 478.208 1021.765 478.208 L 1017.934 478.208 Q 1016.761 478.208 1016.291 478.892 Q 1015.822 479.577 1015.431 480.554 L 1012.929 486.966 Q 1012.655 487.748 1012.479 488.648 Q 1012.303 489.547 1012.303 490.603 Z M 1027.552 498.931 L 1027.552 492.206 L 1012.303 492.206 L 1012.303 498.931 L 1011.912 498.931 L 1011.912 490.603 Q 1011.912 489.508 1012.088 488.589 Q 1012.264 487.67 1012.577 486.81 L 1015.079 480.398 Q 1015.509 479.303 1016.057 478.56 Q 1016.604 477.817 1017.934 477.817 L 1021.765 477.817 Q 1023.056 477.817 1023.584 478.56 Q 1024.111 479.303 1024.581 480.437 L 1027.279 486.81 Q 1027.591 487.67 1027.767 488.589 Q 1027.943 489.508 1027.943 490.603 L 1027.943 498.931 Z" style="fill: rgb(51, 51, 51); white-space: pre;"/>
  <path d="M 1051.728 498.931 L 1041.21 498.931 L 1041.21 477.817 L 1049.147 477.817 Q 1050.75 477.817 1051.767 478.149 Q 1052.783 478.482 1053.331 479.049 Q 1053.878 479.616 1054.074 480.359 Q 1054.269 481.101 1054.269 481.962 L 1054.269 484.464 Q 1054.269 485.637 1053.859 486.615 Q 1053.448 487.592 1051.767 488.022 Q 1053.37 488.022 1054.387 488.354 Q 1055.403 488.687 1055.951 489.293 Q 1056.498 489.899 1056.674 490.72 Q 1056.85 491.541 1056.85 492.519 L 1056.85 495.021 Q 1056.85 495.881 1056.654 496.605 Q 1056.459 497.328 1055.931 497.836 Q 1055.403 498.345 1054.387 498.638 Q 1053.37 498.931 1051.728 498.931 Z M 1049.147 478.208 L 1041.601 478.208 L 1041.601 488.022 L 1049.147 488.022 Q 1050.75 488.022 1051.689 487.729 Q 1052.627 487.436 1053.116 486.947 Q 1053.605 486.458 1053.741 485.813 Q 1053.878 485.168 1053.878 484.464 L 1053.878 481.962 Q 1053.878 480.398 1052.979 479.303 Q 1052.08 478.208 1049.147 478.208 Z M 1051.767 488.413 L 1041.601 488.413 L 1041.601 498.54 L 1051.728 498.54 Q 1054.66 498.54 1055.56 497.582 Q 1056.459 496.624 1056.459 495.021 L 1056.459 492.519 Q 1056.459 490.759 1055.579 489.586 Q 1054.699 488.413 1051.767 488.413 Z" style="fill: rgb(51, 51, 51); white-space: pre;"/>
  <path d="M 1080.541 498.931 L 1068.107 498.931 L 1068.107 498.54 L 1074.167 498.54 L 1074.167 478.208 L 1068.107 478.208 L 1068.107 477.817 L 1080.541 477.817 L 1080.541 478.208 L 1074.558 478.208 L 1074.558 498.54 L 1080.541 498.54 Z" style="fill: rgb(51, 51, 51); white-space: pre;"/>
  <path d="M 1093.116 498.931 L 1093.116 477.817 L 1093.507 477.817 L 1093.507 498.54 L 1107.114 498.54 L 1107.114 490.837 L 1107.505 490.837 L 1107.505 498.931 Z" style="fill: rgb(51, 51, 51); white-space: pre;"/>
  <path d="M 1131.338 498.931 L 1118.904 498.931 L 1118.904 498.54 L 1124.964 498.54 L 1124.964 478.208 L 1118.904 478.208 L 1118.904 477.817 L 1131.338 477.817 L 1131.338 478.208 L 1125.355 478.208 L 1125.355 498.54 L 1131.338 498.54 Z" style="fill: rgb(51, 51, 51); white-space: pre;"/>
  <path d="M 1149.582 498.931 L 1149.582 478.208 L 1141.567 478.208 L 1141.567 477.817 L 1157.989 477.817 L 1157.989 478.208 L 1149.973 478.208 L 1149.973 498.931 Z" style="fill: rgb(51, 51, 51); white-space: pre;"/>
  <path d="M 1176.865 492.245 L 1176.592 492.245 L 1176.592 498.931 L 1176.201 498.931 L 1176.201 492.245 L 1175.81 492.245 Q 1174.949 492.245 1174.265 491.854 Q 1173.581 491.463 1172.955 490.603 L 1169.163 485.324 Q 1168.732 484.738 1168.654 483.956 Q 1168.576 483.174 1168.576 482.314 L 1168.576 477.817 L 1168.967 477.817 L 1168.967 482.314 Q 1168.967 483.135 1169.045 483.858 Q 1169.123 484.581 1169.514 485.168 L 1173.307 490.446 Q 1173.815 491.228 1174.48 491.541 Q 1175.145 491.854 1175.81 491.854 L 1176.865 491.854 Q 1177.608 491.854 1178.214 491.522 Q 1178.82 491.189 1179.407 490.446 L 1183.317 485.168 Q 1183.708 484.66 1183.786 483.897 Q 1183.864 483.135 1183.864 482.314 L 1183.864 477.817 L 1184.255 477.817 L 1184.255 482.314 Q 1184.255 483.174 1184.197 483.936 Q 1184.138 484.699 1183.669 485.324 L 1179.759 490.603 Q 1179.133 491.463 1178.449 491.854 Q 1177.765 492.245 1176.865 492.245 Z" style="fill: rgb(51, 51, 51); white-space: pre;"/>
</svg>