<?xml version="1.0" encoding="utf-8"?>
<svg viewBox="0 0 1000 1000" style="enable-background:new 0 0 1000 1000;" xmlns="http://www.w3.org/2000/svg">
  <defs>
    <style type="text/css">
	.st0{opacity:0.7;fill:#FFFFFF;}
	.st1{fill:#413D51;}
	.st2{fill:#8FE3F9;}
	.st3{fill:#B2EBF9;}
	.st4{fill:#A4E0EA;}
	.st5{fill:#7AD1E5;}
	.st6{fill:none;stroke:#413D51;stroke-width:16;stroke-linecap:round;stroke-linejoin:round;stroke-miterlimit:10;}
	.st7{fill:#F7E8AD;}
	.st8{fill:#F7D6A1;}
	.st9{fill:#EFCA92;}
	.st10{fill:#FFFFFF;}
	.st11{opacity:0.89;fill:#EFCA92;}
	.st12{fill:none;stroke:#413D51;stroke-width:8;stroke-linecap:round;stroke-linejoin:round;stroke-miterlimit:10;}
	.st13{opacity:0.31;fill:none;stroke:#72C8D6;stroke-width:8;stroke-linecap:round;stroke-linejoin:round;stroke-miterlimit:10;}
</style>
  </defs>
  <rect class="st0" width="1000" height="1000" style="opacity: 0;"/>
  <g>
    <ellipse id="XMLID_2_" class="st2" cx="501.8" cy="487.5" rx="228" ry="205.8"/>
    <ellipse id="XMLID_188_" class="st2" cx="501.8" cy="487.5" rx="228" ry="205.8"/>
    <path id="XMLID_193_" class="st3" d="M507.8,689.3c52.1,0,100.1-15.3,138.5-41l-10.5-24.7c-22-51.9-74.2-85.8-132.1-85.8l0,0 c-57.9,0-110.1,33.9-132.1,85.8l-8.6,20.4C402.3,672.3,452.8,689.3,507.8,689.3z"/>
    <path id="XMLID_189_" class="st4" d="M501.7,470.3l-43.6,64l32.9,43.8c5.4,7.2,16.3,7.2,21.7,0l32.6-43.8L501.7,470.3z"/>
    <path id="XMLID_192_" class="st5" d="M501.8,669.3c-121.5,0-220.7-85.7-227.6-193.8c-0.3,4-0.4,8-0.4,12 c0,113.6,102.1,205.8,228,205.8s228-92.1,228-205.8c0-4-0.1-8-0.4-12C722.5,583.6,623.2,669.3,501.8,669.3z"/>
    <path id="XMLID_76_" class="st4" d="M638.6,628.1c-38.1,25.8-85.5,41.2-136.8,41.2c-50,0-96.2-14.5-133.7-39.1l-5,12.3 c39.4,29.2,89.8,46.8,144.8,46.8c49.7,0,95.7-14.4,133.2-38.8c1.8-1.2,3.5-2.5,5.3-3.8L638.6,628.1z"/>
    <path id="XMLID_186_" class="st5" d="M268.2,488.2c6.4,13.1,15,25.3,25.8,36.2c52.3,52.3,137.2,52.3,189.5,0 c43.8-43.8,50.9-110.3,21.5-161.5"/>
    <path id="XMLID_185_" class="st5" d="M729,503.8c-24,36.1-65,59.8-111.6,59.8c-74,0-134-60-134-134c0-33,11.9-63.2,31.7-86.6"/>
    <ellipse id="XMLID_75_" class="st6" cx="501.8" cy="487.5" rx="228" ry="205.8"/>
    <polygon id="XMLID_74_" class="st1" points="501.7,442.3 458.1,506.3 501.9,564.6 545.4,506.3 &#9;"/>
    <polygon id="XMLID_73_" class="st6" points="501.7,442.3 458.1,506.3 501.9,564.6 545.4,506.3 &#9;"/>
    <path id="XMLID_72_" class="st1" d="M600.7,303.9c-30-14-64.1-21.9-100-21.9s-70,7.9-100,21.9v140.1h200V303.9z"/>
    <g id="XMLID_58_">
      <path id="XMLID_71_" class="st1" d="M613.5,317.9l108.7-3.3c-15.7,39.3-17.8,98.4-4.1,163c-17.4,36.8-54.4,62.9-97.9,64.2l0,0 c-61.8,1.9-113.5-46.7-115.3-108.6l0,0C503,371.4,551.6,319.8,613.5,317.9z"/>
      <path id="XMLID_70_" class="st6" d="M613.5,317.9l108.7-3.3c-15.7,39.3-17.8,98.4-4.1,163c-17.4,36.8-54.4,62.9-97.9,64.2l0,0 c-61.8,1.9-113.5-46.7-115.3-108.6l0,0C503,371.4,551.6,319.8,613.5,317.9z"/>
      <circle id="XMLID_69_" class="st7" cx="617.4" cy="429.7" r="112"/>
      <circle id="XMLID_5_" class="st7" cx="617.4" cy="429.7" r="112"/>
      <path id="XMLID_86_" class="st8" d="M696.6,350.5c-21.5-21.5-49.7-32.4-77.9-32.8c21.2,4.1,41.5,14.3,57.9,30.8 c43.7,43.7,43.7,114.6,0,158.4c-22.2,22.2-51.4,33.1-80.4,32.8c35.3,6.8,73.1-3.5,100.4-30.8C740.3,465.1,740.3,394.2,696.6,350.5 z"/>
      <ellipse id="XMLID_3_" transform="matrix(0.7071 -0.7071 0.7071 0.7071 -130.8246 543.5441)" class="st0" cx="590.7" cy="429.7" rx="84" ry="84.6"/>
      <path id="XMLID_12_" class="st9" d="M711.4,376.6c-3.1-4-9.1-15-12.8-18.7c-44-43.4-114.9-43-158.3,1.1 c-8.6,8.7-15.5,18.5-20.6,29C581.4,366.3,649,371.5,711.4,376.6z"/>
      <circle id="XMLID_68_" class="st6" cx="617.4" cy="429.7" r="112"/>
      <circle id="XMLID_67_" class="st6" cx="617.4" cy="429.7" r="112"/>
      <path id="XMLID_66_" class="st1" d="M706.7,362.1c-3.1-4-6.4-7.9-10.1-11.6c-43.7-43.7-114.6-43.7-158.4,0 c-8.7,8.7-15.6,18.4-20.8,28.8C579.4,358.1,644.3,356.5,706.7,362.1z"/>
      <circle id="XMLID_57_" class="st1" cx="562.9" cy="438.1" r="42"/>
      <circle id="XMLID_56_" class="st10" cx="539.1" cy="438.4" r="14"/>
    </g>
    <g id="XMLID_26_">
      <path id="XMLID_89_" class="st1" d="M388.8,317.9L280,314.6c15.7,39.3,17.8,98.4,4.1,163c17.4,36.8,54.4,62.9,97.9,64.2l0,0 c61.8,1.9,113.5-46.7,115.3-108.6l0,0C499.2,371.4,450.6,319.8,388.8,317.9z"/>
      <path id="XMLID_88_" class="st6" d="M388.8,317.9L280,314.6c15.7,39.3,17.8,98.4,4.1,163c17.4,36.8,54.4,62.9,97.9,64.2l0,0 c61.8,1.9,113.5-46.7,115.3-108.6l0,0C499.2,371.4,450.6,319.8,388.8,317.9z"/>
      <circle id="XMLID_87_" class="st7" cx="384.8" cy="429.7" r="112"/>
      <circle id="XMLID_84_" class="st7" cx="384.8" cy="429.7" r="112"/>
      <path id="XMLID_65_" class="st8" d="M305.6,350.5c21.5-21.5,49.7-32.4,77.9-32.8c-21.2,4.1-41.5,14.3-57.9,30.8 c-43.7,43.7-43.7,114.6,0,158.4c22.2,22.2,51.4,33.1,80.4,32.8c-35.3,6.8-73.1-3.5-100.4-30.8 C261.9,465.1,261.9,394.2,305.6,350.5z"/>
      <ellipse id="XMLID_64_" transform="matrix(0.7071 -0.7071 0.7071 0.7071 -183.3021 416.8521)" class="st0" cx="411.5" cy="429.7" rx="84.6" ry="84"/>
      <path id="XMLID_63_" class="st11" d="M290.9,376.6c3.1-4,9.1-15,12.8-18.7c44-43.4,114.9-43,158.3,1.1c8.6,8.7,15.5,18.5,20.6,29 C420.8,366.3,353.2,371.5,290.9,376.6z"/>
      <circle id="XMLID_62_" class="st6" cx="384.8" cy="429.7" r="112"/>
      <circle id="XMLID_61_" class="st6" cx="384.8" cy="429.7" r="112"/>
      <path id="XMLID_60_" class="st1" d="M295.6,362.1c3.1-4,6.4-7.9,10.1-11.6c43.7-43.7,114.6-43.7,158.4,0 c8.7,8.7,15.6,18.4,20.8,28.8C422.9,358.1,357.9,356.5,295.6,362.1z"/>
      <circle id="XMLID_59_" class="st1" cx="439.4" cy="438.1" r="42"/>
      <circle id="XMLID_37_" class="st10" cx="463.2" cy="438.4" r="14"/>
    </g>
    <path id="XMLID_19_" class="st1" d="M447.9,718.3L447.9,718.3c-8.8,0-16-7.2-16-16v-18c0-8.8,7.2-16,16-16h0c8.8,0,16,7.2,16,16v18 C463.9,711.1,456.8,718.3,447.9,718.3z"/>
    <path id="XMLID_17_" class="st1" d="M415.9,718.3L415.9,718.3c-8.8,0-16-7.2-16-16v-18c0-8.8,7.2-16,16-16h0c8.8,0,16,7.2,16,16v18 C431.9,711.1,424.8,718.3,415.9,718.3z"/>
    <path id="XMLID_16_" class="st1" d="M479.7,718.3L479.7,718.3c-8.8,0-16-7.2-16-16v-18c0-8.8,7.2-16,16-16h0c8.8,0,16,7.2,16,16v18 C495.7,711.1,488.5,718.3,479.7,718.3z"/>
    <path id="XMLID_15_" class="st1" d="M521.9,718.3L521.9,718.3c-8.8,0-16-7.2-16-16v-18c0-8.8,7.2-16,16-16h0c8.8,0,16,7.2,16,16v18 C537.9,711.1,530.7,718.3,521.9,718.3z"/>
    <path id="XMLID_14_" class="st1" d="M553.7,718.3L553.7,718.3c-8.8,0-16-7.2-16-16v-18c0-8.8,7.2-16,16-16h0c8.8,0,16,7.2,16,16v18 C569.7,711.1,562.5,718.3,553.7,718.3z"/>
    <path id="XMLID_13_" class="st1" d="M585.7,718.3L585.7,718.3c-8.8,0-16-7.2-16-16v-18c0-8.8,7.2-16,16-16h0c8.8,0,16,7.2,16,16v18 C601.7,711.1,594.5,718.3,585.7,718.3z"/>
    <path id="XMLID_11_" class="st12" d="M491.9,587.6c0,8.4-6.8,15.2-15.2,15.2c-8.4,0-15.2-6.8-15.2-15.2"/>
    <path id="XMLID_9_" class="st12" d="M538.4,587.6c0,8.4-6.8,15.2-15.2,15.2c-8.4,0-15.2-6.8-15.2-15.2"/>
    <path id="XMLID_10_" class="st13" d="M323,548.8c-2.2,4.7-7.7,6.8-12.5,4.6s-6.8-7.7-4.6-12.5"/>
    <path id="XMLID_1_" class="st13" d="M352.8,564.3c-2.2,4.7-7.7,6.8-12.5,4.6c-4.7-2.2-6.8-7.7-4.6-12.5"/>
    <path id="XMLID_78_" class="st13" d="M335.5,576.2c-2.2,4.7-7.7,6.8-12.5,4.6c-4.7-2.2-6.8-7.7-4.6-12.5"/>
    <path id="XMLID_77_" class="st13" d="M361.7,596.1c-2.2,4.7-7.7,6.8-12.5,4.6c-4.7-2.2-6.8-7.7-4.6-12.5"/>
    <path id="XMLID_79_" class="st13" d="M381.7,578.1c-2.2,4.7-7.7,6.8-12.5,4.6c-4.7-2.2-6.8-7.7-4.6-12.5"/>
    <path id="XMLID_85_" class="st13" d="M683.7,550.8c2.2,4.7,7.7,6.8,12.5,4.6s6.8-7.7,4.6-12.5"/>
    <path id="XMLID_83_" class="st13" d="M654,566.3c2.2,4.7,7.7,6.8,12.5,4.6c4.7-2.2,6.8-7.7,4.6-12.5"/>
    <path id="XMLID_82_" class="st13" d="M671.2,578.2c2.2,4.7,7.7,6.8,12.5,4.6c4.7-2.2,6.8-7.7,4.6-12.5"/>
    <path id="XMLID_81_" class="st13" d="M645.1,598.1c2.2,4.7,7.7,6.8,12.5,4.6c4.7-2.2,6.8-7.7,4.6-12.5"/>
    <path id="XMLID_80_" class="st13" d="M625.1,580.1c2.2,4.7,7.7,6.8,12.5,4.6c4.7-2.2,6.8-7.7,4.6-12.5"/>
    <path id="XMLID_8_" class="st12" d="M468.7,624.1c0,8.4-6.8,15.2-15.2,15.2c-8.4,0-15.2-6.8-15.2-15.2"/>
    <path id="XMLID_7_" class="st12" d="M515.2,624.1c0,8.4-6.8,15.2-15.2,15.2s-15.2-6.8-15.2-15.2"/>
    <path id="XMLID_6_" class="st12" d="M561.7,624.1c0,8.4-6.8,15.2-15.2,15.2c-8.4,0-15.2-6.8-15.2-15.2"/>
  </g>
  <path d="M 162.934 781.709 L 149.584 781.709 Q 147.893 781.709 147.136 780.952 Q 146.38 780.196 146.38 778.505 L 146.38 720.833 Q 146.38 719.142 147.136 718.385 Q 147.893 717.629 149.584 717.629 L 158.84 717.629 Q 160.531 717.629 161.732 718.163 Q 162.934 718.697 164.091 720.032 L 181.357 739.79 L 181.357 720.833 Q 181.357 719.142 182.113 718.385 Q 182.87 717.629 184.561 717.629 L 197.911 717.629 Q 199.602 717.629 200.358 718.385 Q 201.115 719.142 201.115 720.833 L 201.115 778.505 Q 201.115 780.196 200.358 780.952 Q 199.602 781.709 197.911 781.709 L 184.561 781.709 Q 182.87 781.709 182.113 780.952 Q 181.357 780.196 181.357 778.505 L 181.357 767.558 L 166.138 749.135 L 166.138 778.505 Q 166.138 780.196 165.381 780.952 Q 164.625 781.709 162.934 781.709 Z" style="fill: rgb(65, 61, 81); white-space: pre;"/>
  <path d="M 243.122 781.709 L 214.998 781.709 Q 213.307 781.709 212.55 780.952 Q 211.794 780.196 211.794 778.505 L 211.794 768.092 Q 211.794 766.401 212.55 765.644 Q 213.307 764.888 214.998 764.888 L 238.939 764.888 Q 240.096 764.888 240.674 764.131 Q 241.253 763.375 241.253 762.307 Q 241.253 760.794 240.674 760.082 Q 240.096 759.37 238.939 759.281 L 225.589 757.412 Q 219.359 756.522 215.576 753.318 Q 211.794 750.114 211.794 742.638 L 211.794 733.293 Q 211.794 725.728 216.689 721.678 Q 221.584 717.629 230.217 717.629 L 255.137 717.629 Q 256.828 717.629 257.584 718.385 Q 258.341 719.142 258.341 720.833 L 258.341 731.424 Q 258.341 733.115 257.584 733.871 Q 256.828 734.628 255.137 734.628 L 234.4 734.628 Q 233.243 734.628 232.62 735.384 Q 231.997 736.141 231.997 737.298 Q 231.997 738.455 232.62 739.256 Q 233.243 740.057 234.4 740.146 L 247.661 741.926 Q 253.891 742.816 257.718 746.02 Q 261.545 749.224 261.545 756.7 L 261.545 766.045 Q 261.545 773.61 256.605 777.659 Q 251.666 781.709 243.122 781.709 Z" style="fill: rgb(65, 61, 81); white-space: pre;"/>
  <path d="M 325.796 764.888 Q 325.796 768.982 324.595 772.319 Q 323.393 775.657 320.323 778.015 Q 317.252 780.374 311.912 781.709 Q 306.572 783.044 298.295 783.044 Q 290.018 783.044 284.678 781.709 Q 279.338 780.374 276.268 778.015 Q 273.197 775.657 271.996 772.319 Q 270.794 768.982 270.794 764.888 L 270.794 720.833 Q 270.794 719.142 271.551 718.385 Q 272.307 717.629 273.998 717.629 L 287.971 717.629 Q 289.662 717.629 290.419 718.385 Q 291.175 719.142 291.175 720.833 L 291.175 761.417 Q 291.175 763.197 292.51 764.398 Q 293.845 765.6 298.473 765.6 Q 303.19 765.6 304.525 764.398 Q 305.86 763.197 305.86 761.417 L 305.86 720.833 Q 305.86 719.142 306.617 718.385 Q 307.373 717.629 309.064 717.629 L 322.592 717.629 Q 324.283 717.629 325.04 718.385 Q 325.796 719.142 325.796 720.833 Z" style="fill: rgb(65, 61, 81); white-space: pre;"/>
  <path d="M 367.356 781.709 L 339.232 781.709 Q 337.541 781.709 336.785 780.952 Q 336.028 780.196 336.028 778.505 L 336.028 768.092 Q 336.028 766.401 336.785 765.644 Q 337.541 764.888 339.232 764.888 L 363.173 764.888 Q 364.33 764.888 364.909 764.131 Q 365.487 763.375 365.487 762.307 Q 365.487 760.794 364.909 760.082 Q 364.33 759.37 363.173 759.281 L 349.823 757.412 Q 343.593 756.522 339.811 753.318 Q 336.028 750.114 336.028 742.638 L 336.028 733.293 Q 336.028 725.728 340.923 721.678 Q 345.818 717.629 354.451 717.629 L 379.371 717.629 Q 381.062 717.629 381.819 718.385 Q 382.575 719.142 382.575 720.833 L 382.575 731.424 Q 382.575 733.115 381.819 733.871 Q 381.062 734.628 379.371 734.628 L 358.634 734.628 Q 357.477 734.628 356.854 735.384 Q 356.231 736.141 356.231 737.298 Q 356.231 738.455 356.854 739.256 Q 357.477 740.057 358.634 740.146 L 371.895 741.926 Q 378.125 742.816 381.952 746.02 Q 385.779 749.224 385.779 756.7 L 385.779 766.045 Q 385.779 773.61 380.84 777.659 Q 375.9 781.709 367.356 781.709 Z" style="fill: rgb(65, 61, 81); white-space: pre;"/>
  <path d="M 424.859 781.709 L 410.441 781.709 Q 408.75 781.709 407.993 780.952 Q 407.237 780.196 407.237 778.505 L 407.237 734.806 L 394.154 734.806 Q 392.463 734.806 391.706 734.049 Q 390.95 733.293 390.95 731.602 L 390.95 720.833 Q 390.95 719.142 391.706 718.385 Q 392.463 717.629 394.154 717.629 L 441.146 717.629 Q 442.837 717.629 443.593 718.385 Q 444.35 719.142 444.35 720.833 L 444.35 731.602 Q 444.35 733.293 443.593 734.049 Q 442.837 734.806 441.146 734.806 L 428.063 734.806 L 428.063 778.505 Q 428.063 780.196 427.306 780.952 Q 426.55 781.709 424.859 781.709 Z" style="fill: rgb(65, 61, 81); white-space: pre;"/>
  <path d="M 472.64 736.319 L 468.457 749.847 L 482.43 749.847 L 478.247 736.319 Q 477.891 735.518 477.491 735.162 Q 477.09 734.806 476.556 734.806 L 474.331 734.806 Q 473.797 734.806 473.397 735.162 Q 472.996 735.518 472.64 736.319 Z M 467.567 778.505 Q 467.567 780.196 466.811 780.952 Q 466.054 781.709 464.363 781.709 L 451.28 781.709 Q 449.589 781.709 448.833 780.952 Q 448.076 780.196 448.076 778.505 L 448.076 755.009 Q 448.076 752.339 448.922 748.868 Q 449.767 745.397 451.547 740.769 L 459.29 720.566 Q 459.824 719.053 460.937 718.341 Q 462.049 717.629 463.829 717.629 L 487.77 717.629 Q 489.461 717.629 490.574 718.341 Q 491.686 719.053 492.22 720.566 L 499.963 740.769 Q 501.743 745.397 502.589 748.868 Q 503.434 752.339 503.434 755.009 L 503.434 778.505 Q 503.434 780.196 502.678 780.952 Q 501.921 781.709 500.23 781.709 L 486.791 781.709 Q 485.011 781.709 484.166 780.952 Q 483.32 780.196 483.32 778.505 L 483.32 766.045 L 467.567 766.045 Z" style="fill: rgb(65, 61, 81); white-space: pre;"/>
  <path d="M 516.16 781.709 Q 514.469 781.709 513.713 780.952 Q 512.956 780.196 512.956 778.505 L 512.956 767.914 Q 512.956 766.223 513.713 765.466 Q 514.469 764.71 516.16 764.71 L 524.971 764.71 L 524.971 734.806 L 516.16 734.806 Q 514.469 734.806 513.713 734.049 Q 512.956 733.293 512.956 731.602 L 512.956 720.833 Q 512.956 719.142 513.713 718.385 Q 514.469 717.629 516.16 717.629 L 554.074 717.629 Q 555.765 717.629 556.522 718.385 Q 557.278 719.142 557.278 720.833 L 557.278 731.602 Q 557.278 733.293 556.522 734.049 Q 555.765 734.806 554.074 734.806 L 545.441 734.806 L 545.441 764.71 L 554.074 764.71 Q 555.765 764.71 556.522 765.466 Q 557.278 766.223 557.278 767.914 L 557.278 778.505 Q 557.278 780.196 556.522 780.952 Q 555.765 781.709 554.074 781.709 Z" style="fill: rgb(65, 61, 81); white-space: pre;"/>
  <path d="M 584.793 781.709 L 571.443 781.709 Q 569.752 781.709 568.996 780.952 Q 568.239 780.196 568.239 778.505 L 568.239 720.833 Q 568.239 719.142 568.996 718.385 Q 569.752 717.629 571.443 717.629 L 580.699 717.629 Q 582.39 717.629 583.592 718.163 Q 584.793 718.697 585.95 720.032 L 603.216 739.79 L 603.216 720.833 Q 603.216 719.142 603.973 718.385 Q 604.729 717.629 606.42 717.629 L 619.77 717.629 Q 621.461 717.629 622.218 718.385 Q 622.974 719.142 622.974 720.833 L 622.974 778.505 Q 622.974 780.196 622.218 780.952 Q 621.461 781.709 619.77 781.709 L 606.42 781.709 Q 604.729 781.709 603.973 780.952 Q 603.216 780.196 603.216 778.505 L 603.216 767.558 L 587.997 749.135 L 587.997 778.505 Q 587.997 780.196 587.241 780.952 Q 586.484 781.709 584.793 781.709 Z" style="fill: rgb(65, 61, 81); white-space: pre;"/>
  <path d="M 655.191 781.709 L 637.213 781.709 Q 635.522 781.709 634.766 780.952 Q 634.009 780.196 634.009 778.505 L 634.009 760.438 Q 634.009 758.747 634.766 757.99 Q 635.522 757.234 637.213 757.234 L 655.191 757.234 Q 656.882 757.234 657.639 757.99 Q 658.395 758.747 658.395 760.438 L 658.395 778.505 Q 658.395 780.196 657.639 780.952 Q 656.882 781.709 655.191 781.709 Z" style="fill: rgb(65, 61, 81); white-space: pre;"/>
  <path d="M 712.058 781.709 L 690.342 781.709 Q 679.217 781.709 673.832 777.259 Q 668.448 772.809 668.448 763.553 L 668.448 735.874 Q 668.448 726.618 673.832 722.123 Q 679.217 717.629 690.342 717.629 L 712.058 717.629 Q 713.749 717.629 714.505 718.385 Q 715.262 719.142 715.262 720.833 L 715.262 731.602 Q 715.262 733.293 714.505 734.049 Q 713.749 734.806 712.058 734.806 L 694.169 734.806 Q 691.41 734.806 690.075 735.918 Q 688.74 737.031 688.74 739.256 L 688.74 760.438 Q 688.74 762.663 690.075 763.686 Q 691.41 764.71 694.169 764.71 L 712.058 764.71 Q 713.749 764.71 714.505 765.466 Q 715.262 766.223 715.262 767.914 L 715.262 778.505 Q 715.262 780.196 714.505 780.952 Q 713.749 781.709 712.058 781.709 Z" style="fill: rgb(65, 61, 81); white-space: pre;"/>
  <path d="M 779.154 764.888 Q 779.154 768.982 777.953 772.319 Q 776.751 775.657 773.681 778.015 Q 770.61 780.374 765.226 781.709 Q 759.841 783.044 751.564 783.044 Q 743.287 783.044 737.858 781.709 Q 732.429 780.374 729.359 778.015 Q 726.288 775.657 725.087 772.319 Q 723.885 768.982 723.885 764.888 L 723.885 734.539 Q 723.885 730.445 725.087 727.107 Q 726.288 723.77 729.359 721.367 Q 732.429 718.964 737.858 717.629 Q 743.287 716.294 751.564 716.294 Q 759.841 716.294 765.226 717.629 Q 770.61 718.964 773.681 721.367 Q 776.751 723.77 777.953 727.107 Q 779.154 730.445 779.154 734.539 Z M 744.088 761.684 Q 744.088 763.464 745.423 764.665 Q 746.758 765.867 751.564 765.867 Q 756.37 765.867 757.705 764.665 Q 759.04 763.464 759.04 761.684 L 759.04 737.743 Q 759.04 736.052 757.705 734.85 Q 756.37 733.649 751.564 733.649 Q 746.758 733.649 745.423 734.85 Q 744.088 736.052 744.088 737.743 Z" style="fill: rgb(65, 61, 81); white-space: pre;"/>
  <path d="M 806.923 781.709 L 793.662 781.709 Q 791.971 781.709 791.215 780.952 Q 790.458 780.196 790.458 778.505 L 790.458 720.833 Q 790.458 719.142 791.215 718.385 Q 791.971 717.629 793.662 717.629 L 807.991 717.629 Q 809.415 717.629 810.35 718.252 Q 811.284 718.875 812.085 720.299 L 820.095 734.806 Q 820.54 735.607 820.852 735.963 Q 821.163 736.319 821.697 736.319 L 822.498 736.319 Q 823.032 736.319 823.344 735.963 Q 823.655 735.607 824.1 734.806 L 832.021 720.299 Q 832.822 718.875 833.757 718.252 Q 834.691 717.629 836.115 717.629 L 850.533 717.629 Q 852.224 717.629 852.981 718.385 Q 853.737 719.142 853.737 720.833 L 853.737 778.505 Q 853.737 780.196 852.981 780.952 Q 852.224 781.709 850.533 781.709 L 836.827 781.709 Q 835.136 781.709 834.38 780.952 Q 833.623 780.196 833.623 778.505 L 833.623 747.177 L 828.372 756.878 Q 827.571 758.391 826.459 759.058 Q 825.346 759.726 823.655 759.726 L 820.095 759.726 Q 818.404 759.726 817.292 759.058 Q 816.179 758.391 815.378 756.878 L 810.127 747.177 L 810.127 778.505 Q 810.127 780.196 809.371 780.952 Q 808.614 781.709 806.923 781.709 Z" style="fill: rgb(65, 61, 81); white-space: pre;"/>
</svg>