<?xml version="1.0" encoding="utf-8"?>
<svg viewBox="0 0 1280 640" style="enable-background:new 0 0 1000 1000;" xmlns="http://www.w3.org/2000/svg">
  <defs>
    <style type="text/css">
	.st0{opacity:0.7;fill:#FFFFFF;}
	.st1{fill:#413D51;}
	.st2{fill:#8FE3F9;}
	.st3{fill:#B2EBF9;}
	.st4{fill:#A4E0EA;}
	.st5{fill:#7AD1E5;}
	.st6{fill:none;stroke:#413D51;stroke-width:16;stroke-linecap:round;stroke-linejoin:round;stroke-miterlimit:10;}
	.st7{fill:#F7E8AD;}
	.st8{fill:#F7D6A1;}
	.st9{fill:#EFCA92;}
	.st10{fill:#FFFFFF;}
	.st11{opacity:0.89;fill:#EFCA92;}
	.st12{fill:none;stroke:#413D51;stroke-width:8;stroke-linecap:round;stroke-linejoin:round;stroke-miterlimit:10;}
	.st13{opacity:0.31;fill:none;stroke:#72C8D6;stroke-width:8;stroke-linecap:round;stroke-linejoin:round;stroke-miterlimit:10;}
</style>
  </defs>
  <rect class="st0" width="1280" height="640" style="opacity: 1;"/>
  <g transform="matrix(0.563983, 0, 0, 0.563983, 358.036285, -73.689796)" style="">
    <ellipse id="XMLID_2_" class="st2" cx="501.8" cy="487.5" rx="228" ry="205.8"/>
    <ellipse id="XMLID_188_" class="st2" cx="501.8" cy="487.5" rx="228" ry="205.8"/>
    <path id="XMLID_193_" class="st3" d="M507.8,689.3c52.1,0,100.1-15.3,138.5-41l-10.5-24.7c-22-51.9-74.2-85.8-132.1-85.8l0,0 c-57.9,0-110.1,33.9-132.1,85.8l-8.6,20.4C402.3,672.3,452.8,689.3,507.8,689.3z"/>
    <path id="XMLID_189_" class="st4" d="M501.7,470.3l-43.6,64l32.9,43.8c5.4,7.2,16.3,7.2,21.7,0l32.6-43.8L501.7,470.3z"/>
    <path id="XMLID_192_" class="st5" d="M501.8,669.3c-121.5,0-220.7-85.7-227.6-193.8c-0.3,4-0.4,8-0.4,12 c0,113.6,102.1,205.8,228,205.8s228-92.1,228-205.8c0-4-0.1-8-0.4-12C722.5,583.6,623.2,669.3,501.8,669.3z"/>
    <path id="XMLID_76_" class="st4" d="M638.6,628.1c-38.1,25.8-85.5,41.2-136.8,41.2c-50,0-96.2-14.5-133.7-39.1l-5,12.3 c39.4,29.2,89.8,46.8,144.8,46.8c49.7,0,95.7-14.4,133.2-38.8c1.8-1.2,3.5-2.5,5.3-3.8L638.6,628.1z"/>
    <path id="XMLID_186_" class="st5" d="M268.2,488.2c6.4,13.1,15,25.3,25.8,36.2c52.3,52.3,137.2,52.3,189.5,0 c43.8-43.8,50.9-110.3,21.5-161.5"/>
    <path id="XMLID_185_" class="st5" d="M729,503.8c-24,36.1-65,59.8-111.6,59.8c-74,0-134-60-134-134c0-33,11.9-63.2,31.7-86.6"/>
    <ellipse id="XMLID_75_" class="st6" cx="501.8" cy="487.5" rx="228" ry="205.8"/>
    <polygon id="XMLID_74_" class="st1" points="501.7,442.3 458.1,506.3 501.9,564.6 545.4,506.3 &#9;"/>
    <polygon id="XMLID_73_" class="st6" points="501.7,442.3 458.1,506.3 501.9,564.6 545.4,506.3 &#9;"/>
    <path id="XMLID_72_" class="st1" d="M600.7,303.9c-30-14-64.1-21.9-100-21.9s-70,7.9-100,21.9v140.1h200V303.9z"/>
    <g id="XMLID_58_">
      <path id="XMLID_71_" class="st1" d="M613.5,317.9l108.7-3.3c-15.7,39.3-17.8,98.4-4.1,163c-17.4,36.8-54.4,62.9-97.9,64.2l0,0 c-61.8,1.9-113.5-46.7-115.3-108.6l0,0C503,371.4,551.6,319.8,613.5,317.9z"/>
      <path id="XMLID_70_" class="st6" d="M613.5,317.9l108.7-3.3c-15.7,39.3-17.8,98.4-4.1,163c-17.4,36.8-54.4,62.9-97.9,64.2l0,0 c-61.8,1.9-113.5-46.7-115.3-108.6l0,0C503,371.4,551.6,319.8,613.5,317.9z"/>
      <circle id="XMLID_69_" class="st7" cx="617.4" cy="429.7" r="112"/>
      <circle id="XMLID_5_" class="st7" cx="617.4" cy="429.7" r="112"/>
      <path id="XMLID_86_" class="st8" d="M696.6,350.5c-21.5-21.5-49.7-32.4-77.9-32.8c21.2,4.1,41.5,14.3,57.9,30.8 c43.7,43.7,43.7,114.6,0,158.4c-22.2,22.2-51.4,33.1-80.4,32.8c35.3,6.8,73.1-3.5,100.4-30.8C740.3,465.1,740.3,394.2,696.6,350.5 z"/>
      <ellipse id="XMLID_3_" transform="matrix(0.7071 -0.7071 0.7071 0.7071 -130.8246 543.5441)" class="st0" cx="590.7" cy="429.7" rx="84" ry="84.6"/>
      <path id="XMLID_12_" class="st9" d="M711.4,376.6c-3.1-4-9.1-15-12.8-18.7c-44-43.4-114.9-43-158.3,1.1 c-8.6,8.7-15.5,18.5-20.6,29C581.4,366.3,649,371.5,711.4,376.6z"/>
      <circle id="XMLID_68_" class="st6" cx="617.4" cy="429.7" r="112"/>
      <circle id="XMLID_67_" class="st6" cx="617.4" cy="429.7" r="112"/>
      <path id="XMLID_66_" class="st1" d="M706.7,362.1c-3.1-4-6.4-7.9-10.1-11.6c-43.7-43.7-114.6-43.7-158.4,0 c-8.7,8.7-15.6,18.4-20.8,28.8C579.4,358.1,644.3,356.5,706.7,362.1z"/>
      <circle id="XMLID_57_" class="st1" cx="562.9" cy="438.1" r="42"/>
      <circle id="XMLID_56_" class="st10" cx="539.1" cy="438.4" r="14"/>
    </g>
    <g id="XMLID_26_">
      <path id="XMLID_89_" class="st1" d="M388.8,317.9L280,314.6c15.7,39.3,17.8,98.4,4.1,163c17.4,36.8,54.4,62.9,97.9,64.2l0,0 c61.8,1.9,113.5-46.7,115.3-108.6l0,0C499.2,371.4,450.6,319.8,388.8,317.9z"/>
      <path id="XMLID_88_" class="st6" d="M388.8,317.9L280,314.6c15.7,39.3,17.8,98.4,4.1,163c17.4,36.8,54.4,62.9,97.9,64.2l0,0 c61.8,1.9,113.5-46.7,115.3-108.6l0,0C499.2,371.4,450.6,319.8,388.8,317.9z"/>
      <circle id="XMLID_87_" class="st7" cx="384.8" cy="429.7" r="112"/>
      <circle id="XMLID_84_" class="st7" cx="384.8" cy="429.7" r="112"/>
      <path id="XMLID_65_" class="st8" d="M305.6,350.5c21.5-21.5,49.7-32.4,77.9-32.8c-21.2,4.1-41.5,14.3-57.9,30.8 c-43.7,43.7-43.7,114.6,0,158.4c22.2,22.2,51.4,33.1,80.4,32.8c-35.3,6.8-73.1-3.5-100.4-30.8 C261.9,465.1,261.9,394.2,305.6,350.5z"/>
      <ellipse id="XMLID_64_" transform="matrix(0.7071 -0.7071 0.7071 0.7071 -183.3021 416.8521)" class="st0" cx="411.5" cy="429.7" rx="84.6" ry="84"/>
      <path id="XMLID_63_" class="st11" d="M290.9,376.6c3.1-4,9.1-15,12.8-18.7c44-43.4,114.9-43,158.3,1.1c8.6,8.7,15.5,18.5,20.6,29 C420.8,366.3,353.2,371.5,290.9,376.6z"/>
      <circle id="XMLID_62_" class="st6" cx="384.8" cy="429.7" r="112"/>
      <circle id="XMLID_61_" class="st6" cx="384.8" cy="429.7" r="112"/>
      <path id="XMLID_60_" class="st1" d="M295.6,362.1c3.1-4,6.4-7.9,10.1-11.6c43.7-43.7,114.6-43.7,158.4,0 c8.7,8.7,15.6,18.4,20.8,28.8C422.9,358.1,357.9,356.5,295.6,362.1z"/>
      <circle id="XMLID_59_" class="st1" cx="439.4" cy="438.1" r="42"/>
      <circle id="XMLID_37_" class="st10" cx="463.2" cy="438.4" r="14"/>
    </g>
    <path id="XMLID_19_" class="st1" d="M447.9,718.3L447.9,718.3c-8.8,0-16-7.2-16-16v-18c0-8.8,7.2-16,16-16h0c8.8,0,16,7.2,16,16v18 C463.9,711.1,456.8,718.3,447.9,718.3z"/>
    <path id="XMLID_17_" class="st1" d="M415.9,718.3L415.9,718.3c-8.8,0-16-7.2-16-16v-18c0-8.8,7.2-16,16-16h0c8.8,0,16,7.2,16,16v18 C431.9,711.1,424.8,718.3,415.9,718.3z"/>
    <path id="XMLID_16_" class="st1" d="M479.7,718.3L479.7,718.3c-8.8,0-16-7.2-16-16v-18c0-8.8,7.2-16,16-16h0c8.8,0,16,7.2,16,16v18 C495.7,711.1,488.5,718.3,479.7,718.3z"/>
    <path id="XMLID_15_" class="st1" d="M521.9,718.3L521.9,718.3c-8.8,0-16-7.2-16-16v-18c0-8.8,7.2-16,16-16h0c8.8,0,16,7.2,16,16v18 C537.9,711.1,530.7,718.3,521.9,718.3z"/>
    <path id="XMLID_14_" class="st1" d="M553.7,718.3L553.7,718.3c-8.8,0-16-7.2-16-16v-18c0-8.8,7.2-16,16-16h0c8.8,0,16,7.2,16,16v18 C569.7,711.1,562.5,718.3,553.7,718.3z"/>
    <path id="XMLID_13_" class="st1" d="M585.7,718.3L585.7,718.3c-8.8,0-16-7.2-16-16v-18c0-8.8,7.2-16,16-16h0c8.8,0,16,7.2,16,16v18 C601.7,711.1,594.5,718.3,585.7,718.3z"/>
    <path id="XMLID_11_" class="st12" d="M491.9,587.6c0,8.4-6.8,15.2-15.2,15.2c-8.4,0-15.2-6.8-15.2-15.2"/>
    <path id="XMLID_9_" class="st12" d="M538.4,587.6c0,8.4-6.8,15.2-15.2,15.2c-8.4,0-15.2-6.8-15.2-15.2"/>
    <path id="XMLID_10_" class="st13" d="M323,548.8c-2.2,4.7-7.7,6.8-12.5,4.6s-6.8-7.7-4.6-12.5"/>
    <path id="XMLID_1_" class="st13" d="M352.8,564.3c-2.2,4.7-7.7,6.8-12.5,4.6c-4.7-2.2-6.8-7.7-4.6-12.5"/>
    <path id="XMLID_78_" class="st13" d="M335.5,576.2c-2.2,4.7-7.7,6.8-12.5,4.6c-4.7-2.2-6.8-7.7-4.6-12.5"/>
    <path id="XMLID_77_" class="st13" d="M361.7,596.1c-2.2,4.7-7.7,6.8-12.5,4.6c-4.7-2.2-6.8-7.7-4.6-12.5"/>
    <path id="XMLID_79_" class="st13" d="M381.7,578.1c-2.2,4.7-7.7,6.8-12.5,4.6c-4.7-2.2-6.8-7.7-4.6-12.5"/>
    <path id="XMLID_85_" class="st13" d="M683.7,550.8c2.2,4.7,7.7,6.8,12.5,4.6s6.8-7.7,4.6-12.5"/>
    <path id="XMLID_83_" class="st13" d="M654,566.3c2.2,4.7,7.7,6.8,12.5,4.6c4.7-2.2,6.8-7.7,4.6-12.5"/>
    <path id="XMLID_82_" class="st13" d="M671.2,578.2c2.2,4.7,7.7,6.8,12.5,4.6c4.7-2.2,6.8-7.7,4.6-12.5"/>
    <path id="XMLID_81_" class="st13" d="M645.1,598.1c2.2,4.7,7.7,6.8,12.5,4.6c4.7-2.2,6.8-7.7,4.6-12.5"/>
    <path id="XMLID_80_" class="st13" d="M625.1,580.1c2.2,4.7,7.7,6.8,12.5,4.6c4.7-2.2,6.8-7.7,4.6-12.5"/>
    <path id="XMLID_8_" class="st12" d="M468.7,624.1c0,8.4-6.8,15.2-15.2,15.2c-8.4,0-15.2-6.8-15.2-15.2"/>
    <path id="XMLID_7_" class="st12" d="M515.2,624.1c0,8.4-6.8,15.2-15.2,15.2s-15.2-6.8-15.2-15.2"/>
    <path id="XMLID_6_" class="st12" d="M561.7,624.1c0,8.4-6.8,15.2-15.2,15.2c-8.4,0-15.2-6.8-15.2-15.2"/>
  </g>
  <path d="M 449.93 367.181 L 442.4 367.181 Q 441.446 367.181 441.019 366.754 Q 440.593 366.328 440.593 365.374 L 440.593 332.844 Q 440.593 331.89 441.019 331.464 Q 441.446 331.037 442.4 331.037 L 447.621 331.037 Q 448.575 331.037 449.252 331.338 Q 449.93 331.639 450.583 332.392 L 460.321 343.537 L 460.321 332.844 Q 460.321 331.89 460.748 331.464 Q 461.175 331.037 462.129 331.037 L 469.659 331.037 Q 470.612 331.037 471.039 331.464 Q 471.466 331.89 471.466 332.844 L 471.466 365.374 Q 471.466 366.328 471.039 366.754 Q 470.612 367.181 469.659 367.181 L 462.129 367.181 Q 461.175 367.181 460.748 366.754 Q 460.321 366.328 460.321 365.374 L 460.321 359.199 L 451.737 348.808 L 451.737 365.374 Q 451.737 366.328 451.31 366.754 Q 450.884 367.181 449.93 367.181 Z" style="fill: rgb(65, 61, 81); white-space: pre;"/>
  <path d="M 495.141 367.181 L 479.278 367.181 Q 478.324 367.181 477.897 366.754 Q 477.47 366.328 477.47 365.374 L 477.47 359.5 Q 477.47 358.547 477.897 358.12 Q 478.324 357.693 479.278 357.693 L 492.781 357.693 Q 493.434 357.693 493.76 357.266 Q 494.087 356.84 494.087 356.237 Q 494.087 355.384 493.76 354.982 Q 493.434 354.581 492.781 354.531 L 485.251 353.476 Q 481.737 352.974 479.604 351.167 Q 477.47 349.36 477.47 345.143 L 477.47 339.872 Q 477.47 335.605 480.231 333.321 Q 482.992 331.037 487.862 331.037 L 501.918 331.037 Q 502.872 331.037 503.298 331.464 Q 503.725 331.89 503.725 332.844 L 503.725 338.818 Q 503.725 339.772 503.298 340.198 Q 502.872 340.625 501.918 340.625 L 490.221 340.625 Q 489.569 340.625 489.217 341.052 Q 488.866 341.479 488.866 342.131 Q 488.866 342.784 489.217 343.236 Q 489.569 343.687 490.221 343.738 L 497.701 344.742 Q 501.215 345.244 503.374 347.051 Q 505.532 348.858 505.532 353.075 L 505.532 358.346 Q 505.532 362.613 502.746 364.897 Q 499.96 367.181 495.141 367.181 Z" style="fill: rgb(65, 61, 81); white-space: pre;"/>
  <path d="M 541.772 357.693 Q 541.772 360.002 541.094 361.885 Q 540.416 363.767 538.684 365.098 Q 536.952 366.428 533.94 367.181 Q 530.928 367.934 526.26 367.934 Q 521.591 367.934 518.579 367.181 Q 515.567 366.428 513.835 365.098 Q 512.103 363.767 511.426 361.885 Q 510.748 360.002 510.748 357.693 L 510.748 332.844 Q 510.748 331.89 511.175 331.464 Q 511.601 331.037 512.555 331.037 L 520.437 331.037 Q 521.39 331.037 521.817 331.464 Q 522.244 331.89 522.244 332.844 L 522.244 355.735 Q 522.244 356.739 522.997 357.417 Q 523.75 358.095 526.36 358.095 Q 529.021 358.095 529.774 357.417 Q 530.527 356.739 530.527 355.735 L 530.527 332.844 Q 530.527 331.89 530.954 331.464 Q 531.38 331.037 532.334 331.037 L 539.964 331.037 Q 540.918 331.037 541.345 331.464 Q 541.772 331.89 541.772 332.844 Z" style="fill: rgb(65, 61, 81); white-space: pre;"/>
  <path d="M 565.203 367.181 L 549.34 367.181 Q 548.386 367.181 547.96 366.754 Q 547.533 366.328 547.533 365.374 L 547.533 359.5 Q 547.533 358.547 547.96 358.12 Q 548.386 357.693 549.34 357.693 L 562.844 357.693 Q 563.497 357.693 563.823 357.266 Q 564.149 356.84 564.149 356.237 Q 564.149 355.384 563.823 354.982 Q 563.497 354.581 562.844 354.531 L 555.314 353.476 Q 551.8 352.974 549.666 351.167 Q 547.533 349.36 547.533 345.143 L 547.533 339.872 Q 547.533 335.605 550.294 333.321 Q 553.055 331.037 557.924 331.037 L 571.98 331.037 Q 572.934 331.037 573.361 331.464 Q 573.788 331.89 573.788 332.844 L 573.788 338.818 Q 573.788 339.772 573.361 340.198 Q 572.934 340.625 571.98 340.625 L 560.284 340.625 Q 559.631 340.625 559.28 341.052 Q 558.928 341.479 558.928 342.131 Q 558.928 342.784 559.28 343.236 Q 559.631 343.687 560.284 343.738 L 567.764 344.742 Q 571.278 345.244 573.436 347.051 Q 575.595 348.858 575.595 353.075 L 575.595 358.346 Q 575.595 362.613 572.809 364.897 Q 570.023 367.181 565.203 367.181 Z" style="fill: rgb(65, 61, 81); white-space: pre;"/>
  <path d="M 597.63 367.181 L 589.497 367.181 Q 588.543 367.181 588.117 366.754 Q 587.69 366.328 587.69 365.374 L 587.69 340.726 L 580.311 340.726 Q 579.357 340.726 578.93 340.299 Q 578.503 339.872 578.503 338.918 L 578.503 332.844 Q 578.503 331.89 578.93 331.464 Q 579.357 331.037 580.311 331.037 L 606.816 331.037 Q 607.77 331.037 608.197 331.464 Q 608.623 331.89 608.623 332.844 L 608.623 338.918 Q 608.623 339.872 608.197 340.299 Q 607.77 340.726 606.816 340.726 L 599.437 340.726 L 599.437 365.374 Q 599.437 366.328 599.01 366.754 Q 598.583 367.181 597.63 367.181 Z" style="fill: rgb(65, 61, 81); white-space: pre;"/>
  <path d="M 624.57 341.579 L 622.211 349.209 L 630.092 349.209 L 627.733 341.579 Q 627.532 341.127 627.306 340.926 Q 627.08 340.726 626.779 340.726 L 625.524 340.726 Q 625.223 340.726 624.997 340.926 Q 624.771 341.127 624.57 341.579 Z M 621.709 365.374 Q 621.709 366.328 621.282 366.754 Q 620.855 367.181 619.901 367.181 L 612.522 367.181 Q 611.568 367.181 611.142 366.754 Q 610.715 366.328 610.715 365.374 L 610.715 352.121 Q 610.715 350.615 611.192 348.657 Q 611.669 346.699 612.673 344.089 L 617.04 332.694 Q 617.341 331.84 617.969 331.439 Q 618.596 331.037 619.6 331.037 L 633.104 331.037 Q 634.058 331.037 634.685 331.439 Q 635.313 331.84 635.614 332.694 L 639.981 344.089 Q 640.985 346.699 641.462 348.657 Q 641.939 350.615 641.939 352.121 L 641.939 365.374 Q 641.939 366.328 641.513 366.754 Q 641.086 367.181 640.132 367.181 L 632.552 367.181 Q 631.548 367.181 631.071 366.754 Q 630.594 366.328 630.594 365.374 L 630.594 358.346 L 621.709 358.346 Z" style="fill: rgb(65, 61, 81); white-space: pre;"/>
  <path d="M 649.112 367.181 Q 648.159 367.181 647.732 366.754 Q 647.305 366.328 647.305 365.374 L 647.305 359.4 Q 647.305 358.446 647.732 358.019 Q 648.159 357.593 649.112 357.593 L 654.082 357.593 L 654.082 340.726 L 649.112 340.726 Q 648.159 340.726 647.732 340.299 Q 647.305 339.872 647.305 338.918 L 647.305 332.844 Q 647.305 331.89 647.732 331.464 Q 648.159 331.037 649.112 331.037 L 670.498 331.037 Q 671.451 331.037 671.878 331.464 Q 672.305 331.89 672.305 332.844 L 672.305 338.918 Q 672.305 339.872 671.878 340.299 Q 671.451 340.726 670.498 340.726 L 665.628 340.726 L 665.628 357.593 L 670.498 357.593 Q 671.451 357.593 671.878 358.019 Q 672.305 358.446 672.305 359.4 L 672.305 365.374 Q 672.305 366.328 671.878 366.754 Q 671.451 367.181 670.498 367.181 Z" style="fill: rgb(65, 61, 81); white-space: pre;"/>
  <path d="M 687.805 367.181 L 680.275 367.181 Q 679.321 367.181 678.895 366.754 Q 678.468 366.328 678.468 365.374 L 678.468 332.844 Q 678.468 331.89 678.895 331.464 Q 679.321 331.037 680.275 331.037 L 685.496 331.037 Q 686.45 331.037 687.127 331.338 Q 687.805 331.639 688.458 332.392 L 698.196 343.537 L 698.196 332.844 Q 698.196 331.89 698.623 331.464 Q 699.05 331.037 700.004 331.037 L 707.534 331.037 Q 708.487 331.037 708.914 331.464 Q 709.341 331.89 709.341 332.844 L 709.341 365.374 Q 709.341 366.328 708.914 366.754 Q 708.487 367.181 707.534 367.181 L 700.004 367.181 Q 699.05 367.181 698.623 366.754 Q 698.196 366.328 698.196 365.374 L 698.196 359.199 L 689.612 348.808 L 689.612 365.374 Q 689.612 366.328 689.186 366.754 Q 688.759 367.181 687.805 367.181 Z" style="fill: rgb(65, 61, 81); white-space: pre;"/>
  <path d="M 727.51 367.181 L 717.369 367.181 Q 716.415 367.181 715.989 366.754 Q 715.562 366.328 715.562 365.374 L 715.562 355.183 Q 715.562 354.229 715.989 353.803 Q 716.415 353.376 717.369 353.376 L 727.51 353.376 Q 728.463 353.376 728.89 353.803 Q 729.317 354.229 729.317 355.183 L 729.317 365.374 Q 729.317 366.328 728.89 366.754 Q 728.463 367.181 727.51 367.181 Z" style="fill: rgb(65, 61, 81); white-space: pre;"/>
  <path d="M 759.576 367.181 L 747.327 367.181 Q 741.052 367.181 738.015 364.671 Q 734.978 362.161 734.978 356.94 L 734.978 341.328 Q 734.978 336.107 738.015 333.572 Q 741.052 331.037 747.327 331.037 L 759.576 331.037 Q 760.53 331.037 760.957 331.464 Q 761.383 331.89 761.383 332.844 L 761.383 338.918 Q 761.383 339.872 760.957 340.299 Q 760.53 340.726 759.576 340.726 L 749.486 340.726 Q 747.93 340.726 747.177 341.353 Q 746.424 341.981 746.424 343.236 L 746.424 355.183 Q 746.424 356.438 747.177 357.015 Q 747.93 357.593 749.486 357.593 L 759.576 357.593 Q 760.53 357.593 760.957 358.019 Q 761.383 358.446 761.383 359.4 L 761.383 365.374 Q 761.383 366.328 760.957 366.754 Q 760.53 367.181 759.576 367.181 Z" style="fill: rgb(65, 61, 81); white-space: pre;"/>
  <path d="M 797.418 357.693 Q 797.418 360.002 796.74 361.885 Q 796.063 363.767 794.331 365.098 Q 792.599 366.428 789.562 367.181 Q 786.525 367.934 781.856 367.934 Q 777.187 367.934 774.125 367.181 Q 771.063 366.428 769.331 365.098 Q 767.599 363.767 766.921 361.885 Q 766.244 360.002 766.244 357.693 L 766.244 340.575 Q 766.244 338.266 766.921 336.383 Q 767.599 334.501 769.331 333.145 Q 771.063 331.79 774.125 331.037 Q 777.187 330.284 781.856 330.284 Q 786.525 330.284 789.562 331.037 Q 792.599 331.79 794.331 333.145 Q 796.063 334.501 796.74 336.383 Q 797.418 338.266 797.418 340.575 Z M 777.639 355.886 Q 777.639 356.89 778.392 357.568 Q 779.145 358.245 781.856 358.245 Q 784.567 358.245 785.32 357.568 Q 786.073 356.89 786.073 355.886 L 786.073 342.382 Q 786.073 341.428 785.32 340.751 Q 784.567 340.073 781.856 340.073 Q 779.145 340.073 778.392 340.751 Q 777.639 341.428 777.639 342.382 Z" style="fill: rgb(65, 61, 81); white-space: pre;"/>
  <path d="M 813.083 367.181 L 805.603 367.181 Q 804.649 367.181 804.223 366.754 Q 803.796 366.328 803.796 365.374 L 803.796 332.844 Q 803.796 331.89 804.223 331.464 Q 804.649 331.037 805.603 331.037 L 813.685 331.037 Q 814.489 331.037 815.016 331.388 Q 815.543 331.74 815.995 332.543 L 820.513 340.726 Q 820.764 341.177 820.939 341.378 Q 821.115 341.579 821.416 341.579 L 821.868 341.579 Q 822.169 341.579 822.345 341.378 Q 822.521 341.177 822.772 340.726 L 827.239 332.543 Q 827.691 331.74 828.218 331.388 Q 828.745 331.037 829.549 331.037 L 837.681 331.037 Q 838.635 331.037 839.061 331.464 Q 839.488 331.89 839.488 332.844 L 839.488 365.374 Q 839.488 366.328 839.061 366.754 Q 838.635 367.181 837.681 367.181 L 829.95 367.181 Q 828.996 367.181 828.57 366.754 Q 828.143 366.328 828.143 365.374 L 828.143 347.703 L 825.181 353.175 Q 824.729 354.029 824.102 354.405 Q 823.474 354.782 822.521 354.782 L 820.513 354.782 Q 819.559 354.782 818.931 354.405 Q 818.304 354.029 817.852 353.175 L 814.89 347.703 L 814.89 365.374 Q 814.89 366.328 814.463 366.754 Q 814.037 367.181 813.083 367.181 Z" style="fill: rgb(65, 61, 81); white-space: pre;"/>
  <path d="M 231.469 464.257 L 231.469 419.437 L 257.946 419.437 L 257.946 420.267 L 232.299 420.267 L 232.299 444.005 L 251.223 444.005 L 251.223 444.835 L 232.299 444.835 L 232.299 464.257 Z" style="fill: rgb(51, 51, 51); white-space: pre;"/>
  <path d="M 314.88 454.131 Q 314.88 459.111 311.311 462.223 Q 307.742 465.336 298.031 465.336 Q 288.32 465.336 284.834 462.223 Q 281.348 459.111 281.348 454.131 L 281.348 429.646 Q 281.348 424.666 284.834 421.553 Q 288.32 418.441 298.031 418.441 Q 307.742 418.441 311.311 421.553 Q 314.88 424.666 314.88 429.646 Z M 282.178 454.131 Q 282.178 458.779 285.498 461.642 Q 288.818 464.506 298.031 464.506 Q 307.244 464.506 310.647 461.642 Q 314.05 458.779 314.05 454.131 L 314.05 429.646 Q 314.05 424.998 310.647 422.134 Q 307.244 419.271 298.031 419.271 Q 288.818 419.271 285.498 422.134 Q 282.178 424.998 282.178 429.646 Z" style="fill: rgb(51, 51, 51); white-space: pre;"/>
  <path d="M 362.357 420.267 L 344.263 420.267 L 344.263 444.254 L 362.357 444.254 Q 367.503 444.254 369.246 441.764 Q 370.989 439.274 370.989 434.709 L 370.989 428.899 Q 370.989 425.081 368.873 422.674 Q 366.756 420.267 362.357 420.267 Z M 344.263 464.257 L 343.433 464.257 L 343.433 419.437 L 362.357 419.437 Q 367.171 419.437 369.495 422.134 Q 371.819 424.832 371.819 428.899 L 371.819 434.626 Q 371.819 438.444 370.823 440.892 Q 369.827 443.341 366.839 444.254 L 367.752 444.254 Q 372.815 444.254 375.305 446.536 Q 377.795 448.819 377.795 453.135 L 377.795 464.257 L 376.965 464.257 L 376.965 453.135 Q 376.965 449.068 374.724 447.034 Q 372.483 445.001 367.752 445.001 L 344.263 445.001 Z" style="fill: rgb(51, 51, 51); white-space: pre;"/>
  <path d="M 451.831 463.427 L 451.831 464.257 L 423.86 464.257 L 423.86 419.437 L 451.831 419.437 L 451.831 420.267 L 424.69 420.267 L 424.69 441.1 L 445.108 441.1 L 445.108 441.93 L 424.69 441.93 L 424.69 463.427 Z" style="fill: rgb(51, 51, 51); white-space: pre;"/>
  <path d="M 480.05 420.101 L 510.594 454.463 L 510.594 419.437 L 511.424 419.437 L 511.424 464.257 L 510.594 464.257 L 510.594 455.708 L 479.22 420.516 Q 479.137 420.433 479.013 420.35 Q 478.888 420.267 478.805 420.267 Q 478.722 420.267 478.681 420.35 Q 478.639 420.433 478.639 420.516 L 478.639 464.257 L 477.809 464.257 L 477.809 420.35 Q 477.809 419.852 478.141 419.603 Q 478.473 419.354 478.805 419.354 Q 479.137 419.354 479.386 419.52 Q 479.635 419.686 480.05 420.101 Z" style="fill: rgb(51, 51, 51); white-space: pre;"/>
  <path d="M 539.728 419.437 L 540.558 419.437 L 540.558 437.365 Q 540.558 439.523 540.89 441.473 Q 541.222 443.424 541.886 445.084 L 547.364 458.364 Q 548.194 460.522 549.232 461.974 Q 550.269 463.427 552.593 463.427 L 559.897 463.427 Q 562.221 463.427 563.259 461.974 Q 564.296 460.522 565.126 458.364 L 570.604 445.084 Q 571.268 443.424 571.6 441.473 Q 571.932 439.523 571.932 437.365 L 571.932 419.437 L 572.762 419.437 L 572.762 437.365 Q 572.762 439.689 572.472 441.639 Q 572.181 443.59 571.434 445.416 L 565.956 458.696 Q 564.96 461.103 563.715 462.68 Q 562.47 464.257 559.897 464.257 L 552.593 464.257 Q 550.02 464.257 548.775 462.68 Q 547.53 461.103 546.534 458.696 L 541.056 445.416 Q 540.309 443.59 540.019 441.639 Q 539.728 439.689 539.728 437.365 Z" style="fill: rgb(51, 51, 51); white-space: pre;"/>
  <path d="M 624.708 464.257 L 598.314 464.257 L 598.314 463.427 L 611.179 463.427 L 611.179 420.267 L 598.314 420.267 L 598.314 419.437 L 624.708 419.437 L 624.708 420.267 L 612.009 420.267 L 612.009 463.427 L 624.708 463.427 Z" style="fill: rgb(51, 51, 51); white-space: pre;"/>
  <path d="M 670.279 420.267 L 652.185 420.267 L 652.185 444.254 L 670.279 444.254 Q 675.425 444.254 677.168 441.764 Q 678.911 439.274 678.911 434.709 L 678.911 428.899 Q 678.911 425.081 676.795 422.674 Q 674.678 420.267 670.279 420.267 Z M 652.185 464.257 L 651.355 464.257 L 651.355 419.437 L 670.279 419.437 Q 675.093 419.437 677.417 422.134 Q 679.741 424.832 679.741 428.899 L 679.741 434.626 Q 679.741 438.444 678.745 440.892 Q 677.749 443.341 674.761 444.254 L 675.674 444.254 Q 680.737 444.254 683.227 446.536 Q 685.717 448.819 685.717 453.135 L 685.717 464.257 L 684.887 464.257 L 684.887 453.135 Q 684.887 449.068 682.646 447.034 Q 680.405 445.001 675.674 445.001 L 652.185 445.001 Z" style="fill: rgb(51, 51, 51); white-space: pre;"/>
  <path d="M 745.224 454.131 Q 745.224 459.111 741.655 462.223 Q 738.086 465.336 728.375 465.336 Q 718.664 465.336 715.178 462.223 Q 711.692 459.111 711.692 454.131 L 711.692 429.646 Q 711.692 424.666 715.178 421.553 Q 718.664 418.441 728.375 418.441 Q 738.086 418.441 741.655 421.553 Q 745.224 424.666 745.224 429.646 Z M 712.522 454.131 Q 712.522 458.779 715.842 461.642 Q 719.162 464.506 728.375 464.506 Q 737.588 464.506 740.991 461.642 Q 744.394 458.779 744.394 454.131 L 744.394 429.646 Q 744.394 424.998 740.991 422.134 Q 737.588 419.271 728.375 419.271 Q 719.162 419.271 715.842 422.134 Q 712.522 424.998 712.522 429.646 Z" style="fill: rgb(51, 51, 51); white-space: pre;"/>
  <path d="M 775.769 420.101 L 806.313 454.463 L 806.313 419.437 L 807.143 419.437 L 807.143 464.257 L 806.313 464.257 L 806.313 455.708 L 774.939 420.516 Q 774.856 420.433 774.731 420.35 Q 774.607 420.267 774.524 420.267 Q 774.441 420.267 774.399 420.35 Q 774.358 420.433 774.358 420.516 L 774.358 464.257 L 773.528 464.257 L 773.528 420.35 Q 773.528 419.852 773.86 419.603 Q 774.192 419.354 774.524 419.354 Q 774.856 419.354 775.105 419.52 Q 775.354 419.686 775.769 420.101 Z" style="fill: rgb(51, 51, 51); white-space: pre;"/>
  <path d="M 856.529 439.772 Q 858.023 439.772 858.687 439.108 Q 859.351 438.444 860.762 436.286 L 870.888 420.848 Q 871.386 420.018 872.008 419.727 Q 872.631 419.437 873.295 419.437 L 874.706 419.437 Q 875.868 419.437 876.407 420.059 Q 876.947 420.682 876.947 422.01 L 876.947 464.257 L 876.117 464.257 L 876.117 422.01 Q 876.117 421.346 875.826 420.806 Q 875.536 420.267 874.706 420.267 L 873.461 420.267 Q 872.88 420.267 872.465 420.433 Q 872.05 420.599 871.552 421.429 L 861.426 436.701 Q 859.932 438.942 859.143 439.772 Q 858.355 440.602 856.529 440.602 Q 854.703 440.602 853.914 439.772 Q 853.126 438.942 851.632 436.701 L 841.506 421.429 Q 841.008 420.599 840.551 420.433 Q 840.095 420.267 839.514 420.267 L 838.269 420.267 Q 837.439 420.267 837.19 420.806 Q 836.941 421.346 836.941 422.01 L 836.941 464.257 L 836.111 464.257 L 836.111 422.01 Q 836.111 420.682 836.65 420.059 Q 837.19 419.437 838.269 419.437 L 839.68 419.437 Q 840.344 419.437 841.008 419.727 Q 841.672 420.018 842.17 420.848 L 852.296 436.286 Q 853.707 438.444 854.371 439.108 Q 855.035 439.772 856.529 439.772 Z" style="fill: rgb(51, 51, 51); white-space: pre;"/>
  <path d="M 934.8 463.427 L 934.8 464.257 L 906.829 464.257 L 906.829 419.437 L 934.8 419.437 L 934.8 420.267 L 907.659 420.267 L 907.659 441.1 L 928.077 441.1 L 928.077 441.93 L 907.659 441.93 L 907.659 463.427 Z" style="fill: rgb(51, 51, 51); white-space: pre;"/>
  <path d="M 963.019 420.101 L 993.563 454.463 L 993.563 419.437 L 994.393 419.437 L 994.393 464.257 L 993.563 464.257 L 993.563 455.708 L 962.189 420.516 Q 962.106 420.433 961.981 420.35 Q 961.857 420.267 961.774 420.267 Q 961.691 420.267 961.649 420.35 Q 961.608 420.433 961.608 420.516 L 961.608 464.257 L 960.778 464.257 L 960.778 420.35 Q 960.778 419.852 961.11 419.603 Q 961.442 419.354 961.774 419.354 Q 962.106 419.354 962.355 419.52 Q 962.604 419.686 963.019 420.101 Z" style="fill: rgb(51, 51, 51); white-space: pre;"/>
  <path d="M 1035.645 464.257 L 1035.645 420.267 L 1018.63 420.267 L 1018.63 419.437 L 1053.49 419.437 L 1053.49 420.267 L 1036.475 420.267 L 1036.475 464.257 Z" style="fill: rgb(51, 51, 51); white-space: pre;"/>
  <path d="M 165.938 549.466 L 165.938 504.646 L 192.415 504.646 L 192.415 505.476 L 166.768 505.476 L 166.768 529.214 L 185.692 529.214 L 185.692 530.044 L 166.768 530.044 L 166.768 549.466 Z" style="fill: rgb(51, 51, 51); white-space: pre;"/>
  <path d="M 249.349 539.34 Q 249.349 544.32 245.78 547.432 Q 242.211 550.545 232.5 550.545 Q 222.789 550.545 219.303 547.432 Q 215.817 544.32 215.817 539.34 L 215.817 514.855 Q 215.817 509.875 219.303 506.762 Q 222.789 503.65 232.5 503.65 Q 242.211 503.65 245.78 506.762 Q 249.349 509.875 249.349 514.855 Z M 216.647 539.34 Q 216.647 543.988 219.967 546.851 Q 223.287 549.715 232.5 549.715 Q 241.713 549.715 245.116 546.851 Q 248.519 543.988 248.519 539.34 L 248.519 514.855 Q 248.519 510.207 245.116 507.343 Q 241.713 504.48 232.5 504.48 Q 223.287 504.48 219.967 507.343 Q 216.647 510.207 216.647 514.855 Z" style="fill: rgb(51, 51, 51); white-space: pre;"/>
  <path d="M 296.826 505.476 L 278.732 505.476 L 278.732 529.463 L 296.826 529.463 Q 301.972 529.463 303.715 526.973 Q 305.458 524.483 305.458 519.918 L 305.458 514.108 Q 305.458 510.29 303.341 507.883 Q 301.225 505.476 296.826 505.476 Z M 278.732 549.466 L 277.902 549.466 L 277.902 504.646 L 296.826 504.646 Q 301.64 504.646 303.964 507.343 Q 306.288 510.041 306.288 514.108 L 306.288 519.835 Q 306.288 523.653 305.292 526.101 Q 304.296 528.55 301.308 529.463 L 302.221 529.463 Q 307.284 529.463 309.774 531.745 Q 312.264 534.028 312.264 538.344 L 312.264 549.466 L 311.434 549.466 L 311.434 538.344 Q 311.434 534.277 309.193 532.243 Q 306.952 530.21 302.221 530.21 L 278.732 530.21 Z" style="fill: rgb(51, 51, 51); white-space: pre;"/>
  <path d="M 383.727 504.646 L 383.727 505.476 L 365.301 505.476 Q 361.815 505.476 359.74 507.385 Q 357.665 509.294 357.665 512.199 L 357.665 519.005 Q 357.665 521.91 358.827 523.072 Q 359.989 524.234 361.898 524.566 L 379.411 528.135 Q 381.901 528.633 383.519 530.293 Q 385.138 531.953 385.138 536.269 L 385.138 541.083 Q 385.138 544.735 382.648 547.1 Q 380.158 549.466 375.925 549.466 L 355.258 549.466 L 355.258 548.636 L 375.925 548.636 Q 379.743 548.636 382.025 546.519 Q 384.308 544.403 384.308 541.083 L 384.308 536.269 Q 384.308 532.368 382.938 530.915 Q 381.569 529.463 379.245 528.965 L 361.732 525.396 Q 359.574 524.981 358.204 523.694 Q 356.835 522.408 356.835 519.005 L 356.835 512.199 Q 356.835 508.879 359.159 506.762 Q 361.483 504.646 365.301 504.646 Z" style="fill: rgb(51, 51, 51); white-space: pre;"/>
  <path d="M 411.95 504.646 L 412.78 504.646 L 412.78 539.257 Q 412.78 543.905 416.058 546.768 Q 419.337 549.632 428.55 549.632 Q 437.763 549.632 441.083 546.768 Q 444.403 543.905 444.403 539.257 L 444.403 504.646 L 445.233 504.646 L 445.233 539.257 Q 445.233 544.237 441.747 547.349 Q 438.261 550.462 428.55 550.462 Q 418.839 550.462 415.394 547.349 Q 411.95 544.237 411.95 539.257 Z" style="fill: rgb(51, 51, 51); white-space: pre;"/>
  <path d="M 499.586 504.646 L 499.586 505.476 L 481.16 505.476 Q 477.674 505.476 475.599 507.385 Q 473.524 509.294 473.524 512.199 L 473.524 519.005 Q 473.524 521.91 474.686 523.072 Q 475.848 524.234 477.757 524.566 L 495.27 528.135 Q 497.76 528.633 499.379 530.293 Q 500.997 531.953 500.997 536.269 L 500.997 541.083 Q 500.997 544.735 498.507 547.1 Q 496.017 549.466 491.784 549.466 L 471.117 549.466 L 471.117 548.636 L 491.784 548.636 Q 495.602 548.636 497.885 546.519 Q 500.167 544.403 500.167 541.083 L 500.167 536.269 Q 500.167 532.368 498.798 530.915 Q 497.428 529.463 495.104 528.965 L 477.591 525.396 Q 475.433 524.981 474.064 523.694 Q 472.694 522.408 472.694 519.005 L 472.694 512.199 Q 472.694 508.879 475.018 506.762 Q 477.342 504.646 481.16 504.646 Z" style="fill: rgb(51, 51, 51); white-space: pre;"/>
  <path d="M 539.348 549.466 L 539.348 505.476 L 522.333 505.476 L 522.333 504.646 L 557.193 504.646 L 557.193 505.476 L 540.178 505.476 L 540.178 549.466 Z" style="fill: rgb(51, 51, 51); white-space: pre;"/>
  <path d="M 577.774 531.787 L 577.774 534.36 L 610.144 534.36 L 610.144 531.787 Q 610.144 529.546 609.771 527.637 Q 609.397 525.728 608.816 524.068 L 603.089 510.539 Q 602.176 508.381 601.18 506.928 Q 600.184 505.476 597.86 505.476 L 589.726 505.476 Q 587.236 505.476 586.24 506.928 Q 585.244 508.381 584.414 510.456 L 579.102 524.068 Q 578.521 525.728 578.148 527.637 Q 577.774 529.546 577.774 531.787 Z M 610.144 549.466 L 610.144 535.19 L 577.774 535.19 L 577.774 549.466 L 576.944 549.466 L 576.944 531.787 Q 576.944 529.463 577.318 527.512 Q 577.691 525.562 578.355 523.736 L 583.667 510.124 Q 584.58 507.8 585.742 506.223 Q 586.904 504.646 589.726 504.646 L 597.86 504.646 Q 600.599 504.646 601.72 506.223 Q 602.84 507.8 603.836 510.207 L 609.563 523.736 Q 610.227 525.562 610.601 527.512 Q 610.974 529.463 610.974 531.787 L 610.974 549.466 Z" style="fill: rgb(51, 51, 51); white-space: pre;"/>
  <path d="M 662.521 549.466 L 636.127 549.466 L 636.127 548.636 L 648.992 548.636 L 648.992 505.476 L 636.127 505.476 L 636.127 504.646 L 662.521 504.646 L 662.521 505.476 L 649.822 505.476 L 649.822 548.636 L 662.521 548.636 Z" style="fill: rgb(51, 51, 51); white-space: pre;"/>
  <path d="M 691.16 505.31 L 721.704 539.672 L 721.704 504.646 L 722.534 504.646 L 722.534 549.466 L 721.704 549.466 L 721.704 540.917 L 690.33 505.725 Q 690.247 505.642 690.122 505.559 Q 689.998 505.476 689.915 505.476 Q 689.832 505.476 689.79 505.559 Q 689.749 505.642 689.749 505.725 L 689.749 549.466 L 688.919 549.466 L 688.919 505.559 Q 688.919 505.061 689.251 504.812 Q 689.583 504.563 689.915 504.563 Q 690.247 504.563 690.496 504.729 Q 690.745 504.895 691.16 505.31 Z" style="fill: rgb(51, 51, 51); white-space: pre;"/>
  <path d="M 751.087 531.787 L 751.087 534.36 L 783.457 534.36 L 783.457 531.787 Q 783.457 529.546 783.083 527.637 Q 782.71 525.728 782.129 524.068 L 776.402 510.539 Q 775.489 508.381 774.493 506.928 Q 773.497 505.476 771.173 505.476 L 763.039 505.476 Q 760.549 505.476 759.553 506.928 Q 758.557 508.381 757.727 510.456 L 752.415 524.068 Q 751.834 525.728 751.46 527.637 Q 751.087 529.546 751.087 531.787 Z M 783.457 549.466 L 783.457 535.19 L 751.087 535.19 L 751.087 549.466 L 750.257 549.466 L 750.257 531.787 Q 750.257 529.463 750.63 527.512 Q 751.004 525.562 751.668 523.736 L 756.98 510.124 Q 757.893 507.8 759.055 506.223 Q 760.217 504.646 763.039 504.646 L 771.173 504.646 Q 773.912 504.646 775.032 506.223 Q 776.153 507.8 777.149 510.207 L 782.876 523.736 Q 783.54 525.562 783.913 527.512 Q 784.287 529.463 784.287 531.787 L 784.287 549.466 Z" style="fill: rgb(51, 51, 51); white-space: pre;"/>
  <path d="M 834.822 549.466 L 812.495 549.466 L 812.495 504.646 L 829.344 504.646 Q 832.747 504.646 834.905 505.351 Q 837.063 506.057 838.225 507.26 Q 839.387 508.464 839.802 510.041 Q 840.217 511.618 840.217 513.444 L 840.217 518.756 Q 840.217 521.246 839.345 523.321 Q 838.474 525.396 834.905 526.309 Q 838.308 526.309 840.466 527.014 Q 842.624 527.72 843.786 529.006 Q 844.948 530.293 845.321 532.036 Q 845.695 533.779 845.695 535.854 L 845.695 541.166 Q 845.695 542.992 845.28 544.527 Q 844.865 546.063 843.744 547.142 Q 842.624 548.221 840.466 548.843 Q 838.308 549.466 834.822 549.466 Z M 829.344 505.476 L 813.325 505.476 L 813.325 526.309 L 829.344 526.309 Q 832.747 526.309 834.739 525.686 Q 836.731 525.064 837.768 524.026 Q 838.806 522.989 839.096 521.619 Q 839.387 520.25 839.387 518.756 L 839.387 513.444 Q 839.387 510.124 837.478 507.8 Q 835.569 505.476 829.344 505.476 Z M 834.905 527.139 L 813.325 527.139 L 813.325 548.636 L 834.822 548.636 Q 841.047 548.636 842.956 546.602 Q 844.865 544.569 844.865 541.166 L 844.865 535.854 Q 844.865 532.119 842.997 529.629 Q 841.13 527.139 834.905 527.139 Z" style="fill: rgb(51, 51, 51); white-space: pre;"/>
  <path d="M 896.005 549.466 L 869.611 549.466 L 869.611 548.636 L 882.476 548.636 L 882.476 505.476 L 869.611 505.476 L 869.611 504.646 L 896.005 504.646 L 896.005 505.476 L 883.306 505.476 L 883.306 548.636 L 896.005 548.636 Z" style="fill: rgb(51, 51, 51); white-space: pre;"/>
  <path d="M 922.719 549.466 L 922.719 504.646 L 923.549 504.646 L 923.549 548.636 L 952.433 548.636 L 952.433 532.285 L 953.263 532.285 L 953.263 549.466 Z" style="fill: rgb(51, 51, 51); white-space: pre;"/>
  <path d="M 1003.896 549.466 L 977.502 549.466 L 977.502 548.636 L 990.367 548.636 L 990.367 505.476 L 977.502 505.476 L 977.502 504.646 L 1003.896 504.646 L 1003.896 505.476 L 991.197 505.476 L 991.197 548.636 L 1003.896 548.636 Z" style="fill: rgb(51, 51, 51); white-space: pre;"/>
  <path d="M 1042.661 549.466 L 1042.661 505.476 L 1025.646 505.476 L 1025.646 504.646 L 1060.506 504.646 L 1060.506 505.476 L 1043.491 505.476 L 1043.491 549.466 Z" style="fill: rgb(51, 51, 51); white-space: pre;"/>
  <path d="M 1100.6 535.273 L 1100.019 535.273 L 1100.019 549.466 L 1099.189 549.466 L 1099.189 535.273 L 1098.359 535.273 Q 1096.533 535.273 1095.08 534.443 Q 1093.628 533.613 1092.3 531.787 L 1084.249 520.582 Q 1083.336 519.337 1083.17 517.677 Q 1083.004 516.017 1083.004 514.191 L 1083.004 504.646 L 1083.834 504.646 L 1083.834 514.191 Q 1083.834 515.934 1084 517.469 Q 1084.166 519.005 1084.996 520.25 L 1093.047 531.455 Q 1094.126 533.115 1095.537 533.779 Q 1096.948 534.443 1098.359 534.443 L 1100.6 534.443 Q 1102.177 534.443 1103.463 533.737 Q 1104.75 533.032 1105.995 531.455 L 1114.295 520.25 Q 1115.125 519.171 1115.291 517.552 Q 1115.457 515.934 1115.457 514.191 L 1115.457 504.646 L 1116.287 504.646 L 1116.287 514.191 Q 1116.287 516.017 1116.162 517.635 Q 1116.038 519.254 1115.042 520.582 L 1106.742 531.787 Q 1105.414 533.613 1103.961 534.443 Q 1102.509 535.273 1100.6 535.273 Z" style="fill: rgb(51, 51, 51); white-space: pre;"/>
</svg>