<?xml version="1.0" encoding="utf-8"?>
<svg viewBox="0 0 1000 700" style="enable-background:new 0 0 1000 1000;" xmlns="http://www.w3.org/2000/svg">
  <defs>
    <style type="text/css">
	.st0{opacity:0.7;fill:#FFFFFF;}
	.st1{fill:#413D51;}
	.st2{fill:#8FE3F9;}
	.st3{fill:#B2EBF9;}
	.st4{fill:#A4E0EA;}
	.st5{fill:#7AD1E5;}
	.st6{fill:none;stroke:#413D51;stroke-width:16;stroke-linecap:round;stroke-linejoin:round;stroke-miterlimit:10;}
	.st7{fill:#F7E8AD;}
	.st8{fill:#F7D6A1;}
	.st9{fill:#EFCA92;}
	.st10{fill:#FFFFFF;}
	.st11{opacity:0.89;fill:#EFCA92;}
	.st12{fill:none;stroke:#413D51;stroke-width:8;stroke-linecap:round;stroke-linejoin:round;stroke-miterlimit:10;}
	.st13{opacity:0.31;fill:none;stroke:#72C8D6;stroke-width:8;stroke-linecap:round;stroke-linejoin:round;stroke-miterlimit:10;}
</style>
  </defs>
  <rect class="st0" width="1000" height="700" style="opacity: 1;"/>
  <g transform="matrix(1, 0, 0, 1, 0, -216)">
    <ellipse id="XMLID_2_" class="st2" cx="501.8" cy="487.5" rx="228" ry="205.8"/>
    <ellipse id="XMLID_188_" class="st2" cx="501.8" cy="487.5" rx="228" ry="205.8"/>
    <path id="XMLID_193_" class="st3" d="M507.8,689.3c52.1,0,100.1-15.3,138.5-41l-10.5-24.7c-22-51.9-74.2-85.8-132.1-85.8l0,0 c-57.9,0-110.1,33.9-132.1,85.8l-8.6,20.4C402.3,672.3,452.8,689.3,507.8,689.3z"/>
    <path id="XMLID_189_" class="st4" d="M501.7,470.3l-43.6,64l32.9,43.8c5.4,7.2,16.3,7.2,21.7,0l32.6-43.8L501.7,470.3z"/>
    <path id="XMLID_192_" class="st5" d="M501.8,669.3c-121.5,0-220.7-85.7-227.6-193.8c-0.3,4-0.4,8-0.4,12 c0,113.6,102.1,205.8,228,205.8s228-92.1,228-205.8c0-4-0.1-8-0.4-12C722.5,583.6,623.2,669.3,501.8,669.3z"/>
    <path id="XMLID_76_" class="st4" d="M638.6,628.1c-38.1,25.8-85.5,41.2-136.8,41.2c-50,0-96.2-14.5-133.7-39.1l-5,12.3 c39.4,29.2,89.8,46.8,144.8,46.8c49.7,0,95.7-14.4,133.2-38.8c1.8-1.2,3.5-2.5,5.3-3.8L638.6,628.1z"/>
    <path id="XMLID_186_" class="st5" d="M268.2,488.2c6.4,13.1,15,25.3,25.8,36.2c52.3,52.3,137.2,52.3,189.5,0 c43.8-43.8,50.9-110.3,21.5-161.5"/>
    <path id="XMLID_185_" class="st5" d="M729,503.8c-24,36.1-65,59.8-111.6,59.8c-74,0-134-60-134-134c0-33,11.9-63.2,31.7-86.6"/>
    <ellipse id="XMLID_75_" class="st6" cx="501.8" cy="487.5" rx="228" ry="205.8"/>
    <polygon id="XMLID_74_" class="st1" points="501.7,442.3 458.1,506.3 501.9,564.6 545.4,506.3 &#9;"/>
    <polygon id="XMLID_73_" class="st6" points="501.7,442.3 458.1,506.3 501.9,564.6 545.4,506.3 &#9;"/>
    <path id="XMLID_72_" class="st1" d="M600.7,303.9c-30-14-64.1-21.9-100-21.9s-70,7.9-100,21.9v140.1h200V303.9z"/>
    <g id="XMLID_58_">
      <path id="XMLID_71_" class="st1" d="M613.5,317.9l108.7-3.3c-15.7,39.3-17.8,98.4-4.1,163c-17.4,36.8-54.4,62.9-97.9,64.2l0,0 c-61.8,1.9-113.5-46.7-115.3-108.6l0,0C503,371.4,551.6,319.8,613.5,317.9z"/>
      <path id="XMLID_70_" class="st6" d="M613.5,317.9l108.7-3.3c-15.7,39.3-17.8,98.4-4.1,163c-17.4,36.8-54.4,62.9-97.9,64.2l0,0 c-61.8,1.9-113.5-46.7-115.3-108.6l0,0C503,371.4,551.6,319.8,613.5,317.9z"/>
      <circle id="XMLID_69_" class="st7" cx="617.4" cy="429.7" r="112"/>
      <circle id="XMLID_5_" class="st7" cx="617.4" cy="429.7" r="112"/>
      <path id="XMLID_86_" class="st8" d="M696.6,350.5c-21.5-21.5-49.7-32.4-77.9-32.8c21.2,4.1,41.5,14.3,57.9,30.8 c43.7,43.7,43.7,114.6,0,158.4c-22.2,22.2-51.4,33.1-80.4,32.8c35.3,6.8,73.1-3.5,100.4-30.8C740.3,465.1,740.3,394.2,696.6,350.5 z"/>
      <ellipse id="XMLID_3_" transform="matrix(0.7071 -0.7071 0.7071 0.7071 -130.8246 543.5441)" class="st0" cx="590.7" cy="429.7" rx="84" ry="84.6"/>
      <path id="XMLID_12_" class="st9" d="M711.4,376.6c-3.1-4-9.1-15-12.8-18.7c-44-43.4-114.9-43-158.3,1.1 c-8.6,8.7-15.5,18.5-20.6,29C581.4,366.3,649,371.5,711.4,376.6z"/>
      <circle id="XMLID_68_" class="st6" cx="617.4" cy="429.7" r="112"/>
      <circle id="XMLID_67_" class="st6" cx="617.4" cy="429.7" r="112"/>
      <path id="XMLID_66_" class="st1" d="M706.7,362.1c-3.1-4-6.4-7.9-10.1-11.6c-43.7-43.7-114.6-43.7-158.4,0 c-8.7,8.7-15.6,18.4-20.8,28.8C579.4,358.1,644.3,356.5,706.7,362.1z"/>
      <circle id="XMLID_57_" class="st1" cx="562.9" cy="438.1" r="42"/>
      <circle id="XMLID_56_" class="st10" cx="539.1" cy="438.4" r="14"/>
    </g>
    <g id="XMLID_26_">
      <path id="XMLID_89_" class="st1" d="M388.8,317.9L280,314.6c15.7,39.3,17.8,98.4,4.1,163c17.4,36.8,54.4,62.9,97.9,64.2l0,0 c61.8,1.9,113.5-46.7,115.3-108.6l0,0C499.2,371.4,450.6,319.8,388.8,317.9z"/>
      <path id="XMLID_88_" class="st6" d="M388.8,317.9L280,314.6c15.7,39.3,17.8,98.4,4.1,163c17.4,36.8,54.4,62.9,97.9,64.2l0,0 c61.8,1.9,113.5-46.7,115.3-108.6l0,0C499.2,371.4,450.6,319.8,388.8,317.9z"/>
      <circle id="XMLID_87_" class="st7" cx="384.8" cy="429.7" r="112"/>
      <circle id="XMLID_84_" class="st7" cx="384.8" cy="429.7" r="112"/>
      <path id="XMLID_65_" class="st8" d="M305.6,350.5c21.5-21.5,49.7-32.4,77.9-32.8c-21.2,4.1-41.5,14.3-57.9,30.8 c-43.7,43.7-43.7,114.6,0,158.4c22.2,22.2,51.4,33.1,80.4,32.8c-35.3,6.8-73.1-3.5-100.4-30.8 C261.9,465.1,261.9,394.2,305.6,350.5z"/>
      <ellipse id="XMLID_64_" transform="matrix(0.7071 -0.7071 0.7071 0.7071 -183.3021 416.8521)" class="st0" cx="411.5" cy="429.7" rx="84.6" ry="84"/>
      <path id="XMLID_63_" class="st11" d="M290.9,376.6c3.1-4,9.1-15,12.8-18.7c44-43.4,114.9-43,158.3,1.1c8.6,8.7,15.5,18.5,20.6,29 C420.8,366.3,353.2,371.5,290.9,376.6z"/>
      <circle id="XMLID_62_" class="st6" cx="384.8" cy="429.7" r="112"/>
      <circle id="XMLID_61_" class="st6" cx="384.8" cy="429.7" r="112"/>
      <path id="XMLID_60_" class="st1" d="M295.6,362.1c3.1-4,6.4-7.9,10.1-11.6c43.7-43.7,114.6-43.7,158.4,0 c8.7,8.7,15.6,18.4,20.8,28.8C422.9,358.1,357.9,356.5,295.6,362.1z"/>
      <circle id="XMLID_59_" class="st1" cx="439.4" cy="438.1" r="42"/>
      <circle id="XMLID_37_" class="st10" cx="463.2" cy="438.4" r="14"/>
    </g>
    <path id="XMLID_19_" class="st1" d="M447.9,718.3L447.9,718.3c-8.8,0-16-7.2-16-16v-18c0-8.8,7.2-16,16-16h0c8.8,0,16,7.2,16,16v18 C463.9,711.1,456.8,718.3,447.9,718.3z"/>
    <path id="XMLID_17_" class="st1" d="M415.9,718.3L415.9,718.3c-8.8,0-16-7.2-16-16v-18c0-8.8,7.2-16,16-16h0c8.8,0,16,7.2,16,16v18 C431.9,711.1,424.8,718.3,415.9,718.3z"/>
    <path id="XMLID_16_" class="st1" d="M479.7,718.3L479.7,718.3c-8.8,0-16-7.2-16-16v-18c0-8.8,7.2-16,16-16h0c8.8,0,16,7.2,16,16v18 C495.7,711.1,488.5,718.3,479.7,718.3z"/>
    <path id="XMLID_15_" class="st1" d="M521.9,718.3L521.9,718.3c-8.8,0-16-7.2-16-16v-18c0-8.8,7.2-16,16-16h0c8.8,0,16,7.2,16,16v18 C537.9,711.1,530.7,718.3,521.9,718.3z"/>
    <path id="XMLID_14_" class="st1" d="M553.7,718.3L553.7,718.3c-8.8,0-16-7.2-16-16v-18c0-8.8,7.2-16,16-16h0c8.8,0,16,7.2,16,16v18 C569.7,711.1,562.5,718.3,553.7,718.3z"/>
    <path id="XMLID_13_" class="st1" d="M585.7,718.3L585.7,718.3c-8.8,0-16-7.2-16-16v-18c0-8.8,7.2-16,16-16h0c8.8,0,16,7.2,16,16v18 C601.7,711.1,594.5,718.3,585.7,718.3z"/>
    <path id="XMLID_11_" class="st12" d="M491.9,587.6c0,8.4-6.8,15.2-15.2,15.2c-8.4,0-15.2-6.8-15.2-15.2"/>
    <path id="XMLID_9_" class="st12" d="M538.4,587.6c0,8.4-6.8,15.2-15.2,15.2c-8.4,0-15.2-6.8-15.2-15.2"/>
    <path id="XMLID_10_" class="st13" d="M323,548.8c-2.2,4.7-7.7,6.8-12.5,4.6s-6.8-7.7-4.6-12.5"/>
    <path id="XMLID_1_" class="st13" d="M352.8,564.3c-2.2,4.7-7.7,6.8-12.5,4.6c-4.7-2.2-6.8-7.7-4.6-12.5"/>
    <path id="XMLID_78_" class="st13" d="M335.5,576.2c-2.2,4.7-7.7,6.8-12.5,4.6c-4.7-2.2-6.8-7.7-4.6-12.5"/>
    <path id="XMLID_77_" class="st13" d="M361.7,596.1c-2.2,4.7-7.7,6.8-12.5,4.6c-4.7-2.2-6.8-7.7-4.6-12.5"/>
    <path id="XMLID_79_" class="st13" d="M381.7,578.1c-2.2,4.7-7.7,6.8-12.5,4.6c-4.7-2.2-6.8-7.7-4.6-12.5"/>
    <path id="XMLID_85_" class="st13" d="M683.7,550.8c2.2,4.7,7.7,6.8,12.5,4.6s6.8-7.7,4.6-12.5"/>
    <path id="XMLID_83_" class="st13" d="M654,566.3c2.2,4.7,7.7,6.8,12.5,4.6c4.7-2.2,6.8-7.7,4.6-12.5"/>
    <path id="XMLID_82_" class="st13" d="M671.2,578.2c2.2,4.7,7.7,6.8,12.5,4.6c4.7-2.2,6.8-7.7,4.6-12.5"/>
    <path id="XMLID_81_" class="st13" d="M645.1,598.1c2.2,4.7,7.7,6.8,12.5,4.6c4.7-2.2,6.8-7.7,4.6-12.5"/>
    <path id="XMLID_80_" class="st13" d="M625.1,580.1c2.2,4.7,7.7,6.8,12.5,4.6c4.7-2.2,6.8-7.7,4.6-12.5"/>
    <path id="XMLID_8_" class="st12" d="M468.7,624.1c0,8.4-6.8,15.2-15.2,15.2c-8.4,0-15.2-6.8-15.2-15.2"/>
    <path id="XMLID_7_" class="st12" d="M515.2,624.1c0,8.4-6.8,15.2-15.2,15.2s-15.2-6.8-15.2-15.2"/>
    <path id="XMLID_6_" class="st12" d="M561.7,624.1c0,8.4-6.8,15.2-15.2,15.2c-8.4,0-15.2-6.8-15.2-15.2"/>
  </g>
  <path d="M 162.934 565.709 L 149.584 565.709 Q 147.893 565.709 147.136 564.952 Q 146.38 564.196 146.38 562.505 L 146.38 504.833 Q 146.38 503.142 147.136 502.385 Q 147.893 501.629 149.584 501.629 L 158.84 501.629 Q 160.531 501.629 161.732 502.163 Q 162.934 502.697 164.091 504.032 L 181.357 523.79 L 181.357 504.833 Q 181.357 503.142 182.113 502.385 Q 182.87 501.629 184.561 501.629 L 197.911 501.629 Q 199.602 501.629 200.358 502.385 Q 201.115 503.142 201.115 504.833 L 201.115 562.505 Q 201.115 564.196 200.358 564.952 Q 199.602 565.709 197.911 565.709 L 184.561 565.709 Q 182.87 565.709 182.113 564.952 Q 181.357 564.196 181.357 562.505 L 181.357 551.558 L 166.138 533.135 L 166.138 562.505 Q 166.138 564.196 165.381 564.952 Q 164.625 565.709 162.934 565.709 Z" style="fill: rgb(65, 61, 81); white-space: pre;"/>
  <path d="M 243.122 565.709 L 214.998 565.709 Q 213.307 565.709 212.55 564.952 Q 211.794 564.196 211.794 562.505 L 211.794 552.092 Q 211.794 550.401 212.55 549.644 Q 213.307 548.888 214.998 548.888 L 238.939 548.888 Q 240.096 548.888 240.674 548.131 Q 241.253 547.375 241.253 546.307 Q 241.253 544.794 240.674 544.082 Q 240.096 543.37 238.939 543.281 L 225.589 541.412 Q 219.359 540.522 215.576 537.318 Q 211.794 534.114 211.794 526.638 L 211.794 517.293 Q 211.794 509.728 216.689 505.678 Q 221.584 501.629 230.217 501.629 L 255.137 501.629 Q 256.828 501.629 257.584 502.385 Q 258.341 503.142 258.341 504.833 L 258.341 515.424 Q 258.341 517.115 257.584 517.871 Q 256.828 518.628 255.137 518.628 L 234.4 518.628 Q 233.243 518.628 232.62 519.384 Q 231.997 520.141 231.997 521.298 Q 231.997 522.455 232.62 523.256 Q 233.243 524.057 234.4 524.146 L 247.661 525.926 Q 253.891 526.816 257.718 530.02 Q 261.545 533.224 261.545 540.7 L 261.545 550.045 Q 261.545 557.61 256.605 561.659 Q 251.666 565.709 243.122 565.709 Z" style="fill: rgb(65, 61, 81); white-space: pre;"/>
  <path d="M 325.796 548.888 Q 325.796 552.982 324.595 556.319 Q 323.393 559.657 320.323 562.015 Q 317.252 564.374 311.912 565.709 Q 306.572 567.044 298.295 567.044 Q 290.018 567.044 284.678 565.709 Q 279.338 564.374 276.268 562.015 Q 273.197 559.657 271.996 556.319 Q 270.794 552.982 270.794 548.888 L 270.794 504.833 Q 270.794 503.142 271.551 502.385 Q 272.307 501.629 273.998 501.629 L 287.971 501.629 Q 289.662 501.629 290.419 502.385 Q 291.175 503.142 291.175 504.833 L 291.175 545.417 Q 291.175 547.197 292.51 548.398 Q 293.845 549.6 298.473 549.6 Q 303.19 549.6 304.525 548.398 Q 305.86 547.197 305.86 545.417 L 305.86 504.833 Q 305.86 503.142 306.617 502.385 Q 307.373 501.629 309.064 501.629 L 322.592 501.629 Q 324.283 501.629 325.04 502.385 Q 325.796 503.142 325.796 504.833 Z" style="fill: rgb(65, 61, 81); white-space: pre;"/>
  <path d="M 367.356 565.709 L 339.232 565.709 Q 337.541 565.709 336.785 564.952 Q 336.028 564.196 336.028 562.505 L 336.028 552.092 Q 336.028 550.401 336.785 549.644 Q 337.541 548.888 339.232 548.888 L 363.173 548.888 Q 364.33 548.888 364.909 548.131 Q 365.487 547.375 365.487 546.307 Q 365.487 544.794 364.909 544.082 Q 364.33 543.37 363.173 543.281 L 349.823 541.412 Q 343.593 540.522 339.811 537.318 Q 336.028 534.114 336.028 526.638 L 336.028 517.293 Q 336.028 509.728 340.923 505.678 Q 345.818 501.629 354.451 501.629 L 379.371 501.629 Q 381.062 501.629 381.819 502.385 Q 382.575 503.142 382.575 504.833 L 382.575 515.424 Q 382.575 517.115 381.819 517.871 Q 381.062 518.628 379.371 518.628 L 358.634 518.628 Q 357.477 518.628 356.854 519.384 Q 356.231 520.141 356.231 521.298 Q 356.231 522.455 356.854 523.256 Q 357.477 524.057 358.634 524.146 L 371.895 525.926 Q 378.125 526.816 381.952 530.02 Q 385.779 533.224 385.779 540.7 L 385.779 550.045 Q 385.779 557.61 380.84 561.659 Q 375.9 565.709 367.356 565.709 Z" style="fill: rgb(65, 61, 81); white-space: pre;"/>
  <path d="M 424.859 565.709 L 410.441 565.709 Q 408.75 565.709 407.993 564.952 Q 407.237 564.196 407.237 562.505 L 407.237 518.806 L 394.154 518.806 Q 392.463 518.806 391.706 518.049 Q 390.95 517.293 390.95 515.602 L 390.95 504.833 Q 390.95 503.142 391.706 502.385 Q 392.463 501.629 394.154 501.629 L 441.146 501.629 Q 442.837 501.629 443.593 502.385 Q 444.35 503.142 444.35 504.833 L 444.35 515.602 Q 444.35 517.293 443.593 518.049 Q 442.837 518.806 441.146 518.806 L 428.063 518.806 L 428.063 562.505 Q 428.063 564.196 427.306 564.952 Q 426.55 565.709 424.859 565.709 Z" style="fill: rgb(65, 61, 81); white-space: pre;"/>
  <path d="M 472.64 520.319 L 468.457 533.847 L 482.43 533.847 L 478.247 520.319 Q 477.891 519.518 477.491 519.162 Q 477.09 518.806 476.556 518.806 L 474.331 518.806 Q 473.797 518.806 473.397 519.162 Q 472.996 519.518 472.64 520.319 Z M 467.567 562.505 Q 467.567 564.196 466.811 564.952 Q 466.054 565.709 464.363 565.709 L 451.28 565.709 Q 449.589 565.709 448.833 564.952 Q 448.076 564.196 448.076 562.505 L 448.076 539.009 Q 448.076 536.339 448.922 532.868 Q 449.767 529.397 451.547 524.769 L 459.29 504.566 Q 459.824 503.053 460.937 502.341 Q 462.049 501.629 463.829 501.629 L 487.77 501.629 Q 489.461 501.629 490.574 502.341 Q 491.686 503.053 492.22 504.566 L 499.963 524.769 Q 501.743 529.397 502.589 532.868 Q 503.434 536.339 503.434 539.009 L 503.434 562.505 Q 503.434 564.196 502.678 564.952 Q 501.921 565.709 500.23 565.709 L 486.791 565.709 Q 485.011 565.709 484.166 564.952 Q 483.32 564.196 483.32 562.505 L 483.32 550.045 L 467.567 550.045 Z" style="fill: rgb(65, 61, 81); white-space: pre;"/>
  <path d="M 516.16 565.709 Q 514.469 565.709 513.713 564.952 Q 512.956 564.196 512.956 562.505 L 512.956 551.914 Q 512.956 550.223 513.713 549.466 Q 514.469 548.71 516.16 548.71 L 524.971 548.71 L 524.971 518.806 L 516.16 518.806 Q 514.469 518.806 513.713 518.049 Q 512.956 517.293 512.956 515.602 L 512.956 504.833 Q 512.956 503.142 513.713 502.385 Q 514.469 501.629 516.16 501.629 L 554.074 501.629 Q 555.765 501.629 556.522 502.385 Q 557.278 503.142 557.278 504.833 L 557.278 515.602 Q 557.278 517.293 556.522 518.049 Q 555.765 518.806 554.074 518.806 L 545.441 518.806 L 545.441 548.71 L 554.074 548.71 Q 555.765 548.71 556.522 549.466 Q 557.278 550.223 557.278 551.914 L 557.278 562.505 Q 557.278 564.196 556.522 564.952 Q 555.765 565.709 554.074 565.709 Z" style="fill: rgb(65, 61, 81); white-space: pre;"/>
  <path d="M 584.793 565.709 L 571.443 565.709 Q 569.752 565.709 568.996 564.952 Q 568.239 564.196 568.239 562.505 L 568.239 504.833 Q 568.239 503.142 568.996 502.385 Q 569.752 501.629 571.443 501.629 L 580.699 501.629 Q 582.39 501.629 583.592 502.163 Q 584.793 502.697 585.95 504.032 L 603.216 523.79 L 603.216 504.833 Q 603.216 503.142 603.973 502.385 Q 604.729 501.629 606.42 501.629 L 619.77 501.629 Q 621.461 501.629 622.218 502.385 Q 622.974 503.142 622.974 504.833 L 622.974 562.505 Q 622.974 564.196 622.218 564.952 Q 621.461 565.709 619.77 565.709 L 606.42 565.709 Q 604.729 565.709 603.973 564.952 Q 603.216 564.196 603.216 562.505 L 603.216 551.558 L 587.997 533.135 L 587.997 562.505 Q 587.997 564.196 587.241 564.952 Q 586.484 565.709 584.793 565.709 Z" style="fill: rgb(65, 61, 81); white-space: pre;"/>
  <path d="M 655.191 565.709 L 637.213 565.709 Q 635.522 565.709 634.766 564.952 Q 634.009 564.196 634.009 562.505 L 634.009 544.438 Q 634.009 542.747 634.766 541.99 Q 635.522 541.234 637.213 541.234 L 655.191 541.234 Q 656.882 541.234 657.639 541.99 Q 658.395 542.747 658.395 544.438 L 658.395 562.505 Q 658.395 564.196 657.639 564.952 Q 656.882 565.709 655.191 565.709 Z" style="fill: rgb(65, 61, 81); white-space: pre;"/>
  <path d="M 712.058 565.709 L 690.342 565.709 Q 679.217 565.709 673.832 561.259 Q 668.448 556.809 668.448 547.553 L 668.448 519.874 Q 668.448 510.618 673.832 506.123 Q 679.217 501.629 690.342 501.629 L 712.058 501.629 Q 713.749 501.629 714.505 502.385 Q 715.262 503.142 715.262 504.833 L 715.262 515.602 Q 715.262 517.293 714.505 518.049 Q 713.749 518.806 712.058 518.806 L 694.169 518.806 Q 691.41 518.806 690.075 519.918 Q 688.74 521.031 688.74 523.256 L 688.74 544.438 Q 688.74 546.663 690.075 547.686 Q 691.41 548.71 694.169 548.71 L 712.058 548.71 Q 713.749 548.71 714.505 549.466 Q 715.262 550.223 715.262 551.914 L 715.262 562.505 Q 715.262 564.196 714.505 564.952 Q 713.749 565.709 712.058 565.709 Z" style="fill: rgb(65, 61, 81); white-space: pre;"/>
  <path d="M 779.154 548.888 Q 779.154 552.982 777.953 556.319 Q 776.751 559.657 773.681 562.015 Q 770.61 564.374 765.226 565.709 Q 759.841 567.044 751.564 567.044 Q 743.287 567.044 737.858 565.709 Q 732.429 564.374 729.359 562.015 Q 726.288 559.657 725.087 556.319 Q 723.885 552.982 723.885 548.888 L 723.885 518.539 Q 723.885 514.445 725.087 511.107 Q 726.288 507.77 729.359 505.367 Q 732.429 502.964 737.858 501.629 Q 743.287 500.294 751.564 500.294 Q 759.841 500.294 765.226 501.629 Q 770.61 502.964 773.681 505.367 Q 776.751 507.77 777.953 511.107 Q 779.154 514.445 779.154 518.539 Z M 744.088 545.684 Q 744.088 547.464 745.423 548.665 Q 746.758 549.867 751.564 549.867 Q 756.37 549.867 757.705 548.665 Q 759.04 547.464 759.04 545.684 L 759.04 521.743 Q 759.04 520.052 757.705 518.85 Q 756.37 517.649 751.564 517.649 Q 746.758 517.649 745.423 518.85 Q 744.088 520.052 744.088 521.743 Z" style="fill: rgb(65, 61, 81); white-space: pre;"/>
  <path d="M 806.923 565.709 L 793.662 565.709 Q 791.971 565.709 791.215 564.952 Q 790.458 564.196 790.458 562.505 L 790.458 504.833 Q 790.458 503.142 791.215 502.385 Q 791.971 501.629 793.662 501.629 L 807.991 501.629 Q 809.415 501.629 810.35 502.252 Q 811.284 502.875 812.085 504.299 L 820.095 518.806 Q 820.54 519.607 820.852 519.963 Q 821.163 520.319 821.697 520.319 L 822.498 520.319 Q 823.032 520.319 823.344 519.963 Q 823.655 519.607 824.1 518.806 L 832.021 504.299 Q 832.822 502.875 833.757 502.252 Q 834.691 501.629 836.115 501.629 L 850.533 501.629 Q 852.224 501.629 852.981 502.385 Q 853.737 503.142 853.737 504.833 L 853.737 562.505 Q 853.737 564.196 852.981 564.952 Q 852.224 565.709 850.533 565.709 L 836.827 565.709 Q 835.136 565.709 834.38 564.952 Q 833.623 564.196 833.623 562.505 L 833.623 531.177 L 828.372 540.878 Q 827.571 542.391 826.459 543.058 Q 825.346 543.726 823.655 543.726 L 820.095 543.726 Q 818.404 543.726 817.292 543.058 Q 816.179 542.391 815.378 540.878 L 810.127 531.177 L 810.127 562.505 Q 810.127 564.196 809.371 564.952 Q 808.614 565.709 806.923 565.709 Z" style="fill: rgb(65, 61, 81); white-space: pre;"/>
  <path d="M 157.943 622.528 Q 154.875 622.528 152.353 621.41 Q 149.831 620.292 147.985 618.342 Q 146.139 616.392 145.125 613.844 Q 144.111 611.296 144.111 608.436 Q 144.111 604.588 145.879 601.416 Q 147.647 598.244 150.793 596.32 Q 153.939 594.396 157.995 594.396 Q 162.103 594.396 165.145 596.346 Q 168.187 598.296 169.877 601.442 Q 171.567 604.588 171.567 608.228 Q 171.567 608.748 171.541 609.242 Q 171.515 609.736 171.463 609.996 L 148.947 609.996 Q 149.155 612.648 150.429 614.702 Q 151.703 616.756 153.731 617.926 Q 155.759 619.096 158.099 619.096 Q 160.595 619.096 162.805 617.848 Q 165.015 616.6 165.847 614.572 L 169.799 615.664 Q 168.915 617.64 167.173 619.2 Q 165.431 620.76 163.065 621.644 Q 160.699 622.528 157.943 622.528 Z M 148.791 606.824 L 167.303 606.824 Q 167.095 604.172 165.795 602.144 Q 164.495 600.116 162.467 598.972 Q 160.439 597.828 157.995 597.828 Q 155.603 597.828 153.575 598.972 Q 151.547 600.116 150.273 602.144 Q 148.999 604.172 148.791 606.824 Z" style="fill: rgb(65, 61, 81); white-space: pre;"/>
  <path d="M 201.612 622.008 L 197.036 622.008 L 197.036 606.824 Q 197.036 602.508 195.71 600.506 Q 194.384 598.504 191.68 598.504 Q 189.808 598.504 187.962 599.44 Q 186.116 600.376 184.686 601.962 Q 183.256 603.548 182.632 605.628 L 182.632 622.008 L 178.056 622.008 L 178.056 594.864 L 182.216 594.864 L 182.216 600.688 Q 183.308 598.764 185.024 597.36 Q 186.74 595.956 188.924 595.176 Q 191.108 594.396 193.5 594.396 Q 195.84 594.396 197.426 595.254 Q 199.012 596.112 199.922 597.646 Q 200.832 599.18 201.222 601.26 Q 201.612 603.34 201.612 605.784 Z" style="fill: rgb(65, 61, 81); white-space: pre;"/>
  <path d="M 217.356 622.008 L 206.696 594.864 L 211.48 594.864 L 220.008 617.64 L 228.536 594.864 L 233.008 594.864 L 222.348 622.008 Z" style="fill: rgb(65, 61, 81); white-space: pre;"/>
  <path d="M 238.993 622.008 L 238.993 594.864 L 243.569 594.864 L 243.569 622.008 Z M 238.993 589.768 L 238.993 584.048 L 243.569 584.048 L 243.569 589.768 Z" style="fill: rgb(65, 61, 81); white-space: pre;"/>
  <path d="M 266.705 598.868 Q 263.273 598.92 260.647 600.61 Q 258.021 602.3 256.929 605.264 L 256.929 622.008 L 252.353 622.008 L 252.353 594.864 L 256.617 594.864 L 256.617 601.156 Q 258.021 598.348 260.335 596.606 Q 262.649 594.864 265.197 594.656 Q 265.717 594.656 266.081 594.656 Q 266.445 594.656 266.705 594.708 Z" style="fill: rgb(65, 61, 81); white-space: pre;"/>
  <path d="M 283.865 622.528 Q 280.797 622.528 278.301 621.41 Q 275.805 620.292 273.985 618.342 Q 272.165 616.392 271.177 613.844 Q 270.189 611.296 270.189 608.488 Q 270.189 605.628 271.177 603.08 Q 272.165 600.532 273.985 598.582 Q 275.805 596.632 278.327 595.514 Q 280.849 594.396 283.917 594.396 Q 286.933 594.396 289.429 595.514 Q 291.925 596.632 293.771 598.582 Q 295.617 600.532 296.605 603.08 Q 297.593 605.628 297.593 608.488 Q 297.593 611.296 296.605 613.844 Q 295.617 616.392 293.797 618.342 Q 291.977 620.292 289.455 621.41 Q 286.933 622.528 283.865 622.528 Z M 274.869 608.54 Q 274.869 611.348 276.091 613.636 Q 277.313 615.924 279.341 617.25 Q 281.369 618.576 283.865 618.576 Q 286.361 618.576 288.415 617.224 Q 290.469 615.872 291.691 613.558 Q 292.913 611.244 292.913 608.436 Q 292.913 605.628 291.691 603.34 Q 290.469 601.052 288.415 599.7 Q 286.361 598.348 283.865 598.348 Q 281.369 598.348 279.341 599.726 Q 277.313 601.104 276.091 603.392 Q 274.869 605.68 274.869 608.54 Z" style="fill: rgb(65, 61, 81); white-space: pre;"/>
  <path d="M 328.112 622.008 L 323.536 622.008 L 323.536 606.824 Q 323.536 602.508 322.21 600.506 Q 320.884 598.504 318.18 598.504 Q 316.308 598.504 314.462 599.44 Q 312.616 600.376 311.186 601.962 Q 309.756 603.548 309.132 605.628 L 309.132 622.008 L 304.556 622.008 L 304.556 594.864 L 308.716 594.864 L 308.716 600.688 Q 309.808 598.764 311.524 597.36 Q 313.24 595.956 315.424 595.176 Q 317.608 594.396 320 594.396 Q 322.34 594.396 323.926 595.254 Q 325.512 596.112 326.422 597.646 Q 327.332 599.18 327.722 601.26 Q 328.112 603.34 328.112 605.784 Z" style="fill: rgb(65, 61, 81); white-space: pre;"/>
  <path d="M 377.558 622.008 L 372.982 622.008 L 372.982 606.824 Q 372.982 602.56 371.604 600.532 Q 370.226 598.504 367.522 598.504 Q 364.766 598.504 362.53 600.506 Q 360.294 602.508 359.358 605.68 L 359.358 622.008 L 354.782 622.008 L 354.782 606.824 Q 354.782 602.508 353.43 600.506 Q 352.078 598.504 349.374 598.504 Q 346.67 598.504 344.408 600.454 Q 342.146 602.404 341.21 605.628 L 341.21 622.008 L 336.634 622.008 L 336.634 594.864 L 340.794 594.864 L 340.794 600.688 Q 342.458 597.672 345.11 596.034 Q 347.762 594.396 351.09 594.396 Q 354.47 594.396 356.498 596.242 Q 358.526 598.088 358.994 601 Q 360.814 597.776 363.414 596.086 Q 366.014 594.396 369.342 594.396 Q 371.682 594.396 373.268 595.254 Q 374.854 596.112 375.79 597.646 Q 376.726 599.18 377.142 601.26 Q 377.558 603.34 377.558 605.784 Z" style="fill: rgb(65, 61, 81); white-space: pre;"/>
  <path d="M 398.084 622.528 Q 395.016 622.528 392.494 621.41 Q 389.972 620.292 388.126 618.342 Q 386.28 616.392 385.266 613.844 Q 384.252 611.296 384.252 608.436 Q 384.252 604.588 386.02 601.416 Q 387.788 598.244 390.934 596.32 Q 394.08 594.396 398.136 594.396 Q 402.244 594.396 405.286 596.346 Q 408.328 598.296 410.018 601.442 Q 411.708 604.588 411.708 608.228 Q 411.708 608.748 411.682 609.242 Q 411.656 609.736 411.604 609.996 L 389.088 609.996 Q 389.296 612.648 390.57 614.702 Q 391.844 616.756 393.872 617.926 Q 395.9 619.096 398.24 619.096 Q 400.736 619.096 402.946 617.848 Q 405.156 616.6 405.988 614.572 L 409.94 615.664 Q 409.056 617.64 407.314 619.2 Q 405.572 620.76 403.206 621.644 Q 400.84 622.528 398.084 622.528 Z M 388.932 606.824 L 407.444 606.824 Q 407.236 604.172 405.936 602.144 Q 404.636 600.116 402.608 598.972 Q 400.58 597.828 398.136 597.828 Q 395.744 597.828 393.716 598.972 Q 391.688 600.116 390.414 602.144 Q 389.14 604.172 388.932 606.824 Z" style="fill: rgb(65, 61, 81); white-space: pre;"/>
  <path d="M 441.768 622.008 L 437.192 622.008 L 437.192 606.824 Q 437.192 602.508 435.866 600.506 Q 434.54 598.504 431.836 598.504 Q 429.964 598.504 428.118 599.44 Q 426.272 600.376 424.842 601.962 Q 423.412 603.548 422.788 605.628 L 422.788 622.008 L 418.212 622.008 L 418.212 594.864 L 422.372 594.864 L 422.372 600.688 Q 423.464 598.764 425.18 597.36 Q 426.896 595.956 429.08 595.176 Q 431.264 594.396 433.656 594.396 Q 435.996 594.396 437.582 595.254 Q 439.168 596.112 440.078 597.646 Q 440.988 599.18 441.378 601.26 Q 441.768 603.34 441.768 605.784 Z" style="fill: rgb(65, 61, 81); white-space: pre;"/>
  <path d="M 464.065 620.656 Q 463.493 620.916 462.505 621.332 Q 461.517 621.748 460.217 622.06 Q 458.917 622.372 457.461 622.372 Q 455.797 622.372 454.393 621.774 Q 452.989 621.176 452.157 619.902 Q 451.325 618.628 451.325 616.704 L 451.325 598.452 L 447.633 598.452 L 447.633 594.864 L 451.325 594.864 L 451.325 585.816 L 455.901 585.816 L 455.901 594.864 L 461.985 594.864 L 461.985 598.452 L 455.901 598.452 L 455.901 615.3 Q 456.005 616.756 456.889 617.458 Q 457.773 618.16 458.969 618.16 Q 460.321 618.16 461.465 617.692 Q 462.609 617.224 462.973 617.016 Z" style="fill: rgb(65, 61, 81); white-space: pre;"/>
  <path d="M 509.718 622.008 L 491.622 602.924 Q 489.386 600.532 488.06 598.842 Q 486.734 597.152 486.162 595.774 Q 485.59 594.396 485.59 592.94 Q 485.59 590.548 486.838 588.676 Q 488.086 586.804 490.244 585.712 Q 492.402 584.62 495.106 584.62 Q 497.602 584.62 499.63 585.53 Q 501.658 586.44 502.88 588.13 Q 504.102 589.82 504.102 592.16 Q 504.102 594.552 502.802 596.398 Q 501.502 598.244 499.396 599.83 Q 497.29 601.416 494.742 603.028 Q 492.662 604.38 490.972 605.784 Q 489.282 607.188 488.32 608.774 Q 487.358 610.36 487.358 612.284 Q 487.358 614.364 488.502 615.846 Q 489.646 617.328 491.492 618.108 Q 493.338 618.888 495.366 618.888 Q 498.018 618.888 500.306 617.666 Q 502.594 616.444 504.336 614.26 Q 506.078 612.076 507.04 609.19 Q 508.002 606.304 508.002 602.976 L 511.798 602.976 Q 511.798 607.24 510.472 610.802 Q 509.146 614.364 506.832 616.99 Q 504.518 619.616 501.45 621.072 Q 498.382 622.528 494.898 622.528 Q 491.518 622.528 488.788 621.176 Q 486.058 619.824 484.498 617.51 Q 482.938 615.196 482.938 612.232 Q 482.938 609.372 484.264 607.214 Q 485.59 605.056 487.696 603.366 Q 489.802 601.676 492.038 600.272 Q 494.326 598.816 496.094 597.594 Q 497.862 596.372 498.876 595.072 Q 499.89 593.772 499.89 592.264 Q 499.89 590.444 498.538 589.274 Q 497.186 588.104 495.106 588.104 Q 493.546 588.104 492.35 588.754 Q 491.154 589.404 490.478 590.47 Q 489.802 591.536 489.802 592.836 Q 489.802 593.668 490.218 594.552 Q 490.634 595.436 491.804 596.788 Q 492.974 598.14 495.106 600.428 L 515.75 622.008 Z" style="fill: rgb(65, 61, 81); white-space: pre;"/>
  <path d="M 544.973 622.528 Q 541.593 622.528 538.629 621.41 Q 535.665 620.292 533.533 618.056 L 535.301 614.832 Q 537.641 617.016 539.981 617.952 Q 542.321 618.888 544.765 618.888 Q 547.573 618.888 549.341 617.822 Q 551.109 616.756 551.109 614.676 Q 551.109 613.168 550.199 612.44 Q 549.289 611.712 547.625 611.218 Q 545.961 610.724 543.673 610.1 Q 540.865 609.268 538.941 608.332 Q 537.017 607.396 536.029 605.992 Q 535.041 604.588 535.041 602.456 Q 535.041 599.856 536.393 598.062 Q 537.745 596.268 540.111 595.332 Q 542.477 594.396 545.493 594.396 Q 548.509 594.396 550.953 595.332 Q 553.397 596.268 555.165 598.088 L 553.085 601.26 Q 551.473 599.596 549.549 598.79 Q 547.625 597.984 545.233 597.984 Q 543.829 597.984 542.477 598.322 Q 541.125 598.66 540.241 599.518 Q 539.357 600.376 539.357 601.936 Q 539.357 603.236 540.059 603.99 Q 540.761 604.744 542.139 605.264 Q 543.517 605.784 545.493 606.408 Q 548.561 607.292 550.823 608.176 Q 553.085 609.06 554.333 610.464 Q 555.581 611.868 555.581 614.364 Q 555.581 618.212 552.669 620.37 Q 549.757 622.528 544.973 622.528 Z" style="fill: rgb(65, 61, 81); white-space: pre;"/>
  <path d="M 562.171 611.14 L 562.171 594.864 L 566.747 594.864 L 566.747 610.256 Q 566.747 614.416 568.203 616.496 Q 569.659 618.576 572.519 618.576 Q 574.391 618.576 576.133 617.77 Q 577.875 616.964 579.279 615.456 Q 580.683 613.948 581.463 611.868 L 581.463 594.864 L 586.039 594.864 L 586.039 616.808 Q 586.039 617.64 586.377 618.03 Q 586.715 618.42 587.495 618.472 L 587.495 622.008 Q 586.715 622.112 586.273 622.138 Q 585.831 622.164 585.415 622.164 Q 584.115 622.164 583.179 621.358 Q 582.243 620.552 582.191 619.356 L 582.087 616.184 Q 580.319 619.2 577.329 620.864 Q 574.339 622.528 570.803 622.528 Q 566.539 622.528 564.355 619.642 Q 562.171 616.756 562.171 611.14 Z" style="fill: rgb(65, 61, 81); white-space: pre;"/>
  <path d="M 604.395 622.528 Q 601.015 622.528 598.051 621.41 Q 595.087 620.292 592.955 618.056 L 594.723 614.832 Q 597.063 617.016 599.403 617.952 Q 601.743 618.888 604.187 618.888 Q 606.995 618.888 608.763 617.822 Q 610.531 616.756 610.531 614.676 Q 610.531 613.168 609.621 612.44 Q 608.711 611.712 607.047 611.218 Q 605.383 610.724 603.095 610.1 Q 600.287 609.268 598.363 608.332 Q 596.439 607.396 595.451 605.992 Q 594.463 604.588 594.463 602.456 Q 594.463 599.856 595.815 598.062 Q 597.167 596.268 599.533 595.332 Q 601.899 594.396 604.915 594.396 Q 607.931 594.396 610.375 595.332 Q 612.819 596.268 614.587 598.088 L 612.507 601.26 Q 610.895 599.596 608.971 598.79 Q 607.047 597.984 604.655 597.984 Q 603.251 597.984 601.899 598.322 Q 600.547 598.66 599.663 599.518 Q 598.779 600.376 598.779 601.936 Q 598.779 603.236 599.481 603.99 Q 600.183 604.744 601.561 605.264 Q 602.939 605.784 604.915 606.408 Q 607.983 607.292 610.245 608.176 Q 612.507 609.06 613.755 610.464 Q 615.003 611.868 615.003 614.364 Q 615.003 618.212 612.091 620.37 Q 609.179 622.528 604.395 622.528 Z" style="fill: rgb(65, 61, 81); white-space: pre;"/>
  <path d="M 635.909 620.656 Q 635.337 620.916 634.349 621.332 Q 633.361 621.748 632.061 622.06 Q 630.761 622.372 629.305 622.372 Q 627.641 622.372 626.237 621.774 Q 624.833 621.176 624.001 619.902 Q 623.169 618.628 623.169 616.704 L 623.169 598.452 L 619.477 598.452 L 619.477 594.864 L 623.169 594.864 L 623.169 585.816 L 627.745 585.816 L 627.745 594.864 L 633.829 594.864 L 633.829 598.452 L 627.745 598.452 L 627.745 615.3 Q 627.849 616.756 628.733 617.458 Q 629.617 618.16 630.813 618.16 Q 632.165 618.16 633.309 617.692 Q 634.453 617.224 634.817 617.016 Z" style="fill: rgb(65, 61, 81); white-space: pre;"/>
  <path d="M 639.44 614.156 Q 639.44 611.556 640.922 609.658 Q 642.404 607.76 645.004 606.72 Q 647.604 605.68 651.036 605.68 Q 652.856 605.68 654.884 605.966 Q 656.912 606.252 658.472 606.824 L 658.472 604.848 Q 658.472 601.728 656.6 599.934 Q 654.728 598.14 651.296 598.14 Q 649.06 598.14 647.006 598.946 Q 644.952 599.752 642.664 601.26 L 641 598.036 Q 643.652 596.216 646.304 595.306 Q 648.956 594.396 651.816 594.396 Q 657.016 594.396 660.032 597.282 Q 663.048 600.168 663.048 605.316 L 663.048 616.808 Q 663.048 617.64 663.386 618.03 Q 663.724 618.42 664.504 618.472 L 664.504 622.008 Q 663.828 622.112 663.334 622.164 Q 662.84 622.216 662.528 622.216 Q 660.916 622.216 660.11 621.332 Q 659.304 620.448 659.2 619.46 L 659.096 617.744 Q 657.328 620.032 654.468 621.28 Q 651.608 622.528 648.8 622.528 Q 646.096 622.528 643.964 621.41 Q 641.832 620.292 640.636 618.394 Q 639.44 616.496 639.44 614.156 Z M 657.12 616.08 Q 657.744 615.352 658.108 614.598 Q 658.472 613.844 658.472 613.324 L 658.472 609.944 Q 656.86 609.32 655.092 608.982 Q 653.324 608.644 651.608 608.644 Q 648.124 608.644 645.966 610.022 Q 643.808 611.4 643.808 613.792 Q 643.808 615.092 644.51 616.314 Q 645.212 617.536 646.59 618.316 Q 647.968 619.096 649.996 619.096 Q 652.128 619.096 654.052 618.238 Q 655.976 617.38 657.12 616.08 Z" style="fill: rgb(65, 61, 81); white-space: pre;"/>
  <path d="M 671.775 622.008 L 671.775 594.864 L 676.351 594.864 L 676.351 622.008 Z M 671.775 589.768 L 671.775 584.048 L 676.351 584.048 L 676.351 589.768 Z" style="fill: rgb(65, 61, 81); white-space: pre;"/>
  <path d="M 708.69 622.008 L 704.114 622.008 L 704.114 606.824 Q 704.114 602.508 702.788 600.506 Q 701.462 598.504 698.758 598.504 Q 696.886 598.504 695.04 599.44 Q 693.194 600.376 691.764 601.962 Q 690.334 603.548 689.71 605.628 L 689.71 622.008 L 685.134 622.008 L 685.134 594.864 L 689.294 594.864 L 689.294 600.688 Q 690.386 598.764 692.102 597.36 Q 693.818 595.956 696.002 595.176 Q 698.186 594.396 700.578 594.396 Q 702.918 594.396 704.504 595.254 Q 706.09 596.112 707 597.646 Q 707.91 599.18 708.3 601.26 Q 708.69 603.34 708.69 605.784 Z" style="fill: rgb(65, 61, 81); white-space: pre;"/>
  <path d="M 715.08 614.156 Q 715.08 611.556 716.562 609.658 Q 718.044 607.76 720.644 606.72 Q 723.244 605.68 726.676 605.68 Q 728.496 605.68 730.524 605.966 Q 732.552 606.252 734.112 606.824 L 734.112 604.848 Q 734.112 601.728 732.24 599.934 Q 730.368 598.14 726.936 598.14 Q 724.7 598.14 722.646 598.946 Q 720.592 599.752 718.304 601.26 L 716.64 598.036 Q 719.292 596.216 721.944 595.306 Q 724.596 594.396 727.456 594.396 Q 732.656 594.396 735.672 597.282 Q 738.688 600.168 738.688 605.316 L 738.688 616.808 Q 738.688 617.64 739.026 618.03 Q 739.364 618.42 740.144 618.472 L 740.144 622.008 Q 739.468 622.112 738.974 622.164 Q 738.48 622.216 738.168 622.216 Q 736.556 622.216 735.75 621.332 Q 734.944 620.448 734.84 619.46 L 734.736 617.744 Q 732.968 620.032 730.108 621.28 Q 727.248 622.528 724.44 622.528 Q 721.736 622.528 719.604 621.41 Q 717.472 620.292 716.276 618.394 Q 715.08 616.496 715.08 614.156 Z M 732.76 616.08 Q 733.384 615.352 733.748 614.598 Q 734.112 613.844 734.112 613.324 L 734.112 609.944 Q 732.5 609.32 730.732 608.982 Q 728.964 608.644 727.248 608.644 Q 723.764 608.644 721.606 610.022 Q 719.448 611.4 719.448 613.792 Q 719.448 615.092 720.15 616.314 Q 720.852 617.536 722.23 618.316 Q 723.608 619.096 725.636 619.096 Q 727.768 619.096 729.692 618.238 Q 731.616 617.38 732.76 616.08 Z" style="fill: rgb(65, 61, 81); white-space: pre;"/>
  <path d="M 761.367 622.528 Q 758.195 622.528 755.595 620.968 Q 752.995 619.408 751.487 616.912 L 751.487 622.008 L 747.431 622.008 L 747.431 584.048 L 752.007 584.048 L 752.007 600.272 Q 753.723 597.62 756.219 596.008 Q 758.715 594.396 762.043 594.396 Q 764.851 594.396 767.087 595.566 Q 769.323 596.736 770.909 598.738 Q 772.495 600.74 773.353 603.262 Q 774.211 605.784 774.211 608.54 Q 774.211 611.4 773.249 613.922 Q 772.287 616.444 770.519 618.394 Q 768.751 620.344 766.437 621.436 Q 764.123 622.528 761.367 622.528 Z M 760.223 618.576 Q 762.251 618.576 763.967 617.744 Q 765.683 616.912 766.931 615.508 Q 768.179 614.104 768.855 612.284 Q 769.531 610.464 769.531 608.54 Q 769.531 605.888 768.413 603.548 Q 767.295 601.208 765.293 599.778 Q 763.291 598.348 760.639 598.348 Q 758.715 598.348 757.051 599.232 Q 755.387 600.116 754.113 601.546 Q 752.839 602.976 752.007 604.692 L 752.007 612.544 Q 752.267 613.844 753.099 614.936 Q 753.931 616.028 755.127 616.834 Q 756.323 617.64 757.649 618.108 Q 758.975 618.576 760.223 618.576 Z" style="fill: rgb(65, 61, 81); white-space: pre;"/>
  <path d="M 781.212 622.008 L 781.212 594.864 L 785.788 594.864 L 785.788 622.008 Z M 781.212 589.768 L 781.212 584.048 L 785.788 584.048 L 785.788 589.768 Z" style="fill: rgb(65, 61, 81); white-space: pre;"/>
  <path d="M 794.691 584.048 L 799.267 584.048 L 799.267 614.988 Q 799.267 617.224 799.891 617.744 Q 800.515 618.264 801.399 618.264 Q 802.491 618.264 803.479 618.03 Q 804.467 617.796 805.143 617.536 L 805.871 621.28 Q 804.727 621.748 803.167 622.06 Q 801.607 622.372 800.411 622.372 Q 797.759 622.372 796.225 620.864 Q 794.691 619.356 794.691 616.652 Z" style="fill: rgb(65, 61, 81); white-space: pre;"/>
  <path d="M 810.853 622.008 L 810.853 594.864 L 815.429 594.864 L 815.429 622.008 Z M 810.853 589.768 L 810.853 584.048 L 815.429 584.048 L 815.429 589.768 Z" style="fill: rgb(65, 61, 81); white-space: pre;"/>
  <path d="M 838.252 620.656 Q 837.68 620.916 836.692 621.332 Q 835.704 621.748 834.404 622.06 Q 833.104 622.372 831.648 622.372 Q 829.984 622.372 828.58 621.774 Q 827.176 621.176 826.344 619.902 Q 825.512 618.628 825.512 616.704 L 825.512 598.452 L 821.82 598.452 L 821.82 594.864 L 825.512 594.864 L 825.512 585.816 L 830.088 585.816 L 830.088 594.864 L 836.172 594.864 L 836.172 598.452 L 830.088 598.452 L 830.088 615.3 Q 830.192 616.756 831.076 617.458 Q 831.96 618.16 833.156 618.16 Q 834.508 618.16 835.652 617.692 Q 836.796 617.224 837.16 617.016 Z" style="fill: rgb(65, 61, 81); white-space: pre;"/>
  <path d="M 845.163 629.392 Q 845.839 629.444 846.515 629.522 Q 847.191 629.6 847.555 629.6 Q 848.387 629.6 849.011 629.028 Q 849.635 628.456 850.389 626.818 Q 851.143 625.18 852.339 622.008 L 840.847 594.864 L 845.683 594.864 L 854.835 617.38 L 863.103 594.864 L 867.627 594.864 L 854.419 629.132 Q 853.951 630.328 853.041 631.394 Q 852.131 632.46 850.727 633.084 Q 849.323 633.708 847.347 633.708 Q 846.879 633.708 846.385 633.656 Q 845.891 633.604 845.163 633.448 Z" style="fill: rgb(65, 61, 81); white-space: pre;"/>
</svg>