<?xml version="1.0" encoding="utf-8"?>
<svg viewBox="0 0 1280 640" style="enable-background:new 0 0 1000 1000;" xmlns="http://www.w3.org/2000/svg">
  <defs>
    <style type="text/css">
	.st0{opacity:0.7;fill:#FFFFFF;}
	.st1{fill:#413D51;}
	.st2{fill:#8FE3F9;}
	.st3{fill:#B2EBF9;}
	.st4{fill:#A4E0EA;}
	.st5{fill:#7AD1E5;}
	.st6{fill:none;stroke:#413D51;stroke-width:16;stroke-linecap:round;stroke-linejoin:round;stroke-miterlimit:10;}
	.st7{fill:#F7E8AD;}
	.st8{fill:#F7D6A1;}
	.st9{fill:#EFCA92;}
	.st10{fill:#FFFFFF;}
	.st11{opacity:0.89;fill:#EFCA92;}
	.st12{fill:none;stroke:#413D51;stroke-width:8;stroke-linecap:round;stroke-linejoin:round;stroke-miterlimit:10;}
	.st13{opacity:0.31;fill:none;stroke:#72C8D6;stroke-width:8;stroke-linecap:round;stroke-linejoin:round;stroke-miterlimit:10;}
</style>
  </defs>
  <rect class="st0" width="1280" height="640" style="opacity: 1;"/>
  <g transform="matrix(0.563983, 0, 0, 0.563983, 357.720734, -8.566069)" style="">
    <ellipse id="XMLID_2_" class="st2" cx="501.8" cy="487.5" rx="228" ry="205.8"/>
    <ellipse id="XMLID_188_" class="st2" cx="501.8" cy="487.5" rx="228" ry="205.8"/>
    <path id="XMLID_193_" class="st3" d="M507.8,689.3c52.1,0,100.1-15.3,138.5-41l-10.5-24.7c-22-51.9-74.2-85.8-132.1-85.8l0,0 c-57.9,0-110.1,33.9-132.1,85.8l-8.6,20.4C402.3,672.3,452.8,689.3,507.8,689.3z"/>
    <path id="XMLID_189_" class="st4" d="M501.7,470.3l-43.6,64l32.9,43.8c5.4,7.2,16.3,7.2,21.7,0l32.6-43.8L501.7,470.3z"/>
    <path id="XMLID_192_" class="st5" d="M501.8,669.3c-121.5,0-220.7-85.7-227.6-193.8c-0.3,4-0.4,8-0.4,12 c0,113.6,102.1,205.8,228,205.8s228-92.1,228-205.8c0-4-0.1-8-0.4-12C722.5,583.6,623.2,669.3,501.8,669.3z"/>
    <path id="XMLID_76_" class="st4" d="M638.6,628.1c-38.1,25.8-85.5,41.2-136.8,41.2c-50,0-96.2-14.5-133.7-39.1l-5,12.3 c39.4,29.2,89.8,46.8,144.8,46.8c49.7,0,95.7-14.4,133.2-38.8c1.8-1.2,3.5-2.5,5.3-3.8L638.6,628.1z"/>
    <path id="XMLID_186_" class="st5" d="M268.2,488.2c6.4,13.1,15,25.3,25.8,36.2c52.3,52.3,137.2,52.3,189.5,0 c43.8-43.8,50.9-110.3,21.5-161.5"/>
    <path id="XMLID_185_" class="st5" d="M729,503.8c-24,36.1-65,59.8-111.6,59.8c-74,0-134-60-134-134c0-33,11.9-63.2,31.7-86.6"/>
    <ellipse id="XMLID_75_" class="st6" cx="501.8" cy="487.5" rx="228" ry="205.8"/>
    <polygon id="XMLID_74_" class="st1" points="501.7,442.3 458.1,506.3 501.9,564.6 545.4,506.3 &#9;"/>
    <polygon id="XMLID_73_" class="st6" points="501.7,442.3 458.1,506.3 501.9,564.6 545.4,506.3 &#9;"/>
    <path id="XMLID_72_" class="st1" d="M600.7,303.9c-30-14-64.1-21.9-100-21.9s-70,7.9-100,21.9v140.1h200V303.9z"/>
    <g id="XMLID_58_">
      <path id="XMLID_71_" class="st1" d="M613.5,317.9l108.7-3.3c-15.7,39.3-17.8,98.4-4.1,163c-17.4,36.8-54.4,62.9-97.9,64.2l0,0 c-61.8,1.9-113.5-46.7-115.3-108.6l0,0C503,371.4,551.6,319.8,613.5,317.9z"/>
      <path id="XMLID_70_" class="st6" d="M613.5,317.9l108.7-3.3c-15.7,39.3-17.8,98.4-4.1,163c-17.4,36.8-54.4,62.9-97.9,64.2l0,0 c-61.8,1.9-113.5-46.7-115.3-108.6l0,0C503,371.4,551.6,319.8,613.5,317.9z"/>
      <circle id="XMLID_69_" class="st7" cx="617.4" cy="429.7" r="112"/>
      <circle id="XMLID_5_" class="st7" cx="617.4" cy="429.7" r="112"/>
      <path id="XMLID_86_" class="st8" d="M696.6,350.5c-21.5-21.5-49.7-32.4-77.9-32.8c21.2,4.1,41.5,14.3,57.9,30.8 c43.7,43.7,43.7,114.6,0,158.4c-22.2,22.2-51.4,33.1-80.4,32.8c35.3,6.8,73.1-3.5,100.4-30.8C740.3,465.1,740.3,394.2,696.6,350.5 z"/>
      <ellipse id="XMLID_3_" transform="matrix(0.7071 -0.7071 0.7071 0.7071 -130.8246 543.5441)" class="st0" cx="590.7" cy="429.7" rx="84" ry="84.6"/>
      <path id="XMLID_12_" class="st9" d="M711.4,376.6c-3.1-4-9.1-15-12.8-18.7c-44-43.4-114.9-43-158.3,1.1 c-8.6,8.7-15.5,18.5-20.6,29C581.4,366.3,649,371.5,711.4,376.6z"/>
      <circle id="XMLID_68_" class="st6" cx="617.4" cy="429.7" r="112"/>
      <circle id="XMLID_67_" class="st6" cx="617.4" cy="429.7" r="112"/>
      <path id="XMLID_66_" class="st1" d="M706.7,362.1c-3.1-4-6.4-7.9-10.1-11.6c-43.7-43.7-114.6-43.7-158.4,0 c-8.7,8.7-15.6,18.4-20.8,28.8C579.4,358.1,644.3,356.5,706.7,362.1z"/>
      <circle id="XMLID_57_" class="st1" cx="562.9" cy="438.1" r="42"/>
      <circle id="XMLID_56_" class="st10" cx="539.1" cy="438.4" r="14"/>
    </g>
    <g id="XMLID_26_">
      <path id="XMLID_89_" class="st1" d="M388.8,317.9L280,314.6c15.7,39.3,17.8,98.4,4.1,163c17.4,36.8,54.4,62.9,97.9,64.2l0,0 c61.8,1.9,113.5-46.7,115.3-108.6l0,0C499.2,371.4,450.6,319.8,388.8,317.9z"/>
      <path id="XMLID_88_" class="st6" d="M388.8,317.9L280,314.6c15.7,39.3,17.8,98.4,4.1,163c17.4,36.8,54.4,62.9,97.9,64.2l0,0 c61.8,1.9,113.5-46.7,115.3-108.6l0,0C499.2,371.4,450.6,319.8,388.8,317.9z"/>
      <circle id="XMLID_87_" class="st7" cx="384.8" cy="429.7" r="112"/>
      <circle id="XMLID_84_" class="st7" cx="384.8" cy="429.7" r="112"/>
      <path id="XMLID_65_" class="st8" d="M305.6,350.5c21.5-21.5,49.7-32.4,77.9-32.8c-21.2,4.1-41.5,14.3-57.9,30.8 c-43.7,43.7-43.7,114.6,0,158.4c22.2,22.2,51.4,33.1,80.4,32.8c-35.3,6.8-73.1-3.5-100.4-30.8 C261.9,465.1,261.9,394.2,305.6,350.5z"/>
      <ellipse id="XMLID_64_" transform="matrix(0.7071 -0.7071 0.7071 0.7071 -183.3021 416.8521)" class="st0" cx="411.5" cy="429.7" rx="84.6" ry="84"/>
      <path id="XMLID_63_" class="st11" d="M290.9,376.6c3.1-4,9.1-15,12.8-18.7c44-43.4,114.9-43,158.3,1.1c8.6,8.7,15.5,18.5,20.6,29 C420.8,366.3,353.2,371.5,290.9,376.6z"/>
      <circle id="XMLID_62_" class="st6" cx="384.8" cy="429.7" r="112"/>
      <circle id="XMLID_61_" class="st6" cx="384.8" cy="429.7" r="112"/>
      <path id="XMLID_60_" class="st1" d="M295.6,362.1c3.1-4,6.4-7.9,10.1-11.6c43.7-43.7,114.6-43.7,158.4,0 c8.7,8.7,15.6,18.4,20.8,28.8C422.9,358.1,357.9,356.5,295.6,362.1z"/>
      <circle id="XMLID_59_" class="st1" cx="439.4" cy="438.1" r="42"/>
      <circle id="XMLID_37_" class="st10" cx="463.2" cy="438.4" r="14"/>
    </g>
    <path id="XMLID_19_" class="st1" d="M447.9,718.3L447.9,718.3c-8.8,0-16-7.2-16-16v-18c0-8.8,7.2-16,16-16h0c8.8,0,16,7.2,16,16v18 C463.9,711.1,456.8,718.3,447.9,718.3z"/>
    <path id="XMLID_17_" class="st1" d="M415.9,718.3L415.9,718.3c-8.8,0-16-7.2-16-16v-18c0-8.8,7.2-16,16-16h0c8.8,0,16,7.2,16,16v18 C431.9,711.1,424.8,718.3,415.9,718.3z"/>
    <path id="XMLID_16_" class="st1" d="M479.7,718.3L479.7,718.3c-8.8,0-16-7.2-16-16v-18c0-8.8,7.2-16,16-16h0c8.8,0,16,7.2,16,16v18 C495.7,711.1,488.5,718.3,479.7,718.3z"/>
    <path id="XMLID_15_" class="st1" d="M521.9,718.3L521.9,718.3c-8.8,0-16-7.2-16-16v-18c0-8.8,7.2-16,16-16h0c8.8,0,16,7.2,16,16v18 C537.9,711.1,530.7,718.3,521.9,718.3z"/>
    <path id="XMLID_14_" class="st1" d="M553.7,718.3L553.7,718.3c-8.8,0-16-7.2-16-16v-18c0-8.8,7.2-16,16-16h0c8.8,0,16,7.2,16,16v18 C569.7,711.1,562.5,718.3,553.7,718.3z"/>
    <path id="XMLID_13_" class="st1" d="M585.7,718.3L585.7,718.3c-8.8,0-16-7.2-16-16v-18c0-8.8,7.2-16,16-16h0c8.8,0,16,7.2,16,16v18 C601.7,711.1,594.5,718.3,585.7,718.3z"/>
    <path id="XMLID_11_" class="st12" d="M491.9,587.6c0,8.4-6.8,15.2-15.2,15.2c-8.4,0-15.2-6.8-15.2-15.2"/>
    <path id="XMLID_9_" class="st12" d="M538.4,587.6c0,8.4-6.8,15.2-15.2,15.2c-8.4,0-15.2-6.8-15.2-15.2"/>
    <path id="XMLID_10_" class="st13" d="M323,548.8c-2.2,4.7-7.7,6.8-12.5,4.6s-6.8-7.7-4.6-12.5"/>
    <path id="XMLID_1_" class="st13" d="M352.8,564.3c-2.2,4.7-7.7,6.8-12.5,4.6c-4.7-2.2-6.8-7.7-4.6-12.5"/>
    <path id="XMLID_78_" class="st13" d="M335.5,576.2c-2.2,4.7-7.7,6.8-12.5,4.6c-4.7-2.2-6.8-7.7-4.6-12.5"/>
    <path id="XMLID_77_" class="st13" d="M361.7,596.1c-2.2,4.7-7.7,6.8-12.5,4.6c-4.7-2.2-6.8-7.7-4.6-12.5"/>
    <path id="XMLID_79_" class="st13" d="M381.7,578.1c-2.2,4.7-7.7,6.8-12.5,4.6c-4.7-2.2-6.8-7.7-4.6-12.5"/>
    <path id="XMLID_85_" class="st13" d="M683.7,550.8c2.2,4.7,7.7,6.8,12.5,4.6s6.8-7.7,4.6-12.5"/>
    <path id="XMLID_83_" class="st13" d="M654,566.3c2.2,4.7,7.7,6.8,12.5,4.6c4.7-2.2,6.8-7.7,4.6-12.5"/>
    <path id="XMLID_82_" class="st13" d="M671.2,578.2c2.2,4.7,7.7,6.8,12.5,4.6c4.7-2.2,6.8-7.7,4.6-12.5"/>
    <path id="XMLID_81_" class="st13" d="M645.1,598.1c2.2,4.7,7.7,6.8,12.5,4.6c4.7-2.2,6.8-7.7,4.6-12.5"/>
    <path id="XMLID_80_" class="st13" d="M625.1,580.1c2.2,4.7,7.7,6.8,12.5,4.6c4.7-2.2,6.8-7.7,4.6-12.5"/>
    <path id="XMLID_8_" class="st12" d="M468.7,624.1c0,8.4-6.8,15.2-15.2,15.2c-8.4,0-15.2-6.8-15.2-15.2"/>
    <path id="XMLID_7_" class="st12" d="M515.2,624.1c0,8.4-6.8,15.2-15.2,15.2s-15.2-6.8-15.2-15.2"/>
    <path id="XMLID_6_" class="st12" d="M561.7,624.1c0,8.4-6.8,15.2-15.2,15.2c-8.4,0-15.2-6.8-15.2-15.2"/>
  </g>
  <path d="M 449.614 432.305 L 442.084 432.305 Q 441.13 432.305 440.703 431.878 Q 440.277 431.452 440.277 430.498 L 440.277 397.968 Q 440.277 397.014 440.703 396.588 Q 441.13 396.161 442.084 396.161 L 447.305 396.161 Q 448.259 396.161 448.936 396.462 Q 449.614 396.763 450.267 397.516 L 460.005 408.661 L 460.005 397.968 Q 460.005 397.014 460.432 396.588 Q 460.859 396.161 461.813 396.161 L 469.343 396.161 Q 470.296 396.161 470.723 396.588 Q 471.15 397.014 471.15 397.968 L 471.15 430.498 Q 471.15 431.452 470.723 431.878 Q 470.296 432.305 469.343 432.305 L 461.813 432.305 Q 460.859 432.305 460.432 431.878 Q 460.005 431.452 460.005 430.498 L 460.005 424.323 L 451.421 413.932 L 451.421 430.498 Q 451.421 431.452 450.994 431.878 Q 450.568 432.305 449.614 432.305 Z" style="fill: rgb(65, 61, 81); white-space: pre;"/>
  <path d="M 494.825 432.305 L 478.962 432.305 Q 478.008 432.305 477.581 431.878 Q 477.154 431.452 477.154 430.498 L 477.154 424.624 Q 477.154 423.671 477.581 423.244 Q 478.008 422.817 478.962 422.817 L 492.465 422.817 Q 493.118 422.817 493.444 422.39 Q 493.771 421.964 493.771 421.361 Q 493.771 420.508 493.444 420.106 Q 493.118 419.705 492.465 419.655 L 484.935 418.6 Q 481.421 418.098 479.288 416.291 Q 477.154 414.484 477.154 410.267 L 477.154 404.996 Q 477.154 400.729 479.915 398.445 Q 482.676 396.161 487.546 396.161 L 501.602 396.161 Q 502.556 396.161 502.982 396.588 Q 503.409 397.014 503.409 397.968 L 503.409 403.942 Q 503.409 404.896 502.982 405.322 Q 502.556 405.749 501.602 405.749 L 489.905 405.749 Q 489.253 405.749 488.901 406.176 Q 488.55 406.603 488.55 407.255 Q 488.55 407.908 488.901 408.36 Q 489.253 408.811 489.905 408.862 L 497.385 409.866 Q 500.899 410.368 503.058 412.175 Q 505.216 413.982 505.216 418.199 L 505.216 423.47 Q 505.216 427.737 502.43 430.021 Q 499.644 432.305 494.825 432.305 Z" style="fill: rgb(65, 61, 81); white-space: pre;"/>
  <path d="M 541.456 422.817 Q 541.456 425.126 540.778 427.009 Q 540.1 428.891 538.368 430.222 Q 536.636 431.552 533.624 432.305 Q 530.612 433.058 525.944 433.058 Q 521.275 433.058 518.263 432.305 Q 515.251 431.552 513.519 430.222 Q 511.787 428.891 511.11 427.009 Q 510.432 425.126 510.432 422.817 L 510.432 397.968 Q 510.432 397.014 510.859 396.588 Q 511.285 396.161 512.239 396.161 L 520.121 396.161 Q 521.074 396.161 521.501 396.588 Q 521.928 397.014 521.928 397.968 L 521.928 420.859 Q 521.928 421.863 522.681 422.541 Q 523.434 423.219 526.044 423.219 Q 528.705 423.219 529.458 422.541 Q 530.211 421.863 530.211 420.859 L 530.211 397.968 Q 530.211 397.014 530.638 396.588 Q 531.064 396.161 532.018 396.161 L 539.648 396.161 Q 540.602 396.161 541.029 396.588 Q 541.456 397.014 541.456 397.968 Z" style="fill: rgb(65, 61, 81); white-space: pre;"/>
  <path d="M 564.887 432.305 L 549.024 432.305 Q 548.07 432.305 547.644 431.878 Q 547.217 431.452 547.217 430.498 L 547.217 424.624 Q 547.217 423.671 547.644 423.244 Q 548.07 422.817 549.024 422.817 L 562.528 422.817 Q 563.181 422.817 563.507 422.39 Q 563.833 421.964 563.833 421.361 Q 563.833 420.508 563.507 420.106 Q 563.181 419.705 562.528 419.655 L 554.998 418.6 Q 551.484 418.098 549.35 416.291 Q 547.217 414.484 547.217 410.267 L 547.217 404.996 Q 547.217 400.729 549.978 398.445 Q 552.739 396.161 557.608 396.161 L 571.664 396.161 Q 572.618 396.161 573.045 396.588 Q 573.472 397.014 573.472 397.968 L 573.472 403.942 Q 573.472 404.896 573.045 405.322 Q 572.618 405.749 571.664 405.749 L 559.968 405.749 Q 559.315 405.749 558.964 406.176 Q 558.612 406.603 558.612 407.255 Q 558.612 407.908 558.964 408.36 Q 559.315 408.811 559.968 408.862 L 567.448 409.866 Q 570.962 410.368 573.12 412.175 Q 575.279 413.982 575.279 418.199 L 575.279 423.47 Q 575.279 427.737 572.493 430.021 Q 569.707 432.305 564.887 432.305 Z" style="fill: rgb(65, 61, 81); white-space: pre;"/>
  <path d="M 597.314 432.305 L 589.181 432.305 Q 588.227 432.305 587.801 431.878 Q 587.374 431.452 587.374 430.498 L 587.374 405.85 L 579.995 405.85 Q 579.041 405.85 578.614 405.423 Q 578.187 404.996 578.187 404.042 L 578.187 397.968 Q 578.187 397.014 578.614 396.588 Q 579.041 396.161 579.995 396.161 L 606.5 396.161 Q 607.454 396.161 607.881 396.588 Q 608.307 397.014 608.307 397.968 L 608.307 404.042 Q 608.307 404.996 607.881 405.423 Q 607.454 405.85 606.5 405.85 L 599.121 405.85 L 599.121 430.498 Q 599.121 431.452 598.694 431.878 Q 598.267 432.305 597.314 432.305 Z" style="fill: rgb(65, 61, 81); white-space: pre;"/>
  <path d="M 624.254 406.703 L 621.895 414.333 L 629.776 414.333 L 627.417 406.703 Q 627.216 406.251 626.99 406.05 Q 626.764 405.85 626.463 405.85 L 625.208 405.85 Q 624.907 405.85 624.681 406.05 Q 624.455 406.251 624.254 406.703 Z M 621.393 430.498 Q 621.393 431.452 620.966 431.878 Q 620.539 432.305 619.585 432.305 L 612.206 432.305 Q 611.252 432.305 610.825 431.878 Q 610.399 431.452 610.399 430.498 L 610.399 417.245 Q 610.399 415.739 610.876 413.781 Q 611.353 411.823 612.357 409.213 L 616.724 397.818 Q 617.025 396.964 617.653 396.563 Q 618.28 396.161 619.284 396.161 L 632.788 396.161 Q 633.742 396.161 634.369 396.563 Q 634.997 396.964 635.298 397.818 L 639.665 409.213 Q 640.669 411.823 641.146 413.781 Q 641.623 415.739 641.623 417.245 L 641.623 430.498 Q 641.623 431.452 641.196 431.878 Q 640.77 432.305 639.816 432.305 L 632.236 432.305 Q 631.232 432.305 630.755 431.878 Q 630.278 431.452 630.278 430.498 L 630.278 423.47 L 621.393 423.47 Z" style="fill: rgb(65, 61, 81); white-space: pre;"/>
  <path d="M 648.796 432.305 Q 647.843 432.305 647.416 431.878 Q 646.989 431.452 646.989 430.498 L 646.989 424.524 Q 646.989 423.57 647.416 423.143 Q 647.843 422.717 648.796 422.717 L 653.766 422.717 L 653.766 405.85 L 648.796 405.85 Q 647.843 405.85 647.416 405.423 Q 646.989 404.996 646.989 404.042 L 646.989 397.968 Q 646.989 397.014 647.416 396.588 Q 647.843 396.161 648.796 396.161 L 670.182 396.161 Q 671.135 396.161 671.562 396.588 Q 671.989 397.014 671.989 397.968 L 671.989 404.042 Q 671.989 404.996 671.562 405.423 Q 671.135 405.85 670.182 405.85 L 665.312 405.85 L 665.312 422.717 L 670.182 422.717 Q 671.135 422.717 671.562 423.143 Q 671.989 423.57 671.989 424.524 L 671.989 430.498 Q 671.989 431.452 671.562 431.878 Q 671.135 432.305 670.182 432.305 Z" style="fill: rgb(65, 61, 81); white-space: pre;"/>
  <path d="M 687.489 432.305 L 679.959 432.305 Q 679.005 432.305 678.578 431.878 Q 678.152 431.452 678.152 430.498 L 678.152 397.968 Q 678.152 397.014 678.578 396.588 Q 679.005 396.161 679.959 396.161 L 685.18 396.161 Q 686.134 396.161 686.811 396.462 Q 687.489 396.763 688.142 397.516 L 697.88 408.661 L 697.88 397.968 Q 697.88 397.014 698.307 396.588 Q 698.734 396.161 699.688 396.161 L 707.218 396.161 Q 708.171 396.161 708.598 396.588 Q 709.025 397.014 709.025 397.968 L 709.025 430.498 Q 709.025 431.452 708.598 431.878 Q 708.171 432.305 707.218 432.305 L 699.688 432.305 Q 698.734 432.305 698.307 431.878 Q 697.88 431.452 697.88 430.498 L 697.88 424.323 L 689.296 413.932 L 689.296 430.498 Q 689.296 431.452 688.869 431.878 Q 688.443 432.305 687.489 432.305 Z" style="fill: rgb(65, 61, 81); white-space: pre;"/>
  <path d="M 727.193 432.305 L 717.053 432.305 Q 716.099 432.305 715.673 431.878 Q 715.246 431.452 715.246 430.498 L 715.246 420.307 Q 715.246 419.353 715.673 418.927 Q 716.099 418.5 717.053 418.5 L 727.193 418.5 Q 728.147 418.5 728.574 418.927 Q 729.001 419.353 729.001 420.307 L 729.001 430.498 Q 729.001 431.452 728.574 431.878 Q 728.147 432.305 727.193 432.305 Z" style="fill: rgb(65, 61, 81); white-space: pre;"/>
  <path d="M 759.26 432.305 L 747.011 432.305 Q 740.736 432.305 737.699 429.795 Q 734.662 427.285 734.662 422.064 L 734.662 406.452 Q 734.662 401.231 737.699 398.696 Q 740.736 396.161 747.011 396.161 L 759.26 396.161 Q 760.214 396.161 760.641 396.588 Q 761.067 397.014 761.067 397.968 L 761.067 404.042 Q 761.067 404.996 760.641 405.423 Q 760.214 405.85 759.26 405.85 L 749.17 405.85 Q 747.614 405.85 746.861 406.477 Q 746.108 407.105 746.108 408.36 L 746.108 420.307 Q 746.108 421.562 746.861 422.139 Q 747.614 422.717 749.17 422.717 L 759.26 422.717 Q 760.214 422.717 760.641 423.143 Q 761.067 423.57 761.067 424.524 L 761.067 430.498 Q 761.067 431.452 760.641 431.878 Q 760.214 432.305 759.26 432.305 Z" style="fill: rgb(65, 61, 81); white-space: pre;"/>
  <path d="M 797.102 422.817 Q 797.102 425.126 796.424 427.009 Q 795.747 428.891 794.015 430.222 Q 792.283 431.552 789.246 432.305 Q 786.209 433.058 781.54 433.058 Q 776.871 433.058 773.809 432.305 Q 770.747 431.552 769.015 430.222 Q 767.283 428.891 766.605 427.009 Q 765.928 425.126 765.928 422.817 L 765.928 405.699 Q 765.928 403.39 766.605 401.507 Q 767.283 399.625 769.015 398.269 Q 770.747 396.914 773.809 396.161 Q 776.871 395.408 781.54 395.408 Q 786.209 395.408 789.246 396.161 Q 792.283 396.914 794.015 398.269 Q 795.747 399.625 796.424 401.507 Q 797.102 403.39 797.102 405.699 Z M 777.323 421.01 Q 777.323 422.014 778.076 422.692 Q 778.829 423.369 781.54 423.369 Q 784.251 423.369 785.004 422.692 Q 785.757 422.014 785.757 421.01 L 785.757 407.506 Q 785.757 406.552 785.004 405.875 Q 784.251 405.197 781.54 405.197 Q 778.829 405.197 778.076 405.875 Q 777.323 406.552 777.323 407.506 Z" style="fill: rgb(65, 61, 81); white-space: pre;"/>
  <path d="M 812.767 432.305 L 805.287 432.305 Q 804.333 432.305 803.907 431.878 Q 803.48 431.452 803.48 430.498 L 803.48 397.968 Q 803.48 397.014 803.907 396.588 Q 804.333 396.161 805.287 396.161 L 813.369 396.161 Q 814.173 396.161 814.7 396.512 Q 815.227 396.864 815.679 397.667 L 820.197 405.85 Q 820.448 406.301 820.623 406.502 Q 820.799 406.703 821.1 406.703 L 821.552 406.703 Q 821.853 406.703 822.029 406.502 Q 822.205 406.301 822.456 405.85 L 826.923 397.667 Q 827.375 396.864 827.902 396.512 Q 828.429 396.161 829.233 396.161 L 837.365 396.161 Q 838.319 396.161 838.745 396.588 Q 839.172 397.014 839.172 397.968 L 839.172 430.498 Q 839.172 431.452 838.745 431.878 Q 838.319 432.305 837.365 432.305 L 829.634 432.305 Q 828.68 432.305 828.254 431.878 Q 827.827 431.452 827.827 430.498 L 827.827 412.827 L 824.865 418.299 Q 824.413 419.153 823.786 419.529 Q 823.158 419.906 822.205 419.906 L 820.197 419.906 Q 819.243 419.906 818.615 419.529 Q 817.988 419.153 817.536 418.299 L 814.574 412.827 L 814.574 430.498 Q 814.574 431.452 814.147 431.878 Q 813.721 432.305 812.767 432.305 Z" style="fill: rgb(65, 61, 81); white-space: pre;"/>
  <path d="M 446.795 469.458 Q 445.084 469.458 443.677 468.834 Q 442.271 468.211 441.241 467.123 Q 440.212 466.036 439.646 464.615 Q 439.081 463.194 439.081 461.599 Q 439.081 459.453 440.067 457.684 Q 441.053 455.915 442.807 454.842 Q 444.562 453.769 446.824 453.769 Q 449.115 453.769 450.811 454.856 Q 452.508 455.944 453.45 457.698 Q 454.393 459.453 454.393 461.483 Q 454.393 461.773 454.378 462.048 Q 454.364 462.324 454.335 462.469 L 441.778 462.469 Q 441.894 463.948 442.604 465.093 Q 443.315 466.239 444.446 466.891 Q 445.577 467.544 446.882 467.544 Q 448.274 467.544 449.506 466.848 Q 450.739 466.152 451.203 465.021 L 453.407 465.63 Q 452.914 466.732 451.942 467.602 Q 450.971 468.472 449.651 468.965 Q 448.332 469.458 446.795 469.458 Z M 441.691 460.7 L 452.015 460.7 Q 451.899 459.221 451.174 458.09 Q 450.449 456.959 449.318 456.321 Q 448.187 455.683 446.824 455.683 Q 445.49 455.683 444.359 456.321 Q 443.228 456.959 442.517 458.09 Q 441.807 459.221 441.691 460.7 Z" style="fill: rgb(65, 61, 81); white-space: pre;"/>
  <path d="M 471.358 469.168 L 468.806 469.168 L 468.806 460.7 Q 468.806 458.293 468.066 457.176 Q 467.327 456.06 465.819 456.06 Q 464.775 456.06 463.745 456.582 Q 462.716 457.104 461.918 457.988 Q 461.121 458.873 460.773 460.033 L 460.773 469.168 L 458.221 469.168 L 458.221 454.03 L 460.541 454.03 L 460.541 457.278 Q 461.15 456.205 462.107 455.422 Q 463.064 454.639 464.282 454.204 Q 465.5 453.769 466.834 453.769 Q 468.139 453.769 469.023 454.247 Q 469.908 454.726 470.415 455.581 Q 470.923 456.437 471.14 457.597 Q 471.358 458.757 471.358 460.12 Z" style="fill: rgb(65, 61, 81); white-space: pre;"/>
  <path d="M 480.368 469.168 L 474.423 454.03 L 477.091 454.03 L 481.847 466.732 L 486.603 454.03 L 489.097 454.03 L 483.152 469.168 Z" style="fill: rgb(65, 61, 81); white-space: pre;"/>
  <path d="M 492.643 469.168 L 492.643 454.03 L 495.195 454.03 L 495.195 469.168 Z M 492.643 451.188 L 492.643 447.998 L 495.195 447.998 L 495.195 451.188 Z" style="fill: rgb(65, 61, 81); white-space: pre;"/>
  <path d="M 508.319 456.263 Q 506.405 456.292 504.94 457.234 Q 503.476 458.177 502.867 459.83 L 502.867 469.168 L 500.315 469.168 L 500.315 454.03 L 502.693 454.03 L 502.693 457.539 Q 503.476 455.973 504.766 455.001 Q 506.057 454.03 507.478 453.914 Q 507.768 453.914 507.971 453.914 Q 508.174 453.914 508.319 453.943 Z" style="fill: rgb(65, 61, 81); white-space: pre;"/>
  <path d="M 518.114 469.458 Q 516.403 469.458 515.011 468.834 Q 513.619 468.211 512.604 467.123 Q 511.589 466.036 511.038 464.615 Q 510.487 463.194 510.487 461.628 Q 510.487 460.033 511.038 458.612 Q 511.589 457.191 512.604 456.103 Q 513.619 455.016 515.026 454.392 Q 516.432 453.769 518.143 453.769 Q 519.825 453.769 521.217 454.392 Q 522.609 455.016 523.639 456.103 Q 524.668 457.191 525.219 458.612 Q 525.77 460.033 525.77 461.628 Q 525.77 463.194 525.219 464.615 Q 524.668 466.036 523.653 467.123 Q 522.638 468.211 521.232 468.834 Q 519.825 469.458 518.114 469.458 Z M 513.097 461.657 Q 513.097 463.223 513.779 464.499 Q 514.46 465.775 515.591 466.514 Q 516.722 467.254 518.114 467.254 Q 519.506 467.254 520.652 466.5 Q 521.797 465.746 522.479 464.455 Q 523.16 463.165 523.16 461.599 Q 523.16 460.033 522.479 458.757 Q 521.797 457.481 520.652 456.727 Q 519.506 455.973 518.114 455.973 Q 516.722 455.973 515.591 456.741 Q 514.46 457.51 513.779 458.786 Q 513.097 460.062 513.097 461.657 Z" style="fill: rgb(65, 61, 81); white-space: pre;"/>
  <path d="M 542.999 469.168 L 540.447 469.168 L 540.447 460.7 Q 540.447 458.293 539.707 457.176 Q 538.968 456.06 537.46 456.06 Q 536.416 456.06 535.386 456.582 Q 534.357 457.104 533.559 457.988 Q 532.762 458.873 532.414 460.033 L 532.414 469.168 L 529.862 469.168 L 529.862 454.03 L 532.182 454.03 L 532.182 457.278 Q 532.791 456.205 533.748 455.422 Q 534.705 454.639 535.923 454.204 Q 537.141 453.769 538.475 453.769 Q 539.78 453.769 540.664 454.247 Q 541.549 454.726 542.056 455.581 Q 542.564 456.437 542.781 457.597 Q 542.999 458.757 542.999 460.12 Z" style="fill: rgb(65, 61, 81); white-space: pre;"/>
  <path d="M 570.81 469.168 L 568.258 469.168 L 568.258 460.7 Q 568.258 458.322 567.489 457.191 Q 566.721 456.06 565.213 456.06 Q 563.676 456.06 562.429 457.176 Q 561.182 458.293 560.66 460.062 L 560.66 469.168 L 558.108 469.168 L 558.108 460.7 Q 558.108 458.293 557.354 457.176 Q 556.6 456.06 555.092 456.06 Q 553.584 456.06 552.322 457.147 Q 551.061 458.235 550.539 460.033 L 550.539 469.168 L 547.987 469.168 L 547.987 454.03 L 550.307 454.03 L 550.307 457.278 Q 551.235 455.596 552.714 454.682 Q 554.193 453.769 556.049 453.769 Q 557.934 453.769 559.065 454.798 Q 560.196 455.828 560.457 457.452 Q 561.472 455.654 562.922 454.711 Q 564.372 453.769 566.228 453.769 Q 567.533 453.769 568.417 454.247 Q 569.302 454.726 569.824 455.581 Q 570.346 456.437 570.578 457.597 Q 570.81 458.757 570.81 460.12 Z" style="fill: rgb(65, 61, 81); white-space: pre;"/>
  <path d="M 582.467 469.458 Q 580.756 469.458 579.349 468.834 Q 577.943 468.211 576.913 467.123 Q 575.884 466.036 575.318 464.615 Q 574.753 463.194 574.753 461.599 Q 574.753 459.453 575.739 457.684 Q 576.725 455.915 578.479 454.842 Q 580.234 453.769 582.496 453.769 Q 584.787 453.769 586.483 454.856 Q 588.18 455.944 589.122 457.698 Q 590.065 459.453 590.065 461.483 Q 590.065 461.773 590.05 462.048 Q 590.036 462.324 590.007 462.469 L 577.45 462.469 Q 577.566 463.948 578.276 465.093 Q 578.987 466.239 580.118 466.891 Q 581.249 467.544 582.554 467.544 Q 583.946 467.544 585.178 466.848 Q 586.411 466.152 586.875 465.021 L 589.079 465.63 Q 588.586 466.732 587.614 467.602 Q 586.643 468.472 585.323 468.965 Q 584.004 469.458 582.467 469.458 Z M 577.363 460.7 L 587.687 460.7 Q 587.571 459.221 586.846 458.09 Q 586.121 456.959 584.99 456.321 Q 583.859 455.683 582.496 455.683 Q 581.162 455.683 580.031 456.321 Q 578.9 456.959 578.189 458.09 Q 577.479 459.221 577.363 460.7 Z" style="fill: rgb(65, 61, 81); white-space: pre;"/>
  <path d="M 607.045 469.168 L 604.493 469.168 L 604.493 460.7 Q 604.493 458.293 603.754 457.176 Q 603.014 456.06 601.506 456.06 Q 600.462 456.06 599.433 456.582 Q 598.403 457.104 597.606 457.988 Q 596.808 458.873 596.46 460.033 L 596.46 469.168 L 593.908 469.168 L 593.908 454.03 L 596.228 454.03 L 596.228 457.278 Q 596.837 456.205 597.794 455.422 Q 598.751 454.639 599.969 454.204 Q 601.187 453.769 602.521 453.769 Q 603.826 453.769 604.711 454.247 Q 605.595 454.726 606.103 455.581 Q 606.61 456.437 606.828 457.597 Q 607.045 458.757 607.045 460.12 Z" style="fill: rgb(65, 61, 81); white-space: pre;"/>
  <path d="M 619.707 468.414 Q 619.388 468.559 618.837 468.791 Q 618.286 469.023 617.561 469.197 Q 616.836 469.371 616.024 469.371 Q 615.096 469.371 614.313 469.037 Q 613.53 468.704 613.066 467.993 Q 612.602 467.283 612.602 466.21 L 612.602 456.031 L 610.543 456.031 L 610.543 454.03 L 612.602 454.03 L 612.602 448.984 L 615.154 448.984 L 615.154 454.03 L 618.547 454.03 L 618.547 456.031 L 615.154 456.031 L 615.154 465.427 Q 615.212 466.239 615.705 466.63 Q 616.198 467.022 616.865 467.022 Q 617.619 467.022 618.257 466.761 Q 618.895 466.5 619.098 466.384 Z" style="fill: rgb(65, 61, 81); white-space: pre;"/>
  <path d="M 645.605 469.168 L 635.513 458.525 Q 634.266 457.191 633.527 456.248 Q 632.787 455.306 632.468 454.537 Q 632.149 453.769 632.149 452.957 Q 632.149 451.623 632.845 450.579 Q 633.541 449.535 634.745 448.926 Q 635.948 448.317 637.456 448.317 Q 638.848 448.317 639.979 448.824 Q 641.11 449.332 641.792 450.274 Q 642.473 451.217 642.473 452.522 Q 642.473 453.856 641.748 454.885 Q 641.023 455.915 639.849 456.799 Q 638.674 457.684 637.253 458.583 Q 636.093 459.337 635.151 460.12 Q 634.208 460.903 633.672 461.787 Q 633.135 462.672 633.135 463.745 Q 633.135 464.905 633.773 465.731 Q 634.411 466.558 635.441 466.993 Q 636.47 467.428 637.601 467.428 Q 639.08 467.428 640.356 466.746 Q 641.632 466.065 642.604 464.847 Q 643.575 463.629 644.112 462.019 Q 644.648 460.41 644.648 458.554 L 646.765 458.554 Q 646.765 460.932 646.026 462.918 Q 645.286 464.905 643.996 466.369 Q 642.705 467.834 640.994 468.646 Q 639.283 469.458 637.34 469.458 Q 635.455 469.458 633.933 468.704 Q 632.41 467.95 631.54 466.659 Q 630.67 465.369 630.67 463.716 Q 630.67 462.121 631.41 460.917 Q 632.149 459.714 633.324 458.771 Q 634.498 457.829 635.745 457.046 Q 637.021 456.234 638.007 455.552 Q 638.993 454.871 639.559 454.146 Q 640.124 453.421 640.124 452.58 Q 640.124 451.565 639.37 450.912 Q 638.616 450.26 637.456 450.26 Q 636.586 450.26 635.919 450.622 Q 635.252 450.985 634.875 451.579 Q 634.498 452.174 634.498 452.899 Q 634.498 453.363 634.73 453.856 Q 634.962 454.349 635.615 455.103 Q 636.267 455.857 637.456 457.133 L 648.969 469.168 Z" style="fill: rgb(65, 61, 81); white-space: pre;"/>
  <path d="M 665.709 469.458 Q 663.824 469.458 662.171 468.834 Q 660.518 468.211 659.329 466.964 L 660.315 465.166 Q 661.62 466.384 662.925 466.906 Q 664.23 467.428 665.593 467.428 Q 667.159 467.428 668.145 466.833 Q 669.131 466.239 669.131 465.079 Q 669.131 464.238 668.623 463.832 Q 668.116 463.426 667.188 463.15 Q 666.26 462.875 664.984 462.527 Q 663.418 462.063 662.345 461.541 Q 661.272 461.019 660.721 460.236 Q 660.17 459.453 660.17 458.264 Q 660.17 456.814 660.924 455.813 Q 661.678 454.813 662.997 454.291 Q 664.317 453.769 665.999 453.769 Q 667.681 453.769 669.044 454.291 Q 670.407 454.813 671.393 455.828 L 670.233 457.597 Q 669.334 456.669 668.261 456.219 Q 667.188 455.77 665.854 455.77 Q 665.071 455.77 664.317 455.958 Q 663.563 456.147 663.07 456.625 Q 662.577 457.104 662.577 457.974 Q 662.577 458.699 662.968 459.119 Q 663.36 459.54 664.128 459.83 Q 664.897 460.12 665.999 460.468 Q 667.71 460.961 668.971 461.454 Q 670.233 461.947 670.929 462.73 Q 671.625 463.513 671.625 464.905 Q 671.625 467.051 670.001 468.254 Q 668.377 469.458 665.709 469.458 Z" style="fill: rgb(65, 61, 81); white-space: pre;"/>
  <path d="M 675.513 463.107 L 675.513 454.03 L 678.065 454.03 L 678.065 462.614 Q 678.065 464.934 678.877 466.094 Q 679.689 467.254 681.284 467.254 Q 682.328 467.254 683.3 466.804 Q 684.271 466.355 685.054 465.514 Q 685.837 464.673 686.272 463.513 L 686.272 454.03 L 688.824 454.03 L 688.824 466.268 Q 688.824 466.732 689.013 466.949 Q 689.201 467.167 689.636 467.196 L 689.636 469.168 Q 689.201 469.226 688.955 469.24 Q 688.708 469.255 688.476 469.255 Q 687.751 469.255 687.229 468.805 Q 686.707 468.356 686.678 467.689 L 686.62 465.92 Q 685.634 467.602 683.967 468.53 Q 682.299 469.458 680.327 469.458 Q 677.949 469.458 676.731 467.848 Q 675.513 466.239 675.513 463.107 Z" style="fill: rgb(65, 61, 81); white-space: pre;"/>
  <path d="M 699.287 469.458 Q 697.402 469.458 695.749 468.834 Q 694.096 468.211 692.907 466.964 L 693.893 465.166 Q 695.198 466.384 696.503 466.906 Q 697.808 467.428 699.171 467.428 Q 700.737 467.428 701.723 466.833 Q 702.709 466.239 702.709 465.079 Q 702.709 464.238 702.201 463.832 Q 701.694 463.426 700.766 463.15 Q 699.838 462.875 698.562 462.527 Q 696.996 462.063 695.923 461.541 Q 694.85 461.019 694.299 460.236 Q 693.748 459.453 693.748 458.264 Q 693.748 456.814 694.502 455.813 Q 695.256 454.813 696.575 454.291 Q 697.895 453.769 699.577 453.769 Q 701.259 453.769 702.622 454.291 Q 703.985 454.813 704.971 455.828 L 703.811 457.597 Q 702.912 456.669 701.839 456.219 Q 700.766 455.77 699.432 455.77 Q 698.649 455.77 697.895 455.958 Q 697.141 456.147 696.648 456.625 Q 696.155 457.104 696.155 457.974 Q 696.155 458.699 696.546 459.119 Q 696.938 459.54 697.706 459.83 Q 698.475 460.12 699.577 460.468 Q 701.288 460.961 702.549 461.454 Q 703.811 461.947 704.507 462.73 Q 705.203 463.513 705.203 464.905 Q 705.203 467.051 703.579 468.254 Q 701.955 469.458 699.287 469.458 Z" style="fill: rgb(65, 61, 81); white-space: pre;"/>
  <path d="M 717.067 468.414 Q 716.748 468.559 716.197 468.791 Q 715.646 469.023 714.921 469.197 Q 714.196 469.371 713.384 469.371 Q 712.456 469.371 711.673 469.037 Q 710.89 468.704 710.426 467.993 Q 709.962 467.283 709.962 466.21 L 709.962 456.031 L 707.903 456.031 L 707.903 454.03 L 709.962 454.03 L 709.962 448.984 L 712.514 448.984 L 712.514 454.03 L 715.907 454.03 L 715.907 456.031 L 712.514 456.031 L 712.514 465.427 Q 712.572 466.239 713.065 466.63 Q 713.558 467.022 714.225 467.022 Q 714.979 467.022 715.617 466.761 Q 716.255 466.5 716.458 466.384 Z" style="fill: rgb(65, 61, 81); white-space: pre;"/>
  <path d="M 719.266 464.789 Q 719.266 463.339 720.093 462.28 Q 720.919 461.222 722.369 460.642 Q 723.819 460.062 725.733 460.062 Q 726.748 460.062 727.879 460.221 Q 729.01 460.381 729.88 460.7 L 729.88 459.598 Q 729.88 457.858 728.836 456.857 Q 727.792 455.857 725.878 455.857 Q 724.631 455.857 723.486 456.306 Q 722.34 456.756 721.064 457.597 L 720.136 455.799 Q 721.615 454.784 723.094 454.276 Q 724.573 453.769 726.168 453.769 Q 729.068 453.769 730.75 455.378 Q 732.432 456.988 732.432 459.859 L 732.432 466.268 Q 732.432 466.732 732.621 466.949 Q 732.809 467.167 733.244 467.196 L 733.244 469.168 Q 732.867 469.226 732.592 469.255 Q 732.316 469.284 732.142 469.284 Q 731.243 469.284 730.794 468.791 Q 730.344 468.298 730.286 467.747 L 730.228 466.79 Q 729.242 468.066 727.647 468.762 Q 726.052 469.458 724.486 469.458 Q 722.978 469.458 721.789 468.834 Q 720.6 468.211 719.933 467.152 Q 719.266 466.094 719.266 464.789 Z M 729.126 465.862 Q 729.474 465.456 729.677 465.035 Q 729.88 464.615 729.88 464.325 L 729.88 462.44 Q 728.981 462.092 727.995 461.903 Q 727.009 461.715 726.052 461.715 Q 724.109 461.715 722.906 462.483 Q 721.702 463.252 721.702 464.586 Q 721.702 465.311 722.094 465.992 Q 722.485 466.674 723.254 467.109 Q 724.022 467.544 725.153 467.544 Q 726.342 467.544 727.415 467.065 Q 728.488 466.587 729.126 465.862 Z" style="fill: rgb(65, 61, 81); white-space: pre;"/>
  <path d="M 737.518 469.168 L 737.518 454.03 L 740.07 454.03 L 740.07 469.168 Z M 737.518 451.188 L 737.518 447.998 L 740.07 447.998 L 740.07 451.188 Z" style="fill: rgb(65, 61, 81); white-space: pre;"/>
  <path d="M 758.327 469.168 L 755.775 469.168 L 755.775 460.7 Q 755.775 458.293 755.035 457.176 Q 754.296 456.06 752.788 456.06 Q 751.744 456.06 750.714 456.582 Q 749.685 457.104 748.887 457.988 Q 748.09 458.873 747.742 460.033 L 747.742 469.168 L 745.19 469.168 L 745.19 454.03 L 747.51 454.03 L 747.51 457.278 Q 748.119 456.205 749.076 455.422 Q 750.033 454.639 751.251 454.204 Q 752.469 453.769 753.803 453.769 Q 755.108 453.769 755.992 454.247 Q 756.877 454.726 757.384 455.581 Q 757.892 456.437 758.109 457.597 Q 758.327 458.757 758.327 460.12 Z" style="fill: rgb(65, 61, 81); white-space: pre;"/>
  <path d="M 762.11 464.789 Q 762.11 463.339 762.937 462.28 Q 763.763 461.222 765.213 460.642 Q 766.663 460.062 768.577 460.062 Q 769.592 460.062 770.723 460.221 Q 771.854 460.381 772.724 460.7 L 772.724 459.598 Q 772.724 457.858 771.68 456.857 Q 770.636 455.857 768.722 455.857 Q 767.475 455.857 766.33 456.306 Q 765.184 456.756 763.908 457.597 L 762.98 455.799 Q 764.459 454.784 765.938 454.276 Q 767.417 453.769 769.012 453.769 Q 771.912 453.769 773.594 455.378 Q 775.276 456.988 775.276 459.859 L 775.276 466.268 Q 775.276 466.732 775.465 466.949 Q 775.653 467.167 776.088 467.196 L 776.088 469.168 Q 775.711 469.226 775.436 469.255 Q 775.16 469.284 774.986 469.284 Q 774.087 469.284 773.638 468.791 Q 773.188 468.298 773.13 467.747 L 773.072 466.79 Q 772.086 468.066 770.491 468.762 Q 768.896 469.458 767.33 469.458 Q 765.822 469.458 764.633 468.834 Q 763.444 468.211 762.777 467.152 Q 762.11 466.094 762.11 464.789 Z M 771.97 465.862 Q 772.318 465.456 772.521 465.035 Q 772.724 464.615 772.724 464.325 L 772.724 462.44 Q 771.825 462.092 770.839 461.903 Q 769.853 461.715 768.896 461.715 Q 766.953 461.715 765.75 462.483 Q 764.546 463.252 764.546 464.586 Q 764.546 465.311 764.938 465.992 Q 765.329 466.674 766.098 467.109 Q 766.866 467.544 767.997 467.544 Q 769.186 467.544 770.259 467.065 Q 771.332 466.587 771.97 465.862 Z" style="fill: rgb(65, 61, 81); white-space: pre;"/>
  <path d="M 788.134 469.458 Q 786.365 469.458 784.915 468.588 Q 783.465 467.718 782.624 466.326 L 782.624 469.168 L 780.362 469.168 L 780.362 447.998 L 782.914 447.998 L 782.914 457.046 Q 783.871 455.567 785.263 454.668 Q 786.655 453.769 788.511 453.769 Q 790.077 453.769 791.324 454.421 Q 792.571 455.074 793.455 456.19 Q 794.34 457.307 794.818 458.713 Q 795.297 460.12 795.297 461.657 Q 795.297 463.252 794.76 464.658 Q 794.224 466.065 793.238 467.152 Q 792.252 468.24 790.961 468.849 Q 789.671 469.458 788.134 469.458 Z M 787.496 467.254 Q 788.627 467.254 789.584 466.79 Q 790.541 466.326 791.237 465.543 Q 791.933 464.76 792.31 463.745 Q 792.687 462.73 792.687 461.657 Q 792.687 460.178 792.063 458.873 Q 791.44 457.568 790.323 456.77 Q 789.207 455.973 787.728 455.973 Q 786.655 455.973 785.727 456.466 Q 784.799 456.959 784.088 457.756 Q 783.378 458.554 782.914 459.511 L 782.914 463.89 Q 783.059 464.615 783.523 465.224 Q 783.987 465.833 784.654 466.282 Q 785.321 466.732 786.06 466.993 Q 786.8 467.254 787.496 467.254 Z" style="fill: rgb(65, 61, 81); white-space: pre;"/>
  <path d="M 799.424 469.168 L 799.424 454.03 L 801.976 454.03 L 801.976 469.168 Z M 799.424 451.188 L 799.424 447.998 L 801.976 447.998 L 801.976 451.188 Z" style="fill: rgb(65, 61, 81); white-space: pre;"/>
  <path d="M 807.154 447.998 L 809.706 447.998 L 809.706 465.253 Q 809.706 466.5 810.054 466.79 Q 810.402 467.08 810.895 467.08 Q 811.504 467.08 812.055 466.949 Q 812.606 466.819 812.983 466.674 L 813.389 468.762 Q 812.751 469.023 811.881 469.197 Q 811.011 469.371 810.344 469.371 Q 808.865 469.371 808.009 468.53 Q 807.154 467.689 807.154 466.181 Z" style="fill: rgb(65, 61, 81); white-space: pre;"/>
  <path d="M 816.393 469.168 L 816.393 454.03 L 818.945 454.03 L 818.945 469.168 Z M 816.393 451.188 L 816.393 447.998 L 818.945 447.998 L 818.945 451.188 Z" style="fill: rgb(65, 61, 81); white-space: pre;"/>
  <path d="M 831.895 468.414 Q 831.576 468.559 831.025 468.791 Q 830.474 469.023 829.749 469.197 Q 829.024 469.371 828.212 469.371 Q 827.284 469.371 826.501 469.037 Q 825.718 468.704 825.254 467.993 Q 824.79 467.283 824.79 466.21 L 824.79 456.031 L 822.731 456.031 L 822.731 454.03 L 824.79 454.03 L 824.79 448.984 L 827.342 448.984 L 827.342 454.03 L 830.735 454.03 L 830.735 456.031 L 827.342 456.031 L 827.342 465.427 Q 827.4 466.239 827.893 466.63 Q 828.386 467.022 829.053 467.022 Q 829.807 467.022 830.445 466.761 Q 831.083 466.5 831.286 466.384 Z" style="fill: rgb(65, 61, 81); white-space: pre;"/>
  <path d="M 835.964 473.286 Q 836.341 473.315 836.718 473.358 Q 837.095 473.402 837.298 473.402 Q 837.762 473.402 838.11 473.083 Q 838.458 472.764 838.878 471.85 Q 839.299 470.937 839.966 469.168 L 833.557 454.03 L 836.254 454.03 L 841.358 466.587 L 845.969 454.03 L 848.492 454.03 L 841.126 473.141 Q 840.865 473.808 840.357 474.402 Q 839.85 474.997 839.067 475.345 Q 838.284 475.693 837.182 475.693 Q 836.921 475.693 836.645 475.664 Q 836.37 475.635 835.964 475.548 Z" style="fill: rgb(65, 61, 81); white-space: pre;"/>
</svg>