<?xml version="1.0" encoding="utf-8"?>
<svg viewBox="0 0 1280 640" style="enable-background:new 0 0 1000 1000;" xmlns="http://www.w3.org/2000/svg">
  <defs>
    <style type="text/css">
	.st0{opacity:0.7;fill:#FFFFFF;}
	.st1{fill:#413D51;}
	.st2{fill:#8FE3F9;}
	.st3{fill:#B2EBF9;}
	.st4{fill:#A4E0EA;}
	.st5{fill:#7AD1E5;}
	.st6{fill:none;stroke:#413D51;stroke-width:16;stroke-linecap:round;stroke-linejoin:round;stroke-miterlimit:10;}
	.st7{fill:#F7E8AD;}
	.st8{fill:#F7D6A1;}
	.st9{fill:#EFCA92;}
	.st10{fill:#FFFFFF;}
	.st11{opacity:0.89;fill:#EFCA92;}
	.st12{fill:none;stroke:#413D51;stroke-width:8;stroke-linecap:round;stroke-linejoin:round;stroke-miterlimit:10;}
	.st13{opacity:0.31;fill:none;stroke:#72C8D6;stroke-width:8;stroke-linecap:round;stroke-linejoin:round;stroke-miterlimit:10;}
</style>
  </defs>
  <rect class="st0" width="1280" height="640" style="opacity: 1;"/>
  <g transform="matrix(0.563983, 0, 0, 0.563983, 358.036285, -73.689796)" style="">
    <ellipse id="XMLID_2_" class="st2" cx="501.8" cy="487.5" rx="228" ry="205.8"/>
    <ellipse id="XMLID_188_" class="st2" cx="501.8" cy="487.5" rx="228" ry="205.8"/>
    <path id="XMLID_193_" class="st3" d="M507.8,689.3c52.1,0,100.1-15.3,138.5-41l-10.5-24.7c-22-51.9-74.2-85.8-132.1-85.8l0,0 c-57.9,0-110.1,33.9-132.1,85.8l-8.6,20.4C402.3,672.3,452.8,689.3,507.8,689.3z"/>
    <path id="XMLID_189_" class="st4" d="M501.7,470.3l-43.6,64l32.9,43.8c5.4,7.2,16.3,7.2,21.7,0l32.6-43.8L501.7,470.3z"/>
    <path id="XMLID_192_" class="st5" d="M501.8,669.3c-121.5,0-220.7-85.7-227.6-193.8c-0.3,4-0.4,8-0.4,12 c0,113.6,102.1,205.8,228,205.8s228-92.1,228-205.8c0-4-0.1-8-0.4-12C722.5,583.6,623.2,669.3,501.8,669.3z"/>
    <path id="XMLID_76_" class="st4" d="M638.6,628.1c-38.1,25.8-85.5,41.2-136.8,41.2c-50,0-96.2-14.5-133.7-39.1l-5,12.3 c39.4,29.2,89.8,46.8,144.8,46.8c49.7,0,95.7-14.4,133.2-38.8c1.8-1.2,3.5-2.5,5.3-3.8L638.6,628.1z"/>
    <path id="XMLID_186_" class="st5" d="M268.2,488.2c6.4,13.1,15,25.3,25.8,36.2c52.3,52.3,137.2,52.3,189.5,0 c43.8-43.8,50.9-110.3,21.5-161.5"/>
    <path id="XMLID_185_" class="st5" d="M729,503.8c-24,36.1-65,59.8-111.6,59.8c-74,0-134-60-134-134c0-33,11.9-63.2,31.7-86.6"/>
    <ellipse id="XMLID_75_" class="st6" cx="501.8" cy="487.5" rx="228" ry="205.8"/>
    <polygon id="XMLID_74_" class="st1" points="501.7,442.3 458.1,506.3 501.9,564.6 545.4,506.3 &#9;"/>
    <polygon id="XMLID_73_" class="st6" points="501.7,442.3 458.1,506.3 501.9,564.6 545.4,506.3 &#9;"/>
    <path id="XMLID_72_" class="st1" d="M600.7,303.9c-30-14-64.1-21.9-100-21.9s-70,7.9-100,21.9v140.1h200V303.9z"/>
    <g id="XMLID_58_">
      <path id="XMLID_71_" class="st1" d="M613.5,317.9l108.7-3.3c-15.7,39.3-17.8,98.4-4.1,163c-17.4,36.8-54.4,62.9-97.9,64.2l0,0 c-61.8,1.9-113.5-46.7-115.3-108.6l0,0C503,371.4,551.6,319.8,613.5,317.9z"/>
      <path id="XMLID_70_" class="st6" d="M613.5,317.9l108.7-3.3c-15.7,39.3-17.8,98.4-4.1,163c-17.4,36.8-54.4,62.9-97.9,64.2l0,0 c-61.8,1.9-113.5-46.7-115.3-108.6l0,0C503,371.4,551.6,319.8,613.5,317.9z"/>
      <circle id="XMLID_69_" class="st7" cx="617.4" cy="429.7" r="112"/>
      <circle id="XMLID_5_" class="st7" cx="617.4" cy="429.7" r="112"/>
      <path id="XMLID_86_" class="st8" d="M696.6,350.5c-21.5-21.5-49.7-32.4-77.9-32.8c21.2,4.1,41.5,14.3,57.9,30.8 c43.7,43.7,43.7,114.6,0,158.4c-22.2,22.2-51.4,33.1-80.4,32.8c35.3,6.8,73.1-3.5,100.4-30.8C740.3,465.1,740.3,394.2,696.6,350.5 z"/>
      <ellipse id="XMLID_3_" transform="matrix(0.7071 -0.7071 0.7071 0.7071 -130.8246 543.5441)" class="st0" cx="590.7" cy="429.7" rx="84" ry="84.6"/>
      <path id="XMLID_12_" class="st9" d="M711.4,376.6c-3.1-4-9.1-15-12.8-18.7c-44-43.4-114.9-43-158.3,1.1 c-8.6,8.7-15.5,18.5-20.6,29C581.4,366.3,649,371.5,711.4,376.6z"/>
      <circle id="XMLID_68_" class="st6" cx="617.4" cy="429.7" r="112"/>
      <circle id="XMLID_67_" class="st6" cx="617.4" cy="429.7" r="112"/>
      <path id="XMLID_66_" class="st1" d="M706.7,362.1c-3.1-4-6.4-7.9-10.1-11.6c-43.7-43.7-114.6-43.7-158.4,0 c-8.7,8.7-15.6,18.4-20.8,28.8C579.4,358.1,644.3,356.5,706.7,362.1z"/>
      <circle id="XMLID_57_" class="st1" cx="562.9" cy="438.1" r="42"/>
      <circle id="XMLID_56_" class="st10" cx="539.1" cy="438.4" r="14"/>
    </g>
    <g id="XMLID_26_">
      <path id="XMLID_89_" class="st1" d="M388.8,317.9L280,314.6c15.7,39.3,17.8,98.4,4.1,163c17.4,36.8,54.4,62.9,97.9,64.2l0,0 c61.8,1.9,113.5-46.7,115.3-108.6l0,0C499.2,371.4,450.6,319.8,388.8,317.9z"/>
      <path id="XMLID_88_" class="st6" d="M388.8,317.9L280,314.6c15.7,39.3,17.8,98.4,4.1,163c17.4,36.8,54.4,62.9,97.9,64.2l0,0 c61.8,1.9,113.5-46.7,115.3-108.6l0,0C499.2,371.4,450.6,319.8,388.8,317.9z"/>
      <circle id="XMLID_87_" class="st7" cx="384.8" cy="429.7" r="112"/>
      <circle id="XMLID_84_" class="st7" cx="384.8" cy="429.7" r="112"/>
      <path id="XMLID_65_" class="st8" d="M305.6,350.5c21.5-21.5,49.7-32.4,77.9-32.8c-21.2,4.1-41.5,14.3-57.9,30.8 c-43.7,43.7-43.7,114.6,0,158.4c22.2,22.2,51.4,33.1,80.4,32.8c-35.3,6.8-73.1-3.5-100.4-30.8 C261.9,465.1,261.9,394.2,305.6,350.5z"/>
      <ellipse id="XMLID_64_" transform="matrix(0.7071 -0.7071 0.7071 0.7071 -183.3021 416.8521)" class="st0" cx="411.5" cy="429.7" rx="84.6" ry="84"/>
      <path id="XMLID_63_" class="st11" d="M290.9,376.6c3.1-4,9.1-15,12.8-18.7c44-43.4,114.9-43,158.3,1.1c8.6,8.7,15.5,18.5,20.6,29 C420.8,366.3,353.2,371.5,290.9,376.6z"/>
      <circle id="XMLID_62_" class="st6" cx="384.8" cy="429.7" r="112"/>
      <circle id="XMLID_61_" class="st6" cx="384.8" cy="429.7" r="112"/>
      <path id="XMLID_60_" class="st1" d="M295.6,362.1c3.1-4,6.4-7.9,10.1-11.6c43.7-43.7,114.6-43.7,158.4,0 c8.7,8.7,15.6,18.4,20.8,28.8C422.9,358.1,357.9,356.5,295.6,362.1z"/>
      <circle id="XMLID_59_" class="st1" cx="439.4" cy="438.1" r="42"/>
      <circle id="XMLID_37_" class="st10" cx="463.2" cy="438.4" r="14"/>
    </g>
    <path id="XMLID_19_" class="st1" d="M447.9,718.3L447.9,718.3c-8.8,0-16-7.2-16-16v-18c0-8.8,7.2-16,16-16h0c8.8,0,16,7.2,16,16v18 C463.9,711.1,456.8,718.3,447.9,718.3z"/>
    <path id="XMLID_17_" class="st1" d="M415.9,718.3L415.9,718.3c-8.8,0-16-7.2-16-16v-18c0-8.8,7.2-16,16-16h0c8.8,0,16,7.2,16,16v18 C431.9,711.1,424.8,718.3,415.9,718.3z"/>
    <path id="XMLID_16_" class="st1" d="M479.7,718.3L479.7,718.3c-8.8,0-16-7.2-16-16v-18c0-8.8,7.2-16,16-16h0c8.8,0,16,7.2,16,16v18 C495.7,711.1,488.5,718.3,479.7,718.3z"/>
    <path id="XMLID_15_" class="st1" d="M521.9,718.3L521.9,718.3c-8.8,0-16-7.2-16-16v-18c0-8.8,7.2-16,16-16h0c8.8,0,16,7.2,16,16v18 C537.9,711.1,530.7,718.3,521.9,718.3z"/>
    <path id="XMLID_14_" class="st1" d="M553.7,718.3L553.7,718.3c-8.8,0-16-7.2-16-16v-18c0-8.8,7.2-16,16-16h0c8.8,0,16,7.2,16,16v18 C569.7,711.1,562.5,718.3,553.7,718.3z"/>
    <path id="XMLID_13_" class="st1" d="M585.7,718.3L585.7,718.3c-8.8,0-16-7.2-16-16v-18c0-8.8,7.2-16,16-16h0c8.8,0,16,7.2,16,16v18 C601.7,711.1,594.5,718.3,585.7,718.3z"/>
    <path id="XMLID_11_" class="st12" d="M491.9,587.6c0,8.4-6.8,15.2-15.2,15.2c-8.4,0-15.2-6.8-15.2-15.2"/>
    <path id="XMLID_9_" class="st12" d="M538.4,587.6c0,8.4-6.8,15.2-15.2,15.2c-8.4,0-15.2-6.8-15.2-15.2"/>
    <path id="XMLID_10_" class="st13" d="M323,548.8c-2.2,4.7-7.7,6.8-12.5,4.6s-6.8-7.7-4.6-12.5"/>
    <path id="XMLID_1_" class="st13" d="M352.8,564.3c-2.2,4.7-7.7,6.8-12.5,4.6c-4.7-2.2-6.8-7.7-4.6-12.5"/>
    <path id="XMLID_78_" class="st13" d="M335.5,576.2c-2.2,4.7-7.7,6.8-12.5,4.6c-4.7-2.2-6.8-7.7-4.6-12.5"/>
    <path id="XMLID_77_" class="st13" d="M361.7,596.1c-2.2,4.7-7.7,6.8-12.5,4.6c-4.7-2.2-6.8-7.7-4.6-12.5"/>
    <path id="XMLID_79_" class="st13" d="M381.7,578.1c-2.2,4.7-7.7,6.8-12.5,4.6c-4.7-2.2-6.8-7.7-4.6-12.5"/>
    <path id="XMLID_85_" class="st13" d="M683.7,550.8c2.2,4.7,7.7,6.8,12.5,4.6s6.8-7.7,4.6-12.5"/>
    <path id="XMLID_83_" class="st13" d="M654,566.3c2.2,4.7,7.7,6.8,12.5,4.6c4.7-2.2,6.8-7.7,4.6-12.5"/>
    <path id="XMLID_82_" class="st13" d="M671.2,578.2c2.2,4.7,7.7,6.8,12.5,4.6c4.7-2.2,6.8-7.7,4.6-12.5"/>
    <path id="XMLID_81_" class="st13" d="M645.1,598.1c2.2,4.7,7.7,6.8,12.5,4.6c4.7-2.2,6.8-7.7,4.6-12.5"/>
    <path id="XMLID_80_" class="st13" d="M625.1,580.1c2.2,4.7,7.7,6.8,12.5,4.6c4.7-2.2,6.8-7.7,4.6-12.5"/>
    <path id="XMLID_8_" class="st12" d="M468.7,624.1c0,8.4-6.8,15.2-15.2,15.2c-8.4,0-15.2-6.8-15.2-15.2"/>
    <path id="XMLID_7_" class="st12" d="M515.2,624.1c0,8.4-6.8,15.2-15.2,15.2s-15.2-6.8-15.2-15.2"/>
    <path id="XMLID_6_" class="st12" d="M561.7,624.1c0,8.4-6.8,15.2-15.2,15.2c-8.4,0-15.2-6.8-15.2-15.2"/>
  </g>
  <path d="M 449.93 367.181 L 442.4 367.181 Q 441.446 367.181 441.019 366.754 Q 440.593 366.328 440.593 365.374 L 440.593 332.844 Q 440.593 331.89 441.019 331.464 Q 441.446 331.037 442.4 331.037 L 447.621 331.037 Q 448.575 331.037 449.252 331.338 Q 449.93 331.639 450.583 332.392 L 460.321 343.537 L 460.321 332.844 Q 460.321 331.89 460.748 331.464 Q 461.175 331.037 462.129 331.037 L 469.659 331.037 Q 470.612 331.037 471.039 331.464 Q 471.466 331.89 471.466 332.844 L 471.466 365.374 Q 471.466 366.328 471.039 366.754 Q 470.612 367.181 469.659 367.181 L 462.129 367.181 Q 461.175 367.181 460.748 366.754 Q 460.321 366.328 460.321 365.374 L 460.321 359.199 L 451.737 348.808 L 451.737 365.374 Q 451.737 366.328 451.31 366.754 Q 450.884 367.181 449.93 367.181 Z" style="fill: rgb(65, 61, 81); white-space: pre;"/>
  <path d="M 495.141 367.181 L 479.278 367.181 Q 478.324 367.181 477.897 366.754 Q 477.47 366.328 477.47 365.374 L 477.47 359.5 Q 477.47 358.547 477.897 358.12 Q 478.324 357.693 479.278 357.693 L 492.781 357.693 Q 493.434 357.693 493.76 357.266 Q 494.087 356.84 494.087 356.237 Q 494.087 355.384 493.76 354.982 Q 493.434 354.581 492.781 354.531 L 485.251 353.476 Q 481.737 352.974 479.604 351.167 Q 477.47 349.36 477.47 345.143 L 477.47 339.872 Q 477.47 335.605 480.231 333.321 Q 482.992 331.037 487.862 331.037 L 501.918 331.037 Q 502.872 331.037 503.298 331.464 Q 503.725 331.89 503.725 332.844 L 503.725 338.818 Q 503.725 339.772 503.298 340.198 Q 502.872 340.625 501.918 340.625 L 490.221 340.625 Q 489.569 340.625 489.217 341.052 Q 488.866 341.479 488.866 342.131 Q 488.866 342.784 489.217 343.236 Q 489.569 343.687 490.221 343.738 L 497.701 344.742 Q 501.215 345.244 503.374 347.051 Q 505.532 348.858 505.532 353.075 L 505.532 358.346 Q 505.532 362.613 502.746 364.897 Q 499.96 367.181 495.141 367.181 Z" style="fill: rgb(65, 61, 81); white-space: pre;"/>
  <path d="M 541.772 357.693 Q 541.772 360.002 541.094 361.885 Q 540.416 363.767 538.684 365.098 Q 536.952 366.428 533.94 367.181 Q 530.928 367.934 526.26 367.934 Q 521.591 367.934 518.579 367.181 Q 515.567 366.428 513.835 365.098 Q 512.103 363.767 511.426 361.885 Q 510.748 360.002 510.748 357.693 L 510.748 332.844 Q 510.748 331.89 511.175 331.464 Q 511.601 331.037 512.555 331.037 L 520.437 331.037 Q 521.39 331.037 521.817 331.464 Q 522.244 331.89 522.244 332.844 L 522.244 355.735 Q 522.244 356.739 522.997 357.417 Q 523.75 358.095 526.36 358.095 Q 529.021 358.095 529.774 357.417 Q 530.527 356.739 530.527 355.735 L 530.527 332.844 Q 530.527 331.89 530.954 331.464 Q 531.38 331.037 532.334 331.037 L 539.964 331.037 Q 540.918 331.037 541.345 331.464 Q 541.772 331.89 541.772 332.844 Z" style="fill: rgb(65, 61, 81); white-space: pre;"/>
  <path d="M 565.203 367.181 L 549.34 367.181 Q 548.386 367.181 547.96 366.754 Q 547.533 366.328 547.533 365.374 L 547.533 359.5 Q 547.533 358.547 547.96 358.12 Q 548.386 357.693 549.34 357.693 L 562.844 357.693 Q 563.497 357.693 563.823 357.266 Q 564.149 356.84 564.149 356.237 Q 564.149 355.384 563.823 354.982 Q 563.497 354.581 562.844 354.531 L 555.314 353.476 Q 551.8 352.974 549.666 351.167 Q 547.533 349.36 547.533 345.143 L 547.533 339.872 Q 547.533 335.605 550.294 333.321 Q 553.055 331.037 557.924 331.037 L 571.98 331.037 Q 572.934 331.037 573.361 331.464 Q 573.788 331.89 573.788 332.844 L 573.788 338.818 Q 573.788 339.772 573.361 340.198 Q 572.934 340.625 571.98 340.625 L 560.284 340.625 Q 559.631 340.625 559.28 341.052 Q 558.928 341.479 558.928 342.131 Q 558.928 342.784 559.28 343.236 Q 559.631 343.687 560.284 343.738 L 567.764 344.742 Q 571.278 345.244 573.436 347.051 Q 575.595 348.858 575.595 353.075 L 575.595 358.346 Q 575.595 362.613 572.809 364.897 Q 570.023 367.181 565.203 367.181 Z" style="fill: rgb(65, 61, 81); white-space: pre;"/>
  <path d="M 597.63 367.181 L 589.497 367.181 Q 588.543 367.181 588.117 366.754 Q 587.69 366.328 587.69 365.374 L 587.69 340.726 L 580.311 340.726 Q 579.357 340.726 578.93 340.299 Q 578.503 339.872 578.503 338.918 L 578.503 332.844 Q 578.503 331.89 578.93 331.464 Q 579.357 331.037 580.311 331.037 L 606.816 331.037 Q 607.77 331.037 608.197 331.464 Q 608.623 331.89 608.623 332.844 L 608.623 338.918 Q 608.623 339.872 608.197 340.299 Q 607.77 340.726 606.816 340.726 L 599.437 340.726 L 599.437 365.374 Q 599.437 366.328 599.01 366.754 Q 598.583 367.181 597.63 367.181 Z" style="fill: rgb(65, 61, 81); white-space: pre;"/>
  <path d="M 624.57 341.579 L 622.211 349.209 L 630.092 349.209 L 627.733 341.579 Q 627.532 341.127 627.306 340.926 Q 627.08 340.726 626.779 340.726 L 625.524 340.726 Q 625.223 340.726 624.997 340.926 Q 624.771 341.127 624.57 341.579 Z M 621.709 365.374 Q 621.709 366.328 621.282 366.754 Q 620.855 367.181 619.901 367.181 L 612.522 367.181 Q 611.568 367.181 611.142 366.754 Q 610.715 366.328 610.715 365.374 L 610.715 352.121 Q 610.715 350.615 611.192 348.657 Q 611.669 346.699 612.673 344.089 L 617.04 332.694 Q 617.341 331.84 617.969 331.439 Q 618.596 331.037 619.6 331.037 L 633.104 331.037 Q 634.058 331.037 634.685 331.439 Q 635.313 331.84 635.614 332.694 L 639.981 344.089 Q 640.985 346.699 641.462 348.657 Q 641.939 350.615 641.939 352.121 L 641.939 365.374 Q 641.939 366.328 641.513 366.754 Q 641.086 367.181 640.132 367.181 L 632.552 367.181 Q 631.548 367.181 631.071 366.754 Q 630.594 366.328 630.594 365.374 L 630.594 358.346 L 621.709 358.346 Z" style="fill: rgb(65, 61, 81); white-space: pre;"/>
  <path d="M 649.112 367.181 Q 648.159 367.181 647.732 366.754 Q 647.305 366.328 647.305 365.374 L 647.305 359.4 Q 647.305 358.446 647.732 358.019 Q 648.159 357.593 649.112 357.593 L 654.082 357.593 L 654.082 340.726 L 649.112 340.726 Q 648.159 340.726 647.732 340.299 Q 647.305 339.872 647.305 338.918 L 647.305 332.844 Q 647.305 331.89 647.732 331.464 Q 648.159 331.037 649.112 331.037 L 670.498 331.037 Q 671.451 331.037 671.878 331.464 Q 672.305 331.89 672.305 332.844 L 672.305 338.918 Q 672.305 339.872 671.878 340.299 Q 671.451 340.726 670.498 340.726 L 665.628 340.726 L 665.628 357.593 L 670.498 357.593 Q 671.451 357.593 671.878 358.019 Q 672.305 358.446 672.305 359.4 L 672.305 365.374 Q 672.305 366.328 671.878 366.754 Q 671.451 367.181 670.498 367.181 Z" style="fill: rgb(65, 61, 81); white-space: pre;"/>
  <path d="M 687.805 367.181 L 680.275 367.181 Q 679.321 367.181 678.895 366.754 Q 678.468 366.328 678.468 365.374 L 678.468 332.844 Q 678.468 331.89 678.895 331.464 Q 679.321 331.037 680.275 331.037 L 685.496 331.037 Q 686.45 331.037 687.127 331.338 Q 687.805 331.639 688.458 332.392 L 698.196 343.537 L 698.196 332.844 Q 698.196 331.89 698.623 331.464 Q 699.05 331.037 700.004 331.037 L 707.534 331.037 Q 708.487 331.037 708.914 331.464 Q 709.341 331.89 709.341 332.844 L 709.341 365.374 Q 709.341 366.328 708.914 366.754 Q 708.487 367.181 707.534 367.181 L 700.004 367.181 Q 699.05 367.181 698.623 366.754 Q 698.196 366.328 698.196 365.374 L 698.196 359.199 L 689.612 348.808 L 689.612 365.374 Q 689.612 366.328 689.186 366.754 Q 688.759 367.181 687.805 367.181 Z" style="fill: rgb(65, 61, 81); white-space: pre;"/>
  <path d="M 727.51 367.181 L 717.369 367.181 Q 716.415 367.181 715.989 366.754 Q 715.562 366.328 715.562 365.374 L 715.562 355.183 Q 715.562 354.229 715.989 353.803 Q 716.415 353.376 717.369 353.376 L 727.51 353.376 Q 728.463 353.376 728.89 353.803 Q 729.317 354.229 729.317 355.183 L 729.317 365.374 Q 729.317 366.328 728.89 366.754 Q 728.463 367.181 727.51 367.181 Z" style="fill: rgb(65, 61, 81); white-space: pre;"/>
  <path d="M 759.576 367.181 L 747.327 367.181 Q 741.052 367.181 738.015 364.671 Q 734.978 362.161 734.978 356.94 L 734.978 341.328 Q 734.978 336.107 738.015 333.572 Q 741.052 331.037 747.327 331.037 L 759.576 331.037 Q 760.53 331.037 760.957 331.464 Q 761.383 331.89 761.383 332.844 L 761.383 338.918 Q 761.383 339.872 760.957 340.299 Q 760.53 340.726 759.576 340.726 L 749.486 340.726 Q 747.93 340.726 747.177 341.353 Q 746.424 341.981 746.424 343.236 L 746.424 355.183 Q 746.424 356.438 747.177 357.015 Q 747.93 357.593 749.486 357.593 L 759.576 357.593 Q 760.53 357.593 760.957 358.019 Q 761.383 358.446 761.383 359.4 L 761.383 365.374 Q 761.383 366.328 760.957 366.754 Q 760.53 367.181 759.576 367.181 Z" style="fill: rgb(65, 61, 81); white-space: pre;"/>
  <path d="M 797.418 357.693 Q 797.418 360.002 796.74 361.885 Q 796.063 363.767 794.331 365.098 Q 792.599 366.428 789.562 367.181 Q 786.525 367.934 781.856 367.934 Q 777.187 367.934 774.125 367.181 Q 771.063 366.428 769.331 365.098 Q 767.599 363.767 766.921 361.885 Q 766.244 360.002 766.244 357.693 L 766.244 340.575 Q 766.244 338.266 766.921 336.383 Q 767.599 334.501 769.331 333.145 Q 771.063 331.79 774.125 331.037 Q 777.187 330.284 781.856 330.284 Q 786.525 330.284 789.562 331.037 Q 792.599 331.79 794.331 333.145 Q 796.063 334.501 796.74 336.383 Q 797.418 338.266 797.418 340.575 Z M 777.639 355.886 Q 777.639 356.89 778.392 357.568 Q 779.145 358.245 781.856 358.245 Q 784.567 358.245 785.32 357.568 Q 786.073 356.89 786.073 355.886 L 786.073 342.382 Q 786.073 341.428 785.32 340.751 Q 784.567 340.073 781.856 340.073 Q 779.145 340.073 778.392 340.751 Q 777.639 341.428 777.639 342.382 Z" style="fill: rgb(65, 61, 81); white-space: pre;"/>
  <path d="M 813.083 367.181 L 805.603 367.181 Q 804.649 367.181 804.223 366.754 Q 803.796 366.328 803.796 365.374 L 803.796 332.844 Q 803.796 331.89 804.223 331.464 Q 804.649 331.037 805.603 331.037 L 813.685 331.037 Q 814.489 331.037 815.016 331.388 Q 815.543 331.74 815.995 332.543 L 820.513 340.726 Q 820.764 341.177 820.939 341.378 Q 821.115 341.579 821.416 341.579 L 821.868 341.579 Q 822.169 341.579 822.345 341.378 Q 822.521 341.177 822.772 340.726 L 827.239 332.543 Q 827.691 331.74 828.218 331.388 Q 828.745 331.037 829.549 331.037 L 837.681 331.037 Q 838.635 331.037 839.061 331.464 Q 839.488 331.89 839.488 332.844 L 839.488 365.374 Q 839.488 366.328 839.061 366.754 Q 838.635 367.181 837.681 367.181 L 829.95 367.181 Q 828.996 367.181 828.57 366.754 Q 828.143 366.328 828.143 365.374 L 828.143 347.703 L 825.181 353.175 Q 824.729 354.029 824.102 354.405 Q 823.474 354.782 822.521 354.782 L 820.513 354.782 Q 819.559 354.782 818.931 354.405 Q 818.304 354.029 817.852 353.175 L 814.89 347.703 L 814.89 365.374 Q 814.89 366.328 814.463 366.754 Q 814.037 367.181 813.083 367.181 Z" style="fill: rgb(65, 61, 81); white-space: pre;"/>
  <path d="M 398.816 474.317 L 398.816 447.857 L 414.447 447.857 L 414.447 448.347 L 399.306 448.347 L 399.306 462.361 L 410.478 462.361 L 410.478 462.851 L 399.306 462.851 L 399.306 474.317 Z" style="fill: rgb(51, 51, 51); white-space: pre;"/>
  <path d="M 448.055 468.339 Q 448.055 471.279 445.948 473.116 Q 443.841 474.954 438.108 474.954 Q 432.375 474.954 430.317 473.116 Q 428.259 471.279 428.259 468.339 L 428.259 453.884 Q 428.259 450.944 430.317 449.106 Q 432.375 447.269 438.108 447.269 Q 443.841 447.269 445.948 449.106 Q 448.055 450.944 448.055 453.884 Z M 428.749 468.339 Q 428.749 471.083 430.709 472.773 Q 432.669 474.464 438.108 474.464 Q 443.547 474.464 445.556 472.773 Q 447.565 471.083 447.565 468.339 L 447.565 453.884 Q 447.565 451.14 445.556 449.449 Q 443.547 447.759 438.108 447.759 Q 432.669 447.759 430.709 449.449 Q 428.749 451.14 428.749 453.884 Z" style="fill: rgb(51, 51, 51); white-space: pre;"/>
  <path d="M 476.079 448.347 L 465.397 448.347 L 465.397 462.508 L 476.079 462.508 Q 479.117 462.508 480.146 461.038 Q 481.175 459.568 481.175 456.873 L 481.175 453.443 Q 481.175 451.189 479.926 449.768 Q 478.676 448.347 476.079 448.347 Z M 465.397 474.317 L 464.907 474.317 L 464.907 447.857 L 476.079 447.857 Q 478.921 447.857 480.293 449.449 Q 481.665 451.042 481.665 453.443 L 481.665 456.824 Q 481.665 459.078 481.077 460.523 Q 480.489 461.969 478.725 462.508 L 479.264 462.508 Q 482.253 462.508 483.723 463.855 Q 485.193 465.203 485.193 467.751 L 485.193 474.317 L 484.703 474.317 L 484.703 467.751 Q 484.703 465.35 483.38 464.149 Q 482.057 462.949 479.264 462.949 L 465.397 462.949 Z" style="fill: rgb(51, 51, 51); white-space: pre;"/>
  <path d="M 528.907 473.827 L 528.907 474.317 L 512.394 474.317 L 512.394 447.857 L 528.907 447.857 L 528.907 448.347 L 512.884 448.347 L 512.884 460.646 L 524.938 460.646 L 524.938 461.136 L 512.884 461.136 L 512.884 473.827 Z" style="fill: rgb(51, 51, 51); white-space: pre;"/>
  <path d="M 545.568 448.249 L 563.6 468.535 L 563.6 447.857 L 564.09 447.857 L 564.09 474.317 L 563.6 474.317 L 563.6 469.27 L 545.078 448.494 Q 545.029 448.445 544.955 448.396 Q 544.882 448.347 544.833 448.347 Q 544.784 448.347 544.759 448.396 Q 544.735 448.445 544.735 448.494 L 544.735 474.317 L 544.245 474.317 L 544.245 448.396 Q 544.245 448.102 544.441 447.955 Q 544.637 447.808 544.833 447.808 Q 545.029 447.808 545.176 447.906 Q 545.323 448.004 545.568 448.249 Z" style="fill: rgb(51, 51, 51); white-space: pre;"/>
  <path d="M 580.792 447.857 L 581.282 447.857 L 581.282 458.441 Q 581.282 459.715 581.478 460.866 Q 581.674 462.018 582.066 462.998 L 585.3 470.838 Q 585.79 472.112 586.403 472.969 Q 587.015 473.827 588.387 473.827 L 592.699 473.827 Q 594.071 473.827 594.684 472.969 Q 595.296 472.112 595.786 470.838 L 599.02 462.998 Q 599.412 462.018 599.608 460.866 Q 599.804 459.715 599.804 458.441 L 599.804 447.857 L 600.294 447.857 L 600.294 458.441 Q 600.294 459.813 600.123 460.964 Q 599.951 462.116 599.51 463.194 L 596.276 471.034 Q 595.688 472.455 594.953 473.386 Q 594.218 474.317 592.699 474.317 L 588.387 474.317 Q 586.868 474.317 586.133 473.386 Q 585.398 472.455 584.81 471.034 L 581.576 463.194 Q 581.135 462.116 580.964 460.964 Q 580.792 459.813 580.792 458.441 Z" style="fill: rgb(51, 51, 51); white-space: pre;"/>
  <path d="M 630.964 474.317 L 615.382 474.317 L 615.382 473.827 L 622.977 473.827 L 622.977 448.347 L 615.382 448.347 L 615.382 447.857 L 630.964 447.857 L 630.964 448.347 L 623.467 448.347 L 623.467 473.827 L 630.964 473.827 Z" style="fill: rgb(51, 51, 51); white-space: pre;"/>
  <path d="M 657.876 448.347 L 647.194 448.347 L 647.194 462.508 L 657.876 462.508 Q 660.914 462.508 661.943 461.038 Q 662.972 459.568 662.972 456.873 L 662.972 453.443 Q 662.972 451.189 661.723 449.768 Q 660.473 448.347 657.876 448.347 Z M 647.194 474.317 L 646.704 474.317 L 646.704 447.857 L 657.876 447.857 Q 660.718 447.857 662.09 449.449 Q 663.462 451.042 663.462 453.443 L 663.462 456.824 Q 663.462 459.078 662.874 460.523 Q 662.286 461.969 660.522 462.508 L 661.061 462.508 Q 664.05 462.508 665.52 463.855 Q 666.99 465.203 666.99 467.751 L 666.99 474.317 L 666.5 474.317 L 666.5 467.751 Q 666.5 465.35 665.177 464.149 Q 663.854 462.949 661.061 462.949 L 647.194 462.949 Z" style="fill: rgb(51, 51, 51); white-space: pre;"/>
  <path d="M 702.118 468.339 Q 702.118 471.279 700.011 473.116 Q 697.904 474.954 692.171 474.954 Q 686.438 474.954 684.38 473.116 Q 682.322 471.279 682.322 468.339 L 682.322 453.884 Q 682.322 450.944 684.38 449.106 Q 686.438 447.269 692.171 447.269 Q 697.904 447.269 700.011 449.106 Q 702.118 450.944 702.118 453.884 Z M 682.812 468.339 Q 682.812 471.083 684.772 472.773 Q 686.732 474.464 692.171 474.464 Q 697.61 474.464 699.619 472.773 Q 701.628 471.083 701.628 468.339 L 701.628 453.884 Q 701.628 451.14 699.619 449.449 Q 697.61 447.759 692.171 447.759 Q 686.732 447.759 684.772 449.449 Q 682.812 451.14 682.812 453.884 Z" style="fill: rgb(51, 51, 51); white-space: pre;"/>
  <path d="M 720.146 448.249 L 738.178 468.535 L 738.178 447.857 L 738.668 447.857 L 738.668 474.317 L 738.178 474.317 L 738.178 469.27 L 719.656 448.494 Q 719.607 448.445 719.533 448.396 Q 719.46 448.347 719.411 448.347 Q 719.362 448.347 719.337 448.396 Q 719.313 448.445 719.313 448.494 L 719.313 474.317 L 718.823 474.317 L 718.823 448.396 Q 718.823 448.102 719.019 447.955 Q 719.215 447.808 719.411 447.808 Q 719.607 447.808 719.754 447.906 Q 719.901 448.004 720.146 448.249 Z" style="fill: rgb(51, 51, 51); white-space: pre;"/>
  <path d="M 767.832 459.862 Q 768.714 459.862 769.106 459.47 Q 769.498 459.078 770.331 457.804 L 776.309 448.69 Q 776.603 448.2 776.971 448.028 Q 777.338 447.857 777.73 447.857 L 778.563 447.857 Q 779.249 447.857 779.568 448.224 Q 779.886 448.592 779.886 449.376 L 779.886 474.317 L 779.396 474.317 L 779.396 449.376 Q 779.396 448.984 779.225 448.665 Q 779.053 448.347 778.563 448.347 L 777.828 448.347 Q 777.485 448.347 777.24 448.445 Q 776.995 448.543 776.701 449.033 L 770.723 458.049 Q 769.841 459.372 769.376 459.862 Q 768.91 460.352 767.832 460.352 Q 766.754 460.352 766.289 459.862 Q 765.823 459.372 764.941 458.049 L 758.963 449.033 Q 758.669 448.543 758.4 448.445 Q 758.13 448.347 757.787 448.347 L 757.052 448.347 Q 756.562 448.347 756.415 448.665 Q 756.268 448.984 756.268 449.376 L 756.268 474.317 L 755.778 474.317 L 755.778 449.376 Q 755.778 448.592 756.097 448.224 Q 756.415 447.857 757.052 447.857 L 757.885 447.857 Q 758.277 447.857 758.669 448.028 Q 759.061 448.2 759.355 448.69 L 765.333 457.804 Q 766.166 459.078 766.558 459.47 Q 766.95 459.862 767.832 459.862 Z" style="fill: rgb(51, 51, 51); white-space: pre;"/>
  <path d="M 814.032 473.827 L 814.032 474.317 L 797.519 474.317 L 797.519 447.857 L 814.032 447.857 L 814.032 448.347 L 798.009 448.347 L 798.009 460.646 L 810.063 460.646 L 810.063 461.136 L 798.009 461.136 L 798.009 473.827 Z" style="fill: rgb(51, 51, 51); white-space: pre;"/>
  <path d="M 830.693 448.249 L 848.725 468.535 L 848.725 447.857 L 849.215 447.857 L 849.215 474.317 L 848.725 474.317 L 848.725 469.27 L 830.203 448.494 Q 830.154 448.445 830.08 448.396 Q 830.007 448.347 829.958 448.347 Q 829.909 448.347 829.884 448.396 Q 829.86 448.445 829.86 448.494 L 829.86 474.317 L 829.37 474.317 L 829.37 448.396 Q 829.37 448.102 829.566 447.955 Q 829.762 447.808 829.958 447.808 Q 830.154 447.808 830.301 447.906 Q 830.448 448.004 830.693 448.249 Z" style="fill: rgb(51, 51, 51); white-space: pre;"/>
  <path d="M 873.577 474.317 L 873.577 448.347 L 863.532 448.347 L 863.532 447.857 L 884.112 447.857 L 884.112 448.347 L 874.067 448.347 L 874.067 474.317 Z" style="fill: rgb(51, 51, 51); white-space: pre;"/>
  <path d="M 360.136 537.526 L 360.136 511.066 L 375.767 511.066 L 375.767 511.556 L 360.626 511.556 L 360.626 525.57 L 371.798 525.57 L 371.798 526.06 L 360.626 526.06 L 360.626 537.526 Z" style="fill: rgb(51, 51, 51); white-space: pre;"/>
  <path d="M 409.375 531.548 Q 409.375 534.488 407.268 536.325 Q 405.161 538.163 399.428 538.163 Q 393.695 538.163 391.637 536.325 Q 389.579 534.488 389.579 531.548 L 389.579 517.093 Q 389.579 514.153 391.637 512.315 Q 393.695 510.478 399.428 510.478 Q 405.161 510.478 407.268 512.315 Q 409.375 514.153 409.375 517.093 Z M 390.069 531.548 Q 390.069 534.292 392.029 535.982 Q 393.989 537.673 399.428 537.673 Q 404.867 537.673 406.876 535.982 Q 408.885 534.292 408.885 531.548 L 408.885 517.093 Q 408.885 514.349 406.876 512.658 Q 404.867 510.968 399.428 510.968 Q 393.989 510.968 392.029 512.658 Q 390.069 514.349 390.069 517.093 Z" style="fill: rgb(51, 51, 51); white-space: pre;"/>
  <path d="M 437.4 511.556 L 426.718 511.556 L 426.718 525.717 L 437.4 525.717 Q 440.438 525.717 441.467 524.247 Q 442.496 522.777 442.496 520.082 L 442.496 516.652 Q 442.496 514.398 441.246 512.977 Q 439.997 511.556 437.4 511.556 Z M 426.718 537.526 L 426.228 537.526 L 426.228 511.066 L 437.4 511.066 Q 440.242 511.066 441.614 512.658 Q 442.986 514.251 442.986 516.652 L 442.986 520.033 Q 442.986 522.287 442.398 523.732 Q 441.81 525.178 440.046 525.717 L 440.585 525.717 Q 443.574 525.717 445.044 527.064 Q 446.514 528.412 446.514 530.96 L 446.514 537.526 L 446.024 537.526 L 446.024 530.96 Q 446.024 528.559 444.701 527.358 Q 443.378 526.158 440.585 526.158 L 426.718 526.158 Z" style="fill: rgb(51, 51, 51); white-space: pre;"/>
  <path d="M 488.708 511.066 L 488.708 511.556 L 477.83 511.556 Q 475.772 511.556 474.547 512.683 Q 473.322 513.81 473.322 515.525 L 473.322 519.543 Q 473.322 521.258 474.008 521.944 Q 474.694 522.63 475.821 522.826 L 486.16 524.933 Q 487.63 525.227 488.586 526.207 Q 489.541 527.187 489.541 529.735 L 489.541 532.577 Q 489.541 534.733 488.071 536.129 Q 486.601 537.526 484.102 537.526 L 471.901 537.526 L 471.901 537.036 L 484.102 537.036 Q 486.356 537.036 487.704 535.786 Q 489.051 534.537 489.051 532.577 L 489.051 529.735 Q 489.051 527.432 488.243 526.574 Q 487.434 525.717 486.062 525.423 L 475.723 523.316 Q 474.449 523.071 473.641 522.311 Q 472.832 521.552 472.832 519.543 L 472.832 515.525 Q 472.832 513.565 474.204 512.315 Q 475.576 511.066 477.83 511.066 Z" style="fill: rgb(51, 51, 51); white-space: pre;"/>
  <path d="M 505.362 511.066 L 505.852 511.066 L 505.852 531.499 Q 505.852 534.243 507.787 535.933 Q 509.723 537.624 515.162 537.624 Q 520.601 537.624 522.561 535.933 Q 524.521 534.243 524.521 531.499 L 524.521 511.066 L 525.011 511.066 L 525.011 531.499 Q 525.011 534.439 522.953 536.276 Q 520.895 538.114 515.162 538.114 Q 509.429 538.114 507.395 536.276 Q 505.362 534.439 505.362 531.499 Z" style="fill: rgb(51, 51, 51); white-space: pre;"/>
  <path d="M 557.114 511.066 L 557.114 511.556 L 546.236 511.556 Q 544.178 511.556 542.953 512.683 Q 541.728 513.81 541.728 515.525 L 541.728 519.543 Q 541.728 521.258 542.414 521.944 Q 543.1 522.63 544.227 522.826 L 554.566 524.933 Q 556.036 525.227 556.992 526.207 Q 557.947 527.187 557.947 529.735 L 557.947 532.577 Q 557.947 534.733 556.477 536.129 Q 555.007 537.526 552.508 537.526 L 540.307 537.526 L 540.307 537.036 L 552.508 537.036 Q 554.762 537.036 556.11 535.786 Q 557.457 534.537 557.457 532.577 L 557.457 529.735 Q 557.457 527.432 556.649 526.574 Q 555.84 525.717 554.468 525.423 L 544.129 523.316 Q 542.855 523.071 542.047 522.311 Q 541.238 521.552 541.238 519.543 L 541.238 515.525 Q 541.238 513.565 542.61 512.315 Q 543.982 511.066 546.236 511.066 Z" style="fill: rgb(51, 51, 51); white-space: pre;"/>
  <path d="M 580.585 537.526 L 580.585 511.556 L 570.54 511.556 L 570.54 511.066 L 591.12 511.066 L 591.12 511.556 L 581.075 511.556 L 581.075 537.526 Z" style="fill: rgb(51, 51, 51); white-space: pre;"/>
  <path d="M 603.26 527.089 L 603.26 528.608 L 622.37 528.608 L 622.37 527.089 Q 622.37 525.766 622.149 524.639 Q 621.929 523.512 621.586 522.532 L 618.205 514.545 Q 617.666 513.271 617.078 512.413 Q 616.49 511.556 615.118 511.556 L 610.316 511.556 Q 608.846 511.556 608.258 512.413 Q 607.67 513.271 607.18 514.496 L 604.044 522.532 Q 603.701 523.512 603.48 524.639 Q 603.26 525.766 603.26 527.089 Z M 622.37 537.526 L 622.37 529.098 L 603.26 529.098 L 603.26 537.526 L 602.77 537.526 L 602.77 527.089 Q 602.77 525.717 602.99 524.565 Q 603.211 523.414 603.603 522.336 L 606.739 514.3 Q 607.278 512.928 607.964 511.997 Q 608.65 511.066 610.316 511.066 L 615.118 511.066 Q 616.735 511.066 617.396 511.997 Q 618.058 512.928 618.646 514.349 L 622.027 522.336 Q 622.419 523.414 622.639 524.565 Q 622.86 525.717 622.86 527.089 L 622.86 537.526 Z" style="fill: rgb(51, 51, 51); white-space: pre;"/>
  <path d="M 653.3 537.526 L 637.718 537.526 L 637.718 537.036 L 645.313 537.036 L 645.313 511.556 L 637.718 511.556 L 637.718 511.066 L 653.3 511.066 L 653.3 511.556 L 645.803 511.556 L 645.803 537.036 L 653.3 537.036 Z" style="fill: rgb(51, 51, 51); white-space: pre;"/>
  <path d="M 670.201 511.458 L 688.233 531.744 L 688.233 511.066 L 688.723 511.066 L 688.723 537.526 L 688.233 537.526 L 688.233 532.479 L 669.711 511.703 Q 669.662 511.654 669.588 511.605 Q 669.515 511.556 669.466 511.556 Q 669.417 511.556 669.392 511.605 Q 669.368 511.654 669.368 511.703 L 669.368 537.526 L 668.878 537.526 L 668.878 511.605 Q 668.878 511.311 669.074 511.164 Q 669.27 511.017 669.466 511.017 Q 669.662 511.017 669.809 511.115 Q 669.956 511.213 670.201 511.458 Z" style="fill: rgb(51, 51, 51); white-space: pre;"/>
  <path d="M 705.572 527.089 L 705.572 528.608 L 724.682 528.608 L 724.682 527.089 Q 724.682 525.766 724.462 524.639 Q 724.241 523.512 723.898 522.532 L 720.517 514.545 Q 719.978 513.271 719.39 512.413 Q 718.802 511.556 717.43 511.556 L 712.628 511.556 Q 711.158 511.556 710.57 512.413 Q 709.982 513.271 709.492 514.496 L 706.356 522.532 Q 706.013 523.512 705.793 524.639 Q 705.572 525.766 705.572 527.089 Z M 724.682 537.526 L 724.682 529.098 L 705.572 529.098 L 705.572 537.526 L 705.082 537.526 L 705.082 527.089 Q 705.082 525.717 705.303 524.565 Q 705.523 523.414 705.915 522.336 L 709.051 514.3 Q 709.59 512.928 710.276 511.997 Q 710.962 511.066 712.628 511.066 L 717.43 511.066 Q 719.047 511.066 719.709 511.997 Q 720.37 512.928 720.958 514.349 L 724.339 522.336 Q 724.731 523.414 724.952 524.565 Q 725.172 525.717 725.172 527.089 L 725.172 537.526 Z" style="fill: rgb(51, 51, 51); white-space: pre;"/>
  <path d="M 755.024 537.526 L 741.843 537.526 L 741.843 511.066 L 751.79 511.066 Q 753.799 511.066 755.073 511.482 Q 756.347 511.899 757.033 512.609 Q 757.719 513.32 757.964 514.251 Q 758.209 515.182 758.209 516.26 L 758.209 519.396 Q 758.209 520.866 757.695 522.091 Q 757.18 523.316 755.073 523.855 Q 757.082 523.855 758.356 524.271 Q 759.63 524.688 760.316 525.447 Q 761.002 526.207 761.223 527.236 Q 761.443 528.265 761.443 529.49 L 761.443 532.626 Q 761.443 533.704 761.198 534.61 Q 760.953 535.517 760.292 536.154 Q 759.63 536.791 758.356 537.158 Q 757.082 537.526 755.024 537.526 Z M 751.79 511.556 L 742.333 511.556 L 742.333 523.855 L 751.79 523.855 Q 753.799 523.855 754.975 523.487 Q 756.151 523.12 756.764 522.507 Q 757.376 521.895 757.548 521.086 Q 757.719 520.278 757.719 519.396 L 757.719 516.26 Q 757.719 514.3 756.592 512.928 Q 755.465 511.556 751.79 511.556 Z M 755.073 524.345 L 742.333 524.345 L 742.333 537.036 L 755.024 537.036 Q 758.699 537.036 759.826 535.835 Q 760.953 534.635 760.953 532.626 L 760.953 529.49 Q 760.953 527.285 759.851 525.815 Q 758.748 524.345 755.073 524.345 Z" style="fill: rgb(51, 51, 51); white-space: pre;"/>
  <path d="M 791.128 537.526 L 775.546 537.526 L 775.546 537.036 L 783.141 537.036 L 783.141 511.556 L 775.546 511.556 L 775.546 511.066 L 791.128 511.066 L 791.128 511.556 L 783.631 511.556 L 783.631 537.036 L 791.128 537.036 Z" style="fill: rgb(51, 51, 51); white-space: pre;"/>
  <path d="M 806.917 537.526 L 806.917 511.066 L 807.407 511.066 L 807.407 537.036 L 824.459 537.036 L 824.459 527.383 L 824.949 527.383 L 824.949 537.526 Z" style="fill: rgb(51, 51, 51); white-space: pre;"/>
  <path d="M 854.831 537.526 L 839.249 537.526 L 839.249 537.036 L 846.844 537.036 L 846.844 511.556 L 839.249 511.556 L 839.249 511.066 L 854.831 511.066 L 854.831 511.556 L 847.334 511.556 L 847.334 537.036 L 854.831 537.036 Z" style="fill: rgb(51, 51, 51); white-space: pre;"/>
  <path d="M 877.71 537.526 L 877.71 511.556 L 867.665 511.556 L 867.665 511.066 L 888.245 511.066 L 888.245 511.556 L 878.2 511.556 L 878.2 537.526 Z" style="fill: rgb(51, 51, 51); white-space: pre;"/>
  <path d="M 911.924 529.147 L 911.581 529.147 L 911.581 537.526 L 911.091 537.526 L 911.091 529.147 L 910.601 529.147 Q 909.523 529.147 908.666 528.657 Q 907.808 528.167 907.024 527.089 L 902.271 520.474 Q 901.732 519.739 901.634 518.759 Q 901.536 517.779 901.536 516.701 L 901.536 511.066 L 902.026 511.066 L 902.026 516.701 Q 902.026 517.73 902.124 518.636 Q 902.222 519.543 902.712 520.278 L 907.465 526.893 Q 908.102 527.873 908.935 528.265 Q 909.768 528.657 910.601 528.657 L 911.924 528.657 Q 912.855 528.657 913.615 528.24 Q 914.374 527.824 915.109 526.893 L 920.009 520.278 Q 920.499 519.641 920.597 518.685 Q 920.695 517.73 920.695 516.701 L 920.695 511.066 L 921.185 511.066 L 921.185 516.701 Q 921.185 517.779 921.112 518.734 Q 921.038 519.69 920.45 520.474 L 915.55 527.089 Q 914.766 528.167 913.909 528.657 Q 913.051 529.147 911.924 529.147 Z" style="fill: rgb(51, 51, 51); white-space: pre;"/>
</svg>