<?xml version="1.0" encoding="utf-8"?>
<svg viewBox="0 238.453 1000 584.318" style="enable-background:new 0 0 1000 1000;" xmlns="http://www.w3.org/2000/svg">
  <defs>
    <style type="text/css">
	.st0{opacity:0.7;fill:#FFFFFF;}
	.st1{fill:#413D51;}
	.st2{fill:#8FE3F9;}
	.st3{fill:#B2EBF9;}
	.st4{fill:#A4E0EA;}
	.st5{fill:#7AD1E5;}
	.st6{fill:none;stroke:#413D51;stroke-width:16;stroke-linecap:round;stroke-linejoin:round;stroke-miterlimit:10;}
	.st7{fill:#F7E8AD;}
	.st8{fill:#F7D6A1;}
	.st9{fill:#EFCA92;}
	.st10{fill:#FFFFFF;}
	.st11{opacity:0.89;fill:#EFCA92;}
	.st12{fill:none;stroke:#413D51;stroke-width:8;stroke-linecap:round;stroke-linejoin:round;stroke-miterlimit:10;}
	.st13{opacity:0.31;fill:none;stroke:#72C8D6;stroke-width:8;stroke-linecap:round;stroke-linejoin:round;stroke-miterlimit:10;}
</style>
  </defs>
  <g>
    <ellipse id="XMLID_2_" class="st2" cx="501.8" cy="487.5" rx="228" ry="205.8"/>
    <ellipse id="XMLID_188_" class="st2" cx="501.8" cy="487.5" rx="228" ry="205.8"/>
    <path id="XMLID_193_" class="st3" d="M507.8,689.3c52.1,0,100.1-15.3,138.5-41l-10.5-24.7c-22-51.9-74.2-85.8-132.1-85.8l0,0 c-57.9,0-110.1,33.9-132.1,85.8l-8.6,20.4C402.3,672.3,452.8,689.3,507.8,689.3z"/>
    <path id="XMLID_189_" class="st4" d="M501.7,470.3l-43.6,64l32.9,43.8c5.4,7.2,16.3,7.2,21.7,0l32.6-43.8L501.7,470.3z"/>
    <path id="XMLID_192_" class="st5" d="M501.8,669.3c-121.5,0-220.7-85.7-227.6-193.8c-0.3,4-0.4,8-0.4,12 c0,113.6,102.1,205.8,228,205.8s228-92.1,228-205.8c0-4-0.1-8-0.4-12C722.5,583.6,623.2,669.3,501.8,669.3z"/>
    <path id="XMLID_76_" class="st4" d="M638.6,628.1c-38.1,25.8-85.5,41.2-136.8,41.2c-50,0-96.2-14.5-133.7-39.1l-5,12.3 c39.4,29.2,89.8,46.8,144.8,46.8c49.7,0,95.7-14.4,133.2-38.8c1.8-1.2,3.5-2.5,5.3-3.8L638.6,628.1z"/>
    <path id="XMLID_186_" class="st5" d="M268.2,488.2c6.4,13.1,15,25.3,25.8,36.2c52.3,52.3,137.2,52.3,189.5,0 c43.8-43.8,50.9-110.3,21.5-161.5"/>
    <path id="XMLID_185_" class="st5" d="M729,503.8c-24,36.1-65,59.8-111.6,59.8c-74,0-134-60-134-134c0-33,11.9-63.2,31.7-86.6"/>
    <ellipse id="XMLID_75_" class="st6" cx="501.8" cy="487.5" rx="228" ry="205.8"/>
    <polygon id="XMLID_74_" class="st1" points="501.7,442.3 458.1,506.3 501.9,564.6 545.4,506.3 &#9;"/>
    <polygon id="XMLID_73_" class="st6" points="501.7,442.3 458.1,506.3 501.9,564.6 545.4,506.3 &#9;"/>
    <path id="XMLID_72_" class="st1" d="M600.7,303.9c-30-14-64.1-21.9-100-21.9s-70,7.9-100,21.9v140.1h200V303.9z"/>
    <g id="XMLID_58_">
      <path id="XMLID_71_" class="st1" d="M613.5,317.9l108.7-3.3c-15.7,39.3-17.8,98.4-4.1,163c-17.4,36.8-54.4,62.9-97.9,64.2l0,0 c-61.8,1.9-113.5-46.7-115.3-108.6l0,0C503,371.4,551.6,319.8,613.5,317.9z"/>
      <path id="XMLID_70_" class="st6" d="M613.5,317.9l108.7-3.3c-15.7,39.3-17.8,98.4-4.1,163c-17.4,36.8-54.4,62.9-97.9,64.2l0,0 c-61.8,1.9-113.5-46.7-115.3-108.6l0,0C503,371.4,551.6,319.8,613.5,317.9z"/>
      <circle id="XMLID_69_" class="st7" cx="617.4" cy="429.7" r="112"/>
      <circle id="XMLID_5_" class="st7" cx="617.4" cy="429.7" r="112"/>
      <path id="XMLID_86_" class="st8" d="M696.6,350.5c-21.5-21.5-49.7-32.4-77.9-32.8c21.2,4.1,41.5,14.3,57.9,30.8 c43.7,43.7,43.7,114.6,0,158.4c-22.2,22.2-51.4,33.1-80.4,32.8c35.3,6.8,73.1-3.5,100.4-30.8C740.3,465.1,740.3,394.2,696.6,350.5 z"/>
      <ellipse id="XMLID_3_" transform="matrix(0.7071 -0.7071 0.7071 0.7071 -130.8246 543.5441)" class="st0" cx="590.7" cy="429.7" rx="84" ry="84.6"/>
      <path id="XMLID_12_" class="st9" d="M711.4,376.6c-3.1-4-9.1-15-12.8-18.7c-44-43.4-114.9-43-158.3,1.1 c-8.6,8.7-15.5,18.5-20.6,29C581.4,366.3,649,371.5,711.4,376.6z"/>
      <circle id="XMLID_68_" class="st6" cx="617.4" cy="429.7" r="112"/>
      <circle id="XMLID_67_" class="st6" cx="617.4" cy="429.7" r="112"/>
      <path id="XMLID_66_" class="st1" d="M706.7,362.1c-3.1-4-6.4-7.9-10.1-11.6c-43.7-43.7-114.6-43.7-158.4,0 c-8.7,8.7-15.6,18.4-20.8,28.8C579.4,358.1,644.3,356.5,706.7,362.1z"/>
      <circle id="XMLID_57_" class="st1" cx="562.9" cy="438.1" r="42"/>
      <circle id="XMLID_56_" class="st10" cx="539.1" cy="438.4" r="14"/>
    </g>
    <g id="XMLID_26_">
      <path id="XMLID_89_" class="st1" d="M388.8,317.9L280,314.6c15.7,39.3,17.8,98.4,4.1,163c17.4,36.8,54.4,62.9,97.9,64.2l0,0 c61.8,1.9,113.5-46.7,115.3-108.6l0,0C499.2,371.4,450.6,319.8,388.8,317.9z"/>
      <path id="XMLID_88_" class="st6" d="M388.8,317.9L280,314.6c15.7,39.3,17.8,98.4,4.1,163c17.4,36.8,54.4,62.9,97.9,64.2l0,0 c61.8,1.9,113.5-46.7,115.3-108.6l0,0C499.2,371.4,450.6,319.8,388.8,317.9z"/>
      <circle id="XMLID_87_" class="st7" cx="384.8" cy="429.7" r="112"/>
      <circle id="XMLID_84_" class="st7" cx="384.8" cy="429.7" r="112"/>
      <path id="XMLID_65_" class="st8" d="M305.6,350.5c21.5-21.5,49.7-32.4,77.9-32.8c-21.2,4.1-41.5,14.3-57.9,30.8 c-43.7,43.7-43.7,114.6,0,158.4c22.2,22.2,51.4,33.1,80.4,32.8c-35.3,6.8-73.1-3.5-100.4-30.8 C261.9,465.1,261.9,394.2,305.6,350.5z"/>
      <ellipse id="XMLID_64_" transform="matrix(0.7071 -0.7071 0.7071 0.7071 -183.3021 416.8521)" class="st0" cx="411.5" cy="429.7" rx="84.6" ry="84"/>
      <path id="XMLID_63_" class="st11" d="M290.9,376.6c3.1-4,9.1-15,12.8-18.7c44-43.4,114.9-43,158.3,1.1c8.6,8.7,15.5,18.5,20.6,29 C420.8,366.3,353.2,371.5,290.9,376.6z"/>
      <circle id="XMLID_62_" class="st6" cx="384.8" cy="429.7" r="112"/>
      <circle id="XMLID_61_" class="st6" cx="384.8" cy="429.7" r="112"/>
      <path id="XMLID_60_" class="st1" d="M295.6,362.1c3.1-4,6.4-7.9,10.1-11.6c43.7-43.7,114.6-43.7,158.4,0 c8.7,8.7,15.6,18.4,20.8,28.8C422.9,358.1,357.9,356.5,295.6,362.1z"/>
      <circle id="XMLID_59_" class="st1" cx="439.4" cy="438.1" r="42"/>
      <circle id="XMLID_37_" class="st10" cx="463.2" cy="438.4" r="14"/>
    </g>
    <path id="XMLID_19_" class="st1" d="M447.9,718.3L447.9,718.3c-8.8,0-16-7.2-16-16v-18c0-8.8,7.2-16,16-16h0c8.8,0,16,7.2,16,16v18 C463.9,711.1,456.8,718.3,447.9,718.3z"/>
    <path id="XMLID_17_" class="st1" d="M415.9,718.3L415.9,718.3c-8.8,0-16-7.2-16-16v-18c0-8.8,7.2-16,16-16h0c8.8,0,16,7.2,16,16v18 C431.9,711.1,424.8,718.3,415.9,718.3z"/>
    <path id="XMLID_16_" class="st1" d="M479.7,718.3L479.7,718.3c-8.8,0-16-7.2-16-16v-18c0-8.8,7.2-16,16-16h0c8.8,0,16,7.2,16,16v18 C495.7,711.1,488.5,718.3,479.7,718.3z"/>
    <path id="XMLID_15_" class="st1" d="M521.9,718.3L521.9,718.3c-8.8,0-16-7.2-16-16v-18c0-8.8,7.2-16,16-16h0c8.8,0,16,7.2,16,16v18 C537.9,711.1,530.7,718.3,521.9,718.3z"/>
    <path id="XMLID_14_" class="st1" d="M553.7,718.3L553.7,718.3c-8.8,0-16-7.2-16-16v-18c0-8.8,7.2-16,16-16h0c8.8,0,16,7.2,16,16v18 C569.7,711.1,562.5,718.3,553.7,718.3z"/>
    <path id="XMLID_13_" class="st1" d="M585.7,718.3L585.7,718.3c-8.8,0-16-7.2-16-16v-18c0-8.8,7.2-16,16-16h0c8.8,0,16,7.2,16,16v18 C601.7,711.1,594.5,718.3,585.7,718.3z"/>
    <path id="XMLID_11_" class="st12" d="M491.9,587.6c0,8.4-6.8,15.2-15.2,15.2c-8.4,0-15.2-6.8-15.2-15.2"/>
    <path id="XMLID_9_" class="st12" d="M538.4,587.6c0,8.4-6.8,15.2-15.2,15.2c-8.4,0-15.2-6.8-15.2-15.2"/>
    <path id="XMLID_10_" class="st13" d="M323,548.8c-2.2,4.7-7.7,6.8-12.5,4.6s-6.8-7.7-4.6-12.5"/>
    <path id="XMLID_1_" class="st13" d="M352.8,564.3c-2.2,4.7-7.7,6.8-12.5,4.6c-4.7-2.2-6.8-7.7-4.6-12.5"/>
    <path id="XMLID_78_" class="st13" d="M335.5,576.2c-2.2,4.7-7.7,6.8-12.5,4.6c-4.7-2.2-6.8-7.7-4.6-12.5"/>
    <path id="XMLID_77_" class="st13" d="M361.7,596.1c-2.2,4.7-7.7,6.8-12.5,4.6c-4.7-2.2-6.8-7.7-4.6-12.5"/>
    <path id="XMLID_79_" class="st13" d="M381.7,578.1c-2.2,4.7-7.7,6.8-12.5,4.6c-4.7-2.2-6.8-7.7-4.6-12.5"/>
    <path id="XMLID_85_" class="st13" d="M683.7,550.8c2.2,4.7,7.7,6.8,12.5,4.6s6.8-7.7,4.6-12.5"/>
    <path id="XMLID_83_" class="st13" d="M654,566.3c2.2,4.7,7.7,6.8,12.5,4.6c4.7-2.2,6.8-7.7,4.6-12.5"/>
    <path id="XMLID_82_" class="st13" d="M671.2,578.2c2.2,4.7,7.7,6.8,12.5,4.6c4.7-2.2,6.8-7.7,4.6-12.5"/>
    <path id="XMLID_81_" class="st13" d="M645.1,598.1c2.2,4.7,7.7,6.8,12.5,4.6c4.7-2.2,6.8-7.7,4.6-12.5"/>
    <path id="XMLID_80_" class="st13" d="M625.1,580.1c2.2,4.7,7.7,6.8,12.5,4.6c4.7-2.2,6.8-7.7,4.6-12.5"/>
    <path id="XMLID_8_" class="st12" d="M468.7,624.1c0,8.4-6.8,15.2-15.2,15.2c-8.4,0-15.2-6.8-15.2-15.2"/>
    <path id="XMLID_7_" class="st12" d="M515.2,624.1c0,8.4-6.8,15.2-15.2,15.2s-15.2-6.8-15.2-15.2"/>
    <path id="XMLID_6_" class="st12" d="M561.7,624.1c0,8.4-6.8,15.2-15.2,15.2c-8.4,0-15.2-6.8-15.2-15.2"/>
  </g>
  <path d="M 162.934 781.709 L 149.584 781.709 Q 147.893 781.709 147.136 780.952 Q 146.38 780.196 146.38 778.505 L 146.38 720.833 Q 146.38 719.142 147.136 718.385 Q 147.893 717.629 149.584 717.629 L 158.84 717.629 Q 160.531 717.629 161.732 718.163 Q 162.934 718.697 164.091 720.032 L 181.357 739.79 L 181.357 720.833 Q 181.357 719.142 182.113 718.385 Q 182.87 717.629 184.561 717.629 L 197.911 717.629 Q 199.602 717.629 200.358 718.385 Q 201.115 719.142 201.115 720.833 L 201.115 778.505 Q 201.115 780.196 200.358 780.952 Q 199.602 781.709 197.911 781.709 L 184.561 781.709 Q 182.87 781.709 182.113 780.952 Q 181.357 780.196 181.357 778.505 L 181.357 767.558 L 166.138 749.135 L 166.138 778.505 Q 166.138 780.196 165.381 780.952 Q 164.625 781.709 162.934 781.709 Z" style="fill: rgb(65, 61, 81); white-space: pre;"/>
  <path d="M 243.107 781.709 L 214.983 781.709 Q 213.292 781.709 212.535 780.952 Q 211.779 780.196 211.779 778.505 L 211.779 768.092 Q 211.779 766.401 212.535 765.644 Q 213.292 764.888 214.983 764.888 L 238.924 764.888 Q 240.081 764.888 240.659 764.131 Q 241.238 763.375 241.238 762.307 Q 241.238 760.794 240.659 760.082 Q 240.081 759.37 238.924 759.281 L 225.574 757.412 Q 219.344 756.522 215.561 753.318 Q 211.779 750.114 211.779 742.638 L 211.779 733.293 Q 211.779 725.728 216.674 721.678 Q 221.569 717.629 230.202 717.629 L 255.122 717.629 Q 256.813 717.629 257.569 718.385 Q 258.326 719.142 258.326 720.833 L 258.326 731.424 Q 258.326 733.115 257.569 733.871 Q 256.813 734.628 255.122 734.628 L 234.385 734.628 Q 233.228 734.628 232.605 735.384 Q 231.982 736.141 231.982 737.298 Q 231.982 738.455 232.605 739.256 Q 233.228 740.057 234.385 740.146 L 247.646 741.926 Q 253.876 742.816 257.703 746.02 Q 261.53 749.224 261.53 756.7 L 261.53 766.045 Q 261.53 773.61 256.59 777.659 Q 251.651 781.709 243.107 781.709 Z" style="fill: rgb(65, 61, 81); white-space: pre;"/>
  <path d="M 325.782 764.888 Q 325.782 768.982 324.58 772.319 Q 323.379 775.657 320.308 778.015 Q 317.238 780.374 311.898 781.709 Q 306.558 783.044 298.281 783.044 Q 290.004 783.044 284.664 781.709 Q 279.324 780.374 276.253 778.015 Q 273.183 775.657 271.981 772.319 Q 270.78 768.982 270.78 764.888 L 270.78 720.833 Q 270.78 719.142 271.536 718.385 Q 272.293 717.629 273.984 717.629 L 287.957 717.629 Q 289.648 717.629 290.404 718.385 Q 291.161 719.142 291.161 720.833 L 291.161 761.417 Q 291.161 763.197 292.496 764.398 Q 293.831 765.6 298.459 765.6 Q 303.176 765.6 304.511 764.398 Q 305.846 763.197 305.846 761.417 L 305.846 720.833 Q 305.846 719.142 306.602 718.385 Q 307.359 717.629 309.05 717.629 L 322.578 717.629 Q 324.269 717.629 325.025 718.385 Q 325.782 719.142 325.782 720.833 Z" style="fill: rgb(65, 61, 81); white-space: pre;"/>
  <path d="M 367.327 781.709 L 339.203 781.709 Q 337.512 781.709 336.755 780.952 Q 335.999 780.196 335.999 778.505 L 335.999 768.092 Q 335.999 766.401 336.755 765.644 Q 337.512 764.888 339.203 764.888 L 363.144 764.888 Q 364.301 764.888 364.879 764.131 Q 365.458 763.375 365.458 762.307 Q 365.458 760.794 364.879 760.082 Q 364.301 759.37 363.144 759.281 L 349.794 757.412 Q 343.564 756.522 339.781 753.318 Q 335.999 750.114 335.999 742.638 L 335.999 733.293 Q 335.999 725.728 340.894 721.678 Q 345.789 717.629 354.422 717.629 L 379.342 717.629 Q 381.033 717.629 381.789 718.385 Q 382.546 719.142 382.546 720.833 L 382.546 731.424 Q 382.546 733.115 381.789 733.871 Q 381.033 734.628 379.342 734.628 L 358.605 734.628 Q 357.448 734.628 356.825 735.384 Q 356.202 736.141 356.202 737.298 Q 356.202 738.455 356.825 739.256 Q 357.448 740.057 358.605 740.146 L 371.866 741.926 Q 378.096 742.816 381.923 746.02 Q 385.75 749.224 385.75 756.7 L 385.75 766.045 Q 385.75 773.61 380.81 777.659 Q 375.871 781.709 367.327 781.709 Z" style="fill: rgb(65, 61, 81); white-space: pre;"/>
  <path d="M 424.814 781.709 L 410.396 781.709 Q 408.705 781.709 407.949 780.952 Q 407.192 780.196 407.192 778.505 L 407.192 734.806 L 394.109 734.806 Q 392.418 734.806 391.662 734.049 Q 390.905 733.293 390.905 731.602 L 390.905 720.833 Q 390.905 719.142 391.662 718.385 Q 392.418 717.629 394.109 717.629 L 441.101 717.629 Q 442.792 717.629 443.549 718.385 Q 444.305 719.142 444.305 720.833 L 444.305 731.602 Q 444.305 733.293 443.549 734.049 Q 442.792 734.806 441.101 734.806 L 428.018 734.806 L 428.018 778.505 Q 428.018 780.196 427.262 780.952 Q 426.505 781.709 424.814 781.709 Z" style="fill: rgb(65, 61, 81); white-space: pre;"/>
  <path d="M 472.596 736.319 L 468.413 749.847 L 482.386 749.847 L 478.203 736.319 Q 477.847 735.518 477.447 735.162 Q 477.046 734.806 476.512 734.806 L 474.287 734.806 Q 473.753 734.806 473.353 735.162 Q 472.952 735.518 472.596 736.319 Z M 467.523 778.505 Q 467.523 780.196 466.767 780.952 Q 466.01 781.709 464.319 781.709 L 451.236 781.709 Q 449.545 781.709 448.789 780.952 Q 448.032 780.196 448.032 778.505 L 448.032 755.009 Q 448.032 752.339 448.878 748.868 Q 449.723 745.397 451.503 740.769 L 459.246 720.566 Q 459.78 719.053 460.893 718.341 Q 462.005 717.629 463.785 717.629 L 487.726 717.629 Q 489.417 717.629 490.53 718.341 Q 491.642 719.053 492.176 720.566 L 499.919 740.769 Q 501.699 745.397 502.545 748.868 Q 503.39 752.339 503.39 755.009 L 503.39 778.505 Q 503.39 780.196 502.634 780.952 Q 501.877 781.709 500.186 781.709 L 486.747 781.709 Q 484.967 781.709 484.122 780.952 Q 483.276 780.196 483.276 778.505 L 483.276 766.045 L 467.523 766.045 Z" style="fill: rgb(65, 61, 81); white-space: pre;"/>
  <path d="M 516.101 781.709 Q 514.41 781.709 513.653 780.952 Q 512.897 780.196 512.897 778.505 L 512.897 767.914 Q 512.897 766.223 513.653 765.466 Q 514.41 764.71 516.101 764.71 L 524.912 764.71 L 524.912 734.806 L 516.101 734.806 Q 514.41 734.806 513.653 734.049 Q 512.897 733.293 512.897 731.602 L 512.897 720.833 Q 512.897 719.142 513.653 718.385 Q 514.41 717.629 516.101 717.629 L 554.015 717.629 Q 555.706 717.629 556.462 718.385 Q 557.219 719.142 557.219 720.833 L 557.219 731.602 Q 557.219 733.293 556.462 734.049 Q 555.706 734.806 554.015 734.806 L 545.382 734.806 L 545.382 764.71 L 554.015 764.71 Q 555.706 764.71 556.462 765.466 Q 557.219 766.223 557.219 767.914 L 557.219 778.505 Q 557.219 780.196 556.462 780.952 Q 555.706 781.709 554.015 781.709 Z" style="fill: rgb(65, 61, 81); white-space: pre;"/>
  <path d="M 584.719 781.709 L 571.369 781.709 Q 569.678 781.709 568.922 780.952 Q 568.165 780.196 568.165 778.505 L 568.165 720.833 Q 568.165 719.142 568.922 718.385 Q 569.678 717.629 571.369 717.629 L 580.625 717.629 Q 582.316 717.629 583.518 718.163 Q 584.719 718.697 585.876 720.032 L 603.142 739.79 L 603.142 720.833 Q 603.142 719.142 603.899 718.385 Q 604.655 717.629 606.346 717.629 L 619.696 717.629 Q 621.387 717.629 622.144 718.385 Q 622.9 719.142 622.9 720.833 L 622.9 778.505 Q 622.9 780.196 622.144 780.952 Q 621.387 781.709 619.696 781.709 L 606.346 781.709 Q 604.655 781.709 603.899 780.952 Q 603.142 780.196 603.142 778.505 L 603.142 767.558 L 587.923 749.135 L 587.923 778.505 Q 587.923 780.196 587.167 780.952 Q 586.41 781.709 584.719 781.709 Z" style="fill: rgb(65, 61, 81); white-space: pre;"/>
  <path d="M 655.102 781.709 L 637.124 781.709 Q 635.433 781.709 634.676 780.952 Q 633.92 780.196 633.92 778.505 L 633.92 760.438 Q 633.92 758.747 634.676 757.99 Q 635.433 757.234 637.124 757.234 L 655.102 757.234 Q 656.793 757.234 657.549 757.99 Q 658.306 758.747 658.306 760.438 L 658.306 778.505 Q 658.306 780.196 657.549 780.952 Q 656.793 781.709 655.102 781.709 Z" style="fill: rgb(65, 61, 81); white-space: pre;"/>
  <path d="M 711.969 781.709 L 690.253 781.709 Q 679.128 781.709 673.744 777.259 Q 668.359 772.809 668.359 763.553 L 668.359 735.874 Q 668.359 726.618 673.744 722.123 Q 679.128 717.629 690.253 717.629 L 711.969 717.629 Q 713.66 717.629 714.417 718.385 Q 715.173 719.142 715.173 720.833 L 715.173 731.602 Q 715.173 733.293 714.417 734.049 Q 713.66 734.806 711.969 734.806 L 694.08 734.806 Q 691.321 734.806 689.986 735.918 Q 688.651 737.031 688.651 739.256 L 688.651 760.438 Q 688.651 762.663 689.986 763.686 Q 691.321 764.71 694.08 764.71 L 711.969 764.71 Q 713.66 764.71 714.417 765.466 Q 715.173 766.223 715.173 767.914 L 715.173 778.505 Q 715.173 780.196 714.417 780.952 Q 713.66 781.709 711.969 781.709 Z" style="fill: rgb(65, 61, 81); white-space: pre;"/>
  <path d="M 779.066 764.888 Q 779.066 768.982 777.865 772.319 Q 776.663 775.657 773.593 778.015 Q 770.522 780.374 765.138 781.709 Q 759.753 783.044 751.476 783.044 Q 743.199 783.044 737.77 781.709 Q 732.341 780.374 729.271 778.015 Q 726.2 775.657 724.999 772.319 Q 723.797 768.982 723.797 764.888 L 723.797 734.539 Q 723.797 730.445 724.999 727.107 Q 726.2 723.77 729.271 721.367 Q 732.341 718.964 737.77 717.629 Q 743.199 716.294 751.476 716.294 Q 759.753 716.294 765.138 717.629 Q 770.522 718.964 773.593 721.367 Q 776.663 723.77 777.865 727.107 Q 779.066 730.445 779.066 734.539 Z M 744 761.684 Q 744 763.464 745.335 764.665 Q 746.67 765.867 751.476 765.867 Q 756.282 765.867 757.617 764.665 Q 758.952 763.464 758.952 761.684 L 758.952 737.743 Q 758.952 736.052 757.617 734.85 Q 756.282 733.649 751.476 733.649 Q 746.67 733.649 745.335 734.85 Q 744 736.052 744 737.743 Z" style="fill: rgb(65, 61, 81); white-space: pre;"/>
  <path d="M 806.82 781.709 L 793.559 781.709 Q 791.868 781.709 791.111 780.952 Q 790.355 780.196 790.355 778.505 L 790.355 720.833 Q 790.355 719.142 791.111 718.385 Q 791.868 717.629 793.559 717.629 L 807.888 717.629 Q 809.312 717.629 810.246 718.252 Q 811.181 718.875 811.982 720.299 L 819.992 734.806 Q 820.437 735.607 820.748 735.963 Q 821.06 736.319 821.594 736.319 L 822.395 736.319 Q 822.929 736.319 823.24 735.963 Q 823.552 735.607 823.997 734.806 L 831.918 720.299 Q 832.719 718.875 833.653 718.252 Q 834.588 717.629 836.012 717.629 L 850.43 717.629 Q 852.121 717.629 852.877 718.385 Q 853.634 719.142 853.634 720.833 L 853.634 778.505 Q 853.634 780.196 852.877 780.952 Q 852.121 781.709 850.43 781.709 L 836.724 781.709 Q 835.033 781.709 834.276 780.952 Q 833.52 780.196 833.52 778.505 L 833.52 747.177 L 828.269 756.878 Q 827.468 758.391 826.355 759.058 Q 825.243 759.726 823.552 759.726 L 819.992 759.726 Q 818.301 759.726 817.188 759.058 Q 816.076 758.391 815.275 756.878 L 810.024 747.177 L 810.024 778.505 Q 810.024 780.196 809.267 780.952 Q 808.511 781.709 806.82 781.709 Z" style="fill: rgb(65, 61, 81); white-space: pre;"/>
</svg>