<?xml version="1.0" encoding="utf-8"?>
<svg viewBox="0 0 1000 700" style="enable-background:new 0 0 1000 1000;" xmlns="http://www.w3.org/2000/svg">
  <defs>
    <style type="text/css">
	.st0{opacity:0.7;fill:#FFFFFF;}
	.st1{fill:#413D51;}
	.st2{fill:#8FE3F9;}
	.st3{fill:#B2EBF9;}
	.st4{fill:#A4E0EA;}
	.st5{fill:#7AD1E5;}
	.st6{fill:none;stroke:#413D51;stroke-width:16;stroke-linecap:round;stroke-linejoin:round;stroke-miterlimit:10;}
	.st7{fill:#F7E8AD;}
	.st8{fill:#F7D6A1;}
	.st9{fill:#EFCA92;}
	.st10{fill:#FFFFFF;}
	.st11{opacity:0.89;fill:#EFCA92;}
	.st12{fill:none;stroke:#413D51;stroke-width:8;stroke-linecap:round;stroke-linejoin:round;stroke-miterlimit:10;}
	.st13{opacity:0.31;fill:none;stroke:#72C8D6;stroke-width:8;stroke-linecap:round;stroke-linejoin:round;stroke-miterlimit:10;}
</style>
  </defs>
  <rect class="st0" width="1000" height="700" style="opacity: 1;"/>
  <g transform="matrix(1, 0, 0, 1, 0, -207)">
    <ellipse id="XMLID_2_" class="st2" cx="501.8" cy="487.5" rx="228" ry="205.8"/>
    <ellipse id="XMLID_188_" class="st2" cx="501.8" cy="487.5" rx="228" ry="205.8"/>
    <path id="XMLID_193_" class="st3" d="M507.8,689.3c52.1,0,100.1-15.3,138.5-41l-10.5-24.7c-22-51.9-74.2-85.8-132.1-85.8l0,0 c-57.9,0-110.1,33.9-132.1,85.8l-8.6,20.4C402.3,672.3,452.8,689.3,507.8,689.3z"/>
    <path id="XMLID_189_" class="st4" d="M501.7,470.3l-43.6,64l32.9,43.8c5.4,7.2,16.3,7.2,21.7,0l32.6-43.8L501.7,470.3z"/>
    <path id="XMLID_192_" class="st5" d="M501.8,669.3c-121.5,0-220.7-85.7-227.6-193.8c-0.3,4-0.4,8-0.4,12 c0,113.6,102.1,205.8,228,205.8s228-92.1,228-205.8c0-4-0.1-8-0.4-12C722.5,583.6,623.2,669.3,501.8,669.3z"/>
    <path id="XMLID_76_" class="st4" d="M638.6,628.1c-38.1,25.8-85.5,41.2-136.8,41.2c-50,0-96.2-14.5-133.7-39.1l-5,12.3 c39.4,29.2,89.8,46.8,144.8,46.8c49.7,0,95.7-14.4,133.2-38.8c1.8-1.2,3.5-2.5,5.3-3.8L638.6,628.1z"/>
    <path id="XMLID_186_" class="st5" d="M268.2,488.2c6.4,13.1,15,25.3,25.8,36.2c52.3,52.3,137.2,52.3,189.5,0 c43.8-43.8,50.9-110.3,21.5-161.5"/>
    <path id="XMLID_185_" class="st5" d="M729,503.8c-24,36.1-65,59.8-111.6,59.8c-74,0-134-60-134-134c0-33,11.9-63.2,31.7-86.6"/>
    <ellipse id="XMLID_75_" class="st6" cx="501.8" cy="487.5" rx="228" ry="205.8"/>
    <polygon id="XMLID_74_" class="st1" points="501.7,442.3 458.1,506.3 501.9,564.6 545.4,506.3 &#9;"/>
    <polygon id="XMLID_73_" class="st6" points="501.7,442.3 458.1,506.3 501.9,564.6 545.4,506.3 &#9;"/>
    <path id="XMLID_72_" class="st1" d="M600.7,303.9c-30-14-64.1-21.9-100-21.9s-70,7.9-100,21.9v140.1h200V303.9z"/>
    <g id="XMLID_58_">
      <path id="XMLID_71_" class="st1" d="M613.5,317.9l108.7-3.3c-15.7,39.3-17.8,98.4-4.1,163c-17.4,36.8-54.4,62.9-97.9,64.2l0,0 c-61.8,1.9-113.5-46.7-115.3-108.6l0,0C503,371.4,551.6,319.8,613.5,317.9z"/>
      <path id="XMLID_70_" class="st6" d="M613.5,317.9l108.7-3.3c-15.7,39.3-17.8,98.4-4.1,163c-17.4,36.8-54.4,62.9-97.9,64.2l0,0 c-61.8,1.9-113.5-46.7-115.3-108.6l0,0C503,371.4,551.6,319.8,613.5,317.9z"/>
      <circle id="XMLID_69_" class="st7" cx="617.4" cy="429.7" r="112"/>
      <circle id="XMLID_5_" class="st7" cx="617.4" cy="429.7" r="112"/>
      <path id="XMLID_86_" class="st8" d="M696.6,350.5c-21.5-21.5-49.7-32.4-77.9-32.8c21.2,4.1,41.5,14.3,57.9,30.8 c43.7,43.7,43.7,114.6,0,158.4c-22.2,22.2-51.4,33.1-80.4,32.8c35.3,6.8,73.1-3.5,100.4-30.8C740.3,465.1,740.3,394.2,696.6,350.5 z"/>
      <ellipse id="XMLID_3_" transform="matrix(0.7071 -0.7071 0.7071 0.7071 -130.8246 543.5441)" class="st0" cx="590.7" cy="429.7" rx="84" ry="84.6"/>
      <path id="XMLID_12_" class="st9" d="M711.4,376.6c-3.1-4-9.1-15-12.8-18.7c-44-43.4-114.9-43-158.3,1.1 c-8.6,8.7-15.5,18.5-20.6,29C581.4,366.3,649,371.5,711.4,376.6z"/>
      <circle id="XMLID_68_" class="st6" cx="617.4" cy="429.7" r="112"/>
      <circle id="XMLID_67_" class="st6" cx="617.4" cy="429.7" r="112"/>
      <path id="XMLID_66_" class="st1" d="M706.7,362.1c-3.1-4-6.4-7.9-10.1-11.6c-43.7-43.7-114.6-43.7-158.4,0 c-8.7,8.7-15.6,18.4-20.8,28.8C579.4,358.1,644.3,356.5,706.7,362.1z"/>
      <circle id="XMLID_57_" class="st1" cx="562.9" cy="438.1" r="42"/>
      <circle id="XMLID_56_" class="st10" cx="539.1" cy="438.4" r="14"/>
    </g>
    <g id="XMLID_26_">
      <path id="XMLID_89_" class="st1" d="M388.8,317.9L280,314.6c15.7,39.3,17.8,98.4,4.1,163c17.4,36.8,54.4,62.9,97.9,64.2l0,0 c61.8,1.9,113.5-46.7,115.3-108.6l0,0C499.2,371.4,450.6,319.8,388.8,317.9z"/>
      <path id="XMLID_88_" class="st6" d="M388.8,317.9L280,314.6c15.7,39.3,17.8,98.4,4.1,163c17.4,36.8,54.4,62.9,97.9,64.2l0,0 c61.8,1.9,113.5-46.7,115.3-108.6l0,0C499.2,371.4,450.6,319.8,388.8,317.9z"/>
      <circle id="XMLID_87_" class="st7" cx="384.8" cy="429.7" r="112"/>
      <circle id="XMLID_84_" class="st7" cx="384.8" cy="429.7" r="112"/>
      <path id="XMLID_65_" class="st8" d="M305.6,350.5c21.5-21.5,49.7-32.4,77.9-32.8c-21.2,4.1-41.5,14.3-57.9,30.8 c-43.7,43.7-43.7,114.6,0,158.4c22.2,22.2,51.4,33.1,80.4,32.8c-35.3,6.8-73.1-3.5-100.4-30.8 C261.9,465.1,261.9,394.2,305.6,350.5z"/>
      <ellipse id="XMLID_64_" transform="matrix(0.7071 -0.7071 0.7071 0.7071 -183.3021 416.8521)" class="st0" cx="411.5" cy="429.7" rx="84.6" ry="84"/>
      <path id="XMLID_63_" class="st11" d="M290.9,376.6c3.1-4,9.1-15,12.8-18.7c44-43.4,114.9-43,158.3,1.1c8.6,8.7,15.5,18.5,20.6,29 C420.8,366.3,353.2,371.5,290.9,376.6z"/>
      <circle id="XMLID_62_" class="st6" cx="384.8" cy="429.7" r="112"/>
      <circle id="XMLID_61_" class="st6" cx="384.8" cy="429.7" r="112"/>
      <path id="XMLID_60_" class="st1" d="M295.6,362.1c3.1-4,6.4-7.9,10.1-11.6c43.7-43.7,114.6-43.7,158.4,0 c8.7,8.7,15.6,18.4,20.8,28.8C422.9,358.1,357.9,356.5,295.6,362.1z"/>
      <circle id="XMLID_59_" class="st1" cx="439.4" cy="438.1" r="42"/>
      <circle id="XMLID_37_" class="st10" cx="463.2" cy="438.4" r="14"/>
    </g>
    <path id="XMLID_19_" class="st1" d="M447.9,718.3L447.9,718.3c-8.8,0-16-7.2-16-16v-18c0-8.8,7.2-16,16-16h0c8.8,0,16,7.2,16,16v18 C463.9,711.1,456.8,718.3,447.9,718.3z"/>
    <path id="XMLID_17_" class="st1" d="M415.9,718.3L415.9,718.3c-8.8,0-16-7.2-16-16v-18c0-8.8,7.2-16,16-16h0c8.8,0,16,7.2,16,16v18 C431.9,711.1,424.8,718.3,415.9,718.3z"/>
    <path id="XMLID_16_" class="st1" d="M479.7,718.3L479.7,718.3c-8.8,0-16-7.2-16-16v-18c0-8.8,7.2-16,16-16h0c8.8,0,16,7.2,16,16v18 C495.7,711.1,488.5,718.3,479.7,718.3z"/>
    <path id="XMLID_15_" class="st1" d="M521.9,718.3L521.9,718.3c-8.8,0-16-7.2-16-16v-18c0-8.8,7.2-16,16-16h0c8.8,0,16,7.2,16,16v18 C537.9,711.1,530.7,718.3,521.9,718.3z"/>
    <path id="XMLID_14_" class="st1" d="M553.7,718.3L553.7,718.3c-8.8,0-16-7.2-16-16v-18c0-8.8,7.2-16,16-16h0c8.8,0,16,7.2,16,16v18 C569.7,711.1,562.5,718.3,553.7,718.3z"/>
    <path id="XMLID_13_" class="st1" d="M585.7,718.3L585.7,718.3c-8.8,0-16-7.2-16-16v-18c0-8.8,7.2-16,16-16h0c8.8,0,16,7.2,16,16v18 C601.7,711.1,594.5,718.3,585.7,718.3z"/>
    <path id="XMLID_11_" class="st12" d="M491.9,587.6c0,8.4-6.8,15.2-15.2,15.2c-8.4,0-15.2-6.8-15.2-15.2"/>
    <path id="XMLID_9_" class="st12" d="M538.4,587.6c0,8.4-6.8,15.2-15.2,15.2c-8.4,0-15.2-6.8-15.2-15.2"/>
    <path id="XMLID_10_" class="st13" d="M323,548.8c-2.2,4.7-7.7,6.8-12.5,4.6s-6.8-7.7-4.6-12.5"/>
    <path id="XMLID_1_" class="st13" d="M352.8,564.3c-2.2,4.7-7.7,6.8-12.5,4.6c-4.7-2.2-6.8-7.7-4.6-12.5"/>
    <path id="XMLID_78_" class="st13" d="M335.5,576.2c-2.2,4.7-7.7,6.8-12.5,4.6c-4.7-2.2-6.8-7.7-4.6-12.5"/>
    <path id="XMLID_77_" class="st13" d="M361.7,596.1c-2.2,4.7-7.7,6.8-12.5,4.6c-4.7-2.2-6.8-7.7-4.6-12.5"/>
    <path id="XMLID_79_" class="st13" d="M381.7,578.1c-2.2,4.7-7.7,6.8-12.5,4.6c-4.7-2.2-6.8-7.7-4.6-12.5"/>
    <path id="XMLID_85_" class="st13" d="M683.7,550.8c2.2,4.7,7.7,6.8,12.5,4.6s6.8-7.7,4.6-12.5"/>
    <path id="XMLID_83_" class="st13" d="M654,566.3c2.2,4.7,7.7,6.8,12.5,4.6c4.7-2.2,6.8-7.7,4.6-12.5"/>
    <path id="XMLID_82_" class="st13" d="M671.2,578.2c2.2,4.7,7.7,6.8,12.5,4.6c4.7-2.2,6.8-7.7,4.6-12.5"/>
    <path id="XMLID_81_" class="st13" d="M645.1,598.1c2.2,4.7,7.7,6.8,12.5,4.6c4.7-2.2,6.8-7.7,4.6-12.5"/>
    <path id="XMLID_80_" class="st13" d="M625.1,580.1c2.2,4.7,7.7,6.8,12.5,4.6c4.7-2.2,6.8-7.7,4.6-12.5"/>
    <path id="XMLID_8_" class="st12" d="M468.7,624.1c0,8.4-6.8,15.2-15.2,15.2c-8.4,0-15.2-6.8-15.2-15.2"/>
    <path id="XMLID_7_" class="st12" d="M515.2,624.1c0,8.4-6.8,15.2-15.2,15.2s-15.2-6.8-15.2-15.2"/>
    <path id="XMLID_6_" class="st12" d="M561.7,624.1c0,8.4-6.8,15.2-15.2,15.2c-8.4,0-15.2-6.8-15.2-15.2"/>
  </g>
  <path d="M 162.934 574.709 L 149.584 574.709 Q 147.893 574.709 147.136 573.952 Q 146.38 573.196 146.38 571.505 L 146.38 513.833 Q 146.38 512.142 147.136 511.385 Q 147.893 510.629 149.584 510.629 L 158.84 510.629 Q 160.531 510.629 161.732 511.163 Q 162.934 511.697 164.091 513.032 L 181.357 532.79 L 181.357 513.833 Q 181.357 512.142 182.113 511.385 Q 182.87 510.629 184.561 510.629 L 197.911 510.629 Q 199.602 510.629 200.358 511.385 Q 201.115 512.142 201.115 513.833 L 201.115 571.505 Q 201.115 573.196 200.358 573.952 Q 199.602 574.709 197.911 574.709 L 184.561 574.709 Q 182.87 574.709 182.113 573.952 Q 181.357 573.196 181.357 571.505 L 181.357 560.558 L 166.138 542.135 L 166.138 571.505 Q 166.138 573.196 165.381 573.952 Q 164.625 574.709 162.934 574.709 Z" style="fill: rgb(65, 61, 81); white-space: pre;"/>
  <path d="M 243.122 574.709 L 214.998 574.709 Q 213.307 574.709 212.55 573.952 Q 211.794 573.196 211.794 571.505 L 211.794 561.092 Q 211.794 559.401 212.55 558.644 Q 213.307 557.888 214.998 557.888 L 238.939 557.888 Q 240.096 557.888 240.674 557.131 Q 241.253 556.375 241.253 555.307 Q 241.253 553.794 240.674 553.082 Q 240.096 552.37 238.939 552.281 L 225.589 550.412 Q 219.359 549.522 215.576 546.318 Q 211.794 543.114 211.794 535.638 L 211.794 526.293 Q 211.794 518.728 216.689 514.678 Q 221.584 510.629 230.217 510.629 L 255.137 510.629 Q 256.828 510.629 257.584 511.385 Q 258.341 512.142 258.341 513.833 L 258.341 524.424 Q 258.341 526.115 257.584 526.871 Q 256.828 527.628 255.137 527.628 L 234.4 527.628 Q 233.243 527.628 232.62 528.384 Q 231.997 529.141 231.997 530.298 Q 231.997 531.455 232.62 532.256 Q 233.243 533.057 234.4 533.146 L 247.661 534.926 Q 253.891 535.816 257.718 539.02 Q 261.545 542.224 261.545 549.7 L 261.545 559.045 Q 261.545 566.61 256.605 570.659 Q 251.666 574.709 243.122 574.709 Z" style="fill: rgb(65, 61, 81); white-space: pre;"/>
  <path d="M 325.796 557.888 Q 325.796 561.982 324.595 565.319 Q 323.393 568.657 320.323 571.015 Q 317.252 573.374 311.912 574.709 Q 306.572 576.044 298.295 576.044 Q 290.018 576.044 284.678 574.709 Q 279.338 573.374 276.268 571.015 Q 273.197 568.657 271.996 565.319 Q 270.794 561.982 270.794 557.888 L 270.794 513.833 Q 270.794 512.142 271.551 511.385 Q 272.307 510.629 273.998 510.629 L 287.971 510.629 Q 289.662 510.629 290.419 511.385 Q 291.175 512.142 291.175 513.833 L 291.175 554.417 Q 291.175 556.197 292.51 557.398 Q 293.845 558.6 298.473 558.6 Q 303.19 558.6 304.525 557.398 Q 305.86 556.197 305.86 554.417 L 305.86 513.833 Q 305.86 512.142 306.617 511.385 Q 307.373 510.629 309.064 510.629 L 322.592 510.629 Q 324.283 510.629 325.04 511.385 Q 325.796 512.142 325.796 513.833 Z" style="fill: rgb(65, 61, 81); white-space: pre;"/>
  <path d="M 367.356 574.709 L 339.232 574.709 Q 337.541 574.709 336.785 573.952 Q 336.028 573.196 336.028 571.505 L 336.028 561.092 Q 336.028 559.401 336.785 558.644 Q 337.541 557.888 339.232 557.888 L 363.173 557.888 Q 364.33 557.888 364.909 557.131 Q 365.487 556.375 365.487 555.307 Q 365.487 553.794 364.909 553.082 Q 364.33 552.37 363.173 552.281 L 349.823 550.412 Q 343.593 549.522 339.811 546.318 Q 336.028 543.114 336.028 535.638 L 336.028 526.293 Q 336.028 518.728 340.923 514.678 Q 345.818 510.629 354.451 510.629 L 379.371 510.629 Q 381.062 510.629 381.819 511.385 Q 382.575 512.142 382.575 513.833 L 382.575 524.424 Q 382.575 526.115 381.819 526.871 Q 381.062 527.628 379.371 527.628 L 358.634 527.628 Q 357.477 527.628 356.854 528.384 Q 356.231 529.141 356.231 530.298 Q 356.231 531.455 356.854 532.256 Q 357.477 533.057 358.634 533.146 L 371.895 534.926 Q 378.125 535.816 381.952 539.02 Q 385.779 542.224 385.779 549.7 L 385.779 559.045 Q 385.779 566.61 380.84 570.659 Q 375.9 574.709 367.356 574.709 Z" style="fill: rgb(65, 61, 81); white-space: pre;"/>
  <path d="M 424.859 574.709 L 410.441 574.709 Q 408.75 574.709 407.993 573.952 Q 407.237 573.196 407.237 571.505 L 407.237 527.806 L 394.154 527.806 Q 392.463 527.806 391.706 527.049 Q 390.95 526.293 390.95 524.602 L 390.95 513.833 Q 390.95 512.142 391.706 511.385 Q 392.463 510.629 394.154 510.629 L 441.146 510.629 Q 442.837 510.629 443.593 511.385 Q 444.35 512.142 444.35 513.833 L 444.35 524.602 Q 444.35 526.293 443.593 527.049 Q 442.837 527.806 441.146 527.806 L 428.063 527.806 L 428.063 571.505 Q 428.063 573.196 427.306 573.952 Q 426.55 574.709 424.859 574.709 Z" style="fill: rgb(65, 61, 81); white-space: pre;"/>
  <path d="M 472.64 529.319 L 468.457 542.847 L 482.43 542.847 L 478.247 529.319 Q 477.891 528.518 477.491 528.162 Q 477.09 527.806 476.556 527.806 L 474.331 527.806 Q 473.797 527.806 473.397 528.162 Q 472.996 528.518 472.64 529.319 Z M 467.567 571.505 Q 467.567 573.196 466.811 573.952 Q 466.054 574.709 464.363 574.709 L 451.28 574.709 Q 449.589 574.709 448.833 573.952 Q 448.076 573.196 448.076 571.505 L 448.076 548.009 Q 448.076 545.339 448.922 541.868 Q 449.767 538.397 451.547 533.769 L 459.29 513.566 Q 459.824 512.053 460.937 511.341 Q 462.049 510.629 463.829 510.629 L 487.77 510.629 Q 489.461 510.629 490.574 511.341 Q 491.686 512.053 492.22 513.566 L 499.963 533.769 Q 501.743 538.397 502.589 541.868 Q 503.434 545.339 503.434 548.009 L 503.434 571.505 Q 503.434 573.196 502.678 573.952 Q 501.921 574.709 500.23 574.709 L 486.791 574.709 Q 485.011 574.709 484.166 573.952 Q 483.32 573.196 483.32 571.505 L 483.32 559.045 L 467.567 559.045 Z" style="fill: rgb(65, 61, 81); white-space: pre;"/>
  <path d="M 516.16 574.709 Q 514.469 574.709 513.713 573.952 Q 512.956 573.196 512.956 571.505 L 512.956 560.914 Q 512.956 559.223 513.713 558.466 Q 514.469 557.71 516.16 557.71 L 524.971 557.71 L 524.971 527.806 L 516.16 527.806 Q 514.469 527.806 513.713 527.049 Q 512.956 526.293 512.956 524.602 L 512.956 513.833 Q 512.956 512.142 513.713 511.385 Q 514.469 510.629 516.16 510.629 L 554.074 510.629 Q 555.765 510.629 556.522 511.385 Q 557.278 512.142 557.278 513.833 L 557.278 524.602 Q 557.278 526.293 556.522 527.049 Q 555.765 527.806 554.074 527.806 L 545.441 527.806 L 545.441 557.71 L 554.074 557.71 Q 555.765 557.71 556.522 558.466 Q 557.278 559.223 557.278 560.914 L 557.278 571.505 Q 557.278 573.196 556.522 573.952 Q 555.765 574.709 554.074 574.709 Z" style="fill: rgb(65, 61, 81); white-space: pre;"/>
  <path d="M 584.793 574.709 L 571.443 574.709 Q 569.752 574.709 568.996 573.952 Q 568.239 573.196 568.239 571.505 L 568.239 513.833 Q 568.239 512.142 568.996 511.385 Q 569.752 510.629 571.443 510.629 L 580.699 510.629 Q 582.39 510.629 583.592 511.163 Q 584.793 511.697 585.95 513.032 L 603.216 532.79 L 603.216 513.833 Q 603.216 512.142 603.973 511.385 Q 604.729 510.629 606.42 510.629 L 619.77 510.629 Q 621.461 510.629 622.218 511.385 Q 622.974 512.142 622.974 513.833 L 622.974 571.505 Q 622.974 573.196 622.218 573.952 Q 621.461 574.709 619.77 574.709 L 606.42 574.709 Q 604.729 574.709 603.973 573.952 Q 603.216 573.196 603.216 571.505 L 603.216 560.558 L 587.997 542.135 L 587.997 571.505 Q 587.997 573.196 587.241 573.952 Q 586.484 574.709 584.793 574.709 Z" style="fill: rgb(65, 61, 81); white-space: pre;"/>
  <path d="M 655.191 574.709 L 637.213 574.709 Q 635.522 574.709 634.766 573.952 Q 634.009 573.196 634.009 571.505 L 634.009 553.438 Q 634.009 551.747 634.766 550.99 Q 635.522 550.234 637.213 550.234 L 655.191 550.234 Q 656.882 550.234 657.639 550.99 Q 658.395 551.747 658.395 553.438 L 658.395 571.505 Q 658.395 573.196 657.639 573.952 Q 656.882 574.709 655.191 574.709 Z" style="fill: rgb(65, 61, 81); white-space: pre;"/>
  <path d="M 712.058 574.709 L 690.342 574.709 Q 679.217 574.709 673.832 570.259 Q 668.448 565.809 668.448 556.553 L 668.448 528.874 Q 668.448 519.618 673.832 515.123 Q 679.217 510.629 690.342 510.629 L 712.058 510.629 Q 713.749 510.629 714.505 511.385 Q 715.262 512.142 715.262 513.833 L 715.262 524.602 Q 715.262 526.293 714.505 527.049 Q 713.749 527.806 712.058 527.806 L 694.169 527.806 Q 691.41 527.806 690.075 528.918 Q 688.74 530.031 688.74 532.256 L 688.74 553.438 Q 688.74 555.663 690.075 556.686 Q 691.41 557.71 694.169 557.71 L 712.058 557.71 Q 713.749 557.71 714.505 558.466 Q 715.262 559.223 715.262 560.914 L 715.262 571.505 Q 715.262 573.196 714.505 573.952 Q 713.749 574.709 712.058 574.709 Z" style="fill: rgb(65, 61, 81); white-space: pre;"/>
  <path d="M 779.154 557.888 Q 779.154 561.982 777.953 565.319 Q 776.751 568.657 773.681 571.015 Q 770.61 573.374 765.226 574.709 Q 759.841 576.044 751.564 576.044 Q 743.287 576.044 737.858 574.709 Q 732.429 573.374 729.359 571.015 Q 726.288 568.657 725.087 565.319 Q 723.885 561.982 723.885 557.888 L 723.885 527.539 Q 723.885 523.445 725.087 520.107 Q 726.288 516.77 729.359 514.367 Q 732.429 511.964 737.858 510.629 Q 743.287 509.294 751.564 509.294 Q 759.841 509.294 765.226 510.629 Q 770.61 511.964 773.681 514.367 Q 776.751 516.77 777.953 520.107 Q 779.154 523.445 779.154 527.539 Z M 744.088 554.684 Q 744.088 556.464 745.423 557.665 Q 746.758 558.867 751.564 558.867 Q 756.37 558.867 757.705 557.665 Q 759.04 556.464 759.04 554.684 L 759.04 530.743 Q 759.04 529.052 757.705 527.85 Q 756.37 526.649 751.564 526.649 Q 746.758 526.649 745.423 527.85 Q 744.088 529.052 744.088 530.743 Z" style="fill: rgb(65, 61, 81); white-space: pre;"/>
  <path d="M 806.923 574.709 L 793.662 574.709 Q 791.971 574.709 791.215 573.952 Q 790.458 573.196 790.458 571.505 L 790.458 513.833 Q 790.458 512.142 791.215 511.385 Q 791.971 510.629 793.662 510.629 L 807.991 510.629 Q 809.415 510.629 810.35 511.252 Q 811.284 511.875 812.085 513.299 L 820.095 527.806 Q 820.54 528.607 820.852 528.963 Q 821.163 529.319 821.697 529.319 L 822.498 529.319 Q 823.032 529.319 823.344 528.963 Q 823.655 528.607 824.1 527.806 L 832.021 513.299 Q 832.822 511.875 833.757 511.252 Q 834.691 510.629 836.115 510.629 L 850.533 510.629 Q 852.224 510.629 852.981 511.385 Q 853.737 512.142 853.737 513.833 L 853.737 571.505 Q 853.737 573.196 852.981 573.952 Q 852.224 574.709 850.533 574.709 L 836.827 574.709 Q 835.136 574.709 834.38 573.952 Q 833.623 573.196 833.623 571.505 L 833.623 540.177 L 828.372 549.878 Q 827.571 551.391 826.459 552.058 Q 825.346 552.726 823.655 552.726 L 820.095 552.726 Q 818.404 552.726 817.292 552.058 Q 816.179 551.391 815.378 549.878 L 810.127 540.177 L 810.127 571.505 Q 810.127 573.196 809.371 573.952 Q 808.614 574.709 806.923 574.709 Z" style="fill: rgb(65, 61, 81); white-space: pre;"/>
  <path d="M 157.319 631.788 Q 153.471 631.788 150.637 630.228 Q 147.803 628.668 146.269 625.6 Q 144.735 622.532 144.735 618.112 Q 144.735 611.3 147.933 607.79 Q 151.131 604.28 156.851 604.28 Q 161.063 604.28 163.663 606.152 Q 166.263 608.024 167.433 611.378 Q 168.603 614.732 168.551 619.204 L 148.011 619.204 L 147.855 615.148 L 164.391 615.148 L 163.091 616.448 Q 162.935 612.444 161.427 610.598 Q 159.919 608.752 156.695 608.752 Q 154.615 608.752 153.159 609.61 Q 151.703 610.468 150.949 612.522 Q 150.195 614.576 150.195 618.164 Q 150.195 622.532 152.223 624.794 Q 154.251 627.056 158.203 627.056 Q 159.971 627.056 161.505 626.744 Q 163.039 626.432 164.339 625.938 Q 165.639 625.444 166.575 624.976 L 166.575 630.02 Q 164.755 630.8 162.467 631.294 Q 160.179 631.788 157.319 631.788 Z" style="fill: rgb(65, 61, 81); white-space: pre;"/>
  <path d="M 176.337 607.036 Q 177.481 606.464 178.911 605.97 Q 180.341 605.476 181.953 605.112 Q 183.565 604.748 185.229 604.54 Q 186.893 604.332 188.453 604.332 Q 192.145 604.332 194.485 605.346 Q 196.825 606.36 197.969 608.466 Q 199.113 610.572 199.113 613.744 L 199.113 631.008 L 193.653 631.008 L 193.653 614.472 Q 193.653 613.484 193.419 612.522 Q 193.185 611.56 192.535 610.754 Q 191.885 609.948 190.663 609.48 Q 189.441 609.012 187.465 609.012 Q 186.061 609.012 184.579 609.272 Q 183.097 609.532 181.797 610 L 181.797 631.008 L 176.337 631.008 Z" style="fill: rgb(65, 61, 81); white-space: pre;"/>
  <path d="M 216.573 631.008 L 205.601 604.904 L 211.425 604.904 L 220.369 626.588 L 219.069 626.744 L 227.389 604.904 L 233.057 604.904 L 222.033 631.008 Z" style="fill: rgb(65, 61, 81); white-space: pre;"/>
  <path d="M 240.118 631.008 L 240.118 605.06 L 245.578 605.06 L 245.63 631.008 Z M 239.962 600.744 L 239.962 595.804 L 245.786 595.804 L 245.786 600.744 Z" style="fill: rgb(65, 61, 81); white-space: pre;"/>
  <path d="M 254.993 631.008 L 254.993 607.296 Q 255.669 606.88 257.489 606.152 Q 259.309 605.424 261.805 604.878 Q 264.301 604.332 266.849 604.332 Q 268.149 604.332 268.981 604.54 Q 269.813 604.748 270.385 605.008 L 270.385 609.376 Q 269.189 609.22 267.889 609.142 Q 266.589 609.064 265.289 609.142 Q 263.989 609.22 262.741 609.376 Q 261.493 609.532 260.453 609.688 L 260.453 631.008 Z" style="fill: rgb(65, 61, 81); white-space: pre;"/>
  <path d="M 286.955 631.788 Q 280.611 631.788 277.517 628.2 Q 274.423 624.612 274.423 617.956 Q 274.423 610.884 277.621 607.582 Q 280.819 604.28 286.851 604.28 Q 291.167 604.28 293.975 605.866 Q 296.783 607.452 298.135 610.52 Q 299.487 613.588 299.487 617.956 Q 299.487 624.56 296.237 628.174 Q 292.987 631.788 286.955 631.788 Z M 286.903 627.16 Q 289.555 627.16 291.115 625.99 Q 292.675 624.82 293.377 622.74 Q 294.079 620.66 294.079 617.956 Q 294.079 614.94 293.351 612.912 Q 292.623 610.884 291.063 609.87 Q 289.503 608.856 286.903 608.856 Q 284.303 608.856 282.743 609.948 Q 281.183 611.04 280.507 613.068 Q 279.831 615.096 279.831 617.956 Q 279.831 622.272 281.443 624.716 Q 283.055 627.16 286.903 627.16 Z" style="fill: rgb(65, 61, 81); white-space: pre;"/>
  <path d="M 307.337 607.036 Q 308.481 606.464 309.911 605.97 Q 311.341 605.476 312.953 605.112 Q 314.565 604.748 316.229 604.54 Q 317.893 604.332 319.453 604.332 Q 323.145 604.332 325.485 605.346 Q 327.825 606.36 328.969 608.466 Q 330.113 610.572 330.113 613.744 L 330.113 631.008 L 324.653 631.008 L 324.653 614.472 Q 324.653 613.484 324.419 612.522 Q 324.185 611.56 323.535 610.754 Q 322.885 609.948 321.663 609.48 Q 320.441 609.012 318.465 609.012 Q 317.061 609.012 315.579 609.272 Q 314.097 609.532 312.797 610 L 312.797 631.008 L 307.337 631.008 Z" style="fill: rgb(65, 61, 81); white-space: pre;"/>
  <path d="M 361.926 613.744 L 361.926 631.008 L 356.466 631.008 L 356.466 614.472 Q 356.466 613.484 356.232 612.522 Q 355.998 611.56 355.348 610.754 Q 354.698 609.948 353.476 609.48 Q 352.254 609.012 350.278 609.012 Q 348.874 609.012 347.47 609.272 Q 346.066 609.532 344.766 610 L 344.766 631.008 L 339.306 631.008 L 339.306 607.036 Q 340.45 606.464 341.88 605.97 Q 343.31 605.476 344.922 605.112 Q 346.534 604.748 348.198 604.54 Q 349.862 604.332 351.422 604.332 Q 355.114 604.332 357.402 605.346 Q 359.69 606.36 360.808 608.466 Q 361.926 610.572 361.926 613.744 Z M 355.686 608.388 Q 357.35 607.036 359.352 606.152 Q 361.354 605.268 363.512 604.8 Q 365.67 604.332 367.75 604.332 Q 371.442 604.332 373.73 605.346 Q 376.018 606.36 377.136 608.466 Q 378.254 610.572 378.254 613.744 L 378.254 631.008 L 372.794 631.008 L 372.794 614.472 Q 372.794 613.484 372.56 612.522 Q 372.326 611.56 371.676 610.754 Q 371.026 609.948 369.804 609.48 Q 368.582 609.012 366.606 609.012 Q 365.202 609.012 363.798 609.428 Q 362.394 609.844 361.094 610.728 Z" style="fill: rgb(65, 61, 81); white-space: pre;"/>
  <path d="M 398.678 631.788 Q 394.83 631.788 391.996 630.228 Q 389.162 628.668 387.628 625.6 Q 386.094 622.532 386.094 618.112 Q 386.094 611.3 389.292 607.79 Q 392.49 604.28 398.21 604.28 Q 402.422 604.28 405.022 606.152 Q 407.622 608.024 408.792 611.378 Q 409.962 614.732 409.91 619.204 L 389.37 619.204 L 389.214 615.148 L 405.75 615.148 L 404.45 616.448 Q 404.294 612.444 402.786 610.598 Q 401.278 608.752 398.054 608.752 Q 395.974 608.752 394.518 609.61 Q 393.062 610.468 392.308 612.522 Q 391.554 614.576 391.554 618.164 Q 391.554 622.532 393.582 624.794 Q 395.61 627.056 399.562 627.056 Q 401.33 627.056 402.864 626.744 Q 404.398 626.432 405.698 625.938 Q 406.998 625.444 407.934 624.976 L 407.934 630.02 Q 406.114 630.8 403.826 631.294 Q 401.538 631.788 398.678 631.788 Z" style="fill: rgb(65, 61, 81); white-space: pre;"/>
  <path d="M 417.712 607.036 Q 418.856 606.464 420.286 605.97 Q 421.716 605.476 423.328 605.112 Q 424.94 604.748 426.604 604.54 Q 428.268 604.332 429.828 604.332 Q 433.52 604.332 435.86 605.346 Q 438.2 606.36 439.344 608.466 Q 440.488 610.572 440.488 613.744 L 440.488 631.008 L 435.028 631.008 L 435.028 614.472 Q 435.028 613.484 434.794 612.522 Q 434.56 611.56 433.91 610.754 Q 433.26 609.948 432.038 609.48 Q 430.816 609.012 428.84 609.012 Q 427.436 609.012 425.954 609.272 Q 424.472 609.532 423.172 610 L 423.172 631.008 L 417.712 631.008 Z" style="fill: rgb(65, 61, 81); white-space: pre;"/>
  <path d="M 458.989 631.684 Q 455.453 631.684 453.399 629.812 Q 451.345 627.94 451.345 624.3 L 451.345 609.428 L 447.133 609.428 L 447.133 604.904 L 451.345 604.904 L 451.345 597.624 L 456.961 597.624 L 456.961 604.904 L 463.305 604.904 L 463.305 609.428 L 456.961 609.428 L 456.961 623.208 Q 456.961 625.028 457.611 625.938 Q 458.261 626.848 460.029 626.848 Q 460.913 626.848 461.797 626.614 Q 462.681 626.38 463.305 626.016 L 463.305 630.852 Q 462.369 631.268 461.199 631.476 Q 460.029 631.684 458.989 631.684 Z" style="fill: rgb(65, 61, 81); white-space: pre;"/>
  <path d="M 509.203 631.008 L 492.875 611.352 Q 491.731 609.948 490.613 608.024 Q 489.495 606.1 489.495 604.228 Q 489.495 601.94 490.743 600.042 Q 491.991 598.144 494.097 597 Q 496.203 595.856 498.803 595.856 Q 501.403 595.856 503.405 596.896 Q 505.407 597.936 506.577 599.756 Q 507.747 601.576 507.747 603.812 Q 507.747 605.944 506.785 607.478 Q 505.823 609.012 504.107 610.286 Q 502.391 611.56 500.051 612.964 L 497.763 609.792 Q 499.843 608.648 500.883 607.712 Q 501.923 606.776 502.261 605.918 Q 502.599 605.06 502.599 604.228 Q 502.599 602.668 501.533 601.68 Q 500.467 600.692 498.855 600.692 Q 497.243 600.692 496.125 601.758 Q 495.007 602.824 495.007 604.332 Q 495.007 605.008 495.553 605.944 Q 496.099 606.88 496.801 607.842 Q 497.503 608.804 498.127 609.532 L 516.067 631.008 Z M 497.035 631.528 Q 494.227 631.528 492.147 630.644 Q 490.067 629.76 488.741 628.278 Q 487.415 626.796 486.739 625.08 Q 486.063 623.364 486.063 621.752 Q 486.063 620.036 486.765 618.19 Q 487.467 616.344 489.209 614.524 Q 490.951 612.704 494.019 611.144 L 497.451 614.212 Q 495.215 615.46 493.993 616.786 Q 492.771 618.112 492.303 619.282 Q 491.835 620.452 491.835 621.388 Q 491.835 622.012 492.069 622.922 Q 492.303 623.832 492.927 624.742 Q 493.551 625.652 494.747 626.25 Q 495.943 626.848 497.815 626.848 Q 499.895 626.848 501.767 625.73 Q 503.639 624.612 504.783 623.364 L 507.695 626.848 Q 506.551 628.096 505.017 629.162 Q 503.483 630.228 501.481 630.878 Q 499.479 631.528 497.035 631.528 Z M 507.019 620.92 Q 507.643 619.932 508.059 618.866 Q 508.475 617.8 508.735 616.916 Q 508.995 616.032 509.099 615.616 L 513.519 615.616 Q 513.207 617.384 512.297 619.698 Q 511.387 622.012 510.035 624.144 Z" style="fill: rgb(65, 61, 81); white-space: pre;"/>
  <path d="M 546.986 631.788 Q 544.178 631.788 542.228 631.19 Q 540.278 630.592 538.406 629.708 L 538.406 624.56 Q 539.758 625.392 541.058 626.042 Q 542.358 626.692 543.788 627.056 Q 545.218 627.42 546.986 627.42 Q 549.222 627.42 550.496 626.484 Q 551.77 625.548 551.77 624.144 Q 551.77 622.948 550.964 622.272 Q 550.158 621.596 548.91 621.128 Q 547.662 620.66 546.31 620.192 Q 544.906 619.828 543.502 619.334 Q 542.098 618.84 540.928 617.982 Q 539.758 617.124 539.056 615.772 Q 538.354 614.42 538.354 612.444 Q 538.354 610.26 539.238 608.726 Q 540.122 607.192 541.552 606.23 Q 542.982 605.268 544.724 604.826 Q 546.466 604.384 548.13 604.384 Q 550.886 604.436 552.628 605.06 Q 554.37 605.684 556.034 606.568 L 556.086 611.248 Q 554.214 610.26 552.55 609.532 Q 550.886 608.804 548.702 608.804 Q 546.674 608.804 545.322 609.558 Q 543.97 610.312 543.97 611.768 Q 543.97 613.016 544.724 613.744 Q 545.478 614.472 546.7 614.888 Q 547.922 615.304 549.326 615.72 Q 550.626 616.136 552.03 616.578 Q 553.434 617.02 554.63 617.852 Q 555.826 618.684 556.58 620.036 Q 557.334 621.388 557.334 623.572 Q 557.282 626.484 555.8 628.304 Q 554.318 630.124 551.926 630.956 Q 549.534 631.788 546.986 631.788 Z" style="fill: rgb(65, 61, 81); white-space: pre;"/>
  <path d="M 576.787 631.788 Q 573.199 631.788 570.625 630.618 Q 568.051 629.448 566.647 627.108 Q 565.243 624.768 565.243 621.284 L 565.243 604.904 L 570.703 604.904 L 570.703 620.504 Q 570.703 623.832 572.185 625.418 Q 573.667 627.004 576.787 627.004 Q 579.907 627.004 581.389 625.418 Q 582.871 623.832 582.871 620.504 L 582.871 604.904 L 588.123 604.904 L 588.123 621.284 Q 588.123 626.484 585.133 629.136 Q 582.143 631.788 576.787 631.788 Z" style="fill: rgb(65, 61, 81); white-space: pre;"/>
  <path d="M 604.846 631.788 Q 602.038 631.788 600.088 631.19 Q 598.138 630.592 596.266 629.708 L 596.266 624.56 Q 597.618 625.392 598.918 626.042 Q 600.218 626.692 601.648 627.056 Q 603.078 627.42 604.846 627.42 Q 607.082 627.42 608.356 626.484 Q 609.63 625.548 609.63 624.144 Q 609.63 622.948 608.824 622.272 Q 608.018 621.596 606.77 621.128 Q 605.522 620.66 604.17 620.192 Q 602.766 619.828 601.362 619.334 Q 599.958 618.84 598.788 617.982 Q 597.618 617.124 596.916 615.772 Q 596.214 614.42 596.214 612.444 Q 596.214 610.26 597.098 608.726 Q 597.982 607.192 599.412 606.23 Q 600.842 605.268 602.584 604.826 Q 604.326 604.384 605.99 604.384 Q 608.746 604.436 610.488 605.06 Q 612.23 605.684 613.894 606.568 L 613.946 611.248 Q 612.074 610.26 610.41 609.532 Q 608.746 608.804 606.562 608.804 Q 604.534 608.804 603.182 609.558 Q 601.83 610.312 601.83 611.768 Q 601.83 613.016 602.584 613.744 Q 603.338 614.472 604.56 614.888 Q 605.782 615.304 607.186 615.72 Q 608.486 616.136 609.89 616.578 Q 611.294 617.02 612.49 617.852 Q 613.686 618.684 614.44 620.036 Q 615.194 621.388 615.194 623.572 Q 615.142 626.484 613.66 628.304 Q 612.178 630.124 609.786 630.956 Q 607.394 631.788 604.846 631.788 Z" style="fill: rgb(65, 61, 81); white-space: pre;"/>
  <path d="M 632.411 631.684 Q 628.875 631.684 626.821 629.812 Q 624.767 627.94 624.767 624.3 L 624.767 609.428 L 620.555 609.428 L 620.555 604.904 L 624.767 604.904 L 624.767 597.624 L 630.383 597.624 L 630.383 604.904 L 636.727 604.904 L 636.727 609.428 L 630.383 609.428 L 630.383 623.208 Q 630.383 625.028 631.033 625.938 Q 631.683 626.848 633.451 626.848 Q 634.335 626.848 635.219 626.614 Q 636.103 626.38 636.727 626.016 L 636.727 630.852 Q 635.791 631.268 634.621 631.476 Q 633.451 631.684 632.411 631.684 Z" style="fill: rgb(65, 61, 81); white-space: pre;"/>
  <path d="M 654.035 631.788 Q 652.007 631.788 650.135 631.398 Q 648.263 631.008 646.729 630.072 Q 645.195 629.136 644.285 627.498 Q 643.375 625.86 643.375 623.416 Q 643.375 620.504 644.519 618.632 Q 645.663 616.76 647.795 615.824 Q 649.927 614.888 652.891 614.888 Q 654.867 614.888 656.453 615.2 Q 658.039 615.512 659.313 616.058 Q 660.587 616.604 661.471 617.28 L 662.043 620.868 Q 660.899 620.088 658.975 619.542 Q 657.051 618.996 654.815 618.996 Q 651.851 618.996 650.317 620.036 Q 648.783 621.076 648.783 623.156 Q 648.783 624.716 649.667 625.678 Q 650.551 626.64 651.877 627.082 Q 653.203 627.524 654.659 627.524 Q 657.727 627.524 659.183 627.108 Q 660.639 626.692 660.639 625.184 L 660.639 614.264 Q 660.639 611.508 658.975 610.234 Q 657.311 608.96 654.243 608.96 Q 652.059 608.96 649.719 609.662 Q 647.379 610.364 645.871 611.612 L 645.871 606.516 Q 647.327 605.528 650.109 604.93 Q 652.891 604.332 655.855 604.332 Q 657.311 604.332 658.793 604.618 Q 660.275 604.904 661.575 605.502 Q 662.875 606.1 663.889 607.114 Q 664.903 608.128 665.475 609.584 Q 666.047 611.04 666.047 613.016 L 666.047 625.496 Q 666.047 628.044 664.461 629.422 Q 662.875 630.8 660.171 631.294 Q 657.467 631.788 654.035 631.788 Z" style="fill: rgb(65, 61, 81); white-space: pre;"/>
  <path d="M 675.399 631.008 L 675.399 605.06 L 680.859 605.06 L 680.911 631.008 Z M 675.243 600.744 L 675.243 595.804 L 681.067 595.804 L 681.067 600.744 Z" style="fill: rgb(65, 61, 81); white-space: pre;"/>
  <path d="M 690.259 607.036 Q 691.403 606.464 692.833 605.97 Q 694.263 605.476 695.875 605.112 Q 697.487 604.748 699.151 604.54 Q 700.815 604.332 702.375 604.332 Q 706.067 604.332 708.407 605.346 Q 710.747 606.36 711.891 608.466 Q 713.035 610.572 713.035 613.744 L 713.035 631.008 L 707.575 631.008 L 707.575 614.472 Q 707.575 613.484 707.341 612.522 Q 707.107 611.56 706.457 610.754 Q 705.807 609.948 704.585 609.48 Q 703.363 609.012 701.387 609.012 Q 699.983 609.012 698.501 609.272 Q 697.019 609.532 695.719 610 L 695.719 631.008 L 690.259 631.008 Z" style="fill: rgb(65, 61, 81); white-space: pre;"/>
  <path d="M 731.692 631.788 Q 729.664 631.788 727.792 631.398 Q 725.92 631.008 724.386 630.072 Q 722.852 629.136 721.942 627.498 Q 721.032 625.86 721.032 623.416 Q 721.032 620.504 722.176 618.632 Q 723.32 616.76 725.452 615.824 Q 727.584 614.888 730.548 614.888 Q 732.524 614.888 734.11 615.2 Q 735.696 615.512 736.97 616.058 Q 738.244 616.604 739.128 617.28 L 739.7 620.868 Q 738.556 620.088 736.632 619.542 Q 734.708 618.996 732.472 618.996 Q 729.508 618.996 727.974 620.036 Q 726.44 621.076 726.44 623.156 Q 726.44 624.716 727.324 625.678 Q 728.208 626.64 729.534 627.082 Q 730.86 627.524 732.316 627.524 Q 735.384 627.524 736.84 627.108 Q 738.296 626.692 738.296 625.184 L 738.296 614.264 Q 738.296 611.508 736.632 610.234 Q 734.968 608.96 731.9 608.96 Q 729.716 608.96 727.376 609.662 Q 725.036 610.364 723.528 611.612 L 723.528 606.516 Q 724.984 605.528 727.766 604.93 Q 730.548 604.332 733.512 604.332 Q 734.968 604.332 736.45 604.618 Q 737.932 604.904 739.232 605.502 Q 740.532 606.1 741.546 607.114 Q 742.56 608.128 743.132 609.584 Q 743.704 611.04 743.704 613.016 L 743.704 625.496 Q 743.704 628.044 742.118 629.422 Q 740.532 630.8 737.828 631.294 Q 735.124 631.788 731.692 631.788 Z" style="fill: rgb(65, 61, 81); white-space: pre;"/>
  <path d="M 763.924 631.788 Q 761.792 631.788 759.816 631.528 Q 757.84 631.268 756.28 630.618 Q 754.72 629.968 753.81 628.824 Q 752.9 627.68 752.9 625.86 L 752.9 594.452 L 758.308 594.452 L 758.308 608.544 L 756.904 606.776 Q 757.892 605.996 759.374 605.476 Q 760.856 604.956 762.39 604.644 Q 763.924 604.332 765.016 604.332 Q 770.944 604.332 773.908 607.842 Q 776.872 611.352 776.872 617.696 Q 776.872 621.96 775.754 624.716 Q 774.636 627.472 772.79 629.006 Q 770.944 630.54 768.63 631.164 Q 766.316 631.788 763.924 631.788 Z M 763.664 627.056 Q 766.732 627.056 768.396 625.808 Q 770.06 624.56 770.684 622.506 Q 771.308 620.452 771.308 617.904 Q 771.308 614.992 770.528 613.016 Q 769.748 611.04 768.188 610 Q 766.628 608.96 764.184 608.96 Q 762.832 608.96 761.246 609.324 Q 759.66 609.688 758.308 610.468 L 758.308 624.508 Q 758.308 625.548 759.14 626.12 Q 759.972 626.692 761.194 626.874 Q 762.416 627.056 763.664 627.056 Z" style="fill: rgb(65, 61, 81); white-space: pre;"/>
  <path d="M 784.868 631.008 L 784.868 605.06 L 790.328 605.06 L 790.38 631.008 Z M 784.712 600.744 L 784.712 595.804 L 790.536 595.804 L 790.536 600.744 Z" style="fill: rgb(65, 61, 81); white-space: pre;"/>
  <path d="M 805.151 631.008 L 799.743 631.008 L 799.743 595.024 L 805.151 595.024 Z" style="fill: rgb(65, 61, 81); white-space: pre;"/>
  <path d="M 814.493 631.008 L 814.493 605.06 L 819.953 605.06 L 820.005 631.008 Z M 814.337 600.744 L 814.337 595.804 L 820.161 595.804 L 820.161 600.744 Z" style="fill: rgb(65, 61, 81); white-space: pre;"/>
  <path d="M 838.661 631.684 Q 835.125 631.684 833.071 629.812 Q 831.017 627.94 831.017 624.3 L 831.017 609.428 L 826.805 609.428 L 826.805 604.904 L 831.017 604.904 L 831.017 597.624 L 836.633 597.624 L 836.633 604.904 L 842.977 604.904 L 842.977 609.428 L 836.633 609.428 L 836.633 623.208 Q 836.633 625.028 837.283 625.938 Q 837.933 626.848 839.701 626.848 Q 840.585 626.848 841.469 626.614 Q 842.353 626.38 842.977 626.016 L 842.977 630.852 Q 842.041 631.268 840.871 631.476 Q 839.701 631.684 838.661 631.684 Z" style="fill: rgb(65, 61, 81); white-space: pre;"/>
  <path d="M 854.877 641.096 Q 853.889 641.096 853.005 640.914 Q 852.121 640.732 851.445 640.472 L 851.445 635.792 Q 852.069 636 852.693 636.156 Q 853.317 636.312 854.045 636.312 Q 855.605 636.312 856.645 635.48 Q 857.685 634.648 858.413 633.088 Q 859.141 631.528 859.609 629.344 L 859.713 632.048 L 848.585 604.904 L 854.773 604.904 L 862.313 625.496 L 861.533 625.496 L 868.969 604.904 L 874.637 604.904 L 863.873 632.62 Q 862.573 635.948 861.065 637.794 Q 859.557 639.64 857.971 640.368 Q 856.385 641.096 854.877 641.096 Z" style="fill: rgb(65, 61, 81); white-space: pre;"/>
</svg>