<?xml version="1.0" encoding="utf-8"?>
<svg viewBox="0 0 1000 700" style="enable-background:new 0 0 1000 1000;" xmlns="http://www.w3.org/2000/svg">
  <defs>
    <style type="text/css">
	.st0{opacity:0.7;fill:#FFFFFF;}
	.st1{fill:#413D51;}
	.st2{fill:#8FE3F9;}
	.st3{fill:#B2EBF9;}
	.st4{fill:#A4E0EA;}
	.st5{fill:#7AD1E5;}
	.st6{fill:none;stroke:#413D51;stroke-width:16;stroke-linecap:round;stroke-linejoin:round;stroke-miterlimit:10;}
	.st7{fill:#F7E8AD;}
	.st8{fill:#F7D6A1;}
	.st9{fill:#EFCA92;}
	.st10{fill:#FFFFFF;}
	.st11{opacity:0.89;fill:#EFCA92;}
	.st12{fill:none;stroke:#413D51;stroke-width:8;stroke-linecap:round;stroke-linejoin:round;stroke-miterlimit:10;}
	.st13{opacity:0.31;fill:none;stroke:#72C8D6;stroke-width:8;stroke-linecap:round;stroke-linejoin:round;stroke-miterlimit:10;}
</style>
  </defs>
  <g transform="matrix(1, 0, 0, 1, 0, -216)">
    <ellipse id="XMLID_2_" class="st2" cx="501.8" cy="487.5" rx="228" ry="205.8"/>
    <ellipse id="XMLID_188_" class="st2" cx="501.8" cy="487.5" rx="228" ry="205.8"/>
    <path id="XMLID_193_" class="st3" d="M507.8,689.3c52.1,0,100.1-15.3,138.5-41l-10.5-24.7c-22-51.9-74.2-85.8-132.1-85.8l0,0 c-57.9,0-110.1,33.9-132.1,85.8l-8.6,20.4C402.3,672.3,452.8,689.3,507.8,689.3z"/>
    <path id="XMLID_189_" class="st4" d="M501.7,470.3l-43.6,64l32.9,43.8c5.4,7.2,16.3,7.2,21.7,0l32.6-43.8L501.7,470.3z"/>
    <path id="XMLID_192_" class="st5" d="M501.8,669.3c-121.5,0-220.7-85.7-227.6-193.8c-0.3,4-0.4,8-0.4,12 c0,113.6,102.1,205.8,228,205.8s228-92.1,228-205.8c0-4-0.1-8-0.4-12C722.5,583.6,623.2,669.3,501.8,669.3z"/>
    <path id="XMLID_76_" class="st4" d="M638.6,628.1c-38.1,25.8-85.5,41.2-136.8,41.2c-50,0-96.2-14.5-133.7-39.1l-5,12.3 c39.4,29.2,89.8,46.8,144.8,46.8c49.7,0,95.7-14.4,133.2-38.8c1.8-1.2,3.5-2.5,5.3-3.8L638.6,628.1z"/>
    <path id="XMLID_186_" class="st5" d="M268.2,488.2c6.4,13.1,15,25.3,25.8,36.2c52.3,52.3,137.2,52.3,189.5,0 c43.8-43.8,50.9-110.3,21.5-161.5"/>
    <path id="XMLID_185_" class="st5" d="M729,503.8c-24,36.1-65,59.8-111.6,59.8c-74,0-134-60-134-134c0-33,11.9-63.2,31.7-86.6"/>
    <ellipse id="XMLID_75_" class="st6" cx="501.8" cy="487.5" rx="228" ry="205.8"/>
    <polygon id="XMLID_74_" class="st1" points="501.7,442.3 458.1,506.3 501.9,564.6 545.4,506.3 &#9;"/>
    <polygon id="XMLID_73_" class="st6" points="501.7,442.3 458.1,506.3 501.9,564.6 545.4,506.3 &#9;"/>
    <path id="XMLID_72_" class="st1" d="M600.7,303.9c-30-14-64.1-21.9-100-21.9s-70,7.9-100,21.9v140.1h200V303.9z"/>
    <g id="XMLID_58_">
      <path id="XMLID_71_" class="st1" d="M613.5,317.9l108.7-3.3c-15.7,39.3-17.8,98.4-4.1,163c-17.4,36.8-54.4,62.9-97.9,64.2l0,0 c-61.8,1.9-113.5-46.7-115.3-108.6l0,0C503,371.4,551.6,319.8,613.5,317.9z"/>
      <path id="XMLID_70_" class="st6" d="M613.5,317.9l108.7-3.3c-15.7,39.3-17.8,98.4-4.1,163c-17.4,36.8-54.4,62.9-97.9,64.2l0,0 c-61.8,1.9-113.5-46.7-115.3-108.6l0,0C503,371.4,551.6,319.8,613.5,317.9z"/>
      <circle id="XMLID_69_" class="st7" cx="617.4" cy="429.7" r="112"/>
      <circle id="XMLID_5_" class="st7" cx="617.4" cy="429.7" r="112"/>
      <path id="XMLID_86_" class="st8" d="M696.6,350.5c-21.5-21.5-49.7-32.4-77.9-32.8c21.2,4.1,41.5,14.3,57.9,30.8 c43.7,43.7,43.7,114.6,0,158.4c-22.2,22.2-51.4,33.1-80.4,32.8c35.3,6.8,73.1-3.5,100.4-30.8C740.3,465.1,740.3,394.2,696.6,350.5 z"/>
      <ellipse id="XMLID_3_" transform="matrix(0.7071 -0.7071 0.7071 0.7071 -130.8246 543.5441)" class="st0" cx="590.7" cy="429.7" rx="84" ry="84.6"/>
      <path id="XMLID_12_" class="st9" d="M711.4,376.6c-3.1-4-9.1-15-12.8-18.7c-44-43.4-114.9-43-158.3,1.1 c-8.6,8.7-15.5,18.5-20.6,29C581.4,366.3,649,371.5,711.4,376.6z"/>
      <circle id="XMLID_68_" class="st6" cx="617.4" cy="429.7" r="112"/>
      <circle id="XMLID_67_" class="st6" cx="617.4" cy="429.7" r="112"/>
      <path id="XMLID_66_" class="st1" d="M706.7,362.1c-3.1-4-6.4-7.9-10.1-11.6c-43.7-43.7-114.6-43.7-158.4,0 c-8.7,8.7-15.6,18.4-20.8,28.8C579.4,358.1,644.3,356.5,706.7,362.1z"/>
      <circle id="XMLID_57_" class="st1" cx="562.9" cy="438.1" r="42"/>
      <circle id="XMLID_56_" class="st10" cx="539.1" cy="438.4" r="14"/>
    </g>
    <g id="XMLID_26_">
      <path id="XMLID_89_" class="st1" d="M388.8,317.9L280,314.6c15.7,39.3,17.8,98.4,4.1,163c17.4,36.8,54.4,62.9,97.9,64.2l0,0 c61.8,1.9,113.5-46.7,115.3-108.6l0,0C499.2,371.4,450.6,319.8,388.8,317.9z"/>
      <path id="XMLID_88_" class="st6" d="M388.8,317.9L280,314.6c15.7,39.3,17.8,98.4,4.1,163c17.4,36.8,54.4,62.9,97.9,64.2l0,0 c61.8,1.9,113.5-46.7,115.3-108.6l0,0C499.2,371.4,450.6,319.8,388.8,317.9z"/>
      <circle id="XMLID_87_" class="st7" cx="384.8" cy="429.7" r="112"/>
      <circle id="XMLID_84_" class="st7" cx="384.8" cy="429.7" r="112"/>
      <path id="XMLID_65_" class="st8" d="M305.6,350.5c21.5-21.5,49.7-32.4,77.9-32.8c-21.2,4.1-41.5,14.3-57.9,30.8 c-43.7,43.7-43.7,114.6,0,158.4c22.2,22.2,51.4,33.1,80.4,32.8c-35.3,6.8-73.1-3.5-100.4-30.8 C261.9,465.1,261.9,394.2,305.6,350.5z"/>
      <ellipse id="XMLID_64_" transform="matrix(0.7071 -0.7071 0.7071 0.7071 -183.3021 416.8521)" class="st0" cx="411.5" cy="429.7" rx="84.6" ry="84"/>
      <path id="XMLID_63_" class="st11" d="M290.9,376.6c3.1-4,9.1-15,12.8-18.7c44-43.4,114.9-43,158.3,1.1c8.6,8.7,15.5,18.5,20.6,29 C420.8,366.3,353.2,371.5,290.9,376.6z"/>
      <circle id="XMLID_62_" class="st6" cx="384.8" cy="429.7" r="112"/>
      <circle id="XMLID_61_" class="st6" cx="384.8" cy="429.7" r="112"/>
      <path id="XMLID_60_" class="st1" d="M295.6,362.1c3.1-4,6.4-7.9,10.1-11.6c43.7-43.7,114.6-43.7,158.4,0 c8.7,8.7,15.6,18.4,20.8,28.8C422.9,358.1,357.9,356.5,295.6,362.1z"/>
      <circle id="XMLID_59_" class="st1" cx="439.4" cy="438.1" r="42"/>
      <circle id="XMLID_37_" class="st10" cx="463.2" cy="438.4" r="14"/>
    </g>
    <path id="XMLID_19_" class="st1" d="M447.9,718.3L447.9,718.3c-8.8,0-16-7.2-16-16v-18c0-8.8,7.2-16,16-16h0c8.8,0,16,7.2,16,16v18 C463.9,711.1,456.8,718.3,447.9,718.3z"/>
    <path id="XMLID_17_" class="st1" d="M415.9,718.3L415.9,718.3c-8.8,0-16-7.2-16-16v-18c0-8.8,7.2-16,16-16h0c8.8,0,16,7.2,16,16v18 C431.9,711.1,424.8,718.3,415.9,718.3z"/>
    <path id="XMLID_16_" class="st1" d="M479.7,718.3L479.7,718.3c-8.8,0-16-7.2-16-16v-18c0-8.8,7.2-16,16-16h0c8.8,0,16,7.2,16,16v18 C495.7,711.1,488.5,718.3,479.7,718.3z"/>
    <path id="XMLID_15_" class="st1" d="M521.9,718.3L521.9,718.3c-8.8,0-16-7.2-16-16v-18c0-8.8,7.2-16,16-16h0c8.8,0,16,7.2,16,16v18 C537.9,711.1,530.7,718.3,521.9,718.3z"/>
    <path id="XMLID_14_" class="st1" d="M553.7,718.3L553.7,718.3c-8.8,0-16-7.2-16-16v-18c0-8.8,7.2-16,16-16h0c8.8,0,16,7.2,16,16v18 C569.7,711.1,562.5,718.3,553.7,718.3z"/>
    <path id="XMLID_13_" class="st1" d="M585.7,718.3L585.7,718.3c-8.8,0-16-7.2-16-16v-18c0-8.8,7.2-16,16-16h0c8.8,0,16,7.2,16,16v18 C601.7,711.1,594.5,718.3,585.7,718.3z"/>
    <path id="XMLID_11_" class="st12" d="M491.9,587.6c0,8.4-6.8,15.2-15.2,15.2c-8.4,0-15.2-6.8-15.2-15.2"/>
    <path id="XMLID_9_" class="st12" d="M538.4,587.6c0,8.4-6.8,15.2-15.2,15.2c-8.4,0-15.2-6.8-15.2-15.2"/>
    <path id="XMLID_10_" class="st13" d="M323,548.8c-2.2,4.7-7.7,6.8-12.5,4.6s-6.8-7.7-4.6-12.5"/>
    <path id="XMLID_1_" class="st13" d="M352.8,564.3c-2.2,4.7-7.7,6.8-12.5,4.6c-4.7-2.2-6.8-7.7-4.6-12.5"/>
    <path id="XMLID_78_" class="st13" d="M335.5,576.2c-2.2,4.7-7.7,6.8-12.5,4.6c-4.7-2.2-6.8-7.7-4.6-12.5"/>
    <path id="XMLID_77_" class="st13" d="M361.7,596.1c-2.2,4.7-7.7,6.8-12.5,4.6c-4.7-2.2-6.8-7.7-4.6-12.5"/>
    <path id="XMLID_79_" class="st13" d="M381.7,578.1c-2.2,4.7-7.7,6.8-12.5,4.6c-4.7-2.2-6.8-7.7-4.6-12.5"/>
    <path id="XMLID_85_" class="st13" d="M683.7,550.8c2.2,4.7,7.7,6.8,12.5,4.6s6.8-7.7,4.6-12.5"/>
    <path id="XMLID_83_" class="st13" d="M654,566.3c2.2,4.7,7.7,6.8,12.5,4.6c4.7-2.2,6.8-7.7,4.6-12.5"/>
    <path id="XMLID_82_" class="st13" d="M671.2,578.2c2.2,4.7,7.7,6.8,12.5,4.6c4.7-2.2,6.8-7.7,4.6-12.5"/>
    <path id="XMLID_81_" class="st13" d="M645.1,598.1c2.2,4.7,7.7,6.8,12.5,4.6c4.7-2.2,6.8-7.7,4.6-12.5"/>
    <path id="XMLID_80_" class="st13" d="M625.1,580.1c2.2,4.7,7.7,6.8,12.5,4.6c4.7-2.2,6.8-7.7,4.6-12.5"/>
    <path id="XMLID_8_" class="st12" d="M468.7,624.1c0,8.4-6.8,15.2-15.2,15.2c-8.4,0-15.2-6.8-15.2-15.2"/>
    <path id="XMLID_7_" class="st12" d="M515.2,624.1c0,8.4-6.8,15.2-15.2,15.2s-15.2-6.8-15.2-15.2"/>
    <path id="XMLID_6_" class="st12" d="M561.7,624.1c0,8.4-6.8,15.2-15.2,15.2c-8.4,0-15.2-6.8-15.2-15.2"/>
  </g>
  <path d="M 162.934 565.709 L 149.584 565.709 Q 147.893 565.709 147.136 564.952 Q 146.38 564.196 146.38 562.505 L 146.38 504.833 Q 146.38 503.142 147.136 502.385 Q 147.893 501.629 149.584 501.629 L 158.84 501.629 Q 160.531 501.629 161.732 502.163 Q 162.934 502.697 164.091 504.032 L 181.357 523.79 L 181.357 504.833 Q 181.357 503.142 182.113 502.385 Q 182.87 501.629 184.561 501.629 L 197.911 501.629 Q 199.602 501.629 200.358 502.385 Q 201.115 503.142 201.115 504.833 L 201.115 562.505 Q 201.115 564.196 200.358 564.952 Q 199.602 565.709 197.911 565.709 L 184.561 565.709 Q 182.87 565.709 182.113 564.952 Q 181.357 564.196 181.357 562.505 L 181.357 551.558 L 166.138 533.135 L 166.138 562.505 Q 166.138 564.196 165.381 564.952 Q 164.625 565.709 162.934 565.709 Z" style="fill: rgb(65, 61, 81); white-space: pre;"/>
  <path d="M 243.122 565.709 L 214.998 565.709 Q 213.307 565.709 212.55 564.952 Q 211.794 564.196 211.794 562.505 L 211.794 552.092 Q 211.794 550.401 212.55 549.644 Q 213.307 548.888 214.998 548.888 L 238.939 548.888 Q 240.096 548.888 240.674 548.131 Q 241.253 547.375 241.253 546.307 Q 241.253 544.794 240.674 544.082 Q 240.096 543.37 238.939 543.281 L 225.589 541.412 Q 219.359 540.522 215.576 537.318 Q 211.794 534.114 211.794 526.638 L 211.794 517.293 Q 211.794 509.728 216.689 505.678 Q 221.584 501.629 230.217 501.629 L 255.137 501.629 Q 256.828 501.629 257.584 502.385 Q 258.341 503.142 258.341 504.833 L 258.341 515.424 Q 258.341 517.115 257.584 517.871 Q 256.828 518.628 255.137 518.628 L 234.4 518.628 Q 233.243 518.628 232.62 519.384 Q 231.997 520.141 231.997 521.298 Q 231.997 522.455 232.62 523.256 Q 233.243 524.057 234.4 524.146 L 247.661 525.926 Q 253.891 526.816 257.718 530.02 Q 261.545 533.224 261.545 540.7 L 261.545 550.045 Q 261.545 557.61 256.605 561.659 Q 251.666 565.709 243.122 565.709 Z" style="fill: rgb(65, 61, 81); white-space: pre;"/>
  <path d="M 325.796 548.888 Q 325.796 552.982 324.595 556.319 Q 323.393 559.657 320.323 562.015 Q 317.252 564.374 311.912 565.709 Q 306.572 567.044 298.295 567.044 Q 290.018 567.044 284.678 565.709 Q 279.338 564.374 276.268 562.015 Q 273.197 559.657 271.996 556.319 Q 270.794 552.982 270.794 548.888 L 270.794 504.833 Q 270.794 503.142 271.551 502.385 Q 272.307 501.629 273.998 501.629 L 287.971 501.629 Q 289.662 501.629 290.419 502.385 Q 291.175 503.142 291.175 504.833 L 291.175 545.417 Q 291.175 547.197 292.51 548.398 Q 293.845 549.6 298.473 549.6 Q 303.19 549.6 304.525 548.398 Q 305.86 547.197 305.86 545.417 L 305.86 504.833 Q 305.86 503.142 306.617 502.385 Q 307.373 501.629 309.064 501.629 L 322.592 501.629 Q 324.283 501.629 325.04 502.385 Q 325.796 503.142 325.796 504.833 Z" style="fill: rgb(65, 61, 81); white-space: pre;"/>
  <path d="M 367.356 565.709 L 339.232 565.709 Q 337.541 565.709 336.785 564.952 Q 336.028 564.196 336.028 562.505 L 336.028 552.092 Q 336.028 550.401 336.785 549.644 Q 337.541 548.888 339.232 548.888 L 363.173 548.888 Q 364.33 548.888 364.909 548.131 Q 365.487 547.375 365.487 546.307 Q 365.487 544.794 364.909 544.082 Q 364.33 543.37 363.173 543.281 L 349.823 541.412 Q 343.593 540.522 339.811 537.318 Q 336.028 534.114 336.028 526.638 L 336.028 517.293 Q 336.028 509.728 340.923 505.678 Q 345.818 501.629 354.451 501.629 L 379.371 501.629 Q 381.062 501.629 381.819 502.385 Q 382.575 503.142 382.575 504.833 L 382.575 515.424 Q 382.575 517.115 381.819 517.871 Q 381.062 518.628 379.371 518.628 L 358.634 518.628 Q 357.477 518.628 356.854 519.384 Q 356.231 520.141 356.231 521.298 Q 356.231 522.455 356.854 523.256 Q 357.477 524.057 358.634 524.146 L 371.895 525.926 Q 378.125 526.816 381.952 530.02 Q 385.779 533.224 385.779 540.7 L 385.779 550.045 Q 385.779 557.61 380.84 561.659 Q 375.9 565.709 367.356 565.709 Z" style="fill: rgb(65, 61, 81); white-space: pre;"/>
  <path d="M 424.859 565.709 L 410.441 565.709 Q 408.75 565.709 407.993 564.952 Q 407.237 564.196 407.237 562.505 L 407.237 518.806 L 394.154 518.806 Q 392.463 518.806 391.706 518.049 Q 390.95 517.293 390.95 515.602 L 390.95 504.833 Q 390.95 503.142 391.706 502.385 Q 392.463 501.629 394.154 501.629 L 441.146 501.629 Q 442.837 501.629 443.593 502.385 Q 444.35 503.142 444.35 504.833 L 444.35 515.602 Q 444.35 517.293 443.593 518.049 Q 442.837 518.806 441.146 518.806 L 428.063 518.806 L 428.063 562.505 Q 428.063 564.196 427.306 564.952 Q 426.55 565.709 424.859 565.709 Z" style="fill: rgb(65, 61, 81); white-space: pre;"/>
  <path d="M 472.64 520.319 L 468.457 533.847 L 482.43 533.847 L 478.247 520.319 Q 477.891 519.518 477.491 519.162 Q 477.09 518.806 476.556 518.806 L 474.331 518.806 Q 473.797 518.806 473.397 519.162 Q 472.996 519.518 472.64 520.319 Z M 467.567 562.505 Q 467.567 564.196 466.811 564.952 Q 466.054 565.709 464.363 565.709 L 451.28 565.709 Q 449.589 565.709 448.833 564.952 Q 448.076 564.196 448.076 562.505 L 448.076 539.009 Q 448.076 536.339 448.922 532.868 Q 449.767 529.397 451.547 524.769 L 459.29 504.566 Q 459.824 503.053 460.937 502.341 Q 462.049 501.629 463.829 501.629 L 487.77 501.629 Q 489.461 501.629 490.574 502.341 Q 491.686 503.053 492.22 504.566 L 499.963 524.769 Q 501.743 529.397 502.589 532.868 Q 503.434 536.339 503.434 539.009 L 503.434 562.505 Q 503.434 564.196 502.678 564.952 Q 501.921 565.709 500.23 565.709 L 486.791 565.709 Q 485.011 565.709 484.166 564.952 Q 483.32 564.196 483.32 562.505 L 483.32 550.045 L 467.567 550.045 Z" style="fill: rgb(65, 61, 81); white-space: pre;"/>
  <path d="M 516.16 565.709 Q 514.469 565.709 513.713 564.952 Q 512.956 564.196 512.956 562.505 L 512.956 551.914 Q 512.956 550.223 513.713 549.466 Q 514.469 548.71 516.16 548.71 L 524.971 548.71 L 524.971 518.806 L 516.16 518.806 Q 514.469 518.806 513.713 518.049 Q 512.956 517.293 512.956 515.602 L 512.956 504.833 Q 512.956 503.142 513.713 502.385 Q 514.469 501.629 516.16 501.629 L 554.074 501.629 Q 555.765 501.629 556.522 502.385 Q 557.278 503.142 557.278 504.833 L 557.278 515.602 Q 557.278 517.293 556.522 518.049 Q 555.765 518.806 554.074 518.806 L 545.441 518.806 L 545.441 548.71 L 554.074 548.71 Q 555.765 548.71 556.522 549.466 Q 557.278 550.223 557.278 551.914 L 557.278 562.505 Q 557.278 564.196 556.522 564.952 Q 555.765 565.709 554.074 565.709 Z" style="fill: rgb(65, 61, 81); white-space: pre;"/>
  <path d="M 584.793 565.709 L 571.443 565.709 Q 569.752 565.709 568.996 564.952 Q 568.239 564.196 568.239 562.505 L 568.239 504.833 Q 568.239 503.142 568.996 502.385 Q 569.752 501.629 571.443 501.629 L 580.699 501.629 Q 582.39 501.629 583.592 502.163 Q 584.793 502.697 585.95 504.032 L 603.216 523.79 L 603.216 504.833 Q 603.216 503.142 603.973 502.385 Q 604.729 501.629 606.42 501.629 L 619.77 501.629 Q 621.461 501.629 622.218 502.385 Q 622.974 503.142 622.974 504.833 L 622.974 562.505 Q 622.974 564.196 622.218 564.952 Q 621.461 565.709 619.77 565.709 L 606.42 565.709 Q 604.729 565.709 603.973 564.952 Q 603.216 564.196 603.216 562.505 L 603.216 551.558 L 587.997 533.135 L 587.997 562.505 Q 587.997 564.196 587.241 564.952 Q 586.484 565.709 584.793 565.709 Z" style="fill: rgb(65, 61, 81); white-space: pre;"/>
  <path d="M 655.191 565.709 L 637.213 565.709 Q 635.522 565.709 634.766 564.952 Q 634.009 564.196 634.009 562.505 L 634.009 544.438 Q 634.009 542.747 634.766 541.99 Q 635.522 541.234 637.213 541.234 L 655.191 541.234 Q 656.882 541.234 657.639 541.99 Q 658.395 542.747 658.395 544.438 L 658.395 562.505 Q 658.395 564.196 657.639 564.952 Q 656.882 565.709 655.191 565.709 Z" style="fill: rgb(65, 61, 81); white-space: pre;"/>
  <path d="M 712.058 565.709 L 690.342 565.709 Q 679.217 565.709 673.832 561.259 Q 668.448 556.809 668.448 547.553 L 668.448 519.874 Q 668.448 510.618 673.832 506.123 Q 679.217 501.629 690.342 501.629 L 712.058 501.629 Q 713.749 501.629 714.505 502.385 Q 715.262 503.142 715.262 504.833 L 715.262 515.602 Q 715.262 517.293 714.505 518.049 Q 713.749 518.806 712.058 518.806 L 694.169 518.806 Q 691.41 518.806 690.075 519.918 Q 688.74 521.031 688.74 523.256 L 688.74 544.438 Q 688.74 546.663 690.075 547.686 Q 691.41 548.71 694.169 548.71 L 712.058 548.71 Q 713.749 548.71 714.505 549.466 Q 715.262 550.223 715.262 551.914 L 715.262 562.505 Q 715.262 564.196 714.505 564.952 Q 713.749 565.709 712.058 565.709 Z" style="fill: rgb(65, 61, 81); white-space: pre;"/>
  <path d="M 779.154 548.888 Q 779.154 552.982 777.953 556.319 Q 776.751 559.657 773.681 562.015 Q 770.61 564.374 765.226 565.709 Q 759.841 567.044 751.564 567.044 Q 743.287 567.044 737.858 565.709 Q 732.429 564.374 729.359 562.015 Q 726.288 559.657 725.087 556.319 Q 723.885 552.982 723.885 548.888 L 723.885 518.539 Q 723.885 514.445 725.087 511.107 Q 726.288 507.77 729.359 505.367 Q 732.429 502.964 737.858 501.629 Q 743.287 500.294 751.564 500.294 Q 759.841 500.294 765.226 501.629 Q 770.61 502.964 773.681 505.367 Q 776.751 507.77 777.953 511.107 Q 779.154 514.445 779.154 518.539 Z M 744.088 545.684 Q 744.088 547.464 745.423 548.665 Q 746.758 549.867 751.564 549.867 Q 756.37 549.867 757.705 548.665 Q 759.04 547.464 759.04 545.684 L 759.04 521.743 Q 759.04 520.052 757.705 518.85 Q 756.37 517.649 751.564 517.649 Q 746.758 517.649 745.423 518.85 Q 744.088 520.052 744.088 521.743 Z" style="fill: rgb(65, 61, 81); white-space: pre;"/>
  <path d="M 806.923 565.709 L 793.662 565.709 Q 791.971 565.709 791.215 564.952 Q 790.458 564.196 790.458 562.505 L 790.458 504.833 Q 790.458 503.142 791.215 502.385 Q 791.971 501.629 793.662 501.629 L 807.991 501.629 Q 809.415 501.629 810.35 502.252 Q 811.284 502.875 812.085 504.299 L 820.095 518.806 Q 820.54 519.607 820.852 519.963 Q 821.163 520.319 821.697 520.319 L 822.498 520.319 Q 823.032 520.319 823.344 519.963 Q 823.655 519.607 824.1 518.806 L 832.021 504.299 Q 832.822 502.875 833.757 502.252 Q 834.691 501.629 836.115 501.629 L 850.533 501.629 Q 852.224 501.629 852.981 502.385 Q 853.737 503.142 853.737 504.833 L 853.737 562.505 Q 853.737 564.196 852.981 564.952 Q 852.224 565.709 850.533 565.709 L 836.827 565.709 Q 835.136 565.709 834.38 564.952 Q 833.623 564.196 833.623 562.505 L 833.623 531.177 L 828.372 540.878 Q 827.571 542.391 826.459 543.058 Q 825.346 543.726 823.655 543.726 L 820.095 543.726 Q 818.404 543.726 817.292 543.058 Q 816.179 542.391 815.378 540.878 L 810.127 531.177 L 810.127 562.505 Q 810.127 564.196 809.371 564.952 Q 808.614 565.709 806.923 565.709 Z" style="fill: rgb(65, 61, 81); white-space: pre;"/>
  <path d="M 156.959 622.387 C 154.467 622.387 152.303 621.882 150.468 620.871 C 148.633 619.861 147.218 618.363 146.225 616.376 C 145.232 614.389 144.735 611.965 144.735 609.102 C 144.735 604.691 145.77 601.349 147.841 599.076 C 149.912 596.803 152.8 595.666 156.504 595.666 C 159.232 595.666 161.437 596.273 163.121 597.485 C 164.805 598.697 166.025 600.389 166.783 602.561 C 167.541 604.733 167.903 607.267 167.869 610.163 L 147.917 610.163 L 147.766 606.223 L 163.828 606.223 L 162.565 607.486 C 162.464 604.893 161.926 602.999 160.949 601.804 C 159.973 600.608 158.44 600.01 156.353 600.01 C 155.006 600.01 153.861 600.288 152.918 600.844 C 151.975 601.399 151.259 602.342 150.771 603.672 C 150.283 605.003 150.039 606.829 150.039 609.153 C 150.039 611.982 150.695 614.128 152.009 615.593 C 153.322 617.058 155.258 617.79 157.817 617.79 C 158.962 617.79 160.031 617.689 161.025 617.487 C 162.018 617.285 162.936 617.024 163.778 616.704 C 164.62 616.384 165.344 616.073 165.95 615.77 L 165.95 620.669 C 164.771 621.175 163.441 621.587 161.959 621.907 C 160.478 622.227 158.811 622.387 156.959 622.387 Z" style="fill: rgb(65, 61, 81); white-space: pre;"/>
  <path d="M 175.432 598.344 C 176.173 597.973 177.006 597.628 177.932 597.308 C 178.858 596.988 179.843 596.71 180.887 596.475 C 181.931 596.239 182.992 596.054 184.07 595.919 C 185.147 595.784 186.191 595.717 187.201 595.717 C 189.592 595.717 191.545 596.045 193.06 596.702 C 194.576 597.359 195.704 598.369 196.445 599.733 C 197.186 601.096 197.556 602.805 197.556 604.859 L 197.556 621.629 L 192.252 621.629 L 192.252 605.567 C 192.252 604.927 192.177 604.295 192.025 603.672 C 191.873 603.049 191.587 602.477 191.166 601.955 C 190.745 601.433 190.139 601.021 189.348 600.718 C 188.557 600.414 187.521 600.263 186.241 600.263 C 185.332 600.263 184.398 600.347 183.438 600.516 C 182.478 600.684 181.578 600.92 180.736 601.223 L 180.736 621.629 L 175.432 621.629 L 175.432 598.344 Z" style="fill: rgb(65, 61, 81); white-space: pre;"/>
  <path d="M 214.516 621.629 L 203.858 596.273 L 209.515 596.273 L 218.203 617.336 L 216.941 617.487 L 225.022 596.273 L 230.528 596.273 L 219.82 621.629 L 214.516 621.629 Z" style="fill: rgb(65, 61, 81); white-space: pre;"/>
  <path d="M 237.387 621.629 L 237.387 596.424 L 242.69 596.424 L 242.741 621.629 L 237.387 621.629 Z M 237.235 592.232 L 237.235 587.433 L 242.893 587.433 L 242.893 592.232 L 237.235 592.232 Z" style="fill: rgb(65, 61, 81); white-space: pre;"/>
  <path d="M 251.836 621.629 L 251.836 598.596 C 252.274 598.327 253.082 597.956 254.26 597.485 C 255.439 597.013 256.836 596.601 258.453 596.247 C 260.069 595.894 261.702 595.717 263.352 595.717 C 264.194 595.717 264.885 595.784 265.423 595.919 C 265.962 596.054 266.417 596.205 266.787 596.374 L 266.787 600.617 C 266.013 600.516 265.204 600.44 264.363 600.389 C 263.521 600.339 262.679 600.339 261.837 600.389 C 260.995 600.44 260.17 600.516 259.362 600.617 C 258.554 600.718 257.813 600.819 257.14 600.92 L 257.14 621.629 L 251.836 621.629 Z" style="fill: rgb(65, 61, 81); white-space: pre;"/>
  <path d="M 282.883 622.387 C 278.774 622.387 275.719 621.225 273.715 618.902 C 271.711 616.578 270.71 613.261 270.71 608.951 C 270.71 604.371 271.745 601.012 273.816 598.874 C 275.887 596.736 278.875 595.666 282.782 595.666 C 285.577 595.666 287.883 596.18 289.702 597.207 C 291.52 598.234 292.867 599.741 293.743 601.728 C 294.618 603.715 295.056 606.122 295.056 608.951 C 295.056 613.227 294.004 616.536 291.899 618.876 C 289.794 621.217 286.789 622.387 282.883 622.387 Z M 282.832 617.891 C 284.55 617.891 285.913 617.512 286.924 616.755 C 287.934 615.997 288.666 614.945 289.121 613.598 C 289.575 612.251 289.803 610.702 289.803 608.951 C 289.803 606.998 289.567 605.365 289.096 604.051 C 288.624 602.738 287.883 601.753 286.873 601.096 C 285.863 600.44 284.516 600.111 282.832 600.111 C 281.148 600.111 279.802 600.465 278.791 601.172 C 277.781 601.879 277.057 602.89 276.619 604.203 C 276.182 605.516 275.963 607.099 275.963 608.951 C 275.963 611.746 276.485 613.935 277.529 615.517 C 278.572 617.1 280.34 617.891 282.832 617.891 Z" style="fill: rgb(65, 61, 81); white-space: pre;"/>
  <path d="M 302.681 598.344 C 303.422 597.973 304.255 597.628 305.181 597.308 C 306.107 596.988 307.092 596.71 308.136 596.475 C 309.18 596.239 310.241 596.054 311.318 595.919 C 312.396 595.784 313.44 595.717 314.45 595.717 C 316.841 595.717 318.794 596.045 320.309 596.702 C 321.825 597.359 322.953 598.369 323.694 599.733 C 324.435 601.096 324.805 602.805 324.805 604.859 L 324.805 621.629 L 319.501 621.629 L 319.501 605.567 C 319.501 604.927 319.425 604.295 319.274 603.672 C 319.122 603.049 318.836 602.477 318.415 601.955 C 317.994 601.433 317.388 601.021 316.597 600.718 C 315.806 600.414 314.77 600.263 313.49 600.263 C 312.581 600.263 311.647 600.347 310.687 600.516 C 309.727 600.684 308.827 600.92 307.985 601.223 L 307.985 621.629 L 302.681 621.629 L 302.681 598.344 Z" style="fill: rgb(65, 61, 81); white-space: pre;"/>
  <path d="M 355.707 604.859 L 355.707 621.629 L 350.403 621.629 L 350.403 605.567 C 350.403 604.927 350.328 604.295 350.176 603.672 C 350.024 603.049 349.738 602.477 349.317 601.955 C 348.896 601.433 348.29 601.021 347.499 600.718 C 346.708 600.414 345.672 600.263 344.393 600.263 C 343.483 600.263 342.574 600.347 341.665 600.516 C 340.756 600.684 339.88 600.92 339.038 601.223 L 339.038 621.629 L 333.735 621.629 L 333.735 598.344 C 334.476 597.973 335.309 597.628 336.235 597.308 C 337.161 596.988 338.146 596.71 339.19 596.475 C 340.234 596.239 341.295 596.054 342.372 595.919 C 343.45 595.784 344.494 595.717 345.504 595.717 C 347.895 595.717 349.831 596.045 351.313 596.702 C 352.794 597.359 353.897 598.369 354.621 599.733 C 355.345 601.096 355.707 602.805 355.707 604.859 Z M 349.646 599.657 C 350.723 598.781 351.91 598.057 353.207 597.485 C 354.503 596.912 355.85 596.475 357.248 596.172 C 358.645 595.868 360.017 595.717 361.364 595.717 C 363.755 595.717 365.691 596.045 367.173 596.702 C 368.655 597.359 369.757 598.369 370.481 599.733 C 371.205 601.096 371.567 602.805 371.567 604.859 L 371.567 621.629 L 366.264 621.629 L 366.264 605.567 C 366.264 604.927 366.188 604.295 366.036 603.672 C 365.885 603.049 365.599 602.477 365.178 601.955 C 364.757 601.433 364.151 601.021 363.359 600.718 C 362.568 600.414 361.533 600.263 360.253 600.263 C 359.344 600.263 358.435 600.398 357.525 600.667 C 356.616 600.936 355.741 601.357 354.899 601.93 L 349.646 599.657 Z" style="fill: rgb(65, 61, 81); white-space: pre;"/>
  <path d="M 391.407 622.387 C 388.915 622.387 386.751 621.882 384.916 620.871 C 383.081 619.861 381.666 618.363 380.673 616.376 C 379.68 614.389 379.183 611.965 379.183 609.102 C 379.183 604.691 380.218 601.349 382.289 599.076 C 384.36 596.803 387.248 595.666 390.952 595.666 C 393.68 595.666 395.885 596.273 397.569 597.485 C 399.253 598.697 400.473 600.389 401.231 602.561 C 401.989 604.733 402.351 607.267 402.317 610.163 L 382.365 610.163 L 382.214 606.223 L 398.276 606.223 L 397.013 607.486 C 396.912 604.893 396.374 602.999 395.397 601.804 C 394.42 600.608 392.888 600.01 390.801 600.01 C 389.454 600.01 388.309 600.288 387.366 600.844 C 386.423 601.399 385.707 602.342 385.219 603.672 C 384.731 605.003 384.487 606.829 384.487 609.153 C 384.487 611.982 385.143 614.128 386.457 615.593 C 387.77 617.058 389.706 617.79 392.265 617.79 C 393.41 617.79 394.479 617.689 395.473 617.487 C 396.466 617.285 397.384 617.024 398.226 616.704 C 399.067 616.384 399.791 616.073 400.398 615.77 L 400.398 620.669 C 399.219 621.175 397.889 621.587 396.407 621.907 C 394.926 622.227 393.259 622.387 391.407 622.387 Z" style="fill: rgb(65, 61, 81); white-space: pre;"/>
  <path d="M 409.896 598.344 C 410.636 597.973 411.47 597.628 412.396 597.308 C 413.322 596.988 414.307 596.71 415.351 596.475 C 416.395 596.239 417.455 596.054 418.533 595.919 C 419.611 595.784 420.654 595.717 421.665 595.717 C 424.056 595.717 426.009 596.045 427.524 596.702 C 429.039 597.359 430.167 598.369 430.908 599.733 C 431.649 601.096 432.019 602.805 432.019 604.859 L 432.019 621.629 L 426.716 621.629 L 426.716 605.567 C 426.716 604.927 426.64 604.295 426.488 603.672 C 426.337 603.049 426.051 602.477 425.63 601.955 C 425.209 601.433 424.603 601.021 423.811 600.718 C 423.02 600.414 421.985 600.263 420.705 600.263 C 419.796 600.263 418.861 600.347 417.902 600.516 C 416.942 600.684 416.041 600.92 415.199 601.223 L 415.199 621.629 L 409.896 621.629 L 409.896 598.344 Z" style="fill: rgb(65, 61, 81); white-space: pre;"/>
  <path d="M 449.991 622.286 C 447.701 622.286 445.891 621.68 444.561 620.467 C 443.231 619.255 442.566 617.47 442.566 615.113 L 442.566 600.667 L 438.474 600.667 L 438.474 596.273 L 442.566 596.273 L 442.566 589.201 L 448.021 589.201 L 448.021 596.273 L 454.183 596.273 L 454.183 600.667 L 448.021 600.667 L 448.021 614.052 C 448.021 615.231 448.231 616.115 448.652 616.704 C 449.073 617.294 449.856 617.588 451.001 617.588 C 451.573 617.588 452.146 617.512 452.718 617.361 C 453.291 617.209 453.779 617.016 454.183 616.78 L 454.183 621.478 C 453.577 621.747 452.895 621.949 452.137 622.084 C 451.38 622.218 450.664 622.286 449.991 622.286 Z" style="fill: rgb(65, 61, 81); white-space: pre;"/>
  <path d="M 498.767 621.629 L 482.906 602.536 C 482.166 601.627 481.433 600.549 480.709 599.303 C 479.985 598.057 479.623 596.828 479.623 595.616 C 479.623 594.134 480.027 592.779 480.835 591.55 C 481.644 590.321 482.73 589.336 484.093 588.595 C 485.457 587.854 486.981 587.484 488.665 587.484 C 490.348 587.484 491.838 587.82 493.135 588.494 C 494.431 589.167 495.458 590.093 496.216 591.272 C 496.974 592.451 497.353 593.764 497.353 595.212 C 497.353 596.592 497.041 597.779 496.418 598.773 C 495.795 599.766 494.928 600.675 493.817 601.5 C 492.706 602.325 491.392 603.193 489.877 604.102 L 487.654 601.021 C 489.001 600.28 490.012 599.606 490.685 599 C 491.359 598.394 491.805 597.813 492.024 597.258 C 492.243 596.702 492.352 596.155 492.352 595.616 C 492.352 594.606 492.007 593.781 491.316 593.141 C 490.626 592.501 489.759 592.181 488.715 592.181 C 487.671 592.181 486.787 592.526 486.063 593.217 C 485.339 593.907 484.977 594.74 484.977 595.717 C 484.977 596.155 485.154 596.677 485.508 597.283 C 485.861 597.889 486.265 598.503 486.72 599.126 C 487.175 599.749 487.604 600.297 488.008 600.768 L 505.434 621.629 L 498.767 621.629 Z M 486.947 622.134 C 485.129 622.134 483.546 621.848 482.199 621.276 C 480.852 620.703 479.749 619.937 478.891 618.977 C 478.032 618.018 477.384 616.982 476.946 615.871 C 476.508 614.76 476.289 613.682 476.289 612.638 C 476.289 611.527 476.517 610.374 476.971 609.178 C 477.426 607.983 478.217 606.796 479.345 605.617 C 480.473 604.439 482.031 603.344 484.018 602.334 L 487.351 605.314 C 485.903 606.122 484.784 606.956 483.992 607.814 C 483.201 608.673 482.654 609.481 482.351 610.239 C 482.048 610.997 481.896 611.678 481.896 612.285 C 481.896 612.689 481.972 613.185 482.123 613.775 C 482.275 614.364 482.553 614.953 482.957 615.543 C 483.361 616.132 483.95 616.62 484.725 617.007 C 485.499 617.395 486.493 617.588 487.705 617.588 C 489.052 617.588 490.332 617.226 491.544 616.502 C 492.756 615.778 493.733 615.012 494.473 614.204 L 497.302 617.588 C 496.561 618.396 495.694 619.146 494.701 619.836 C 493.707 620.526 492.562 621.082 491.266 621.503 C 489.97 621.924 488.53 622.134 486.947 622.134 Z M 496.645 611.83 C 497.05 611.19 497.386 610.525 497.656 609.835 C 497.925 609.144 498.144 608.513 498.312 607.941 C 498.481 607.368 498.599 606.947 498.666 606.678 L 502.959 606.678 C 502.757 607.823 502.362 609.144 501.772 610.643 C 501.183 612.141 500.451 613.581 499.575 614.962 L 496.645 611.83 Z" style="fill: rgb(65, 61, 81); white-space: pre;"/>
  <path d="M 535.468 622.387 C 533.65 622.387 532.109 622.193 530.846 621.806 C 529.583 621.419 528.346 620.939 527.134 620.366 L 527.134 615.366 C 528.009 615.905 528.868 616.384 529.71 616.805 C 530.552 617.226 531.436 617.555 532.362 617.79 C 533.288 618.026 534.323 618.144 535.468 618.144 C 536.916 618.144 538.052 617.841 538.877 617.235 C 539.703 616.629 540.115 615.871 540.115 614.962 C 540.115 614.187 539.854 613.581 539.332 613.143 C 538.81 612.706 538.145 612.335 537.337 612.032 C 536.529 611.729 535.687 611.426 534.811 611.123 C 533.902 610.887 532.993 610.609 532.084 610.289 C 531.175 609.969 530.341 609.532 529.583 608.976 C 528.826 608.42 528.22 607.705 527.765 606.829 C 527.31 605.954 527.083 604.876 527.083 603.597 C 527.083 602.182 527.369 600.979 527.942 599.985 C 528.514 598.992 529.264 598.184 530.19 597.561 C 531.116 596.938 532.143 596.483 533.271 596.197 C 534.399 595.911 535.502 595.767 536.579 595.767 C 538.364 595.801 539.82 596.02 540.948 596.424 C 542.077 596.828 543.179 597.316 544.257 597.889 L 544.307 602.435 C 543.095 601.795 541.95 601.24 540.873 600.768 C 539.795 600.297 538.549 600.061 537.135 600.061 C 535.822 600.061 534.727 600.305 533.852 600.793 C 532.976 601.282 532.538 601.997 532.538 602.94 C 532.538 603.748 532.782 604.388 533.271 604.859 C 533.759 605.331 534.399 605.701 535.19 605.971 C 535.982 606.24 536.832 606.509 537.741 606.779 C 538.583 607.048 539.458 607.326 540.368 607.612 C 541.277 607.899 542.119 608.311 542.893 608.85 C 543.668 609.389 544.299 610.096 544.787 610.971 C 545.276 611.847 545.52 612.992 545.52 614.406 C 545.486 616.292 544.989 617.824 544.03 619.003 C 543.07 620.181 541.816 621.04 540.267 621.579 C 538.718 622.117 537.118 622.387 535.468 622.387 Z" style="fill: rgb(65, 61, 81); white-space: pre;"/>
  <path d="M 564.416 622.387 C 562.092 622.387 560.097 622.008 558.43 621.25 C 556.763 620.493 555.475 619.356 554.566 617.841 C 553.657 616.325 553.202 614.44 553.202 612.184 L 553.202 596.273 L 558.506 596.273 L 558.506 611.426 C 558.506 613.581 558.986 615.172 559.945 616.199 C 560.905 617.226 562.395 617.74 564.416 617.74 C 566.436 617.74 567.926 617.226 568.886 616.199 C 569.846 615.172 570.325 613.581 570.325 611.426 L 570.325 596.273 L 575.427 596.273 L 575.427 612.184 C 575.427 615.551 574.459 618.093 572.523 619.811 C 570.586 621.528 567.884 622.387 564.416 622.387 Z" style="fill: rgb(65, 61, 81); white-space: pre;"/>
  <path d="M 591.671 622.387 C 589.853 622.387 588.312 622.193 587.049 621.806 C 585.787 621.419 584.549 620.939 583.337 620.366 L 583.337 615.366 C 584.212 615.905 585.071 616.384 585.913 616.805 C 586.755 617.226 587.639 617.555 588.565 617.79 C 589.491 618.026 590.526 618.144 591.671 618.144 C 593.119 618.144 594.256 617.841 595.081 617.235 C 595.906 616.629 596.318 615.871 596.318 614.962 C 596.318 614.187 596.057 613.581 595.535 613.143 C 595.013 612.706 594.348 612.335 593.54 612.032 C 592.732 611.729 591.89 611.426 591.015 611.123 C 590.105 610.887 589.196 610.609 588.287 610.289 C 587.378 609.969 586.544 609.532 585.787 608.976 C 585.029 608.42 584.423 607.705 583.968 606.829 C 583.514 605.954 583.286 604.876 583.286 603.597 C 583.286 602.182 583.573 600.979 584.145 599.985 C 584.718 598.992 585.467 598.184 586.393 597.561 C 587.319 596.938 588.346 596.483 589.474 596.197 C 590.602 595.911 591.705 595.767 592.782 595.767 C 594.567 595.801 596.024 596.02 597.152 596.424 C 598.28 596.828 599.383 597.316 600.46 597.889 L 600.511 602.435 C 599.298 601.795 598.153 601.24 597.076 600.768 C 595.998 600.297 594.752 600.061 593.338 600.061 C 592.025 600.061 590.93 600.305 590.055 600.793 C 589.179 601.282 588.742 601.997 588.742 602.94 C 588.742 603.748 588.986 604.388 589.474 604.859 C 589.962 605.331 590.602 605.701 591.393 605.971 C 592.185 606.24 593.035 606.509 593.944 606.779 C 594.786 607.048 595.662 607.326 596.571 607.612 C 597.48 607.899 598.322 608.311 599.096 608.85 C 599.871 609.389 600.502 610.096 600.991 610.971 C 601.479 611.847 601.723 612.992 601.723 614.406 C 601.689 616.292 601.193 617.824 600.233 619.003 C 599.273 620.181 598.019 621.04 596.47 621.579 C 594.921 622.117 593.321 622.387 591.671 622.387 Z" style="fill: rgb(65, 61, 81); white-space: pre;"/>
  <path d="M 618.447 622.286 C 616.157 622.286 614.347 621.68 613.017 620.467 C 611.687 619.255 611.022 617.47 611.022 615.113 L 611.022 600.667 L 606.93 600.667 L 606.93 596.273 L 611.022 596.273 L 611.022 589.201 L 616.477 589.201 L 616.477 596.273 L 622.639 596.273 L 622.639 600.667 L 616.477 600.667 L 616.477 614.052 C 616.477 615.231 616.687 616.115 617.108 616.704 C 617.529 617.294 618.312 617.588 619.457 617.588 C 620.03 617.588 620.602 617.512 621.175 617.361 C 621.747 617.209 622.235 617.016 622.639 616.78 L 622.639 621.478 C 622.033 621.747 621.351 621.949 620.594 622.084 C 619.836 622.218 619.12 622.286 618.447 622.286 Z" style="fill: rgb(65, 61, 81); white-space: pre;"/>
  <path d="M 639.452 622.387 C 638.138 622.387 636.876 622.261 635.663 622.008 C 634.451 621.755 633.348 621.326 632.355 620.72 C 631.362 620.114 630.57 619.28 629.981 618.22 C 629.392 617.159 629.097 615.837 629.097 614.255 C 629.097 612.369 629.467 610.82 630.208 609.607 C 630.949 608.395 632.01 607.486 633.39 606.88 C 634.771 606.274 636.421 605.971 638.341 605.971 C 639.62 605.971 640.773 606.072 641.801 606.274 C 642.828 606.476 643.754 606.754 644.579 607.107 C 645.404 607.461 646.102 607.856 646.675 608.294 L 647.23 611.779 C 646.49 611.274 645.496 610.845 644.25 610.491 C 643.004 610.138 641.657 609.961 640.209 609.961 C 638.29 609.961 636.834 610.298 635.84 610.971 C 634.847 611.645 634.35 612.655 634.35 614.002 C 634.35 615.012 634.636 615.829 635.209 616.452 C 635.781 617.075 636.497 617.529 637.356 617.816 C 638.214 618.102 639.115 618.245 640.058 618.245 C 642.045 618.245 643.509 618.11 644.452 617.841 C 645.395 617.571 645.867 616.948 645.867 615.972 L 645.867 605.365 C 645.867 603.58 645.328 602.275 644.25 601.45 C 643.173 600.625 641.641 600.212 639.654 600.212 C 638.24 600.212 636.775 600.44 635.259 600.894 C 633.744 601.349 632.498 601.98 631.522 602.789 L 631.522 597.838 C 632.464 597.199 633.837 596.685 635.638 596.298 C 637.44 595.911 639.3 595.717 641.22 595.717 C 642.163 595.717 643.114 595.81 644.074 595.995 C 645.033 596.18 645.934 596.466 646.776 596.853 C 647.618 597.241 648.367 597.763 649.024 598.419 C 649.68 599.076 650.194 599.876 650.564 600.819 C 650.935 601.761 651.12 602.873 651.12 604.152 L 651.12 616.275 C 651.12 617.925 650.606 619.196 649.579 620.089 C 648.552 620.981 647.163 621.587 645.412 621.907 C 643.661 622.227 641.674 622.387 639.452 622.387 Z" style="fill: rgb(65, 61, 81); white-space: pre;"/>
  <path d="M 660.204 621.629 L 660.204 596.424 L 665.508 596.424 L 665.558 621.629 L 660.204 621.629 Z M 660.053 592.232 L 660.053 587.433 L 665.71 587.433 L 665.71 592.232 L 660.053 592.232 Z" style="fill: rgb(65, 61, 81); white-space: pre;"/>
  <path d="M 674.639 598.344 C 675.379 597.973 676.213 597.628 677.139 597.308 C 678.065 596.988 679.05 596.71 680.094 596.475 C 681.138 596.239 682.198 596.054 683.276 595.919 C 684.353 595.784 685.397 595.717 686.408 595.717 C 688.798 595.717 690.752 596.045 692.267 596.702 C 693.782 597.359 694.91 598.369 695.651 599.733 C 696.392 601.096 696.762 602.805 696.762 604.859 L 696.762 621.629 L 691.459 621.629 L 691.459 605.567 C 691.459 604.927 691.383 604.295 691.231 603.672 C 691.08 603.049 690.794 602.477 690.373 601.955 C 689.952 601.433 689.346 601.021 688.554 600.718 C 687.763 600.414 686.728 600.263 685.448 600.263 C 684.539 600.263 683.604 600.347 682.645 600.516 C 681.685 600.684 680.784 600.92 679.942 601.223 L 679.942 621.629 L 674.639 621.629 L 674.639 598.344 Z" style="fill: rgb(65, 61, 81); white-space: pre;"/>
  <path d="M 714.885 622.387 C 713.572 622.387 712.309 622.261 711.097 622.008 C 709.885 621.755 708.782 621.326 707.788 620.72 C 706.795 620.114 706.004 619.28 705.414 618.22 C 704.825 617.159 704.53 615.837 704.53 614.255 C 704.53 612.369 704.901 610.82 705.642 609.607 C 706.382 608.395 707.443 607.486 708.824 606.88 C 710.204 606.274 711.854 605.971 713.774 605.971 C 715.054 605.971 716.207 606.072 717.234 606.274 C 718.261 606.476 719.187 606.754 720.012 607.107 C 720.837 607.461 721.536 607.856 722.108 608.294 L 722.664 611.779 C 721.923 611.274 720.93 610.845 719.684 610.491 C 718.438 610.138 717.091 609.961 715.643 609.961 C 713.723 609.961 712.267 610.298 711.274 610.971 C 710.28 611.645 709.784 612.655 709.784 614.002 C 709.784 615.012 710.07 615.829 710.642 616.452 C 711.215 617.075 711.93 617.529 712.789 617.816 C 713.648 618.102 714.548 618.245 715.491 618.245 C 717.478 618.245 718.943 618.11 719.886 617.841 C 720.829 617.571 721.3 616.948 721.3 615.972 L 721.3 605.365 C 721.3 603.58 720.761 602.275 719.684 601.45 C 718.606 600.625 717.074 600.212 715.087 600.212 C 713.673 600.212 712.208 600.44 710.693 600.894 C 709.177 601.349 707.931 601.98 706.955 602.789 L 706.955 597.838 C 707.898 597.199 709.27 596.685 711.072 596.298 C 712.873 595.911 714.734 595.717 716.653 595.717 C 717.596 595.717 718.547 595.81 719.507 595.995 C 720.467 596.18 721.367 596.466 722.209 596.853 C 723.051 597.241 723.8 597.763 724.457 598.419 C 725.114 599.076 725.627 599.876 725.998 600.819 C 726.368 601.761 726.553 602.873 726.553 604.152 L 726.553 616.275 C 726.553 617.925 726.04 619.196 725.013 620.089 C 723.986 620.981 722.597 621.587 720.845 621.907 C 719.094 622.227 717.108 622.387 714.885 622.387 Z" style="fill: rgb(65, 61, 81); white-space: pre;"/>
  <path d="M 746.194 622.387 C 744.814 622.387 743.483 622.303 742.204 622.134 C 740.924 621.966 739.779 621.671 738.769 621.25 C 737.759 620.829 736.959 620.248 736.37 619.508 C 735.781 618.767 735.486 617.807 735.486 616.629 L 735.486 586.12 L 740.739 586.12 L 740.739 599.808 L 739.375 598.091 C 740.015 597.586 740.815 597.165 741.775 596.828 C 742.734 596.491 743.711 596.222 744.704 596.02 C 745.698 595.818 746.548 595.717 747.255 595.717 C 751.094 595.717 753.973 596.853 755.892 599.126 C 757.812 601.399 758.771 604.59 758.771 608.698 C 758.771 611.46 758.409 613.733 757.685 615.517 C 756.961 617.302 756.002 618.691 754.806 619.684 C 753.611 620.678 752.264 621.377 750.765 621.781 C 749.267 622.185 747.743 622.387 746.194 622.387 Z M 745.942 617.79 C 747.928 617.79 749.461 617.386 750.538 616.578 C 751.616 615.77 752.357 614.701 752.761 613.371 C 753.165 612.04 753.367 610.55 753.367 608.9 C 753.367 607.015 753.114 605.432 752.609 604.152 C 752.104 602.873 751.346 601.896 750.336 601.223 C 749.326 600.549 748.029 600.212 746.447 600.212 C 745.571 600.212 744.62 600.33 743.593 600.566 C 742.566 600.802 741.615 601.172 740.739 601.677 L 740.739 615.315 C 740.739 615.989 741.008 616.511 741.547 616.881 C 742.086 617.251 742.751 617.496 743.542 617.613 C 744.334 617.731 745.133 617.79 745.942 617.79 Z" style="fill: rgb(65, 61, 81); white-space: pre;"/>
  <path d="M 766.539 621.629 L 766.539 596.424 L 771.842 596.424 L 771.893 621.629 L 766.539 621.629 Z M 766.387 592.232 L 766.387 587.433 L 772.044 587.433 L 772.044 592.232 L 766.387 592.232 Z" style="fill: rgb(65, 61, 81); white-space: pre;"/>
  <path d="M 786.241 621.629 L 780.988 621.629 L 780.988 586.675 L 786.241 586.675 L 786.241 621.629 Z" style="fill: rgb(65, 61, 81); white-space: pre;"/>
  <path d="M 795.315 621.629 L 795.315 596.424 L 800.619 596.424 L 800.669 621.629 L 795.315 621.629 Z M 795.164 592.232 L 795.164 587.433 L 800.821 587.433 L 800.821 592.232 L 795.164 592.232 Z" style="fill: rgb(65, 61, 81); white-space: pre;"/>
  <path d="M 818.791 622.286 C 816.501 622.286 814.691 621.68 813.361 620.467 C 812.031 619.255 811.366 617.47 811.366 615.113 L 811.366 600.667 L 807.275 600.667 L 807.275 596.273 L 811.366 596.273 L 811.366 589.201 L 816.821 589.201 L 816.821 596.273 L 822.984 596.273 L 822.984 600.667 L 816.821 600.667 L 816.821 614.052 C 816.821 615.231 817.032 616.115 817.453 616.704 C 817.874 617.294 818.657 617.588 819.801 617.588 C 820.374 617.588 820.946 617.512 821.519 617.361 C 822.091 617.209 822.58 617.016 822.984 616.78 L 822.984 621.478 C 822.377 621.747 821.696 621.949 820.938 622.084 C 820.18 622.218 819.465 622.286 818.791 622.286 Z" style="fill: rgb(65, 61, 81); white-space: pre;"/>
  <path d="M 834.543 631.428 C 833.903 631.428 833.297 631.369 832.724 631.251 C 832.152 631.134 831.647 630.991 831.209 630.822 L 831.209 626.276 C 831.613 626.411 832.017 626.529 832.421 626.63 C 832.826 626.731 833.263 626.781 833.735 626.781 C 834.745 626.781 835.587 626.512 836.26 625.973 C 836.934 625.434 837.506 624.66 837.978 623.65 C 838.449 622.639 838.836 621.427 839.139 620.013 L 839.24 622.639 L 828.431 596.273 L 834.442 596.273 L 841.766 616.275 L 841.008 616.275 L 848.231 596.273 L 853.737 596.273 L 843.281 623.195 C 842.439 625.35 841.53 627.025 840.554 628.221 C 839.577 629.416 838.575 630.25 837.548 630.721 C 836.521 631.193 835.519 631.428 834.543 631.428 Z" style="fill: rgb(65, 61, 81); white-space: pre;"/>
</svg>