<?xml version="1.0" encoding="utf-8"?>
<svg viewBox="0 0 1000 1000" style="enable-background:new 0 0 1000 1000;" xmlns="http://www.w3.org/2000/svg">
  <defs>
    <style type="text/css">
	.st0{opacity:0.7;fill:#FFFFFF;}
	.st1{fill:#413D51;}
	.st2{fill:#8FE3F9;}
	.st3{fill:#B2EBF9;}
	.st4{fill:#A4E0EA;}
	.st5{fill:#7AD1E5;}
	.st6{fill:none;stroke:#413D51;stroke-width:16;stroke-linecap:round;stroke-linejoin:round;stroke-miterlimit:10;}
	.st7{fill:#F7E8AD;}
	.st8{fill:#F7D6A1;}
	.st9{fill:#EFCA92;}
	.st10{fill:#FFFFFF;}
	.st11{opacity:0.89;fill:#EFCA92;}
	.st12{fill:none;stroke:#413D51;stroke-width:8;stroke-linecap:round;stroke-linejoin:round;stroke-miterlimit:10;}
	.st13{opacity:0.31;fill:none;stroke:#72C8D6;stroke-width:8;stroke-linecap:round;stroke-linejoin:round;stroke-miterlimit:10;}
</style>
  </defs>
  <rect class="st0" width="1000" height="1000" style="opacity: 1;"/>
  <g transform="matrix(1, 0, 0, 1, 0, -41)">
    <ellipse id="XMLID_2_" class="st2" cx="501.8" cy="487.5" rx="228" ry="205.8"/>
    <ellipse id="XMLID_188_" class="st2" cx="501.8" cy="487.5" rx="228" ry="205.8"/>
    <path id="XMLID_193_" class="st3" d="M507.8,689.3c52.1,0,100.1-15.3,138.5-41l-10.5-24.7c-22-51.9-74.2-85.8-132.1-85.8l0,0 c-57.9,0-110.1,33.9-132.1,85.8l-8.6,20.4C402.3,672.3,452.8,689.3,507.8,689.3z"/>
    <path id="XMLID_189_" class="st4" d="M501.7,470.3l-43.6,64l32.9,43.8c5.4,7.2,16.3,7.2,21.7,0l32.6-43.8L501.7,470.3z"/>
    <path id="XMLID_192_" class="st5" d="M501.8,669.3c-121.5,0-220.7-85.7-227.6-193.8c-0.3,4-0.4,8-0.4,12 c0,113.6,102.1,205.8,228,205.8s228-92.1,228-205.8c0-4-0.1-8-0.4-12C722.5,583.6,623.2,669.3,501.8,669.3z"/>
    <path id="XMLID_76_" class="st4" d="M638.6,628.1c-38.1,25.8-85.5,41.2-136.8,41.2c-50,0-96.2-14.5-133.7-39.1l-5,12.3 c39.4,29.2,89.8,46.8,144.8,46.8c49.7,0,95.7-14.4,133.2-38.8c1.8-1.2,3.5-2.5,5.3-3.8L638.6,628.1z"/>
    <path id="XMLID_186_" class="st5" d="M268.2,488.2c6.4,13.1,15,25.3,25.8,36.2c52.3,52.3,137.2,52.3,189.5,0 c43.8-43.8,50.9-110.3,21.5-161.5"/>
    <path id="XMLID_185_" class="st5" d="M729,503.8c-24,36.1-65,59.8-111.6,59.8c-74,0-134-60-134-134c0-33,11.9-63.2,31.7-86.6"/>
    <ellipse id="XMLID_75_" class="st6" cx="501.8" cy="487.5" rx="228" ry="205.8"/>
    <polygon id="XMLID_74_" class="st1" points="501.7,442.3 458.1,506.3 501.9,564.6 545.4,506.3 &#9;"/>
    <polygon id="XMLID_73_" class="st6" points="501.7,442.3 458.1,506.3 501.9,564.6 545.4,506.3 &#9;"/>
    <path id="XMLID_72_" class="st1" d="M600.7,303.9c-30-14-64.1-21.9-100-21.9s-70,7.9-100,21.9v140.1h200V303.9z"/>
    <g id="XMLID_58_">
      <path id="XMLID_71_" class="st1" d="M613.5,317.9l108.7-3.3c-15.7,39.3-17.8,98.4-4.1,163c-17.4,36.8-54.4,62.9-97.9,64.2l0,0 c-61.8,1.9-113.5-46.7-115.3-108.6l0,0C503,371.4,551.6,319.8,613.5,317.9z"/>
      <path id="XMLID_70_" class="st6" d="M613.5,317.9l108.7-3.3c-15.7,39.3-17.8,98.4-4.1,163c-17.4,36.8-54.4,62.9-97.9,64.2l0,0 c-61.8,1.9-113.5-46.7-115.3-108.6l0,0C503,371.4,551.6,319.8,613.5,317.9z"/>
      <circle id="XMLID_69_" class="st7" cx="617.4" cy="429.7" r="112"/>
      <circle id="XMLID_5_" class="st7" cx="617.4" cy="429.7" r="112"/>
      <path id="XMLID_86_" class="st8" d="M696.6,350.5c-21.5-21.5-49.7-32.4-77.9-32.8c21.2,4.1,41.5,14.3,57.9,30.8 c43.7,43.7,43.7,114.6,0,158.4c-22.2,22.2-51.4,33.1-80.4,32.8c35.3,6.8,73.1-3.5,100.4-30.8C740.3,465.1,740.3,394.2,696.6,350.5 z"/>
      <ellipse id="XMLID_3_" transform="matrix(0.7071 -0.7071 0.7071 0.7071 -130.8246 543.5441)" class="st0" cx="590.7" cy="429.7" rx="84" ry="84.6"/>
      <path id="XMLID_12_" class="st9" d="M711.4,376.6c-3.1-4-9.1-15-12.8-18.7c-44-43.4-114.9-43-158.3,1.1 c-8.6,8.7-15.5,18.5-20.6,29C581.4,366.3,649,371.5,711.4,376.6z"/>
      <circle id="XMLID_68_" class="st6" cx="617.4" cy="429.7" r="112"/>
      <circle id="XMLID_67_" class="st6" cx="617.4" cy="429.7" r="112"/>
      <path id="XMLID_66_" class="st1" d="M706.7,362.1c-3.1-4-6.4-7.9-10.1-11.6c-43.7-43.7-114.6-43.7-158.4,0 c-8.7,8.7-15.6,18.4-20.8,28.8C579.4,358.1,644.3,356.5,706.7,362.1z"/>
      <circle id="XMLID_57_" class="st1" cx="562.9" cy="438.1" r="42"/>
      <circle id="XMLID_56_" class="st10" cx="539.1" cy="438.4" r="14"/>
    </g>
    <g id="XMLID_26_">
      <path id="XMLID_89_" class="st1" d="M388.8,317.9L280,314.6c15.7,39.3,17.8,98.4,4.1,163c17.4,36.8,54.4,62.9,97.9,64.2l0,0 c61.8,1.9,113.5-46.7,115.3-108.6l0,0C499.2,371.4,450.6,319.8,388.8,317.9z"/>
      <path id="XMLID_88_" class="st6" d="M388.8,317.9L280,314.6c15.7,39.3,17.8,98.4,4.1,163c17.4,36.8,54.4,62.9,97.9,64.2l0,0 c61.8,1.9,113.5-46.7,115.3-108.6l0,0C499.2,371.4,450.6,319.8,388.8,317.9z"/>
      <circle id="XMLID_87_" class="st7" cx="384.8" cy="429.7" r="112"/>
      <circle id="XMLID_84_" class="st7" cx="384.8" cy="429.7" r="112"/>
      <path id="XMLID_65_" class="st8" d="M305.6,350.5c21.5-21.5,49.7-32.4,77.9-32.8c-21.2,4.1-41.5,14.3-57.9,30.8 c-43.7,43.7-43.7,114.6,0,158.4c22.2,22.2,51.4,33.1,80.4,32.8c-35.3,6.8-73.1-3.5-100.4-30.8 C261.9,465.1,261.9,394.2,305.6,350.5z"/>
      <ellipse id="XMLID_64_" transform="matrix(0.7071 -0.7071 0.7071 0.7071 -183.3021 416.8521)" class="st0" cx="411.5" cy="429.7" rx="84.6" ry="84"/>
      <path id="XMLID_63_" class="st11" d="M290.9,376.6c3.1-4,9.1-15,12.8-18.7c44-43.4,114.9-43,158.3,1.1c8.6,8.7,15.5,18.5,20.6,29 C420.8,366.3,353.2,371.5,290.9,376.6z"/>
      <circle id="XMLID_62_" class="st6" cx="384.8" cy="429.7" r="112"/>
      <circle id="XMLID_61_" class="st6" cx="384.8" cy="429.7" r="112"/>
      <path id="XMLID_60_" class="st1" d="M295.6,362.1c3.1-4,6.4-7.9,10.1-11.6c43.7-43.7,114.6-43.7,158.4,0 c8.7,8.7,15.6,18.4,20.8,28.8C422.9,358.1,357.9,356.5,295.6,362.1z"/>
      <circle id="XMLID_59_" class="st1" cx="439.4" cy="438.1" r="42"/>
      <circle id="XMLID_37_" class="st10" cx="463.2" cy="438.4" r="14"/>
    </g>
    <path id="XMLID_19_" class="st1" d="M447.9,718.3L447.9,718.3c-8.8,0-16-7.2-16-16v-18c0-8.8,7.2-16,16-16h0c8.8,0,16,7.2,16,16v18 C463.9,711.1,456.8,718.3,447.9,718.3z"/>
    <path id="XMLID_17_" class="st1" d="M415.9,718.3L415.9,718.3c-8.8,0-16-7.2-16-16v-18c0-8.8,7.2-16,16-16h0c8.8,0,16,7.2,16,16v18 C431.9,711.1,424.8,718.3,415.9,718.3z"/>
    <path id="XMLID_16_" class="st1" d="M479.7,718.3L479.7,718.3c-8.8,0-16-7.2-16-16v-18c0-8.8,7.2-16,16-16h0c8.8,0,16,7.2,16,16v18 C495.7,711.1,488.5,718.3,479.7,718.3z"/>
    <path id="XMLID_15_" class="st1" d="M521.9,718.3L521.9,718.3c-8.8,0-16-7.2-16-16v-18c0-8.8,7.2-16,16-16h0c8.8,0,16,7.2,16,16v18 C537.9,711.1,530.7,718.3,521.9,718.3z"/>
    <path id="XMLID_14_" class="st1" d="M553.7,718.3L553.7,718.3c-8.8,0-16-7.2-16-16v-18c0-8.8,7.2-16,16-16h0c8.8,0,16,7.2,16,16v18 C569.7,711.1,562.5,718.3,553.7,718.3z"/>
    <path id="XMLID_13_" class="st1" d="M585.7,718.3L585.7,718.3c-8.8,0-16-7.2-16-16v-18c0-8.8,7.2-16,16-16h0c8.8,0,16,7.2,16,16v18 C601.7,711.1,594.5,718.3,585.7,718.3z"/>
    <path id="XMLID_11_" class="st12" d="M491.9,587.6c0,8.4-6.8,15.2-15.2,15.2c-8.4,0-15.2-6.8-15.2-15.2"/>
    <path id="XMLID_9_" class="st12" d="M538.4,587.6c0,8.4-6.8,15.2-15.2,15.2c-8.4,0-15.2-6.8-15.2-15.2"/>
    <path id="XMLID_10_" class="st13" d="M323,548.8c-2.2,4.7-7.7,6.8-12.5,4.6s-6.8-7.7-4.6-12.5"/>
    <path id="XMLID_1_" class="st13" d="M352.8,564.3c-2.2,4.7-7.7,6.8-12.5,4.6c-4.7-2.2-6.8-7.7-4.6-12.5"/>
    <path id="XMLID_78_" class="st13" d="M335.5,576.2c-2.2,4.7-7.7,6.8-12.5,4.6c-4.7-2.2-6.8-7.7-4.6-12.5"/>
    <path id="XMLID_77_" class="st13" d="M361.7,596.1c-2.2,4.7-7.7,6.8-12.5,4.6c-4.7-2.2-6.8-7.7-4.6-12.5"/>
    <path id="XMLID_79_" class="st13" d="M381.7,578.1c-2.2,4.7-7.7,6.8-12.5,4.6c-4.7-2.2-6.8-7.7-4.6-12.5"/>
    <path id="XMLID_85_" class="st13" d="M683.7,550.8c2.2,4.7,7.7,6.8,12.5,4.6s6.8-7.7,4.6-12.5"/>
    <path id="XMLID_83_" class="st13" d="M654,566.3c2.2,4.7,7.7,6.8,12.5,4.6c4.7-2.2,6.8-7.7,4.6-12.5"/>
    <path id="XMLID_82_" class="st13" d="M671.2,578.2c2.2,4.7,7.7,6.8,12.5,4.6c4.7-2.2,6.8-7.7,4.6-12.5"/>
    <path id="XMLID_81_" class="st13" d="M645.1,598.1c2.2,4.7,7.7,6.8,12.5,4.6c4.7-2.2,6.8-7.7,4.6-12.5"/>
    <path id="XMLID_80_" class="st13" d="M625.1,580.1c2.2,4.7,7.7,6.8,12.5,4.6c4.7-2.2,6.8-7.7,4.6-12.5"/>
    <path id="XMLID_8_" class="st12" d="M468.7,624.1c0,8.4-6.8,15.2-15.2,15.2c-8.4,0-15.2-6.8-15.2-15.2"/>
    <path id="XMLID_7_" class="st12" d="M515.2,624.1c0,8.4-6.8,15.2-15.2,15.2s-15.2-6.8-15.2-15.2"/>
    <path id="XMLID_6_" class="st12" d="M561.7,624.1c0,8.4-6.8,15.2-15.2,15.2c-8.4,0-15.2-6.8-15.2-15.2"/>
  </g>
  <path d="M 162.934 740.709 L 149.584 740.709 Q 147.893 740.709 147.136 739.952 Q 146.38 739.196 146.38 737.505 L 146.38 679.833 Q 146.38 678.142 147.136 677.385 Q 147.893 676.629 149.584 676.629 L 158.84 676.629 Q 160.531 676.629 161.732 677.163 Q 162.934 677.697 164.091 679.032 L 181.357 698.79 L 181.357 679.833 Q 181.357 678.142 182.113 677.385 Q 182.87 676.629 184.561 676.629 L 197.911 676.629 Q 199.602 676.629 200.358 677.385 Q 201.115 678.142 201.115 679.833 L 201.115 737.505 Q 201.115 739.196 200.358 739.952 Q 199.602 740.709 197.911 740.709 L 184.561 740.709 Q 182.87 740.709 182.113 739.952 Q 181.357 739.196 181.357 737.505 L 181.357 726.558 L 166.138 708.135 L 166.138 737.505 Q 166.138 739.196 165.381 739.952 Q 164.625 740.709 162.934 740.709 Z" style="fill: rgb(65, 61, 81); white-space: pre;"/>
  <path d="M 243.122 740.709 L 214.998 740.709 Q 213.307 740.709 212.55 739.952 Q 211.794 739.196 211.794 737.505 L 211.794 727.092 Q 211.794 725.401 212.55 724.644 Q 213.307 723.888 214.998 723.888 L 238.939 723.888 Q 240.096 723.888 240.674 723.131 Q 241.253 722.375 241.253 721.307 Q 241.253 719.794 240.674 719.082 Q 240.096 718.37 238.939 718.281 L 225.589 716.412 Q 219.359 715.522 215.576 712.318 Q 211.794 709.114 211.794 701.638 L 211.794 692.293 Q 211.794 684.728 216.689 680.678 Q 221.584 676.629 230.217 676.629 L 255.137 676.629 Q 256.828 676.629 257.584 677.385 Q 258.341 678.142 258.341 679.833 L 258.341 690.424 Q 258.341 692.115 257.584 692.871 Q 256.828 693.628 255.137 693.628 L 234.4 693.628 Q 233.243 693.628 232.62 694.384 Q 231.997 695.141 231.997 696.298 Q 231.997 697.455 232.62 698.256 Q 233.243 699.057 234.4 699.146 L 247.661 700.926 Q 253.891 701.816 257.718 705.02 Q 261.545 708.224 261.545 715.7 L 261.545 725.045 Q 261.545 732.61 256.605 736.659 Q 251.666 740.709 243.122 740.709 Z" style="fill: rgb(65, 61, 81); white-space: pre;"/>
  <path d="M 325.796 723.888 Q 325.796 727.982 324.595 731.319 Q 323.393 734.657 320.323 737.015 Q 317.252 739.374 311.912 740.709 Q 306.572 742.044 298.295 742.044 Q 290.018 742.044 284.678 740.709 Q 279.338 739.374 276.268 737.015 Q 273.197 734.657 271.996 731.319 Q 270.794 727.982 270.794 723.888 L 270.794 679.833 Q 270.794 678.142 271.551 677.385 Q 272.307 676.629 273.998 676.629 L 287.971 676.629 Q 289.662 676.629 290.419 677.385 Q 291.175 678.142 291.175 679.833 L 291.175 720.417 Q 291.175 722.197 292.51 723.398 Q 293.845 724.6 298.473 724.6 Q 303.19 724.6 304.525 723.398 Q 305.86 722.197 305.86 720.417 L 305.86 679.833 Q 305.86 678.142 306.617 677.385 Q 307.373 676.629 309.064 676.629 L 322.592 676.629 Q 324.283 676.629 325.04 677.385 Q 325.796 678.142 325.796 679.833 Z" style="fill: rgb(65, 61, 81); white-space: pre;"/>
  <path d="M 367.356 740.709 L 339.232 740.709 Q 337.541 740.709 336.785 739.952 Q 336.028 739.196 336.028 737.505 L 336.028 727.092 Q 336.028 725.401 336.785 724.644 Q 337.541 723.888 339.232 723.888 L 363.173 723.888 Q 364.33 723.888 364.909 723.131 Q 365.487 722.375 365.487 721.307 Q 365.487 719.794 364.909 719.082 Q 364.33 718.37 363.173 718.281 L 349.823 716.412 Q 343.593 715.522 339.811 712.318 Q 336.028 709.114 336.028 701.638 L 336.028 692.293 Q 336.028 684.728 340.923 680.678 Q 345.818 676.629 354.451 676.629 L 379.371 676.629 Q 381.062 676.629 381.819 677.385 Q 382.575 678.142 382.575 679.833 L 382.575 690.424 Q 382.575 692.115 381.819 692.871 Q 381.062 693.628 379.371 693.628 L 358.634 693.628 Q 357.477 693.628 356.854 694.384 Q 356.231 695.141 356.231 696.298 Q 356.231 697.455 356.854 698.256 Q 357.477 699.057 358.634 699.146 L 371.895 700.926 Q 378.125 701.816 381.952 705.02 Q 385.779 708.224 385.779 715.7 L 385.779 725.045 Q 385.779 732.61 380.84 736.659 Q 375.9 740.709 367.356 740.709 Z" style="fill: rgb(65, 61, 81); white-space: pre;"/>
  <path d="M 424.859 740.709 L 410.441 740.709 Q 408.75 740.709 407.993 739.952 Q 407.237 739.196 407.237 737.505 L 407.237 693.806 L 394.154 693.806 Q 392.463 693.806 391.706 693.049 Q 390.95 692.293 390.95 690.602 L 390.95 679.833 Q 390.95 678.142 391.706 677.385 Q 392.463 676.629 394.154 676.629 L 441.146 676.629 Q 442.837 676.629 443.593 677.385 Q 444.35 678.142 444.35 679.833 L 444.35 690.602 Q 444.35 692.293 443.593 693.049 Q 442.837 693.806 441.146 693.806 L 428.063 693.806 L 428.063 737.505 Q 428.063 739.196 427.306 739.952 Q 426.55 740.709 424.859 740.709 Z" style="fill: rgb(65, 61, 81); white-space: pre;"/>
  <path d="M 472.64 695.319 L 468.457 708.847 L 482.43 708.847 L 478.247 695.319 Q 477.891 694.518 477.491 694.162 Q 477.09 693.806 476.556 693.806 L 474.331 693.806 Q 473.797 693.806 473.397 694.162 Q 472.996 694.518 472.64 695.319 Z M 467.567 737.505 Q 467.567 739.196 466.811 739.952 Q 466.054 740.709 464.363 740.709 L 451.28 740.709 Q 449.589 740.709 448.833 739.952 Q 448.076 739.196 448.076 737.505 L 448.076 714.009 Q 448.076 711.339 448.922 707.868 Q 449.767 704.397 451.547 699.769 L 459.29 679.566 Q 459.824 678.053 460.937 677.341 Q 462.049 676.629 463.829 676.629 L 487.77 676.629 Q 489.461 676.629 490.574 677.341 Q 491.686 678.053 492.22 679.566 L 499.963 699.769 Q 501.743 704.397 502.589 707.868 Q 503.434 711.339 503.434 714.009 L 503.434 737.505 Q 503.434 739.196 502.678 739.952 Q 501.921 740.709 500.23 740.709 L 486.791 740.709 Q 485.011 740.709 484.166 739.952 Q 483.32 739.196 483.32 737.505 L 483.32 725.045 L 467.567 725.045 Z" style="fill: rgb(65, 61, 81); white-space: pre;"/>
  <path d="M 516.16 740.709 Q 514.469 740.709 513.713 739.952 Q 512.956 739.196 512.956 737.505 L 512.956 726.914 Q 512.956 725.223 513.713 724.466 Q 514.469 723.71 516.16 723.71 L 524.971 723.71 L 524.971 693.806 L 516.16 693.806 Q 514.469 693.806 513.713 693.049 Q 512.956 692.293 512.956 690.602 L 512.956 679.833 Q 512.956 678.142 513.713 677.385 Q 514.469 676.629 516.16 676.629 L 554.074 676.629 Q 555.765 676.629 556.522 677.385 Q 557.278 678.142 557.278 679.833 L 557.278 690.602 Q 557.278 692.293 556.522 693.049 Q 555.765 693.806 554.074 693.806 L 545.441 693.806 L 545.441 723.71 L 554.074 723.71 Q 555.765 723.71 556.522 724.466 Q 557.278 725.223 557.278 726.914 L 557.278 737.505 Q 557.278 739.196 556.522 739.952 Q 555.765 740.709 554.074 740.709 Z" style="fill: rgb(65, 61, 81); white-space: pre;"/>
  <path d="M 584.793 740.709 L 571.443 740.709 Q 569.752 740.709 568.996 739.952 Q 568.239 739.196 568.239 737.505 L 568.239 679.833 Q 568.239 678.142 568.996 677.385 Q 569.752 676.629 571.443 676.629 L 580.699 676.629 Q 582.39 676.629 583.592 677.163 Q 584.793 677.697 585.95 679.032 L 603.216 698.79 L 603.216 679.833 Q 603.216 678.142 603.973 677.385 Q 604.729 676.629 606.42 676.629 L 619.77 676.629 Q 621.461 676.629 622.218 677.385 Q 622.974 678.142 622.974 679.833 L 622.974 737.505 Q 622.974 739.196 622.218 739.952 Q 621.461 740.709 619.77 740.709 L 606.42 740.709 Q 604.729 740.709 603.973 739.952 Q 603.216 739.196 603.216 737.505 L 603.216 726.558 L 587.997 708.135 L 587.997 737.505 Q 587.997 739.196 587.241 739.952 Q 586.484 740.709 584.793 740.709 Z" style="fill: rgb(65, 61, 81); white-space: pre;"/>
  <path d="M 655.191 740.709 L 637.213 740.709 Q 635.522 740.709 634.766 739.952 Q 634.009 739.196 634.009 737.505 L 634.009 719.438 Q 634.009 717.747 634.766 716.99 Q 635.522 716.234 637.213 716.234 L 655.191 716.234 Q 656.882 716.234 657.639 716.99 Q 658.395 717.747 658.395 719.438 L 658.395 737.505 Q 658.395 739.196 657.639 739.952 Q 656.882 740.709 655.191 740.709 Z" style="fill: rgb(65, 61, 81); white-space: pre;"/>
  <path d="M 712.058 740.709 L 690.342 740.709 Q 679.217 740.709 673.832 736.259 Q 668.448 731.809 668.448 722.553 L 668.448 694.874 Q 668.448 685.618 673.832 681.123 Q 679.217 676.629 690.342 676.629 L 712.058 676.629 Q 713.749 676.629 714.505 677.385 Q 715.262 678.142 715.262 679.833 L 715.262 690.602 Q 715.262 692.293 714.505 693.049 Q 713.749 693.806 712.058 693.806 L 694.169 693.806 Q 691.41 693.806 690.075 694.918 Q 688.74 696.031 688.74 698.256 L 688.74 719.438 Q 688.74 721.663 690.075 722.686 Q 691.41 723.71 694.169 723.71 L 712.058 723.71 Q 713.749 723.71 714.505 724.466 Q 715.262 725.223 715.262 726.914 L 715.262 737.505 Q 715.262 739.196 714.505 739.952 Q 713.749 740.709 712.058 740.709 Z" style="fill: rgb(65, 61, 81); white-space: pre;"/>
  <path d="M 779.154 723.888 Q 779.154 727.982 777.953 731.319 Q 776.751 734.657 773.681 737.015 Q 770.61 739.374 765.226 740.709 Q 759.841 742.044 751.564 742.044 Q 743.287 742.044 737.858 740.709 Q 732.429 739.374 729.359 737.015 Q 726.288 734.657 725.087 731.319 Q 723.885 727.982 723.885 723.888 L 723.885 693.539 Q 723.885 689.445 725.087 686.107 Q 726.288 682.77 729.359 680.367 Q 732.429 677.964 737.858 676.629 Q 743.287 675.294 751.564 675.294 Q 759.841 675.294 765.226 676.629 Q 770.61 677.964 773.681 680.367 Q 776.751 682.77 777.953 686.107 Q 779.154 689.445 779.154 693.539 Z M 744.088 720.684 Q 744.088 722.464 745.423 723.665 Q 746.758 724.867 751.564 724.867 Q 756.37 724.867 757.705 723.665 Q 759.04 722.464 759.04 720.684 L 759.04 696.743 Q 759.04 695.052 757.705 693.85 Q 756.37 692.649 751.564 692.649 Q 746.758 692.649 745.423 693.85 Q 744.088 695.052 744.088 696.743 Z" style="fill: rgb(65, 61, 81); white-space: pre;"/>
  <path d="M 806.923 740.709 L 793.662 740.709 Q 791.971 740.709 791.215 739.952 Q 790.458 739.196 790.458 737.505 L 790.458 679.833 Q 790.458 678.142 791.215 677.385 Q 791.971 676.629 793.662 676.629 L 807.991 676.629 Q 809.415 676.629 810.35 677.252 Q 811.284 677.875 812.085 679.299 L 820.095 693.806 Q 820.54 694.607 820.852 694.963 Q 821.163 695.319 821.697 695.319 L 822.498 695.319 Q 823.032 695.319 823.344 694.963 Q 823.655 694.607 824.1 693.806 L 832.021 679.299 Q 832.822 677.875 833.757 677.252 Q 834.691 676.629 836.115 676.629 L 850.533 676.629 Q 852.224 676.629 852.981 677.385 Q 853.737 678.142 853.737 679.833 L 853.737 737.505 Q 853.737 739.196 852.981 739.952 Q 852.224 740.709 850.533 740.709 L 836.827 740.709 Q 835.136 740.709 834.38 739.952 Q 833.623 739.196 833.623 737.505 L 833.623 706.177 L 828.372 715.878 Q 827.571 717.391 826.459 718.058 Q 825.346 718.726 823.655 718.726 L 820.095 718.726 Q 818.404 718.726 817.292 718.058 Q 816.179 717.391 815.378 715.878 L 810.127 706.177 L 810.127 737.505 Q 810.127 739.196 809.371 739.952 Q 808.614 740.709 806.923 740.709 Z" style="fill: rgb(65, 61, 81); white-space: pre;"/>
  <path d="M 157.319 797.788 Q 153.471 797.788 150.637 796.228 Q 147.803 794.668 146.269 791.6 Q 144.735 788.532 144.735 784.112 Q 144.735 777.3 147.933 773.79 Q 151.131 770.28 156.851 770.28 Q 161.063 770.28 163.663 772.152 Q 166.263 774.024 167.433 777.378 Q 168.603 780.732 168.551 785.204 L 148.011 785.204 L 147.855 781.148 L 164.391 781.148 L 163.091 782.448 Q 162.935 778.444 161.427 776.598 Q 159.919 774.752 156.695 774.752 Q 154.615 774.752 153.159 775.61 Q 151.703 776.468 150.949 778.522 Q 150.195 780.576 150.195 784.164 Q 150.195 788.532 152.223 790.794 Q 154.251 793.056 158.203 793.056 Q 159.971 793.056 161.505 792.744 Q 163.039 792.432 164.339 791.938 Q 165.639 791.444 166.575 790.976 L 166.575 796.02 Q 164.755 796.8 162.467 797.294 Q 160.179 797.788 157.319 797.788 Z" style="fill: rgb(65, 61, 81); white-space: pre;"/>
  <path d="M 176.337 773.036 Q 177.481 772.464 178.911 771.97 Q 180.341 771.476 181.953 771.112 Q 183.565 770.748 185.229 770.54 Q 186.893 770.332 188.453 770.332 Q 192.145 770.332 194.485 771.346 Q 196.825 772.36 197.969 774.466 Q 199.113 776.572 199.113 779.744 L 199.113 797.008 L 193.653 797.008 L 193.653 780.472 Q 193.653 779.484 193.419 778.522 Q 193.185 777.56 192.535 776.754 Q 191.885 775.948 190.663 775.48 Q 189.441 775.012 187.465 775.012 Q 186.061 775.012 184.579 775.272 Q 183.097 775.532 181.797 776 L 181.797 797.008 L 176.337 797.008 Z" style="fill: rgb(65, 61, 81); white-space: pre;"/>
  <path d="M 216.573 797.008 L 205.601 770.904 L 211.425 770.904 L 220.369 792.588 L 219.069 792.744 L 227.389 770.904 L 233.057 770.904 L 222.033 797.008 Z" style="fill: rgb(65, 61, 81); white-space: pre;"/>
  <path d="M 240.118 797.008 L 240.118 771.06 L 245.578 771.06 L 245.63 797.008 Z M 239.962 766.744 L 239.962 761.804 L 245.786 761.804 L 245.786 766.744 Z" style="fill: rgb(65, 61, 81); white-space: pre;"/>
  <path d="M 254.993 797.008 L 254.993 773.296 Q 255.669 772.88 257.489 772.152 Q 259.309 771.424 261.805 770.878 Q 264.301 770.332 266.849 770.332 Q 268.149 770.332 268.981 770.54 Q 269.813 770.748 270.385 771.008 L 270.385 775.376 Q 269.189 775.22 267.889 775.142 Q 266.589 775.064 265.289 775.142 Q 263.989 775.22 262.741 775.376 Q 261.493 775.532 260.453 775.688 L 260.453 797.008 Z" style="fill: rgb(65, 61, 81); white-space: pre;"/>
  <path d="M 286.955 797.788 Q 280.611 797.788 277.517 794.2 Q 274.423 790.612 274.423 783.956 Q 274.423 776.884 277.621 773.582 Q 280.819 770.28 286.851 770.28 Q 291.167 770.28 293.975 771.866 Q 296.783 773.452 298.135 776.52 Q 299.487 779.588 299.487 783.956 Q 299.487 790.56 296.237 794.174 Q 292.987 797.788 286.955 797.788 Z M 286.903 793.16 Q 289.555 793.16 291.115 791.99 Q 292.675 790.82 293.377 788.74 Q 294.079 786.66 294.079 783.956 Q 294.079 780.94 293.351 778.912 Q 292.623 776.884 291.063 775.87 Q 289.503 774.856 286.903 774.856 Q 284.303 774.856 282.743 775.948 Q 281.183 777.04 280.507 779.068 Q 279.831 781.096 279.831 783.956 Q 279.831 788.272 281.443 790.716 Q 283.055 793.16 286.903 793.16 Z" style="fill: rgb(65, 61, 81); white-space: pre;"/>
  <path d="M 307.337 773.036 Q 308.481 772.464 309.911 771.97 Q 311.341 771.476 312.953 771.112 Q 314.565 770.748 316.229 770.54 Q 317.893 770.332 319.453 770.332 Q 323.145 770.332 325.485 771.346 Q 327.825 772.36 328.969 774.466 Q 330.113 776.572 330.113 779.744 L 330.113 797.008 L 324.653 797.008 L 324.653 780.472 Q 324.653 779.484 324.419 778.522 Q 324.185 777.56 323.535 776.754 Q 322.885 775.948 321.663 775.48 Q 320.441 775.012 318.465 775.012 Q 317.061 775.012 315.579 775.272 Q 314.097 775.532 312.797 776 L 312.797 797.008 L 307.337 797.008 Z" style="fill: rgb(65, 61, 81); white-space: pre;"/>
  <path d="M 361.926 779.744 L 361.926 797.008 L 356.466 797.008 L 356.466 780.472 Q 356.466 779.484 356.232 778.522 Q 355.998 777.56 355.348 776.754 Q 354.698 775.948 353.476 775.48 Q 352.254 775.012 350.278 775.012 Q 348.874 775.012 347.47 775.272 Q 346.066 775.532 344.766 776 L 344.766 797.008 L 339.306 797.008 L 339.306 773.036 Q 340.45 772.464 341.88 771.97 Q 343.31 771.476 344.922 771.112 Q 346.534 770.748 348.198 770.54 Q 349.862 770.332 351.422 770.332 Q 355.114 770.332 357.402 771.346 Q 359.69 772.36 360.808 774.466 Q 361.926 776.572 361.926 779.744 Z M 355.686 774.388 Q 357.35 773.036 359.352 772.152 Q 361.354 771.268 363.512 770.8 Q 365.67 770.332 367.75 770.332 Q 371.442 770.332 373.73 771.346 Q 376.018 772.36 377.136 774.466 Q 378.254 776.572 378.254 779.744 L 378.254 797.008 L 372.794 797.008 L 372.794 780.472 Q 372.794 779.484 372.56 778.522 Q 372.326 777.56 371.676 776.754 Q 371.026 775.948 369.804 775.48 Q 368.582 775.012 366.606 775.012 Q 365.202 775.012 363.798 775.428 Q 362.394 775.844 361.094 776.728 Z" style="fill: rgb(65, 61, 81); white-space: pre;"/>
  <path d="M 398.678 797.788 Q 394.83 797.788 391.996 796.228 Q 389.162 794.668 387.628 791.6 Q 386.094 788.532 386.094 784.112 Q 386.094 777.3 389.292 773.79 Q 392.49 770.28 398.21 770.28 Q 402.422 770.28 405.022 772.152 Q 407.622 774.024 408.792 777.378 Q 409.962 780.732 409.91 785.204 L 389.37 785.204 L 389.214 781.148 L 405.75 781.148 L 404.45 782.448 Q 404.294 778.444 402.786 776.598 Q 401.278 774.752 398.054 774.752 Q 395.974 774.752 394.518 775.61 Q 393.062 776.468 392.308 778.522 Q 391.554 780.576 391.554 784.164 Q 391.554 788.532 393.582 790.794 Q 395.61 793.056 399.562 793.056 Q 401.33 793.056 402.864 792.744 Q 404.398 792.432 405.698 791.938 Q 406.998 791.444 407.934 790.976 L 407.934 796.02 Q 406.114 796.8 403.826 797.294 Q 401.538 797.788 398.678 797.788 Z" style="fill: rgb(65, 61, 81); white-space: pre;"/>
  <path d="M 417.712 773.036 Q 418.856 772.464 420.286 771.97 Q 421.716 771.476 423.328 771.112 Q 424.94 770.748 426.604 770.54 Q 428.268 770.332 429.828 770.332 Q 433.52 770.332 435.86 771.346 Q 438.2 772.36 439.344 774.466 Q 440.488 776.572 440.488 779.744 L 440.488 797.008 L 435.028 797.008 L 435.028 780.472 Q 435.028 779.484 434.794 778.522 Q 434.56 777.56 433.91 776.754 Q 433.26 775.948 432.038 775.48 Q 430.816 775.012 428.84 775.012 Q 427.436 775.012 425.954 775.272 Q 424.472 775.532 423.172 776 L 423.172 797.008 L 417.712 797.008 Z" style="fill: rgb(65, 61, 81); white-space: pre;"/>
  <path d="M 458.989 797.684 Q 455.453 797.684 453.399 795.812 Q 451.345 793.94 451.345 790.3 L 451.345 775.428 L 447.133 775.428 L 447.133 770.904 L 451.345 770.904 L 451.345 763.624 L 456.961 763.624 L 456.961 770.904 L 463.305 770.904 L 463.305 775.428 L 456.961 775.428 L 456.961 789.208 Q 456.961 791.028 457.611 791.938 Q 458.261 792.848 460.029 792.848 Q 460.913 792.848 461.797 792.614 Q 462.681 792.38 463.305 792.016 L 463.305 796.852 Q 462.369 797.268 461.199 797.476 Q 460.029 797.684 458.989 797.684 Z" style="fill: rgb(65, 61, 81); white-space: pre;"/>
  <path d="M 509.203 797.008 L 492.875 777.352 Q 491.731 775.948 490.613 774.024 Q 489.495 772.1 489.495 770.228 Q 489.495 767.94 490.743 766.042 Q 491.991 764.144 494.097 763 Q 496.203 761.856 498.803 761.856 Q 501.403 761.856 503.405 762.896 Q 505.407 763.936 506.577 765.756 Q 507.747 767.576 507.747 769.812 Q 507.747 771.944 506.785 773.478 Q 505.823 775.012 504.107 776.286 Q 502.391 777.56 500.051 778.964 L 497.763 775.792 Q 499.843 774.648 500.883 773.712 Q 501.923 772.776 502.261 771.918 Q 502.599 771.06 502.599 770.228 Q 502.599 768.668 501.533 767.68 Q 500.467 766.692 498.855 766.692 Q 497.243 766.692 496.125 767.758 Q 495.007 768.824 495.007 770.332 Q 495.007 771.008 495.553 771.944 Q 496.099 772.88 496.801 773.842 Q 497.503 774.804 498.127 775.532 L 516.067 797.008 Z M 497.035 797.528 Q 494.227 797.528 492.147 796.644 Q 490.067 795.76 488.741 794.278 Q 487.415 792.796 486.739 791.08 Q 486.063 789.364 486.063 787.752 Q 486.063 786.036 486.765 784.19 Q 487.467 782.344 489.209 780.524 Q 490.951 778.704 494.019 777.144 L 497.451 780.212 Q 495.215 781.46 493.993 782.786 Q 492.771 784.112 492.303 785.282 Q 491.835 786.452 491.835 787.388 Q 491.835 788.012 492.069 788.922 Q 492.303 789.832 492.927 790.742 Q 493.551 791.652 494.747 792.25 Q 495.943 792.848 497.815 792.848 Q 499.895 792.848 501.767 791.73 Q 503.639 790.612 504.783 789.364 L 507.695 792.848 Q 506.551 794.096 505.017 795.162 Q 503.483 796.228 501.481 796.878 Q 499.479 797.528 497.035 797.528 Z M 507.019 786.92 Q 507.643 785.932 508.059 784.866 Q 508.475 783.8 508.735 782.916 Q 508.995 782.032 509.099 781.616 L 513.519 781.616 Q 513.207 783.384 512.297 785.698 Q 511.387 788.012 510.035 790.144 Z" style="fill: rgb(65, 61, 81); white-space: pre;"/>
  <path d="M 546.986 797.788 Q 544.178 797.788 542.228 797.19 Q 540.278 796.592 538.406 795.708 L 538.406 790.56 Q 539.758 791.392 541.058 792.042 Q 542.358 792.692 543.788 793.056 Q 545.218 793.42 546.986 793.42 Q 549.222 793.42 550.496 792.484 Q 551.77 791.548 551.77 790.144 Q 551.77 788.948 550.964 788.272 Q 550.158 787.596 548.91 787.128 Q 547.662 786.66 546.31 786.192 Q 544.906 785.828 543.502 785.334 Q 542.098 784.84 540.928 783.982 Q 539.758 783.124 539.056 781.772 Q 538.354 780.42 538.354 778.444 Q 538.354 776.26 539.238 774.726 Q 540.122 773.192 541.552 772.23 Q 542.982 771.268 544.724 770.826 Q 546.466 770.384 548.13 770.384 Q 550.886 770.436 552.628 771.06 Q 554.37 771.684 556.034 772.568 L 556.086 777.248 Q 554.214 776.26 552.55 775.532 Q 550.886 774.804 548.702 774.804 Q 546.674 774.804 545.322 775.558 Q 543.97 776.312 543.97 777.768 Q 543.97 779.016 544.724 779.744 Q 545.478 780.472 546.7 780.888 Q 547.922 781.304 549.326 781.72 Q 550.626 782.136 552.03 782.578 Q 553.434 783.02 554.63 783.852 Q 555.826 784.684 556.58 786.036 Q 557.334 787.388 557.334 789.572 Q 557.282 792.484 555.8 794.304 Q 554.318 796.124 551.926 796.956 Q 549.534 797.788 546.986 797.788 Z" style="fill: rgb(65, 61, 81); white-space: pre;"/>
  <path d="M 576.787 797.788 Q 573.199 797.788 570.625 796.618 Q 568.051 795.448 566.647 793.108 Q 565.243 790.768 565.243 787.284 L 565.243 770.904 L 570.703 770.904 L 570.703 786.504 Q 570.703 789.832 572.185 791.418 Q 573.667 793.004 576.787 793.004 Q 579.907 793.004 581.389 791.418 Q 582.871 789.832 582.871 786.504 L 582.871 770.904 L 588.123 770.904 L 588.123 787.284 Q 588.123 792.484 585.133 795.136 Q 582.143 797.788 576.787 797.788 Z" style="fill: rgb(65, 61, 81); white-space: pre;"/>
  <path d="M 604.846 797.788 Q 602.038 797.788 600.088 797.19 Q 598.138 796.592 596.266 795.708 L 596.266 790.56 Q 597.618 791.392 598.918 792.042 Q 600.218 792.692 601.648 793.056 Q 603.078 793.42 604.846 793.42 Q 607.082 793.42 608.356 792.484 Q 609.63 791.548 609.63 790.144 Q 609.63 788.948 608.824 788.272 Q 608.018 787.596 606.77 787.128 Q 605.522 786.66 604.17 786.192 Q 602.766 785.828 601.362 785.334 Q 599.958 784.84 598.788 783.982 Q 597.618 783.124 596.916 781.772 Q 596.214 780.42 596.214 778.444 Q 596.214 776.26 597.098 774.726 Q 597.982 773.192 599.412 772.23 Q 600.842 771.268 602.584 770.826 Q 604.326 770.384 605.99 770.384 Q 608.746 770.436 610.488 771.06 Q 612.23 771.684 613.894 772.568 L 613.946 777.248 Q 612.074 776.26 610.41 775.532 Q 608.746 774.804 606.562 774.804 Q 604.534 774.804 603.182 775.558 Q 601.83 776.312 601.83 777.768 Q 601.83 779.016 602.584 779.744 Q 603.338 780.472 604.56 780.888 Q 605.782 781.304 607.186 781.72 Q 608.486 782.136 609.89 782.578 Q 611.294 783.02 612.49 783.852 Q 613.686 784.684 614.44 786.036 Q 615.194 787.388 615.194 789.572 Q 615.142 792.484 613.66 794.304 Q 612.178 796.124 609.786 796.956 Q 607.394 797.788 604.846 797.788 Z" style="fill: rgb(65, 61, 81); white-space: pre;"/>
  <path d="M 632.411 797.684 Q 628.875 797.684 626.821 795.812 Q 624.767 793.94 624.767 790.3 L 624.767 775.428 L 620.555 775.428 L 620.555 770.904 L 624.767 770.904 L 624.767 763.624 L 630.383 763.624 L 630.383 770.904 L 636.727 770.904 L 636.727 775.428 L 630.383 775.428 L 630.383 789.208 Q 630.383 791.028 631.033 791.938 Q 631.683 792.848 633.451 792.848 Q 634.335 792.848 635.219 792.614 Q 636.103 792.38 636.727 792.016 L 636.727 796.852 Q 635.791 797.268 634.621 797.476 Q 633.451 797.684 632.411 797.684 Z" style="fill: rgb(65, 61, 81); white-space: pre;"/>
  <path d="M 654.035 797.788 Q 652.007 797.788 650.135 797.398 Q 648.263 797.008 646.729 796.072 Q 645.195 795.136 644.285 793.498 Q 643.375 791.86 643.375 789.416 Q 643.375 786.504 644.519 784.632 Q 645.663 782.76 647.795 781.824 Q 649.927 780.888 652.891 780.888 Q 654.867 780.888 656.453 781.2 Q 658.039 781.512 659.313 782.058 Q 660.587 782.604 661.471 783.28 L 662.043 786.868 Q 660.899 786.088 658.975 785.542 Q 657.051 784.996 654.815 784.996 Q 651.851 784.996 650.317 786.036 Q 648.783 787.076 648.783 789.156 Q 648.783 790.716 649.667 791.678 Q 650.551 792.64 651.877 793.082 Q 653.203 793.524 654.659 793.524 Q 657.727 793.524 659.183 793.108 Q 660.639 792.692 660.639 791.184 L 660.639 780.264 Q 660.639 777.508 658.975 776.234 Q 657.311 774.96 654.243 774.96 Q 652.059 774.96 649.719 775.662 Q 647.379 776.364 645.871 777.612 L 645.871 772.516 Q 647.327 771.528 650.109 770.93 Q 652.891 770.332 655.855 770.332 Q 657.311 770.332 658.793 770.618 Q 660.275 770.904 661.575 771.502 Q 662.875 772.1 663.889 773.114 Q 664.903 774.128 665.475 775.584 Q 666.047 777.04 666.047 779.016 L 666.047 791.496 Q 666.047 794.044 664.461 795.422 Q 662.875 796.8 660.171 797.294 Q 657.467 797.788 654.035 797.788 Z" style="fill: rgb(65, 61, 81); white-space: pre;"/>
  <path d="M 675.399 797.008 L 675.399 771.06 L 680.859 771.06 L 680.911 797.008 Z M 675.243 766.744 L 675.243 761.804 L 681.067 761.804 L 681.067 766.744 Z" style="fill: rgb(65, 61, 81); white-space: pre;"/>
  <path d="M 690.259 773.036 Q 691.403 772.464 692.833 771.97 Q 694.263 771.476 695.875 771.112 Q 697.487 770.748 699.151 770.54 Q 700.815 770.332 702.375 770.332 Q 706.067 770.332 708.407 771.346 Q 710.747 772.36 711.891 774.466 Q 713.035 776.572 713.035 779.744 L 713.035 797.008 L 707.575 797.008 L 707.575 780.472 Q 707.575 779.484 707.341 778.522 Q 707.107 777.56 706.457 776.754 Q 705.807 775.948 704.585 775.48 Q 703.363 775.012 701.387 775.012 Q 699.983 775.012 698.501 775.272 Q 697.019 775.532 695.719 776 L 695.719 797.008 L 690.259 797.008 Z" style="fill: rgb(65, 61, 81); white-space: pre;"/>
  <path d="M 731.692 797.788 Q 729.664 797.788 727.792 797.398 Q 725.92 797.008 724.386 796.072 Q 722.852 795.136 721.942 793.498 Q 721.032 791.86 721.032 789.416 Q 721.032 786.504 722.176 784.632 Q 723.32 782.76 725.452 781.824 Q 727.584 780.888 730.548 780.888 Q 732.524 780.888 734.11 781.2 Q 735.696 781.512 736.97 782.058 Q 738.244 782.604 739.128 783.28 L 739.7 786.868 Q 738.556 786.088 736.632 785.542 Q 734.708 784.996 732.472 784.996 Q 729.508 784.996 727.974 786.036 Q 726.44 787.076 726.44 789.156 Q 726.44 790.716 727.324 791.678 Q 728.208 792.64 729.534 793.082 Q 730.86 793.524 732.316 793.524 Q 735.384 793.524 736.84 793.108 Q 738.296 792.692 738.296 791.184 L 738.296 780.264 Q 738.296 777.508 736.632 776.234 Q 734.968 774.96 731.9 774.96 Q 729.716 774.96 727.376 775.662 Q 725.036 776.364 723.528 777.612 L 723.528 772.516 Q 724.984 771.528 727.766 770.93 Q 730.548 770.332 733.512 770.332 Q 734.968 770.332 736.45 770.618 Q 737.932 770.904 739.232 771.502 Q 740.532 772.1 741.546 773.114 Q 742.56 774.128 743.132 775.584 Q 743.704 777.04 743.704 779.016 L 743.704 791.496 Q 743.704 794.044 742.118 795.422 Q 740.532 796.8 737.828 797.294 Q 735.124 797.788 731.692 797.788 Z" style="fill: rgb(65, 61, 81); white-space: pre;"/>
  <path d="M 763.924 797.788 Q 761.792 797.788 759.816 797.528 Q 757.84 797.268 756.28 796.618 Q 754.72 795.968 753.81 794.824 Q 752.9 793.68 752.9 791.86 L 752.9 760.452 L 758.308 760.452 L 758.308 774.544 L 756.904 772.776 Q 757.892 771.996 759.374 771.476 Q 760.856 770.956 762.39 770.644 Q 763.924 770.332 765.016 770.332 Q 770.944 770.332 773.908 773.842 Q 776.872 777.352 776.872 783.696 Q 776.872 787.96 775.754 790.716 Q 774.636 793.472 772.79 795.006 Q 770.944 796.54 768.63 797.164 Q 766.316 797.788 763.924 797.788 Z M 763.664 793.056 Q 766.732 793.056 768.396 791.808 Q 770.06 790.56 770.684 788.506 Q 771.308 786.452 771.308 783.904 Q 771.308 780.992 770.528 779.016 Q 769.748 777.04 768.188 776 Q 766.628 774.96 764.184 774.96 Q 762.832 774.96 761.246 775.324 Q 759.66 775.688 758.308 776.468 L 758.308 790.508 Q 758.308 791.548 759.14 792.12 Q 759.972 792.692 761.194 792.874 Q 762.416 793.056 763.664 793.056 Z" style="fill: rgb(65, 61, 81); white-space: pre;"/>
  <path d="M 784.868 797.008 L 784.868 771.06 L 790.328 771.06 L 790.38 797.008 Z M 784.712 766.744 L 784.712 761.804 L 790.536 761.804 L 790.536 766.744 Z" style="fill: rgb(65, 61, 81); white-space: pre;"/>
  <path d="M 805.151 797.008 L 799.743 797.008 L 799.743 761.024 L 805.151 761.024 Z" style="fill: rgb(65, 61, 81); white-space: pre;"/>
  <path d="M 814.493 797.008 L 814.493 771.06 L 819.953 771.06 L 820.005 797.008 Z M 814.337 766.744 L 814.337 761.804 L 820.161 761.804 L 820.161 766.744 Z" style="fill: rgb(65, 61, 81); white-space: pre;"/>
  <path d="M 838.661 797.684 Q 835.125 797.684 833.071 795.812 Q 831.017 793.94 831.017 790.3 L 831.017 775.428 L 826.805 775.428 L 826.805 770.904 L 831.017 770.904 L 831.017 763.624 L 836.633 763.624 L 836.633 770.904 L 842.977 770.904 L 842.977 775.428 L 836.633 775.428 L 836.633 789.208 Q 836.633 791.028 837.283 791.938 Q 837.933 792.848 839.701 792.848 Q 840.585 792.848 841.469 792.614 Q 842.353 792.38 842.977 792.016 L 842.977 796.852 Q 842.041 797.268 840.871 797.476 Q 839.701 797.684 838.661 797.684 Z" style="fill: rgb(65, 61, 81); white-space: pre;"/>
  <path d="M 854.877 807.096 Q 853.889 807.096 853.005 806.914 Q 852.121 806.732 851.445 806.472 L 851.445 801.792 Q 852.069 802 852.693 802.156 Q 853.317 802.312 854.045 802.312 Q 855.605 802.312 856.645 801.48 Q 857.685 800.648 858.413 799.088 Q 859.141 797.528 859.609 795.344 L 859.713 798.048 L 848.585 770.904 L 854.773 770.904 L 862.313 791.496 L 861.533 791.496 L 868.969 770.904 L 874.637 770.904 L 863.873 798.62 Q 862.573 801.948 861.065 803.794 Q 859.557 805.64 857.971 806.368 Q 856.385 807.096 854.877 807.096 Z" style="fill: rgb(65, 61, 81); white-space: pre;"/>
</svg>