<?xml version="1.0" encoding="utf-8"?>
<svg viewBox="0 0 1920 600" style="enable-background:new 0 0 1000 1000;" xmlns="http://www.w3.org/2000/svg">
  <defs>
    <style type="text/css">
	.st0{opacity:0.7;fill:#FFFFFF;}
	.st1{fill:#413D51;}
	.st2{fill:#8FE3F9;}
	.st3{fill:#B2EBF9;}
	.st4{fill:#A4E0EA;}
	.st5{fill:#7AD1E5;}
	.st6{fill:none;stroke:#413D51;stroke-width:16;stroke-linecap:round;stroke-linejoin:round;stroke-miterlimit:10;}
	.st7{fill:#F7E8AD;}
	.st8{fill:#F7D6A1;}
	.st9{fill:#EFCA92;}
	.st10{fill:#FFFFFF;}
	.st11{opacity:0.89;fill:#EFCA92;}
	.st12{fill:none;stroke:#413D51;stroke-width:8;stroke-linecap:round;stroke-linejoin:round;stroke-miterlimit:10;}
	.st13{opacity:0.31;fill:none;stroke:#72C8D6;stroke-width:8;stroke-linecap:round;stroke-linejoin:round;stroke-miterlimit:10;}
</style>
  </defs>
  <rect class="st0" width="1920" height="600" style="opacity: 1;"/>
  <g transform="matrix(0.416555, 0, 0, 0.416555, 751.582092, 48.266483)" style="">
    <ellipse id="XMLID_2_" class="st2" cx="501.8" cy="487.5" rx="228" ry="205.8"/>
    <ellipse id="XMLID_188_" class="st2" cx="501.8" cy="487.5" rx="228" ry="205.8"/>
    <path id="XMLID_193_" class="st3" d="M507.8,689.3c52.1,0,100.1-15.3,138.5-41l-10.5-24.7c-22-51.9-74.2-85.8-132.1-85.8l0,0 c-57.9,0-110.1,33.9-132.1,85.8l-8.6,20.4C402.3,672.3,452.8,689.3,507.8,689.3z"/>
    <path id="XMLID_189_" class="st4" d="M501.7,470.3l-43.6,64l32.9,43.8c5.4,7.2,16.3,7.2,21.7,0l32.6-43.8L501.7,470.3z"/>
    <path id="XMLID_192_" class="st5" d="M501.8,669.3c-121.5,0-220.7-85.7-227.6-193.8c-0.3,4-0.4,8-0.4,12 c0,113.6,102.1,205.8,228,205.8s228-92.1,228-205.8c0-4-0.1-8-0.4-12C722.5,583.6,623.2,669.3,501.8,669.3z"/>
    <path id="XMLID_76_" class="st4" d="M638.6,628.1c-38.1,25.8-85.5,41.2-136.8,41.2c-50,0-96.2-14.5-133.7-39.1l-5,12.3 c39.4,29.2,89.8,46.8,144.8,46.8c49.7,0,95.7-14.4,133.2-38.8c1.8-1.2,3.5-2.5,5.3-3.8L638.6,628.1z"/>
    <path id="XMLID_186_" class="st5" d="M268.2,488.2c6.4,13.1,15,25.3,25.8,36.2c52.3,52.3,137.2,52.3,189.5,0 c43.8-43.8,50.9-110.3,21.5-161.5"/>
    <path id="XMLID_185_" class="st5" d="M729,503.8c-24,36.1-65,59.8-111.6,59.8c-74,0-134-60-134-134c0-33,11.9-63.2,31.7-86.6"/>
    <ellipse id="XMLID_75_" class="st6" cx="501.8" cy="487.5" rx="228" ry="205.8"/>
    <polygon id="XMLID_74_" class="st1" points="501.7,442.3 458.1,506.3 501.9,564.6 545.4,506.3 &#9;"/>
    <polygon id="XMLID_73_" class="st6" points="501.7,442.3 458.1,506.3 501.9,564.6 545.4,506.3 &#9;"/>
    <path id="XMLID_72_" class="st1" d="M600.7,303.9c-30-14-64.1-21.9-100-21.9s-70,7.9-100,21.9v140.1h200V303.9z"/>
    <g id="XMLID_58_">
      <path id="XMLID_71_" class="st1" d="M613.5,317.9l108.7-3.3c-15.7,39.3-17.8,98.4-4.1,163c-17.4,36.8-54.4,62.9-97.9,64.2l0,0 c-61.8,1.9-113.5-46.7-115.3-108.6l0,0C503,371.4,551.6,319.8,613.5,317.9z"/>
      <path id="XMLID_70_" class="st6" d="M613.5,317.9l108.7-3.3c-15.7,39.3-17.8,98.4-4.1,163c-17.4,36.8-54.4,62.9-97.9,64.2l0,0 c-61.8,1.9-113.5-46.7-115.3-108.6l0,0C503,371.4,551.6,319.8,613.5,317.9z"/>
      <circle id="XMLID_69_" class="st7" cx="617.4" cy="429.7" r="112"/>
      <circle id="XMLID_5_" class="st7" cx="617.4" cy="429.7" r="112"/>
      <path id="XMLID_86_" class="st8" d="M696.6,350.5c-21.5-21.5-49.7-32.4-77.9-32.8c21.2,4.1,41.5,14.3,57.9,30.8 c43.7,43.7,43.7,114.6,0,158.4c-22.2,22.2-51.4,33.1-80.4,32.8c35.3,6.8,73.1-3.5,100.4-30.8C740.3,465.1,740.3,394.2,696.6,350.5 z"/>
      <ellipse id="XMLID_3_" transform="matrix(0.7071 -0.7071 0.7071 0.7071 -130.8246 543.5441)" class="st0" cx="590.7" cy="429.7" rx="84" ry="84.6"/>
      <path id="XMLID_12_" class="st9" d="M711.4,376.6c-3.1-4-9.1-15-12.8-18.7c-44-43.4-114.9-43-158.3,1.1 c-8.6,8.7-15.5,18.5-20.6,29C581.4,366.3,649,371.5,711.4,376.6z"/>
      <circle id="XMLID_68_" class="st6" cx="617.4" cy="429.7" r="112"/>
      <circle id="XMLID_67_" class="st6" cx="617.4" cy="429.7" r="112"/>
      <path id="XMLID_66_" class="st1" d="M706.7,362.1c-3.1-4-6.4-7.9-10.1-11.6c-43.7-43.7-114.6-43.7-158.4,0 c-8.7,8.7-15.6,18.4-20.8,28.8C579.4,358.1,644.3,356.5,706.7,362.1z"/>
      <circle id="XMLID_57_" class="st1" cx="562.9" cy="438.1" r="42"/>
      <circle id="XMLID_56_" class="st10" cx="539.1" cy="438.4" r="14"/>
    </g>
    <g id="XMLID_26_">
      <path id="XMLID_89_" class="st1" d="M388.8,317.9L280,314.6c15.7,39.3,17.8,98.4,4.1,163c17.4,36.8,54.4,62.9,97.9,64.2l0,0 c61.8,1.9,113.5-46.7,115.3-108.6l0,0C499.2,371.4,450.6,319.8,388.8,317.9z"/>
      <path id="XMLID_88_" class="st6" d="M388.8,317.9L280,314.6c15.7,39.3,17.8,98.4,4.1,163c17.4,36.8,54.4,62.9,97.9,64.2l0,0 c61.8,1.9,113.5-46.7,115.3-108.6l0,0C499.2,371.4,450.6,319.8,388.8,317.9z"/>
      <circle id="XMLID_87_" class="st7" cx="384.8" cy="429.7" r="112"/>
      <circle id="XMLID_84_" class="st7" cx="384.8" cy="429.7" r="112"/>
      <path id="XMLID_65_" class="st8" d="M305.6,350.5c21.5-21.5,49.7-32.4,77.9-32.8c-21.2,4.1-41.5,14.3-57.9,30.8 c-43.7,43.7-43.7,114.6,0,158.4c22.2,22.2,51.4,33.1,80.4,32.8c-35.3,6.8-73.1-3.5-100.4-30.8 C261.9,465.1,261.9,394.2,305.6,350.5z"/>
      <ellipse id="XMLID_64_" transform="matrix(0.7071 -0.7071 0.7071 0.7071 -183.3021 416.8521)" class="st0" cx="411.5" cy="429.7" rx="84.6" ry="84"/>
      <path id="XMLID_63_" class="st11" d="M290.9,376.6c3.1-4,9.1-15,12.8-18.7c44-43.4,114.9-43,158.3,1.1c8.6,8.7,15.5,18.5,20.6,29 C420.8,366.3,353.2,371.5,290.9,376.6z"/>
      <circle id="XMLID_62_" class="st6" cx="384.8" cy="429.7" r="112"/>
      <circle id="XMLID_61_" class="st6" cx="384.8" cy="429.7" r="112"/>
      <path id="XMLID_60_" class="st1" d="M295.6,362.1c3.1-4,6.4-7.9,10.1-11.6c43.7-43.7,114.6-43.7,158.4,0 c8.7,8.7,15.6,18.4,20.8,28.8C422.9,358.1,357.9,356.5,295.6,362.1z"/>
      <circle id="XMLID_59_" class="st1" cx="439.4" cy="438.1" r="42"/>
      <circle id="XMLID_37_" class="st10" cx="463.2" cy="438.4" r="14"/>
    </g>
    <path id="XMLID_19_" class="st1" d="M447.9,718.3L447.9,718.3c-8.8,0-16-7.2-16-16v-18c0-8.8,7.2-16,16-16h0c8.8,0,16,7.2,16,16v18 C463.9,711.1,456.8,718.3,447.9,718.3z"/>
    <path id="XMLID_17_" class="st1" d="M415.9,718.3L415.9,718.3c-8.8,0-16-7.2-16-16v-18c0-8.8,7.2-16,16-16h0c8.8,0,16,7.2,16,16v18 C431.9,711.1,424.8,718.3,415.9,718.3z"/>
    <path id="XMLID_16_" class="st1" d="M479.7,718.3L479.7,718.3c-8.8,0-16-7.2-16-16v-18c0-8.8,7.2-16,16-16h0c8.8,0,16,7.2,16,16v18 C495.7,711.1,488.5,718.3,479.7,718.3z"/>
    <path id="XMLID_15_" class="st1" d="M521.9,718.3L521.9,718.3c-8.8,0-16-7.2-16-16v-18c0-8.8,7.2-16,16-16h0c8.8,0,16,7.2,16,16v18 C537.9,711.1,530.7,718.3,521.9,718.3z"/>
    <path id="XMLID_14_" class="st1" d="M553.7,718.3L553.7,718.3c-8.8,0-16-7.2-16-16v-18c0-8.8,7.2-16,16-16h0c8.8,0,16,7.2,16,16v18 C569.7,711.1,562.5,718.3,553.7,718.3z"/>
    <path id="XMLID_13_" class="st1" d="M585.7,718.3L585.7,718.3c-8.8,0-16-7.2-16-16v-18c0-8.8,7.2-16,16-16h0c8.8,0,16,7.2,16,16v18 C601.7,711.1,594.5,718.3,585.7,718.3z"/>
    <path id="XMLID_11_" class="st12" d="M491.9,587.6c0,8.4-6.8,15.2-15.2,15.2c-8.4,0-15.2-6.8-15.2-15.2"/>
    <path id="XMLID_9_" class="st12" d="M538.4,587.6c0,8.4-6.8,15.2-15.2,15.2c-8.4,0-15.2-6.8-15.2-15.2"/>
    <path id="XMLID_10_" class="st13" d="M323,548.8c-2.2,4.7-7.7,6.8-12.5,4.6s-6.8-7.7-4.6-12.5"/>
    <path id="XMLID_1_" class="st13" d="M352.8,564.3c-2.2,4.7-7.7,6.8-12.5,4.6c-4.7-2.2-6.8-7.7-4.6-12.5"/>
    <path id="XMLID_78_" class="st13" d="M335.5,576.2c-2.2,4.7-7.7,6.8-12.5,4.6c-4.7-2.2-6.8-7.7-4.6-12.5"/>
    <path id="XMLID_77_" class="st13" d="M361.7,596.1c-2.2,4.7-7.7,6.8-12.5,4.6c-4.7-2.2-6.8-7.7-4.6-12.5"/>
    <path id="XMLID_79_" class="st13" d="M381.7,578.1c-2.2,4.7-7.7,6.8-12.5,4.6c-4.7-2.2-6.8-7.7-4.6-12.5"/>
    <path id="XMLID_85_" class="st13" d="M683.7,550.8c2.2,4.7,7.7,6.8,12.5,4.6s6.8-7.7,4.6-12.5"/>
    <path id="XMLID_83_" class="st13" d="M654,566.3c2.2,4.7,7.7,6.8,12.5,4.6c4.7-2.2,6.8-7.7,4.6-12.5"/>
    <path id="XMLID_82_" class="st13" d="M671.2,578.2c2.2,4.7,7.7,6.8,12.5,4.6c4.7-2.2,6.8-7.7,4.6-12.5"/>
    <path id="XMLID_81_" class="st13" d="M645.1,598.1c2.2,4.7,7.7,6.8,12.5,4.6c4.7-2.2,6.8-7.7,4.6-12.5"/>
    <path id="XMLID_80_" class="st13" d="M625.1,580.1c2.2,4.7,7.7,6.8,12.5,4.6c4.7-2.2,6.8-7.7,4.6-12.5"/>
    <path id="XMLID_8_" class="st12" d="M468.7,624.1c0,8.4-6.8,15.2-15.2,15.2c-8.4,0-15.2-6.8-15.2-15.2"/>
    <path id="XMLID_7_" class="st12" d="M515.2,624.1c0,8.4-6.8,15.2-15.2,15.2s-15.2-6.8-15.2-15.2"/>
    <path id="XMLID_6_" class="st12" d="M561.7,624.1c0,8.4-6.8,15.2-15.2,15.2c-8.4,0-15.2-6.8-15.2-15.2"/>
  </g>
  <path d="M 819.461 373.892 L 813.896 373.892 Q 813.191 373.892 812.875 373.577 Q 812.56 373.261 812.56 372.556 L 812.56 348.516 Q 812.56 347.811 812.875 347.495 Q 813.191 347.18 813.896 347.18 L 817.754 347.18 Q 818.459 347.18 818.96 347.403 Q 819.461 347.625 819.943 348.182 L 827.14 356.418 L 827.14 348.516 Q 827.14 347.811 827.456 347.495 Q 827.771 347.18 828.476 347.18 L 834.041 347.18 Q 834.746 347.18 835.061 347.495 Q 835.376 347.811 835.376 348.516 L 835.376 372.556 Q 835.376 373.261 835.061 373.577 Q 834.746 373.892 834.041 373.892 L 828.476 373.892 Q 827.771 373.892 827.456 373.577 Q 827.14 373.261 827.14 372.556 L 827.14 367.993 L 820.796 360.313 L 820.796 372.556 Q 820.796 373.261 820.481 373.577 Q 820.165 373.892 819.461 373.892 Z" style="fill: rgb(65, 61, 81); white-space: pre;"/>
  <path d="M 852.858 373.892 L 841.134 373.892 Q 840.429 373.892 840.114 373.577 Q 839.798 373.261 839.798 372.556 L 839.798 368.216 Q 839.798 367.511 840.114 367.195 Q 840.429 366.88 841.134 366.88 L 851.114 366.88 Q 851.596 366.88 851.837 366.565 Q 852.078 366.249 852.078 365.804 Q 852.078 365.173 851.837 364.877 Q 851.596 364.58 851.114 364.543 L 845.549 363.764 Q 842.952 363.393 841.375 362.057 Q 839.798 360.721 839.798 357.605 L 839.798 353.71 Q 839.798 350.556 841.839 348.868 Q 843.879 347.18 847.478 347.18 L 857.866 347.18 Q 858.571 347.18 858.886 347.495 Q 859.202 347.811 859.202 348.516 L 859.202 352.93 Q 859.202 353.635 858.886 353.951 Q 858.571 354.266 857.866 354.266 L 849.222 354.266 Q 848.739 354.266 848.48 354.581 Q 848.22 354.897 848.22 355.379 Q 848.22 355.861 848.48 356.195 Q 848.739 356.529 849.222 356.566 L 854.75 357.308 Q 857.347 357.679 858.942 359.015 Q 860.537 360.35 860.537 363.467 L 860.537 367.362 Q 860.537 370.516 858.478 372.204 Q 856.419 373.892 852.858 373.892 Z" style="fill: rgb(65, 61, 81); white-space: pre;"/>
  <path d="M 887.318 366.88 Q 887.318 368.587 886.817 369.978 Q 886.316 371.369 885.036 372.352 Q 883.756 373.335 881.53 373.892 Q 879.304 374.448 875.854 374.448 Q 872.404 374.448 870.178 373.892 Q 867.952 373.335 866.672 372.352 Q 865.392 371.369 864.891 369.978 Q 864.39 368.587 864.39 366.88 L 864.39 348.516 Q 864.39 347.811 864.705 347.495 Q 865.021 347.18 865.726 347.18 L 871.55 347.18 Q 872.255 347.18 872.571 347.495 Q 872.886 347.811 872.886 348.516 L 872.886 365.433 Q 872.886 366.175 873.442 366.676 Q 873.999 367.177 875.928 367.177 Q 877.894 367.177 878.451 366.676 Q 879.007 366.175 879.007 365.433 L 879.007 348.516 Q 879.007 347.811 879.323 347.495 Q 879.638 347.18 880.343 347.18 L 885.982 347.18 Q 886.687 347.18 887.002 347.495 Q 887.318 347.811 887.318 348.516 Z" style="fill: rgb(65, 61, 81); white-space: pre;"/>
  <path d="M 904.623 373.892 L 892.9 373.892 Q 892.195 373.892 891.879 373.577 Q 891.564 373.261 891.564 372.556 L 891.564 368.216 Q 891.564 367.511 891.879 367.195 Q 892.195 366.88 892.9 366.88 L 902.879 366.88 Q 903.362 366.88 903.603 366.565 Q 903.844 366.249 903.844 365.804 Q 903.844 365.173 903.603 364.877 Q 903.362 364.58 902.879 364.543 L 897.314 363.764 Q 894.717 363.393 893.141 362.057 Q 891.564 360.721 891.564 357.605 L 891.564 353.71 Q 891.564 350.556 893.604 348.868 Q 895.645 347.18 899.244 347.18 L 909.632 347.18 Q 910.337 347.18 910.652 347.495 Q 910.967 347.811 910.967 348.516 L 910.967 352.93 Q 910.967 353.635 910.652 353.951 Q 910.337 354.266 909.632 354.266 L 900.987 354.266 Q 900.505 354.266 900.245 354.581 Q 899.986 354.897 899.986 355.379 Q 899.986 355.861 900.245 356.195 Q 900.505 356.529 900.987 356.566 L 906.515 357.308 Q 909.112 357.679 910.708 359.015 Q 912.303 360.35 912.303 363.467 L 912.303 367.362 Q 912.303 370.516 910.244 372.204 Q 908.185 373.892 904.623 373.892 Z" style="fill: rgb(65, 61, 81); white-space: pre;"/>
  <path d="M 928.58 373.892 L 922.57 373.892 Q 921.865 373.892 921.55 373.577 Q 921.234 373.261 921.234 372.556 L 921.234 354.34 L 915.781 354.34 Q 915.076 354.34 914.76 354.025 Q 914.445 353.71 914.445 353.005 L 914.445 348.516 Q 914.445 347.811 914.76 347.495 Q 915.076 347.18 915.781 347.18 L 935.369 347.18 Q 936.074 347.18 936.39 347.495 Q 936.705 347.811 936.705 348.516 L 936.705 353.005 Q 936.705 353.71 936.39 354.025 Q 936.074 354.34 935.369 354.34 L 929.916 354.34 L 929.916 372.556 Q 929.916 373.261 929.6 373.577 Q 929.285 373.892 928.58 373.892 Z" style="fill: rgb(65, 61, 81); white-space: pre;"/>
  <path d="M 948.493 354.971 L 946.749 360.61 L 952.574 360.61 L 950.83 354.971 Q 950.682 354.637 950.515 354.489 Q 950.348 354.34 950.125 354.34 L 949.198 354.34 Q 948.975 354.34 948.808 354.489 Q 948.641 354.637 948.493 354.971 Z M 946.378 372.556 Q 946.378 373.261 946.063 373.577 Q 945.748 373.892 945.043 373.892 L 939.589 373.892 Q 938.884 373.892 938.569 373.577 Q 938.253 373.261 938.253 372.556 L 938.253 362.762 Q 938.253 361.649 938.606 360.202 Q 938.958 358.755 939.7 356.826 L 942.928 348.404 Q 943.151 347.774 943.614 347.477 Q 944.078 347.18 944.82 347.18 L 954.8 347.18 Q 955.505 347.18 955.969 347.477 Q 956.432 347.774 956.655 348.404 L 959.883 356.826 Q 960.625 358.755 960.977 360.202 Q 961.33 361.649 961.33 362.762 L 961.33 372.556 Q 961.33 373.261 961.014 373.577 Q 960.699 373.892 959.994 373.892 L 954.392 373.892 Q 953.65 373.892 953.297 373.577 Q 952.945 373.261 952.945 372.556 L 952.945 367.362 L 946.378 367.362 Z" style="fill: rgb(65, 61, 81); white-space: pre;"/>
  <path d="M 966.614 373.892 Q 965.91 373.892 965.594 373.577 Q 965.279 373.261 965.279 372.556 L 965.279 368.141 Q 965.279 367.437 965.594 367.121 Q 965.91 366.806 966.614 366.806 L 970.287 366.806 L 970.287 354.34 L 966.614 354.34 Q 965.91 354.34 965.594 354.025 Q 965.279 353.71 965.279 353.005 L 965.279 348.516 Q 965.279 347.811 965.594 347.495 Q 965.91 347.18 966.614 347.18 L 982.419 347.18 Q 983.124 347.18 983.439 347.495 Q 983.755 347.811 983.755 348.516 L 983.755 353.005 Q 983.755 353.71 983.439 354.025 Q 983.124 354.34 982.419 354.34 L 978.82 354.34 L 978.82 366.806 L 982.419 366.806 Q 983.124 366.806 983.439 367.121 Q 983.755 367.437 983.755 368.141 L 983.755 372.556 Q 983.755 373.261 983.439 373.577 Q 983.124 373.892 982.419 373.892 Z" style="fill: rgb(65, 61, 81); white-space: pre;"/>
  <path d="M 995.195 373.892 L 989.63 373.892 Q 988.925 373.892 988.61 373.577 Q 988.294 373.261 988.294 372.556 L 988.294 348.516 Q 988.294 347.811 988.61 347.495 Q 988.925 347.18 989.63 347.18 L 993.488 347.18 Q 994.193 347.18 994.694 347.403 Q 995.195 347.625 995.677 348.182 L 1002.875 356.418 L 1002.875 348.516 Q 1002.875 347.811 1003.19 347.495 Q 1003.505 347.18 1004.21 347.18 L 1009.775 347.18 Q 1010.48 347.18 1010.795 347.495 Q 1011.111 347.811 1011.111 348.516 L 1011.111 372.556 Q 1011.111 373.261 1010.795 373.577 Q 1010.48 373.892 1009.775 373.892 L 1004.21 373.892 Q 1003.505 373.892 1003.19 373.577 Q 1002.875 373.261 1002.875 372.556 L 1002.875 367.993 L 996.53 360.313 L 996.53 372.556 Q 996.53 373.261 996.215 373.577 Q 995.9 373.892 995.195 373.892 Z" style="fill: rgb(65, 61, 81); white-space: pre;"/>
  <path d="M 1024.527 373.892 L 1017.032 373.892 Q 1016.327 373.892 1016.012 373.577 Q 1015.697 373.261 1015.697 372.556 L 1015.697 365.025 Q 1015.697 364.32 1016.012 364.005 Q 1016.327 363.689 1017.032 363.689 L 1024.527 363.689 Q 1025.231 363.689 1025.547 364.005 Q 1025.862 364.32 1025.862 365.025 L 1025.862 372.556 Q 1025.862 373.261 1025.547 373.577 Q 1025.231 373.892 1024.527 373.892 Z" style="fill: rgb(65, 61, 81); white-space: pre;"/>
  <path d="M 1048.237 373.892 L 1039.185 373.892 Q 1034.547 373.892 1032.303 372.037 Q 1030.058 370.182 1030.058 366.324 L 1030.058 354.785 Q 1030.058 350.927 1032.303 349.054 Q 1034.547 347.18 1039.185 347.18 L 1048.237 347.18 Q 1048.942 347.18 1049.257 347.495 Q 1049.573 347.811 1049.573 348.516 L 1049.573 353.005 Q 1049.573 353.71 1049.257 354.025 Q 1048.942 354.34 1048.237 354.34 L 1040.78 354.34 Q 1039.63 354.34 1039.073 354.804 Q 1038.517 355.268 1038.517 356.195 L 1038.517 365.025 Q 1038.517 365.953 1039.073 366.379 Q 1039.63 366.806 1040.78 366.806 L 1048.237 366.806 Q 1048.942 366.806 1049.257 367.121 Q 1049.573 367.437 1049.573 368.141 L 1049.573 372.556 Q 1049.573 373.261 1049.257 373.577 Q 1048.942 373.892 1048.237 373.892 Z" style="fill: rgb(65, 61, 81); white-space: pre;"/>
  <path d="M 1076.191 366.88 Q 1076.191 368.587 1075.69 369.978 Q 1075.189 371.369 1073.909 372.352 Q 1072.629 373.335 1070.385 373.892 Q 1068.14 374.448 1064.69 374.448 Q 1061.24 374.448 1058.977 373.892 Q 1056.713 373.335 1055.433 372.352 Q 1054.154 371.369 1053.653 369.978 Q 1053.152 368.587 1053.152 366.88 L 1053.152 354.229 Q 1053.152 352.522 1053.653 351.131 Q 1054.154 349.74 1055.433 348.738 Q 1056.713 347.736 1058.977 347.18 Q 1061.24 346.623 1064.69 346.623 Q 1068.14 346.623 1070.385 347.18 Q 1072.629 347.736 1073.909 348.738 Q 1075.189 349.74 1075.69 351.131 Q 1076.191 352.522 1076.191 354.229 Z M 1061.574 365.544 Q 1061.574 366.286 1062.13 366.787 Q 1062.687 367.288 1064.69 367.288 Q 1066.693 367.288 1067.25 366.787 Q 1067.806 366.286 1067.806 365.544 L 1067.806 355.565 Q 1067.806 354.86 1067.25 354.359 Q 1066.693 353.858 1064.69 353.858 Q 1062.687 353.858 1062.13 354.359 Q 1061.574 354.86 1061.574 355.565 Z" style="fill: rgb(65, 61, 81); white-space: pre;"/>
  <path d="M 1087.752 373.892 L 1082.224 373.892 Q 1081.519 373.892 1081.203 373.577 Q 1080.888 373.261 1080.888 372.556 L 1080.888 348.516 Q 1080.888 347.811 1081.203 347.495 Q 1081.519 347.18 1082.224 347.18 L 1088.197 347.18 Q 1088.79 347.18 1089.18 347.44 Q 1089.569 347.699 1089.903 348.293 L 1093.242 354.34 Q 1093.428 354.674 1093.558 354.823 Q 1093.688 354.971 1093.91 354.971 L 1094.244 354.971 Q 1094.467 354.971 1094.596 354.823 Q 1094.726 354.674 1094.912 354.34 L 1098.214 348.293 Q 1098.548 347.699 1098.937 347.44 Q 1099.327 347.18 1099.92 347.18 L 1105.931 347.18 Q 1106.635 347.18 1106.951 347.495 Q 1107.266 347.811 1107.266 348.516 L 1107.266 372.556 Q 1107.266 373.261 1106.951 373.577 Q 1106.635 373.892 1105.931 373.892 L 1100.217 373.892 Q 1099.512 373.892 1099.197 373.577 Q 1098.882 373.261 1098.882 372.556 L 1098.882 359.497 L 1096.693 363.541 Q 1096.359 364.172 1095.895 364.45 Q 1095.431 364.728 1094.726 364.728 L 1093.242 364.728 Q 1092.537 364.728 1092.074 364.45 Q 1091.61 364.172 1091.276 363.541 L 1089.087 359.497 L 1089.087 372.556 Q 1089.087 373.261 1088.772 373.577 Q 1088.456 373.892 1087.752 373.892 Z" style="fill: rgb(65, 61, 81); white-space: pre;"/>
  <path d="M 812.045 411.816 Q 810.343 411.816 809.09 411.126 Q 807.836 410.436 807.158 409.079 Q 806.479 407.722 806.479 405.767 Q 806.479 402.754 807.894 401.202 Q 809.308 399.649 811.838 399.649 Q 813.701 399.649 814.851 400.477 Q 816.001 401.305 816.519 402.789 Q 817.036 404.272 817.013 406.25 L 807.928 406.25 L 807.859 404.456 L 815.173 404.456 L 814.598 405.031 Q 814.529 403.26 813.862 402.444 Q 813.195 401.627 811.769 401.627 Q 810.849 401.627 810.205 402.007 Q 809.561 402.386 809.228 403.295 Q 808.894 404.203 808.894 405.79 Q 808.894 407.722 809.791 408.723 Q 810.688 409.723 812.436 409.723 Q 813.218 409.723 813.897 409.585 Q 814.575 409.447 815.15 409.229 Q 815.725 409.01 816.139 408.803 L 816.139 411.034 Q 815.334 411.379 814.322 411.598 Q 813.31 411.816 812.045 411.816 Z" style="fill: rgb(51, 51, 51); white-space: pre;"/>
  <path d="M 819.796 400.868 Q 820.302 400.615 820.934 400.397 Q 821.567 400.178 822.28 400.017 Q 822.993 399.856 823.729 399.764 Q 824.465 399.672 825.155 399.672 Q 826.788 399.672 827.823 400.121 Q 828.858 400.569 829.364 401.501 Q 829.87 402.432 829.87 403.835 L 829.87 411.471 L 827.455 411.471 L 827.455 404.157 Q 827.455 403.72 827.351 403.295 Q 827.248 402.869 826.96 402.513 Q 826.673 402.156 826.132 401.949 Q 825.592 401.742 824.718 401.742 Q 824.097 401.742 823.441 401.857 Q 822.786 401.972 822.211 402.179 L 822.211 411.471 L 819.796 411.471 Z" style="fill: rgb(51, 51, 51); white-space: pre;"/>
  <path d="M 836.925 411.471 L 832.072 399.925 L 834.648 399.925 L 838.604 409.516 L 838.029 409.585 L 841.709 399.925 L 844.216 399.925 L 839.34 411.471 Z" style="fill: rgb(51, 51, 51); white-space: pre;"/>
  <path d="M 846.677 411.471 L 846.677 399.994 L 849.092 399.994 L 849.115 411.471 Z M 846.608 398.085 L 846.608 395.9 L 849.184 395.9 L 849.184 398.085 Z" style="fill: rgb(51, 51, 51); white-space: pre;"/>
  <path d="M 852.593 411.471 L 852.593 400.983 Q 852.892 400.799 853.697 400.477 Q 854.502 400.155 855.606 399.914 Q 856.71 399.672 857.837 399.672 Q 858.412 399.672 858.78 399.764 Q 859.148 399.856 859.401 399.971 L 859.401 401.903 Q 858.872 401.834 858.297 401.8 Q 857.722 401.765 857.147 401.8 Q 856.572 401.834 856.02 401.903 Q 855.468 401.972 855.008 402.041 L 855.008 411.471 Z" style="fill: rgb(51, 51, 51); white-space: pre;"/>
  <path d="M 866.069 411.816 Q 863.263 411.816 861.894 410.229 Q 860.526 408.642 860.526 405.698 Q 860.526 402.57 861.94 401.11 Q 863.355 399.649 866.023 399.649 Q 867.932 399.649 869.174 400.351 Q 870.416 401.052 871.014 402.409 Q 871.612 403.766 871.612 405.698 Q 871.612 408.619 870.174 410.218 Q 868.737 411.816 866.069 411.816 Z M 866.046 409.769 Q 867.219 409.769 867.909 409.252 Q 868.599 408.734 868.909 407.814 Q 869.22 406.894 869.22 405.698 Q 869.22 404.364 868.898 403.467 Q 868.576 402.57 867.886 402.122 Q 867.196 401.673 866.046 401.673 Q 864.896 401.673 864.206 402.156 Q 863.516 402.639 863.217 403.536 Q 862.918 404.433 862.918 405.698 Q 862.918 407.607 863.631 408.688 Q 864.344 409.769 866.046 409.769 Z" style="fill: rgb(51, 51, 51); white-space: pre;"/>
  <path d="M 874.421 400.868 Q 874.927 400.615 875.559 400.397 Q 876.192 400.178 876.905 400.017 Q 877.618 399.856 878.354 399.764 Q 879.09 399.672 879.78 399.672 Q 881.413 399.672 882.448 400.121 Q 883.483 400.569 883.989 401.501 Q 884.495 402.432 884.495 403.835 L 884.495 411.471 L 882.08 411.471 L 882.08 404.157 Q 882.08 403.72 881.976 403.295 Q 881.873 402.869 881.585 402.513 Q 881.298 402.156 880.757 401.949 Q 880.217 401.742 879.343 401.742 Q 878.722 401.742 878.066 401.857 Q 877.411 401.972 876.836 402.179 L 876.836 411.471 L 874.421 411.471 Z" style="fill: rgb(51, 51, 51); white-space: pre;"/>
  <path d="M 897.895 403.835 L 897.895 411.471 L 895.48 411.471 L 895.48 404.157 Q 895.48 403.72 895.376 403.295 Q 895.273 402.869 894.985 402.513 Q 894.698 402.156 894.157 401.949 Q 893.617 401.742 892.743 401.742 Q 892.122 401.742 891.501 401.857 Q 890.88 401.972 890.305 402.179 L 890.305 411.471 L 887.89 411.471 L 887.89 400.868 Q 888.396 400.615 889.028 400.397 Q 889.661 400.178 890.374 400.017 Q 891.087 399.856 891.823 399.764 Q 892.559 399.672 893.249 399.672 Q 894.882 399.672 895.894 400.121 Q 896.906 400.569 897.4 401.501 Q 897.895 402.432 897.895 403.835 Z M 895.135 401.466 Q 895.871 400.868 896.756 400.477 Q 897.642 400.086 898.596 399.879 Q 899.551 399.672 900.471 399.672 Q 902.104 399.672 903.116 400.121 Q 904.128 400.569 904.622 401.501 Q 905.117 402.432 905.117 403.835 L 905.117 411.471 L 902.702 411.471 L 902.702 404.157 Q 902.702 403.72 902.598 403.295 Q 902.495 402.869 902.207 402.513 Q 901.92 402.156 901.379 401.949 Q 900.839 401.742 899.965 401.742 Q 899.344 401.742 898.723 401.926 Q 898.102 402.11 897.527 402.501 Z" style="fill: rgb(51, 51, 51); white-space: pre;"/>
  <path d="M 913.483 411.816 Q 911.781 411.816 910.527 411.126 Q 909.274 410.436 908.595 409.079 Q 907.917 407.722 907.917 405.767 Q 907.917 402.754 909.331 401.202 Q 910.746 399.649 913.276 399.649 Q 915.139 399.649 916.289 400.477 Q 917.439 401.305 917.956 402.789 Q 918.474 404.272 918.451 406.25 L 909.366 406.25 L 909.297 404.456 L 916.611 404.456 L 916.036 405.031 Q 915.967 403.26 915.3 402.444 Q 914.633 401.627 913.207 401.627 Q 912.287 401.627 911.643 402.007 Q 910.999 402.386 910.665 403.295 Q 910.332 404.203 910.332 405.79 Q 910.332 407.722 911.229 408.723 Q 912.126 409.723 913.874 409.723 Q 914.656 409.723 915.334 409.585 Q 916.013 409.447 916.588 409.229 Q 917.163 409.01 917.577 408.803 L 917.577 411.034 Q 916.772 411.379 915.76 411.598 Q 914.748 411.816 913.483 411.816 Z" style="fill: rgb(51, 51, 51); white-space: pre;"/>
  <path d="M 921.249 400.868 Q 921.755 400.615 922.387 400.397 Q 923.02 400.178 923.733 400.017 Q 924.446 399.856 925.182 399.764 Q 925.918 399.672 926.608 399.672 Q 928.241 399.672 929.276 400.121 Q 930.311 400.569 930.817 401.501 Q 931.323 402.432 931.323 403.835 L 931.323 411.471 L 928.908 411.471 L 928.908 404.157 Q 928.908 403.72 928.804 403.295 Q 928.701 402.869 928.413 402.513 Q 928.126 402.156 927.585 401.949 Q 927.045 401.742 926.171 401.742 Q 925.55 401.742 924.894 401.857 Q 924.239 401.972 923.664 402.179 L 923.664 411.471 L 921.249 411.471 Z" style="fill: rgb(51, 51, 51); white-space: pre;"/>
  <path d="M 938.835 411.77 Q 937.271 411.77 936.362 410.942 Q 935.454 410.114 935.454 408.504 L 935.454 401.926 L 933.591 401.926 L 933.591 399.925 L 935.454 399.925 L 935.454 396.705 L 937.938 396.705 L 937.938 399.925 L 940.744 399.925 L 940.744 401.926 L 937.938 401.926 L 937.938 408.021 Q 937.938 408.826 938.225 409.229 Q 938.513 409.631 939.295 409.631 Q 939.686 409.631 940.077 409.528 Q 940.468 409.424 940.744 409.263 L 940.744 411.402 Q 940.33 411.586 939.812 411.678 Q 939.295 411.77 938.835 411.77 Z" style="fill: rgb(51, 51, 51); white-space: pre;"/>
  <path d="M 959.714 411.471 L 952.492 402.777 Q 951.986 402.156 951.492 401.305 Q 950.997 400.454 950.997 399.626 Q 950.997 398.614 951.549 397.775 Q 952.101 396.935 953.033 396.429 Q 953.964 395.923 955.114 395.923 Q 956.264 395.923 957.15 396.383 Q 958.035 396.843 958.553 397.648 Q 959.07 398.453 959.07 399.442 Q 959.07 400.385 958.645 401.064 Q 958.219 401.742 957.46 402.306 Q 956.701 402.869 955.666 403.49 L 954.654 402.087 Q 955.574 401.581 956.034 401.167 Q 956.494 400.753 956.644 400.374 Q 956.793 399.994 956.793 399.626 Q 956.793 398.936 956.322 398.499 Q 955.85 398.062 955.137 398.062 Q 954.424 398.062 953.93 398.534 Q 953.435 399.005 953.435 399.672 Q 953.435 399.971 953.677 400.385 Q 953.918 400.799 954.229 401.225 Q 954.539 401.65 954.815 401.972 L 962.75 411.471 Z M 954.332 411.701 Q 953.09 411.701 952.17 411.31 Q 951.25 410.919 950.664 410.264 Q 950.077 409.608 949.778 408.849 Q 949.479 408.09 949.479 407.377 Q 949.479 406.618 949.79 405.802 Q 950.1 404.985 950.871 404.18 Q 951.641 403.375 952.998 402.685 L 954.516 404.042 Q 953.527 404.594 952.987 405.181 Q 952.446 405.767 952.239 406.285 Q 952.032 406.802 952.032 407.216 Q 952.032 407.492 952.136 407.895 Q 952.239 408.297 952.515 408.7 Q 952.791 409.102 953.32 409.367 Q 953.849 409.631 954.677 409.631 Q 955.597 409.631 956.425 409.137 Q 957.253 408.642 957.759 408.09 L 959.047 409.631 Q 958.541 410.183 957.863 410.655 Q 957.184 411.126 956.299 411.414 Q 955.413 411.701 954.332 411.701 Z M 958.748 407.009 Q 959.024 406.572 959.208 406.101 Q 959.392 405.629 959.507 405.238 Q 959.622 404.847 959.668 404.663 L 961.623 404.663 Q 961.485 405.445 961.083 406.469 Q 960.68 407.492 960.082 408.435 Z" style="fill: rgb(51, 51, 51); white-space: pre;"/>
  <path d="M 975.1 411.816 Q 973.858 411.816 972.995 411.552 Q 972.133 411.287 971.305 410.896 L 971.305 408.619 Q 971.903 408.987 972.478 409.275 Q 973.053 409.562 973.685 409.723 Q 974.318 409.884 975.1 409.884 Q 976.089 409.884 976.652 409.47 Q 977.216 409.056 977.216 408.435 Q 977.216 407.906 976.859 407.607 Q 976.503 407.308 975.951 407.101 Q 975.399 406.894 974.801 406.687 Q 974.18 406.526 973.559 406.308 Q 972.938 406.089 972.42 405.71 Q 971.903 405.33 971.592 404.732 Q 971.282 404.134 971.282 403.26 Q 971.282 402.294 971.673 401.616 Q 972.064 400.937 972.696 400.512 Q 973.329 400.086 974.099 399.891 Q 974.87 399.695 975.606 399.695 Q 976.825 399.718 977.595 399.994 Q 978.366 400.27 979.102 400.661 L 979.125 402.731 Q 978.297 402.294 977.561 401.972 Q 976.825 401.65 975.859 401.65 Q 974.962 401.65 974.364 401.984 Q 973.766 402.317 973.766 402.961 Q 973.766 403.513 974.099 403.835 Q 974.433 404.157 974.973 404.341 Q 975.514 404.525 976.135 404.709 Q 976.71 404.893 977.331 405.089 Q 977.952 405.284 978.481 405.652 Q 979.01 406.02 979.343 406.618 Q 979.677 407.216 979.677 408.182 Q 979.654 409.47 978.998 410.275 Q 978.343 411.08 977.285 411.448 Q 976.227 411.816 975.1 411.816 Z" style="fill: rgb(51, 51, 51); white-space: pre;"/>
  <path d="M 987.621 411.816 Q 986.034 411.816 984.895 411.299 Q 983.757 410.781 983.136 409.746 Q 982.515 408.711 982.515 407.17 L 982.515 399.925 L 984.93 399.925 L 984.93 406.825 Q 984.93 408.297 985.585 408.999 Q 986.241 409.7 987.621 409.7 Q 989.001 409.7 989.656 408.999 Q 990.312 408.297 990.312 406.825 L 990.312 399.925 L 992.635 399.925 L 992.635 407.17 Q 992.635 409.47 991.312 410.643 Q 989.99 411.816 987.621 411.816 Z" style="fill: rgb(51, 51, 51); white-space: pre;"/>
  <path d="M 999.365 411.816 Q 998.123 411.816 997.261 411.552 Q 996.398 411.287 995.57 410.896 L 995.57 408.619 Q 996.168 408.987 996.743 409.275 Q 997.318 409.562 997.951 409.723 Q 998.583 409.884 999.365 409.884 Q 1000.354 409.884 1000.918 409.47 Q 1001.481 409.056 1001.481 408.435 Q 1001.481 407.906 1001.125 407.607 Q 1000.768 407.308 1000.216 407.101 Q 999.664 406.894 999.066 406.687 Q 998.445 406.526 997.824 406.308 Q 997.203 406.089 996.686 405.71 Q 996.168 405.33 995.858 404.732 Q 995.547 404.134 995.547 403.26 Q 995.547 402.294 995.938 401.616 Q 996.329 400.937 996.962 400.512 Q 997.594 400.086 998.365 399.891 Q 999.135 399.695 999.871 399.695 Q 1001.09 399.718 1001.861 399.994 Q 1002.631 400.27 1003.367 400.661 L 1003.39 402.731 Q 1002.562 402.294 1001.826 401.972 Q 1001.09 401.65 1000.124 401.65 Q 999.227 401.65 998.629 401.984 Q 998.031 402.317 998.031 402.961 Q 998.031 403.513 998.365 403.835 Q 998.698 404.157 999.239 404.341 Q 999.779 404.525 1000.4 404.709 Q 1000.975 404.893 1001.596 405.089 Q 1002.217 405.284 1002.746 405.652 Q 1003.275 406.02 1003.609 406.618 Q 1003.942 407.216 1003.942 408.182 Q 1003.919 409.47 1003.264 410.275 Q 1002.608 411.08 1001.55 411.448 Q 1000.492 411.816 999.365 411.816 Z" style="fill: rgb(51, 51, 51); white-space: pre;"/>
  <path d="M 1010.897 411.77 Q 1009.333 411.77 1008.425 410.942 Q 1007.516 410.114 1007.516 408.504 L 1007.516 401.926 L 1005.653 401.926 L 1005.653 399.925 L 1007.516 399.925 L 1007.516 396.705 L 1010 396.705 L 1010 399.925 L 1012.806 399.925 L 1012.806 401.926 L 1010 401.926 L 1010 408.021 Q 1010 408.826 1010.288 409.229 Q 1010.575 409.631 1011.357 409.631 Q 1011.748 409.631 1012.139 409.528 Q 1012.53 409.424 1012.806 409.263 L 1012.806 411.402 Q 1012.392 411.586 1011.875 411.678 Q 1011.357 411.77 1010.897 411.77 Z" style="fill: rgb(51, 51, 51); white-space: pre;"/>
  <path d="M 1019.794 411.816 Q 1018.897 411.816 1018.069 411.644 Q 1017.241 411.471 1016.563 411.057 Q 1015.884 410.643 1015.482 409.919 Q 1015.079 409.194 1015.079 408.113 Q 1015.079 406.825 1015.585 405.997 Q 1016.091 405.169 1017.034 404.755 Q 1017.977 404.341 1019.288 404.341 Q 1020.162 404.341 1020.864 404.479 Q 1021.565 404.617 1022.129 404.859 Q 1022.692 405.1 1023.083 405.399 L 1023.336 406.986 Q 1022.83 406.641 1021.979 406.4 Q 1021.128 406.158 1020.139 406.158 Q 1018.828 406.158 1018.15 406.618 Q 1017.471 407.078 1017.471 407.998 Q 1017.471 408.688 1017.862 409.114 Q 1018.253 409.539 1018.84 409.735 Q 1019.426 409.93 1020.07 409.93 Q 1021.427 409.93 1022.071 409.746 Q 1022.715 409.562 1022.715 408.895 L 1022.715 404.065 Q 1022.715 402.846 1021.979 402.283 Q 1021.243 401.719 1019.886 401.719 Q 1018.92 401.719 1017.885 402.03 Q 1016.85 402.34 1016.183 402.892 L 1016.183 400.638 Q 1016.827 400.201 1018.058 399.937 Q 1019.288 399.672 1020.599 399.672 Q 1021.243 399.672 1021.899 399.799 Q 1022.554 399.925 1023.129 400.19 Q 1023.704 400.454 1024.153 400.903 Q 1024.601 401.351 1024.854 401.995 Q 1025.107 402.639 1025.107 403.513 L 1025.107 409.033 Q 1025.107 410.16 1024.406 410.77 Q 1023.704 411.379 1022.508 411.598 Q 1021.312 411.816 1019.794 411.816 Z" style="fill: rgb(51, 51, 51); white-space: pre;"/>
  <path d="M 1028.584 411.471 L 1028.584 399.994 L 1030.999 399.994 L 1031.022 411.471 Z M 1028.515 398.085 L 1028.515 395.9 L 1031.091 395.9 L 1031.091 398.085 Z" style="fill: rgb(51, 51, 51); white-space: pre;"/>
  <path d="M 1034.499 400.868 Q 1035.005 400.615 1035.637 400.397 Q 1036.27 400.178 1036.983 400.017 Q 1037.696 399.856 1038.432 399.764 Q 1039.168 399.672 1039.858 399.672 Q 1041.491 399.672 1042.526 400.121 Q 1043.561 400.569 1044.067 401.501 Q 1044.573 402.432 1044.573 403.835 L 1044.573 411.471 L 1042.158 411.471 L 1042.158 404.157 Q 1042.158 403.72 1042.054 403.295 Q 1041.951 402.869 1041.663 402.513 Q 1041.376 402.156 1040.835 401.949 Q 1040.295 401.742 1039.421 401.742 Q 1038.8 401.742 1038.144 401.857 Q 1037.489 401.972 1036.914 402.179 L 1036.914 411.471 L 1034.499 411.471 Z" style="fill: rgb(51, 51, 51); white-space: pre;"/>
  <path d="M 1052.154 411.816 Q 1051.257 411.816 1050.429 411.644 Q 1049.601 411.471 1048.922 411.057 Q 1048.244 410.643 1047.841 409.919 Q 1047.439 409.194 1047.439 408.113 Q 1047.439 406.825 1047.945 405.997 Q 1048.451 405.169 1049.394 404.755 Q 1050.337 404.341 1051.648 404.341 Q 1052.522 404.341 1053.223 404.479 Q 1053.925 404.617 1054.488 404.859 Q 1055.052 405.1 1055.443 405.399 L 1055.696 406.986 Q 1055.19 406.641 1054.339 406.4 Q 1053.488 406.158 1052.499 406.158 Q 1051.188 406.158 1050.509 406.618 Q 1049.831 407.078 1049.831 407.998 Q 1049.831 408.688 1050.222 409.114 Q 1050.613 409.539 1051.199 409.735 Q 1051.786 409.93 1052.43 409.93 Q 1053.787 409.93 1054.431 409.746 Q 1055.075 409.562 1055.075 408.895 L 1055.075 404.065 Q 1055.075 402.846 1054.339 402.283 Q 1053.603 401.719 1052.246 401.719 Q 1051.28 401.719 1050.245 402.03 Q 1049.21 402.34 1048.543 402.892 L 1048.543 400.638 Q 1049.187 400.201 1050.417 399.937 Q 1051.648 399.672 1052.959 399.672 Q 1053.603 399.672 1054.258 399.799 Q 1054.914 399.925 1055.489 400.19 Q 1056.064 400.454 1056.512 400.903 Q 1056.961 401.351 1057.214 401.995 Q 1057.467 402.639 1057.467 403.513 L 1057.467 409.033 Q 1057.467 410.16 1056.765 410.77 Q 1056.064 411.379 1054.868 411.598 Q 1053.672 411.816 1052.154 411.816 Z" style="fill: rgb(51, 51, 51); white-space: pre;"/>
  <path d="M 1065.75 411.816 Q 1064.807 411.816 1063.933 411.701 Q 1063.059 411.586 1062.369 411.299 Q 1061.679 411.011 1061.276 410.505 Q 1060.874 409.999 1060.874 409.194 L 1060.874 395.302 L 1063.266 395.302 L 1063.266 401.535 L 1062.645 400.753 Q 1063.082 400.408 1063.737 400.178 Q 1064.393 399.948 1065.071 399.81 Q 1065.75 399.672 1066.233 399.672 Q 1068.855 399.672 1070.166 401.225 Q 1071.477 402.777 1071.477 405.583 Q 1071.477 407.469 1070.982 408.688 Q 1070.488 409.907 1069.671 410.586 Q 1068.855 411.264 1067.831 411.54 Q 1066.808 411.816 1065.75 411.816 Z M 1065.635 409.723 Q 1066.992 409.723 1067.728 409.171 Q 1068.464 408.619 1068.74 407.711 Q 1069.016 406.802 1069.016 405.675 Q 1069.016 404.387 1068.671 403.513 Q 1068.326 402.639 1067.636 402.179 Q 1066.946 401.719 1065.865 401.719 Q 1065.267 401.719 1064.565 401.88 Q 1063.864 402.041 1063.266 402.386 L 1063.266 408.596 Q 1063.266 409.056 1063.634 409.309 Q 1064.002 409.562 1064.542 409.643 Q 1065.083 409.723 1065.635 409.723 Z" style="fill: rgb(51, 51, 51); white-space: pre;"/>
  <path d="M 1074.349 411.471 L 1074.349 399.994 L 1076.764 399.994 L 1076.787 411.471 Z M 1074.28 398.085 L 1074.28 395.9 L 1076.856 395.9 L 1076.856 398.085 Z" style="fill: rgb(51, 51, 51); white-space: pre;"/>
  <path d="M 1082.657 411.471 L 1080.265 411.471 L 1080.265 395.555 L 1082.657 395.555 Z" style="fill: rgb(51, 51, 51); white-space: pre;"/>
  <path d="M 1086.13 411.471 L 1086.13 399.994 L 1088.545 399.994 L 1088.568 411.471 Z M 1086.061 398.085 L 1086.061 395.9 L 1088.637 395.9 L 1088.637 398.085 Z" style="fill: rgb(51, 51, 51); white-space: pre;"/>
  <path d="M 1096.163 411.77 Q 1094.599 411.77 1093.69 410.942 Q 1092.782 410.114 1092.782 408.504 L 1092.782 401.926 L 1090.919 401.926 L 1090.919 399.925 L 1092.782 399.925 L 1092.782 396.705 L 1095.266 396.705 L 1095.266 399.925 L 1098.072 399.925 L 1098.072 401.926 L 1095.266 401.926 L 1095.266 408.021 Q 1095.266 408.826 1095.553 409.229 Q 1095.841 409.631 1096.623 409.631 Q 1097.014 409.631 1097.405 409.528 Q 1097.796 409.424 1098.072 409.263 L 1098.072 411.402 Q 1097.658 411.586 1097.14 411.678 Q 1096.623 411.77 1096.163 411.77 Z" style="fill: rgb(51, 51, 51); white-space: pre;"/>
  <path d="M 1102.668 415.933 Q 1102.231 415.933 1101.84 415.853 Q 1101.449 415.772 1101.15 415.657 L 1101.15 413.587 Q 1101.426 413.679 1101.702 413.748 Q 1101.978 413.817 1102.3 413.817 Q 1102.99 413.817 1103.45 413.449 Q 1103.91 413.081 1104.232 412.391 Q 1104.554 411.701 1104.761 410.735 L 1104.807 411.931 L 1099.885 399.925 L 1102.622 399.925 L 1105.957 409.033 L 1105.612 409.033 L 1108.901 399.925 L 1111.408 399.925 L 1106.647 412.184 Q 1106.072 413.656 1105.405 414.473 Q 1104.738 415.289 1104.036 415.611 Q 1103.335 415.933 1102.668 415.933 Z" style="fill: rgb(51, 51, 51); white-space: pre;"/>
</svg>