<?xml version="1.0" encoding="utf-8"?>
<svg viewBox="0 0 1000 1000" style="enable-background:new 0 0 1000 1000;" xmlns="http://www.w3.org/2000/svg">
  <defs>
    <style type="text/css">
	.st0{opacity:0.7;fill:#FFFFFF;}
	.st1{fill:#413D51;}
	.st2{fill:#8FE3F9;}
	.st3{fill:#B2EBF9;}
	.st4{fill:#A4E0EA;}
	.st5{fill:#7AD1E5;}
	.st6{fill:none;stroke:#413D51;stroke-width:16;stroke-linecap:round;stroke-linejoin:round;stroke-miterlimit:10;}
	.st7{fill:#F7E8AD;}
	.st8{fill:#F7D6A1;}
	.st9{fill:#EFCA92;}
	.st10{fill:#FFFFFF;}
	.st11{opacity:0.89;fill:#EFCA92;}
	.st12{fill:none;stroke:#413D51;stroke-width:8;stroke-linecap:round;stroke-linejoin:round;stroke-miterlimit:10;}
	.st13{opacity:0.31;fill:none;stroke:#72C8D6;stroke-width:8;stroke-linecap:round;stroke-linejoin:round;stroke-miterlimit:10;}
</style>
  </defs>
  <rect class="st0" width="1000" height="1000" style="opacity: 1;"/>
  <g transform="matrix(1, 0, 0, 1, 0, -41)">
    <ellipse id="XMLID_2_" class="st2" cx="501.8" cy="487.5" rx="228" ry="205.8"/>
    <ellipse id="XMLID_188_" class="st2" cx="501.8" cy="487.5" rx="228" ry="205.8"/>
    <path id="XMLID_193_" class="st3" d="M507.8,689.3c52.1,0,100.1-15.3,138.5-41l-10.5-24.7c-22-51.9-74.2-85.8-132.1-85.8l0,0 c-57.9,0-110.1,33.9-132.1,85.8l-8.6,20.4C402.3,672.3,452.8,689.3,507.8,689.3z"/>
    <path id="XMLID_189_" class="st4" d="M501.7,470.3l-43.6,64l32.9,43.8c5.4,7.2,16.3,7.2,21.7,0l32.6-43.8L501.7,470.3z"/>
    <path id="XMLID_192_" class="st5" d="M501.8,669.3c-121.5,0-220.7-85.7-227.6-193.8c-0.3,4-0.4,8-0.4,12 c0,113.6,102.1,205.8,228,205.8s228-92.1,228-205.8c0-4-0.1-8-0.4-12C722.5,583.6,623.2,669.3,501.8,669.3z"/>
    <path id="XMLID_76_" class="st4" d="M638.6,628.1c-38.1,25.8-85.5,41.2-136.8,41.2c-50,0-96.2-14.5-133.7-39.1l-5,12.3 c39.4,29.2,89.8,46.8,144.8,46.8c49.7,0,95.7-14.4,133.2-38.8c1.8-1.2,3.5-2.5,5.3-3.8L638.6,628.1z"/>
    <path id="XMLID_186_" class="st5" d="M268.2,488.2c6.4,13.1,15,25.3,25.8,36.2c52.3,52.3,137.2,52.3,189.5,0 c43.8-43.8,50.9-110.3,21.5-161.5"/>
    <path id="XMLID_185_" class="st5" d="M729,503.8c-24,36.1-65,59.8-111.6,59.8c-74,0-134-60-134-134c0-33,11.9-63.2,31.7-86.6"/>
    <ellipse id="XMLID_75_" class="st6" cx="501.8" cy="487.5" rx="228" ry="205.8"/>
    <polygon id="XMLID_74_" class="st1" points="501.7,442.3 458.1,506.3 501.9,564.6 545.4,506.3 &#9;"/>
    <polygon id="XMLID_73_" class="st6" points="501.7,442.3 458.1,506.3 501.9,564.6 545.4,506.3 &#9;"/>
    <path id="XMLID_72_" class="st1" d="M600.7,303.9c-30-14-64.1-21.9-100-21.9s-70,7.9-100,21.9v140.1h200V303.9z"/>
    <g id="XMLID_58_">
      <path id="XMLID_71_" class="st1" d="M613.5,317.9l108.7-3.3c-15.7,39.3-17.8,98.4-4.1,163c-17.4,36.8-54.4,62.9-97.9,64.2l0,0 c-61.8,1.9-113.5-46.7-115.3-108.6l0,0C503,371.4,551.6,319.8,613.5,317.9z"/>
      <path id="XMLID_70_" class="st6" d="M613.5,317.9l108.7-3.3c-15.7,39.3-17.8,98.4-4.1,163c-17.4,36.8-54.4,62.9-97.9,64.2l0,0 c-61.8,1.9-113.5-46.7-115.3-108.6l0,0C503,371.4,551.6,319.8,613.5,317.9z"/>
      <circle id="XMLID_69_" class="st7" cx="617.4" cy="429.7" r="112"/>
      <circle id="XMLID_5_" class="st7" cx="617.4" cy="429.7" r="112"/>
      <path id="XMLID_86_" class="st8" d="M696.6,350.5c-21.5-21.5-49.7-32.4-77.9-32.8c21.2,4.1,41.5,14.3,57.9,30.8 c43.7,43.7,43.7,114.6,0,158.4c-22.2,22.2-51.4,33.1-80.4,32.8c35.3,6.8,73.1-3.5,100.4-30.8C740.3,465.1,740.3,394.2,696.6,350.5 z"/>
      <ellipse id="XMLID_3_" transform="matrix(0.7071 -0.7071 0.7071 0.7071 -130.8246 543.5441)" class="st0" cx="590.7" cy="429.7" rx="84" ry="84.6"/>
      <path id="XMLID_12_" class="st9" d="M711.4,376.6c-3.1-4-9.1-15-12.8-18.7c-44-43.4-114.9-43-158.3,1.1 c-8.6,8.7-15.5,18.5-20.6,29C581.4,366.3,649,371.5,711.4,376.6z"/>
      <circle id="XMLID_68_" class="st6" cx="617.4" cy="429.7" r="112"/>
      <circle id="XMLID_67_" class="st6" cx="617.4" cy="429.7" r="112"/>
      <path id="XMLID_66_" class="st1" d="M706.7,362.1c-3.1-4-6.4-7.9-10.1-11.6c-43.7-43.7-114.6-43.7-158.4,0 c-8.7,8.7-15.6,18.4-20.8,28.8C579.4,358.1,644.3,356.5,706.7,362.1z"/>
      <circle id="XMLID_57_" class="st1" cx="562.9" cy="438.1" r="42"/>
      <circle id="XMLID_56_" class="st10" cx="539.1" cy="438.4" r="14"/>
    </g>
    <g id="XMLID_26_">
      <path id="XMLID_89_" class="st1" d="M388.8,317.9L280,314.6c15.7,39.3,17.8,98.4,4.1,163c17.4,36.8,54.4,62.9,97.9,64.2l0,0 c61.8,1.9,113.5-46.7,115.3-108.6l0,0C499.2,371.4,450.6,319.8,388.8,317.9z"/>
      <path id="XMLID_88_" class="st6" d="M388.8,317.9L280,314.6c15.7,39.3,17.8,98.4,4.1,163c17.4,36.8,54.4,62.9,97.9,64.2l0,0 c61.8,1.9,113.5-46.7,115.3-108.6l0,0C499.2,371.4,450.6,319.8,388.8,317.9z"/>
      <circle id="XMLID_87_" class="st7" cx="384.8" cy="429.7" r="112"/>
      <circle id="XMLID_84_" class="st7" cx="384.8" cy="429.7" r="112"/>
      <path id="XMLID_65_" class="st8" d="M305.6,350.5c21.5-21.5,49.7-32.4,77.9-32.8c-21.2,4.1-41.5,14.3-57.9,30.8 c-43.7,43.7-43.7,114.6,0,158.4c22.2,22.2,51.4,33.1,80.4,32.8c-35.3,6.8-73.1-3.5-100.4-30.8 C261.9,465.1,261.9,394.2,305.6,350.5z"/>
      <ellipse id="XMLID_64_" transform="matrix(0.7071 -0.7071 0.7071 0.7071 -183.3021 416.8521)" class="st0" cx="411.5" cy="429.7" rx="84.6" ry="84"/>
      <path id="XMLID_63_" class="st11" d="M290.9,376.6c3.1-4,9.1-15,12.8-18.7c44-43.4,114.9-43,158.3,1.1c8.6,8.7,15.5,18.5,20.6,29 C420.8,366.3,353.2,371.5,290.9,376.6z"/>
      <circle id="XMLID_62_" class="st6" cx="384.8" cy="429.7" r="112"/>
      <circle id="XMLID_61_" class="st6" cx="384.8" cy="429.7" r="112"/>
      <path id="XMLID_60_" class="st1" d="M295.6,362.1c3.1-4,6.4-7.9,10.1-11.6c43.7-43.7,114.6-43.7,158.4,0 c8.7,8.7,15.6,18.4,20.8,28.8C422.9,358.1,357.9,356.5,295.6,362.1z"/>
      <circle id="XMLID_59_" class="st1" cx="439.4" cy="438.1" r="42"/>
      <circle id="XMLID_37_" class="st10" cx="463.2" cy="438.4" r="14"/>
    </g>
    <path id="XMLID_19_" class="st1" d="M447.9,718.3L447.9,718.3c-8.8,0-16-7.2-16-16v-18c0-8.8,7.2-16,16-16h0c8.8,0,16,7.2,16,16v18 C463.9,711.1,456.8,718.3,447.9,718.3z"/>
    <path id="XMLID_17_" class="st1" d="M415.9,718.3L415.9,718.3c-8.8,0-16-7.2-16-16v-18c0-8.8,7.2-16,16-16h0c8.8,0,16,7.2,16,16v18 C431.9,711.1,424.8,718.3,415.9,718.3z"/>
    <path id="XMLID_16_" class="st1" d="M479.7,718.3L479.7,718.3c-8.8,0-16-7.2-16-16v-18c0-8.8,7.2-16,16-16h0c8.8,0,16,7.2,16,16v18 C495.7,711.1,488.5,718.3,479.7,718.3z"/>
    <path id="XMLID_15_" class="st1" d="M521.9,718.3L521.9,718.3c-8.8,0-16-7.2-16-16v-18c0-8.8,7.2-16,16-16h0c8.8,0,16,7.2,16,16v18 C537.9,711.1,530.7,718.3,521.9,718.3z"/>
    <path id="XMLID_14_" class="st1" d="M553.7,718.3L553.7,718.3c-8.8,0-16-7.2-16-16v-18c0-8.8,7.2-16,16-16h0c8.8,0,16,7.2,16,16v18 C569.7,711.1,562.5,718.3,553.7,718.3z"/>
    <path id="XMLID_13_" class="st1" d="M585.7,718.3L585.7,718.3c-8.8,0-16-7.2-16-16v-18c0-8.8,7.2-16,16-16h0c8.8,0,16,7.2,16,16v18 C601.7,711.1,594.5,718.3,585.7,718.3z"/>
    <path id="XMLID_11_" class="st12" d="M491.9,587.6c0,8.4-6.8,15.2-15.2,15.2c-8.4,0-15.2-6.8-15.2-15.2"/>
    <path id="XMLID_9_" class="st12" d="M538.4,587.6c0,8.4-6.8,15.2-15.2,15.2c-8.4,0-15.2-6.8-15.2-15.2"/>
    <path id="XMLID_10_" class="st13" d="M323,548.8c-2.2,4.7-7.7,6.8-12.5,4.6s-6.8-7.7-4.6-12.5"/>
    <path id="XMLID_1_" class="st13" d="M352.8,564.3c-2.2,4.7-7.7,6.8-12.5,4.6c-4.7-2.2-6.8-7.7-4.6-12.5"/>
    <path id="XMLID_78_" class="st13" d="M335.5,576.2c-2.2,4.7-7.7,6.8-12.5,4.6c-4.7-2.2-6.8-7.7-4.6-12.5"/>
    <path id="XMLID_77_" class="st13" d="M361.7,596.1c-2.2,4.7-7.7,6.8-12.5,4.6c-4.7-2.2-6.8-7.7-4.6-12.5"/>
    <path id="XMLID_79_" class="st13" d="M381.7,578.1c-2.2,4.7-7.7,6.8-12.5,4.6c-4.7-2.2-6.8-7.7-4.6-12.5"/>
    <path id="XMLID_85_" class="st13" d="M683.7,550.8c2.2,4.7,7.7,6.8,12.5,4.6s6.8-7.7,4.6-12.5"/>
    <path id="XMLID_83_" class="st13" d="M654,566.3c2.2,4.7,7.7,6.8,12.5,4.6c4.7-2.2,6.8-7.7,4.6-12.5"/>
    <path id="XMLID_82_" class="st13" d="M671.2,578.2c2.2,4.7,7.7,6.8,12.5,4.6c4.7-2.2,6.8-7.7,4.6-12.5"/>
    <path id="XMLID_81_" class="st13" d="M645.1,598.1c2.2,4.7,7.7,6.8,12.5,4.6c4.7-2.2,6.8-7.7,4.6-12.5"/>
    <path id="XMLID_80_" class="st13" d="M625.1,580.1c2.2,4.7,7.7,6.8,12.5,4.6c4.7-2.2,6.8-7.7,4.6-12.5"/>
    <path id="XMLID_8_" class="st12" d="M468.7,624.1c0,8.4-6.8,15.2-15.2,15.2c-8.4,0-15.2-6.8-15.2-15.2"/>
    <path id="XMLID_7_" class="st12" d="M515.2,624.1c0,8.4-6.8,15.2-15.2,15.2s-15.2-6.8-15.2-15.2"/>
    <path id="XMLID_6_" class="st12" d="M561.7,624.1c0,8.4-6.8,15.2-15.2,15.2c-8.4,0-15.2-6.8-15.2-15.2"/>
  </g>
  <path d="M 162.934 740.709 L 149.584 740.709 Q 147.893 740.709 147.136 739.952 Q 146.38 739.196 146.38 737.505 L 146.38 679.833 Q 146.38 678.142 147.136 677.385 Q 147.893 676.629 149.584 676.629 L 158.84 676.629 Q 160.531 676.629 161.732 677.163 Q 162.934 677.697 164.091 679.032 L 181.357 698.79 L 181.357 679.833 Q 181.357 678.142 182.113 677.385 Q 182.87 676.629 184.561 676.629 L 197.911 676.629 Q 199.602 676.629 200.358 677.385 Q 201.115 678.142 201.115 679.833 L 201.115 737.505 Q 201.115 739.196 200.358 739.952 Q 199.602 740.709 197.911 740.709 L 184.561 740.709 Q 182.87 740.709 182.113 739.952 Q 181.357 739.196 181.357 737.505 L 181.357 726.558 L 166.138 708.135 L 166.138 737.505 Q 166.138 739.196 165.381 739.952 Q 164.625 740.709 162.934 740.709 Z" style="fill: rgb(65, 61, 81); white-space: pre;"/>
  <path d="M 243.122 740.709 L 214.998 740.709 Q 213.307 740.709 212.55 739.952 Q 211.794 739.196 211.794 737.505 L 211.794 727.092 Q 211.794 725.401 212.55 724.644 Q 213.307 723.888 214.998 723.888 L 238.939 723.888 Q 240.096 723.888 240.674 723.131 Q 241.253 722.375 241.253 721.307 Q 241.253 719.794 240.674 719.082 Q 240.096 718.37 238.939 718.281 L 225.589 716.412 Q 219.359 715.522 215.576 712.318 Q 211.794 709.114 211.794 701.638 L 211.794 692.293 Q 211.794 684.728 216.689 680.678 Q 221.584 676.629 230.217 676.629 L 255.137 676.629 Q 256.828 676.629 257.584 677.385 Q 258.341 678.142 258.341 679.833 L 258.341 690.424 Q 258.341 692.115 257.584 692.871 Q 256.828 693.628 255.137 693.628 L 234.4 693.628 Q 233.243 693.628 232.62 694.384 Q 231.997 695.141 231.997 696.298 Q 231.997 697.455 232.62 698.256 Q 233.243 699.057 234.4 699.146 L 247.661 700.926 Q 253.891 701.816 257.718 705.02 Q 261.545 708.224 261.545 715.7 L 261.545 725.045 Q 261.545 732.61 256.605 736.659 Q 251.666 740.709 243.122 740.709 Z" style="fill: rgb(65, 61, 81); white-space: pre;"/>
  <path d="M 325.796 723.888 Q 325.796 727.982 324.595 731.319 Q 323.393 734.657 320.323 737.015 Q 317.252 739.374 311.912 740.709 Q 306.572 742.044 298.295 742.044 Q 290.018 742.044 284.678 740.709 Q 279.338 739.374 276.268 737.015 Q 273.197 734.657 271.996 731.319 Q 270.794 727.982 270.794 723.888 L 270.794 679.833 Q 270.794 678.142 271.551 677.385 Q 272.307 676.629 273.998 676.629 L 287.971 676.629 Q 289.662 676.629 290.419 677.385 Q 291.175 678.142 291.175 679.833 L 291.175 720.417 Q 291.175 722.197 292.51 723.398 Q 293.845 724.6 298.473 724.6 Q 303.19 724.6 304.525 723.398 Q 305.86 722.197 305.86 720.417 L 305.86 679.833 Q 305.86 678.142 306.617 677.385 Q 307.373 676.629 309.064 676.629 L 322.592 676.629 Q 324.283 676.629 325.04 677.385 Q 325.796 678.142 325.796 679.833 Z" style="fill: rgb(65, 61, 81); white-space: pre;"/>
  <path d="M 367.356 740.709 L 339.232 740.709 Q 337.541 740.709 336.785 739.952 Q 336.028 739.196 336.028 737.505 L 336.028 727.092 Q 336.028 725.401 336.785 724.644 Q 337.541 723.888 339.232 723.888 L 363.173 723.888 Q 364.33 723.888 364.909 723.131 Q 365.487 722.375 365.487 721.307 Q 365.487 719.794 364.909 719.082 Q 364.33 718.37 363.173 718.281 L 349.823 716.412 Q 343.593 715.522 339.811 712.318 Q 336.028 709.114 336.028 701.638 L 336.028 692.293 Q 336.028 684.728 340.923 680.678 Q 345.818 676.629 354.451 676.629 L 379.371 676.629 Q 381.062 676.629 381.819 677.385 Q 382.575 678.142 382.575 679.833 L 382.575 690.424 Q 382.575 692.115 381.819 692.871 Q 381.062 693.628 379.371 693.628 L 358.634 693.628 Q 357.477 693.628 356.854 694.384 Q 356.231 695.141 356.231 696.298 Q 356.231 697.455 356.854 698.256 Q 357.477 699.057 358.634 699.146 L 371.895 700.926 Q 378.125 701.816 381.952 705.02 Q 385.779 708.224 385.779 715.7 L 385.779 725.045 Q 385.779 732.61 380.84 736.659 Q 375.9 740.709 367.356 740.709 Z" style="fill: rgb(65, 61, 81); white-space: pre;"/>
  <path d="M 424.859 740.709 L 410.441 740.709 Q 408.75 740.709 407.993 739.952 Q 407.237 739.196 407.237 737.505 L 407.237 693.806 L 394.154 693.806 Q 392.463 693.806 391.706 693.049 Q 390.95 692.293 390.95 690.602 L 390.95 679.833 Q 390.95 678.142 391.706 677.385 Q 392.463 676.629 394.154 676.629 L 441.146 676.629 Q 442.837 676.629 443.593 677.385 Q 444.35 678.142 444.35 679.833 L 444.35 690.602 Q 444.35 692.293 443.593 693.049 Q 442.837 693.806 441.146 693.806 L 428.063 693.806 L 428.063 737.505 Q 428.063 739.196 427.306 739.952 Q 426.55 740.709 424.859 740.709 Z" style="fill: rgb(65, 61, 81); white-space: pre;"/>
  <path d="M 472.64 695.319 L 468.457 708.847 L 482.43 708.847 L 478.247 695.319 Q 477.891 694.518 477.491 694.162 Q 477.09 693.806 476.556 693.806 L 474.331 693.806 Q 473.797 693.806 473.397 694.162 Q 472.996 694.518 472.64 695.319 Z M 467.567 737.505 Q 467.567 739.196 466.811 739.952 Q 466.054 740.709 464.363 740.709 L 451.28 740.709 Q 449.589 740.709 448.833 739.952 Q 448.076 739.196 448.076 737.505 L 448.076 714.009 Q 448.076 711.339 448.922 707.868 Q 449.767 704.397 451.547 699.769 L 459.29 679.566 Q 459.824 678.053 460.937 677.341 Q 462.049 676.629 463.829 676.629 L 487.77 676.629 Q 489.461 676.629 490.574 677.341 Q 491.686 678.053 492.22 679.566 L 499.963 699.769 Q 501.743 704.397 502.589 707.868 Q 503.434 711.339 503.434 714.009 L 503.434 737.505 Q 503.434 739.196 502.678 739.952 Q 501.921 740.709 500.23 740.709 L 486.791 740.709 Q 485.011 740.709 484.166 739.952 Q 483.32 739.196 483.32 737.505 L 483.32 725.045 L 467.567 725.045 Z" style="fill: rgb(65, 61, 81); white-space: pre;"/>
  <path d="M 516.16 740.709 Q 514.469 740.709 513.713 739.952 Q 512.956 739.196 512.956 737.505 L 512.956 726.914 Q 512.956 725.223 513.713 724.466 Q 514.469 723.71 516.16 723.71 L 524.971 723.71 L 524.971 693.806 L 516.16 693.806 Q 514.469 693.806 513.713 693.049 Q 512.956 692.293 512.956 690.602 L 512.956 679.833 Q 512.956 678.142 513.713 677.385 Q 514.469 676.629 516.16 676.629 L 554.074 676.629 Q 555.765 676.629 556.522 677.385 Q 557.278 678.142 557.278 679.833 L 557.278 690.602 Q 557.278 692.293 556.522 693.049 Q 555.765 693.806 554.074 693.806 L 545.441 693.806 L 545.441 723.71 L 554.074 723.71 Q 555.765 723.71 556.522 724.466 Q 557.278 725.223 557.278 726.914 L 557.278 737.505 Q 557.278 739.196 556.522 739.952 Q 555.765 740.709 554.074 740.709 Z" style="fill: rgb(65, 61, 81); white-space: pre;"/>
  <path d="M 584.793 740.709 L 571.443 740.709 Q 569.752 740.709 568.996 739.952 Q 568.239 739.196 568.239 737.505 L 568.239 679.833 Q 568.239 678.142 568.996 677.385 Q 569.752 676.629 571.443 676.629 L 580.699 676.629 Q 582.39 676.629 583.592 677.163 Q 584.793 677.697 585.95 679.032 L 603.216 698.79 L 603.216 679.833 Q 603.216 678.142 603.973 677.385 Q 604.729 676.629 606.42 676.629 L 619.77 676.629 Q 621.461 676.629 622.218 677.385 Q 622.974 678.142 622.974 679.833 L 622.974 737.505 Q 622.974 739.196 622.218 739.952 Q 621.461 740.709 619.77 740.709 L 606.42 740.709 Q 604.729 740.709 603.973 739.952 Q 603.216 739.196 603.216 737.505 L 603.216 726.558 L 587.997 708.135 L 587.997 737.505 Q 587.997 739.196 587.241 739.952 Q 586.484 740.709 584.793 740.709 Z" style="fill: rgb(65, 61, 81); white-space: pre;"/>
  <path d="M 655.191 740.709 L 637.213 740.709 Q 635.522 740.709 634.766 739.952 Q 634.009 739.196 634.009 737.505 L 634.009 719.438 Q 634.009 717.747 634.766 716.99 Q 635.522 716.234 637.213 716.234 L 655.191 716.234 Q 656.882 716.234 657.639 716.99 Q 658.395 717.747 658.395 719.438 L 658.395 737.505 Q 658.395 739.196 657.639 739.952 Q 656.882 740.709 655.191 740.709 Z" style="fill: rgb(65, 61, 81); white-space: pre;"/>
  <path d="M 712.058 740.709 L 690.342 740.709 Q 679.217 740.709 673.832 736.259 Q 668.448 731.809 668.448 722.553 L 668.448 694.874 Q 668.448 685.618 673.832 681.123 Q 679.217 676.629 690.342 676.629 L 712.058 676.629 Q 713.749 676.629 714.505 677.385 Q 715.262 678.142 715.262 679.833 L 715.262 690.602 Q 715.262 692.293 714.505 693.049 Q 713.749 693.806 712.058 693.806 L 694.169 693.806 Q 691.41 693.806 690.075 694.918 Q 688.74 696.031 688.74 698.256 L 688.74 719.438 Q 688.74 721.663 690.075 722.686 Q 691.41 723.71 694.169 723.71 L 712.058 723.71 Q 713.749 723.71 714.505 724.466 Q 715.262 725.223 715.262 726.914 L 715.262 737.505 Q 715.262 739.196 714.505 739.952 Q 713.749 740.709 712.058 740.709 Z" style="fill: rgb(65, 61, 81); white-space: pre;"/>
  <path d="M 779.154 723.888 Q 779.154 727.982 777.953 731.319 Q 776.751 734.657 773.681 737.015 Q 770.61 739.374 765.226 740.709 Q 759.841 742.044 751.564 742.044 Q 743.287 742.044 737.858 740.709 Q 732.429 739.374 729.359 737.015 Q 726.288 734.657 725.087 731.319 Q 723.885 727.982 723.885 723.888 L 723.885 693.539 Q 723.885 689.445 725.087 686.107 Q 726.288 682.77 729.359 680.367 Q 732.429 677.964 737.858 676.629 Q 743.287 675.294 751.564 675.294 Q 759.841 675.294 765.226 676.629 Q 770.61 677.964 773.681 680.367 Q 776.751 682.77 777.953 686.107 Q 779.154 689.445 779.154 693.539 Z M 744.088 720.684 Q 744.088 722.464 745.423 723.665 Q 746.758 724.867 751.564 724.867 Q 756.37 724.867 757.705 723.665 Q 759.04 722.464 759.04 720.684 L 759.04 696.743 Q 759.04 695.052 757.705 693.85 Q 756.37 692.649 751.564 692.649 Q 746.758 692.649 745.423 693.85 Q 744.088 695.052 744.088 696.743 Z" style="fill: rgb(65, 61, 81); white-space: pre;"/>
  <path d="M 806.923 740.709 L 793.662 740.709 Q 791.971 740.709 791.215 739.952 Q 790.458 739.196 790.458 737.505 L 790.458 679.833 Q 790.458 678.142 791.215 677.385 Q 791.971 676.629 793.662 676.629 L 807.991 676.629 Q 809.415 676.629 810.35 677.252 Q 811.284 677.875 812.085 679.299 L 820.095 693.806 Q 820.54 694.607 820.852 694.963 Q 821.163 695.319 821.697 695.319 L 822.498 695.319 Q 823.032 695.319 823.344 694.963 Q 823.655 694.607 824.1 693.806 L 832.021 679.299 Q 832.822 677.875 833.757 677.252 Q 834.691 676.629 836.115 676.629 L 850.533 676.629 Q 852.224 676.629 852.981 677.385 Q 853.737 678.142 853.737 679.833 L 853.737 737.505 Q 853.737 739.196 852.981 739.952 Q 852.224 740.709 850.533 740.709 L 836.827 740.709 Q 835.136 740.709 834.38 739.952 Q 833.623 739.196 833.623 737.505 L 833.623 706.177 L 828.372 715.878 Q 827.571 717.391 826.459 718.058 Q 825.346 718.726 823.655 718.726 L 820.095 718.726 Q 818.404 718.726 817.292 718.058 Q 816.179 717.391 815.378 715.878 L 810.127 706.177 L 810.127 737.505 Q 810.127 739.196 809.371 739.952 Q 808.614 740.709 806.923 740.709 Z" style="fill: rgb(65, 61, 81); white-space: pre;"/>
  <path d="M 157.943 797.528 Q 154.875 797.528 152.353 796.41 Q 149.831 795.292 147.985 793.342 Q 146.139 791.392 145.125 788.844 Q 144.111 786.296 144.111 783.436 Q 144.111 779.588 145.879 776.416 Q 147.647 773.244 150.793 771.32 Q 153.939 769.396 157.995 769.396 Q 162.103 769.396 165.145 771.346 Q 168.187 773.296 169.877 776.442 Q 171.567 779.588 171.567 783.228 Q 171.567 783.748 171.541 784.242 Q 171.515 784.736 171.463 784.996 L 148.947 784.996 Q 149.155 787.648 150.429 789.702 Q 151.703 791.756 153.731 792.926 Q 155.759 794.096 158.099 794.096 Q 160.595 794.096 162.805 792.848 Q 165.015 791.6 165.847 789.572 L 169.799 790.664 Q 168.915 792.64 167.173 794.2 Q 165.431 795.76 163.065 796.644 Q 160.699 797.528 157.943 797.528 Z M 148.791 781.824 L 167.303 781.824 Q 167.095 779.172 165.795 777.144 Q 164.495 775.116 162.467 773.972 Q 160.439 772.828 157.995 772.828 Q 155.603 772.828 153.575 773.972 Q 151.547 775.116 150.273 777.144 Q 148.999 779.172 148.791 781.824 Z" style="fill: rgb(65, 61, 81); white-space: pre;"/>
  <path d="M 201.612 797.008 L 197.036 797.008 L 197.036 781.824 Q 197.036 777.508 195.71 775.506 Q 194.384 773.504 191.68 773.504 Q 189.808 773.504 187.962 774.44 Q 186.116 775.376 184.686 776.962 Q 183.256 778.548 182.632 780.628 L 182.632 797.008 L 178.056 797.008 L 178.056 769.864 L 182.216 769.864 L 182.216 775.688 Q 183.308 773.764 185.024 772.36 Q 186.74 770.956 188.924 770.176 Q 191.108 769.396 193.5 769.396 Q 195.84 769.396 197.426 770.254 Q 199.012 771.112 199.922 772.646 Q 200.832 774.18 201.222 776.26 Q 201.612 778.34 201.612 780.784 Z" style="fill: rgb(65, 61, 81); white-space: pre;"/>
  <path d="M 217.356 797.008 L 206.696 769.864 L 211.48 769.864 L 220.008 792.64 L 228.536 769.864 L 233.008 769.864 L 222.348 797.008 Z" style="fill: rgb(65, 61, 81); white-space: pre;"/>
  <path d="M 238.993 797.008 L 238.993 769.864 L 243.569 769.864 L 243.569 797.008 Z M 238.993 764.768 L 238.993 759.048 L 243.569 759.048 L 243.569 764.768 Z" style="fill: rgb(65, 61, 81); white-space: pre;"/>
  <path d="M 266.705 773.868 Q 263.273 773.92 260.647 775.61 Q 258.021 777.3 256.929 780.264 L 256.929 797.008 L 252.353 797.008 L 252.353 769.864 L 256.617 769.864 L 256.617 776.156 Q 258.021 773.348 260.335 771.606 Q 262.649 769.864 265.197 769.656 Q 265.717 769.656 266.081 769.656 Q 266.445 769.656 266.705 769.708 Z" style="fill: rgb(65, 61, 81); white-space: pre;"/>
  <path d="M 283.865 797.528 Q 280.797 797.528 278.301 796.41 Q 275.805 795.292 273.985 793.342 Q 272.165 791.392 271.177 788.844 Q 270.189 786.296 270.189 783.488 Q 270.189 780.628 271.177 778.08 Q 272.165 775.532 273.985 773.582 Q 275.805 771.632 278.327 770.514 Q 280.849 769.396 283.917 769.396 Q 286.933 769.396 289.429 770.514 Q 291.925 771.632 293.771 773.582 Q 295.617 775.532 296.605 778.08 Q 297.593 780.628 297.593 783.488 Q 297.593 786.296 296.605 788.844 Q 295.617 791.392 293.797 793.342 Q 291.977 795.292 289.455 796.41 Q 286.933 797.528 283.865 797.528 Z M 274.869 783.54 Q 274.869 786.348 276.091 788.636 Q 277.313 790.924 279.341 792.25 Q 281.369 793.576 283.865 793.576 Q 286.361 793.576 288.415 792.224 Q 290.469 790.872 291.691 788.558 Q 292.913 786.244 292.913 783.436 Q 292.913 780.628 291.691 778.34 Q 290.469 776.052 288.415 774.7 Q 286.361 773.348 283.865 773.348 Q 281.369 773.348 279.341 774.726 Q 277.313 776.104 276.091 778.392 Q 274.869 780.68 274.869 783.54 Z" style="fill: rgb(65, 61, 81); white-space: pre;"/>
  <path d="M 328.112 797.008 L 323.536 797.008 L 323.536 781.824 Q 323.536 777.508 322.21 775.506 Q 320.884 773.504 318.18 773.504 Q 316.308 773.504 314.462 774.44 Q 312.616 775.376 311.186 776.962 Q 309.756 778.548 309.132 780.628 L 309.132 797.008 L 304.556 797.008 L 304.556 769.864 L 308.716 769.864 L 308.716 775.688 Q 309.808 773.764 311.524 772.36 Q 313.24 770.956 315.424 770.176 Q 317.608 769.396 320 769.396 Q 322.34 769.396 323.926 770.254 Q 325.512 771.112 326.422 772.646 Q 327.332 774.18 327.722 776.26 Q 328.112 778.34 328.112 780.784 Z" style="fill: rgb(65, 61, 81); white-space: pre;"/>
  <path d="M 377.558 797.008 L 372.982 797.008 L 372.982 781.824 Q 372.982 777.56 371.604 775.532 Q 370.226 773.504 367.522 773.504 Q 364.766 773.504 362.53 775.506 Q 360.294 777.508 359.358 780.68 L 359.358 797.008 L 354.782 797.008 L 354.782 781.824 Q 354.782 777.508 353.43 775.506 Q 352.078 773.504 349.374 773.504 Q 346.67 773.504 344.408 775.454 Q 342.146 777.404 341.21 780.628 L 341.21 797.008 L 336.634 797.008 L 336.634 769.864 L 340.794 769.864 L 340.794 775.688 Q 342.458 772.672 345.11 771.034 Q 347.762 769.396 351.09 769.396 Q 354.47 769.396 356.498 771.242 Q 358.526 773.088 358.994 776 Q 360.814 772.776 363.414 771.086 Q 366.014 769.396 369.342 769.396 Q 371.682 769.396 373.268 770.254 Q 374.854 771.112 375.79 772.646 Q 376.726 774.18 377.142 776.26 Q 377.558 778.34 377.558 780.784 Z" style="fill: rgb(65, 61, 81); white-space: pre;"/>
  <path d="M 398.084 797.528 Q 395.016 797.528 392.494 796.41 Q 389.972 795.292 388.126 793.342 Q 386.28 791.392 385.266 788.844 Q 384.252 786.296 384.252 783.436 Q 384.252 779.588 386.02 776.416 Q 387.788 773.244 390.934 771.32 Q 394.08 769.396 398.136 769.396 Q 402.244 769.396 405.286 771.346 Q 408.328 773.296 410.018 776.442 Q 411.708 779.588 411.708 783.228 Q 411.708 783.748 411.682 784.242 Q 411.656 784.736 411.604 784.996 L 389.088 784.996 Q 389.296 787.648 390.57 789.702 Q 391.844 791.756 393.872 792.926 Q 395.9 794.096 398.24 794.096 Q 400.736 794.096 402.946 792.848 Q 405.156 791.6 405.988 789.572 L 409.94 790.664 Q 409.056 792.64 407.314 794.2 Q 405.572 795.76 403.206 796.644 Q 400.84 797.528 398.084 797.528 Z M 388.932 781.824 L 407.444 781.824 Q 407.236 779.172 405.936 777.144 Q 404.636 775.116 402.608 773.972 Q 400.58 772.828 398.136 772.828 Q 395.744 772.828 393.716 773.972 Q 391.688 775.116 390.414 777.144 Q 389.14 779.172 388.932 781.824 Z" style="fill: rgb(65, 61, 81); white-space: pre;"/>
  <path d="M 441.768 797.008 L 437.192 797.008 L 437.192 781.824 Q 437.192 777.508 435.866 775.506 Q 434.54 773.504 431.836 773.504 Q 429.964 773.504 428.118 774.44 Q 426.272 775.376 424.842 776.962 Q 423.412 778.548 422.788 780.628 L 422.788 797.008 L 418.212 797.008 L 418.212 769.864 L 422.372 769.864 L 422.372 775.688 Q 423.464 773.764 425.18 772.36 Q 426.896 770.956 429.08 770.176 Q 431.264 769.396 433.656 769.396 Q 435.996 769.396 437.582 770.254 Q 439.168 771.112 440.078 772.646 Q 440.988 774.18 441.378 776.26 Q 441.768 778.34 441.768 780.784 Z" style="fill: rgb(65, 61, 81); white-space: pre;"/>
  <path d="M 464.065 795.656 Q 463.493 795.916 462.505 796.332 Q 461.517 796.748 460.217 797.06 Q 458.917 797.372 457.461 797.372 Q 455.797 797.372 454.393 796.774 Q 452.989 796.176 452.157 794.902 Q 451.325 793.628 451.325 791.704 L 451.325 773.452 L 447.633 773.452 L 447.633 769.864 L 451.325 769.864 L 451.325 760.816 L 455.901 760.816 L 455.901 769.864 L 461.985 769.864 L 461.985 773.452 L 455.901 773.452 L 455.901 790.3 Q 456.005 791.756 456.889 792.458 Q 457.773 793.16 458.969 793.16 Q 460.321 793.16 461.465 792.692 Q 462.609 792.224 462.973 792.016 Z" style="fill: rgb(65, 61, 81); white-space: pre;"/>
  <path d="M 509.718 797.008 L 491.622 777.924 Q 489.386 775.532 488.06 773.842 Q 486.734 772.152 486.162 770.774 Q 485.59 769.396 485.59 767.94 Q 485.59 765.548 486.838 763.676 Q 488.086 761.804 490.244 760.712 Q 492.402 759.62 495.106 759.62 Q 497.602 759.62 499.63 760.53 Q 501.658 761.44 502.88 763.13 Q 504.102 764.82 504.102 767.16 Q 504.102 769.552 502.802 771.398 Q 501.502 773.244 499.396 774.83 Q 497.29 776.416 494.742 778.028 Q 492.662 779.38 490.972 780.784 Q 489.282 782.188 488.32 783.774 Q 487.358 785.36 487.358 787.284 Q 487.358 789.364 488.502 790.846 Q 489.646 792.328 491.492 793.108 Q 493.338 793.888 495.366 793.888 Q 498.018 793.888 500.306 792.666 Q 502.594 791.444 504.336 789.26 Q 506.078 787.076 507.04 784.19 Q 508.002 781.304 508.002 777.976 L 511.798 777.976 Q 511.798 782.24 510.472 785.802 Q 509.146 789.364 506.832 791.99 Q 504.518 794.616 501.45 796.072 Q 498.382 797.528 494.898 797.528 Q 491.518 797.528 488.788 796.176 Q 486.058 794.824 484.498 792.51 Q 482.938 790.196 482.938 787.232 Q 482.938 784.372 484.264 782.214 Q 485.59 780.056 487.696 778.366 Q 489.802 776.676 492.038 775.272 Q 494.326 773.816 496.094 772.594 Q 497.862 771.372 498.876 770.072 Q 499.89 768.772 499.89 767.264 Q 499.89 765.444 498.538 764.274 Q 497.186 763.104 495.106 763.104 Q 493.546 763.104 492.35 763.754 Q 491.154 764.404 490.478 765.47 Q 489.802 766.536 489.802 767.836 Q 489.802 768.668 490.218 769.552 Q 490.634 770.436 491.804 771.788 Q 492.974 773.14 495.106 775.428 L 515.75 797.008 Z" style="fill: rgb(65, 61, 81); white-space: pre;"/>
  <path d="M 544.973 797.528 Q 541.593 797.528 538.629 796.41 Q 535.665 795.292 533.533 793.056 L 535.301 789.832 Q 537.641 792.016 539.981 792.952 Q 542.321 793.888 544.765 793.888 Q 547.573 793.888 549.341 792.822 Q 551.109 791.756 551.109 789.676 Q 551.109 788.168 550.199 787.44 Q 549.289 786.712 547.625 786.218 Q 545.961 785.724 543.673 785.1 Q 540.865 784.268 538.941 783.332 Q 537.017 782.396 536.029 780.992 Q 535.041 779.588 535.041 777.456 Q 535.041 774.856 536.393 773.062 Q 537.745 771.268 540.111 770.332 Q 542.477 769.396 545.493 769.396 Q 548.509 769.396 550.953 770.332 Q 553.397 771.268 555.165 773.088 L 553.085 776.26 Q 551.473 774.596 549.549 773.79 Q 547.625 772.984 545.233 772.984 Q 543.829 772.984 542.477 773.322 Q 541.125 773.66 540.241 774.518 Q 539.357 775.376 539.357 776.936 Q 539.357 778.236 540.059 778.99 Q 540.761 779.744 542.139 780.264 Q 543.517 780.784 545.493 781.408 Q 548.561 782.292 550.823 783.176 Q 553.085 784.06 554.333 785.464 Q 555.581 786.868 555.581 789.364 Q 555.581 793.212 552.669 795.37 Q 549.757 797.528 544.973 797.528 Z" style="fill: rgb(65, 61, 81); white-space: pre;"/>
  <path d="M 562.171 786.14 L 562.171 769.864 L 566.747 769.864 L 566.747 785.256 Q 566.747 789.416 568.203 791.496 Q 569.659 793.576 572.519 793.576 Q 574.391 793.576 576.133 792.77 Q 577.875 791.964 579.279 790.456 Q 580.683 788.948 581.463 786.868 L 581.463 769.864 L 586.039 769.864 L 586.039 791.808 Q 586.039 792.64 586.377 793.03 Q 586.715 793.42 587.495 793.472 L 587.495 797.008 Q 586.715 797.112 586.273 797.138 Q 585.831 797.164 585.415 797.164 Q 584.115 797.164 583.179 796.358 Q 582.243 795.552 582.191 794.356 L 582.087 791.184 Q 580.319 794.2 577.329 795.864 Q 574.339 797.528 570.803 797.528 Q 566.539 797.528 564.355 794.642 Q 562.171 791.756 562.171 786.14 Z" style="fill: rgb(65, 61, 81); white-space: pre;"/>
  <path d="M 604.395 797.528 Q 601.015 797.528 598.051 796.41 Q 595.087 795.292 592.955 793.056 L 594.723 789.832 Q 597.063 792.016 599.403 792.952 Q 601.743 793.888 604.187 793.888 Q 606.995 793.888 608.763 792.822 Q 610.531 791.756 610.531 789.676 Q 610.531 788.168 609.621 787.44 Q 608.711 786.712 607.047 786.218 Q 605.383 785.724 603.095 785.1 Q 600.287 784.268 598.363 783.332 Q 596.439 782.396 595.451 780.992 Q 594.463 779.588 594.463 777.456 Q 594.463 774.856 595.815 773.062 Q 597.167 771.268 599.533 770.332 Q 601.899 769.396 604.915 769.396 Q 607.931 769.396 610.375 770.332 Q 612.819 771.268 614.587 773.088 L 612.507 776.26 Q 610.895 774.596 608.971 773.79 Q 607.047 772.984 604.655 772.984 Q 603.251 772.984 601.899 773.322 Q 600.547 773.66 599.663 774.518 Q 598.779 775.376 598.779 776.936 Q 598.779 778.236 599.481 778.99 Q 600.183 779.744 601.561 780.264 Q 602.939 780.784 604.915 781.408 Q 607.983 782.292 610.245 783.176 Q 612.507 784.06 613.755 785.464 Q 615.003 786.868 615.003 789.364 Q 615.003 793.212 612.091 795.37 Q 609.179 797.528 604.395 797.528 Z" style="fill: rgb(65, 61, 81); white-space: pre;"/>
  <path d="M 635.909 795.656 Q 635.337 795.916 634.349 796.332 Q 633.361 796.748 632.061 797.06 Q 630.761 797.372 629.305 797.372 Q 627.641 797.372 626.237 796.774 Q 624.833 796.176 624.001 794.902 Q 623.169 793.628 623.169 791.704 L 623.169 773.452 L 619.477 773.452 L 619.477 769.864 L 623.169 769.864 L 623.169 760.816 L 627.745 760.816 L 627.745 769.864 L 633.829 769.864 L 633.829 773.452 L 627.745 773.452 L 627.745 790.3 Q 627.849 791.756 628.733 792.458 Q 629.617 793.16 630.813 793.16 Q 632.165 793.16 633.309 792.692 Q 634.453 792.224 634.817 792.016 Z" style="fill: rgb(65, 61, 81); white-space: pre;"/>
  <path d="M 639.44 789.156 Q 639.44 786.556 640.922 784.658 Q 642.404 782.76 645.004 781.72 Q 647.604 780.68 651.036 780.68 Q 652.856 780.68 654.884 780.966 Q 656.912 781.252 658.472 781.824 L 658.472 779.848 Q 658.472 776.728 656.6 774.934 Q 654.728 773.14 651.296 773.14 Q 649.06 773.14 647.006 773.946 Q 644.952 774.752 642.664 776.26 L 641 773.036 Q 643.652 771.216 646.304 770.306 Q 648.956 769.396 651.816 769.396 Q 657.016 769.396 660.032 772.282 Q 663.048 775.168 663.048 780.316 L 663.048 791.808 Q 663.048 792.64 663.386 793.03 Q 663.724 793.42 664.504 793.472 L 664.504 797.008 Q 663.828 797.112 663.334 797.164 Q 662.84 797.216 662.528 797.216 Q 660.916 797.216 660.11 796.332 Q 659.304 795.448 659.2 794.46 L 659.096 792.744 Q 657.328 795.032 654.468 796.28 Q 651.608 797.528 648.8 797.528 Q 646.096 797.528 643.964 796.41 Q 641.832 795.292 640.636 793.394 Q 639.44 791.496 639.44 789.156 Z M 657.12 791.08 Q 657.744 790.352 658.108 789.598 Q 658.472 788.844 658.472 788.324 L 658.472 784.944 Q 656.86 784.32 655.092 783.982 Q 653.324 783.644 651.608 783.644 Q 648.124 783.644 645.966 785.022 Q 643.808 786.4 643.808 788.792 Q 643.808 790.092 644.51 791.314 Q 645.212 792.536 646.59 793.316 Q 647.968 794.096 649.996 794.096 Q 652.128 794.096 654.052 793.238 Q 655.976 792.38 657.12 791.08 Z" style="fill: rgb(65, 61, 81); white-space: pre;"/>
  <path d="M 671.775 797.008 L 671.775 769.864 L 676.351 769.864 L 676.351 797.008 Z M 671.775 764.768 L 671.775 759.048 L 676.351 759.048 L 676.351 764.768 Z" style="fill: rgb(65, 61, 81); white-space: pre;"/>
  <path d="M 708.69 797.008 L 704.114 797.008 L 704.114 781.824 Q 704.114 777.508 702.788 775.506 Q 701.462 773.504 698.758 773.504 Q 696.886 773.504 695.04 774.44 Q 693.194 775.376 691.764 776.962 Q 690.334 778.548 689.71 780.628 L 689.71 797.008 L 685.134 797.008 L 685.134 769.864 L 689.294 769.864 L 689.294 775.688 Q 690.386 773.764 692.102 772.36 Q 693.818 770.956 696.002 770.176 Q 698.186 769.396 700.578 769.396 Q 702.918 769.396 704.504 770.254 Q 706.09 771.112 707 772.646 Q 707.91 774.18 708.3 776.26 Q 708.69 778.34 708.69 780.784 Z" style="fill: rgb(65, 61, 81); white-space: pre;"/>
  <path d="M 715.08 789.156 Q 715.08 786.556 716.562 784.658 Q 718.044 782.76 720.644 781.72 Q 723.244 780.68 726.676 780.68 Q 728.496 780.68 730.524 780.966 Q 732.552 781.252 734.112 781.824 L 734.112 779.848 Q 734.112 776.728 732.24 774.934 Q 730.368 773.14 726.936 773.14 Q 724.7 773.14 722.646 773.946 Q 720.592 774.752 718.304 776.26 L 716.64 773.036 Q 719.292 771.216 721.944 770.306 Q 724.596 769.396 727.456 769.396 Q 732.656 769.396 735.672 772.282 Q 738.688 775.168 738.688 780.316 L 738.688 791.808 Q 738.688 792.64 739.026 793.03 Q 739.364 793.42 740.144 793.472 L 740.144 797.008 Q 739.468 797.112 738.974 797.164 Q 738.48 797.216 738.168 797.216 Q 736.556 797.216 735.75 796.332 Q 734.944 795.448 734.84 794.46 L 734.736 792.744 Q 732.968 795.032 730.108 796.28 Q 727.248 797.528 724.44 797.528 Q 721.736 797.528 719.604 796.41 Q 717.472 795.292 716.276 793.394 Q 715.08 791.496 715.08 789.156 Z M 732.76 791.08 Q 733.384 790.352 733.748 789.598 Q 734.112 788.844 734.112 788.324 L 734.112 784.944 Q 732.5 784.32 730.732 783.982 Q 728.964 783.644 727.248 783.644 Q 723.764 783.644 721.606 785.022 Q 719.448 786.4 719.448 788.792 Q 719.448 790.092 720.15 791.314 Q 720.852 792.536 722.23 793.316 Q 723.608 794.096 725.636 794.096 Q 727.768 794.096 729.692 793.238 Q 731.616 792.38 732.76 791.08 Z" style="fill: rgb(65, 61, 81); white-space: pre;"/>
  <path d="M 761.367 797.528 Q 758.195 797.528 755.595 795.968 Q 752.995 794.408 751.487 791.912 L 751.487 797.008 L 747.431 797.008 L 747.431 759.048 L 752.007 759.048 L 752.007 775.272 Q 753.723 772.62 756.219 771.008 Q 758.715 769.396 762.043 769.396 Q 764.851 769.396 767.087 770.566 Q 769.323 771.736 770.909 773.738 Q 772.495 775.74 773.353 778.262 Q 774.211 780.784 774.211 783.54 Q 774.211 786.4 773.249 788.922 Q 772.287 791.444 770.519 793.394 Q 768.751 795.344 766.437 796.436 Q 764.123 797.528 761.367 797.528 Z M 760.223 793.576 Q 762.251 793.576 763.967 792.744 Q 765.683 791.912 766.931 790.508 Q 768.179 789.104 768.855 787.284 Q 769.531 785.464 769.531 783.54 Q 769.531 780.888 768.413 778.548 Q 767.295 776.208 765.293 774.778 Q 763.291 773.348 760.639 773.348 Q 758.715 773.348 757.051 774.232 Q 755.387 775.116 754.113 776.546 Q 752.839 777.976 752.007 779.692 L 752.007 787.544 Q 752.267 788.844 753.099 789.936 Q 753.931 791.028 755.127 791.834 Q 756.323 792.64 757.649 793.108 Q 758.975 793.576 760.223 793.576 Z" style="fill: rgb(65, 61, 81); white-space: pre;"/>
  <path d="M 781.212 797.008 L 781.212 769.864 L 785.788 769.864 L 785.788 797.008 Z M 781.212 764.768 L 781.212 759.048 L 785.788 759.048 L 785.788 764.768 Z" style="fill: rgb(65, 61, 81); white-space: pre;"/>
  <path d="M 794.691 759.048 L 799.267 759.048 L 799.267 789.988 Q 799.267 792.224 799.891 792.744 Q 800.515 793.264 801.399 793.264 Q 802.491 793.264 803.479 793.03 Q 804.467 792.796 805.143 792.536 L 805.871 796.28 Q 804.727 796.748 803.167 797.06 Q 801.607 797.372 800.411 797.372 Q 797.759 797.372 796.225 795.864 Q 794.691 794.356 794.691 791.652 Z" style="fill: rgb(65, 61, 81); white-space: pre;"/>
  <path d="M 810.853 797.008 L 810.853 769.864 L 815.429 769.864 L 815.429 797.008 Z M 810.853 764.768 L 810.853 759.048 L 815.429 759.048 L 815.429 764.768 Z" style="fill: rgb(65, 61, 81); white-space: pre;"/>
  <path d="M 838.252 795.656 Q 837.68 795.916 836.692 796.332 Q 835.704 796.748 834.404 797.06 Q 833.104 797.372 831.648 797.372 Q 829.984 797.372 828.58 796.774 Q 827.176 796.176 826.344 794.902 Q 825.512 793.628 825.512 791.704 L 825.512 773.452 L 821.82 773.452 L 821.82 769.864 L 825.512 769.864 L 825.512 760.816 L 830.088 760.816 L 830.088 769.864 L 836.172 769.864 L 836.172 773.452 L 830.088 773.452 L 830.088 790.3 Q 830.192 791.756 831.076 792.458 Q 831.96 793.16 833.156 793.16 Q 834.508 793.16 835.652 792.692 Q 836.796 792.224 837.16 792.016 Z" style="fill: rgb(65, 61, 81); white-space: pre;"/>
  <path d="M 845.163 804.392 Q 845.839 804.444 846.515 804.522 Q 847.191 804.6 847.555 804.6 Q 848.387 804.6 849.011 804.028 Q 849.635 803.456 850.389 801.818 Q 851.143 800.18 852.339 797.008 L 840.847 769.864 L 845.683 769.864 L 854.835 792.38 L 863.103 769.864 L 867.627 769.864 L 854.419 804.132 Q 853.951 805.328 853.041 806.394 Q 852.131 807.46 850.727 808.084 Q 849.323 808.708 847.347 808.708 Q 846.879 808.708 846.385 808.656 Q 845.891 808.604 845.163 808.448 Z" style="fill: rgb(65, 61, 81); white-space: pre;"/>
</svg>