<?xml version="1.0" encoding="utf-8"?>
<svg viewBox="0 0 1000 700" style="enable-background:new 0 0 1000 1000;" xmlns="http://www.w3.org/2000/svg">
  <defs>
    <style type="text/css">
	.st0{opacity:0.7;fill:#FFFFFF;}
	.st1{fill:#413D51;}
	.st2{fill:#8FE3F9;}
	.st3{fill:#B2EBF9;}
	.st4{fill:#A4E0EA;}
	.st5{fill:#7AD1E5;}
	.st6{fill:none;stroke:#413D51;stroke-width:16;stroke-linecap:round;stroke-linejoin:round;stroke-miterlimit:10;}
	.st7{fill:#F7E8AD;}
	.st8{fill:#F7D6A1;}
	.st9{fill:#EFCA92;}
	.st10{fill:#FFFFFF;}
	.st11{opacity:0.89;fill:#EFCA92;}
	.st12{fill:none;stroke:#413D51;stroke-width:8;stroke-linecap:round;stroke-linejoin:round;stroke-miterlimit:10;}
	.st13{opacity:0.31;fill:none;stroke:#72C8D6;stroke-width:8;stroke-linecap:round;stroke-linejoin:round;stroke-miterlimit:10;}
</style>
  </defs>
  <g transform="matrix(1, 0, 0, 1, 0, -199)">
    <ellipse id="XMLID_2_" class="st2" cx="501.8" cy="487.5" rx="228" ry="205.8"/>
    <ellipse id="XMLID_188_" class="st2" cx="501.8" cy="487.5" rx="228" ry="205.8"/>
    <path id="XMLID_193_" class="st3" d="M507.8,689.3c52.1,0,100.1-15.3,138.5-41l-10.5-24.7c-22-51.9-74.2-85.8-132.1-85.8l0,0 c-57.9,0-110.1,33.9-132.1,85.8l-8.6,20.4C402.3,672.3,452.8,689.3,507.8,689.3z"/>
    <path id="XMLID_189_" class="st4" d="M501.7,470.3l-43.6,64l32.9,43.8c5.4,7.2,16.3,7.2,21.7,0l32.6-43.8L501.7,470.3z"/>
    <path id="XMLID_192_" class="st5" d="M501.8,669.3c-121.5,0-220.7-85.7-227.6-193.8c-0.3,4-0.4,8-0.4,12 c0,113.6,102.1,205.8,228,205.8s228-92.1,228-205.8c0-4-0.1-8-0.4-12C722.5,583.6,623.2,669.3,501.8,669.3z"/>
    <path id="XMLID_76_" class="st4" d="M638.6,628.1c-38.1,25.8-85.5,41.2-136.8,41.2c-50,0-96.2-14.5-133.7-39.1l-5,12.3 c39.4,29.2,89.8,46.8,144.8,46.8c49.7,0,95.7-14.4,133.2-38.8c1.8-1.2,3.5-2.5,5.3-3.8L638.6,628.1z"/>
    <path id="XMLID_186_" class="st5" d="M268.2,488.2c6.4,13.1,15,25.3,25.8,36.2c52.3,52.3,137.2,52.3,189.5,0 c43.8-43.8,50.9-110.3,21.5-161.5"/>
    <path id="XMLID_185_" class="st5" d="M729,503.8c-24,36.1-65,59.8-111.6,59.8c-74,0-134-60-134-134c0-33,11.9-63.2,31.7-86.6"/>
    <ellipse id="XMLID_75_" class="st6" cx="501.8" cy="487.5" rx="228" ry="205.8"/>
    <polygon id="XMLID_74_" class="st1" points="501.7,442.3 458.1,506.3 501.9,564.6 545.4,506.3 &#9;"/>
    <polygon id="XMLID_73_" class="st6" points="501.7,442.3 458.1,506.3 501.9,564.6 545.4,506.3 &#9;"/>
    <path id="XMLID_72_" class="st1" d="M600.7,303.9c-30-14-64.1-21.9-100-21.9s-70,7.9-100,21.9v140.1h200V303.9z"/>
    <g id="XMLID_58_">
      <path id="XMLID_71_" class="st1" d="M613.5,317.9l108.7-3.3c-15.7,39.3-17.8,98.4-4.1,163c-17.4,36.8-54.4,62.9-97.9,64.2l0,0 c-61.8,1.9-113.5-46.7-115.3-108.6l0,0C503,371.4,551.6,319.8,613.5,317.9z"/>
      <path id="XMLID_70_" class="st6" d="M613.5,317.9l108.7-3.3c-15.7,39.3-17.8,98.4-4.1,163c-17.4,36.8-54.4,62.9-97.9,64.2l0,0 c-61.8,1.9-113.5-46.7-115.3-108.6l0,0C503,371.4,551.6,319.8,613.5,317.9z"/>
      <circle id="XMLID_69_" class="st7" cx="617.4" cy="429.7" r="112"/>
      <circle id="XMLID_5_" class="st7" cx="617.4" cy="429.7" r="112"/>
      <path id="XMLID_86_" class="st8" d="M696.6,350.5c-21.5-21.5-49.7-32.4-77.9-32.8c21.2,4.1,41.5,14.3,57.9,30.8 c43.7,43.7,43.7,114.6,0,158.4c-22.2,22.2-51.4,33.1-80.4,32.8c35.3,6.8,73.1-3.5,100.4-30.8C740.3,465.1,740.3,394.2,696.6,350.5 z"/>
      <ellipse id="XMLID_3_" transform="matrix(0.7071 -0.7071 0.7071 0.7071 -130.8246 543.5441)" class="st0" cx="590.7" cy="429.7" rx="84" ry="84.6"/>
      <path id="XMLID_12_" class="st9" d="M711.4,376.6c-3.1-4-9.1-15-12.8-18.7c-44-43.4-114.9-43-158.3,1.1 c-8.6,8.7-15.5,18.5-20.6,29C581.4,366.3,649,371.5,711.4,376.6z"/>
      <circle id="XMLID_68_" class="st6" cx="617.4" cy="429.7" r="112"/>
      <circle id="XMLID_67_" class="st6" cx="617.4" cy="429.7" r="112"/>
      <path id="XMLID_66_" class="st1" d="M706.7,362.1c-3.1-4-6.4-7.9-10.1-11.6c-43.7-43.7-114.6-43.7-158.4,0 c-8.7,8.7-15.6,18.4-20.8,28.8C579.4,358.1,644.3,356.5,706.7,362.1z"/>
      <circle id="XMLID_57_" class="st1" cx="562.9" cy="438.1" r="42"/>
      <circle id="XMLID_56_" class="st10" cx="539.1" cy="438.4" r="14"/>
    </g>
    <g id="XMLID_26_">
      <path id="XMLID_89_" class="st1" d="M388.8,317.9L280,314.6c15.7,39.3,17.8,98.4,4.1,163c17.4,36.8,54.4,62.9,97.9,64.2l0,0 c61.8,1.9,113.5-46.7,115.3-108.6l0,0C499.2,371.4,450.6,319.8,388.8,317.9z"/>
      <path id="XMLID_88_" class="st6" d="M388.8,317.9L280,314.6c15.7,39.3,17.8,98.4,4.1,163c17.4,36.8,54.4,62.9,97.9,64.2l0,0 c61.8,1.9,113.5-46.7,115.3-108.6l0,0C499.2,371.4,450.6,319.8,388.8,317.9z"/>
      <circle id="XMLID_87_" class="st7" cx="384.8" cy="429.7" r="112"/>
      <circle id="XMLID_84_" class="st7" cx="384.8" cy="429.7" r="112"/>
      <path id="XMLID_65_" class="st8" d="M305.6,350.5c21.5-21.5,49.7-32.4,77.9-32.8c-21.2,4.1-41.5,14.3-57.9,30.8 c-43.7,43.7-43.7,114.6,0,158.4c22.2,22.2,51.4,33.1,80.4,32.8c-35.3,6.8-73.1-3.5-100.4-30.8 C261.9,465.1,261.9,394.2,305.6,350.5z"/>
      <ellipse id="XMLID_64_" transform="matrix(0.7071 -0.7071 0.7071 0.7071 -183.3021 416.8521)" class="st0" cx="411.5" cy="429.7" rx="84.6" ry="84"/>
      <path id="XMLID_63_" class="st11" d="M290.9,376.6c3.1-4,9.1-15,12.8-18.7c44-43.4,114.9-43,158.3,1.1c8.6,8.7,15.5,18.5,20.6,29 C420.8,366.3,353.2,371.5,290.9,376.6z"/>
      <circle id="XMLID_62_" class="st6" cx="384.8" cy="429.7" r="112"/>
      <circle id="XMLID_61_" class="st6" cx="384.8" cy="429.7" r="112"/>
      <path id="XMLID_60_" class="st1" d="M295.6,362.1c3.1-4,6.4-7.9,10.1-11.6c43.7-43.7,114.6-43.7,158.4,0 c8.7,8.7,15.6,18.4,20.8,28.8C422.9,358.1,357.9,356.5,295.6,362.1z"/>
      <circle id="XMLID_59_" class="st1" cx="439.4" cy="438.1" r="42"/>
      <circle id="XMLID_37_" class="st10" cx="463.2" cy="438.4" r="14"/>
    </g>
    <path id="XMLID_19_" class="st1" d="M447.9,718.3L447.9,718.3c-8.8,0-16-7.2-16-16v-18c0-8.8,7.2-16,16-16h0c8.8,0,16,7.2,16,16v18 C463.9,711.1,456.8,718.3,447.9,718.3z"/>
    <path id="XMLID_17_" class="st1" d="M415.9,718.3L415.9,718.3c-8.8,0-16-7.2-16-16v-18c0-8.8,7.2-16,16-16h0c8.8,0,16,7.2,16,16v18 C431.9,711.1,424.8,718.3,415.9,718.3z"/>
    <path id="XMLID_16_" class="st1" d="M479.7,718.3L479.7,718.3c-8.8,0-16-7.2-16-16v-18c0-8.8,7.2-16,16-16h0c8.8,0,16,7.2,16,16v18 C495.7,711.1,488.5,718.3,479.7,718.3z"/>
    <path id="XMLID_15_" class="st1" d="M521.9,718.3L521.9,718.3c-8.8,0-16-7.2-16-16v-18c0-8.8,7.2-16,16-16h0c8.8,0,16,7.2,16,16v18 C537.9,711.1,530.7,718.3,521.9,718.3z"/>
    <path id="XMLID_14_" class="st1" d="M553.7,718.3L553.7,718.3c-8.8,0-16-7.2-16-16v-18c0-8.8,7.2-16,16-16h0c8.8,0,16,7.2,16,16v18 C569.7,711.1,562.5,718.3,553.7,718.3z"/>
    <path id="XMLID_13_" class="st1" d="M585.7,718.3L585.7,718.3c-8.8,0-16-7.2-16-16v-18c0-8.8,7.2-16,16-16h0c8.8,0,16,7.2,16,16v18 C601.7,711.1,594.5,718.3,585.7,718.3z"/>
    <path id="XMLID_11_" class="st12" d="M491.9,587.6c0,8.4-6.8,15.2-15.2,15.2c-8.4,0-15.2-6.8-15.2-15.2"/>
    <path id="XMLID_9_" class="st12" d="M538.4,587.6c0,8.4-6.8,15.2-15.2,15.2c-8.4,0-15.2-6.8-15.2-15.2"/>
    <path id="XMLID_10_" class="st13" d="M323,548.8c-2.2,4.7-7.7,6.8-12.5,4.6s-6.8-7.7-4.6-12.5"/>
    <path id="XMLID_1_" class="st13" d="M352.8,564.3c-2.2,4.7-7.7,6.8-12.5,4.6c-4.7-2.2-6.8-7.7-4.6-12.5"/>
    <path id="XMLID_78_" class="st13" d="M335.5,576.2c-2.2,4.7-7.7,6.8-12.5,4.6c-4.7-2.2-6.8-7.7-4.6-12.5"/>
    <path id="XMLID_77_" class="st13" d="M361.7,596.1c-2.2,4.7-7.7,6.8-12.5,4.6c-4.7-2.2-6.8-7.7-4.6-12.5"/>
    <path id="XMLID_79_" class="st13" d="M381.7,578.1c-2.2,4.7-7.7,6.8-12.5,4.6c-4.7-2.2-6.8-7.7-4.6-12.5"/>
    <path id="XMLID_85_" class="st13" d="M683.7,550.8c2.2,4.7,7.7,6.8,12.5,4.6s6.8-7.7,4.6-12.5"/>
    <path id="XMLID_83_" class="st13" d="M654,566.3c2.2,4.7,7.7,6.8,12.5,4.6c4.7-2.2,6.8-7.7,4.6-12.5"/>
    <path id="XMLID_82_" class="st13" d="M671.2,578.2c2.2,4.7,7.7,6.8,12.5,4.6c4.7-2.2,6.8-7.7,4.6-12.5"/>
    <path id="XMLID_81_" class="st13" d="M645.1,598.1c2.2,4.7,7.7,6.8,12.5,4.6c4.7-2.2,6.8-7.7,4.6-12.5"/>
    <path id="XMLID_80_" class="st13" d="M625.1,580.1c2.2,4.7,7.7,6.8,12.5,4.6c4.7-2.2,6.8-7.7,4.6-12.5"/>
    <path id="XMLID_8_" class="st12" d="M468.7,624.1c0,8.4-6.8,15.2-15.2,15.2c-8.4,0-15.2-6.8-15.2-15.2"/>
    <path id="XMLID_7_" class="st12" d="M515.2,624.1c0,8.4-6.8,15.2-15.2,15.2s-15.2-6.8-15.2-15.2"/>
    <path id="XMLID_6_" class="st12" d="M561.7,624.1c0,8.4-6.8,15.2-15.2,15.2c-8.4,0-15.2-6.8-15.2-15.2"/>
  </g>
  <path d="M 162.934 582.709 L 149.584 582.709 Q 147.893 582.709 147.136 581.952 Q 146.38 581.196 146.38 579.505 L 146.38 521.833 Q 146.38 520.142 147.136 519.385 Q 147.893 518.629 149.584 518.629 L 158.84 518.629 Q 160.531 518.629 161.732 519.163 Q 162.934 519.697 164.091 521.032 L 181.357 540.79 L 181.357 521.833 Q 181.357 520.142 182.113 519.385 Q 182.87 518.629 184.561 518.629 L 197.911 518.629 Q 199.602 518.629 200.358 519.385 Q 201.115 520.142 201.115 521.833 L 201.115 579.505 Q 201.115 581.196 200.358 581.952 Q 199.602 582.709 197.911 582.709 L 184.561 582.709 Q 182.87 582.709 182.113 581.952 Q 181.357 581.196 181.357 579.505 L 181.357 568.558 L 166.138 550.135 L 166.138 579.505 Q 166.138 581.196 165.381 581.952 Q 164.625 582.709 162.934 582.709 Z" style="fill: rgb(65, 61, 81); white-space: pre;"/>
  <path d="M 243.122 582.709 L 214.998 582.709 Q 213.307 582.709 212.55 581.952 Q 211.794 581.196 211.794 579.505 L 211.794 569.092 Q 211.794 567.401 212.55 566.644 Q 213.307 565.888 214.998 565.888 L 238.939 565.888 Q 240.096 565.888 240.674 565.131 Q 241.253 564.375 241.253 563.307 Q 241.253 561.794 240.674 561.082 Q 240.096 560.37 238.939 560.281 L 225.589 558.412 Q 219.359 557.522 215.576 554.318 Q 211.794 551.114 211.794 543.638 L 211.794 534.293 Q 211.794 526.728 216.689 522.678 Q 221.584 518.629 230.217 518.629 L 255.137 518.629 Q 256.828 518.629 257.584 519.385 Q 258.341 520.142 258.341 521.833 L 258.341 532.424 Q 258.341 534.115 257.584 534.871 Q 256.828 535.628 255.137 535.628 L 234.4 535.628 Q 233.243 535.628 232.62 536.384 Q 231.997 537.141 231.997 538.298 Q 231.997 539.455 232.62 540.256 Q 233.243 541.057 234.4 541.146 L 247.661 542.926 Q 253.891 543.816 257.718 547.02 Q 261.545 550.224 261.545 557.7 L 261.545 567.045 Q 261.545 574.61 256.605 578.659 Q 251.666 582.709 243.122 582.709 Z" style="fill: rgb(65, 61, 81); white-space: pre;"/>
  <path d="M 325.796 565.888 Q 325.796 569.982 324.595 573.319 Q 323.393 576.657 320.323 579.015 Q 317.252 581.374 311.912 582.709 Q 306.572 584.044 298.295 584.044 Q 290.018 584.044 284.678 582.709 Q 279.338 581.374 276.268 579.015 Q 273.197 576.657 271.996 573.319 Q 270.794 569.982 270.794 565.888 L 270.794 521.833 Q 270.794 520.142 271.551 519.385 Q 272.307 518.629 273.998 518.629 L 287.971 518.629 Q 289.662 518.629 290.419 519.385 Q 291.175 520.142 291.175 521.833 L 291.175 562.417 Q 291.175 564.197 292.51 565.398 Q 293.845 566.6 298.473 566.6 Q 303.19 566.6 304.525 565.398 Q 305.86 564.197 305.86 562.417 L 305.86 521.833 Q 305.86 520.142 306.617 519.385 Q 307.373 518.629 309.064 518.629 L 322.592 518.629 Q 324.283 518.629 325.04 519.385 Q 325.796 520.142 325.796 521.833 Z" style="fill: rgb(65, 61, 81); white-space: pre;"/>
  <path d="M 367.356 582.709 L 339.232 582.709 Q 337.541 582.709 336.785 581.952 Q 336.028 581.196 336.028 579.505 L 336.028 569.092 Q 336.028 567.401 336.785 566.644 Q 337.541 565.888 339.232 565.888 L 363.173 565.888 Q 364.33 565.888 364.909 565.131 Q 365.487 564.375 365.487 563.307 Q 365.487 561.794 364.909 561.082 Q 364.33 560.37 363.173 560.281 L 349.823 558.412 Q 343.593 557.522 339.811 554.318 Q 336.028 551.114 336.028 543.638 L 336.028 534.293 Q 336.028 526.728 340.923 522.678 Q 345.818 518.629 354.451 518.629 L 379.371 518.629 Q 381.062 518.629 381.819 519.385 Q 382.575 520.142 382.575 521.833 L 382.575 532.424 Q 382.575 534.115 381.819 534.871 Q 381.062 535.628 379.371 535.628 L 358.634 535.628 Q 357.477 535.628 356.854 536.384 Q 356.231 537.141 356.231 538.298 Q 356.231 539.455 356.854 540.256 Q 357.477 541.057 358.634 541.146 L 371.895 542.926 Q 378.125 543.816 381.952 547.02 Q 385.779 550.224 385.779 557.7 L 385.779 567.045 Q 385.779 574.61 380.84 578.659 Q 375.9 582.709 367.356 582.709 Z" style="fill: rgb(65, 61, 81); white-space: pre;"/>
  <path d="M 424.859 582.709 L 410.441 582.709 Q 408.75 582.709 407.993 581.952 Q 407.237 581.196 407.237 579.505 L 407.237 535.806 L 394.154 535.806 Q 392.463 535.806 391.706 535.049 Q 390.95 534.293 390.95 532.602 L 390.95 521.833 Q 390.95 520.142 391.706 519.385 Q 392.463 518.629 394.154 518.629 L 441.146 518.629 Q 442.837 518.629 443.593 519.385 Q 444.35 520.142 444.35 521.833 L 444.35 532.602 Q 444.35 534.293 443.593 535.049 Q 442.837 535.806 441.146 535.806 L 428.063 535.806 L 428.063 579.505 Q 428.063 581.196 427.306 581.952 Q 426.55 582.709 424.859 582.709 Z" style="fill: rgb(65, 61, 81); white-space: pre;"/>
  <path d="M 472.64 537.319 L 468.457 550.847 L 482.43 550.847 L 478.247 537.319 Q 477.891 536.518 477.491 536.162 Q 477.09 535.806 476.556 535.806 L 474.331 535.806 Q 473.797 535.806 473.397 536.162 Q 472.996 536.518 472.64 537.319 Z M 467.567 579.505 Q 467.567 581.196 466.811 581.952 Q 466.054 582.709 464.363 582.709 L 451.28 582.709 Q 449.589 582.709 448.833 581.952 Q 448.076 581.196 448.076 579.505 L 448.076 556.009 Q 448.076 553.339 448.922 549.868 Q 449.767 546.397 451.547 541.769 L 459.29 521.566 Q 459.824 520.053 460.937 519.341 Q 462.049 518.629 463.829 518.629 L 487.77 518.629 Q 489.461 518.629 490.574 519.341 Q 491.686 520.053 492.22 521.566 L 499.963 541.769 Q 501.743 546.397 502.589 549.868 Q 503.434 553.339 503.434 556.009 L 503.434 579.505 Q 503.434 581.196 502.678 581.952 Q 501.921 582.709 500.23 582.709 L 486.791 582.709 Q 485.011 582.709 484.166 581.952 Q 483.32 581.196 483.32 579.505 L 483.32 567.045 L 467.567 567.045 Z" style="fill: rgb(65, 61, 81); white-space: pre;"/>
  <path d="M 516.16 582.709 Q 514.469 582.709 513.713 581.952 Q 512.956 581.196 512.956 579.505 L 512.956 568.914 Q 512.956 567.223 513.713 566.466 Q 514.469 565.71 516.16 565.71 L 524.971 565.71 L 524.971 535.806 L 516.16 535.806 Q 514.469 535.806 513.713 535.049 Q 512.956 534.293 512.956 532.602 L 512.956 521.833 Q 512.956 520.142 513.713 519.385 Q 514.469 518.629 516.16 518.629 L 554.074 518.629 Q 555.765 518.629 556.522 519.385 Q 557.278 520.142 557.278 521.833 L 557.278 532.602 Q 557.278 534.293 556.522 535.049 Q 555.765 535.806 554.074 535.806 L 545.441 535.806 L 545.441 565.71 L 554.074 565.71 Q 555.765 565.71 556.522 566.466 Q 557.278 567.223 557.278 568.914 L 557.278 579.505 Q 557.278 581.196 556.522 581.952 Q 555.765 582.709 554.074 582.709 Z" style="fill: rgb(65, 61, 81); white-space: pre;"/>
  <path d="M 584.793 582.709 L 571.443 582.709 Q 569.752 582.709 568.996 581.952 Q 568.239 581.196 568.239 579.505 L 568.239 521.833 Q 568.239 520.142 568.996 519.385 Q 569.752 518.629 571.443 518.629 L 580.699 518.629 Q 582.39 518.629 583.592 519.163 Q 584.793 519.697 585.95 521.032 L 603.216 540.79 L 603.216 521.833 Q 603.216 520.142 603.973 519.385 Q 604.729 518.629 606.42 518.629 L 619.77 518.629 Q 621.461 518.629 622.218 519.385 Q 622.974 520.142 622.974 521.833 L 622.974 579.505 Q 622.974 581.196 622.218 581.952 Q 621.461 582.709 619.77 582.709 L 606.42 582.709 Q 604.729 582.709 603.973 581.952 Q 603.216 581.196 603.216 579.505 L 603.216 568.558 L 587.997 550.135 L 587.997 579.505 Q 587.997 581.196 587.241 581.952 Q 586.484 582.709 584.793 582.709 Z" style="fill: rgb(65, 61, 81); white-space: pre;"/>
  <path d="M 655.191 582.709 L 637.213 582.709 Q 635.522 582.709 634.766 581.952 Q 634.009 581.196 634.009 579.505 L 634.009 561.438 Q 634.009 559.747 634.766 558.99 Q 635.522 558.234 637.213 558.234 L 655.191 558.234 Q 656.882 558.234 657.639 558.99 Q 658.395 559.747 658.395 561.438 L 658.395 579.505 Q 658.395 581.196 657.639 581.952 Q 656.882 582.709 655.191 582.709 Z" style="fill: rgb(65, 61, 81); white-space: pre;"/>
  <path d="M 712.058 582.709 L 690.342 582.709 Q 679.217 582.709 673.832 578.259 Q 668.448 573.809 668.448 564.553 L 668.448 536.874 Q 668.448 527.618 673.832 523.123 Q 679.217 518.629 690.342 518.629 L 712.058 518.629 Q 713.749 518.629 714.505 519.385 Q 715.262 520.142 715.262 521.833 L 715.262 532.602 Q 715.262 534.293 714.505 535.049 Q 713.749 535.806 712.058 535.806 L 694.169 535.806 Q 691.41 535.806 690.075 536.918 Q 688.74 538.031 688.74 540.256 L 688.74 561.438 Q 688.74 563.663 690.075 564.686 Q 691.41 565.71 694.169 565.71 L 712.058 565.71 Q 713.749 565.71 714.505 566.466 Q 715.262 567.223 715.262 568.914 L 715.262 579.505 Q 715.262 581.196 714.505 581.952 Q 713.749 582.709 712.058 582.709 Z" style="fill: rgb(65, 61, 81); white-space: pre;"/>
  <path d="M 779.154 565.888 Q 779.154 569.982 777.953 573.319 Q 776.751 576.657 773.681 579.015 Q 770.61 581.374 765.226 582.709 Q 759.841 584.044 751.564 584.044 Q 743.287 584.044 737.858 582.709 Q 732.429 581.374 729.359 579.015 Q 726.288 576.657 725.087 573.319 Q 723.885 569.982 723.885 565.888 L 723.885 535.539 Q 723.885 531.445 725.087 528.107 Q 726.288 524.77 729.359 522.367 Q 732.429 519.964 737.858 518.629 Q 743.287 517.294 751.564 517.294 Q 759.841 517.294 765.226 518.629 Q 770.61 519.964 773.681 522.367 Q 776.751 524.77 777.953 528.107 Q 779.154 531.445 779.154 535.539 Z M 744.088 562.684 Q 744.088 564.464 745.423 565.665 Q 746.758 566.867 751.564 566.867 Q 756.37 566.867 757.705 565.665 Q 759.04 564.464 759.04 562.684 L 759.04 538.743 Q 759.04 537.052 757.705 535.85 Q 756.37 534.649 751.564 534.649 Q 746.758 534.649 745.423 535.85 Q 744.088 537.052 744.088 538.743 Z" style="fill: rgb(65, 61, 81); white-space: pre;"/>
  <path d="M 806.923 582.709 L 793.662 582.709 Q 791.971 582.709 791.215 581.952 Q 790.458 581.196 790.458 579.505 L 790.458 521.833 Q 790.458 520.142 791.215 519.385 Q 791.971 518.629 793.662 518.629 L 807.991 518.629 Q 809.415 518.629 810.35 519.252 Q 811.284 519.875 812.085 521.299 L 820.095 535.806 Q 820.54 536.607 820.852 536.963 Q 821.163 537.319 821.697 537.319 L 822.498 537.319 Q 823.032 537.319 823.344 536.963 Q 823.655 536.607 824.1 535.806 L 832.021 521.299 Q 832.822 519.875 833.757 519.252 Q 834.691 518.629 836.115 518.629 L 850.533 518.629 Q 852.224 518.629 852.981 519.385 Q 853.737 520.142 853.737 521.833 L 853.737 579.505 Q 853.737 581.196 852.981 581.952 Q 852.224 582.709 850.533 582.709 L 836.827 582.709 Q 835.136 582.709 834.38 581.952 Q 833.623 581.196 833.623 579.505 L 833.623 548.177 L 828.372 557.878 Q 827.571 559.391 826.459 560.058 Q 825.346 560.726 823.655 560.726 L 820.095 560.726 Q 818.404 560.726 817.292 560.058 Q 816.179 559.391 815.378 557.878 L 810.127 548.177 L 810.127 579.505 Q 810.127 581.196 809.371 581.952 Q 808.614 582.709 806.923 582.709 Z" style="fill: rgb(65, 61, 81); white-space: pre;"/>
  <path d="M 156.959 639.387 C 154.467 639.387 152.303 638.882 150.468 637.871 C 148.633 636.861 147.218 635.363 146.225 633.376 C 145.232 631.389 144.735 628.965 144.735 626.102 C 144.735 621.691 145.77 618.349 147.841 616.076 C 149.912 613.803 152.8 612.666 156.504 612.666 C 159.232 612.666 161.437 613.273 163.121 614.485 C 164.805 615.697 166.025 617.389 166.783 619.561 C 167.541 621.733 167.903 624.267 167.869 627.163 L 147.917 627.163 L 147.766 623.223 L 163.828 623.223 L 162.565 624.486 C 162.464 621.893 161.926 619.999 160.949 618.804 C 159.973 617.608 158.44 617.01 156.353 617.01 C 155.006 617.01 153.861 617.288 152.918 617.844 C 151.975 618.399 151.259 619.342 150.771 620.672 C 150.283 622.003 150.039 623.829 150.039 626.153 C 150.039 628.982 150.695 631.128 152.009 632.593 C 153.322 634.058 155.258 634.79 157.817 634.79 C 158.962 634.79 160.031 634.689 161.025 634.487 C 162.018 634.285 162.936 634.024 163.778 633.704 C 164.62 633.384 165.344 633.073 165.95 632.77 L 165.95 637.669 C 164.771 638.175 163.441 638.587 161.959 638.907 C 160.478 639.227 158.811 639.387 156.959 639.387 Z" style="fill: rgb(65, 61, 81); white-space: pre;"/>
  <path d="M 175.432 615.344 C 176.173 614.973 177.006 614.628 177.932 614.308 C 178.858 613.988 179.843 613.71 180.887 613.475 C 181.931 613.239 182.992 613.054 184.07 612.919 C 185.147 612.784 186.191 612.717 187.201 612.717 C 189.592 612.717 191.545 613.045 193.06 613.702 C 194.576 614.359 195.704 615.369 196.445 616.733 C 197.186 618.096 197.556 619.805 197.556 621.859 L 197.556 638.629 L 192.252 638.629 L 192.252 622.567 C 192.252 621.927 192.177 621.295 192.025 620.672 C 191.873 620.049 191.587 619.477 191.166 618.955 C 190.745 618.433 190.139 618.021 189.348 617.718 C 188.557 617.414 187.521 617.263 186.241 617.263 C 185.332 617.263 184.398 617.347 183.438 617.516 C 182.478 617.684 181.578 617.92 180.736 618.223 L 180.736 638.629 L 175.432 638.629 L 175.432 615.344 Z" style="fill: rgb(65, 61, 81); white-space: pre;"/>
  <path d="M 214.516 638.629 L 203.858 613.273 L 209.515 613.273 L 218.203 634.336 L 216.941 634.487 L 225.022 613.273 L 230.528 613.273 L 219.82 638.629 L 214.516 638.629 Z" style="fill: rgb(65, 61, 81); white-space: pre;"/>
  <path d="M 237.387 638.629 L 237.387 613.424 L 242.69 613.424 L 242.741 638.629 L 237.387 638.629 Z M 237.235 609.232 L 237.235 604.433 L 242.893 604.433 L 242.893 609.232 L 237.235 609.232 Z" style="fill: rgb(65, 61, 81); white-space: pre;"/>
  <path d="M 251.836 638.629 L 251.836 615.596 C 252.274 615.327 253.082 614.956 254.26 614.485 C 255.439 614.013 256.836 613.601 258.453 613.247 C 260.069 612.894 261.702 612.717 263.352 612.717 C 264.194 612.717 264.885 612.784 265.423 612.919 C 265.962 613.054 266.417 613.205 266.787 613.374 L 266.787 617.617 C 266.013 617.516 265.204 617.44 264.363 617.389 C 263.521 617.339 262.679 617.339 261.837 617.389 C 260.995 617.44 260.17 617.516 259.362 617.617 C 258.554 617.718 257.813 617.819 257.14 617.92 L 257.14 638.629 L 251.836 638.629 Z" style="fill: rgb(65, 61, 81); white-space: pre;"/>
  <path d="M 282.883 639.387 C 278.774 639.387 275.719 638.225 273.715 635.902 C 271.711 633.578 270.71 630.261 270.71 625.951 C 270.71 621.371 271.745 618.012 273.816 615.874 C 275.887 613.736 278.875 612.666 282.782 612.666 C 285.577 612.666 287.883 613.18 289.702 614.207 C 291.52 615.234 292.867 616.741 293.743 618.728 C 294.618 620.715 295.056 623.122 295.056 625.951 C 295.056 630.227 294.004 633.536 291.899 635.876 C 289.794 638.217 286.789 639.387 282.883 639.387 Z M 282.832 634.891 C 284.55 634.891 285.913 634.512 286.924 633.755 C 287.934 632.997 288.666 631.945 289.121 630.598 C 289.575 629.251 289.803 627.702 289.803 625.951 C 289.803 623.998 289.567 622.365 289.096 621.051 C 288.624 619.738 287.883 618.753 286.873 618.096 C 285.863 617.44 284.516 617.111 282.832 617.111 C 281.148 617.111 279.802 617.465 278.791 618.172 C 277.781 618.879 277.057 619.89 276.619 621.203 C 276.182 622.516 275.963 624.099 275.963 625.951 C 275.963 628.746 276.485 630.935 277.529 632.517 C 278.572 634.1 280.34 634.891 282.832 634.891 Z" style="fill: rgb(65, 61, 81); white-space: pre;"/>
  <path d="M 302.681 615.344 C 303.422 614.973 304.255 614.628 305.181 614.308 C 306.107 613.988 307.092 613.71 308.136 613.475 C 309.18 613.239 310.241 613.054 311.318 612.919 C 312.396 612.784 313.44 612.717 314.45 612.717 C 316.841 612.717 318.794 613.045 320.309 613.702 C 321.825 614.359 322.953 615.369 323.694 616.733 C 324.435 618.096 324.805 619.805 324.805 621.859 L 324.805 638.629 L 319.501 638.629 L 319.501 622.567 C 319.501 621.927 319.425 621.295 319.274 620.672 C 319.122 620.049 318.836 619.477 318.415 618.955 C 317.994 618.433 317.388 618.021 316.597 617.718 C 315.806 617.414 314.77 617.263 313.49 617.263 C 312.581 617.263 311.647 617.347 310.687 617.516 C 309.727 617.684 308.827 617.92 307.985 618.223 L 307.985 638.629 L 302.681 638.629 L 302.681 615.344 Z" style="fill: rgb(65, 61, 81); white-space: pre;"/>
  <path d="M 355.707 621.859 L 355.707 638.629 L 350.403 638.629 L 350.403 622.567 C 350.403 621.927 350.328 621.295 350.176 620.672 C 350.024 620.049 349.738 619.477 349.317 618.955 C 348.896 618.433 348.29 618.021 347.499 617.718 C 346.708 617.414 345.672 617.263 344.393 617.263 C 343.483 617.263 342.574 617.347 341.665 617.516 C 340.756 617.684 339.88 617.92 339.038 618.223 L 339.038 638.629 L 333.735 638.629 L 333.735 615.344 C 334.476 614.973 335.309 614.628 336.235 614.308 C 337.161 613.988 338.146 613.71 339.19 613.475 C 340.234 613.239 341.295 613.054 342.372 612.919 C 343.45 612.784 344.494 612.717 345.504 612.717 C 347.895 612.717 349.831 613.045 351.313 613.702 C 352.794 614.359 353.897 615.369 354.621 616.733 C 355.345 618.096 355.707 619.805 355.707 621.859 Z M 349.646 616.657 C 350.723 615.781 351.91 615.057 353.207 614.485 C 354.503 613.912 355.85 613.475 357.248 613.172 C 358.645 612.868 360.017 612.717 361.364 612.717 C 363.755 612.717 365.691 613.045 367.173 613.702 C 368.655 614.359 369.757 615.369 370.481 616.733 C 371.205 618.096 371.567 619.805 371.567 621.859 L 371.567 638.629 L 366.264 638.629 L 366.264 622.567 C 366.264 621.927 366.188 621.295 366.036 620.672 C 365.885 620.049 365.599 619.477 365.178 618.955 C 364.757 618.433 364.151 618.021 363.359 617.718 C 362.568 617.414 361.533 617.263 360.253 617.263 C 359.344 617.263 358.435 617.398 357.525 617.667 C 356.616 617.936 355.741 618.357 354.899 618.93 L 349.646 616.657 Z" style="fill: rgb(65, 61, 81); white-space: pre;"/>
  <path d="M 391.407 639.387 C 388.915 639.387 386.751 638.882 384.916 637.871 C 383.081 636.861 381.666 635.363 380.673 633.376 C 379.68 631.389 379.183 628.965 379.183 626.102 C 379.183 621.691 380.218 618.349 382.289 616.076 C 384.36 613.803 387.248 612.666 390.952 612.666 C 393.68 612.666 395.885 613.273 397.569 614.485 C 399.253 615.697 400.473 617.389 401.231 619.561 C 401.989 621.733 402.351 624.267 402.317 627.163 L 382.365 627.163 L 382.214 623.223 L 398.276 623.223 L 397.013 624.486 C 396.912 621.893 396.374 619.999 395.397 618.804 C 394.42 617.608 392.888 617.01 390.801 617.01 C 389.454 617.01 388.309 617.288 387.366 617.844 C 386.423 618.399 385.707 619.342 385.219 620.672 C 384.731 622.003 384.487 623.829 384.487 626.153 C 384.487 628.982 385.143 631.128 386.457 632.593 C 387.77 634.058 389.706 634.79 392.265 634.79 C 393.41 634.79 394.479 634.689 395.473 634.487 C 396.466 634.285 397.384 634.024 398.226 633.704 C 399.067 633.384 399.791 633.073 400.398 632.77 L 400.398 637.669 C 399.219 638.175 397.889 638.587 396.407 638.907 C 394.926 639.227 393.259 639.387 391.407 639.387 Z" style="fill: rgb(65, 61, 81); white-space: pre;"/>
  <path d="M 409.896 615.344 C 410.636 614.973 411.47 614.628 412.396 614.308 C 413.322 613.988 414.307 613.71 415.351 613.475 C 416.395 613.239 417.455 613.054 418.533 612.919 C 419.611 612.784 420.654 612.717 421.665 612.717 C 424.056 612.717 426.009 613.045 427.524 613.702 C 429.039 614.359 430.167 615.369 430.908 616.733 C 431.649 618.096 432.019 619.805 432.019 621.859 L 432.019 638.629 L 426.716 638.629 L 426.716 622.567 C 426.716 621.927 426.64 621.295 426.488 620.672 C 426.337 620.049 426.051 619.477 425.63 618.955 C 425.209 618.433 424.603 618.021 423.811 617.718 C 423.02 617.414 421.985 617.263 420.705 617.263 C 419.796 617.263 418.861 617.347 417.902 617.516 C 416.942 617.684 416.041 617.92 415.199 618.223 L 415.199 638.629 L 409.896 638.629 L 409.896 615.344 Z" style="fill: rgb(65, 61, 81); white-space: pre;"/>
  <path d="M 449.991 639.286 C 447.701 639.286 445.891 638.68 444.561 637.467 C 443.231 636.255 442.566 634.47 442.566 632.113 L 442.566 617.667 L 438.474 617.667 L 438.474 613.273 L 442.566 613.273 L 442.566 606.201 L 448.021 606.201 L 448.021 613.273 L 454.183 613.273 L 454.183 617.667 L 448.021 617.667 L 448.021 631.052 C 448.021 632.231 448.231 633.115 448.652 633.704 C 449.073 634.294 449.856 634.588 451.001 634.588 C 451.573 634.588 452.146 634.512 452.718 634.361 C 453.291 634.209 453.779 634.016 454.183 633.78 L 454.183 638.478 C 453.577 638.747 452.895 638.949 452.137 639.084 C 451.38 639.218 450.664 639.286 449.991 639.286 Z" style="fill: rgb(65, 61, 81); white-space: pre;"/>
  <path d="M 498.767 638.629 L 482.906 619.536 C 482.166 618.627 481.433 617.549 480.709 616.303 C 479.985 615.057 479.623 613.828 479.623 612.616 C 479.623 611.134 480.027 609.779 480.835 608.55 C 481.644 607.321 482.73 606.336 484.093 605.595 C 485.457 604.854 486.981 604.484 488.665 604.484 C 490.348 604.484 491.838 604.82 493.135 605.494 C 494.431 606.167 495.458 607.093 496.216 608.272 C 496.974 609.451 497.353 610.764 497.353 612.212 C 497.353 613.592 497.041 614.779 496.418 615.773 C 495.795 616.766 494.928 617.675 493.817 618.5 C 492.706 619.325 491.392 620.193 489.877 621.102 L 487.654 618.021 C 489.001 617.28 490.012 616.606 490.685 616 C 491.359 615.394 491.805 614.813 492.024 614.258 C 492.243 613.702 492.352 613.155 492.352 612.616 C 492.352 611.606 492.007 610.781 491.316 610.141 C 490.626 609.501 489.759 609.181 488.715 609.181 C 487.671 609.181 486.787 609.526 486.063 610.217 C 485.339 610.907 484.977 611.74 484.977 612.717 C 484.977 613.155 485.154 613.677 485.508 614.283 C 485.861 614.889 486.265 615.503 486.72 616.126 C 487.175 616.749 487.604 617.297 488.008 617.768 L 505.434 638.629 L 498.767 638.629 Z M 486.947 639.134 C 485.129 639.134 483.546 638.848 482.199 638.276 C 480.852 637.703 479.749 636.937 478.891 635.977 C 478.032 635.018 477.384 633.982 476.946 632.871 C 476.508 631.76 476.289 630.682 476.289 629.638 C 476.289 628.527 476.517 627.374 476.971 626.178 C 477.426 624.983 478.217 623.796 479.345 622.617 C 480.473 621.439 482.031 620.344 484.018 619.334 L 487.351 622.314 C 485.903 623.122 484.784 623.956 483.992 624.814 C 483.201 625.673 482.654 626.481 482.351 627.239 C 482.048 627.997 481.896 628.678 481.896 629.285 C 481.896 629.689 481.972 630.185 482.123 630.775 C 482.275 631.364 482.553 631.953 482.957 632.543 C 483.361 633.132 483.95 633.62 484.725 634.007 C 485.499 634.395 486.493 634.588 487.705 634.588 C 489.052 634.588 490.332 634.226 491.544 633.502 C 492.756 632.778 493.733 632.012 494.473 631.204 L 497.302 634.588 C 496.561 635.396 495.694 636.146 494.701 636.836 C 493.707 637.526 492.562 638.082 491.266 638.503 C 489.97 638.924 488.53 639.134 486.947 639.134 Z M 496.645 628.83 C 497.05 628.19 497.386 627.525 497.656 626.835 C 497.925 626.144 498.144 625.513 498.312 624.941 C 498.481 624.368 498.599 623.947 498.666 623.678 L 502.959 623.678 C 502.757 624.823 502.362 626.144 501.772 627.643 C 501.183 629.141 500.451 630.581 499.575 631.962 L 496.645 628.83 Z" style="fill: rgb(65, 61, 81); white-space: pre;"/>
  <path d="M 535.468 639.387 C 533.65 639.387 532.109 639.193 530.846 638.806 C 529.583 638.419 528.346 637.939 527.134 637.366 L 527.134 632.366 C 528.009 632.905 528.868 633.384 529.71 633.805 C 530.552 634.226 531.436 634.555 532.362 634.79 C 533.288 635.026 534.323 635.144 535.468 635.144 C 536.916 635.144 538.052 634.841 538.877 634.235 C 539.703 633.629 540.115 632.871 540.115 631.962 C 540.115 631.187 539.854 630.581 539.332 630.143 C 538.81 629.706 538.145 629.335 537.337 629.032 C 536.529 628.729 535.687 628.426 534.811 628.123 C 533.902 627.887 532.993 627.609 532.084 627.289 C 531.175 626.969 530.341 626.532 529.583 625.976 C 528.826 625.42 528.22 624.705 527.765 623.829 C 527.31 622.954 527.083 621.876 527.083 620.597 C 527.083 619.182 527.369 617.979 527.942 616.985 C 528.514 615.992 529.264 615.184 530.19 614.561 C 531.116 613.938 532.143 613.483 533.271 613.197 C 534.399 612.911 535.502 612.767 536.579 612.767 C 538.364 612.801 539.82 613.02 540.948 613.424 C 542.077 613.828 543.179 614.316 544.257 614.889 L 544.307 619.435 C 543.095 618.795 541.95 618.24 540.873 617.768 C 539.795 617.297 538.549 617.061 537.135 617.061 C 535.822 617.061 534.727 617.305 533.852 617.793 C 532.976 618.282 532.538 618.997 532.538 619.94 C 532.538 620.748 532.782 621.388 533.271 621.859 C 533.759 622.331 534.399 622.701 535.19 622.971 C 535.982 623.24 536.832 623.509 537.741 623.779 C 538.583 624.048 539.458 624.326 540.368 624.612 C 541.277 624.899 542.119 625.311 542.893 625.85 C 543.668 626.389 544.299 627.096 544.787 627.971 C 545.276 628.847 545.52 629.992 545.52 631.406 C 545.486 633.292 544.989 634.824 544.03 636.003 C 543.07 637.181 541.816 638.04 540.267 638.579 C 538.718 639.117 537.118 639.387 535.468 639.387 Z" style="fill: rgb(65, 61, 81); white-space: pre;"/>
  <path d="M 564.416 639.387 C 562.092 639.387 560.097 639.008 558.43 638.25 C 556.763 637.493 555.475 636.356 554.566 634.841 C 553.657 633.325 553.202 631.44 553.202 629.184 L 553.202 613.273 L 558.506 613.273 L 558.506 628.426 C 558.506 630.581 558.986 632.172 559.945 633.199 C 560.905 634.226 562.395 634.74 564.416 634.74 C 566.436 634.74 567.926 634.226 568.886 633.199 C 569.846 632.172 570.325 630.581 570.325 628.426 L 570.325 613.273 L 575.427 613.273 L 575.427 629.184 C 575.427 632.551 574.459 635.093 572.523 636.811 C 570.586 638.528 567.884 639.387 564.416 639.387 Z" style="fill: rgb(65, 61, 81); white-space: pre;"/>
  <path d="M 591.671 639.387 C 589.853 639.387 588.312 639.193 587.049 638.806 C 585.787 638.419 584.549 637.939 583.337 637.366 L 583.337 632.366 C 584.212 632.905 585.071 633.384 585.913 633.805 C 586.755 634.226 587.639 634.555 588.565 634.79 C 589.491 635.026 590.526 635.144 591.671 635.144 C 593.119 635.144 594.256 634.841 595.081 634.235 C 595.906 633.629 596.318 632.871 596.318 631.962 C 596.318 631.187 596.057 630.581 595.535 630.143 C 595.013 629.706 594.348 629.335 593.54 629.032 C 592.732 628.729 591.89 628.426 591.015 628.123 C 590.105 627.887 589.196 627.609 588.287 627.289 C 587.378 626.969 586.544 626.532 585.787 625.976 C 585.029 625.42 584.423 624.705 583.968 623.829 C 583.514 622.954 583.286 621.876 583.286 620.597 C 583.286 619.182 583.573 617.979 584.145 616.985 C 584.718 615.992 585.467 615.184 586.393 614.561 C 587.319 613.938 588.346 613.483 589.474 613.197 C 590.602 612.911 591.705 612.767 592.782 612.767 C 594.567 612.801 596.024 613.02 597.152 613.424 C 598.28 613.828 599.383 614.316 600.46 614.889 L 600.511 619.435 C 599.298 618.795 598.153 618.24 597.076 617.768 C 595.998 617.297 594.752 617.061 593.338 617.061 C 592.025 617.061 590.93 617.305 590.055 617.793 C 589.179 618.282 588.742 618.997 588.742 619.94 C 588.742 620.748 588.986 621.388 589.474 621.859 C 589.962 622.331 590.602 622.701 591.393 622.971 C 592.185 623.24 593.035 623.509 593.944 623.779 C 594.786 624.048 595.662 624.326 596.571 624.612 C 597.48 624.899 598.322 625.311 599.096 625.85 C 599.871 626.389 600.502 627.096 600.991 627.971 C 601.479 628.847 601.723 629.992 601.723 631.406 C 601.689 633.292 601.193 634.824 600.233 636.003 C 599.273 637.181 598.019 638.04 596.47 638.579 C 594.921 639.117 593.321 639.387 591.671 639.387 Z" style="fill: rgb(65, 61, 81); white-space: pre;"/>
  <path d="M 618.447 639.286 C 616.157 639.286 614.347 638.68 613.017 637.467 C 611.687 636.255 611.022 634.47 611.022 632.113 L 611.022 617.667 L 606.93 617.667 L 606.93 613.273 L 611.022 613.273 L 611.022 606.201 L 616.477 606.201 L 616.477 613.273 L 622.639 613.273 L 622.639 617.667 L 616.477 617.667 L 616.477 631.052 C 616.477 632.231 616.687 633.115 617.108 633.704 C 617.529 634.294 618.312 634.588 619.457 634.588 C 620.03 634.588 620.602 634.512 621.175 634.361 C 621.747 634.209 622.235 634.016 622.639 633.78 L 622.639 638.478 C 622.033 638.747 621.351 638.949 620.594 639.084 C 619.836 639.218 619.12 639.286 618.447 639.286 Z" style="fill: rgb(65, 61, 81); white-space: pre;"/>
  <path d="M 639.452 639.387 C 638.138 639.387 636.876 639.261 635.663 639.008 C 634.451 638.755 633.348 638.326 632.355 637.72 C 631.362 637.114 630.57 636.28 629.981 635.22 C 629.392 634.159 629.097 632.837 629.097 631.255 C 629.097 629.369 629.467 627.82 630.208 626.607 C 630.949 625.395 632.01 624.486 633.39 623.88 C 634.771 623.274 636.421 622.971 638.341 622.971 C 639.62 622.971 640.773 623.072 641.801 623.274 C 642.828 623.476 643.754 623.754 644.579 624.107 C 645.404 624.461 646.102 624.856 646.675 625.294 L 647.23 628.779 C 646.49 628.274 645.496 627.845 644.25 627.491 C 643.004 627.138 641.657 626.961 640.209 626.961 C 638.29 626.961 636.834 627.298 635.84 627.971 C 634.847 628.645 634.35 629.655 634.35 631.002 C 634.35 632.012 634.636 632.829 635.209 633.452 C 635.781 634.075 636.497 634.529 637.356 634.816 C 638.214 635.102 639.115 635.245 640.058 635.245 C 642.045 635.245 643.509 635.11 644.452 634.841 C 645.395 634.571 645.867 633.948 645.867 632.972 L 645.867 622.365 C 645.867 620.58 645.328 619.275 644.25 618.45 C 643.173 617.625 641.641 617.212 639.654 617.212 C 638.24 617.212 636.775 617.44 635.259 617.894 C 633.744 618.349 632.498 618.98 631.522 619.789 L 631.522 614.838 C 632.464 614.199 633.837 613.685 635.638 613.298 C 637.44 612.911 639.3 612.717 641.22 612.717 C 642.163 612.717 643.114 612.81 644.074 612.995 C 645.033 613.18 645.934 613.466 646.776 613.853 C 647.618 614.241 648.367 614.763 649.024 615.419 C 649.68 616.076 650.194 616.876 650.564 617.819 C 650.935 618.761 651.12 619.873 651.12 621.152 L 651.12 633.275 C 651.12 634.925 650.606 636.196 649.579 637.089 C 648.552 637.981 647.163 638.587 645.412 638.907 C 643.661 639.227 641.674 639.387 639.452 639.387 Z" style="fill: rgb(65, 61, 81); white-space: pre;"/>
  <path d="M 660.204 638.629 L 660.204 613.424 L 665.508 613.424 L 665.558 638.629 L 660.204 638.629 Z M 660.053 609.232 L 660.053 604.433 L 665.71 604.433 L 665.71 609.232 L 660.053 609.232 Z" style="fill: rgb(65, 61, 81); white-space: pre;"/>
  <path d="M 674.639 615.344 C 675.379 614.973 676.213 614.628 677.139 614.308 C 678.065 613.988 679.05 613.71 680.094 613.475 C 681.138 613.239 682.198 613.054 683.276 612.919 C 684.353 612.784 685.397 612.717 686.408 612.717 C 688.798 612.717 690.752 613.045 692.267 613.702 C 693.782 614.359 694.91 615.369 695.651 616.733 C 696.392 618.096 696.762 619.805 696.762 621.859 L 696.762 638.629 L 691.459 638.629 L 691.459 622.567 C 691.459 621.927 691.383 621.295 691.231 620.672 C 691.08 620.049 690.794 619.477 690.373 618.955 C 689.952 618.433 689.346 618.021 688.554 617.718 C 687.763 617.414 686.728 617.263 685.448 617.263 C 684.539 617.263 683.604 617.347 682.645 617.516 C 681.685 617.684 680.784 617.92 679.942 618.223 L 679.942 638.629 L 674.639 638.629 L 674.639 615.344 Z" style="fill: rgb(65, 61, 81); white-space: pre;"/>
  <path d="M 714.885 639.387 C 713.572 639.387 712.309 639.261 711.097 639.008 C 709.885 638.755 708.782 638.326 707.788 637.72 C 706.795 637.114 706.004 636.28 705.414 635.22 C 704.825 634.159 704.53 632.837 704.53 631.255 C 704.53 629.369 704.901 627.82 705.642 626.607 C 706.382 625.395 707.443 624.486 708.824 623.88 C 710.204 623.274 711.854 622.971 713.774 622.971 C 715.054 622.971 716.207 623.072 717.234 623.274 C 718.261 623.476 719.187 623.754 720.012 624.107 C 720.837 624.461 721.536 624.856 722.108 625.294 L 722.664 628.779 C 721.923 628.274 720.93 627.845 719.684 627.491 C 718.438 627.138 717.091 626.961 715.643 626.961 C 713.723 626.961 712.267 627.298 711.274 627.971 C 710.28 628.645 709.784 629.655 709.784 631.002 C 709.784 632.012 710.07 632.829 710.642 633.452 C 711.215 634.075 711.93 634.529 712.789 634.816 C 713.648 635.102 714.548 635.245 715.491 635.245 C 717.478 635.245 718.943 635.11 719.886 634.841 C 720.829 634.571 721.3 633.948 721.3 632.972 L 721.3 622.365 C 721.3 620.58 720.761 619.275 719.684 618.45 C 718.606 617.625 717.074 617.212 715.087 617.212 C 713.673 617.212 712.208 617.44 710.693 617.894 C 709.177 618.349 707.931 618.98 706.955 619.789 L 706.955 614.838 C 707.898 614.199 709.27 613.685 711.072 613.298 C 712.873 612.911 714.734 612.717 716.653 612.717 C 717.596 612.717 718.547 612.81 719.507 612.995 C 720.467 613.18 721.367 613.466 722.209 613.853 C 723.051 614.241 723.8 614.763 724.457 615.419 C 725.114 616.076 725.627 616.876 725.998 617.819 C 726.368 618.761 726.553 619.873 726.553 621.152 L 726.553 633.275 C 726.553 634.925 726.04 636.196 725.013 637.089 C 723.986 637.981 722.597 638.587 720.845 638.907 C 719.094 639.227 717.108 639.387 714.885 639.387 Z" style="fill: rgb(65, 61, 81); white-space: pre;"/>
  <path d="M 746.194 639.387 C 744.814 639.387 743.483 639.303 742.204 639.134 C 740.924 638.966 739.779 638.671 738.769 638.25 C 737.759 637.829 736.959 637.248 736.37 636.508 C 735.781 635.767 735.486 634.807 735.486 633.629 L 735.486 603.12 L 740.739 603.12 L 740.739 616.808 L 739.375 615.091 C 740.015 614.586 740.815 614.165 741.775 613.828 C 742.734 613.491 743.711 613.222 744.704 613.02 C 745.698 612.818 746.548 612.717 747.255 612.717 C 751.094 612.717 753.973 613.853 755.892 616.126 C 757.812 618.399 758.771 621.59 758.771 625.698 C 758.771 628.46 758.409 630.733 757.685 632.517 C 756.961 634.302 756.002 635.691 754.806 636.684 C 753.611 637.678 752.264 638.377 750.765 638.781 C 749.267 639.185 747.743 639.387 746.194 639.387 Z M 745.942 634.79 C 747.928 634.79 749.461 634.386 750.538 633.578 C 751.616 632.77 752.357 631.701 752.761 630.371 C 753.165 629.04 753.367 627.55 753.367 625.9 C 753.367 624.015 753.114 622.432 752.609 621.152 C 752.104 619.873 751.346 618.896 750.336 618.223 C 749.326 617.549 748.029 617.212 746.447 617.212 C 745.571 617.212 744.62 617.33 743.593 617.566 C 742.566 617.802 741.615 618.172 740.739 618.677 L 740.739 632.315 C 740.739 632.989 741.008 633.511 741.547 633.881 C 742.086 634.252 742.751 634.496 743.542 634.613 C 744.334 634.731 745.133 634.79 745.942 634.79 Z" style="fill: rgb(65, 61, 81); white-space: pre;"/>
  <path d="M 766.539 638.629 L 766.539 613.424 L 771.842 613.424 L 771.893 638.629 L 766.539 638.629 Z M 766.387 609.232 L 766.387 604.433 L 772.044 604.433 L 772.044 609.232 L 766.387 609.232 Z" style="fill: rgb(65, 61, 81); white-space: pre;"/>
  <path d="M 786.241 638.629 L 780.988 638.629 L 780.988 603.675 L 786.241 603.675 L 786.241 638.629 Z" style="fill: rgb(65, 61, 81); white-space: pre;"/>
  <path d="M 795.315 638.629 L 795.315 613.424 L 800.619 613.424 L 800.669 638.629 L 795.315 638.629 Z M 795.164 609.232 L 795.164 604.433 L 800.821 604.433 L 800.821 609.232 L 795.164 609.232 Z" style="fill: rgb(65, 61, 81); white-space: pre;"/>
  <path d="M 818.791 639.286 C 816.501 639.286 814.691 638.68 813.361 637.467 C 812.031 636.255 811.366 634.47 811.366 632.113 L 811.366 617.667 L 807.275 617.667 L 807.275 613.273 L 811.366 613.273 L 811.366 606.201 L 816.821 606.201 L 816.821 613.273 L 822.984 613.273 L 822.984 617.667 L 816.821 617.667 L 816.821 631.052 C 816.821 632.231 817.032 633.115 817.453 633.704 C 817.874 634.294 818.657 634.588 819.801 634.588 C 820.374 634.588 820.946 634.512 821.519 634.361 C 822.091 634.209 822.58 634.016 822.984 633.78 L 822.984 638.478 C 822.377 638.747 821.696 638.949 820.938 639.084 C 820.18 639.218 819.465 639.286 818.791 639.286 Z" style="fill: rgb(65, 61, 81); white-space: pre;"/>
  <path d="M 834.543 648.428 C 833.903 648.428 833.297 648.369 832.724 648.251 C 832.152 648.134 831.647 647.991 831.209 647.822 L 831.209 643.276 C 831.613 643.411 832.017 643.529 832.421 643.63 C 832.826 643.731 833.263 643.781 833.735 643.781 C 834.745 643.781 835.587 643.512 836.26 642.973 C 836.934 642.434 837.506 641.66 837.978 640.65 C 838.449 639.639 838.836 638.427 839.139 637.013 L 839.24 639.639 L 828.431 613.273 L 834.442 613.273 L 841.766 633.275 L 841.008 633.275 L 848.231 613.273 L 853.737 613.273 L 843.281 640.195 C 842.439 642.35 841.53 644.025 840.554 645.221 C 839.577 646.416 838.575 647.25 837.548 647.721 C 836.521 648.193 835.519 648.428 834.543 648.428 Z" style="fill: rgb(65, 61, 81); white-space: pre;"/>
</svg>