<?xml version="1.0" encoding="utf-8"?>
<svg viewBox="0 100 1000 800" style="enable-background:new 0 0 1000 1000;" xmlns="http://www.w3.org/2000/svg">
  <defs>
    <style type="text/css">
	.st0{opacity:0.7;fill:#FFFFFF;}
	.st1{fill:#413D51;}
	.st2{fill:#8FE3F9;}
	.st3{fill:#B2EBF9;}
	.st4{fill:#A4E0EA;}
	.st5{fill:#7AD1E5;}
	.st6{fill:none;stroke:#413D51;stroke-width:16;stroke-linecap:round;stroke-linejoin:round;stroke-miterlimit:10;}
	.st7{fill:#F7E8AD;}
	.st8{fill:#F7D6A1;}
	.st9{fill:#EFCA92;}
	.st10{fill:#FFFFFF;}
	.st11{opacity:0.89;fill:#EFCA92;}
	.st12{fill:none;stroke:#413D51;stroke-width:8;stroke-linecap:round;stroke-linejoin:round;stroke-miterlimit:10;}
	.st13{opacity:0.31;fill:none;stroke:#72C8D6;stroke-width:8;stroke-linecap:round;stroke-linejoin:round;stroke-miterlimit:10;}
</style>
  </defs>
  <rect class="st0" width="1000" height="1000" style="opacity: 1;"/>
  <g transform="matrix(1, 0, 0, 1, 0, -103)">
    <ellipse id="XMLID_2_" class="st2" cx="501.8" cy="487.5" rx="228" ry="205.8"/>
    <ellipse id="XMLID_188_" class="st2" cx="501.8" cy="487.5" rx="228" ry="205.8"/>
    <path id="XMLID_193_" class="st3" d="M507.8,689.3c52.1,0,100.1-15.3,138.5-41l-10.5-24.7c-22-51.9-74.2-85.8-132.1-85.8l0,0 c-57.9,0-110.1,33.9-132.1,85.8l-8.6,20.4C402.3,672.3,452.8,689.3,507.8,689.3z"/>
    <path id="XMLID_189_" class="st4" d="M501.7,470.3l-43.6,64l32.9,43.8c5.4,7.2,16.3,7.2,21.7,0l32.6-43.8L501.7,470.3z"/>
    <path id="XMLID_192_" class="st5" d="M501.8,669.3c-121.5,0-220.7-85.7-227.6-193.8c-0.3,4-0.4,8-0.4,12 c0,113.6,102.1,205.8,228,205.8s228-92.1,228-205.8c0-4-0.1-8-0.4-12C722.5,583.6,623.2,669.3,501.8,669.3z"/>
    <path id="XMLID_76_" class="st4" d="M638.6,628.1c-38.1,25.8-85.5,41.2-136.8,41.2c-50,0-96.2-14.5-133.7-39.1l-5,12.3 c39.4,29.2,89.8,46.8,144.8,46.8c49.7,0,95.7-14.4,133.2-38.8c1.8-1.2,3.5-2.5,5.3-3.8L638.6,628.1z"/>
    <path id="XMLID_186_" class="st5" d="M268.2,488.2c6.4,13.1,15,25.3,25.8,36.2c52.3,52.3,137.2,52.3,189.5,0 c43.8-43.8,50.9-110.3,21.5-161.5"/>
    <path id="XMLID_185_" class="st5" d="M729,503.8c-24,36.1-65,59.8-111.6,59.8c-74,0-134-60-134-134c0-33,11.9-63.2,31.7-86.6"/>
    <ellipse id="XMLID_75_" class="st6" cx="501.8" cy="487.5" rx="228" ry="205.8"/>
    <polygon id="XMLID_74_" class="st1" points="501.7,442.3 458.1,506.3 501.9,564.6 545.4,506.3 &#9;"/>
    <polygon id="XMLID_73_" class="st6" points="501.7,442.3 458.1,506.3 501.9,564.6 545.4,506.3 &#9;"/>
    <path id="XMLID_72_" class="st1" d="M600.7,303.9c-30-14-64.1-21.9-100-21.9s-70,7.9-100,21.9v140.1h200V303.9z"/>
    <g id="XMLID_58_">
      <path id="XMLID_71_" class="st1" d="M613.5,317.9l108.7-3.3c-15.7,39.3-17.8,98.4-4.1,163c-17.4,36.8-54.4,62.9-97.9,64.2l0,0 c-61.8,1.9-113.5-46.7-115.3-108.6l0,0C503,371.4,551.6,319.8,613.5,317.9z"/>
      <path id="XMLID_70_" class="st6" d="M613.5,317.9l108.7-3.3c-15.7,39.3-17.8,98.4-4.1,163c-17.4,36.8-54.4,62.9-97.9,64.2l0,0 c-61.8,1.9-113.5-46.7-115.3-108.6l0,0C503,371.4,551.6,319.8,613.5,317.9z"/>
      <circle id="XMLID_69_" class="st7" cx="617.4" cy="429.7" r="112"/>
      <circle id="XMLID_5_" class="st7" cx="617.4" cy="429.7" r="112"/>
      <path id="XMLID_86_" class="st8" d="M696.6,350.5c-21.5-21.5-49.7-32.4-77.9-32.8c21.2,4.1,41.5,14.3,57.9,30.8 c43.7,43.7,43.7,114.6,0,158.4c-22.2,22.2-51.4,33.1-80.4,32.8c35.3,6.8,73.1-3.5,100.4-30.8C740.3,465.1,740.3,394.2,696.6,350.5 z"/>
      <ellipse id="XMLID_3_" transform="matrix(0.7071 -0.7071 0.7071 0.7071 -130.8246 543.5441)" class="st0" cx="590.7" cy="429.7" rx="84" ry="84.6"/>
      <path id="XMLID_12_" class="st9" d="M711.4,376.6c-3.1-4-9.1-15-12.8-18.7c-44-43.4-114.9-43-158.3,1.1 c-8.6,8.7-15.5,18.5-20.6,29C581.4,366.3,649,371.5,711.4,376.6z"/>
      <circle id="XMLID_68_" class="st6" cx="617.4" cy="429.7" r="112"/>
      <circle id="XMLID_67_" class="st6" cx="617.4" cy="429.7" r="112"/>
      <path id="XMLID_66_" class="st1" d="M706.7,362.1c-3.1-4-6.4-7.9-10.1-11.6c-43.7-43.7-114.6-43.7-158.4,0 c-8.7,8.7-15.6,18.4-20.8,28.8C579.4,358.1,644.3,356.5,706.7,362.1z"/>
      <circle id="XMLID_57_" class="st1" cx="562.9" cy="438.1" r="42"/>
      <circle id="XMLID_56_" class="st10" cx="539.1" cy="438.4" r="14"/>
    </g>
    <g id="XMLID_26_">
      <path id="XMLID_89_" class="st1" d="M388.8,317.9L280,314.6c15.7,39.3,17.8,98.4,4.1,163c17.4,36.8,54.4,62.9,97.9,64.2l0,0 c61.8,1.9,113.5-46.7,115.3-108.6l0,0C499.2,371.4,450.6,319.8,388.8,317.9z"/>
      <path id="XMLID_88_" class="st6" d="M388.8,317.9L280,314.6c15.7,39.3,17.8,98.4,4.1,163c17.4,36.8,54.4,62.9,97.9,64.2l0,0 c61.8,1.9,113.5-46.7,115.3-108.6l0,0C499.2,371.4,450.6,319.8,388.8,317.9z"/>
      <circle id="XMLID_87_" class="st7" cx="384.8" cy="429.7" r="112"/>
      <circle id="XMLID_84_" class="st7" cx="384.8" cy="429.7" r="112"/>
      <path id="XMLID_65_" class="st8" d="M305.6,350.5c21.5-21.5,49.7-32.4,77.9-32.8c-21.2,4.1-41.5,14.3-57.9,30.8 c-43.7,43.7-43.7,114.6,0,158.4c22.2,22.2,51.4,33.1,80.4,32.8c-35.3,6.8-73.1-3.5-100.4-30.8 C261.9,465.1,261.9,394.2,305.6,350.5z"/>
      <ellipse id="XMLID_64_" transform="matrix(0.7071 -0.7071 0.7071 0.7071 -183.3021 416.8521)" class="st0" cx="411.5" cy="429.7" rx="84.6" ry="84"/>
      <path id="XMLID_63_" class="st11" d="M290.9,376.6c3.1-4,9.1-15,12.8-18.7c44-43.4,114.9-43,158.3,1.1c8.6,8.7,15.5,18.5,20.6,29 C420.8,366.3,353.2,371.5,290.9,376.6z"/>
      <circle id="XMLID_62_" class="st6" cx="384.8" cy="429.7" r="112"/>
      <circle id="XMLID_61_" class="st6" cx="384.8" cy="429.7" r="112"/>
      <path id="XMLID_60_" class="st1" d="M295.6,362.1c3.1-4,6.4-7.9,10.1-11.6c43.7-43.7,114.6-43.7,158.4,0 c8.7,8.7,15.6,18.4,20.8,28.8C422.9,358.1,357.9,356.5,295.6,362.1z"/>
      <circle id="XMLID_59_" class="st1" cx="439.4" cy="438.1" r="42"/>
      <circle id="XMLID_37_" class="st10" cx="463.2" cy="438.4" r="14"/>
    </g>
    <path id="XMLID_19_" class="st1" d="M447.9,718.3L447.9,718.3c-8.8,0-16-7.2-16-16v-18c0-8.8,7.2-16,16-16h0c8.8,0,16,7.2,16,16v18 C463.9,711.1,456.8,718.3,447.9,718.3z"/>
    <path id="XMLID_17_" class="st1" d="M415.9,718.3L415.9,718.3c-8.8,0-16-7.2-16-16v-18c0-8.8,7.2-16,16-16h0c8.8,0,16,7.2,16,16v18 C431.9,711.1,424.8,718.3,415.9,718.3z"/>
    <path id="XMLID_16_" class="st1" d="M479.7,718.3L479.7,718.3c-8.8,0-16-7.2-16-16v-18c0-8.8,7.2-16,16-16h0c8.8,0,16,7.2,16,16v18 C495.7,711.1,488.5,718.3,479.7,718.3z"/>
    <path id="XMLID_15_" class="st1" d="M521.9,718.3L521.9,718.3c-8.8,0-16-7.2-16-16v-18c0-8.8,7.2-16,16-16h0c8.8,0,16,7.2,16,16v18 C537.9,711.1,530.7,718.3,521.9,718.3z"/>
    <path id="XMLID_14_" class="st1" d="M553.7,718.3L553.7,718.3c-8.8,0-16-7.2-16-16v-18c0-8.8,7.2-16,16-16h0c8.8,0,16,7.2,16,16v18 C569.7,711.1,562.5,718.3,553.7,718.3z"/>
    <path id="XMLID_13_" class="st1" d="M585.7,718.3L585.7,718.3c-8.8,0-16-7.2-16-16v-18c0-8.8,7.2-16,16-16h0c8.8,0,16,7.2,16,16v18 C601.7,711.1,594.5,718.3,585.7,718.3z"/>
    <path id="XMLID_11_" class="st12" d="M491.9,587.6c0,8.4-6.8,15.2-15.2,15.2c-8.4,0-15.2-6.8-15.2-15.2"/>
    <path id="XMLID_9_" class="st12" d="M538.4,587.6c0,8.4-6.8,15.2-15.2,15.2c-8.4,0-15.2-6.8-15.2-15.2"/>
    <path id="XMLID_10_" class="st13" d="M323,548.8c-2.2,4.7-7.7,6.8-12.5,4.6s-6.8-7.7-4.6-12.5"/>
    <path id="XMLID_1_" class="st13" d="M352.8,564.3c-2.2,4.7-7.7,6.8-12.5,4.6c-4.7-2.2-6.8-7.7-4.6-12.5"/>
    <path id="XMLID_78_" class="st13" d="M335.5,576.2c-2.2,4.7-7.7,6.8-12.5,4.6c-4.7-2.2-6.8-7.7-4.6-12.5"/>
    <path id="XMLID_77_" class="st13" d="M361.7,596.1c-2.2,4.7-7.7,6.8-12.5,4.6c-4.7-2.2-6.8-7.7-4.6-12.5"/>
    <path id="XMLID_79_" class="st13" d="M381.7,578.1c-2.2,4.7-7.7,6.8-12.5,4.6c-4.7-2.2-6.8-7.7-4.6-12.5"/>
    <path id="XMLID_85_" class="st13" d="M683.7,550.8c2.2,4.7,7.7,6.8,12.5,4.6s6.8-7.7,4.6-12.5"/>
    <path id="XMLID_83_" class="st13" d="M654,566.3c2.2,4.7,7.7,6.8,12.5,4.6c4.7-2.2,6.8-7.7,4.6-12.5"/>
    <path id="XMLID_82_" class="st13" d="M671.2,578.2c2.2,4.7,7.7,6.8,12.5,4.6c4.7-2.2,6.8-7.7,4.6-12.5"/>
    <path id="XMLID_81_" class="st13" d="M645.1,598.1c2.2,4.7,7.7,6.8,12.5,4.6c4.7-2.2,6.8-7.7,4.6-12.5"/>
    <path id="XMLID_80_" class="st13" d="M625.1,580.1c2.2,4.7,7.7,6.8,12.5,4.6c4.7-2.2,6.8-7.7,4.6-12.5"/>
    <path id="XMLID_8_" class="st12" d="M468.7,624.1c0,8.4-6.8,15.2-15.2,15.2c-8.4,0-15.2-6.8-15.2-15.2"/>
    <path id="XMLID_7_" class="st12" d="M515.2,624.1c0,8.4-6.8,15.2-15.2,15.2s-15.2-6.8-15.2-15.2"/>
    <path id="XMLID_6_" class="st12" d="M561.7,624.1c0,8.4-6.8,15.2-15.2,15.2c-8.4,0-15.2-6.8-15.2-15.2"/>
  </g>
  <path d="M 162.934 678.709 L 149.584 678.709 Q 147.893 678.709 147.136 677.952 Q 146.38 677.196 146.38 675.505 L 146.38 617.833 Q 146.38 616.142 147.136 615.385 Q 147.893 614.629 149.584 614.629 L 158.84 614.629 Q 160.531 614.629 161.732 615.163 Q 162.934 615.697 164.091 617.032 L 181.357 636.79 L 181.357 617.833 Q 181.357 616.142 182.113 615.385 Q 182.87 614.629 184.561 614.629 L 197.911 614.629 Q 199.602 614.629 200.358 615.385 Q 201.115 616.142 201.115 617.833 L 201.115 675.505 Q 201.115 677.196 200.358 677.952 Q 199.602 678.709 197.911 678.709 L 184.561 678.709 Q 182.87 678.709 182.113 677.952 Q 181.357 677.196 181.357 675.505 L 181.357 664.558 L 166.138 646.135 L 166.138 675.505 Q 166.138 677.196 165.381 677.952 Q 164.625 678.709 162.934 678.709 Z" style="fill: rgb(65, 61, 81); white-space: pre;"/>
  <path d="M 243.122 678.709 L 214.998 678.709 Q 213.307 678.709 212.55 677.952 Q 211.794 677.196 211.794 675.505 L 211.794 665.092 Q 211.794 663.401 212.55 662.644 Q 213.307 661.888 214.998 661.888 L 238.939 661.888 Q 240.096 661.888 240.674 661.131 Q 241.253 660.375 241.253 659.307 Q 241.253 657.794 240.674 657.082 Q 240.096 656.37 238.939 656.281 L 225.589 654.412 Q 219.359 653.522 215.576 650.318 Q 211.794 647.114 211.794 639.638 L 211.794 630.293 Q 211.794 622.728 216.689 618.678 Q 221.584 614.629 230.217 614.629 L 255.137 614.629 Q 256.828 614.629 257.584 615.385 Q 258.341 616.142 258.341 617.833 L 258.341 628.424 Q 258.341 630.115 257.584 630.871 Q 256.828 631.628 255.137 631.628 L 234.4 631.628 Q 233.243 631.628 232.62 632.384 Q 231.997 633.141 231.997 634.298 Q 231.997 635.455 232.62 636.256 Q 233.243 637.057 234.4 637.146 L 247.661 638.926 Q 253.891 639.816 257.718 643.02 Q 261.545 646.224 261.545 653.7 L 261.545 663.045 Q 261.545 670.61 256.605 674.659 Q 251.666 678.709 243.122 678.709 Z" style="fill: rgb(65, 61, 81); white-space: pre;"/>
  <path d="M 325.796 661.888 Q 325.796 665.982 324.595 669.319 Q 323.393 672.657 320.323 675.015 Q 317.252 677.374 311.912 678.709 Q 306.572 680.044 298.295 680.044 Q 290.018 680.044 284.678 678.709 Q 279.338 677.374 276.268 675.015 Q 273.197 672.657 271.996 669.319 Q 270.794 665.982 270.794 661.888 L 270.794 617.833 Q 270.794 616.142 271.551 615.385 Q 272.307 614.629 273.998 614.629 L 287.971 614.629 Q 289.662 614.629 290.419 615.385 Q 291.175 616.142 291.175 617.833 L 291.175 658.417 Q 291.175 660.197 292.51 661.398 Q 293.845 662.6 298.473 662.6 Q 303.19 662.6 304.525 661.398 Q 305.86 660.197 305.86 658.417 L 305.86 617.833 Q 305.86 616.142 306.617 615.385 Q 307.373 614.629 309.064 614.629 L 322.592 614.629 Q 324.283 614.629 325.04 615.385 Q 325.796 616.142 325.796 617.833 Z" style="fill: rgb(65, 61, 81); white-space: pre;"/>
  <path d="M 367.356 678.709 L 339.232 678.709 Q 337.541 678.709 336.785 677.952 Q 336.028 677.196 336.028 675.505 L 336.028 665.092 Q 336.028 663.401 336.785 662.644 Q 337.541 661.888 339.232 661.888 L 363.173 661.888 Q 364.33 661.888 364.909 661.131 Q 365.487 660.375 365.487 659.307 Q 365.487 657.794 364.909 657.082 Q 364.33 656.37 363.173 656.281 L 349.823 654.412 Q 343.593 653.522 339.811 650.318 Q 336.028 647.114 336.028 639.638 L 336.028 630.293 Q 336.028 622.728 340.923 618.678 Q 345.818 614.629 354.451 614.629 L 379.371 614.629 Q 381.062 614.629 381.819 615.385 Q 382.575 616.142 382.575 617.833 L 382.575 628.424 Q 382.575 630.115 381.819 630.871 Q 381.062 631.628 379.371 631.628 L 358.634 631.628 Q 357.477 631.628 356.854 632.384 Q 356.231 633.141 356.231 634.298 Q 356.231 635.455 356.854 636.256 Q 357.477 637.057 358.634 637.146 L 371.895 638.926 Q 378.125 639.816 381.952 643.02 Q 385.779 646.224 385.779 653.7 L 385.779 663.045 Q 385.779 670.61 380.84 674.659 Q 375.9 678.709 367.356 678.709 Z" style="fill: rgb(65, 61, 81); white-space: pre;"/>
  <path d="M 424.859 678.709 L 410.441 678.709 Q 408.75 678.709 407.993 677.952 Q 407.237 677.196 407.237 675.505 L 407.237 631.806 L 394.154 631.806 Q 392.463 631.806 391.706 631.049 Q 390.95 630.293 390.95 628.602 L 390.95 617.833 Q 390.95 616.142 391.706 615.385 Q 392.463 614.629 394.154 614.629 L 441.146 614.629 Q 442.837 614.629 443.593 615.385 Q 444.35 616.142 444.35 617.833 L 444.35 628.602 Q 444.35 630.293 443.593 631.049 Q 442.837 631.806 441.146 631.806 L 428.063 631.806 L 428.063 675.505 Q 428.063 677.196 427.306 677.952 Q 426.55 678.709 424.859 678.709 Z" style="fill: rgb(65, 61, 81); white-space: pre;"/>
  <path d="M 472.64 633.319 L 468.457 646.847 L 482.43 646.847 L 478.247 633.319 Q 477.891 632.518 477.491 632.162 Q 477.09 631.806 476.556 631.806 L 474.331 631.806 Q 473.797 631.806 473.397 632.162 Q 472.996 632.518 472.64 633.319 Z M 467.567 675.505 Q 467.567 677.196 466.811 677.952 Q 466.054 678.709 464.363 678.709 L 451.28 678.709 Q 449.589 678.709 448.833 677.952 Q 448.076 677.196 448.076 675.505 L 448.076 652.009 Q 448.076 649.339 448.922 645.868 Q 449.767 642.397 451.547 637.769 L 459.29 617.566 Q 459.824 616.053 460.937 615.341 Q 462.049 614.629 463.829 614.629 L 487.77 614.629 Q 489.461 614.629 490.574 615.341 Q 491.686 616.053 492.22 617.566 L 499.963 637.769 Q 501.743 642.397 502.589 645.868 Q 503.434 649.339 503.434 652.009 L 503.434 675.505 Q 503.434 677.196 502.678 677.952 Q 501.921 678.709 500.23 678.709 L 486.791 678.709 Q 485.011 678.709 484.166 677.952 Q 483.32 677.196 483.32 675.505 L 483.32 663.045 L 467.567 663.045 Z" style="fill: rgb(65, 61, 81); white-space: pre;"/>
  <path d="M 516.16 678.709 Q 514.469 678.709 513.713 677.952 Q 512.956 677.196 512.956 675.505 L 512.956 664.914 Q 512.956 663.223 513.713 662.466 Q 514.469 661.71 516.16 661.71 L 524.971 661.71 L 524.971 631.806 L 516.16 631.806 Q 514.469 631.806 513.713 631.049 Q 512.956 630.293 512.956 628.602 L 512.956 617.833 Q 512.956 616.142 513.713 615.385 Q 514.469 614.629 516.16 614.629 L 554.074 614.629 Q 555.765 614.629 556.522 615.385 Q 557.278 616.142 557.278 617.833 L 557.278 628.602 Q 557.278 630.293 556.522 631.049 Q 555.765 631.806 554.074 631.806 L 545.441 631.806 L 545.441 661.71 L 554.074 661.71 Q 555.765 661.71 556.522 662.466 Q 557.278 663.223 557.278 664.914 L 557.278 675.505 Q 557.278 677.196 556.522 677.952 Q 555.765 678.709 554.074 678.709 Z" style="fill: rgb(65, 61, 81); white-space: pre;"/>
  <path d="M 584.793 678.709 L 571.443 678.709 Q 569.752 678.709 568.996 677.952 Q 568.239 677.196 568.239 675.505 L 568.239 617.833 Q 568.239 616.142 568.996 615.385 Q 569.752 614.629 571.443 614.629 L 580.699 614.629 Q 582.39 614.629 583.592 615.163 Q 584.793 615.697 585.95 617.032 L 603.216 636.79 L 603.216 617.833 Q 603.216 616.142 603.973 615.385 Q 604.729 614.629 606.42 614.629 L 619.77 614.629 Q 621.461 614.629 622.218 615.385 Q 622.974 616.142 622.974 617.833 L 622.974 675.505 Q 622.974 677.196 622.218 677.952 Q 621.461 678.709 619.77 678.709 L 606.42 678.709 Q 604.729 678.709 603.973 677.952 Q 603.216 677.196 603.216 675.505 L 603.216 664.558 L 587.997 646.135 L 587.997 675.505 Q 587.997 677.196 587.241 677.952 Q 586.484 678.709 584.793 678.709 Z" style="fill: rgb(65, 61, 81); white-space: pre;"/>
  <path d="M 655.191 678.709 L 637.213 678.709 Q 635.522 678.709 634.766 677.952 Q 634.009 677.196 634.009 675.505 L 634.009 657.438 Q 634.009 655.747 634.766 654.99 Q 635.522 654.234 637.213 654.234 L 655.191 654.234 Q 656.882 654.234 657.639 654.99 Q 658.395 655.747 658.395 657.438 L 658.395 675.505 Q 658.395 677.196 657.639 677.952 Q 656.882 678.709 655.191 678.709 Z" style="fill: rgb(65, 61, 81); white-space: pre;"/>
  <path d="M 712.058 678.709 L 690.342 678.709 Q 679.217 678.709 673.832 674.259 Q 668.448 669.809 668.448 660.553 L 668.448 632.874 Q 668.448 623.618 673.832 619.123 Q 679.217 614.629 690.342 614.629 L 712.058 614.629 Q 713.749 614.629 714.505 615.385 Q 715.262 616.142 715.262 617.833 L 715.262 628.602 Q 715.262 630.293 714.505 631.049 Q 713.749 631.806 712.058 631.806 L 694.169 631.806 Q 691.41 631.806 690.075 632.918 Q 688.74 634.031 688.74 636.256 L 688.74 657.438 Q 688.74 659.663 690.075 660.686 Q 691.41 661.71 694.169 661.71 L 712.058 661.71 Q 713.749 661.71 714.505 662.466 Q 715.262 663.223 715.262 664.914 L 715.262 675.505 Q 715.262 677.196 714.505 677.952 Q 713.749 678.709 712.058 678.709 Z" style="fill: rgb(65, 61, 81); white-space: pre;"/>
  <path d="M 779.154 661.888 Q 779.154 665.982 777.953 669.319 Q 776.751 672.657 773.681 675.015 Q 770.61 677.374 765.226 678.709 Q 759.841 680.044 751.564 680.044 Q 743.287 680.044 737.858 678.709 Q 732.429 677.374 729.359 675.015 Q 726.288 672.657 725.087 669.319 Q 723.885 665.982 723.885 661.888 L 723.885 631.539 Q 723.885 627.445 725.087 624.107 Q 726.288 620.77 729.359 618.367 Q 732.429 615.964 737.858 614.629 Q 743.287 613.294 751.564 613.294 Q 759.841 613.294 765.226 614.629 Q 770.61 615.964 773.681 618.367 Q 776.751 620.77 777.953 624.107 Q 779.154 627.445 779.154 631.539 Z M 744.088 658.684 Q 744.088 660.464 745.423 661.665 Q 746.758 662.867 751.564 662.867 Q 756.37 662.867 757.705 661.665 Q 759.04 660.464 759.04 658.684 L 759.04 634.743 Q 759.04 633.052 757.705 631.85 Q 756.37 630.649 751.564 630.649 Q 746.758 630.649 745.423 631.85 Q 744.088 633.052 744.088 634.743 Z" style="fill: rgb(65, 61, 81); white-space: pre;"/>
  <path d="M 806.923 678.709 L 793.662 678.709 Q 791.971 678.709 791.215 677.952 Q 790.458 677.196 790.458 675.505 L 790.458 617.833 Q 790.458 616.142 791.215 615.385 Q 791.971 614.629 793.662 614.629 L 807.991 614.629 Q 809.415 614.629 810.35 615.252 Q 811.284 615.875 812.085 617.299 L 820.095 631.806 Q 820.54 632.607 820.852 632.963 Q 821.163 633.319 821.697 633.319 L 822.498 633.319 Q 823.032 633.319 823.344 632.963 Q 823.655 632.607 824.1 631.806 L 832.021 617.299 Q 832.822 615.875 833.757 615.252 Q 834.691 614.629 836.115 614.629 L 850.533 614.629 Q 852.224 614.629 852.981 615.385 Q 853.737 616.142 853.737 617.833 L 853.737 675.505 Q 853.737 677.196 852.981 677.952 Q 852.224 678.709 850.533 678.709 L 836.827 678.709 Q 835.136 678.709 834.38 677.952 Q 833.623 677.196 833.623 675.505 L 833.623 644.177 L 828.372 653.878 Q 827.571 655.391 826.459 656.058 Q 825.346 656.726 823.655 656.726 L 820.095 656.726 Q 818.404 656.726 817.292 656.058 Q 816.179 655.391 815.378 653.878 L 810.127 644.177 L 810.127 675.505 Q 810.127 677.196 809.371 677.952 Q 808.614 678.709 806.923 678.709 Z" style="fill: rgb(65, 61, 81); white-space: pre;"/>
  <path d="M 151.576 817.807 L 147.091 817.807 Q 146.52 817.807 146.264 817.551 Q 146.008 817.295 146.008 816.723 L 146.008 797.219 Q 146.008 796.647 146.264 796.391 Q 146.52 796.135 147.091 796.135 L 151.938 796.135 Q 152.419 796.135 152.735 796.346 Q 153.051 796.556 153.322 797.038 L 156.031 801.944 Q 156.182 802.215 156.287 802.336 Q 156.392 802.456 156.573 802.456 L 156.844 802.456 Q 157.024 802.456 157.13 802.336 Q 157.235 802.215 157.386 801.944 L 160.065 797.038 Q 160.335 796.556 160.652 796.346 Q 160.968 796.135 161.449 796.135 L 166.325 796.135 Q 166.897 796.135 167.153 796.391 Q 167.409 796.647 167.409 797.219 L 167.409 816.723 Q 167.409 817.295 167.153 817.551 Q 166.897 817.807 166.325 817.807 L 161.69 817.807 Q 161.118 817.807 160.862 817.551 Q 160.606 817.295 160.606 816.723 L 160.606 806.128 L 158.83 809.409 Q 158.56 809.921 158.183 810.147 Q 157.807 810.372 157.235 810.372 L 156.031 810.372 Q 155.459 810.372 155.083 810.147 Q 154.707 809.921 154.436 809.409 L 152.66 806.128 L 152.66 816.723 Q 152.66 817.295 152.404 817.551 Q 152.148 817.807 151.576 817.807 Z" style="fill: rgb(65, 61, 81); white-space: pre;"/>
  <path d="M 179.411 802.456 L 177.996 807.031 L 182.722 807.031 L 181.307 802.456 Q 181.187 802.185 181.051 802.065 Q 180.916 801.944 180.735 801.944 L 179.983 801.944 Q 179.802 801.944 179.667 802.065 Q 179.531 802.185 179.411 802.456 Z M 177.695 816.723 Q 177.695 817.295 177.439 817.551 Q 177.183 817.807 176.612 817.807 L 172.187 817.807 Q 171.615 817.807 171.359 817.551 Q 171.103 817.295 171.103 816.723 L 171.103 808.777 Q 171.103 807.874 171.389 806.7 Q 171.675 805.526 172.277 803.961 L 174.896 797.128 Q 175.076 796.617 175.453 796.376 Q 175.829 796.135 176.431 796.135 L 184.528 796.135 Q 185.1 796.135 185.476 796.376 Q 185.852 796.617 186.033 797.128 L 188.652 803.961 Q 189.254 805.526 189.54 806.7 Q 189.825 807.874 189.825 808.777 L 189.825 816.723 Q 189.825 817.295 189.57 817.551 Q 189.314 817.807 188.742 817.807 L 184.197 817.807 Q 183.595 817.807 183.309 817.551 Q 183.023 817.295 183.023 816.723 L 183.023 812.509 L 177.695 812.509 Z" style="fill: rgb(65, 61, 81); white-space: pre;"/>
  <path d="M 200.326 801.553 L 200.326 805.406 L 202.584 805.406 Q 203.366 805.406 203.637 804.999 Q 203.908 804.593 203.908 803.991 L 203.908 802.968 Q 203.908 802.366 203.637 801.959 Q 203.366 801.553 202.584 801.553 Z M 199.243 817.807 L 194.607 817.807 Q 194.035 817.807 193.779 817.551 Q 193.524 817.295 193.524 816.723 L 193.524 797.219 Q 193.524 796.647 193.779 796.391 Q 194.035 796.135 194.607 796.135 L 204.63 796.135 Q 208.002 796.135 209.281 797.535 Q 210.56 798.934 210.56 801.162 L 210.56 802.546 Q 210.56 803.811 210.184 804.698 Q 209.808 805.586 208.875 805.978 Q 210.5 806.158 211.508 807.302 Q 212.517 808.446 212.517 810.342 L 212.517 816.723 Q 212.517 817.295 212.261 817.551 Q 212.005 817.807 211.433 817.807 L 206.768 817.807 Q 206.196 817.807 205.94 817.551 Q 205.684 817.295 205.684 816.723 L 205.684 812.118 Q 205.684 811.456 205.428 811.14 Q 205.172 810.824 204.54 810.824 L 200.326 810.824 L 200.326 816.723 Q 200.326 817.295 200.07 817.551 Q 199.814 817.807 199.243 817.807 Z" style="fill: rgb(65, 61, 81); white-space: pre;"/>
  <path d="M 216.485 817.807 Q 215.913 817.807 215.657 817.551 Q 215.401 817.295 215.401 816.723 L 215.401 813.142 Q 215.401 812.57 215.657 812.314 Q 215.913 812.058 216.485 812.058 L 219.465 812.058 L 219.465 801.944 L 216.485 801.944 Q 215.913 801.944 215.657 801.688 Q 215.401 801.433 215.401 800.861 L 215.401 797.219 Q 215.401 796.647 215.657 796.391 Q 215.913 796.135 216.485 796.135 L 229.307 796.135 Q 229.879 796.135 230.135 796.391 Q 230.391 796.647 230.391 797.219 L 230.391 800.861 Q 230.391 801.433 230.135 801.688 Q 229.879 801.944 229.307 801.944 L 226.388 801.944 L 226.388 812.058 L 229.307 812.058 Q 229.879 812.058 230.135 812.314 Q 230.391 812.57 230.391 813.142 L 230.391 816.723 Q 230.391 817.295 230.135 817.551 Q 229.879 817.807 229.307 817.807 Z" style="fill: rgb(65, 61, 81); white-space: pre;"/>
  <path d="M 241.942 802.456 L 240.527 807.031 L 245.253 807.031 L 243.838 802.456 Q 243.718 802.185 243.583 802.065 Q 243.447 801.944 243.267 801.944 L 242.514 801.944 Q 242.333 801.944 242.198 802.065 Q 242.063 802.185 241.942 802.456 Z M 240.226 816.723 Q 240.226 817.295 239.971 817.551 Q 239.715 817.807 239.143 817.807 L 234.718 817.807 Q 234.146 817.807 233.89 817.551 Q 233.635 817.295 233.635 816.723 L 233.635 808.777 Q 233.635 807.874 233.92 806.7 Q 234.206 805.526 234.808 803.961 L 237.427 797.128 Q 237.608 796.617 237.984 796.376 Q 238.36 796.135 238.962 796.135 L 247.059 796.135 Q 247.631 796.135 248.007 796.376 Q 248.384 796.617 248.564 797.128 L 251.183 803.961 Q 251.785 805.526 252.071 806.7 Q 252.357 807.874 252.357 808.777 L 252.357 816.723 Q 252.357 817.295 252.101 817.551 Q 251.845 817.807 251.273 817.807 L 246.728 817.807 Q 246.126 817.807 245.84 817.551 Q 245.554 817.295 245.554 816.723 L 245.554 812.509 L 240.226 812.509 Z" style="fill: rgb(65, 61, 81); white-space: pre;"/>
  <path d="M 261.623 817.807 L 257.138 817.807 Q 256.566 817.807 256.311 817.551 Q 256.055 817.295 256.055 816.723 L 256.055 797.219 Q 256.055 796.647 256.311 796.391 Q 256.566 796.135 257.138 796.135 L 261.984 796.135 Q 262.466 796.135 262.782 796.346 Q 263.098 796.556 263.369 797.038 L 266.078 801.944 Q 266.229 802.215 266.334 802.336 Q 266.439 802.456 266.62 802.456 L 266.891 802.456 Q 267.071 802.456 267.177 802.336 Q 267.282 802.215 267.433 801.944 L 270.111 797.038 Q 270.382 796.556 270.698 796.346 Q 271.014 796.135 271.496 796.135 L 276.372 796.135 Q 276.944 796.135 277.2 796.391 Q 277.456 796.647 277.456 797.219 L 277.456 816.723 Q 277.456 817.295 277.2 817.551 Q 276.944 817.807 276.372 817.807 L 271.737 817.807 Q 271.165 817.807 270.909 817.551 Q 270.653 817.295 270.653 816.723 L 270.653 806.128 L 268.877 809.409 Q 268.606 809.921 268.23 810.147 Q 267.854 810.372 267.282 810.372 L 266.078 810.372 Q 265.506 810.372 265.13 810.147 Q 264.754 809.921 264.483 809.409 L 262.707 806.128 L 262.707 816.723 Q 262.707 817.295 262.451 817.551 Q 262.195 817.807 261.623 817.807 Z" style="fill: rgb(65, 61, 81); white-space: pre;"/>
  <path d="M 303.929 796.135 L 308.414 796.135 Q 308.986 796.135 309.242 796.391 Q 309.497 796.647 309.497 797.219 L 309.497 808.897 Q 309.497 809.861 309.422 810.688 Q 309.347 811.516 308.956 812.63 L 307.451 816.723 Q 307.3 817.175 307.014 817.491 Q 306.728 817.807 306.247 817.807 L 302.243 817.807 Q 301.762 817.807 301.37 817.596 Q 300.979 817.386 300.859 816.904 L 299.474 811.998 Q 299.384 811.697 299.248 811.591 Q 299.113 811.486 298.932 811.486 L 298.661 811.486 Q 298.481 811.486 298.345 811.591 Q 298.21 811.697 298.12 811.998 L 296.705 816.904 Q 296.585 817.356 296.253 817.581 Q 295.922 817.807 295.441 817.807 L 291.468 817.807 Q 290.986 817.807 290.64 817.506 Q 290.294 817.205 290.143 816.723 L 288.638 812.57 Q 288.247 811.456 288.172 810.628 Q 288.096 809.8 288.096 808.837 L 288.096 797.219 Q 288.096 796.647 288.352 796.391 Q 288.608 796.135 289.18 796.135 L 293.815 796.135 Q 294.387 796.135 294.643 796.391 Q 294.899 796.647 294.899 797.219 L 294.899 808.295 L 296.645 804.503 Q 296.886 803.991 297.277 803.78 Q 297.668 803.57 298.24 803.57 L 299.504 803.57 Q 300.076 803.57 300.467 803.78 Q 300.859 803.991 301.1 804.503 L 302.845 808.295 L 302.845 797.219 Q 302.845 796.647 303.101 796.391 Q 303.357 796.135 303.929 796.135 Z" style="fill: rgb(65, 61, 81); white-space: pre;"/>
  <path d="M 313.985 817.807 Q 313.413 817.807 313.157 817.551 Q 312.901 817.295 312.901 816.723 L 312.901 813.142 Q 312.901 812.57 313.157 812.314 Q 313.413 812.058 313.985 812.058 L 316.965 812.058 L 316.965 801.944 L 313.985 801.944 Q 313.413 801.944 313.157 801.688 Q 312.901 801.433 312.901 800.861 L 312.901 797.219 Q 312.901 796.647 313.157 796.391 Q 313.413 796.135 313.985 796.135 L 326.807 796.135 Q 327.379 796.135 327.635 796.391 Q 327.891 796.647 327.891 797.219 L 327.891 800.861 Q 327.891 801.433 327.635 801.688 Q 327.379 801.944 326.807 801.944 L 323.888 801.944 L 323.888 812.058 L 326.807 812.058 Q 327.379 812.058 327.635 812.314 Q 327.891 812.57 327.891 813.142 L 327.891 816.723 Q 327.891 817.295 327.635 817.551 Q 327.379 817.807 326.807 817.807 Z" style="fill: rgb(65, 61, 81); white-space: pre;"/>
  <path d="M 341.639 817.807 L 332.128 817.807 Q 331.556 817.807 331.3 817.551 Q 331.044 817.295 331.044 816.723 L 331.044 813.202 Q 331.044 812.63 331.3 812.374 Q 331.556 812.118 332.128 812.118 L 340.225 812.118 Q 340.616 812.118 340.812 811.862 Q 341.007 811.606 341.007 811.245 Q 341.007 810.734 340.812 810.493 Q 340.616 810.252 340.225 810.222 L 335.71 809.59 Q 333.603 809.289 332.323 808.205 Q 331.044 807.122 331.044 804.593 L 331.044 801.433 Q 331.044 798.874 332.7 797.505 Q 334.355 796.135 337.275 796.135 L 345.703 796.135 Q 346.275 796.135 346.531 796.391 Q 346.787 796.647 346.787 797.219 L 346.787 800.801 Q 346.787 801.372 346.531 801.628 Q 346.275 801.884 345.703 801.884 L 338.69 801.884 Q 338.298 801.884 338.088 802.14 Q 337.877 802.396 337.877 802.787 Q 337.877 803.178 338.088 803.449 Q 338.298 803.72 338.69 803.75 L 343.175 804.352 Q 345.282 804.653 346.576 805.737 Q 347.87 806.821 347.87 809.349 L 347.87 812.509 Q 347.87 815.068 346.2 816.437 Q 344.529 817.807 341.639 817.807 Z" style="fill: rgb(65, 61, 81); white-space: pre;"/>
  <path d="M 359.005 802.456 L 357.59 807.031 L 362.316 807.031 L 360.901 802.456 Q 360.781 802.185 360.645 802.065 Q 360.51 801.944 360.329 801.944 L 359.577 801.944 Q 359.396 801.944 359.26 802.065 Q 359.125 802.185 359.005 802.456 Z M 357.289 816.723 Q 357.289 817.295 357.033 817.551 Q 356.777 817.807 356.205 817.807 L 351.781 817.807 Q 351.209 817.807 350.953 817.551 Q 350.697 817.295 350.697 816.723 L 350.697 808.777 Q 350.697 807.874 350.983 806.7 Q 351.269 805.526 351.871 803.961 L 354.49 797.128 Q 354.67 796.617 355.046 796.376 Q 355.423 796.135 356.025 796.135 L 364.122 796.135 Q 364.694 796.135 365.07 796.376 Q 365.446 796.617 365.627 797.128 L 368.245 803.961 Q 368.847 805.526 369.133 806.7 Q 369.419 807.874 369.419 808.777 L 369.419 816.723 Q 369.419 817.295 369.163 817.551 Q 368.908 817.807 368.336 817.807 L 363.791 817.807 Q 363.189 817.807 362.903 817.551 Q 362.617 817.295 362.617 816.723 L 362.617 812.509 L 357.289 812.509 Z" style="fill: rgb(65, 61, 81); white-space: pre;"/>
  <path d="M 380.973 802.456 L 379.559 807.031 L 384.284 807.031 L 382.87 802.456 Q 382.749 802.185 382.614 802.065 Q 382.478 801.944 382.298 801.944 L 381.545 801.944 Q 381.365 801.944 381.229 802.065 Q 381.094 802.185 380.973 802.456 Z M 379.258 816.723 Q 379.258 817.295 379.002 817.551 Q 378.746 817.807 378.174 817.807 L 373.749 817.807 Q 373.177 817.807 372.922 817.551 Q 372.666 817.295 372.666 816.723 L 372.666 808.777 Q 372.666 807.874 372.952 806.7 Q 373.238 805.526 373.84 803.961 L 376.458 797.128 Q 376.639 796.617 377.015 796.376 Q 377.391 796.135 377.993 796.135 L 386.09 796.135 Q 386.662 796.135 387.039 796.376 Q 387.415 796.617 387.595 797.128 L 390.214 803.961 Q 390.816 805.526 391.102 806.7 Q 391.388 807.874 391.388 808.777 L 391.388 816.723 Q 391.388 817.295 391.132 817.551 Q 390.876 817.807 390.304 817.807 L 385.759 817.807 Q 385.157 817.807 384.871 817.551 Q 384.585 817.295 384.585 816.723 L 384.585 812.509 L 379.258 812.509 Z" style="fill: rgb(65, 61, 81); white-space: pre;"/>
  <path d="M 411.491 817.807 L 396.17 817.807 Q 395.598 817.807 395.342 817.551 Q 395.086 817.295 395.086 816.723 L 395.086 797.219 Q 395.086 796.647 395.342 796.391 Q 395.598 796.135 396.17 796.135 L 400.835 796.135 Q 401.407 796.135 401.663 796.391 Q 401.919 796.647 401.919 797.219 L 401.919 812.118 L 406.042 812.118 L 406.042 807.242 Q 406.042 806.67 406.298 806.414 Q 406.554 806.158 407.126 806.158 L 411.491 806.158 Q 412.062 806.158 412.318 806.414 Q 412.574 806.67 412.574 807.242 L 412.574 816.723 Q 412.574 817.295 412.318 817.551 Q 412.062 817.807 411.491 817.807 Z" style="fill: rgb(65, 61, 81); white-space: pre;"/>
  <path d="M 671.132 817.807 L 661.621 817.807 Q 661.049 817.807 660.793 817.551 Q 660.537 817.295 660.537 816.723 L 660.537 813.202 Q 660.537 812.63 660.793 812.374 Q 661.049 812.118 661.621 812.118 L 669.718 812.118 Q 670.109 812.118 670.305 811.862 Q 670.5 811.606 670.5 811.245 Q 670.5 810.734 670.305 810.493 Q 670.109 810.252 669.718 810.222 L 665.203 809.59 Q 663.096 809.289 661.816 808.205 Q 660.537 807.122 660.537 804.593 L 660.537 801.433 Q 660.537 798.874 662.193 797.505 Q 663.848 796.135 666.768 796.135 L 675.196 796.135 Q 675.768 796.135 676.024 796.391 Q 676.279 796.647 676.279 797.219 L 676.279 800.801 Q 676.279 801.372 676.024 801.628 Q 675.768 801.884 675.196 801.884 L 668.183 801.884 Q 667.791 801.884 667.581 802.14 Q 667.37 802.396 667.37 802.787 Q 667.37 803.178 667.581 803.449 Q 667.791 803.72 668.183 803.75 L 672.667 804.352 Q 674.774 804.653 676.069 805.737 Q 677.363 806.821 677.363 809.349 L 677.363 812.509 Q 677.363 815.068 675.692 816.437 Q 674.022 817.807 671.132 817.807 Z" style="fill: rgb(65, 61, 81); white-space: pre;"/>
  <path d="M 698.987 812.118 Q 698.987 813.503 698.58 814.631 Q 698.174 815.76 697.136 816.558 Q 696.097 817.356 694.276 817.807 Q 692.455 818.259 689.656 818.259 Q 686.856 818.259 685.02 817.807 Q 683.184 817.356 682.146 816.558 Q 681.107 815.76 680.701 814.631 Q 680.295 813.503 680.295 812.118 L 680.295 801.854 Q 680.295 800.469 680.701 799.341 Q 681.107 798.212 682.146 797.399 Q 683.184 796.587 685.02 796.135 Q 686.856 795.684 689.656 795.684 Q 692.455 795.684 694.276 796.135 Q 696.097 796.587 697.136 797.399 Q 698.174 798.212 698.58 799.341 Q 698.987 800.469 698.987 801.854 Z M 687.127 811.035 Q 687.127 811.637 687.579 812.043 Q 688.03 812.449 689.656 812.449 Q 691.281 812.449 691.733 812.043 Q 692.184 811.637 692.184 811.035 L 692.184 802.938 Q 692.184 802.366 691.733 801.959 Q 691.281 801.553 689.656 801.553 Q 688.03 801.553 687.579 801.959 Q 687.127 802.366 687.127 802.938 Z" style="fill: rgb(65, 61, 81); white-space: pre;"/>
  <path d="M 721.174 812.118 Q 721.174 813.503 720.768 814.631 Q 720.362 815.76 719.323 816.558 Q 718.285 817.356 716.464 817.807 Q 714.643 818.259 711.843 818.259 Q 709.044 818.259 707.208 817.807 Q 705.372 817.356 704.333 816.558 Q 703.295 815.76 702.889 814.631 Q 702.482 813.503 702.482 812.118 L 702.482 801.854 Q 702.482 800.469 702.889 799.341 Q 703.295 798.212 704.333 797.399 Q 705.372 796.587 707.208 796.135 Q 709.044 795.684 711.843 795.684 Q 714.643 795.684 716.464 796.135 Q 718.285 796.587 719.323 797.399 Q 720.362 798.212 720.768 799.341 Q 721.174 800.469 721.174 801.854 Z M 709.315 811.035 Q 709.315 811.637 709.766 812.043 Q 710.218 812.449 711.843 812.449 Q 713.469 812.449 713.92 812.043 Q 714.372 811.637 714.372 811.035 L 714.372 802.938 Q 714.372 802.366 713.92 801.959 Q 713.469 801.553 711.843 801.553 Q 710.218 801.553 709.766 801.959 Q 709.315 802.366 709.315 802.938 Z" style="fill: rgb(65, 61, 81); white-space: pre;"/>
  <path d="M 737.627 817.807 L 726.069 817.807 Q 725.497 817.807 725.241 817.551 Q 724.985 817.295 724.985 816.723 L 724.985 797.219 Q 724.985 796.647 725.241 796.391 Q 725.497 796.135 726.069 796.135 L 735.671 796.135 Q 738.62 796.135 740.035 797.264 Q 741.45 798.393 741.45 800.74 L 741.45 802.185 Q 741.45 803.449 741.013 804.247 Q 740.577 805.045 739.674 805.436 Q 741.6 805.617 742.533 806.76 Q 743.467 807.904 743.467 810.101 L 743.467 812.871 Q 743.467 815.399 742.037 816.603 Q 740.607 817.807 737.627 817.807 Z M 731.758 801.252 L 731.758 804.503 L 734.316 804.503 Q 734.888 804.503 735.174 804.202 Q 735.46 803.901 735.46 803.299 L 735.46 802.456 Q 735.46 801.854 735.174 801.553 Q 734.888 801.252 734.316 801.252 Z M 731.758 809.138 L 731.758 812.69 L 735.671 812.69 Q 736.243 812.69 736.529 812.389 Q 736.814 812.088 736.814 811.486 L 736.814 810.312 Q 736.814 809.71 736.529 809.424 Q 736.243 809.138 735.671 809.138 Z" style="fill: rgb(65, 61, 81); white-space: pre;"/>
  <path d="M 747.415 817.807 Q 746.843 817.807 746.588 817.551 Q 746.332 817.295 746.332 816.723 L 746.332 813.142 Q 746.332 812.57 746.588 812.314 Q 746.843 812.058 747.415 812.058 L 750.395 812.058 L 750.395 801.944 L 747.415 801.944 Q 746.843 801.944 746.588 801.688 Q 746.332 801.433 746.332 800.861 L 746.332 797.219 Q 746.332 796.647 746.588 796.391 Q 746.843 796.135 747.415 796.135 L 760.238 796.135 Q 760.81 796.135 761.066 796.391 Q 761.321 796.647 761.321 797.219 L 761.321 800.861 Q 761.321 801.433 761.066 801.688 Q 760.81 801.944 760.238 801.944 L 757.318 801.944 L 757.318 812.058 L 760.238 812.058 Q 760.81 812.058 761.066 812.314 Q 761.321 812.57 761.321 813.142 L 761.321 816.723 Q 761.321 817.295 761.066 817.551 Q 760.81 817.807 760.238 817.807 Z" style="fill: rgb(65, 61, 81); white-space: pre;"/>
  <path d="M 770.615 817.807 L 766.1 817.807 Q 765.528 817.807 765.272 817.551 Q 765.016 817.295 765.016 816.723 L 765.016 797.219 Q 765.016 796.647 765.272 796.391 Q 765.528 796.135 766.1 796.135 L 769.23 796.135 Q 769.802 796.135 770.209 796.316 Q 770.615 796.496 771.006 796.948 L 776.846 803.63 L 776.846 797.219 Q 776.846 796.647 777.102 796.391 Q 777.357 796.135 777.929 796.135 L 782.444 796.135 Q 783.016 796.135 783.272 796.391 Q 783.528 796.647 783.528 797.219 L 783.528 816.723 Q 783.528 817.295 783.272 817.551 Q 783.016 817.807 782.444 817.807 L 777.929 817.807 Q 777.357 817.807 777.102 817.551 Q 776.846 817.295 776.846 816.723 L 776.846 813.021 L 771.699 806.79 L 771.699 816.723 Q 771.699 817.295 771.443 817.551 Q 771.187 817.807 770.615 817.807 Z" style="fill: rgb(65, 61, 81); white-space: pre;"/>
  <path d="M 801.257 801.553 L 801.257 805.406 L 803.514 805.406 Q 804.297 805.406 804.568 804.999 Q 804.838 804.593 804.838 803.991 L 804.838 802.968 Q 804.838 802.366 804.568 801.959 Q 804.297 801.553 803.514 801.553 Z M 800.173 817.807 L 795.538 817.807 Q 794.966 817.807 794.71 817.551 Q 794.454 817.295 794.454 816.723 L 794.454 797.219 Q 794.454 796.647 794.71 796.391 Q 794.966 796.135 795.538 796.135 L 805.561 796.135 Q 808.932 796.135 810.211 797.535 Q 811.491 798.934 811.491 801.162 L 811.491 802.546 Q 811.491 803.811 811.114 804.698 Q 810.738 805.586 809.805 805.978 Q 811.43 806.158 812.439 807.302 Q 813.447 808.446 813.447 810.342 L 813.447 816.723 Q 813.447 817.295 813.191 817.551 Q 812.935 817.807 812.363 817.807 L 807.698 817.807 Q 807.126 817.807 806.87 817.551 Q 806.614 817.295 806.614 816.723 L 806.614 812.118 Q 806.614 811.456 806.358 811.14 Q 806.103 810.824 805.471 810.824 L 801.257 810.824 L 801.257 816.723 Q 801.257 817.295 801.001 817.551 Q 800.745 817.807 800.173 817.807 Z" style="fill: rgb(65, 61, 81); white-space: pre;"/>
  <path d="M 822.562 817.807 L 817.897 817.807 Q 817.325 817.807 817.069 817.551 Q 816.813 817.295 816.813 816.723 L 816.813 797.219 Q 816.813 796.647 817.069 796.391 Q 817.325 796.135 817.897 796.135 L 822.562 796.135 Q 823.134 796.135 823.39 796.391 Q 823.646 796.647 823.646 797.219 L 823.646 803.75 L 828.673 803.75 L 828.673 797.219 Q 828.673 796.647 828.929 796.391 Q 829.184 796.135 829.756 796.135 L 834.422 796.135 Q 834.994 796.135 835.25 796.391 Q 835.505 796.647 835.505 797.219 L 835.505 816.723 Q 835.505 817.295 835.25 817.551 Q 834.994 817.807 834.422 817.807 L 829.756 817.807 Q 829.184 817.807 828.929 817.551 Q 828.673 817.295 828.673 816.723 L 828.673 810.041 L 823.646 810.041 L 823.646 816.723 Q 823.646 817.295 823.39 817.551 Q 823.134 817.807 822.562 817.807 Z" style="fill: rgb(65, 61, 81); white-space: pre;"/>
  <path d="M 858.002 812.118 Q 858.002 813.503 857.596 814.631 Q 857.19 815.76 856.151 816.558 Q 855.113 817.356 853.292 817.807 Q 851.471 818.259 848.671 818.259 Q 845.872 818.259 844.036 817.807 Q 842.2 817.356 841.161 816.558 Q 840.123 815.76 839.717 814.631 Q 839.31 813.503 839.31 812.118 L 839.31 801.854 Q 839.31 800.469 839.717 799.341 Q 840.123 798.212 841.161 797.399 Q 842.2 796.587 844.036 796.135 Q 845.872 795.684 848.671 795.684 Q 851.471 795.684 853.292 796.135 Q 855.113 796.587 856.151 797.399 Q 857.19 798.212 857.596 799.341 Q 858.002 800.469 858.002 801.854 Z M 846.143 811.035 Q 846.143 811.637 846.595 812.043 Q 847.046 812.449 848.671 812.449 Q 850.297 812.449 850.748 812.043 Q 851.2 811.637 851.2 811.035 L 851.2 802.938 Q 851.2 802.366 850.748 801.959 Q 850.297 801.553 848.671 801.553 Q 847.046 801.553 846.595 801.959 Q 846.143 802.366 846.143 802.938 Z" style="fill: rgb(65, 61, 81); white-space: pre;"/>
</svg>