<?xml version="1.0" encoding="utf-8"?>
<svg viewBox="0 0 1000 1000" style="enable-background:new 0 0 1000 1000;" xmlns="http://www.w3.org/2000/svg">
  <defs>
    <style type="text/css">
	.st0{opacity:0.7;fill:#FFFFFF;}
	.st1{fill:#413D51;}
	.st2{fill:#8FE3F9;}
	.st3{fill:#B2EBF9;}
	.st4{fill:#A4E0EA;}
	.st5{fill:#7AD1E5;}
	.st6{fill:none;stroke:#413D51;stroke-width:16;stroke-linecap:round;stroke-linejoin:round;stroke-miterlimit:10;}
	.st7{fill:#F7E8AD;}
	.st8{fill:#F7D6A1;}
	.st9{fill:#EFCA92;}
	.st10{fill:#FFFFFF;}
	.st11{opacity:0.89;fill:#EFCA92;}
	.st12{fill:none;stroke:#413D51;stroke-width:8;stroke-linecap:round;stroke-linejoin:round;stroke-miterlimit:10;}
	.st13{opacity:0.31;fill:none;stroke:#72C8D6;stroke-width:8;stroke-linecap:round;stroke-linejoin:round;stroke-miterlimit:10;}
</style>
  </defs>
  <rect class="st0" width="1000" height="1000" style="opacity: 1;"/>
  <g transform="matrix(1, 0, 0, 1, 0, -41)">
    <ellipse id="XMLID_2_" class="st2" cx="501.8" cy="487.5" rx="228" ry="205.8"/>
    <ellipse id="XMLID_188_" class="st2" cx="501.8" cy="487.5" rx="228" ry="205.8"/>
    <path id="XMLID_193_" class="st3" d="M507.8,689.3c52.1,0,100.1-15.3,138.5-41l-10.5-24.7c-22-51.9-74.2-85.8-132.1-85.8l0,0 c-57.9,0-110.1,33.9-132.1,85.8l-8.6,20.4C402.3,672.3,452.8,689.3,507.8,689.3z"/>
    <path id="XMLID_189_" class="st4" d="M501.7,470.3l-43.6,64l32.9,43.8c5.4,7.2,16.3,7.2,21.7,0l32.6-43.8L501.7,470.3z"/>
    <path id="XMLID_192_" class="st5" d="M501.8,669.3c-121.5,0-220.7-85.7-227.6-193.8c-0.3,4-0.4,8-0.4,12 c0,113.6,102.1,205.8,228,205.8s228-92.1,228-205.8c0-4-0.1-8-0.4-12C722.5,583.6,623.2,669.3,501.8,669.3z"/>
    <path id="XMLID_76_" class="st4" d="M638.6,628.1c-38.1,25.8-85.5,41.2-136.8,41.2c-50,0-96.2-14.5-133.7-39.1l-5,12.3 c39.4,29.2,89.8,46.8,144.8,46.8c49.7,0,95.7-14.4,133.2-38.8c1.8-1.2,3.5-2.5,5.3-3.8L638.6,628.1z"/>
    <path id="XMLID_186_" class="st5" d="M268.2,488.2c6.4,13.1,15,25.3,25.8,36.2c52.3,52.3,137.2,52.3,189.5,0 c43.8-43.8,50.9-110.3,21.5-161.5"/>
    <path id="XMLID_185_" class="st5" d="M729,503.8c-24,36.1-65,59.8-111.6,59.8c-74,0-134-60-134-134c0-33,11.9-63.2,31.7-86.6"/>
    <ellipse id="XMLID_75_" class="st6" cx="501.8" cy="487.5" rx="228" ry="205.8"/>
    <polygon id="XMLID_74_" class="st1" points="501.7,442.3 458.1,506.3 501.9,564.6 545.4,506.3 &#9;"/>
    <polygon id="XMLID_73_" class="st6" points="501.7,442.3 458.1,506.3 501.9,564.6 545.4,506.3 &#9;"/>
    <path id="XMLID_72_" class="st1" d="M600.7,303.9c-30-14-64.1-21.9-100-21.9s-70,7.9-100,21.9v140.1h200V303.9z"/>
    <g id="XMLID_58_">
      <path id="XMLID_71_" class="st1" d="M613.5,317.9l108.7-3.3c-15.7,39.3-17.8,98.4-4.1,163c-17.4,36.8-54.4,62.9-97.9,64.2l0,0 c-61.8,1.9-113.5-46.7-115.3-108.6l0,0C503,371.4,551.6,319.8,613.5,317.9z"/>
      <path id="XMLID_70_" class="st6" d="M613.5,317.9l108.7-3.3c-15.7,39.3-17.8,98.4-4.1,163c-17.4,36.8-54.4,62.9-97.9,64.2l0,0 c-61.8,1.9-113.5-46.7-115.3-108.6l0,0C503,371.4,551.6,319.8,613.5,317.9z"/>
      <circle id="XMLID_69_" class="st7" cx="617.4" cy="429.7" r="112"/>
      <circle id="XMLID_5_" class="st7" cx="617.4" cy="429.7" r="112"/>
      <path id="XMLID_86_" class="st8" d="M696.6,350.5c-21.5-21.5-49.7-32.4-77.9-32.8c21.2,4.1,41.5,14.3,57.9,30.8 c43.7,43.7,43.7,114.6,0,158.4c-22.2,22.2-51.4,33.1-80.4,32.8c35.3,6.8,73.1-3.5,100.4-30.8C740.3,465.1,740.3,394.2,696.6,350.5 z"/>
      <ellipse id="XMLID_3_" transform="matrix(0.7071 -0.7071 0.7071 0.7071 -130.8246 543.5441)" class="st0" cx="590.7" cy="429.7" rx="84" ry="84.6"/>
      <path id="XMLID_12_" class="st9" d="M711.4,376.6c-3.1-4-9.1-15-12.8-18.7c-44-43.4-114.9-43-158.3,1.1 c-8.6,8.7-15.5,18.5-20.6,29C581.4,366.3,649,371.5,711.4,376.6z"/>
      <circle id="XMLID_68_" class="st6" cx="617.4" cy="429.7" r="112"/>
      <circle id="XMLID_67_" class="st6" cx="617.4" cy="429.7" r="112"/>
      <path id="XMLID_66_" class="st1" d="M706.7,362.1c-3.1-4-6.4-7.9-10.1-11.6c-43.7-43.7-114.6-43.7-158.4,0 c-8.7,8.7-15.6,18.4-20.8,28.8C579.4,358.1,644.3,356.5,706.7,362.1z"/>
      <circle id="XMLID_57_" class="st1" cx="562.9" cy="438.1" r="42"/>
      <circle id="XMLID_56_" class="st10" cx="539.1" cy="438.4" r="14"/>
    </g>
    <g id="XMLID_26_">
      <path id="XMLID_89_" class="st1" d="M388.8,317.9L280,314.6c15.7,39.3,17.8,98.4,4.1,163c17.4,36.8,54.4,62.9,97.9,64.2l0,0 c61.8,1.9,113.5-46.7,115.3-108.6l0,0C499.2,371.4,450.6,319.8,388.8,317.9z"/>
      <path id="XMLID_88_" class="st6" d="M388.8,317.9L280,314.6c15.7,39.3,17.8,98.4,4.1,163c17.4,36.8,54.4,62.9,97.9,64.2l0,0 c61.8,1.9,113.5-46.7,115.3-108.6l0,0C499.2,371.4,450.6,319.8,388.8,317.9z"/>
      <circle id="XMLID_87_" class="st7" cx="384.8" cy="429.7" r="112"/>
      <circle id="XMLID_84_" class="st7" cx="384.8" cy="429.7" r="112"/>
      <path id="XMLID_65_" class="st8" d="M305.6,350.5c21.5-21.5,49.7-32.4,77.9-32.8c-21.2,4.1-41.5,14.3-57.9,30.8 c-43.7,43.7-43.7,114.6,0,158.4c22.2,22.2,51.4,33.1,80.4,32.8c-35.3,6.8-73.1-3.5-100.4-30.8 C261.9,465.1,261.9,394.2,305.6,350.5z"/>
      <ellipse id="XMLID_64_" transform="matrix(0.7071 -0.7071 0.7071 0.7071 -183.3021 416.8521)" class="st0" cx="411.5" cy="429.7" rx="84.6" ry="84"/>
      <path id="XMLID_63_" class="st11" d="M290.9,376.6c3.1-4,9.1-15,12.8-18.7c44-43.4,114.9-43,158.3,1.1c8.6,8.7,15.5,18.5,20.6,29 C420.8,366.3,353.2,371.5,290.9,376.6z"/>
      <circle id="XMLID_62_" class="st6" cx="384.8" cy="429.7" r="112"/>
      <circle id="XMLID_61_" class="st6" cx="384.8" cy="429.7" r="112"/>
      <path id="XMLID_60_" class="st1" d="M295.6,362.1c3.1-4,6.4-7.9,10.1-11.6c43.7-43.7,114.6-43.7,158.4,0 c8.7,8.7,15.6,18.4,20.8,28.8C422.9,358.1,357.9,356.5,295.6,362.1z"/>
      <circle id="XMLID_59_" class="st1" cx="439.4" cy="438.1" r="42"/>
      <circle id="XMLID_37_" class="st10" cx="463.2" cy="438.4" r="14"/>
    </g>
    <path id="XMLID_19_" class="st1" d="M447.9,718.3L447.9,718.3c-8.8,0-16-7.2-16-16v-18c0-8.8,7.2-16,16-16h0c8.8,0,16,7.2,16,16v18 C463.9,711.1,456.8,718.3,447.9,718.3z"/>
    <path id="XMLID_17_" class="st1" d="M415.9,718.3L415.9,718.3c-8.8,0-16-7.2-16-16v-18c0-8.8,7.2-16,16-16h0c8.8,0,16,7.2,16,16v18 C431.9,711.1,424.8,718.3,415.9,718.3z"/>
    <path id="XMLID_16_" class="st1" d="M479.7,718.3L479.7,718.3c-8.8,0-16-7.2-16-16v-18c0-8.8,7.2-16,16-16h0c8.8,0,16,7.2,16,16v18 C495.7,711.1,488.5,718.3,479.7,718.3z"/>
    <path id="XMLID_15_" class="st1" d="M521.9,718.3L521.9,718.3c-8.8,0-16-7.2-16-16v-18c0-8.8,7.2-16,16-16h0c8.8,0,16,7.2,16,16v18 C537.9,711.1,530.7,718.3,521.9,718.3z"/>
    <path id="XMLID_14_" class="st1" d="M553.7,718.3L553.7,718.3c-8.8,0-16-7.2-16-16v-18c0-8.8,7.2-16,16-16h0c8.8,0,16,7.2,16,16v18 C569.7,711.1,562.5,718.3,553.7,718.3z"/>
    <path id="XMLID_13_" class="st1" d="M585.7,718.3L585.7,718.3c-8.8,0-16-7.2-16-16v-18c0-8.8,7.2-16,16-16h0c8.8,0,16,7.2,16,16v18 C601.7,711.1,594.5,718.3,585.7,718.3z"/>
    <path id="XMLID_11_" class="st12" d="M491.9,587.6c0,8.4-6.8,15.2-15.2,15.2c-8.4,0-15.2-6.8-15.2-15.2"/>
    <path id="XMLID_9_" class="st12" d="M538.4,587.6c0,8.4-6.8,15.2-15.2,15.2c-8.4,0-15.2-6.8-15.2-15.2"/>
    <path id="XMLID_10_" class="st13" d="M323,548.8c-2.2,4.7-7.7,6.8-12.5,4.6s-6.8-7.7-4.6-12.5"/>
    <path id="XMLID_1_" class="st13" d="M352.8,564.3c-2.2,4.7-7.7,6.8-12.5,4.6c-4.7-2.2-6.8-7.7-4.6-12.5"/>
    <path id="XMLID_78_" class="st13" d="M335.5,576.2c-2.2,4.7-7.7,6.8-12.5,4.6c-4.7-2.2-6.8-7.7-4.6-12.5"/>
    <path id="XMLID_77_" class="st13" d="M361.7,596.1c-2.2,4.7-7.7,6.8-12.5,4.6c-4.7-2.2-6.8-7.7-4.6-12.5"/>
    <path id="XMLID_79_" class="st13" d="M381.7,578.1c-2.2,4.7-7.7,6.8-12.5,4.6c-4.7-2.2-6.8-7.7-4.6-12.5"/>
    <path id="XMLID_85_" class="st13" d="M683.7,550.8c2.2,4.7,7.7,6.8,12.5,4.6s6.8-7.7,4.6-12.5"/>
    <path id="XMLID_83_" class="st13" d="M654,566.3c2.2,4.7,7.7,6.8,12.5,4.6c4.7-2.2,6.8-7.7,4.6-12.5"/>
    <path id="XMLID_82_" class="st13" d="M671.2,578.2c2.2,4.7,7.7,6.8,12.5,4.6c4.7-2.2,6.8-7.7,4.6-12.5"/>
    <path id="XMLID_81_" class="st13" d="M645.1,598.1c2.2,4.7,7.7,6.8,12.5,4.6c4.7-2.2,6.8-7.7,4.6-12.5"/>
    <path id="XMLID_80_" class="st13" d="M625.1,580.1c2.2,4.7,7.7,6.8,12.5,4.6c4.7-2.2,6.8-7.7,4.6-12.5"/>
    <path id="XMLID_8_" class="st12" d="M468.7,624.1c0,8.4-6.8,15.2-15.2,15.2c-8.4,0-15.2-6.8-15.2-15.2"/>
    <path id="XMLID_7_" class="st12" d="M515.2,624.1c0,8.4-6.8,15.2-15.2,15.2s-15.2-6.8-15.2-15.2"/>
    <path id="XMLID_6_" class="st12" d="M561.7,624.1c0,8.4-6.8,15.2-15.2,15.2c-8.4,0-15.2-6.8-15.2-15.2"/>
  </g>
  <path d="M 162.934 740.709 L 149.584 740.709 Q 147.893 740.709 147.136 739.952 Q 146.38 739.196 146.38 737.505 L 146.38 679.833 Q 146.38 678.142 147.136 677.385 Q 147.893 676.629 149.584 676.629 L 158.84 676.629 Q 160.531 676.629 161.732 677.163 Q 162.934 677.697 164.091 679.032 L 181.357 698.79 L 181.357 679.833 Q 181.357 678.142 182.113 677.385 Q 182.87 676.629 184.561 676.629 L 197.911 676.629 Q 199.602 676.629 200.358 677.385 Q 201.115 678.142 201.115 679.833 L 201.115 737.505 Q 201.115 739.196 200.358 739.952 Q 199.602 740.709 197.911 740.709 L 184.561 740.709 Q 182.87 740.709 182.113 739.952 Q 181.357 739.196 181.357 737.505 L 181.357 726.558 L 166.138 708.135 L 166.138 737.505 Q 166.138 739.196 165.381 739.952 Q 164.625 740.709 162.934 740.709 Z" style="fill: rgb(65, 61, 81); white-space: pre;"/>
  <path d="M 243.122 740.709 L 214.998 740.709 Q 213.307 740.709 212.55 739.952 Q 211.794 739.196 211.794 737.505 L 211.794 727.092 Q 211.794 725.401 212.55 724.644 Q 213.307 723.888 214.998 723.888 L 238.939 723.888 Q 240.096 723.888 240.674 723.131 Q 241.253 722.375 241.253 721.307 Q 241.253 719.794 240.674 719.082 Q 240.096 718.37 238.939 718.281 L 225.589 716.412 Q 219.359 715.522 215.576 712.318 Q 211.794 709.114 211.794 701.638 L 211.794 692.293 Q 211.794 684.728 216.689 680.678 Q 221.584 676.629 230.217 676.629 L 255.137 676.629 Q 256.828 676.629 257.584 677.385 Q 258.341 678.142 258.341 679.833 L 258.341 690.424 Q 258.341 692.115 257.584 692.871 Q 256.828 693.628 255.137 693.628 L 234.4 693.628 Q 233.243 693.628 232.62 694.384 Q 231.997 695.141 231.997 696.298 Q 231.997 697.455 232.62 698.256 Q 233.243 699.057 234.4 699.146 L 247.661 700.926 Q 253.891 701.816 257.718 705.02 Q 261.545 708.224 261.545 715.7 L 261.545 725.045 Q 261.545 732.61 256.605 736.659 Q 251.666 740.709 243.122 740.709 Z" style="fill: rgb(65, 61, 81); white-space: pre;"/>
  <path d="M 325.796 723.888 Q 325.796 727.982 324.595 731.319 Q 323.393 734.657 320.323 737.015 Q 317.252 739.374 311.912 740.709 Q 306.572 742.044 298.295 742.044 Q 290.018 742.044 284.678 740.709 Q 279.338 739.374 276.268 737.015 Q 273.197 734.657 271.996 731.319 Q 270.794 727.982 270.794 723.888 L 270.794 679.833 Q 270.794 678.142 271.551 677.385 Q 272.307 676.629 273.998 676.629 L 287.971 676.629 Q 289.662 676.629 290.419 677.385 Q 291.175 678.142 291.175 679.833 L 291.175 720.417 Q 291.175 722.197 292.51 723.398 Q 293.845 724.6 298.473 724.6 Q 303.19 724.6 304.525 723.398 Q 305.86 722.197 305.86 720.417 L 305.86 679.833 Q 305.86 678.142 306.617 677.385 Q 307.373 676.629 309.064 676.629 L 322.592 676.629 Q 324.283 676.629 325.04 677.385 Q 325.796 678.142 325.796 679.833 Z" style="fill: rgb(65, 61, 81); white-space: pre;"/>
  <path d="M 367.356 740.709 L 339.232 740.709 Q 337.541 740.709 336.785 739.952 Q 336.028 739.196 336.028 737.505 L 336.028 727.092 Q 336.028 725.401 336.785 724.644 Q 337.541 723.888 339.232 723.888 L 363.173 723.888 Q 364.33 723.888 364.909 723.131 Q 365.487 722.375 365.487 721.307 Q 365.487 719.794 364.909 719.082 Q 364.33 718.37 363.173 718.281 L 349.823 716.412 Q 343.593 715.522 339.811 712.318 Q 336.028 709.114 336.028 701.638 L 336.028 692.293 Q 336.028 684.728 340.923 680.678 Q 345.818 676.629 354.451 676.629 L 379.371 676.629 Q 381.062 676.629 381.819 677.385 Q 382.575 678.142 382.575 679.833 L 382.575 690.424 Q 382.575 692.115 381.819 692.871 Q 381.062 693.628 379.371 693.628 L 358.634 693.628 Q 357.477 693.628 356.854 694.384 Q 356.231 695.141 356.231 696.298 Q 356.231 697.455 356.854 698.256 Q 357.477 699.057 358.634 699.146 L 371.895 700.926 Q 378.125 701.816 381.952 705.02 Q 385.779 708.224 385.779 715.7 L 385.779 725.045 Q 385.779 732.61 380.84 736.659 Q 375.9 740.709 367.356 740.709 Z" style="fill: rgb(65, 61, 81); white-space: pre;"/>
  <path d="M 424.859 740.709 L 410.441 740.709 Q 408.75 740.709 407.993 739.952 Q 407.237 739.196 407.237 737.505 L 407.237 693.806 L 394.154 693.806 Q 392.463 693.806 391.706 693.049 Q 390.95 692.293 390.95 690.602 L 390.95 679.833 Q 390.95 678.142 391.706 677.385 Q 392.463 676.629 394.154 676.629 L 441.146 676.629 Q 442.837 676.629 443.593 677.385 Q 444.35 678.142 444.35 679.833 L 444.35 690.602 Q 444.35 692.293 443.593 693.049 Q 442.837 693.806 441.146 693.806 L 428.063 693.806 L 428.063 737.505 Q 428.063 739.196 427.306 739.952 Q 426.55 740.709 424.859 740.709 Z" style="fill: rgb(65, 61, 81); white-space: pre;"/>
  <path d="M 472.64 695.319 L 468.457 708.847 L 482.43 708.847 L 478.247 695.319 Q 477.891 694.518 477.491 694.162 Q 477.09 693.806 476.556 693.806 L 474.331 693.806 Q 473.797 693.806 473.397 694.162 Q 472.996 694.518 472.64 695.319 Z M 467.567 737.505 Q 467.567 739.196 466.811 739.952 Q 466.054 740.709 464.363 740.709 L 451.28 740.709 Q 449.589 740.709 448.833 739.952 Q 448.076 739.196 448.076 737.505 L 448.076 714.009 Q 448.076 711.339 448.922 707.868 Q 449.767 704.397 451.547 699.769 L 459.29 679.566 Q 459.824 678.053 460.937 677.341 Q 462.049 676.629 463.829 676.629 L 487.77 676.629 Q 489.461 676.629 490.574 677.341 Q 491.686 678.053 492.22 679.566 L 499.963 699.769 Q 501.743 704.397 502.589 707.868 Q 503.434 711.339 503.434 714.009 L 503.434 737.505 Q 503.434 739.196 502.678 739.952 Q 501.921 740.709 500.23 740.709 L 486.791 740.709 Q 485.011 740.709 484.166 739.952 Q 483.32 739.196 483.32 737.505 L 483.32 725.045 L 467.567 725.045 Z" style="fill: rgb(65, 61, 81); white-space: pre;"/>
  <path d="M 516.16 740.709 Q 514.469 740.709 513.713 739.952 Q 512.956 739.196 512.956 737.505 L 512.956 726.914 Q 512.956 725.223 513.713 724.466 Q 514.469 723.71 516.16 723.71 L 524.971 723.71 L 524.971 693.806 L 516.16 693.806 Q 514.469 693.806 513.713 693.049 Q 512.956 692.293 512.956 690.602 L 512.956 679.833 Q 512.956 678.142 513.713 677.385 Q 514.469 676.629 516.16 676.629 L 554.074 676.629 Q 555.765 676.629 556.522 677.385 Q 557.278 678.142 557.278 679.833 L 557.278 690.602 Q 557.278 692.293 556.522 693.049 Q 555.765 693.806 554.074 693.806 L 545.441 693.806 L 545.441 723.71 L 554.074 723.71 Q 555.765 723.71 556.522 724.466 Q 557.278 725.223 557.278 726.914 L 557.278 737.505 Q 557.278 739.196 556.522 739.952 Q 555.765 740.709 554.074 740.709 Z" style="fill: rgb(65, 61, 81); white-space: pre;"/>
  <path d="M 584.793 740.709 L 571.443 740.709 Q 569.752 740.709 568.996 739.952 Q 568.239 739.196 568.239 737.505 L 568.239 679.833 Q 568.239 678.142 568.996 677.385 Q 569.752 676.629 571.443 676.629 L 580.699 676.629 Q 582.39 676.629 583.592 677.163 Q 584.793 677.697 585.95 679.032 L 603.216 698.79 L 603.216 679.833 Q 603.216 678.142 603.973 677.385 Q 604.729 676.629 606.42 676.629 L 619.77 676.629 Q 621.461 676.629 622.218 677.385 Q 622.974 678.142 622.974 679.833 L 622.974 737.505 Q 622.974 739.196 622.218 739.952 Q 621.461 740.709 619.77 740.709 L 606.42 740.709 Q 604.729 740.709 603.973 739.952 Q 603.216 739.196 603.216 737.505 L 603.216 726.558 L 587.997 708.135 L 587.997 737.505 Q 587.997 739.196 587.241 739.952 Q 586.484 740.709 584.793 740.709 Z" style="fill: rgb(65, 61, 81); white-space: pre;"/>
  <path d="M 655.191 740.709 L 637.213 740.709 Q 635.522 740.709 634.766 739.952 Q 634.009 739.196 634.009 737.505 L 634.009 719.438 Q 634.009 717.747 634.766 716.99 Q 635.522 716.234 637.213 716.234 L 655.191 716.234 Q 656.882 716.234 657.639 716.99 Q 658.395 717.747 658.395 719.438 L 658.395 737.505 Q 658.395 739.196 657.639 739.952 Q 656.882 740.709 655.191 740.709 Z" style="fill: rgb(65, 61, 81); white-space: pre;"/>
  <path d="M 712.058 740.709 L 690.342 740.709 Q 679.217 740.709 673.832 736.259 Q 668.448 731.809 668.448 722.553 L 668.448 694.874 Q 668.448 685.618 673.832 681.123 Q 679.217 676.629 690.342 676.629 L 712.058 676.629 Q 713.749 676.629 714.505 677.385 Q 715.262 678.142 715.262 679.833 L 715.262 690.602 Q 715.262 692.293 714.505 693.049 Q 713.749 693.806 712.058 693.806 L 694.169 693.806 Q 691.41 693.806 690.075 694.918 Q 688.74 696.031 688.74 698.256 L 688.74 719.438 Q 688.74 721.663 690.075 722.686 Q 691.41 723.71 694.169 723.71 L 712.058 723.71 Q 713.749 723.71 714.505 724.466 Q 715.262 725.223 715.262 726.914 L 715.262 737.505 Q 715.262 739.196 714.505 739.952 Q 713.749 740.709 712.058 740.709 Z" style="fill: rgb(65, 61, 81); white-space: pre;"/>
  <path d="M 779.154 723.888 Q 779.154 727.982 777.953 731.319 Q 776.751 734.657 773.681 737.015 Q 770.61 739.374 765.226 740.709 Q 759.841 742.044 751.564 742.044 Q 743.287 742.044 737.858 740.709 Q 732.429 739.374 729.359 737.015 Q 726.288 734.657 725.087 731.319 Q 723.885 727.982 723.885 723.888 L 723.885 693.539 Q 723.885 689.445 725.087 686.107 Q 726.288 682.77 729.359 680.367 Q 732.429 677.964 737.858 676.629 Q 743.287 675.294 751.564 675.294 Q 759.841 675.294 765.226 676.629 Q 770.61 677.964 773.681 680.367 Q 776.751 682.77 777.953 686.107 Q 779.154 689.445 779.154 693.539 Z M 744.088 720.684 Q 744.088 722.464 745.423 723.665 Q 746.758 724.867 751.564 724.867 Q 756.37 724.867 757.705 723.665 Q 759.04 722.464 759.04 720.684 L 759.04 696.743 Q 759.04 695.052 757.705 693.85 Q 756.37 692.649 751.564 692.649 Q 746.758 692.649 745.423 693.85 Q 744.088 695.052 744.088 696.743 Z" style="fill: rgb(65, 61, 81); white-space: pre;"/>
  <path d="M 806.923 740.709 L 793.662 740.709 Q 791.971 740.709 791.215 739.952 Q 790.458 739.196 790.458 737.505 L 790.458 679.833 Q 790.458 678.142 791.215 677.385 Q 791.971 676.629 793.662 676.629 L 807.991 676.629 Q 809.415 676.629 810.35 677.252 Q 811.284 677.875 812.085 679.299 L 820.095 693.806 Q 820.54 694.607 820.852 694.963 Q 821.163 695.319 821.697 695.319 L 822.498 695.319 Q 823.032 695.319 823.344 694.963 Q 823.655 694.607 824.1 693.806 L 832.021 679.299 Q 832.822 677.875 833.757 677.252 Q 834.691 676.629 836.115 676.629 L 850.533 676.629 Q 852.224 676.629 852.981 677.385 Q 853.737 678.142 853.737 679.833 L 853.737 737.505 Q 853.737 739.196 852.981 739.952 Q 852.224 740.709 850.533 740.709 L 836.827 740.709 Q 835.136 740.709 834.38 739.952 Q 833.623 739.196 833.623 737.505 L 833.623 706.177 L 828.372 715.878 Q 827.571 717.391 826.459 718.058 Q 825.346 718.726 823.655 718.726 L 820.095 718.726 Q 818.404 718.726 817.292 718.058 Q 816.179 717.391 815.378 715.878 L 810.127 706.177 L 810.127 737.505 Q 810.127 739.196 809.371 739.952 Q 808.614 740.709 806.923 740.709 Z" style="fill: rgb(65, 61, 81); white-space: pre;"/>
  <path d="M 156.959 797.387 C 154.467 797.387 152.303 796.882 150.468 795.871 C 148.633 794.861 147.218 793.363 146.225 791.376 C 145.232 789.389 144.735 786.965 144.735 784.102 C 144.735 779.691 145.77 776.349 147.841 774.076 C 149.912 771.803 152.8 770.666 156.504 770.666 C 159.232 770.666 161.437 771.273 163.121 772.485 C 164.805 773.697 166.025 775.389 166.783 777.561 C 167.541 779.733 167.903 782.267 167.869 785.163 L 147.917 785.163 L 147.766 781.223 L 163.828 781.223 L 162.565 782.486 C 162.464 779.893 161.926 777.999 160.949 776.804 C 159.973 775.608 158.44 775.01 156.353 775.01 C 155.006 775.01 153.861 775.288 152.918 775.844 C 151.975 776.399 151.259 777.342 150.771 778.672 C 150.283 780.003 150.039 781.829 150.039 784.153 C 150.039 786.982 150.695 789.128 152.009 790.593 C 153.322 792.058 155.258 792.79 157.817 792.79 C 158.962 792.79 160.031 792.689 161.025 792.487 C 162.018 792.285 162.936 792.024 163.778 791.704 C 164.62 791.384 165.344 791.073 165.95 790.77 L 165.95 795.669 C 164.771 796.175 163.441 796.587 161.959 796.907 C 160.478 797.227 158.811 797.387 156.959 797.387 Z" style="fill: rgb(65, 61, 81); white-space: pre;"/>
  <path d="M 175.432 773.344 C 176.173 772.973 177.006 772.628 177.932 772.308 C 178.858 771.988 179.843 771.71 180.887 771.475 C 181.931 771.239 182.992 771.054 184.07 770.919 C 185.147 770.784 186.191 770.717 187.201 770.717 C 189.592 770.717 191.545 771.045 193.06 771.702 C 194.576 772.359 195.704 773.369 196.445 774.733 C 197.186 776.096 197.556 777.805 197.556 779.859 L 197.556 796.629 L 192.252 796.629 L 192.252 780.567 C 192.252 779.927 192.177 779.295 192.025 778.672 C 191.873 778.049 191.587 777.477 191.166 776.955 C 190.745 776.433 190.139 776.021 189.348 775.718 C 188.557 775.414 187.521 775.263 186.241 775.263 C 185.332 775.263 184.398 775.347 183.438 775.516 C 182.478 775.684 181.578 775.92 180.736 776.223 L 180.736 796.629 L 175.432 796.629 L 175.432 773.344 Z" style="fill: rgb(65, 61, 81); white-space: pre;"/>
  <path d="M 214.516 796.629 L 203.858 771.273 L 209.515 771.273 L 218.203 792.336 L 216.941 792.487 L 225.022 771.273 L 230.528 771.273 L 219.82 796.629 L 214.516 796.629 Z" style="fill: rgb(65, 61, 81); white-space: pre;"/>
  <path d="M 237.387 796.629 L 237.387 771.424 L 242.69 771.424 L 242.741 796.629 L 237.387 796.629 Z M 237.235 767.232 L 237.235 762.433 L 242.893 762.433 L 242.893 767.232 L 237.235 767.232 Z" style="fill: rgb(65, 61, 81); white-space: pre;"/>
  <path d="M 251.836 796.629 L 251.836 773.596 C 252.274 773.327 253.082 772.956 254.26 772.485 C 255.439 772.013 256.836 771.601 258.453 771.247 C 260.069 770.894 261.702 770.717 263.352 770.717 C 264.194 770.717 264.885 770.784 265.423 770.919 C 265.962 771.054 266.417 771.205 266.787 771.374 L 266.787 775.617 C 266.013 775.516 265.204 775.44 264.363 775.389 C 263.521 775.339 262.679 775.339 261.837 775.389 C 260.995 775.44 260.17 775.516 259.362 775.617 C 258.554 775.718 257.813 775.819 257.14 775.92 L 257.14 796.629 L 251.836 796.629 Z" style="fill: rgb(65, 61, 81); white-space: pre;"/>
  <path d="M 282.883 797.387 C 278.774 797.387 275.719 796.225 273.715 793.902 C 271.711 791.578 270.71 788.261 270.71 783.951 C 270.71 779.371 271.745 776.012 273.816 773.874 C 275.887 771.736 278.875 770.666 282.782 770.666 C 285.577 770.666 287.883 771.18 289.702 772.207 C 291.52 773.234 292.867 774.741 293.743 776.728 C 294.618 778.715 295.056 781.122 295.056 783.951 C 295.056 788.227 294.004 791.536 291.899 793.876 C 289.794 796.217 286.789 797.387 282.883 797.387 Z M 282.832 792.891 C 284.55 792.891 285.913 792.512 286.924 791.755 C 287.934 790.997 288.666 789.945 289.121 788.598 C 289.575 787.251 289.803 785.702 289.803 783.951 C 289.803 781.998 289.567 780.365 289.096 779.051 C 288.624 777.738 287.883 776.753 286.873 776.096 C 285.863 775.44 284.516 775.111 282.832 775.111 C 281.148 775.111 279.802 775.465 278.791 776.172 C 277.781 776.879 277.057 777.89 276.619 779.203 C 276.182 780.516 275.963 782.099 275.963 783.951 C 275.963 786.746 276.485 788.935 277.529 790.517 C 278.572 792.1 280.34 792.891 282.832 792.891 Z" style="fill: rgb(65, 61, 81); white-space: pre;"/>
  <path d="M 302.681 773.344 C 303.422 772.973 304.255 772.628 305.181 772.308 C 306.107 771.988 307.092 771.71 308.136 771.475 C 309.18 771.239 310.241 771.054 311.318 770.919 C 312.396 770.784 313.44 770.717 314.45 770.717 C 316.841 770.717 318.794 771.045 320.309 771.702 C 321.825 772.359 322.953 773.369 323.694 774.733 C 324.435 776.096 324.805 777.805 324.805 779.859 L 324.805 796.629 L 319.501 796.629 L 319.501 780.567 C 319.501 779.927 319.425 779.295 319.274 778.672 C 319.122 778.049 318.836 777.477 318.415 776.955 C 317.994 776.433 317.388 776.021 316.597 775.718 C 315.806 775.414 314.77 775.263 313.49 775.263 C 312.581 775.263 311.647 775.347 310.687 775.516 C 309.727 775.684 308.827 775.92 307.985 776.223 L 307.985 796.629 L 302.681 796.629 L 302.681 773.344 Z" style="fill: rgb(65, 61, 81); white-space: pre;"/>
  <path d="M 355.707 779.859 L 355.707 796.629 L 350.403 796.629 L 350.403 780.567 C 350.403 779.927 350.328 779.295 350.176 778.672 C 350.024 778.049 349.738 777.477 349.317 776.955 C 348.896 776.433 348.29 776.021 347.499 775.718 C 346.708 775.414 345.672 775.263 344.393 775.263 C 343.483 775.263 342.574 775.347 341.665 775.516 C 340.756 775.684 339.88 775.92 339.038 776.223 L 339.038 796.629 L 333.735 796.629 L 333.735 773.344 C 334.476 772.973 335.309 772.628 336.235 772.308 C 337.161 771.988 338.146 771.71 339.19 771.475 C 340.234 771.239 341.295 771.054 342.372 770.919 C 343.45 770.784 344.494 770.717 345.504 770.717 C 347.895 770.717 349.831 771.045 351.313 771.702 C 352.794 772.359 353.897 773.369 354.621 774.733 C 355.345 776.096 355.707 777.805 355.707 779.859 Z M 349.646 774.657 C 350.723 773.781 351.91 773.057 353.207 772.485 C 354.503 771.912 355.85 771.475 357.248 771.172 C 358.645 770.869 360.017 770.717 361.364 770.717 C 363.755 770.717 365.691 771.045 367.173 771.702 C 368.655 772.359 369.757 773.369 370.481 774.733 C 371.205 776.096 371.567 777.805 371.567 779.859 L 371.567 796.629 L 366.264 796.629 L 366.264 780.567 C 366.264 779.927 366.188 779.295 366.036 778.672 C 365.885 778.049 365.599 777.477 365.178 776.955 C 364.757 776.433 364.151 776.021 363.359 775.718 C 362.568 775.414 361.533 775.263 360.253 775.263 C 359.344 775.263 358.435 775.398 357.525 775.667 C 356.616 775.936 355.741 776.357 354.899 776.93 L 349.646 774.657 Z" style="fill: rgb(65, 61, 81); white-space: pre;"/>
  <path d="M 391.407 797.387 C 388.915 797.387 386.751 796.882 384.916 795.871 C 383.081 794.861 381.666 793.363 380.673 791.376 C 379.68 789.389 379.183 786.965 379.183 784.102 C 379.183 779.691 380.218 776.349 382.289 774.076 C 384.36 771.803 387.248 770.666 390.952 770.666 C 393.68 770.666 395.885 771.273 397.569 772.485 C 399.253 773.697 400.473 775.389 401.231 777.561 C 401.989 779.733 402.351 782.267 402.317 785.163 L 382.365 785.163 L 382.214 781.223 L 398.276 781.223 L 397.013 782.486 C 396.912 779.893 396.374 777.999 395.397 776.804 C 394.42 775.608 392.888 775.01 390.801 775.01 C 389.454 775.01 388.309 775.288 387.366 775.844 C 386.423 776.399 385.707 777.342 385.219 778.672 C 384.731 780.003 384.487 781.829 384.487 784.153 C 384.487 786.982 385.143 789.128 386.457 790.593 C 387.77 792.058 389.706 792.79 392.265 792.79 C 393.41 792.79 394.479 792.689 395.473 792.487 C 396.466 792.285 397.384 792.024 398.226 791.704 C 399.067 791.384 399.791 791.073 400.398 790.77 L 400.398 795.669 C 399.219 796.175 397.889 796.587 396.407 796.907 C 394.926 797.227 393.259 797.387 391.407 797.387 Z" style="fill: rgb(65, 61, 81); white-space: pre;"/>
  <path d="M 409.896 773.344 C 410.636 772.973 411.47 772.628 412.396 772.308 C 413.322 771.988 414.307 771.71 415.351 771.475 C 416.395 771.239 417.455 771.054 418.533 770.919 C 419.611 770.784 420.654 770.717 421.665 770.717 C 424.056 770.717 426.009 771.045 427.524 771.702 C 429.039 772.359 430.167 773.369 430.908 774.733 C 431.649 776.096 432.019 777.805 432.019 779.859 L 432.019 796.629 L 426.716 796.629 L 426.716 780.567 C 426.716 779.927 426.64 779.295 426.488 778.672 C 426.337 778.049 426.051 777.477 425.63 776.955 C 425.209 776.433 424.603 776.021 423.811 775.718 C 423.02 775.414 421.985 775.263 420.705 775.263 C 419.796 775.263 418.861 775.347 417.902 775.516 C 416.942 775.684 416.041 775.92 415.199 776.223 L 415.199 796.629 L 409.896 796.629 L 409.896 773.344 Z" style="fill: rgb(65, 61, 81); white-space: pre;"/>
  <path d="M 449.991 797.286 C 447.701 797.286 445.891 796.68 444.561 795.467 C 443.231 794.255 442.566 792.47 442.566 790.113 L 442.566 775.667 L 438.474 775.667 L 438.474 771.273 L 442.566 771.273 L 442.566 764.201 L 448.021 764.201 L 448.021 771.273 L 454.183 771.273 L 454.183 775.667 L 448.021 775.667 L 448.021 789.052 C 448.021 790.231 448.231 791.115 448.652 791.704 C 449.073 792.294 449.856 792.588 451.001 792.588 C 451.573 792.588 452.146 792.512 452.718 792.361 C 453.291 792.209 453.779 792.016 454.183 791.78 L 454.183 796.478 C 453.577 796.747 452.895 796.949 452.137 797.084 C 451.38 797.218 450.664 797.286 449.991 797.286 Z" style="fill: rgb(65, 61, 81); white-space: pre;"/>
  <path d="M 498.767 796.629 L 482.906 777.536 C 482.166 776.627 481.433 775.549 480.709 774.303 C 479.985 773.057 479.623 771.828 479.623 770.616 C 479.623 769.134 480.027 767.779 480.835 766.55 C 481.644 765.321 482.73 764.336 484.093 763.595 C 485.457 762.854 486.981 762.484 488.665 762.484 C 490.348 762.484 491.838 762.82 493.135 763.494 C 494.431 764.167 495.458 765.093 496.216 766.272 C 496.974 767.451 497.353 768.764 497.353 770.212 C 497.353 771.592 497.041 772.78 496.418 773.773 C 495.795 774.766 494.928 775.675 493.817 776.5 C 492.706 777.325 491.392 778.193 489.877 779.102 L 487.654 776.021 C 489.001 775.28 490.012 774.606 490.685 774 C 491.359 773.394 491.805 772.813 492.024 772.258 C 492.243 771.702 492.352 771.155 492.352 770.616 C 492.352 769.606 492.007 768.781 491.316 768.141 C 490.626 767.501 489.759 767.181 488.715 767.181 C 487.671 767.181 486.787 767.526 486.063 768.217 C 485.339 768.907 484.977 769.74 484.977 770.717 C 484.977 771.155 485.154 771.677 485.508 772.283 C 485.861 772.889 486.265 773.503 486.72 774.126 C 487.175 774.749 487.604 775.297 488.008 775.768 L 505.434 796.629 L 498.767 796.629 Z M 486.947 797.134 C 485.129 797.134 483.546 796.848 482.199 796.276 C 480.852 795.703 479.749 794.937 478.891 793.977 C 478.032 793.018 477.384 791.982 476.946 790.871 C 476.508 789.76 476.289 788.682 476.289 787.638 C 476.289 786.527 476.517 785.374 476.971 784.178 C 477.426 782.983 478.217 781.796 479.345 780.617 C 480.473 779.439 482.031 778.344 484.018 777.334 L 487.351 780.314 C 485.903 781.122 484.784 781.956 483.992 782.814 C 483.201 783.673 482.654 784.481 482.351 785.239 C 482.048 785.997 481.896 786.678 481.896 787.285 C 481.896 787.689 481.972 788.185 482.123 788.775 C 482.275 789.364 482.553 789.953 482.957 790.543 C 483.361 791.132 483.95 791.62 484.725 792.007 C 485.499 792.395 486.493 792.588 487.705 792.588 C 489.052 792.588 490.332 792.226 491.544 791.502 C 492.756 790.778 493.733 790.012 494.473 789.204 L 497.302 792.588 C 496.561 793.396 495.694 794.146 494.701 794.836 C 493.707 795.526 492.562 796.082 491.266 796.503 C 489.97 796.924 488.53 797.134 486.947 797.134 Z M 496.645 786.83 C 497.05 786.19 497.386 785.525 497.656 784.835 C 497.925 784.144 498.144 783.513 498.312 782.941 C 498.481 782.368 498.599 781.947 498.666 781.678 L 502.959 781.678 C 502.757 782.823 502.362 784.144 501.772 785.643 C 501.183 787.141 500.451 788.581 499.575 789.962 L 496.645 786.83 Z" style="fill: rgb(65, 61, 81); white-space: pre;"/>
  <path d="M 535.468 797.387 C 533.65 797.387 532.109 797.193 530.846 796.806 C 529.583 796.419 528.346 795.939 527.134 795.366 L 527.134 790.366 C 528.009 790.905 528.868 791.384 529.71 791.805 C 530.552 792.226 531.436 792.555 532.362 792.79 C 533.288 793.026 534.323 793.144 535.468 793.144 C 536.916 793.144 538.052 792.841 538.877 792.235 C 539.703 791.629 540.115 790.871 540.115 789.962 C 540.115 789.187 539.854 788.581 539.332 788.143 C 538.81 787.706 538.145 787.335 537.337 787.032 C 536.529 786.729 535.687 786.426 534.811 786.123 C 533.902 785.887 532.993 785.609 532.084 785.289 C 531.175 784.97 530.341 784.532 529.583 783.976 C 528.826 783.42 528.22 782.705 527.765 781.829 C 527.31 780.954 527.083 779.876 527.083 778.597 C 527.083 777.182 527.369 775.979 527.942 774.985 C 528.514 773.992 529.264 773.184 530.19 772.561 C 531.116 771.938 532.143 771.483 533.271 771.197 C 534.399 770.911 535.502 770.767 536.579 770.767 C 538.364 770.801 539.82 771.02 540.948 771.424 C 542.077 771.828 543.179 772.316 544.257 772.889 L 544.307 777.435 C 543.095 776.795 541.95 776.24 540.873 775.768 C 539.795 775.297 538.549 775.061 537.135 775.061 C 535.822 775.061 534.727 775.305 533.852 775.793 C 532.976 776.282 532.538 776.997 532.538 777.94 C 532.538 778.748 532.782 779.388 533.271 779.859 C 533.759 780.331 534.399 780.701 535.19 780.971 C 535.982 781.24 536.832 781.509 537.741 781.779 C 538.583 782.048 539.458 782.326 540.368 782.612 C 541.277 782.899 542.119 783.311 542.893 783.85 C 543.668 784.389 544.299 785.096 544.787 785.971 C 545.276 786.847 545.52 787.992 545.52 789.406 C 545.486 791.292 544.989 792.824 544.03 794.003 C 543.07 795.181 541.816 796.04 540.267 796.579 C 538.718 797.117 537.118 797.387 535.468 797.387 Z" style="fill: rgb(65, 61, 81); white-space: pre;"/>
  <path d="M 564.416 797.387 C 562.092 797.387 560.097 797.008 558.43 796.25 C 556.763 795.493 555.475 794.356 554.566 792.841 C 553.657 791.325 553.202 789.44 553.202 787.184 L 553.202 771.273 L 558.506 771.273 L 558.506 786.426 C 558.506 788.581 558.986 790.172 559.945 791.199 C 560.905 792.226 562.395 792.74 564.416 792.74 C 566.436 792.74 567.926 792.226 568.886 791.199 C 569.846 790.172 570.325 788.581 570.325 786.426 L 570.325 771.273 L 575.427 771.273 L 575.427 787.184 C 575.427 790.551 574.459 793.093 572.523 794.811 C 570.586 796.528 567.884 797.387 564.416 797.387 Z" style="fill: rgb(65, 61, 81); white-space: pre;"/>
  <path d="M 591.671 797.387 C 589.853 797.387 588.312 797.193 587.049 796.806 C 585.787 796.419 584.549 795.939 583.337 795.366 L 583.337 790.366 C 584.212 790.905 585.071 791.384 585.913 791.805 C 586.755 792.226 587.639 792.555 588.565 792.79 C 589.491 793.026 590.526 793.144 591.671 793.144 C 593.119 793.144 594.256 792.841 595.081 792.235 C 595.906 791.629 596.318 790.871 596.318 789.962 C 596.318 789.187 596.057 788.581 595.535 788.143 C 595.013 787.706 594.348 787.335 593.54 787.032 C 592.732 786.729 591.89 786.426 591.015 786.123 C 590.105 785.887 589.196 785.609 588.287 785.289 C 587.378 784.97 586.544 784.532 585.787 783.976 C 585.029 783.42 584.423 782.705 583.968 781.829 C 583.514 780.954 583.286 779.876 583.286 778.597 C 583.286 777.182 583.573 775.979 584.145 774.985 C 584.718 773.992 585.467 773.184 586.393 772.561 C 587.319 771.938 588.346 771.483 589.474 771.197 C 590.602 770.911 591.705 770.767 592.782 770.767 C 594.567 770.801 596.024 771.02 597.152 771.424 C 598.28 771.828 599.383 772.316 600.46 772.889 L 600.511 777.435 C 599.298 776.795 598.153 776.24 597.076 775.768 C 595.998 775.297 594.752 775.061 593.338 775.061 C 592.025 775.061 590.93 775.305 590.055 775.793 C 589.179 776.282 588.742 776.997 588.742 777.94 C 588.742 778.748 588.986 779.388 589.474 779.859 C 589.962 780.331 590.602 780.701 591.393 780.971 C 592.185 781.24 593.035 781.509 593.944 781.779 C 594.786 782.048 595.662 782.326 596.571 782.612 C 597.48 782.899 598.322 783.311 599.096 783.85 C 599.871 784.389 600.502 785.096 600.991 785.971 C 601.479 786.847 601.723 787.992 601.723 789.406 C 601.689 791.292 601.193 792.824 600.233 794.003 C 599.273 795.181 598.019 796.04 596.47 796.579 C 594.921 797.117 593.321 797.387 591.671 797.387 Z" style="fill: rgb(65, 61, 81); white-space: pre;"/>
  <path d="M 618.447 797.286 C 616.157 797.286 614.347 796.68 613.017 795.467 C 611.687 794.255 611.022 792.47 611.022 790.113 L 611.022 775.667 L 606.93 775.667 L 606.93 771.273 L 611.022 771.273 L 611.022 764.201 L 616.477 764.201 L 616.477 771.273 L 622.639 771.273 L 622.639 775.667 L 616.477 775.667 L 616.477 789.052 C 616.477 790.231 616.687 791.115 617.108 791.704 C 617.529 792.294 618.312 792.588 619.457 792.588 C 620.03 792.588 620.602 792.512 621.175 792.361 C 621.747 792.209 622.235 792.016 622.639 791.78 L 622.639 796.478 C 622.033 796.747 621.351 796.949 620.594 797.084 C 619.836 797.218 619.12 797.286 618.447 797.286 Z" style="fill: rgb(65, 61, 81); white-space: pre;"/>
  <path d="M 639.452 797.387 C 638.138 797.387 636.876 797.261 635.663 797.008 C 634.451 796.755 633.348 796.326 632.355 795.72 C 631.362 795.114 630.57 794.28 629.981 793.22 C 629.392 792.159 629.097 790.837 629.097 789.255 C 629.097 787.369 629.467 785.82 630.208 784.608 C 630.949 783.395 632.01 782.486 633.39 781.88 C 634.771 781.274 636.421 780.971 638.341 780.971 C 639.62 780.971 640.773 781.072 641.801 781.274 C 642.828 781.476 643.754 781.754 644.579 782.107 C 645.404 782.461 646.102 782.856 646.675 783.294 L 647.23 786.779 C 646.49 786.274 645.496 785.845 644.25 785.491 C 643.004 785.138 641.657 784.961 640.209 784.961 C 638.29 784.961 636.834 785.298 635.84 785.971 C 634.847 786.645 634.35 787.655 634.35 789.002 C 634.35 790.012 634.636 790.829 635.209 791.452 C 635.781 792.075 636.497 792.529 637.356 792.816 C 638.214 793.102 639.115 793.245 640.058 793.245 C 642.045 793.245 643.509 793.11 644.452 792.841 C 645.395 792.571 645.867 791.948 645.867 790.972 L 645.867 780.365 C 645.867 778.58 645.328 777.275 644.25 776.45 C 643.173 775.625 641.641 775.212 639.654 775.212 C 638.24 775.212 636.775 775.44 635.259 775.894 C 633.744 776.349 632.498 776.98 631.522 777.789 L 631.522 772.838 C 632.464 772.199 633.837 771.685 635.638 771.298 C 637.44 770.911 639.3 770.717 641.22 770.717 C 642.163 770.717 643.114 770.81 644.074 770.995 C 645.033 771.18 645.934 771.466 646.776 771.853 C 647.618 772.241 648.367 772.763 649.024 773.419 C 649.68 774.076 650.194 774.876 650.564 775.819 C 650.935 776.761 651.12 777.873 651.12 779.152 L 651.12 791.275 C 651.12 792.925 650.606 794.196 649.579 795.089 C 648.552 795.981 647.163 796.587 645.412 796.907 C 643.661 797.227 641.674 797.387 639.452 797.387 Z" style="fill: rgb(65, 61, 81); white-space: pre;"/>
  <path d="M 660.204 796.629 L 660.204 771.424 L 665.508 771.424 L 665.558 796.629 L 660.204 796.629 Z M 660.053 767.232 L 660.053 762.433 L 665.71 762.433 L 665.71 767.232 L 660.053 767.232 Z" style="fill: rgb(65, 61, 81); white-space: pre;"/>
  <path d="M 674.639 773.344 C 675.379 772.973 676.213 772.628 677.139 772.308 C 678.065 771.988 679.05 771.71 680.094 771.475 C 681.138 771.239 682.198 771.054 683.276 770.919 C 684.353 770.784 685.397 770.717 686.408 770.717 C 688.798 770.717 690.752 771.045 692.267 771.702 C 693.782 772.359 694.91 773.369 695.651 774.733 C 696.392 776.096 696.762 777.805 696.762 779.859 L 696.762 796.629 L 691.459 796.629 L 691.459 780.567 C 691.459 779.927 691.383 779.295 691.231 778.672 C 691.08 778.049 690.794 777.477 690.373 776.955 C 689.952 776.433 689.346 776.021 688.554 775.718 C 687.763 775.414 686.728 775.263 685.448 775.263 C 684.539 775.263 683.604 775.347 682.645 775.516 C 681.685 775.684 680.784 775.92 679.942 776.223 L 679.942 796.629 L 674.639 796.629 L 674.639 773.344 Z" style="fill: rgb(65, 61, 81); white-space: pre;"/>
  <path d="M 714.885 797.387 C 713.572 797.387 712.309 797.261 711.097 797.008 C 709.885 796.755 708.782 796.326 707.788 795.72 C 706.795 795.114 706.004 794.28 705.414 793.22 C 704.825 792.159 704.53 790.837 704.53 789.255 C 704.53 787.369 704.901 785.82 705.642 784.608 C 706.382 783.395 707.443 782.486 708.824 781.88 C 710.204 781.274 711.854 780.971 713.774 780.971 C 715.054 780.971 716.207 781.072 717.234 781.274 C 718.261 781.476 719.187 781.754 720.012 782.107 C 720.837 782.461 721.536 782.856 722.108 783.294 L 722.664 786.779 C 721.923 786.274 720.93 785.845 719.684 785.491 C 718.438 785.138 717.091 784.961 715.643 784.961 C 713.723 784.961 712.267 785.298 711.274 785.971 C 710.28 786.645 709.784 787.655 709.784 789.002 C 709.784 790.012 710.07 790.829 710.642 791.452 C 711.215 792.075 711.93 792.529 712.789 792.816 C 713.648 793.102 714.548 793.245 715.491 793.245 C 717.478 793.245 718.943 793.11 719.886 792.841 C 720.829 792.571 721.3 791.948 721.3 790.972 L 721.3 780.365 C 721.3 778.58 720.761 777.275 719.684 776.45 C 718.606 775.625 717.074 775.212 715.087 775.212 C 713.673 775.212 712.208 775.44 710.693 775.894 C 709.177 776.349 707.931 776.98 706.955 777.789 L 706.955 772.838 C 707.898 772.199 709.27 771.685 711.072 771.298 C 712.873 770.911 714.734 770.717 716.653 770.717 C 717.596 770.717 718.547 770.81 719.507 770.995 C 720.467 771.18 721.367 771.466 722.209 771.853 C 723.051 772.241 723.8 772.763 724.457 773.419 C 725.114 774.076 725.627 774.876 725.998 775.819 C 726.368 776.761 726.553 777.873 726.553 779.152 L 726.553 791.275 C 726.553 792.925 726.04 794.196 725.013 795.089 C 723.986 795.981 722.597 796.587 720.845 796.907 C 719.094 797.227 717.108 797.387 714.885 797.387 Z" style="fill: rgb(65, 61, 81); white-space: pre;"/>
  <path d="M 746.194 797.387 C 744.814 797.387 743.483 797.303 742.204 797.134 C 740.924 796.966 739.779 796.671 738.769 796.25 C 737.759 795.829 736.959 795.248 736.37 794.508 C 735.781 793.767 735.486 792.807 735.486 791.629 L 735.486 761.12 L 740.739 761.12 L 740.739 774.808 L 739.375 773.091 C 740.015 772.586 740.815 772.165 741.775 771.828 C 742.734 771.491 743.711 771.222 744.704 771.02 C 745.698 770.818 746.548 770.717 747.255 770.717 C 751.094 770.717 753.973 771.853 755.892 774.126 C 757.812 776.399 758.771 779.59 758.771 783.698 C 758.771 786.46 758.409 788.733 757.685 790.517 C 756.961 792.302 756.002 793.691 754.806 794.684 C 753.611 795.678 752.264 796.377 750.765 796.781 C 749.267 797.185 747.743 797.387 746.194 797.387 Z M 745.942 792.79 C 747.928 792.79 749.461 792.386 750.538 791.578 C 751.616 790.77 752.357 789.701 752.761 788.371 C 753.165 787.04 753.367 785.55 753.367 783.9 C 753.367 782.015 753.114 780.432 752.609 779.152 C 752.104 777.873 751.346 776.896 750.336 776.223 C 749.326 775.549 748.029 775.212 746.447 775.212 C 745.571 775.212 744.62 775.33 743.593 775.566 C 742.566 775.802 741.615 776.172 740.739 776.677 L 740.739 790.315 C 740.739 790.989 741.008 791.511 741.547 791.881 C 742.086 792.252 742.751 792.496 743.542 792.614 C 744.334 792.731 745.133 792.79 745.942 792.79 Z" style="fill: rgb(65, 61, 81); white-space: pre;"/>
  <path d="M 766.539 796.629 L 766.539 771.424 L 771.842 771.424 L 771.893 796.629 L 766.539 796.629 Z M 766.387 767.232 L 766.387 762.433 L 772.044 762.433 L 772.044 767.232 L 766.387 767.232 Z" style="fill: rgb(65, 61, 81); white-space: pre;"/>
  <path d="M 786.241 796.629 L 780.988 796.629 L 780.988 761.675 L 786.241 761.675 L 786.241 796.629 Z" style="fill: rgb(65, 61, 81); white-space: pre;"/>
  <path d="M 795.315 796.629 L 795.315 771.424 L 800.619 771.424 L 800.669 796.629 L 795.315 796.629 Z M 795.164 767.232 L 795.164 762.433 L 800.821 762.433 L 800.821 767.232 L 795.164 767.232 Z" style="fill: rgb(65, 61, 81); white-space: pre;"/>
  <path d="M 818.791 797.286 C 816.501 797.286 814.691 796.68 813.361 795.467 C 812.031 794.255 811.366 792.47 811.366 790.113 L 811.366 775.667 L 807.275 775.667 L 807.275 771.273 L 811.366 771.273 L 811.366 764.201 L 816.821 764.201 L 816.821 771.273 L 822.984 771.273 L 822.984 775.667 L 816.821 775.667 L 816.821 789.052 C 816.821 790.231 817.032 791.115 817.453 791.704 C 817.874 792.294 818.657 792.588 819.801 792.588 C 820.374 792.588 820.946 792.512 821.519 792.361 C 822.091 792.209 822.58 792.016 822.984 791.78 L 822.984 796.478 C 822.377 796.747 821.696 796.949 820.938 797.084 C 820.18 797.218 819.465 797.286 818.791 797.286 Z" style="fill: rgb(65, 61, 81); white-space: pre;"/>
  <path d="M 834.543 806.428 C 833.903 806.428 833.297 806.369 832.724 806.251 C 832.152 806.134 831.647 805.991 831.209 805.822 L 831.209 801.276 C 831.613 801.411 832.017 801.529 832.421 801.63 C 832.826 801.731 833.263 801.781 833.735 801.781 C 834.745 801.781 835.587 801.512 836.26 800.973 C 836.934 800.434 837.506 799.66 837.978 798.65 C 838.449 797.639 838.836 796.427 839.139 795.013 L 839.24 797.639 L 828.431 771.273 L 834.442 771.273 L 841.766 791.275 L 841.008 791.275 L 848.231 771.273 L 853.737 771.273 L 843.281 798.195 C 842.439 800.35 841.53 802.025 840.554 803.221 C 839.577 804.416 838.575 805.25 837.548 805.721 C 836.521 806.193 835.519 806.428 834.543 806.428 Z" style="fill: rgb(65, 61, 81); white-space: pre;"/>
</svg>