<?xml version="1.0" encoding="utf-8"?>
<svg viewBox="0 0 1000 700" style="enable-background:new 0 0 1000 1000;" xmlns="http://www.w3.org/2000/svg">
  <defs>
    <style type="text/css">
	.st0{opacity:0.7;fill:#FFFFFF;}
	.st1{fill:#413D51;}
	.st2{fill:#8FE3F9;}
	.st3{fill:#B2EBF9;}
	.st4{fill:#A4E0EA;}
	.st5{fill:#7AD1E5;}
	.st6{fill:none;stroke:#413D51;stroke-width:16;stroke-linecap:round;stroke-linejoin:round;stroke-miterlimit:10;}
	.st7{fill:#F7E8AD;}
	.st8{fill:#F7D6A1;}
	.st9{fill:#EFCA92;}
	.st10{fill:#FFFFFF;}
	.st11{opacity:0.89;fill:#EFCA92;}
	.st12{fill:none;stroke:#413D51;stroke-width:8;stroke-linecap:round;stroke-linejoin:round;stroke-miterlimit:10;}
	.st13{opacity:0.31;fill:none;stroke:#72C8D6;stroke-width:8;stroke-linecap:round;stroke-linejoin:round;stroke-miterlimit:10;}
</style>
  </defs>
  <rect class="st0" width="1000" height="700" style="opacity: 1;"/>
  <g transform="matrix(1, 0, 0, 1, 0, -194)">
    <ellipse id="XMLID_2_" class="st2" cx="501.8" cy="487.5" rx="228" ry="205.8"/>
    <ellipse id="XMLID_188_" class="st2" cx="501.8" cy="487.5" rx="228" ry="205.8"/>
    <path id="XMLID_193_" class="st3" d="M507.8,689.3c52.1,0,100.1-15.3,138.5-41l-10.5-24.7c-22-51.9-74.2-85.8-132.1-85.8l0,0 c-57.9,0-110.1,33.9-132.1,85.8l-8.6,20.4C402.3,672.3,452.8,689.3,507.8,689.3z"/>
    <path id="XMLID_189_" class="st4" d="M501.7,470.3l-43.6,64l32.9,43.8c5.4,7.2,16.3,7.2,21.7,0l32.6-43.8L501.7,470.3z"/>
    <path id="XMLID_192_" class="st5" d="M501.8,669.3c-121.5,0-220.7-85.7-227.6-193.8c-0.3,4-0.4,8-0.4,12 c0,113.6,102.1,205.8,228,205.8s228-92.1,228-205.8c0-4-0.1-8-0.4-12C722.5,583.6,623.2,669.3,501.8,669.3z"/>
    <path id="XMLID_76_" class="st4" d="M638.6,628.1c-38.1,25.8-85.5,41.2-136.8,41.2c-50,0-96.2-14.5-133.7-39.1l-5,12.3 c39.4,29.2,89.8,46.8,144.8,46.8c49.7,0,95.7-14.4,133.2-38.8c1.8-1.2,3.5-2.5,5.3-3.8L638.6,628.1z"/>
    <path id="XMLID_186_" class="st5" d="M268.2,488.2c6.4,13.1,15,25.3,25.8,36.2c52.3,52.3,137.2,52.3,189.5,0 c43.8-43.8,50.9-110.3,21.5-161.5"/>
    <path id="XMLID_185_" class="st5" d="M729,503.8c-24,36.1-65,59.8-111.6,59.8c-74,0-134-60-134-134c0-33,11.9-63.2,31.7-86.6"/>
    <ellipse id="XMLID_75_" class="st6" cx="501.8" cy="487.5" rx="228" ry="205.8"/>
    <polygon id="XMLID_74_" class="st1" points="501.7,442.3 458.1,506.3 501.9,564.6 545.4,506.3 &#9;"/>
    <polygon id="XMLID_73_" class="st6" points="501.7,442.3 458.1,506.3 501.9,564.6 545.4,506.3 &#9;"/>
    <path id="XMLID_72_" class="st1" d="M600.7,303.9c-30-14-64.1-21.9-100-21.9s-70,7.9-100,21.9v140.1h200V303.9z"/>
    <g id="XMLID_58_">
      <path id="XMLID_71_" class="st1" d="M613.5,317.9l108.7-3.3c-15.7,39.3-17.8,98.4-4.1,163c-17.4,36.8-54.4,62.9-97.9,64.2l0,0 c-61.8,1.9-113.5-46.7-115.3-108.6l0,0C503,371.4,551.6,319.8,613.5,317.9z"/>
      <path id="XMLID_70_" class="st6" d="M613.5,317.9l108.7-3.3c-15.7,39.3-17.8,98.4-4.1,163c-17.4,36.8-54.4,62.9-97.9,64.2l0,0 c-61.8,1.9-113.5-46.7-115.3-108.6l0,0C503,371.4,551.6,319.8,613.5,317.9z"/>
      <circle id="XMLID_69_" class="st7" cx="617.4" cy="429.7" r="112"/>
      <circle id="XMLID_5_" class="st7" cx="617.4" cy="429.7" r="112"/>
      <path id="XMLID_86_" class="st8" d="M696.6,350.5c-21.5-21.5-49.7-32.4-77.9-32.8c21.2,4.1,41.5,14.3,57.9,30.8 c43.7,43.7,43.7,114.6,0,158.4c-22.2,22.2-51.4,33.1-80.4,32.8c35.3,6.8,73.1-3.5,100.4-30.8C740.3,465.1,740.3,394.2,696.6,350.5 z"/>
      <ellipse id="XMLID_3_" transform="matrix(0.7071 -0.7071 0.7071 0.7071 -130.8246 543.5441)" class="st0" cx="590.7" cy="429.7" rx="84" ry="84.6"/>
      <path id="XMLID_12_" class="st9" d="M711.4,376.6c-3.1-4-9.1-15-12.8-18.7c-44-43.4-114.9-43-158.3,1.1 c-8.6,8.7-15.5,18.5-20.6,29C581.4,366.3,649,371.5,711.4,376.6z"/>
      <circle id="XMLID_68_" class="st6" cx="617.4" cy="429.7" r="112"/>
      <circle id="XMLID_67_" class="st6" cx="617.4" cy="429.7" r="112"/>
      <path id="XMLID_66_" class="st1" d="M706.7,362.1c-3.1-4-6.4-7.9-10.1-11.6c-43.7-43.7-114.6-43.7-158.4,0 c-8.7,8.7-15.6,18.4-20.8,28.8C579.4,358.1,644.3,356.5,706.7,362.1z"/>
      <circle id="XMLID_57_" class="st1" cx="562.9" cy="438.1" r="42"/>
      <circle id="XMLID_56_" class="st10" cx="539.1" cy="438.4" r="14"/>
    </g>
    <g id="XMLID_26_">
      <path id="XMLID_89_" class="st1" d="M388.8,317.9L280,314.6c15.7,39.3,17.8,98.4,4.1,163c17.4,36.8,54.4,62.9,97.9,64.2l0,0 c61.8,1.9,113.5-46.7,115.3-108.6l0,0C499.2,371.4,450.6,319.8,388.8,317.9z"/>
      <path id="XMLID_88_" class="st6" d="M388.8,317.9L280,314.6c15.7,39.3,17.8,98.4,4.1,163c17.4,36.8,54.4,62.9,97.9,64.2l0,0 c61.8,1.9,113.5-46.7,115.3-108.6l0,0C499.2,371.4,450.6,319.8,388.8,317.9z"/>
      <circle id="XMLID_87_" class="st7" cx="384.8" cy="429.7" r="112"/>
      <circle id="XMLID_84_" class="st7" cx="384.8" cy="429.7" r="112"/>
      <path id="XMLID_65_" class="st8" d="M305.6,350.5c21.5-21.5,49.7-32.4,77.9-32.8c-21.2,4.1-41.5,14.3-57.9,30.8 c-43.7,43.7-43.7,114.6,0,158.4c22.2,22.2,51.4,33.1,80.4,32.8c-35.3,6.8-73.1-3.5-100.4-30.8 C261.9,465.1,261.9,394.2,305.6,350.5z"/>
      <ellipse id="XMLID_64_" transform="matrix(0.7071 -0.7071 0.7071 0.7071 -183.3021 416.8521)" class="st0" cx="411.5" cy="429.7" rx="84.6" ry="84"/>
      <path id="XMLID_63_" class="st11" d="M290.9,376.6c3.1-4,9.1-15,12.8-18.7c44-43.4,114.9-43,158.3,1.1c8.6,8.7,15.5,18.5,20.6,29 C420.8,366.3,353.2,371.5,290.9,376.6z"/>
      <circle id="XMLID_62_" class="st6" cx="384.8" cy="429.7" r="112"/>
      <circle id="XMLID_61_" class="st6" cx="384.8" cy="429.7" r="112"/>
      <path id="XMLID_60_" class="st1" d="M295.6,362.1c3.1-4,6.4-7.9,10.1-11.6c43.7-43.7,114.6-43.7,158.4,0 c8.7,8.7,15.6,18.4,20.8,28.8C422.9,358.1,357.9,356.5,295.6,362.1z"/>
      <circle id="XMLID_59_" class="st1" cx="439.4" cy="438.1" r="42"/>
      <circle id="XMLID_37_" class="st10" cx="463.2" cy="438.4" r="14"/>
    </g>
    <path id="XMLID_19_" class="st1" d="M447.9,718.3L447.9,718.3c-8.8,0-16-7.2-16-16v-18c0-8.8,7.2-16,16-16h0c8.8,0,16,7.2,16,16v18 C463.9,711.1,456.8,718.3,447.9,718.3z"/>
    <path id="XMLID_17_" class="st1" d="M415.9,718.3L415.9,718.3c-8.8,0-16-7.2-16-16v-18c0-8.8,7.2-16,16-16h0c8.8,0,16,7.2,16,16v18 C431.9,711.1,424.8,718.3,415.9,718.3z"/>
    <path id="XMLID_16_" class="st1" d="M479.7,718.3L479.7,718.3c-8.8,0-16-7.2-16-16v-18c0-8.8,7.2-16,16-16h0c8.8,0,16,7.2,16,16v18 C495.7,711.1,488.5,718.3,479.7,718.3z"/>
    <path id="XMLID_15_" class="st1" d="M521.9,718.3L521.9,718.3c-8.8,0-16-7.2-16-16v-18c0-8.8,7.2-16,16-16h0c8.8,0,16,7.2,16,16v18 C537.9,711.1,530.7,718.3,521.9,718.3z"/>
    <path id="XMLID_14_" class="st1" d="M553.7,718.3L553.7,718.3c-8.8,0-16-7.2-16-16v-18c0-8.8,7.2-16,16-16h0c8.8,0,16,7.2,16,16v18 C569.7,711.1,562.5,718.3,553.7,718.3z"/>
    <path id="XMLID_13_" class="st1" d="M585.7,718.3L585.7,718.3c-8.8,0-16-7.2-16-16v-18c0-8.8,7.2-16,16-16h0c8.8,0,16,7.2,16,16v18 C601.7,711.1,594.5,718.3,585.7,718.3z"/>
    <path id="XMLID_11_" class="st12" d="M491.9,587.6c0,8.4-6.8,15.2-15.2,15.2c-8.4,0-15.2-6.8-15.2-15.2"/>
    <path id="XMLID_9_" class="st12" d="M538.4,587.6c0,8.4-6.8,15.2-15.2,15.2c-8.4,0-15.2-6.8-15.2-15.2"/>
    <path id="XMLID_10_" class="st13" d="M323,548.8c-2.2,4.7-7.7,6.8-12.5,4.6s-6.8-7.7-4.6-12.5"/>
    <path id="XMLID_1_" class="st13" d="M352.8,564.3c-2.2,4.7-7.7,6.8-12.5,4.6c-4.7-2.2-6.8-7.7-4.6-12.5"/>
    <path id="XMLID_78_" class="st13" d="M335.5,576.2c-2.2,4.7-7.7,6.8-12.5,4.6c-4.7-2.2-6.8-7.7-4.6-12.5"/>
    <path id="XMLID_77_" class="st13" d="M361.7,596.1c-2.2,4.7-7.7,6.8-12.5,4.6c-4.7-2.2-6.8-7.7-4.6-12.5"/>
    <path id="XMLID_79_" class="st13" d="M381.7,578.1c-2.2,4.7-7.7,6.8-12.5,4.6c-4.7-2.2-6.8-7.7-4.6-12.5"/>
    <path id="XMLID_85_" class="st13" d="M683.7,550.8c2.2,4.7,7.7,6.8,12.5,4.6s6.8-7.7,4.6-12.5"/>
    <path id="XMLID_83_" class="st13" d="M654,566.3c2.2,4.7,7.7,6.8,12.5,4.6c4.7-2.2,6.8-7.7,4.6-12.5"/>
    <path id="XMLID_82_" class="st13" d="M671.2,578.2c2.2,4.7,7.7,6.8,12.5,4.6c4.7-2.2,6.8-7.7,4.6-12.5"/>
    <path id="XMLID_81_" class="st13" d="M645.1,598.1c2.2,4.7,7.7,6.8,12.5,4.6c4.7-2.2,6.8-7.7,4.6-12.5"/>
    <path id="XMLID_80_" class="st13" d="M625.1,580.1c2.2,4.7,7.7,6.8,12.5,4.6c4.7-2.2,6.8-7.7,4.6-12.5"/>
    <path id="XMLID_8_" class="st12" d="M468.7,624.1c0,8.4-6.8,15.2-15.2,15.2c-8.4,0-15.2-6.8-15.2-15.2"/>
    <path id="XMLID_7_" class="st12" d="M515.2,624.1c0,8.4-6.8,15.2-15.2,15.2s-15.2-6.8-15.2-15.2"/>
    <path id="XMLID_6_" class="st12" d="M561.7,624.1c0,8.4-6.8,15.2-15.2,15.2c-8.4,0-15.2-6.8-15.2-15.2"/>
  </g>
  <path d="M 162.934 587.709 L 149.584 587.709 Q 147.893 587.709 147.136 586.952 Q 146.38 586.196 146.38 584.505 L 146.38 526.833 Q 146.38 525.142 147.136 524.385 Q 147.893 523.629 149.584 523.629 L 158.84 523.629 Q 160.531 523.629 161.732 524.163 Q 162.934 524.697 164.091 526.032 L 181.357 545.79 L 181.357 526.833 Q 181.357 525.142 182.113 524.385 Q 182.87 523.629 184.561 523.629 L 197.911 523.629 Q 199.602 523.629 200.358 524.385 Q 201.115 525.142 201.115 526.833 L 201.115 584.505 Q 201.115 586.196 200.358 586.952 Q 199.602 587.709 197.911 587.709 L 184.561 587.709 Q 182.87 587.709 182.113 586.952 Q 181.357 586.196 181.357 584.505 L 181.357 573.558 L 166.138 555.135 L 166.138 584.505 Q 166.138 586.196 165.381 586.952 Q 164.625 587.709 162.934 587.709 Z" style="fill: rgb(65, 61, 81); white-space: pre;"/>
  <path d="M 243.122 587.709 L 214.998 587.709 Q 213.307 587.709 212.55 586.952 Q 211.794 586.196 211.794 584.505 L 211.794 574.092 Q 211.794 572.401 212.55 571.644 Q 213.307 570.888 214.998 570.888 L 238.939 570.888 Q 240.096 570.888 240.674 570.131 Q 241.253 569.375 241.253 568.307 Q 241.253 566.794 240.674 566.082 Q 240.096 565.37 238.939 565.281 L 225.589 563.412 Q 219.359 562.522 215.576 559.318 Q 211.794 556.114 211.794 548.638 L 211.794 539.293 Q 211.794 531.728 216.689 527.678 Q 221.584 523.629 230.217 523.629 L 255.137 523.629 Q 256.828 523.629 257.584 524.385 Q 258.341 525.142 258.341 526.833 L 258.341 537.424 Q 258.341 539.115 257.584 539.871 Q 256.828 540.628 255.137 540.628 L 234.4 540.628 Q 233.243 540.628 232.62 541.384 Q 231.997 542.141 231.997 543.298 Q 231.997 544.455 232.62 545.256 Q 233.243 546.057 234.4 546.146 L 247.661 547.926 Q 253.891 548.816 257.718 552.02 Q 261.545 555.224 261.545 562.7 L 261.545 572.045 Q 261.545 579.61 256.605 583.659 Q 251.666 587.709 243.122 587.709 Z" style="fill: rgb(65, 61, 81); white-space: pre;"/>
  <path d="M 325.796 570.888 Q 325.796 574.982 324.595 578.319 Q 323.393 581.657 320.323 584.015 Q 317.252 586.374 311.912 587.709 Q 306.572 589.044 298.295 589.044 Q 290.018 589.044 284.678 587.709 Q 279.338 586.374 276.268 584.015 Q 273.197 581.657 271.996 578.319 Q 270.794 574.982 270.794 570.888 L 270.794 526.833 Q 270.794 525.142 271.551 524.385 Q 272.307 523.629 273.998 523.629 L 287.971 523.629 Q 289.662 523.629 290.419 524.385 Q 291.175 525.142 291.175 526.833 L 291.175 567.417 Q 291.175 569.197 292.51 570.398 Q 293.845 571.6 298.473 571.6 Q 303.19 571.6 304.525 570.398 Q 305.86 569.197 305.86 567.417 L 305.86 526.833 Q 305.86 525.142 306.617 524.385 Q 307.373 523.629 309.064 523.629 L 322.592 523.629 Q 324.283 523.629 325.04 524.385 Q 325.796 525.142 325.796 526.833 Z" style="fill: rgb(65, 61, 81); white-space: pre;"/>
  <path d="M 367.356 587.709 L 339.232 587.709 Q 337.541 587.709 336.785 586.952 Q 336.028 586.196 336.028 584.505 L 336.028 574.092 Q 336.028 572.401 336.785 571.644 Q 337.541 570.888 339.232 570.888 L 363.173 570.888 Q 364.33 570.888 364.909 570.131 Q 365.487 569.375 365.487 568.307 Q 365.487 566.794 364.909 566.082 Q 364.33 565.37 363.173 565.281 L 349.823 563.412 Q 343.593 562.522 339.811 559.318 Q 336.028 556.114 336.028 548.638 L 336.028 539.293 Q 336.028 531.728 340.923 527.678 Q 345.818 523.629 354.451 523.629 L 379.371 523.629 Q 381.062 523.629 381.819 524.385 Q 382.575 525.142 382.575 526.833 L 382.575 537.424 Q 382.575 539.115 381.819 539.871 Q 381.062 540.628 379.371 540.628 L 358.634 540.628 Q 357.477 540.628 356.854 541.384 Q 356.231 542.141 356.231 543.298 Q 356.231 544.455 356.854 545.256 Q 357.477 546.057 358.634 546.146 L 371.895 547.926 Q 378.125 548.816 381.952 552.02 Q 385.779 555.224 385.779 562.7 L 385.779 572.045 Q 385.779 579.61 380.84 583.659 Q 375.9 587.709 367.356 587.709 Z" style="fill: rgb(65, 61, 81); white-space: pre;"/>
  <path d="M 424.859 587.709 L 410.441 587.709 Q 408.75 587.709 407.993 586.952 Q 407.237 586.196 407.237 584.505 L 407.237 540.806 L 394.154 540.806 Q 392.463 540.806 391.706 540.049 Q 390.95 539.293 390.95 537.602 L 390.95 526.833 Q 390.95 525.142 391.706 524.385 Q 392.463 523.629 394.154 523.629 L 441.146 523.629 Q 442.837 523.629 443.593 524.385 Q 444.35 525.142 444.35 526.833 L 444.35 537.602 Q 444.35 539.293 443.593 540.049 Q 442.837 540.806 441.146 540.806 L 428.063 540.806 L 428.063 584.505 Q 428.063 586.196 427.306 586.952 Q 426.55 587.709 424.859 587.709 Z" style="fill: rgb(65, 61, 81); white-space: pre;"/>
  <path d="M 472.64 542.319 L 468.457 555.847 L 482.43 555.847 L 478.247 542.319 Q 477.891 541.518 477.491 541.162 Q 477.09 540.806 476.556 540.806 L 474.331 540.806 Q 473.797 540.806 473.397 541.162 Q 472.996 541.518 472.64 542.319 Z M 467.567 584.505 Q 467.567 586.196 466.811 586.952 Q 466.054 587.709 464.363 587.709 L 451.28 587.709 Q 449.589 587.709 448.833 586.952 Q 448.076 586.196 448.076 584.505 L 448.076 561.009 Q 448.076 558.339 448.922 554.868 Q 449.767 551.397 451.547 546.769 L 459.29 526.566 Q 459.824 525.053 460.937 524.341 Q 462.049 523.629 463.829 523.629 L 487.77 523.629 Q 489.461 523.629 490.574 524.341 Q 491.686 525.053 492.22 526.566 L 499.963 546.769 Q 501.743 551.397 502.589 554.868 Q 503.434 558.339 503.434 561.009 L 503.434 584.505 Q 503.434 586.196 502.678 586.952 Q 501.921 587.709 500.23 587.709 L 486.791 587.709 Q 485.011 587.709 484.166 586.952 Q 483.32 586.196 483.32 584.505 L 483.32 572.045 L 467.567 572.045 Z" style="fill: rgb(65, 61, 81); white-space: pre;"/>
  <path d="M 516.16 587.709 Q 514.469 587.709 513.713 586.952 Q 512.956 586.196 512.956 584.505 L 512.956 573.914 Q 512.956 572.223 513.713 571.466 Q 514.469 570.71 516.16 570.71 L 524.971 570.71 L 524.971 540.806 L 516.16 540.806 Q 514.469 540.806 513.713 540.049 Q 512.956 539.293 512.956 537.602 L 512.956 526.833 Q 512.956 525.142 513.713 524.385 Q 514.469 523.629 516.16 523.629 L 554.074 523.629 Q 555.765 523.629 556.522 524.385 Q 557.278 525.142 557.278 526.833 L 557.278 537.602 Q 557.278 539.293 556.522 540.049 Q 555.765 540.806 554.074 540.806 L 545.441 540.806 L 545.441 570.71 L 554.074 570.71 Q 555.765 570.71 556.522 571.466 Q 557.278 572.223 557.278 573.914 L 557.278 584.505 Q 557.278 586.196 556.522 586.952 Q 555.765 587.709 554.074 587.709 Z" style="fill: rgb(65, 61, 81); white-space: pre;"/>
  <path d="M 584.793 587.709 L 571.443 587.709 Q 569.752 587.709 568.996 586.952 Q 568.239 586.196 568.239 584.505 L 568.239 526.833 Q 568.239 525.142 568.996 524.385 Q 569.752 523.629 571.443 523.629 L 580.699 523.629 Q 582.39 523.629 583.592 524.163 Q 584.793 524.697 585.95 526.032 L 603.216 545.79 L 603.216 526.833 Q 603.216 525.142 603.973 524.385 Q 604.729 523.629 606.42 523.629 L 619.77 523.629 Q 621.461 523.629 622.218 524.385 Q 622.974 525.142 622.974 526.833 L 622.974 584.505 Q 622.974 586.196 622.218 586.952 Q 621.461 587.709 619.77 587.709 L 606.42 587.709 Q 604.729 587.709 603.973 586.952 Q 603.216 586.196 603.216 584.505 L 603.216 573.558 L 587.997 555.135 L 587.997 584.505 Q 587.997 586.196 587.241 586.952 Q 586.484 587.709 584.793 587.709 Z" style="fill: rgb(65, 61, 81); white-space: pre;"/>
  <path d="M 655.191 587.709 L 637.213 587.709 Q 635.522 587.709 634.766 586.952 Q 634.009 586.196 634.009 584.505 L 634.009 566.438 Q 634.009 564.747 634.766 563.99 Q 635.522 563.234 637.213 563.234 L 655.191 563.234 Q 656.882 563.234 657.639 563.99 Q 658.395 564.747 658.395 566.438 L 658.395 584.505 Q 658.395 586.196 657.639 586.952 Q 656.882 587.709 655.191 587.709 Z" style="fill: rgb(65, 61, 81); white-space: pre;"/>
  <path d="M 712.058 587.709 L 690.342 587.709 Q 679.217 587.709 673.832 583.259 Q 668.448 578.809 668.448 569.553 L 668.448 541.874 Q 668.448 532.618 673.832 528.123 Q 679.217 523.629 690.342 523.629 L 712.058 523.629 Q 713.749 523.629 714.505 524.385 Q 715.262 525.142 715.262 526.833 L 715.262 537.602 Q 715.262 539.293 714.505 540.049 Q 713.749 540.806 712.058 540.806 L 694.169 540.806 Q 691.41 540.806 690.075 541.918 Q 688.74 543.031 688.74 545.256 L 688.74 566.438 Q 688.74 568.663 690.075 569.686 Q 691.41 570.71 694.169 570.71 L 712.058 570.71 Q 713.749 570.71 714.505 571.466 Q 715.262 572.223 715.262 573.914 L 715.262 584.505 Q 715.262 586.196 714.505 586.952 Q 713.749 587.709 712.058 587.709 Z" style="fill: rgb(65, 61, 81); white-space: pre;"/>
  <path d="M 779.154 570.888 Q 779.154 574.982 777.953 578.319 Q 776.751 581.657 773.681 584.015 Q 770.61 586.374 765.226 587.709 Q 759.841 589.044 751.564 589.044 Q 743.287 589.044 737.858 587.709 Q 732.429 586.374 729.359 584.015 Q 726.288 581.657 725.087 578.319 Q 723.885 574.982 723.885 570.888 L 723.885 540.539 Q 723.885 536.445 725.087 533.107 Q 726.288 529.77 729.359 527.367 Q 732.429 524.964 737.858 523.629 Q 743.287 522.294 751.564 522.294 Q 759.841 522.294 765.226 523.629 Q 770.61 524.964 773.681 527.367 Q 776.751 529.77 777.953 533.107 Q 779.154 536.445 779.154 540.539 Z M 744.088 567.684 Q 744.088 569.464 745.423 570.665 Q 746.758 571.867 751.564 571.867 Q 756.37 571.867 757.705 570.665 Q 759.04 569.464 759.04 567.684 L 759.04 543.743 Q 759.04 542.052 757.705 540.85 Q 756.37 539.649 751.564 539.649 Q 746.758 539.649 745.423 540.85 Q 744.088 542.052 744.088 543.743 Z" style="fill: rgb(65, 61, 81); white-space: pre;"/>
  <path d="M 806.923 587.709 L 793.662 587.709 Q 791.971 587.709 791.215 586.952 Q 790.458 586.196 790.458 584.505 L 790.458 526.833 Q 790.458 525.142 791.215 524.385 Q 791.971 523.629 793.662 523.629 L 807.991 523.629 Q 809.415 523.629 810.35 524.252 Q 811.284 524.875 812.085 526.299 L 820.095 540.806 Q 820.54 541.607 820.852 541.963 Q 821.163 542.319 821.697 542.319 L 822.498 542.319 Q 823.032 542.319 823.344 541.963 Q 823.655 541.607 824.1 540.806 L 832.021 526.299 Q 832.822 524.875 833.757 524.252 Q 834.691 523.629 836.115 523.629 L 850.533 523.629 Q 852.224 523.629 852.981 524.385 Q 853.737 525.142 853.737 526.833 L 853.737 584.505 Q 853.737 586.196 852.981 586.952 Q 852.224 587.709 850.533 587.709 L 836.827 587.709 Q 835.136 587.709 834.38 586.952 Q 833.623 586.196 833.623 584.505 L 833.623 553.177 L 828.372 562.878 Q 827.571 564.391 826.459 565.058 Q 825.346 565.726 823.655 565.726 L 820.095 565.726 Q 818.404 565.726 817.292 565.058 Q 816.179 564.391 815.378 562.878 L 810.127 553.177 L 810.127 584.505 Q 810.127 586.196 809.371 586.952 Q 808.614 587.709 806.923 587.709 Z" style="fill: rgb(65, 61, 81); white-space: pre;"/>
  <path d="M 157.319 644.788 Q 153.471 644.788 150.637 643.228 Q 147.803 641.668 146.269 638.6 Q 144.735 635.532 144.735 631.112 Q 144.735 624.3 147.933 620.79 Q 151.131 617.28 156.851 617.28 Q 161.063 617.28 163.663 619.152 Q 166.263 621.024 167.433 624.378 Q 168.603 627.732 168.551 632.204 L 148.011 632.204 L 147.855 628.148 L 164.391 628.148 L 163.091 629.448 Q 162.935 625.444 161.427 623.598 Q 159.919 621.752 156.695 621.752 Q 154.615 621.752 153.159 622.61 Q 151.703 623.468 150.949 625.522 Q 150.195 627.576 150.195 631.164 Q 150.195 635.532 152.223 637.794 Q 154.251 640.056 158.203 640.056 Q 159.971 640.056 161.505 639.744 Q 163.039 639.432 164.339 638.938 Q 165.639 638.444 166.575 637.976 L 166.575 643.02 Q 164.755 643.8 162.467 644.294 Q 160.179 644.788 157.319 644.788 Z" style="fill: rgb(65, 61, 81); white-space: pre;"/>
  <path d="M 176.337 620.036 Q 177.481 619.464 178.911 618.97 Q 180.341 618.476 181.953 618.112 Q 183.565 617.748 185.229 617.54 Q 186.893 617.332 188.453 617.332 Q 192.145 617.332 194.485 618.346 Q 196.825 619.36 197.969 621.466 Q 199.113 623.572 199.113 626.744 L 199.113 644.008 L 193.653 644.008 L 193.653 627.472 Q 193.653 626.484 193.419 625.522 Q 193.185 624.56 192.535 623.754 Q 191.885 622.948 190.663 622.48 Q 189.441 622.012 187.465 622.012 Q 186.061 622.012 184.579 622.272 Q 183.097 622.532 181.797 623 L 181.797 644.008 L 176.337 644.008 Z" style="fill: rgb(65, 61, 81); white-space: pre;"/>
  <path d="M 216.573 644.008 L 205.601 617.904 L 211.425 617.904 L 220.369 639.588 L 219.069 639.744 L 227.389 617.904 L 233.057 617.904 L 222.033 644.008 Z" style="fill: rgb(65, 61, 81); white-space: pre;"/>
  <path d="M 240.118 644.008 L 240.118 618.06 L 245.578 618.06 L 245.63 644.008 Z M 239.962 613.744 L 239.962 608.804 L 245.786 608.804 L 245.786 613.744 Z" style="fill: rgb(65, 61, 81); white-space: pre;"/>
  <path d="M 254.993 644.008 L 254.993 620.296 Q 255.669 619.88 257.489 619.152 Q 259.309 618.424 261.805 617.878 Q 264.301 617.332 266.849 617.332 Q 268.149 617.332 268.981 617.54 Q 269.813 617.748 270.385 618.008 L 270.385 622.376 Q 269.189 622.22 267.889 622.142 Q 266.589 622.064 265.289 622.142 Q 263.989 622.22 262.741 622.376 Q 261.493 622.532 260.453 622.688 L 260.453 644.008 Z" style="fill: rgb(65, 61, 81); white-space: pre;"/>
  <path d="M 286.955 644.788 Q 280.611 644.788 277.517 641.2 Q 274.423 637.612 274.423 630.956 Q 274.423 623.884 277.621 620.582 Q 280.819 617.28 286.851 617.28 Q 291.167 617.28 293.975 618.866 Q 296.783 620.452 298.135 623.52 Q 299.487 626.588 299.487 630.956 Q 299.487 637.56 296.237 641.174 Q 292.987 644.788 286.955 644.788 Z M 286.903 640.16 Q 289.555 640.16 291.115 638.99 Q 292.675 637.82 293.377 635.74 Q 294.079 633.66 294.079 630.956 Q 294.079 627.94 293.351 625.912 Q 292.623 623.884 291.063 622.87 Q 289.503 621.856 286.903 621.856 Q 284.303 621.856 282.743 622.948 Q 281.183 624.04 280.507 626.068 Q 279.831 628.096 279.831 630.956 Q 279.831 635.272 281.443 637.716 Q 283.055 640.16 286.903 640.16 Z" style="fill: rgb(65, 61, 81); white-space: pre;"/>
  <path d="M 307.337 620.036 Q 308.481 619.464 309.911 618.97 Q 311.341 618.476 312.953 618.112 Q 314.565 617.748 316.229 617.54 Q 317.893 617.332 319.453 617.332 Q 323.145 617.332 325.485 618.346 Q 327.825 619.36 328.969 621.466 Q 330.113 623.572 330.113 626.744 L 330.113 644.008 L 324.653 644.008 L 324.653 627.472 Q 324.653 626.484 324.419 625.522 Q 324.185 624.56 323.535 623.754 Q 322.885 622.948 321.663 622.48 Q 320.441 622.012 318.465 622.012 Q 317.061 622.012 315.579 622.272 Q 314.097 622.532 312.797 623 L 312.797 644.008 L 307.337 644.008 Z" style="fill: rgb(65, 61, 81); white-space: pre;"/>
  <path d="M 361.926 626.744 L 361.926 644.008 L 356.466 644.008 L 356.466 627.472 Q 356.466 626.484 356.232 625.522 Q 355.998 624.56 355.348 623.754 Q 354.698 622.948 353.476 622.48 Q 352.254 622.012 350.278 622.012 Q 348.874 622.012 347.47 622.272 Q 346.066 622.532 344.766 623 L 344.766 644.008 L 339.306 644.008 L 339.306 620.036 Q 340.45 619.464 341.88 618.97 Q 343.31 618.476 344.922 618.112 Q 346.534 617.748 348.198 617.54 Q 349.862 617.332 351.422 617.332 Q 355.114 617.332 357.402 618.346 Q 359.69 619.36 360.808 621.466 Q 361.926 623.572 361.926 626.744 Z M 355.686 621.388 Q 357.35 620.036 359.352 619.152 Q 361.354 618.268 363.512 617.8 Q 365.67 617.332 367.75 617.332 Q 371.442 617.332 373.73 618.346 Q 376.018 619.36 377.136 621.466 Q 378.254 623.572 378.254 626.744 L 378.254 644.008 L 372.794 644.008 L 372.794 627.472 Q 372.794 626.484 372.56 625.522 Q 372.326 624.56 371.676 623.754 Q 371.026 622.948 369.804 622.48 Q 368.582 622.012 366.606 622.012 Q 365.202 622.012 363.798 622.428 Q 362.394 622.844 361.094 623.728 Z" style="fill: rgb(65, 61, 81); white-space: pre;"/>
  <path d="M 398.678 644.788 Q 394.83 644.788 391.996 643.228 Q 389.162 641.668 387.628 638.6 Q 386.094 635.532 386.094 631.112 Q 386.094 624.3 389.292 620.79 Q 392.49 617.28 398.21 617.28 Q 402.422 617.28 405.022 619.152 Q 407.622 621.024 408.792 624.378 Q 409.962 627.732 409.91 632.204 L 389.37 632.204 L 389.214 628.148 L 405.75 628.148 L 404.45 629.448 Q 404.294 625.444 402.786 623.598 Q 401.278 621.752 398.054 621.752 Q 395.974 621.752 394.518 622.61 Q 393.062 623.468 392.308 625.522 Q 391.554 627.576 391.554 631.164 Q 391.554 635.532 393.582 637.794 Q 395.61 640.056 399.562 640.056 Q 401.33 640.056 402.864 639.744 Q 404.398 639.432 405.698 638.938 Q 406.998 638.444 407.934 637.976 L 407.934 643.02 Q 406.114 643.8 403.826 644.294 Q 401.538 644.788 398.678 644.788 Z" style="fill: rgb(65, 61, 81); white-space: pre;"/>
  <path d="M 417.712 620.036 Q 418.856 619.464 420.286 618.97 Q 421.716 618.476 423.328 618.112 Q 424.94 617.748 426.604 617.54 Q 428.268 617.332 429.828 617.332 Q 433.52 617.332 435.86 618.346 Q 438.2 619.36 439.344 621.466 Q 440.488 623.572 440.488 626.744 L 440.488 644.008 L 435.028 644.008 L 435.028 627.472 Q 435.028 626.484 434.794 625.522 Q 434.56 624.56 433.91 623.754 Q 433.26 622.948 432.038 622.48 Q 430.816 622.012 428.84 622.012 Q 427.436 622.012 425.954 622.272 Q 424.472 622.532 423.172 623 L 423.172 644.008 L 417.712 644.008 Z" style="fill: rgb(65, 61, 81); white-space: pre;"/>
  <path d="M 458.989 644.684 Q 455.453 644.684 453.399 642.812 Q 451.345 640.94 451.345 637.3 L 451.345 622.428 L 447.133 622.428 L 447.133 617.904 L 451.345 617.904 L 451.345 610.624 L 456.961 610.624 L 456.961 617.904 L 463.305 617.904 L 463.305 622.428 L 456.961 622.428 L 456.961 636.208 Q 456.961 638.028 457.611 638.938 Q 458.261 639.848 460.029 639.848 Q 460.913 639.848 461.797 639.614 Q 462.681 639.38 463.305 639.016 L 463.305 643.852 Q 462.369 644.268 461.199 644.476 Q 460.029 644.684 458.989 644.684 Z" style="fill: rgb(65, 61, 81); white-space: pre;"/>
  <path d="M 509.203 644.008 L 492.875 624.352 Q 491.731 622.948 490.613 621.024 Q 489.495 619.1 489.495 617.228 Q 489.495 614.94 490.743 613.042 Q 491.991 611.144 494.097 610 Q 496.203 608.856 498.803 608.856 Q 501.403 608.856 503.405 609.896 Q 505.407 610.936 506.577 612.756 Q 507.747 614.576 507.747 616.812 Q 507.747 618.944 506.785 620.478 Q 505.823 622.012 504.107 623.286 Q 502.391 624.56 500.051 625.964 L 497.763 622.792 Q 499.843 621.648 500.883 620.712 Q 501.923 619.776 502.261 618.918 Q 502.599 618.06 502.599 617.228 Q 502.599 615.668 501.533 614.68 Q 500.467 613.692 498.855 613.692 Q 497.243 613.692 496.125 614.758 Q 495.007 615.824 495.007 617.332 Q 495.007 618.008 495.553 618.944 Q 496.099 619.88 496.801 620.842 Q 497.503 621.804 498.127 622.532 L 516.067 644.008 Z M 497.035 644.528 Q 494.227 644.528 492.147 643.644 Q 490.067 642.76 488.741 641.278 Q 487.415 639.796 486.739 638.08 Q 486.063 636.364 486.063 634.752 Q 486.063 633.036 486.765 631.19 Q 487.467 629.344 489.209 627.524 Q 490.951 625.704 494.019 624.144 L 497.451 627.212 Q 495.215 628.46 493.993 629.786 Q 492.771 631.112 492.303 632.282 Q 491.835 633.452 491.835 634.388 Q 491.835 635.012 492.069 635.922 Q 492.303 636.832 492.927 637.742 Q 493.551 638.652 494.747 639.25 Q 495.943 639.848 497.815 639.848 Q 499.895 639.848 501.767 638.73 Q 503.639 637.612 504.783 636.364 L 507.695 639.848 Q 506.551 641.096 505.017 642.162 Q 503.483 643.228 501.481 643.878 Q 499.479 644.528 497.035 644.528 Z M 507.019 633.92 Q 507.643 632.932 508.059 631.866 Q 508.475 630.8 508.735 629.916 Q 508.995 629.032 509.099 628.616 L 513.519 628.616 Q 513.207 630.384 512.297 632.698 Q 511.387 635.012 510.035 637.144 Z" style="fill: rgb(65, 61, 81); white-space: pre;"/>
  <path d="M 546.986 644.788 Q 544.178 644.788 542.228 644.19 Q 540.278 643.592 538.406 642.708 L 538.406 637.56 Q 539.758 638.392 541.058 639.042 Q 542.358 639.692 543.788 640.056 Q 545.218 640.42 546.986 640.42 Q 549.222 640.42 550.496 639.484 Q 551.77 638.548 551.77 637.144 Q 551.77 635.948 550.964 635.272 Q 550.158 634.596 548.91 634.128 Q 547.662 633.66 546.31 633.192 Q 544.906 632.828 543.502 632.334 Q 542.098 631.84 540.928 630.982 Q 539.758 630.124 539.056 628.772 Q 538.354 627.42 538.354 625.444 Q 538.354 623.26 539.238 621.726 Q 540.122 620.192 541.552 619.23 Q 542.982 618.268 544.724 617.826 Q 546.466 617.384 548.13 617.384 Q 550.886 617.436 552.628 618.06 Q 554.37 618.684 556.034 619.568 L 556.086 624.248 Q 554.214 623.26 552.55 622.532 Q 550.886 621.804 548.702 621.804 Q 546.674 621.804 545.322 622.558 Q 543.97 623.312 543.97 624.768 Q 543.97 626.016 544.724 626.744 Q 545.478 627.472 546.7 627.888 Q 547.922 628.304 549.326 628.72 Q 550.626 629.136 552.03 629.578 Q 553.434 630.02 554.63 630.852 Q 555.826 631.684 556.58 633.036 Q 557.334 634.388 557.334 636.572 Q 557.282 639.484 555.8 641.304 Q 554.318 643.124 551.926 643.956 Q 549.534 644.788 546.986 644.788 Z" style="fill: rgb(65, 61, 81); white-space: pre;"/>
  <path d="M 576.787 644.788 Q 573.199 644.788 570.625 643.618 Q 568.051 642.448 566.647 640.108 Q 565.243 637.768 565.243 634.284 L 565.243 617.904 L 570.703 617.904 L 570.703 633.504 Q 570.703 636.832 572.185 638.418 Q 573.667 640.004 576.787 640.004 Q 579.907 640.004 581.389 638.418 Q 582.871 636.832 582.871 633.504 L 582.871 617.904 L 588.123 617.904 L 588.123 634.284 Q 588.123 639.484 585.133 642.136 Q 582.143 644.788 576.787 644.788 Z" style="fill: rgb(65, 61, 81); white-space: pre;"/>
  <path d="M 604.846 644.788 Q 602.038 644.788 600.088 644.19 Q 598.138 643.592 596.266 642.708 L 596.266 637.56 Q 597.618 638.392 598.918 639.042 Q 600.218 639.692 601.648 640.056 Q 603.078 640.42 604.846 640.42 Q 607.082 640.42 608.356 639.484 Q 609.63 638.548 609.63 637.144 Q 609.63 635.948 608.824 635.272 Q 608.018 634.596 606.77 634.128 Q 605.522 633.66 604.17 633.192 Q 602.766 632.828 601.362 632.334 Q 599.958 631.84 598.788 630.982 Q 597.618 630.124 596.916 628.772 Q 596.214 627.42 596.214 625.444 Q 596.214 623.26 597.098 621.726 Q 597.982 620.192 599.412 619.23 Q 600.842 618.268 602.584 617.826 Q 604.326 617.384 605.99 617.384 Q 608.746 617.436 610.488 618.06 Q 612.23 618.684 613.894 619.568 L 613.946 624.248 Q 612.074 623.26 610.41 622.532 Q 608.746 621.804 606.562 621.804 Q 604.534 621.804 603.182 622.558 Q 601.83 623.312 601.83 624.768 Q 601.83 626.016 602.584 626.744 Q 603.338 627.472 604.56 627.888 Q 605.782 628.304 607.186 628.72 Q 608.486 629.136 609.89 629.578 Q 611.294 630.02 612.49 630.852 Q 613.686 631.684 614.44 633.036 Q 615.194 634.388 615.194 636.572 Q 615.142 639.484 613.66 641.304 Q 612.178 643.124 609.786 643.956 Q 607.394 644.788 604.846 644.788 Z" style="fill: rgb(65, 61, 81); white-space: pre;"/>
  <path d="M 632.411 644.684 Q 628.875 644.684 626.821 642.812 Q 624.767 640.94 624.767 637.3 L 624.767 622.428 L 620.555 622.428 L 620.555 617.904 L 624.767 617.904 L 624.767 610.624 L 630.383 610.624 L 630.383 617.904 L 636.727 617.904 L 636.727 622.428 L 630.383 622.428 L 630.383 636.208 Q 630.383 638.028 631.033 638.938 Q 631.683 639.848 633.451 639.848 Q 634.335 639.848 635.219 639.614 Q 636.103 639.38 636.727 639.016 L 636.727 643.852 Q 635.791 644.268 634.621 644.476 Q 633.451 644.684 632.411 644.684 Z" style="fill: rgb(65, 61, 81); white-space: pre;"/>
  <path d="M 654.035 644.788 Q 652.007 644.788 650.135 644.398 Q 648.263 644.008 646.729 643.072 Q 645.195 642.136 644.285 640.498 Q 643.375 638.86 643.375 636.416 Q 643.375 633.504 644.519 631.632 Q 645.663 629.76 647.795 628.824 Q 649.927 627.888 652.891 627.888 Q 654.867 627.888 656.453 628.2 Q 658.039 628.512 659.313 629.058 Q 660.587 629.604 661.471 630.28 L 662.043 633.868 Q 660.899 633.088 658.975 632.542 Q 657.051 631.996 654.815 631.996 Q 651.851 631.996 650.317 633.036 Q 648.783 634.076 648.783 636.156 Q 648.783 637.716 649.667 638.678 Q 650.551 639.64 651.877 640.082 Q 653.203 640.524 654.659 640.524 Q 657.727 640.524 659.183 640.108 Q 660.639 639.692 660.639 638.184 L 660.639 627.264 Q 660.639 624.508 658.975 623.234 Q 657.311 621.96 654.243 621.96 Q 652.059 621.96 649.719 622.662 Q 647.379 623.364 645.871 624.612 L 645.871 619.516 Q 647.327 618.528 650.109 617.93 Q 652.891 617.332 655.855 617.332 Q 657.311 617.332 658.793 617.618 Q 660.275 617.904 661.575 618.502 Q 662.875 619.1 663.889 620.114 Q 664.903 621.128 665.475 622.584 Q 666.047 624.04 666.047 626.016 L 666.047 638.496 Q 666.047 641.044 664.461 642.422 Q 662.875 643.8 660.171 644.294 Q 657.467 644.788 654.035 644.788 Z" style="fill: rgb(65, 61, 81); white-space: pre;"/>
  <path d="M 675.399 644.008 L 675.399 618.06 L 680.859 618.06 L 680.911 644.008 Z M 675.243 613.744 L 675.243 608.804 L 681.067 608.804 L 681.067 613.744 Z" style="fill: rgb(65, 61, 81); white-space: pre;"/>
  <path d="M 690.259 620.036 Q 691.403 619.464 692.833 618.97 Q 694.263 618.476 695.875 618.112 Q 697.487 617.748 699.151 617.54 Q 700.815 617.332 702.375 617.332 Q 706.067 617.332 708.407 618.346 Q 710.747 619.36 711.891 621.466 Q 713.035 623.572 713.035 626.744 L 713.035 644.008 L 707.575 644.008 L 707.575 627.472 Q 707.575 626.484 707.341 625.522 Q 707.107 624.56 706.457 623.754 Q 705.807 622.948 704.585 622.48 Q 703.363 622.012 701.387 622.012 Q 699.983 622.012 698.501 622.272 Q 697.019 622.532 695.719 623 L 695.719 644.008 L 690.259 644.008 Z" style="fill: rgb(65, 61, 81); white-space: pre;"/>
  <path d="M 731.692 644.788 Q 729.664 644.788 727.792 644.398 Q 725.92 644.008 724.386 643.072 Q 722.852 642.136 721.942 640.498 Q 721.032 638.86 721.032 636.416 Q 721.032 633.504 722.176 631.632 Q 723.32 629.76 725.452 628.824 Q 727.584 627.888 730.548 627.888 Q 732.524 627.888 734.11 628.2 Q 735.696 628.512 736.97 629.058 Q 738.244 629.604 739.128 630.28 L 739.7 633.868 Q 738.556 633.088 736.632 632.542 Q 734.708 631.996 732.472 631.996 Q 729.508 631.996 727.974 633.036 Q 726.44 634.076 726.44 636.156 Q 726.44 637.716 727.324 638.678 Q 728.208 639.64 729.534 640.082 Q 730.86 640.524 732.316 640.524 Q 735.384 640.524 736.84 640.108 Q 738.296 639.692 738.296 638.184 L 738.296 627.264 Q 738.296 624.508 736.632 623.234 Q 734.968 621.96 731.9 621.96 Q 729.716 621.96 727.376 622.662 Q 725.036 623.364 723.528 624.612 L 723.528 619.516 Q 724.984 618.528 727.766 617.93 Q 730.548 617.332 733.512 617.332 Q 734.968 617.332 736.45 617.618 Q 737.932 617.904 739.232 618.502 Q 740.532 619.1 741.546 620.114 Q 742.56 621.128 743.132 622.584 Q 743.704 624.04 743.704 626.016 L 743.704 638.496 Q 743.704 641.044 742.118 642.422 Q 740.532 643.8 737.828 644.294 Q 735.124 644.788 731.692 644.788 Z" style="fill: rgb(65, 61, 81); white-space: pre;"/>
  <path d="M 763.924 644.788 Q 761.792 644.788 759.816 644.528 Q 757.84 644.268 756.28 643.618 Q 754.72 642.968 753.81 641.824 Q 752.9 640.68 752.9 638.86 L 752.9 607.452 L 758.308 607.452 L 758.308 621.544 L 756.904 619.776 Q 757.892 618.996 759.374 618.476 Q 760.856 617.956 762.39 617.644 Q 763.924 617.332 765.016 617.332 Q 770.944 617.332 773.908 620.842 Q 776.872 624.352 776.872 630.696 Q 776.872 634.96 775.754 637.716 Q 774.636 640.472 772.79 642.006 Q 770.944 643.54 768.63 644.164 Q 766.316 644.788 763.924 644.788 Z M 763.664 640.056 Q 766.732 640.056 768.396 638.808 Q 770.06 637.56 770.684 635.506 Q 771.308 633.452 771.308 630.904 Q 771.308 627.992 770.528 626.016 Q 769.748 624.04 768.188 623 Q 766.628 621.96 764.184 621.96 Q 762.832 621.96 761.246 622.324 Q 759.66 622.688 758.308 623.468 L 758.308 637.508 Q 758.308 638.548 759.14 639.12 Q 759.972 639.692 761.194 639.874 Q 762.416 640.056 763.664 640.056 Z" style="fill: rgb(65, 61, 81); white-space: pre;"/>
  <path d="M 784.868 644.008 L 784.868 618.06 L 790.328 618.06 L 790.38 644.008 Z M 784.712 613.744 L 784.712 608.804 L 790.536 608.804 L 790.536 613.744 Z" style="fill: rgb(65, 61, 81); white-space: pre;"/>
  <path d="M 805.151 644.008 L 799.743 644.008 L 799.743 608.024 L 805.151 608.024 Z" style="fill: rgb(65, 61, 81); white-space: pre;"/>
  <path d="M 814.493 644.008 L 814.493 618.06 L 819.953 618.06 L 820.005 644.008 Z M 814.337 613.744 L 814.337 608.804 L 820.161 608.804 L 820.161 613.744 Z" style="fill: rgb(65, 61, 81); white-space: pre;"/>
  <path d="M 838.661 644.684 Q 835.125 644.684 833.071 642.812 Q 831.017 640.94 831.017 637.3 L 831.017 622.428 L 826.805 622.428 L 826.805 617.904 L 831.017 617.904 L 831.017 610.624 L 836.633 610.624 L 836.633 617.904 L 842.977 617.904 L 842.977 622.428 L 836.633 622.428 L 836.633 636.208 Q 836.633 638.028 837.283 638.938 Q 837.933 639.848 839.701 639.848 Q 840.585 639.848 841.469 639.614 Q 842.353 639.38 842.977 639.016 L 842.977 643.852 Q 842.041 644.268 840.871 644.476 Q 839.701 644.684 838.661 644.684 Z" style="fill: rgb(65, 61, 81); white-space: pre;"/>
  <path d="M 854.877 654.096 Q 853.889 654.096 853.005 653.914 Q 852.121 653.732 851.445 653.472 L 851.445 648.792 Q 852.069 649 852.693 649.156 Q 853.317 649.312 854.045 649.312 Q 855.605 649.312 856.645 648.48 Q 857.685 647.648 858.413 646.088 Q 859.141 644.528 859.609 642.344 L 859.713 645.048 L 848.585 617.904 L 854.773 617.904 L 862.313 638.496 L 861.533 638.496 L 868.969 617.904 L 874.637 617.904 L 863.873 645.62 Q 862.573 648.948 861.065 650.794 Q 859.557 652.64 857.971 653.368 Q 856.385 654.096 854.877 654.096 Z" style="fill: rgb(65, 61, 81); white-space: pre;"/>
</svg>