<?xml version="1.0" encoding="utf-8"?>
<svg viewBox="0 0 1920 600" style="enable-background:new 0 0 1000 1000;" xmlns="http://www.w3.org/2000/svg">
  <defs>
    <style type="text/css">
	.st0{opacity:0.7;fill:#FFFFFF;}
	.st1{fill:#413D51;}
	.st2{fill:#8FE3F9;}
	.st3{fill:#B2EBF9;}
	.st4{fill:#A4E0EA;}
	.st5{fill:#7AD1E5;}
	.st6{fill:none;stroke:#413D51;stroke-width:16;stroke-linecap:round;stroke-linejoin:round;stroke-miterlimit:10;}
	.st7{fill:#F7E8AD;}
	.st8{fill:#F7D6A1;}
	.st9{fill:#EFCA92;}
	.st10{fill:#FFFFFF;}
	.st11{opacity:0.89;fill:#EFCA92;}
	.st12{fill:none;stroke:#413D51;stroke-width:8;stroke-linecap:round;stroke-linejoin:round;stroke-miterlimit:10;}
	.st13{opacity:0.31;fill:none;stroke:#72C8D6;stroke-width:8;stroke-linecap:round;stroke-linejoin:round;stroke-miterlimit:10;}
</style>
  </defs>
  <rect class="st0" width="1920" height="600" style="opacity: 1;"/>
  <g transform="matrix(0.416555, 0, 0, 0.416555, 751.63855, 14.810845)" style="">
    <ellipse id="XMLID_2_" class="st2" cx="501.8" cy="487.5" rx="228" ry="205.8"/>
    <ellipse id="XMLID_188_" class="st2" cx="501.8" cy="487.5" rx="228" ry="205.8"/>
    <path id="XMLID_193_" class="st3" d="M507.8,689.3c52.1,0,100.1-15.3,138.5-41l-10.5-24.7c-22-51.9-74.2-85.8-132.1-85.8l0,0 c-57.9,0-110.1,33.9-132.1,85.8l-8.6,20.4C402.3,672.3,452.8,689.3,507.8,689.3z"/>
    <path id="XMLID_189_" class="st4" d="M501.7,470.3l-43.6,64l32.9,43.8c5.4,7.2,16.3,7.2,21.7,0l32.6-43.8L501.7,470.3z"/>
    <path id="XMLID_192_" class="st5" d="M501.8,669.3c-121.5,0-220.7-85.7-227.6-193.8c-0.3,4-0.4,8-0.4,12 c0,113.6,102.1,205.8,228,205.8s228-92.1,228-205.8c0-4-0.1-8-0.4-12C722.5,583.6,623.2,669.3,501.8,669.3z"/>
    <path id="XMLID_76_" class="st4" d="M638.6,628.1c-38.1,25.8-85.5,41.2-136.8,41.2c-50,0-96.2-14.5-133.7-39.1l-5,12.3 c39.4,29.2,89.8,46.8,144.8,46.8c49.7,0,95.7-14.4,133.2-38.8c1.8-1.2,3.5-2.5,5.3-3.8L638.6,628.1z"/>
    <path id="XMLID_186_" class="st5" d="M268.2,488.2c6.4,13.1,15,25.3,25.8,36.2c52.3,52.3,137.2,52.3,189.5,0 c43.8-43.8,50.9-110.3,21.5-161.5"/>
    <path id="XMLID_185_" class="st5" d="M729,503.8c-24,36.1-65,59.8-111.6,59.8c-74,0-134-60-134-134c0-33,11.9-63.2,31.7-86.6"/>
    <ellipse id="XMLID_75_" class="st6" cx="501.8" cy="487.5" rx="228" ry="205.8"/>
    <polygon id="XMLID_74_" class="st1" points="501.7,442.3 458.1,506.3 501.9,564.6 545.4,506.3 &#9;"/>
    <polygon id="XMLID_73_" class="st6" points="501.7,442.3 458.1,506.3 501.9,564.6 545.4,506.3 &#9;"/>
    <path id="XMLID_72_" class="st1" d="M600.7,303.9c-30-14-64.1-21.9-100-21.9s-70,7.9-100,21.9v140.1h200V303.9z"/>
    <g id="XMLID_58_">
      <path id="XMLID_71_" class="st1" d="M613.5,317.9l108.7-3.3c-15.7,39.3-17.8,98.4-4.1,163c-17.4,36.8-54.4,62.9-97.9,64.2l0,0 c-61.8,1.9-113.5-46.7-115.3-108.6l0,0C503,371.4,551.6,319.8,613.5,317.9z"/>
      <path id="XMLID_70_" class="st6" d="M613.5,317.9l108.7-3.3c-15.7,39.3-17.8,98.4-4.1,163c-17.4,36.8-54.4,62.9-97.9,64.2l0,0 c-61.8,1.9-113.5-46.7-115.3-108.6l0,0C503,371.4,551.6,319.8,613.5,317.9z"/>
      <circle id="XMLID_69_" class="st7" cx="617.4" cy="429.7" r="112"/>
      <circle id="XMLID_5_" class="st7" cx="617.4" cy="429.7" r="112"/>
      <path id="XMLID_86_" class="st8" d="M696.6,350.5c-21.5-21.5-49.7-32.4-77.9-32.8c21.2,4.1,41.5,14.3,57.9,30.8 c43.7,43.7,43.7,114.6,0,158.4c-22.2,22.2-51.4,33.1-80.4,32.8c35.3,6.8,73.1-3.5,100.4-30.8C740.3,465.1,740.3,394.2,696.6,350.5 z"/>
      <ellipse id="XMLID_3_" transform="matrix(0.7071 -0.7071 0.7071 0.7071 -130.8246 543.5441)" class="st0" cx="590.7" cy="429.7" rx="84" ry="84.6"/>
      <path id="XMLID_12_" class="st9" d="M711.4,376.6c-3.1-4-9.1-15-12.8-18.7c-44-43.4-114.9-43-158.3,1.1 c-8.6,8.7-15.5,18.5-20.6,29C581.4,366.3,649,371.5,711.4,376.6z"/>
      <circle id="XMLID_68_" class="st6" cx="617.4" cy="429.7" r="112"/>
      <circle id="XMLID_67_" class="st6" cx="617.4" cy="429.7" r="112"/>
      <path id="XMLID_66_" class="st1" d="M706.7,362.1c-3.1-4-6.4-7.9-10.1-11.6c-43.7-43.7-114.6-43.7-158.4,0 c-8.7,8.7-15.6,18.4-20.8,28.8C579.4,358.1,644.3,356.5,706.7,362.1z"/>
      <circle id="XMLID_57_" class="st1" cx="562.9" cy="438.1" r="42"/>
      <circle id="XMLID_56_" class="st10" cx="539.1" cy="438.4" r="14"/>
    </g>
    <g id="XMLID_26_">
      <path id="XMLID_89_" class="st1" d="M388.8,317.9L280,314.6c15.7,39.3,17.8,98.4,4.1,163c17.4,36.8,54.4,62.9,97.9,64.2l0,0 c61.8,1.9,113.5-46.7,115.3-108.6l0,0C499.2,371.4,450.6,319.8,388.8,317.9z"/>
      <path id="XMLID_88_" class="st6" d="M388.8,317.9L280,314.6c15.7,39.3,17.8,98.4,4.1,163c17.4,36.8,54.4,62.9,97.9,64.2l0,0 c61.8,1.9,113.5-46.7,115.3-108.6l0,0C499.2,371.4,450.6,319.8,388.8,317.9z"/>
      <circle id="XMLID_87_" class="st7" cx="384.8" cy="429.7" r="112"/>
      <circle id="XMLID_84_" class="st7" cx="384.8" cy="429.7" r="112"/>
      <path id="XMLID_65_" class="st8" d="M305.6,350.5c21.5-21.5,49.7-32.4,77.9-32.8c-21.2,4.1-41.5,14.3-57.9,30.8 c-43.7,43.7-43.7,114.6,0,158.4c22.2,22.2,51.4,33.1,80.4,32.8c-35.3,6.8-73.1-3.5-100.4-30.8 C261.9,465.1,261.9,394.2,305.6,350.5z"/>
      <ellipse id="XMLID_64_" transform="matrix(0.7071 -0.7071 0.7071 0.7071 -183.3021 416.8521)" class="st0" cx="411.5" cy="429.7" rx="84.6" ry="84"/>
      <path id="XMLID_63_" class="st11" d="M290.9,376.6c3.1-4,9.1-15,12.8-18.7c44-43.4,114.9-43,158.3,1.1c8.6,8.7,15.5,18.5,20.6,29 C420.8,366.3,353.2,371.5,290.9,376.6z"/>
      <circle id="XMLID_62_" class="st6" cx="384.8" cy="429.7" r="112"/>
      <circle id="XMLID_61_" class="st6" cx="384.8" cy="429.7" r="112"/>
      <path id="XMLID_60_" class="st1" d="M295.6,362.1c3.1-4,6.4-7.9,10.1-11.6c43.7-43.7,114.6-43.7,158.4,0 c8.7,8.7,15.6,18.4,20.8,28.8C422.9,358.1,357.9,356.5,295.6,362.1z"/>
      <circle id="XMLID_59_" class="st1" cx="439.4" cy="438.1" r="42"/>
      <circle id="XMLID_37_" class="st10" cx="463.2" cy="438.4" r="14"/>
    </g>
    <path id="XMLID_19_" class="st1" d="M447.9,718.3L447.9,718.3c-8.8,0-16-7.2-16-16v-18c0-8.8,7.2-16,16-16h0c8.8,0,16,7.2,16,16v18 C463.9,711.1,456.8,718.3,447.9,718.3z"/>
    <path id="XMLID_17_" class="st1" d="M415.9,718.3L415.9,718.3c-8.8,0-16-7.2-16-16v-18c0-8.8,7.2-16,16-16h0c8.8,0,16,7.2,16,16v18 C431.9,711.1,424.8,718.3,415.9,718.3z"/>
    <path id="XMLID_16_" class="st1" d="M479.7,718.3L479.7,718.3c-8.8,0-16-7.2-16-16v-18c0-8.8,7.2-16,16-16h0c8.8,0,16,7.2,16,16v18 C495.7,711.1,488.5,718.3,479.7,718.3z"/>
    <path id="XMLID_15_" class="st1" d="M521.9,718.3L521.9,718.3c-8.8,0-16-7.2-16-16v-18c0-8.8,7.2-16,16-16h0c8.8,0,16,7.2,16,16v18 C537.9,711.1,530.7,718.3,521.9,718.3z"/>
    <path id="XMLID_14_" class="st1" d="M553.7,718.3L553.7,718.3c-8.8,0-16-7.2-16-16v-18c0-8.8,7.2-16,16-16h0c8.8,0,16,7.2,16,16v18 C569.7,711.1,562.5,718.3,553.7,718.3z"/>
    <path id="XMLID_13_" class="st1" d="M585.7,718.3L585.7,718.3c-8.8,0-16-7.2-16-16v-18c0-8.8,7.2-16,16-16h0c8.8,0,16,7.2,16,16v18 C601.7,711.1,594.5,718.3,585.7,718.3z"/>
    <path id="XMLID_11_" class="st12" d="M491.9,587.6c0,8.4-6.8,15.2-15.2,15.2c-8.4,0-15.2-6.8-15.2-15.2"/>
    <path id="XMLID_9_" class="st12" d="M538.4,587.6c0,8.4-6.8,15.2-15.2,15.2c-8.4,0-15.2-6.8-15.2-15.2"/>
    <path id="XMLID_10_" class="st13" d="M323,548.8c-2.2,4.7-7.7,6.8-12.5,4.6s-6.8-7.7-4.6-12.5"/>
    <path id="XMLID_1_" class="st13" d="M352.8,564.3c-2.2,4.7-7.7,6.8-12.5,4.6c-4.7-2.2-6.8-7.7-4.6-12.5"/>
    <path id="XMLID_78_" class="st13" d="M335.5,576.2c-2.2,4.7-7.7,6.8-12.5,4.6c-4.7-2.2-6.8-7.7-4.6-12.5"/>
    <path id="XMLID_77_" class="st13" d="M361.7,596.1c-2.2,4.7-7.7,6.8-12.5,4.6c-4.7-2.2-6.8-7.7-4.6-12.5"/>
    <path id="XMLID_79_" class="st13" d="M381.7,578.1c-2.2,4.7-7.7,6.8-12.5,4.6c-4.7-2.2-6.8-7.7-4.6-12.5"/>
    <path id="XMLID_85_" class="st13" d="M683.7,550.8c2.2,4.7,7.7,6.8,12.5,4.6s6.8-7.7,4.6-12.5"/>
    <path id="XMLID_83_" class="st13" d="M654,566.3c2.2,4.7,7.7,6.8,12.5,4.6c4.7-2.2,6.8-7.7,4.6-12.5"/>
    <path id="XMLID_82_" class="st13" d="M671.2,578.2c2.2,4.7,7.7,6.8,12.5,4.6c4.7-2.2,6.8-7.7,4.6-12.5"/>
    <path id="XMLID_81_" class="st13" d="M645.1,598.1c2.2,4.7,7.7,6.8,12.5,4.6c4.7-2.2,6.8-7.7,4.6-12.5"/>
    <path id="XMLID_80_" class="st13" d="M625.1,580.1c2.2,4.7,7.7,6.8,12.5,4.6c4.7-2.2,6.8-7.7,4.6-12.5"/>
    <path id="XMLID_8_" class="st12" d="M468.7,624.1c0,8.4-6.8,15.2-15.2,15.2c-8.4,0-15.2-6.8-15.2-15.2"/>
    <path id="XMLID_7_" class="st12" d="M515.2,624.1c0,8.4-6.8,15.2-15.2,15.2s-15.2-6.8-15.2-15.2"/>
    <path id="XMLID_6_" class="st12" d="M561.7,624.1c0,8.4-6.8,15.2-15.2,15.2c-8.4,0-15.2-6.8-15.2-15.2"/>
  </g>
  <path d="M 819.517 340.436 L 813.952 340.436 Q 813.247 340.436 812.931 340.121 Q 812.616 339.805 812.616 339.1 L 812.616 315.06 Q 812.616 314.355 812.931 314.039 Q 813.247 313.724 813.952 313.724 L 817.81 313.724 Q 818.515 313.724 819.016 313.947 Q 819.517 314.169 819.999 314.726 L 827.196 322.962 L 827.196 315.06 Q 827.196 314.355 827.512 314.039 Q 827.827 313.724 828.532 313.724 L 834.097 313.724 Q 834.802 313.724 835.117 314.039 Q 835.432 314.355 835.432 315.06 L 835.432 339.1 Q 835.432 339.805 835.117 340.121 Q 834.802 340.436 834.097 340.436 L 828.532 340.436 Q 827.827 340.436 827.512 340.121 Q 827.196 339.805 827.196 339.1 L 827.196 334.537 L 820.852 326.857 L 820.852 339.1 Q 820.852 339.805 820.537 340.121 Q 820.221 340.436 819.517 340.436 Z" style="fill: rgb(65, 61, 81); white-space: pre;"/>
  <path d="M 852.914 340.436 L 841.19 340.436 Q 840.485 340.436 840.17 340.121 Q 839.854 339.805 839.854 339.1 L 839.854 334.76 Q 839.854 334.055 840.17 333.739 Q 840.485 333.424 841.19 333.424 L 851.17 333.424 Q 851.652 333.424 851.893 333.109 Q 852.134 332.793 852.134 332.348 Q 852.134 331.718 851.893 331.421 Q 851.652 331.124 851.17 331.087 L 845.605 330.308 Q 843.008 329.937 841.431 328.601 Q 839.854 327.266 839.854 324.149 L 839.854 320.254 Q 839.854 317.1 841.895 315.412 Q 843.935 313.724 847.534 313.724 L 857.922 313.724 Q 858.627 313.724 858.942 314.039 Q 859.258 314.355 859.258 315.06 L 859.258 319.475 Q 859.258 320.179 858.942 320.495 Q 858.627 320.81 857.922 320.81 L 849.278 320.81 Q 848.795 320.81 848.536 321.125 Q 848.276 321.441 848.276 321.923 Q 848.276 322.405 848.536 322.739 Q 848.795 323.073 849.278 323.11 L 854.806 323.852 Q 857.403 324.223 858.998 325.559 Q 860.593 326.895 860.593 330.011 L 860.593 333.906 Q 860.593 337.06 858.534 338.748 Q 856.475 340.436 852.914 340.436 Z" style="fill: rgb(65, 61, 81); white-space: pre;"/>
  <path d="M 887.374 333.424 Q 887.374 335.131 886.873 336.522 Q 886.372 337.913 885.092 338.896 Q 883.812 339.88 881.586 340.436 Q 879.36 340.993 875.91 340.993 Q 872.46 340.993 870.234 340.436 Q 868.008 339.88 866.728 338.896 Q 865.448 337.913 864.947 336.522 Q 864.446 335.131 864.446 333.424 L 864.446 315.06 Q 864.446 314.355 864.761 314.039 Q 865.077 313.724 865.782 313.724 L 871.606 313.724 Q 872.311 313.724 872.627 314.039 Q 872.942 314.355 872.942 315.06 L 872.942 331.977 Q 872.942 332.719 873.498 333.22 Q 874.055 333.721 875.984 333.721 Q 877.95 333.721 878.507 333.22 Q 879.063 332.719 879.063 331.977 L 879.063 315.06 Q 879.063 314.355 879.379 314.039 Q 879.694 313.724 880.399 313.724 L 886.038 313.724 Q 886.743 313.724 887.059 314.039 Q 887.374 314.355 887.374 315.06 Z" style="fill: rgb(65, 61, 81); white-space: pre;"/>
  <path d="M 904.679 340.436 L 892.956 340.436 Q 892.251 340.436 891.935 340.121 Q 891.62 339.805 891.62 339.1 L 891.62 334.76 Q 891.62 334.055 891.935 333.739 Q 892.251 333.424 892.956 333.424 L 902.936 333.424 Q 903.418 333.424 903.659 333.109 Q 903.9 332.793 903.9 332.348 Q 903.9 331.718 903.659 331.421 Q 903.418 331.124 902.936 331.087 L 897.371 330.308 Q 894.774 329.937 893.197 328.601 Q 891.62 327.266 891.62 324.149 L 891.62 320.254 Q 891.62 317.1 893.661 315.412 Q 895.701 313.724 899.3 313.724 L 909.688 313.724 Q 910.393 313.724 910.708 314.039 Q 911.023 314.355 911.023 315.06 L 911.023 319.475 Q 911.023 320.179 910.708 320.495 Q 910.393 320.81 909.688 320.81 L 901.043 320.81 Q 900.561 320.81 900.301 321.125 Q 900.042 321.441 900.042 321.923 Q 900.042 322.405 900.301 322.739 Q 900.561 323.073 901.043 323.11 L 906.571 323.852 Q 909.168 324.223 910.764 325.559 Q 912.359 326.895 912.359 330.011 L 912.359 333.906 Q 912.359 337.06 910.3 338.748 Q 908.241 340.436 904.679 340.436 Z" style="fill: rgb(65, 61, 81); white-space: pre;"/>
  <path d="M 928.636 340.436 L 922.626 340.436 Q 921.921 340.436 921.606 340.121 Q 921.29 339.805 921.29 339.1 L 921.29 320.884 L 915.837 320.884 Q 915.132 320.884 914.816 320.569 Q 914.501 320.254 914.501 319.549 L 914.501 315.06 Q 914.501 314.355 914.816 314.039 Q 915.132 313.724 915.837 313.724 L 935.425 313.724 Q 936.13 313.724 936.446 314.039 Q 936.761 314.355 936.761 315.06 L 936.761 319.549 Q 936.761 320.254 936.446 320.569 Q 936.13 320.884 935.425 320.884 L 929.972 320.884 L 929.972 339.1 Q 929.972 339.805 929.656 340.121 Q 929.341 340.436 928.636 340.436 Z" style="fill: rgb(65, 61, 81); white-space: pre;"/>
  <path d="M 948.549 321.515 L 946.805 327.154 L 952.63 327.154 L 950.886 321.515 Q 950.738 321.181 950.571 321.033 Q 950.404 320.884 950.181 320.884 L 949.254 320.884 Q 949.031 320.884 948.864 321.033 Q 948.697 321.181 948.549 321.515 Z M 946.434 339.1 Q 946.434 339.805 946.119 340.121 Q 945.804 340.436 945.099 340.436 L 939.645 340.436 Q 938.94 340.436 938.625 340.121 Q 938.309 339.805 938.309 339.1 L 938.309 329.306 Q 938.309 328.193 938.662 326.746 Q 939.014 325.299 939.756 323.37 L 942.984 314.948 Q 943.207 314.318 943.67 314.021 Q 944.134 313.724 944.876 313.724 L 954.856 313.724 Q 955.561 313.724 956.025 314.021 Q 956.488 314.318 956.711 314.948 L 959.939 323.37 Q 960.681 325.299 961.033 326.746 Q 961.386 328.193 961.386 329.306 L 961.386 339.1 Q 961.386 339.805 961.07 340.121 Q 960.755 340.436 960.05 340.436 L 954.448 340.436 Q 953.706 340.436 953.353 340.121 Q 953.001 339.805 953.001 339.1 L 953.001 333.906 L 946.434 333.906 Z" style="fill: rgb(65, 61, 81); white-space: pre;"/>
  <path d="M 966.67 340.436 Q 965.966 340.436 965.65 340.121 Q 965.335 339.805 965.335 339.1 L 965.335 334.686 Q 965.335 333.981 965.65 333.665 Q 965.966 333.35 966.67 333.35 L 970.343 333.35 L 970.343 320.884 L 966.67 320.884 Q 965.966 320.884 965.65 320.569 Q 965.335 320.254 965.335 319.549 L 965.335 315.06 Q 965.335 314.355 965.65 314.039 Q 965.966 313.724 966.67 313.724 L 982.475 313.724 Q 983.18 313.724 983.495 314.039 Q 983.811 314.355 983.811 315.06 L 983.811 319.549 Q 983.811 320.254 983.495 320.569 Q 983.18 320.884 982.475 320.884 L 978.876 320.884 L 978.876 333.35 L 982.475 333.35 Q 983.18 333.35 983.495 333.665 Q 983.811 333.981 983.811 334.686 L 983.811 339.1 Q 983.811 339.805 983.495 340.121 Q 983.18 340.436 982.475 340.436 Z" style="fill: rgb(65, 61, 81); white-space: pre;"/>
  <path d="M 995.251 340.436 L 989.686 340.436 Q 988.981 340.436 988.666 340.121 Q 988.35 339.805 988.35 339.1 L 988.35 315.06 Q 988.35 314.355 988.666 314.039 Q 988.981 313.724 989.686 313.724 L 993.544 313.724 Q 994.249 313.724 994.75 313.947 Q 995.251 314.169 995.733 314.726 L 1002.931 322.962 L 1002.931 315.06 Q 1002.931 314.355 1003.246 314.039 Q 1003.561 313.724 1004.266 313.724 L 1009.831 313.724 Q 1010.536 313.724 1010.851 314.039 Q 1011.167 314.355 1011.167 315.06 L 1011.167 339.1 Q 1011.167 339.805 1010.851 340.121 Q 1010.536 340.436 1009.831 340.436 L 1004.266 340.436 Q 1003.561 340.436 1003.246 340.121 Q 1002.931 339.805 1002.931 339.1 L 1002.931 334.537 L 996.587 326.857 L 996.587 339.1 Q 996.587 339.805 996.271 340.121 Q 995.956 340.436 995.251 340.436 Z" style="fill: rgb(65, 61, 81); white-space: pre;"/>
  <path d="M 1024.583 340.436 L 1017.088 340.436 Q 1016.383 340.436 1016.068 340.121 Q 1015.753 339.805 1015.753 339.1 L 1015.753 331.569 Q 1015.753 330.864 1016.068 330.549 Q 1016.383 330.234 1017.088 330.234 L 1024.583 330.234 Q 1025.287 330.234 1025.603 330.549 Q 1025.918 330.864 1025.918 331.569 L 1025.918 339.1 Q 1025.918 339.805 1025.603 340.121 Q 1025.287 340.436 1024.583 340.436 Z" style="fill: rgb(65, 61, 81); white-space: pre;"/>
  <path d="M 1048.293 340.436 L 1039.241 340.436 Q 1034.603 340.436 1032.359 338.581 Q 1030.114 336.726 1030.114 332.868 L 1030.114 321.33 Q 1030.114 317.471 1032.359 315.598 Q 1034.603 313.724 1039.241 313.724 L 1048.293 313.724 Q 1048.998 313.724 1049.313 314.039 Q 1049.629 314.355 1049.629 315.06 L 1049.629 319.549 Q 1049.629 320.254 1049.313 320.569 Q 1048.998 320.884 1048.293 320.884 L 1040.836 320.884 Q 1039.686 320.884 1039.129 321.348 Q 1038.573 321.812 1038.573 322.739 L 1038.573 331.569 Q 1038.573 332.497 1039.129 332.923 Q 1039.686 333.35 1040.836 333.35 L 1048.293 333.35 Q 1048.998 333.35 1049.313 333.665 Q 1049.629 333.981 1049.629 334.686 L 1049.629 339.1 Q 1049.629 339.805 1049.313 340.121 Q 1048.998 340.436 1048.293 340.436 Z" style="fill: rgb(65, 61, 81); white-space: pre;"/>
  <path d="M 1076.247 333.424 Q 1076.247 335.131 1075.746 336.522 Q 1075.245 337.913 1073.965 338.896 Q 1072.685 339.88 1070.441 340.436 Q 1068.196 340.993 1064.746 340.993 Q 1061.296 340.993 1059.033 340.436 Q 1056.769 339.88 1055.489 338.896 Q 1054.21 337.913 1053.709 336.522 Q 1053.208 335.131 1053.208 333.424 L 1053.208 320.773 Q 1053.208 319.066 1053.709 317.675 Q 1054.21 316.284 1055.489 315.282 Q 1056.769 314.281 1059.033 313.724 Q 1061.296 313.168 1064.746 313.168 Q 1068.196 313.168 1070.441 313.724 Q 1072.685 314.281 1073.965 315.282 Q 1075.245 316.284 1075.746 317.675 Q 1076.247 319.066 1076.247 320.773 Z M 1061.63 332.089 Q 1061.63 332.831 1062.186 333.331 Q 1062.743 333.832 1064.746 333.832 Q 1066.749 333.832 1067.306 333.331 Q 1067.862 332.831 1067.862 332.089 L 1067.862 322.109 Q 1067.862 321.404 1067.306 320.903 Q 1066.749 320.402 1064.746 320.402 Q 1062.743 320.402 1062.186 320.903 Q 1061.63 321.404 1061.63 322.109 Z" style="fill: rgb(65, 61, 81); white-space: pre;"/>
  <path d="M 1087.808 340.436 L 1082.28 340.436 Q 1081.575 340.436 1081.259 340.121 Q 1080.944 339.805 1080.944 339.1 L 1080.944 315.06 Q 1080.944 314.355 1081.259 314.039 Q 1081.575 313.724 1082.28 313.724 L 1088.253 313.724 Q 1088.846 313.724 1089.236 313.984 Q 1089.625 314.243 1089.959 314.837 L 1093.298 320.884 Q 1093.484 321.218 1093.614 321.367 Q 1093.744 321.515 1093.966 321.515 L 1094.3 321.515 Q 1094.523 321.515 1094.653 321.367 Q 1094.782 321.218 1094.968 320.884 L 1098.27 314.837 Q 1098.604 314.243 1098.993 313.984 Q 1099.383 313.724 1099.976 313.724 L 1105.987 313.724 Q 1106.691 313.724 1107.007 314.039 Q 1107.322 314.355 1107.322 315.06 L 1107.322 339.1 Q 1107.322 339.805 1107.007 340.121 Q 1106.691 340.436 1105.987 340.436 L 1100.273 340.436 Q 1099.568 340.436 1099.253 340.121 Q 1098.938 339.805 1098.938 339.1 L 1098.938 326.041 L 1096.749 330.085 Q 1096.415 330.716 1095.951 330.994 Q 1095.487 331.272 1094.782 331.272 L 1093.298 331.272 Q 1092.593 331.272 1092.13 330.994 Q 1091.666 330.716 1091.332 330.085 L 1089.143 326.041 L 1089.143 339.1 Q 1089.143 339.805 1088.828 340.121 Q 1088.512 340.436 1087.808 340.436 Z" style="fill: rgb(65, 61, 81); white-space: pre;"/>
  <path d="M 806.491 429.549 L 806.491 412.701 L 816.444 412.701 L 816.444 413.013 L 806.803 413.013 L 806.803 421.936 L 813.917 421.936 L 813.917 422.248 L 806.803 422.248 L 806.803 429.549 Z" style="fill: rgb(51, 51, 51); white-space: pre;"/>
  <path d="M 837.831 425.743 Q 837.831 427.615 836.489 428.785 Q 835.148 429.955 831.497 429.955 Q 827.847 429.955 826.536 428.785 Q 825.226 427.615 825.226 425.743 L 825.226 416.539 Q 825.226 414.667 826.536 413.497 Q 827.847 412.327 831.497 412.327 Q 835.148 412.327 836.489 413.497 Q 837.831 414.667 837.831 416.539 Z M 825.538 425.743 Q 825.538 427.49 826.786 428.566 Q 828.034 429.643 831.497 429.643 Q 834.96 429.643 836.24 428.566 Q 837.519 427.49 837.519 425.743 L 837.519 416.539 Q 837.519 414.791 836.24 413.715 Q 834.96 412.639 831.497 412.639 Q 828.034 412.639 826.786 413.715 Q 825.538 414.791 825.538 416.539 Z" style="fill: rgb(51, 51, 51); white-space: pre;"/>
  <path d="M 855.667 413.013 L 848.866 413.013 L 848.866 422.03 L 855.667 422.03 Q 857.602 422.03 858.257 421.094 Q 858.912 420.158 858.912 418.442 L 858.912 416.258 Q 858.912 414.823 858.116 413.918 Q 857.321 413.013 855.667 413.013 Z M 848.866 429.549 L 848.554 429.549 L 848.554 412.701 L 855.667 412.701 Q 857.477 412.701 858.35 413.715 Q 859.224 414.729 859.224 416.258 L 859.224 418.411 Q 859.224 419.846 858.85 420.766 Q 858.475 421.687 857.352 422.03 L 857.695 422.03 Q 859.598 422.03 860.534 422.888 Q 861.47 423.746 861.47 425.368 L 861.47 429.549 L 861.158 429.549 L 861.158 425.368 Q 861.158 423.839 860.316 423.075 Q 859.474 422.311 857.695 422.311 L 848.866 422.311 Z" style="fill: rgb(51, 51, 51); white-space: pre;"/>
  <path d="M 889.287 429.237 L 889.287 429.549 L 878.772 429.549 L 878.772 412.701 L 889.287 412.701 L 889.287 413.013 L 879.084 413.013 L 879.084 420.844 L 886.76 420.844 L 886.76 421.156 L 879.084 421.156 L 879.084 429.237 Z" style="fill: rgb(51, 51, 51); white-space: pre;"/>
  <path d="M 899.896 412.951 L 911.378 425.867 L 911.378 412.701 L 911.69 412.701 L 911.69 429.549 L 911.378 429.549 L 911.378 426.335 L 899.584 413.107 Q 899.553 413.075 899.506 413.044 Q 899.459 413.013 899.428 413.013 Q 899.397 413.013 899.381 413.044 Q 899.366 413.075 899.366 413.107 L 899.366 429.549 L 899.054 429.549 L 899.054 413.044 Q 899.054 412.857 899.179 412.763 Q 899.303 412.67 899.428 412.67 Q 899.553 412.67 899.647 412.732 Q 899.74 412.795 899.896 412.951 Z" style="fill: rgb(51, 51, 51); white-space: pre;"/>
  <path d="M 922.32 412.701 L 922.632 412.701 L 922.632 419.44 Q 922.632 420.251 922.757 420.985 Q 922.881 421.718 923.131 422.342 L 925.19 427.334 Q 925.502 428.145 925.892 428.691 Q 926.282 429.237 927.156 429.237 L 929.901 429.237 Q 930.775 429.237 931.165 428.691 Q 931.555 428.145 931.867 427.334 L 933.926 422.342 Q 934.176 421.718 934.301 420.985 Q 934.425 420.251 934.425 419.44 L 934.425 412.701 L 934.737 412.701 L 934.737 419.44 Q 934.737 420.314 934.628 421.047 Q 934.519 421.78 934.238 422.467 L 932.179 427.459 Q 931.805 428.363 931.337 428.956 Q 930.869 429.549 929.901 429.549 L 927.156 429.549 Q 926.189 429.549 925.721 428.956 Q 925.253 428.363 924.878 427.459 L 922.819 422.467 Q 922.538 421.78 922.429 421.047 Q 922.32 420.314 922.32 419.44 Z" style="fill: rgb(51, 51, 51); white-space: pre;"/>
  <path d="M 954.258 429.549 L 944.337 429.549 L 944.337 429.237 L 949.173 429.237 L 949.173 413.013 L 944.337 413.013 L 944.337 412.701 L 954.258 412.701 L 954.258 413.013 L 949.485 413.013 L 949.485 429.237 L 954.258 429.237 Z" style="fill: rgb(51, 51, 51); white-space: pre;"/>
  <path d="M 971.37 413.013 L 964.569 413.013 L 964.569 422.03 L 971.37 422.03 Q 973.305 422.03 973.96 421.094 Q 974.615 420.158 974.615 418.442 L 974.615 416.258 Q 974.615 414.823 973.82 413.918 Q 973.024 413.013 971.37 413.013 Z M 964.569 429.549 L 964.257 429.549 L 964.257 412.701 L 971.37 412.701 Q 973.18 412.701 974.054 413.715 Q 974.927 414.729 974.927 416.258 L 974.927 418.411 Q 974.927 419.846 974.553 420.766 Q 974.178 421.687 973.055 422.03 L 973.398 422.03 Q 975.302 422.03 976.238 422.888 Q 977.174 423.746 977.174 425.368 L 977.174 429.549 L 976.862 429.549 L 976.862 425.368 Q 976.862 423.839 976.019 423.075 Q 975.177 422.311 973.398 422.311 L 964.569 422.311 Z" style="fill: rgb(51, 51, 51); white-space: pre;"/>
  <path d="M 999.534 425.743 Q 999.534 427.615 998.192 428.785 Q 996.851 429.955 993.2 429.955 Q 989.55 429.955 988.24 428.785 Q 986.929 427.615 986.929 425.743 L 986.929 416.539 Q 986.929 414.667 988.24 413.497 Q 989.55 412.327 993.2 412.327 Q 996.851 412.327 998.192 413.497 Q 999.534 414.667 999.534 416.539 Z M 987.241 425.743 Q 987.241 427.49 988.489 428.566 Q 989.737 429.643 993.2 429.643 Q 996.664 429.643 997.943 428.566 Q 999.222 427.49 999.222 425.743 L 999.222 416.539 Q 999.222 414.791 997.943 413.715 Q 996.664 412.639 993.2 412.639 Q 989.737 412.639 988.489 413.715 Q 987.241 414.791 987.241 416.539 Z" style="fill: rgb(51, 51, 51); white-space: pre;"/>
  <path d="M 1011.006 412.951 L 1022.487 425.867 L 1022.487 412.701 L 1022.799 412.701 L 1022.799 429.549 L 1022.487 429.549 L 1022.487 426.335 L 1010.694 413.107 Q 1010.662 413.075 1010.616 413.044 Q 1010.569 413.013 1010.538 413.013 Q 1010.506 413.013 1010.491 413.044 Q 1010.475 413.075 1010.475 413.107 L 1010.475 429.549 L 1010.163 429.549 L 1010.163 413.044 Q 1010.163 412.857 1010.288 412.763 Q 1010.413 412.67 1010.538 412.67 Q 1010.662 412.67 1010.756 412.732 Q 1010.85 412.795 1011.006 412.951 Z" style="fill: rgb(51, 51, 51); white-space: pre;"/>
  <path d="M 1041.354 420.345 Q 1041.916 420.345 1042.165 420.095 Q 1042.415 419.846 1042.945 419.035 L 1046.752 413.231 Q 1046.939 412.919 1047.173 412.81 Q 1047.407 412.701 1047.656 412.701 L 1048.187 412.701 Q 1048.624 412.701 1048.826 412.935 Q 1049.029 413.169 1049.029 413.668 L 1049.029 429.549 L 1048.717 429.549 L 1048.717 413.668 Q 1048.717 413.419 1048.608 413.216 Q 1048.499 413.013 1048.187 413.013 L 1047.719 413.013 Q 1047.5 413.013 1047.344 413.075 Q 1047.188 413.138 1047.001 413.45 L 1043.195 419.191 Q 1042.633 420.033 1042.337 420.345 Q 1042.04 420.657 1041.354 420.657 Q 1040.668 420.657 1040.371 420.345 Q 1040.075 420.033 1039.513 419.191 L 1035.707 413.45 Q 1035.52 413.138 1035.348 413.075 Q 1035.176 413.013 1034.958 413.013 L 1034.49 413.013 Q 1034.178 413.013 1034.084 413.216 Q 1033.991 413.419 1033.991 413.668 L 1033.991 429.549 L 1033.679 429.549 L 1033.679 413.668 Q 1033.679 413.169 1033.882 412.935 Q 1034.084 412.701 1034.49 412.701 L 1035.02 412.701 Q 1035.27 412.701 1035.52 412.81 Q 1035.769 412.919 1035.956 413.231 L 1039.763 419.035 Q 1040.293 419.846 1040.543 420.095 Q 1040.792 420.345 1041.354 420.345 Z" style="fill: rgb(51, 51, 51); white-space: pre;"/>
  <path d="M 1070.771 429.237 L 1070.771 429.549 L 1060.257 429.549 L 1060.257 412.701 L 1070.771 412.701 L 1070.771 413.013 L 1060.569 413.013 L 1060.569 420.844 L 1068.244 420.844 L 1068.244 421.156 L 1060.569 421.156 L 1060.569 429.237 Z" style="fill: rgb(51, 51, 51); white-space: pre;"/>
  <path d="M 1081.365 412.951 L 1092.847 425.867 L 1092.847 412.701 L 1093.159 412.701 L 1093.159 429.549 L 1092.847 429.549 L 1092.847 426.335 L 1081.053 413.107 Q 1081.022 413.075 1080.975 413.044 Q 1080.928 413.013 1080.897 413.013 Q 1080.866 413.013 1080.85 413.044 Q 1080.835 413.075 1080.835 413.107 L 1080.835 429.549 L 1080.523 429.549 L 1080.523 413.044 Q 1080.523 412.857 1080.647 412.763 Q 1080.772 412.67 1080.897 412.67 Q 1081.022 412.67 1081.115 412.732 Q 1081.209 412.795 1081.365 412.951 Z" style="fill: rgb(51, 51, 51); white-space: pre;"/>
  <path d="M 1108.656 429.549 L 1108.656 413.013 L 1102.26 413.013 L 1102.26 412.701 L 1115.364 412.701 L 1115.364 413.013 L 1108.968 413.013 L 1108.968 429.549 Z" style="fill: rgb(51, 51, 51); white-space: pre;"/>
  <path d="M 781.874 460.78 L 781.874 443.932 L 791.827 443.932 L 791.827 444.244 L 782.186 444.244 L 782.186 453.167 L 789.3 453.167 L 789.3 453.479 L 782.186 453.479 L 782.186 460.78 Z" style="fill: rgb(51, 51, 51); white-space: pre;"/>
  <path d="M 813.214 456.974 Q 813.214 458.846 811.872 460.016 Q 810.53 461.186 806.88 461.186 Q 803.23 461.186 801.919 460.016 Q 800.609 458.846 800.609 456.974 L 800.609 447.77 Q 800.609 445.898 801.919 444.728 Q 803.23 443.558 806.88 443.558 Q 810.53 443.558 811.872 444.728 Q 813.214 445.898 813.214 447.77 Z M 800.921 456.974 Q 800.921 458.721 802.169 459.797 Q 803.417 460.874 806.88 460.874 Q 810.343 460.874 811.622 459.797 Q 812.902 458.721 812.902 456.974 L 812.902 447.77 Q 812.902 446.022 811.622 444.946 Q 810.343 443.87 806.88 443.87 Q 803.417 443.87 802.169 444.946 Q 800.921 446.022 800.921 447.77 Z" style="fill: rgb(51, 51, 51); white-space: pre;"/>
  <path d="M 831.05 444.244 L 824.248 444.244 L 824.248 453.261 L 831.05 453.261 Q 832.984 453.261 833.64 452.325 Q 834.295 451.389 834.295 449.673 L 834.295 447.489 Q 834.295 446.054 833.499 445.149 Q 832.704 444.244 831.05 444.244 Z M 824.248 460.78 L 823.936 460.78 L 823.936 443.932 L 831.05 443.932 Q 832.86 443.932 833.733 444.946 Q 834.607 445.96 834.607 447.489 L 834.607 449.642 Q 834.607 451.077 834.232 451.997 Q 833.858 452.918 832.735 453.261 L 833.078 453.261 Q 834.981 453.261 835.917 454.119 Q 836.853 454.977 836.853 456.599 L 836.853 460.78 L 836.541 460.78 L 836.541 456.599 Q 836.541 455.07 835.699 454.306 Q 834.856 453.542 833.078 453.542 L 824.248 453.542 Z" style="fill: rgb(51, 51, 51); white-space: pre;"/>
  <path d="M 863.702 443.932 L 863.702 444.244 L 856.776 444.244 Q 855.466 444.244 854.686 444.962 Q 853.906 445.679 853.906 446.771 L 853.906 449.33 Q 853.906 450.422 854.342 450.858 Q 854.779 451.295 855.497 451.42 L 862.08 452.762 Q 863.016 452.949 863.624 453.573 Q 864.233 454.197 864.233 455.819 L 864.233 457.629 Q 864.233 459.002 863.297 459.891 Q 862.361 460.78 860.77 460.78 L 853.001 460.78 L 853.001 460.468 L 860.77 460.468 Q 862.205 460.468 863.063 459.672 Q 863.921 458.877 863.921 457.629 L 863.921 455.819 Q 863.921 454.353 863.406 453.807 Q 862.891 453.261 862.018 453.074 L 855.434 451.732 Q 854.623 451.576 854.108 451.092 Q 853.594 450.609 853.594 449.33 L 853.594 446.771 Q 853.594 445.523 854.467 444.728 Q 855.341 443.932 856.776 443.932 Z" style="fill: rgb(51, 51, 51); white-space: pre;"/>
  <path d="M 874.312 443.932 L 874.624 443.932 L 874.624 456.942 Q 874.624 458.69 875.856 459.766 Q 877.088 460.842 880.552 460.842 Q 884.015 460.842 885.263 459.766 Q 886.511 458.69 886.511 456.942 L 886.511 443.932 L 886.823 443.932 L 886.823 456.942 Q 886.823 458.814 885.512 459.984 Q 884.202 461.154 880.552 461.154 Q 876.901 461.154 875.606 459.984 Q 874.312 458.814 874.312 456.942 Z" style="fill: rgb(51, 51, 51); white-space: pre;"/>
  <path d="M 907.249 443.932 L 907.249 444.244 L 900.323 444.244 Q 899.012 444.244 898.232 444.962 Q 897.452 445.679 897.452 446.771 L 897.452 449.33 Q 897.452 450.422 897.889 450.858 Q 898.326 451.295 899.044 451.42 L 905.627 452.762 Q 906.563 452.949 907.171 453.573 Q 907.78 454.197 907.78 455.819 L 907.78 457.629 Q 907.78 459.002 906.844 459.891 Q 905.908 460.78 904.316 460.78 L 896.548 460.78 L 896.548 460.468 L 904.316 460.468 Q 905.752 460.468 906.61 459.672 Q 907.468 458.877 907.468 457.629 L 907.468 455.819 Q 907.468 454.353 906.953 453.807 Q 906.438 453.261 905.564 453.074 L 898.981 451.732 Q 898.17 451.576 897.655 451.092 Q 897.14 450.609 897.14 449.33 L 897.14 446.771 Q 897.14 445.523 898.014 444.728 Q 898.888 443.932 900.323 443.932 Z" style="fill: rgb(51, 51, 51); white-space: pre;"/>
  <path d="M 922.179 460.78 L 922.179 444.244 L 915.783 444.244 L 915.783 443.932 L 928.887 443.932 L 928.887 444.244 L 922.491 444.244 L 922.491 460.78 Z" style="fill: rgb(51, 51, 51); white-space: pre;"/>
  <path d="M 936.624 454.134 L 936.624 455.102 L 948.792 455.102 L 948.792 454.134 Q 948.792 453.292 948.652 452.574 Q 948.512 451.857 948.293 451.233 L 946.14 446.147 Q 945.797 445.336 945.423 444.79 Q 945.048 444.244 944.175 444.244 L 941.117 444.244 Q 940.181 444.244 939.807 444.79 Q 939.432 445.336 939.12 446.116 L 937.124 451.233 Q 936.905 451.857 936.765 452.574 Q 936.624 453.292 936.624 454.134 Z M 948.792 460.78 L 948.792 455.414 L 936.624 455.414 L 936.624 460.78 L 936.312 460.78 L 936.312 454.134 Q 936.312 453.261 936.453 452.528 Q 936.593 451.794 936.843 451.108 L 938.84 445.991 Q 939.183 445.118 939.62 444.525 Q 940.056 443.932 941.117 443.932 L 944.175 443.932 Q 945.204 443.932 945.626 444.525 Q 946.047 445.118 946.421 446.022 L 948.574 451.108 Q 948.824 451.794 948.964 452.528 Q 949.104 453.261 949.104 454.134 L 949.104 460.78 Z" style="fill: rgb(51, 51, 51); white-space: pre;"/>
  <path d="M 968.469 460.78 L 958.548 460.78 L 958.548 460.468 L 963.384 460.468 L 963.384 444.244 L 958.548 444.244 L 958.548 443.932 L 968.469 443.932 L 968.469 444.244 L 963.696 444.244 L 963.696 460.468 L 968.469 460.468 Z" style="fill: rgb(51, 51, 51); white-space: pre;"/>
  <path d="M 979.217 444.182 L 990.698 457.098 L 990.698 443.932 L 991.01 443.932 L 991.01 460.78 L 990.698 460.78 L 990.698 457.566 L 978.905 444.338 Q 978.873 444.306 978.827 444.275 Q 978.78 444.244 978.749 444.244 Q 978.717 444.244 978.702 444.275 Q 978.686 444.306 978.686 444.338 L 978.686 460.78 L 978.374 460.78 L 978.374 444.275 Q 978.374 444.088 978.499 443.994 Q 978.624 443.901 978.749 443.901 Q 978.873 443.901 978.967 443.963 Q 979.061 444.026 979.217 444.182 Z" style="fill: rgb(51, 51, 51); white-space: pre;"/>
  <path d="M 1001.734 454.134 L 1001.734 455.102 L 1013.902 455.102 L 1013.902 454.134 Q 1013.902 453.292 1013.761 452.574 Q 1013.621 451.857 1013.402 451.233 L 1011.25 446.147 Q 1010.906 445.336 1010.532 444.79 Q 1010.158 444.244 1009.284 444.244 L 1006.226 444.244 Q 1005.29 444.244 1004.916 444.79 Q 1004.542 445.336 1004.23 446.116 L 1002.233 451.233 Q 1002.014 451.857 1001.874 452.574 Q 1001.734 453.292 1001.734 454.134 Z M 1013.902 460.78 L 1013.902 455.414 L 1001.734 455.414 L 1001.734 460.78 L 1001.422 460.78 L 1001.422 454.134 Q 1001.422 453.261 1001.562 452.528 Q 1001.702 451.794 1001.952 451.108 L 1003.949 445.991 Q 1004.292 445.118 1004.729 444.525 Q 1005.166 443.932 1006.226 443.932 L 1009.284 443.932 Q 1010.314 443.932 1010.735 444.525 Q 1011.156 445.118 1011.53 446.022 L 1013.683 451.108 Q 1013.933 451.794 1014.073 452.528 Q 1014.214 453.261 1014.214 454.134 L 1014.214 460.78 Z" style="fill: rgb(51, 51, 51); white-space: pre;"/>
  <path d="M 1033.204 460.78 L 1024.811 460.78 L 1024.811 443.932 L 1031.145 443.932 Q 1032.424 443.932 1033.235 444.197 Q 1034.047 444.462 1034.483 444.915 Q 1034.92 445.367 1035.076 445.96 Q 1035.232 446.553 1035.232 447.239 L 1035.232 449.236 Q 1035.232 450.172 1034.905 450.952 Q 1034.577 451.732 1033.235 452.075 Q 1034.515 452.075 1035.326 452.34 Q 1036.137 452.606 1036.574 453.089 Q 1037.011 453.573 1037.151 454.228 Q 1037.291 454.883 1037.291 455.663 L 1037.291 457.66 Q 1037.291 458.346 1037.135 458.924 Q 1036.979 459.501 1036.558 459.906 Q 1036.137 460.312 1035.326 460.546 Q 1034.515 460.78 1033.204 460.78 Z M 1031.145 444.244 L 1025.123 444.244 L 1025.123 452.075 L 1031.145 452.075 Q 1032.424 452.075 1033.173 451.841 Q 1033.922 451.607 1034.312 451.217 Q 1034.702 450.827 1034.811 450.312 Q 1034.92 449.798 1034.92 449.236 L 1034.92 447.239 Q 1034.92 445.991 1034.203 445.118 Q 1033.485 444.244 1031.145 444.244 Z M 1033.235 452.387 L 1025.123 452.387 L 1025.123 460.468 L 1033.204 460.468 Q 1035.544 460.468 1036.262 459.704 Q 1036.979 458.939 1036.979 457.66 L 1036.979 455.663 Q 1036.979 454.259 1036.277 453.323 Q 1035.575 452.387 1033.235 452.387 Z" style="fill: rgb(51, 51, 51); white-space: pre;"/>
  <path d="M 1056.188 460.78 L 1046.266 460.78 L 1046.266 460.468 L 1051.102 460.468 L 1051.102 444.244 L 1046.266 444.244 L 1046.266 443.932 L 1056.188 443.932 L 1056.188 444.244 L 1051.414 444.244 L 1051.414 460.468 L 1056.188 460.468 Z" style="fill: rgb(51, 51, 51); white-space: pre;"/>
  <path d="M 1066.233 460.78 L 1066.233 443.932 L 1066.545 443.932 L 1066.545 460.468 L 1077.403 460.468 L 1077.403 454.322 L 1077.715 454.322 L 1077.715 460.78 Z" style="fill: rgb(51, 51, 51); white-space: pre;"/>
  <path d="M 1096.735 460.78 L 1086.813 460.78 L 1086.813 460.468 L 1091.649 460.468 L 1091.649 444.244 L 1086.813 444.244 L 1086.813 443.932 L 1096.735 443.932 L 1096.735 444.244 L 1091.961 444.244 L 1091.961 460.468 L 1096.735 460.468 Z" style="fill: rgb(51, 51, 51); white-space: pre;"/>
  <path d="M 1111.304 460.78 L 1111.304 444.244 L 1104.908 444.244 L 1104.908 443.932 L 1118.012 443.932 L 1118.012 444.244 L 1111.616 444.244 L 1111.616 460.78 Z" style="fill: rgb(51, 51, 51); white-space: pre;"/>
  <path d="M 1133.068 455.445 L 1132.849 455.445 L 1132.849 460.78 L 1132.537 460.78 L 1132.537 455.445 L 1132.225 455.445 Q 1131.539 455.445 1130.993 455.133 Q 1130.447 454.821 1129.948 454.134 L 1126.921 449.922 Q 1126.578 449.454 1126.516 448.83 Q 1126.453 448.206 1126.453 447.52 L 1126.453 443.932 L 1126.765 443.932 L 1126.765 447.52 Q 1126.765 448.175 1126.828 448.752 Q 1126.89 449.33 1127.202 449.798 L 1130.228 454.01 Q 1130.634 454.634 1131.164 454.883 Q 1131.695 455.133 1132.225 455.133 L 1133.068 455.133 Q 1133.66 455.133 1134.144 454.868 Q 1134.628 454.602 1135.096 454.01 L 1138.216 449.798 Q 1138.528 449.392 1138.59 448.784 Q 1138.652 448.175 1138.652 447.52 L 1138.652 443.932 L 1138.964 443.932 L 1138.964 447.52 Q 1138.964 448.206 1138.918 448.815 Q 1138.871 449.423 1138.496 449.922 L 1135.376 454.134 Q 1134.877 454.821 1134.331 455.133 Q 1133.785 455.445 1133.068 455.445 Z" style="fill: rgb(51, 51, 51); white-space: pre;"/>
</svg>